<svg width="24" height="24" viewBox="0 0 24 24" fill="none" xmlns="http://www.w3.org/2000/svg">
<mask id="mask0_3776_8051" style="mask-type:alpha" maskUnits="userSpaceOnUse" x="0" y="0" width="24" height="24">
<rect width="24" height="24" fill="#D9D9D9"/>
</mask>
<g mask="url(#mask0_3776_8051)">
<path d="M4.55375 20.5C4.31408 20.4397 4.09358 20.3089 3.89225 20.1077C3.69108 19.9064 3.56033 19.6859 3.5 19.4462L19.4462 3.5C19.7064 3.5705 19.9294 3.70125 20.1152 3.89225C20.3012 4.08325 20.4346 4.30375 20.5152 4.55375L4.55375 20.5ZM3.5 14.1135V12.0058L12.0057 3.5H14.1135L3.5 14.1135ZM3.5 6.673V5.30775C3.5 4.80258 3.675 4.375 4.025 4.025C4.375 3.675 4.80258 3.5 5.30775 3.5H6.673L3.5 6.673ZM17.327 20.5L20.5 17.327V18.6923C20.5 19.1974 20.325 19.625 19.975 19.975C19.625 20.325 19.1974 20.5 18.6922 20.5H17.327ZM9.8865 20.5L20.5 9.8865V11.9943L11.9942 20.5H9.8865Z" fill="#111111"/>
</g>
</svg>
