<svg width="24" height="24" viewBox="0 0 24 24" fill="none" xmlns="http://www.w3.org/2000/svg">
<mask id="mask0_3776_8063" style="mask-type:alpha" maskUnits="userSpaceOnUse" x="0" y="0" width="24" height="24">
<rect width="24" height="24" fill="#D9D9D9"/>
</mask>
<g mask="url(#mask0_3776_8063)">
<path d="M11.5 14.8652C12.573 14.8652 13.5153 14.5239 14.327 13.8413C15.1385 13.1586 15.6385 12.2922 15.827 11.2422L8.25 13.377C8.66417 13.8527 9.15042 14.2197 9.70875 14.478C10.2671 14.7362 10.8642 14.8652 11.5 14.8652ZM7.3885 11.1345L9.90375 10.423C9.95758 10.0013 9.84417 9.63308 9.5635 9.31825C9.28267 9.00358 8.92817 8.84625 8.5 8.84625C8.109 8.84625 7.77725 8.98242 7.50475 9.25475C7.23242 9.52725 7.09625 9.859 7.09625 10.25C7.09625 10.4142 7.12475 10.5683 7.18175 10.7125C7.23875 10.8567 7.30767 10.9973 7.3885 11.1345ZM13.3885 9.3845L15.9038 8.673C15.9679 8.25133 15.8571 7.88308 15.5712 7.56825C15.2852 7.25358 14.9282 7.09625 14.5 7.09625C14.109 7.09625 13.7773 7.23242 13.5048 7.50475C13.2324 7.77725 13.0962 8.109 13.0962 8.5C13.0962 8.66417 13.1248 8.81833 13.1818 8.9625C13.2388 9.10667 13.3077 9.24733 13.3885 9.3845ZM15.7885 20.5H5.30775C4.80258 20.5 4.375 20.325 4.025 19.975C3.675 19.625 3.5 19.1974 3.5 18.6923V5.30775C3.5 4.80258 3.675 4.375 4.025 4.025C4.375 3.675 4.80258 3.5 5.30775 3.5H18.6923C19.1974 3.5 19.625 3.675 19.975 4.025C20.325 4.375 20.5 4.80258 20.5 5.30775V15.7885L15.7885 20.5ZM15 19V17C15 16.45 15.1958 15.9792 15.5875 15.5875C15.9792 15.1958 16.45 15 17 15H19V5.30775C19 5.23075 18.9679 5.16025 18.9038 5.09625C18.8398 5.03208 18.7692 5 18.6923 5H5.30775C5.23075 5 5.16025 5.03208 5.09625 5.09625C5.03208 5.16025 5 5.23075 5 5.30775V18.6923C5 18.7692 5.03208 18.8398 5.09625 18.9038C5.16025 18.9679 5.23075 19 5.30775 19H15Z" fill="#111111"/>
</g>
</svg>
