<svg width="24" height="24" viewBox="0 0 24 24" fill="none" xmlns="http://www.w3.org/2000/svg">
<mask id="mask0_3776_8060" style="mask-type:alpha" maskUnits="userSpaceOnUse" x="0" y="0" width="24" height="24">
<rect width="24" height="24" fill="#D9D9D9"/>
</mask>
<g mask="url(#mask0_3776_8060)">
<path d="M7.2115 18.5C6.74483 18.5 6.34292 18.3314 6.00575 17.9943C5.66858 17.6571 5.5 17.2552 5.5 16.7885C5.5 16.5705 5.542 16.3599 5.626 16.1567C5.71 15.9536 5.83917 15.7648 6.0135 15.5905L15.5905 6.0135C15.7648 5.83917 15.9552 5.71 16.1615 5.626C16.368 5.542 16.5802 5.5 16.798 5.5C17.2647 5.5 17.665 5.667 17.999 6.001C18.333 6.335 18.5 6.7385 18.5 7.2115C18.5 7.4295 18.4606 7.64267 18.3818 7.851C18.3029 8.05933 18.1795 8.25067 18.0115 8.425L8.425 18.002C8.257 18.1763 8.06983 18.3029 7.8635 18.3818C7.657 18.4606 7.43967 18.5 7.2115 18.5Z" fill="#111111"/>
</g>
</svg>
