<svg width="32" height="32" viewBox="0 0 32 32" fill="none" xmlns="http://www.w3.org/2000/svg">
<path d="M30.0864 16.3376C30.0864 15.3406 30.0056 14.3382 29.8331 13.3574H15.9995V19.0052H23.9214C23.5927 20.8266 22.5364 22.438 20.9898 23.4618V27.1264H25.7159C28.4912 24.572 30.0864 20.7997 30.0864 16.3376Z" fill="#4285F4"/>
<path d="M15.9995 30.6668C19.9551 30.6668 23.2908 29.368 25.7212 27.1262L20.9951 23.4617C19.6801 24.3562 17.9827 24.8628 16.0049 24.8628C12.1787 24.8628 8.9345 22.2814 7.77049 18.811H2.89343V22.5886C5.38315 27.5412 10.4542 30.6668 15.9995 30.6668Z" fill="#34A853"/>
<path d="M7.76515 18.8109C7.1508 16.9895 7.1508 15.0172 7.76515 13.1957V9.41797H2.89349C0.813344 13.5621 0.813329 18.4445 2.89348 22.5887L7.76515 18.8109Z" fill="#FBBC04"/>
<path d="M15.9994 7.13844C18.0904 7.10611 20.1113 7.8929 21.6256 9.33715L25.8128 5.1499C23.1614 2.66018 19.6424 1.29137 15.9994 1.33448C10.4542 1.33448 5.38315 4.46012 2.89343 9.418L7.76509 13.1957C8.92373 9.71979 12.1733 7.13844 15.9994 7.13844Z" fill="#EA4335"/>
</svg>
