<svg width="512" height="512" viewBox="0 0 512 512" fill="none" xmlns="http://www.w3.org/2000/svg">
<rect width="512" height="512" fill="white"/>
<path d="M381.179 190.142C356.899 142.772 310.919 113.742 255.169 114.002C199.419 113.742 153.439 142.772 129.159 190.142C126.619 195.692 127.709 198.512 133.259 201.082C155.089 213.422 151.289 208.572 164.679 190.652C185.979 159.532 220.509 144.982 255.169 145.332C289.839 144.982 324.359 159.532 345.659 190.652C359.049 208.572 355.259 213.422 377.079 201.082C382.629 198.522 383.719 195.692 381.179 190.142Z" fill="#FFC400"/>
<path d="M407.609 252.603C405.009 244.223 403.039 243.353 394.699 246.003C390.459 247.353 386.199 248.673 382.289 250.853C377.609 253.453 376.539 255.983 378.119 261.063C381.019 270.383 383.949 279.663 385.659 289.333C391.489 321.673 377.079 360.773 338.759 368.253C323.769 371.183 295.999 360.243 280.349 345.133C279.149 343.973 278.999 342.103 279.969 340.743C321.809 282.193 307.749 244.913 281.089 230.363C265.739 221.983 246.969 221.983 231.619 230.363C204.959 244.913 190.899 282.193 232.739 340.743C233.709 342.103 233.569 343.973 232.359 345.133C216.719 360.253 188.949 371.183 173.949 368.253C135.629 360.773 121.219 321.673 127.049 289.333C128.759 279.663 131.689 270.383 134.589 261.063C136.169 255.983 135.099 253.453 130.419 250.853C126.509 248.683 122.249 247.353 118.009 246.003C109.669 243.353 107.699 244.223 105.099 252.603C66.8788 365.303 155.329 444.133 253.669 368.173C254.559 367.383 255.459 366.973 256.349 366.863C257.249 366.983 258.139 367.383 259.029 368.173C357.369 444.133 445.819 365.303 407.599 252.603H407.609Z" fill="#FFC400"/>
</svg>
