<svg width="24" height="24" viewBox="0 0 24 24" fill="none" xmlns="http://www.w3.org/2000/svg">
<mask id="mask0_3749_10947" style="mask-type:alpha" maskUnits="userSpaceOnUse" x="0" y="0" width="24" height="24">
<rect width="24" height="24" fill="#D9D9D9"/>
</mask>
<g mask="url(#mask0_3749_10947)">
<path d="M9.62135 18.5C8.15851 18.5 6.9056 18.0103 5.8626 17.0308C4.8196 16.0513 4.2981 14.8455 4.2981 13.4135C4.2981 11.9815 4.8196 10.7773 5.8626 9.801C6.9056 8.82467 8.15851 8.3365 9.62135 8.3365H16.6423L13.8598 5.55375L14.9136 4.5L19.5001 9.0865L14.9136 13.673L13.8598 12.6193L16.6423 9.8365H9.62135C8.57768 9.8365 7.6796 10.1794 6.9271 10.8652C6.17443 11.5512 5.7981 12.4007 5.7981 13.4135C5.7981 14.4263 6.17443 15.2773 6.9271 15.9663C7.6796 16.6554 8.57768 17 9.62135 17H16.7981V18.5H9.62135Z" fill="#111111"/>
</g>
</svg>
