<svg width="24" height="24" viewBox="0 0 24 24" fill="none" xmlns="http://www.w3.org/2000/svg">
<mask id="mask0_4108_14733" style="mask-type:alpha" maskUnits="userSpaceOnUse" x="0" y="0" width="24" height="24">
<rect width="24" height="24" fill="#D9D9D9"/>
</mask>
<g mask="url(#mask0_4108_14733)">
<path d="M7.3385 18.625V5.375H12.2C13.2192 5.375 14.1407 5.69233 14.9645 6.327C15.7882 6.9615 16.2 7.816 16.2 8.8905C16.2 9.63783 16.0195 10.2471 15.6585 10.7182C15.2977 11.1894 14.9089 11.5314 14.4923 11.7442C15.0051 11.9211 15.4948 12.2708 15.9615 12.7933C16.4282 13.3158 16.6615 14.0193 16.6615 14.9038C16.6615 16.1819 16.1903 17.1217 15.248 17.723C14.3057 18.3243 13.3563 18.625 12.4 18.625H7.3385ZM9.4885 16.6328H12.3193C13.1064 16.6328 13.6628 16.4142 13.9885 15.977C14.3142 15.5398 14.477 15.1206 14.477 14.7192C14.477 14.3179 14.3142 13.8987 13.9885 13.4615C13.6628 13.0243 13.091 12.8058 12.273 12.8058H9.4885V16.6328ZM9.4885 10.875H12.0828C12.6904 10.875 13.1722 10.7013 13.528 10.3538C13.8837 10.0064 14.0615 9.59042 14.0615 9.10575C14.0615 8.59042 13.8734 8.16925 13.4973 7.84225C13.1209 7.51542 12.6597 7.352 12.1135 7.352H9.4885V10.875Z" fill="#111111"/>
</g>
</svg>
