<svg width="24" height="24" viewBox="0 0 24 24" fill="none" xmlns="http://www.w3.org/2000/svg">
<mask id="mask0_4108_14740" style="mask-type:alpha" maskUnits="userSpaceOnUse" x="0" y="0" width="24" height="24">
<rect width="24" height="24" fill="#D9D9D9"/>
</mask>
<g mask="url(#mask0_4108_14740)">
<path d="M5.34625 20.1251V18.6251H18.6538V20.1251H5.34625ZM12 16.5288C10.4448 16.5288 9.23109 16.0567 8.35875 15.1126C7.48625 14.1684 7.05 12.9033 7.05 11.3173V3.41357H8.90375V11.4096C8.90375 12.4199 9.17234 13.2296 9.7095 13.8386C10.2467 14.4476 11.0102 14.7521 12 14.7521C12.9898 14.7521 13.7533 14.4476 14.2905 13.8386C14.8277 13.2296 15.0963 12.4199 15.0963 11.4096V3.41357H16.95V11.3173C16.95 12.9033 16.5138 14.1684 15.6413 15.1126C14.7689 16.0567 13.5552 16.5288 12 16.5288Z" fill="#111111"/>
</g>
</svg>
