<svg width="52" height="15" viewBox="0 0 52 15" fill="none" xmlns="http://www.w3.org/2000/svg">
<path d="M3.7002 0.298828V14.5283H0V0.298828H3.7002ZM16.2425 0.298828V14.5283H13.0082V4.92188L11.7162 14.5283H9.42223L8.05992 5.1416V14.5283H4.82555V0.298828H9.61559C9.75621 1.1543 9.90562 2.16211 10.0638 3.32227L10.5736 6.94336L11.4173 0.298828H16.2425ZM17.3679 0.298828H21.0945C22.1023 0.298828 22.8757 0.37793 23.4148 0.536133C23.9597 0.694336 24.3669 0.922852 24.6364 1.22168C24.9118 1.52051 25.0964 1.88379 25.1902 2.31152C25.2898 2.7334 25.3396 3.38965 25.3396 4.28027V5.51953C25.3396 6.42773 25.2458 7.08984 25.0583 7.50586C24.8708 7.92188 24.5251 8.24121 24.0212 8.46387C23.5232 8.68652 22.8698 8.79785 22.0613 8.79785H21.0681V14.5283H17.3679V0.298828ZM21.0681 2.7334V6.35449C21.1736 6.36035 21.2644 6.36328 21.3405 6.36328C21.6804 6.36328 21.9148 6.28125 22.0437 6.11719C22.1784 5.94727 22.2458 5.59863 22.2458 5.07129V3.90234C22.2458 3.41602 22.1696 3.09961 22.0173 2.95312C21.865 2.80664 21.5486 2.7334 21.0681 2.7334ZM31.9757 0.298828L34.0938 14.5283H30.3057L30.1212 11.9707H28.794L28.5743 14.5283H24.7423L26.6231 0.298828H31.9757ZM30.0157 9.44824C29.8282 7.83691 29.6407 5.84766 29.4532 3.48047C29.0782 6.19922 28.8438 8.18848 28.7501 9.44824H30.0157ZM43.0063 6.50391H39.3061V4.02539C39.3061 3.30469 39.2651 2.85645 39.183 2.68066C39.1069 2.49902 38.934 2.4082 38.6645 2.4082C38.3598 2.4082 38.1664 2.5166 38.0844 2.7334C38.0024 2.9502 37.9614 3.41895 37.9614 4.13965V10.749C37.9614 11.4404 38.0024 11.8916 38.0844 12.1025C38.1664 12.3135 38.351 12.4189 38.6381 12.4189C38.9135 12.4189 39.0922 12.3135 39.1743 12.1025C39.2621 11.8916 39.3061 11.3965 39.3061 10.6172V8.83301H43.0063V9.38672C43.0063 10.8574 42.9008 11.9004 42.6899 12.5156C42.4848 13.1309 42.0248 13.6699 41.31 14.1328C40.601 14.5957 39.725 14.8271 38.6821 14.8271C37.5981 14.8271 36.7045 14.6309 36.0014 14.2383C35.2983 13.8457 34.8325 13.3037 34.6039 12.6123C34.3754 11.915 34.2612 10.8691 34.2612 9.47461V5.31738C34.2612 4.29199 34.2963 3.52441 34.3666 3.01465C34.437 2.49902 34.645 2.00391 34.9907 1.5293C35.3422 1.05469 35.8256 0.682617 36.4409 0.413086C37.062 0.137695 37.7739 0 38.5766 0C39.6664 0 40.5659 0.210938 41.2748 0.632812C41.9838 1.05469 42.4496 1.58203 42.6723 2.21484C42.895 2.8418 43.0063 3.82031 43.0063 5.15039V6.50391ZM51.4266 0.298828V3.14648H49.2293V14.5283H45.5291V3.14648H43.3406V0.298828H51.4266Z" fill="#505050"/>
</svg>
