<?xml version="1.0" encoding="UTF-8"?>
<svg id="cat" xmlns="http://www.w3.org/2000/svg" version="1.1" viewBox="0 0 50.83 48.47">
  <!-- Generator: Adobe Illustrator 29.8.2, SVG Export Plug-In . SVG Version: 2.1.1 Build 3)  -->
  <defs>
    <style>
      .st0 {
        fill: #231f20;
      }

      .st1 {
        fill: #2061ac;
      }
    </style>
  </defs>
  <g>
    <g>
      <ellipse class="st0" cx="24.78" cy="25.38" rx=".88" ry=".54"/>
      <path class="st0" d="M24.06,27.44c.32-.38.6-.78.84-1.22h-.43c.27.39.53.77.8,1.16.04.05.08.1.15.11.06.02.14,0,.19-.03.11-.07.17-.23.09-.34-.27-.39-.53-.77-.8-1.16-.05-.07-.12-.12-.22-.12-.09,0-.17.05-.22.12-.17.32-.37.62-.59.91l.04-.05c-.07.09-.14.17-.21.26-.04.05-.07.11-.07.18,0,.06.03.13.07.18.09.09.26.11.35,0h0Z"/>
    </g>
    <path class="st0" d="M19.01,24.87c1.1,0,2.2.02,3.3.03.2,0,.38-.17.38-.38s-.16-.37-.38-.38c-1.1,0-2.2-.02-3.3-.03-.2,0-.38.17-.38.38s.16.37.38.38h0Z"/>
    <path class="st0" d="M30.53,24.12c-1.1,0-2.2.02-3.3.03-.2,0-.38.17-.38.38s.16.38.38.38c1.1,0,2.2-.02,3.3-.03.2,0,.38-.17.38-.38s-.16-.38-.38-.38h0Z"/>
  </g>
  <g>
    <path class="st1" d="M27.65,17.16v3.89c0,.32.5.32.5,0v-.23c0-.32-.5-.32-.5,0v.23c0,.32.5.32.5,0v-3.89c0-.32-.5-.32-.5,0h0Z"/>
    <path class="st1" d="M28.98,17.35v3.51c0,.14.11.25.25.25s.25-.11.25-.25v-3.51c0-.14-.11-.25-.25-.25s-.25.11-.25.25h0Z"/>
    <path class="st1" d="M30.4,17.82v3.6c0,.14.11.25.25.25s.25-.11.25-.25v-3.6c0-.14-.11-.25-.25-.25s-.25.11-.25.25h0Z"/>
    <path class="st1" d="M31.73,19.15v2.66c0,.13.11.26.25.25s.25-.11.25-.25v-2.66c0-.13-.11-.26-.25-.25s-.25.11-.25.25h0Z"/>
  </g>
</svg>