<?xml version="1.0" encoding="UTF-8"?>
<svg id="cat" xmlns="http://www.w3.org/2000/svg" version="1.1" viewBox="0 0 50.83 48.47">
  <!-- Generator: Adobe Illustrator 29.8.2, SVG Export Plug-In . SVG Version: 2.1.1 Build 3)  -->
  <defs>
    <style>
      .st0 {
        fill: #231f20;
      }

      .st1 {
        fill: #fff;
      }

      .st1, .st2 {
        stroke: #231f20;
        stroke-miterlimit: 10;
        stroke-width: .5px;
      }

      .st3 {
        fill: #f16876;
      }

      .st2 {
        fill: none;
      }

      .st4 {
        fill: #2061ac;
      }
    </style>
  </defs>
  <g>
    <circle class="st1" cx="20.87" cy="20.87" r="2.19"/>
    <circle class="st1" cx="30.53" cy="20.87" r="2.19"/>
    <g>
      <ellipse class="st0" cx="25.7" cy="21.36" rx=".88" ry=".54"/>
      <path class="st0" d="M25.43,21.64c0,.83.03,1.66.04,2.49,0,.13.11.26.25.25s.25-.11.25-.25c0-.83-.04-1.66-.04-2.49,0-.13-.11-.26-.25-.25s-.25.11-.25.25h0Z"/>
      <path class="st0" d="M26.5,23.42c.38.06.72.35.84.72.06.19.06.38.07.58,0,.61-.02,1.22-.08,1.83-.05.5-.12,1.02-.39,1.45-.6.95-1.97.81-2.44-.18-.2-.41-.25-.87-.29-1.33-.07-.71-.38-1.72-.06-2.39.4-.84,1.58-.8,2.35-.68Z"/>
      <path class="st3" d="M24.89,27.06c-.39.43-.26,1.17.48,1.51,1.6.74,2.17-1.92.32-1.84-.36.01-.63.15-.8.34Z"/>
      <path class="st2" d="M27.46,24.93c-.13,2.55-.27,3.74-1.67,3.74s-1.56-1.05-1.71-3.58c-.07-1.19.37-1.55,1.57-1.61,1.29-.06,1.85.41,1.8,1.45Z"/>
    </g>
  </g>
  <path class="st4" d="M38.25,17.92c.05.72.49,1.38,1.15,1.68s1.49.16,2.07-.32l-.39-.3c-.37.85-1.23,1.79-.66,2.76.42.72,1.37.79,2.11.77l-.13-.47c-.62.31-1.31.69-1.62,1.35-.27.57-.26,1.31.23,1.76.24.22.59-.14.35-.35-.36-.33-.32-.89-.09-1.28.3-.5.86-.79,1.37-1.04.22-.11.12-.48-.13-.47-.54.02-1.36.03-1.68-.52-.43-.74.38-1.61.66-2.25.11-.26-.17-.49-.39-.3-.41.34-1.02.44-1.51.22s-.82-.7-.86-1.22c-.02-.32-.52-.32-.5,0h0Z"/>
  <path class="st4" d="M12.3,17.16c.24.38.07.86-.23,1.16-.35.35-.86.5-1.32.65-.21.07-.24.34-.06.46.48.31.76.91.65,1.47s-.54,1-1.08,1.15c-.27.07-.22.5.07.49.55-.01,1.22.02,1.39.66.13.51-.05,1.08-.22,1.56-.11.3.38.43.48.13.21-.6.41-1.34.17-1.97-.3-.78-1.09-.9-1.83-.89l.07.49c.72-.19,1.32-.81,1.44-1.55s-.24-1.56-.89-1.98l-.06.46c.59-.19,1.24-.4,1.65-.9.37-.45.52-1.12.2-1.64-.17-.27-.6-.02-.43.25h0Z"/>
</svg>