<?xml version="1.0" encoding="UTF-8"?>
<svg id="cat" xmlns="http://www.w3.org/2000/svg" version="1.1" viewBox="0 0 50.83 48.47">
  <!-- Generator: Adobe Illustrator 29.8.2, SVG Export Plug-In . SVG Version: 2.1.1 Build 3)  -->
  <defs>
    <style>
      .st0 {
        fill: #231f20;
      }

      .st1 {
        fill: #fff;
      }

      .st1, .st2 {
        stroke: #231f20;
        stroke-miterlimit: 10;
        stroke-width: .5px;
      }

      .st3 {
        fill: #f16876;
      }

      .st4 {
        fill: #4c98c3;
      }

      .st2 {
        fill: none;
      }
    </style>
  </defs>
  <g>
    <path class="st4" d="M36.9,18.06c.11-.12.21-.23.33-.34.06-.05.11-.1.17-.15,0,0,.01-.01.02-.02.04-.03,0,0,0,0,.01,0,.03-.02.04-.03.03-.02.07-.05.1-.07.03-.02.06-.04.09-.05.02,0,.04-.02.05-.03.01,0,.04-.01.06-.03,0,0-.05.02-.02,0,0,0,.02,0,.02,0,.02,0,.04-.01.06-.02.03-.01.07-.02.11-.03.01,0,.03,0,.04,0,0,0,.01,0,.02,0,0,0-.06,0-.03,0,.03,0,.06,0,.1,0,.03,0,.06,0,.09,0,.01,0,.03,0,.04,0,.04,0-.06-.01,0,0,.06.01.12.03.18.05,0,0,.01,0,.02,0,.03,0-.03-.01-.03-.01.01,0,.03.01.04.02.03.01.06.03.08.05.01,0,.03.02.04.03,0,0,.01,0,.02.01,0,0-.04-.04-.02-.02.02.02.05.04.07.06,0,0,.02.02.03.03,0,0,0,.01.01.02,0,0-.03-.05-.02-.02.01.03.03.05.05.08,0,0,.02.05,0,.01s0,0,0,.02c0,.01,0,.03.01.04,0,.01.01.07,0,.03,0-.04,0,.02,0,.03,0,.02,0,.03,0,.05s0,.03,0,.05c0-.05,0-.04,0-.02,0,.01,0,.02,0,.03,0,.03-.02.06-.03.09,0,0-.03.07-.01.03.01-.04-.01.02-.02.03-.02.03-.03.06-.05.09,0,.01-.02.03-.03.04,0,0,0,.01-.01.02,0,0-.04.05-.01.02.02-.03-.02.02-.02.03-.01.02-.03.03-.04.05-.03.03-.06.06-.09.1-.06.06-.12.12-.19.18-.16.14-.32.28-.48.41-.1.09-.09.27,0,.35.11.1.25.09.35,0,.15-.13.31-.27.46-.4.12-.11.24-.22.35-.35.23-.29.41-.66.28-1.04-.11-.32-.38-.53-.69-.63-.33-.1-.67-.05-.98.1-.36.17-.64.47-.91.76-.09.1-.1.26,0,.35.1.09.26.1.35,0h0Z"/>
    <path class="st4" d="M39.35,20.43c.1-.13.2-.26.32-.38.05-.06.11-.11.17-.16,0,0,.05-.04.03-.02s0,0,0,0c.01,0,.02-.01.03-.02.03-.02.07-.05.1-.07.03-.02.06-.03.1-.05.02-.01-.02,0-.02,0,0,0,.01,0,.02,0,.02,0,.04-.01.06-.02.03,0,.06-.02.09-.02.02,0,.03,0,.05,0,.03,0-.03,0-.03,0,.01,0,.02,0,.03,0,.03,0,.07,0,.1,0,.02,0,.03,0,.05,0,.06,0-.04,0,0,0,.03,0,.06.01.09.02.02,0,.03.01.05.02.02,0-.02,0-.02-.01,0,0,.02,0,.03.01.03.01.05.03.08.05.04.02-.03-.03,0,0,.02.01.03.03.05.04,0,0,.02.03.03.04,0,0-.02-.04-.01-.01,0,0,.01.02.02.02.01.02.02.03.03.05,0,0,0,.02.01.03.02.03-.01-.04,0,0,.01.04.03.08.03.12,0,0,0,.02,0,.03,0,.03,0-.02,0-.02,0,0,0,.06,0,.07,0,.03,0,.07,0,.1,0,.02,0,.04,0,.06,0,.01,0,.07,0,.03s0,.01,0,.02c0,.02,0,.03-.01.05,0,.04-.02.07-.03.11,0,.02-.01.03-.02.05,0,0-.02.06,0,.02s0,.01-.01.02c0,.02-.02.04-.03.05-.03.07-.07.13-.11.19-.02.03-.05.05-.06.08,0,0,.03-.04.01-.02,0,0-.01.02-.02.03-.01.02-.03.03-.04.05-.11.13-.23.25-.36.36-.07.06-.13.11-.2.17-.02.01-.03.03-.05.04,0,0-.01.01-.02.02-.05.04.03-.02,0,0-.03.03-.07.05-.1.08-.05.04-.1.08-.11.15-.02.06,0,.14.03.19.07.1.23.17.34.09.28-.21.56-.43.79-.69s.43-.57.5-.91c.08-.41,0-.86-.36-1.12-.28-.2-.69-.22-1-.09-.41.16-.69.49-.96.83-.04.05-.07.1-.07.18,0,.06.03.13.07.18.09.08.27.11.35,0h0Z"/>
    <path class="st4" d="M40.29,17.04s.01-.01.02-.02c.02-.03-.03.04,0,0,.01-.01.02-.03.03-.04.03-.03.05-.07.08-.1.05-.07.11-.13.17-.19s.11-.12.17-.17c.03-.03.06-.05.09-.08,0,0,.01-.01.02-.02.02-.02.02,0,0,0,.02,0,.04-.03.05-.04.06-.05.13-.09.2-.12.02,0,.04-.02.06-.03.03-.01-.02,0-.02,0,0,0,.02,0,.03-.01.03-.01.07-.02.1-.03.03,0,.06-.01.09-.02.03,0-.03,0-.03,0,0,0,.02,0,.03,0,.02,0,.03,0,.05,0,.03,0,.06,0,.09,0,.02,0,.03,0,.05,0,0,0,.01,0,.02,0,.03,0-.02,0-.02,0,.06.02.13.02.19.05.01,0,.03,0,.04.01.04.01-.05-.02,0,0,.03.01.06.03.09.05.03.02.05.03.07.05,0,0-.04-.04-.02-.02,0,0,.01.01.02.02.01.01.02.02.03.03s.02.02.03.03c0,0,0,.01.01.02,0,0-.03-.05-.02-.02.02.03.04.05.05.08,0,.01.01.03.02.04,0,0-.02-.05-.01-.03,0,0,0,.02,0,.03,0,.01,0,.03.01.04,0,0,0,.01,0,.02,0,0,0,.06,0,.02,0-.04,0,.02,0,.03,0,.02,0,.04,0,.06,0,.02,0,.04,0,.05,0-.04,0-.04,0-.01,0,.01,0,.02,0,.03,0,.04-.02.08-.03.11,0,0-.01.02,0,.03,0-.01.02-.04,0,0,0,.02-.02.04-.03.06-.02.04-.04.08-.07.11-.01.02-.02.03-.03.05,0,0-.01.02-.02.02.02-.02.02-.03.01-.01,0,0,0,0-.01.01-.25.3-.61.5-.86.81-.08.1-.11.26,0,.35.09.08.26.11.35,0,.25-.3.59-.49.84-.79.26-.31.46-.74.31-1.15-.12-.33-.41-.55-.74-.63-.35-.09-.71-.03-1.02.15-.38.21-.66.56-.92.9-.04.05-.04.14-.03.19.02.06.06.12.11.15.06.03.13.05.19.03s.11-.06.15-.11h0Z"/>
  </g>
  <g>
    <g>
      <circle class="st1" cx="19.63" cy="22.85" r="2.19"/>
      <ellipse class="st0" cx="19.63" cy="22.85" rx=".92" ry=".91"/>
    </g>
    <g>
      <circle class="st1" cx="29.75" cy="22.85" r="2.19"/>
      <ellipse class="st0" cx="29.75" cy="22.85" rx=".92" ry=".91"/>
    </g>
    <g>
      <path class="st0" d="M22.58,27.87c.06.07.16.11.25.15,1.08.41,2.29.44,3.39.1.21-.07.44-.16.55-.35.07-.13.09-.28.07-.43-.04-.36-.25-.69-.52-.93-.95-.87-2.22-1.27-3.2-.17-.31.35-.96,1.16-.54,1.64Z"/>
      <path class="st3" d="M26,27.22c-.73-.5-2.09-.56-2.8.03-.45.37-.4.79.19.94.73.19,1.85.2,2.56-.06.67-.24.49-.6.05-.9Z"/>
      <ellipse class="st0" cx="24.64" cy="23.45" rx=".88" ry=".54"/>
      <path class="st0" d="M24.37,23.73c0,.83.03,1.66.04,2.49,0,.13.11.26.25.25s.25-.11.25-.25c0-.83-.04-1.66-.04-2.49,0-.13-.11-.26-.25-.25s-.25.11-.25.25h0Z"/>
      <path class="st2" d="M26.91,27.58c0,.61-1.03.73-2.27.73s-2.27-.07-2.27-.69c0-.83,1.01-2.06,2.25-2.06s2.29,1.18,2.29,2.02Z"/>
    </g>
  </g>
</svg>