<?xml version="1.0" encoding="UTF-8"?>
<svg id="cat" xmlns="http://www.w3.org/2000/svg" version="1.1" viewBox="0 0 50.83 48.47">
  <!-- Generator: Adobe Illustrator 29.8.2, SVG Export Plug-In . SVG Version: 2.1.1 Build 3)  -->
  <defs>
    <style>
      .st0 {
        fill: #231f20;
      }

      .st1 {
        fill: #fff;
        stroke: #231f20;
        stroke-miterlimit: 10;
        stroke-width: .5px;
      }

      .st2 {
        fill: #2061ac;
      }
    </style>
  </defs>
  <g>
    <circle class="st2" cx="22.9" cy="14.34" r=".69"/>
    <circle class="st2" cx="25.63" cy="14.34" r=".69"/>
    <circle class="st2" cx="28.36" cy="14.34" r=".69"/>
  </g>
  <g>
    <g>
      <ellipse class="st0" cx="25.76" cy="29.03" rx=".88" ry=".54"/>
      <path class="st0" d="M25.04,31.09c.32-.38.6-.78.84-1.22h-.43c.27.39.53.77.8,1.16.04.05.08.1.15.11.06.02.14,0,.19-.03.11-.07.17-.23.09-.34-.27-.39-.53-.77-.8-1.16-.05-.07-.12-.12-.22-.12-.09,0-.17.05-.22.12-.17.32-.37.62-.59.91l.04-.05c-.07.09-.14.17-.21.26-.04.05-.07.11-.07.18,0,.06.03.13.07.18.09.09.26.11.35,0h0Z"/>
    </g>
    <g>
      <path class="st1" d="M22.76,27.89c0,.5-.88.9-1.97.9s-1.97-.4-1.97-.9,1.01-.55,2.1-.55,1.84.05,1.84.55Z"/>
      <path class="st0" d="M21.63,27.6c0,.43-.35.77-.77.77s-.77-.35-.77-.77.35-.32.77-.32.77-.11.77.32Z"/>
    </g>
    <g>
      <path class="st1" d="M32.71,27.89c0,.5-.88.9-1.97.9s-1.97-.4-1.97-.9,1.01-.55,2.1-.55,1.84.05,1.84.55Z"/>
      <path class="st0" d="M31.58,27.6c0,.43-.35.77-.77.77s-.77-.35-.77-.77.35-.32.77-.32.77-.11.77.32Z"/>
    </g>
  </g>
</svg>