<?xml version="1.0" encoding="UTF-8"?>
<svg id="cat" xmlns="http://www.w3.org/2000/svg" version="1.1" viewBox="0 0 50.83 48.47">
  <!-- Generator: Adobe Illustrator 29.8.2, SVG Export Plug-In . SVG Version: 2.1.1 Build 3)  -->
  <defs>
    <style>
      .st0 {
        fill: #231f20;
      }

      .st1 {
        fill: #fff;
      }

      .st2 {
        fill: #f16876;
      }
    </style>
  </defs>
  <g>
    <path class="st1" d="M23.12,25.35c-.17.13-.3.21-.3.19.06.35.11.74.28,1.07.16.31.44.58.79.63.29.04.59-.09.8-.3.41-.41.46-1.06.37-1.61-.25-.03-.56-.09-.72-.3-.1-.14-.15-.31-.26-.44-.05.04-.6.51-.96.78Z"/>
    <g>
      <ellipse class="st0" cx="24.1" cy="23.65" rx=".88" ry=".54"/>
      <path class="st0" d="M21.76,24.59c-.06.32.06.64.31.84.23.19.52.27.82.26.51-.02.94-.32,1.19-.75.16-.29.24-.61.27-.93.03-.28-.45-.35-.49-.07-.09.57.06,1.18.56,1.52.45.31,1.11.25,1.51-.11.24-.21.35-.52.39-.84.02-.13-.13-.25-.25-.25-.15,0-.23.12-.25.25,0-.02-.01.06-.01.07,0,.03-.02.07-.03.1,0,0-.04.09-.02.06-.01.02-.02.04-.03.07-.02.03-.03.06-.05.08-.02.02-.02.03,0,0-.01.01-.02.02-.03.04-.02.02-.04.04-.07.07-.04.04.02,0-.03.02-.11.07-.17.1-.31.12-.03,0-.04,0-.01,0-.02,0-.04,0-.06,0-.03,0-.07,0-.1,0,0,0-.11,0-.06,0-.03,0-.06,0-.08-.02s-.05-.01-.08-.02c-.01,0-.03-.01-.04-.02.02,0,.02,0,0,0-.03-.01-.06-.03-.08-.05,0,0-.07-.05-.05-.03-.08-.06-.15-.14-.2-.23-.01-.03-.03-.05-.04-.08-.01-.03-.01-.03,0-.01,0-.02-.01-.03-.02-.05-.02-.06-.04-.13-.05-.19-.02-.09-.02-.27,0-.39l-.49-.07c-.02.25-.1.51-.22.72-.11.19-.23.31-.44.4-.02,0-.01,0,0,0-.01,0-.03.01-.04.02-.03,0-.06.02-.09.03-.03,0-.05.01-.08.02-.02,0-.01,0,0,0-.02,0-.03,0-.05,0-.06,0-.13,0-.19,0,0,0-.08-.01-.03,0-.03,0-.07-.01-.1-.02-.12-.03-.22-.08-.3-.19-.02-.02-.05-.09-.06-.11,0-.02-.01-.04-.01-.05,0-.03,0-.04,0-.02,0-.05,0-.04,0-.07.03-.13-.04-.27-.17-.31-.12-.03-.28.04-.31.17h0Z"/>
    </g>
    <path class="st0" d="M22.58,25.44c-.04.34,0,.69.11,1.01.06.17.14.33.23.48s.2.3.33.42.3.23.48.26c.2.03.39,0,.57-.08.31-.14.54-.42.69-.71.2-.39.3-.82.31-1.25,0-.13-.12-.26-.25-.25s-.25.11-.25.25c0,.08,0,.16-.01.24,0,.02,0,.04,0,.06.01-.06,0,0,0,.01,0,.05-.02.09-.03.14-.02.07-.03.14-.06.21-.01.04-.02.08-.04.11,0,.02-.01.04-.02.06,0,.01,0,.02-.01.04.01-.03.01-.03,0,0-.03.07-.07.14-.1.21-.03.06-.07.13-.11.17.05-.05,0,0,0,0-.01.01-.02.03-.03.04-.02.03-.05.05-.07.08s-.05.05-.08.07c-.05.04.05-.03,0,0-.02.01-.04.03-.06.04-.03.02-.06.03-.09.05-.05.03.04-.01,0,0-.01,0-.03,0-.04.01-.03.01-.06.02-.09.02-.06.01.06,0,0,0-.02,0-.04,0-.06,0,0,0-.05,0-.05,0h.03s-.02,0-.03,0c-.02,0-.08-.01-.1-.03h.03s-.02,0-.03,0c-.02,0-.03-.02-.05-.03-.01,0-.02-.02-.04-.02-.05-.04.03.02-.01,0-.05-.05-.1-.1-.15-.15-.01-.01-.03-.03-.03-.04.03.05,0,0,0,0-.03-.04-.05-.07-.08-.11-.04-.06-.07-.12-.11-.18-.02-.03-.03-.07-.05-.1,0-.02-.02-.03-.02-.05,0-.01,0-.02-.01-.03.01.03.01.04,0,0-.03-.08-.06-.16-.08-.24,0-.03-.02-.07-.02-.1,0-.02,0-.04-.01-.05,0-.01-.02-.09,0-.02-.02-.08-.02-.17-.02-.26,0-.09,0-.18.02-.26,0-.06-.03-.14-.07-.18-.04-.04-.11-.08-.18-.07-.15,0-.23.11-.25.25h0Z"/>
  </g>
  <path class="st0" d="M29.55,21.18c-.87.49-1.75.99-2.62,1.48-.23.13-.25.52,0,.65.95.48,1.9.94,2.86,1.39.09.04.19.07.29.04.09-.02.18-.09.22-.17.09-.17.05-.42-.13-.51-.96-.45-1.91-.92-2.86-1.39v.65c.87-.49,1.75-.99,2.62-1.48.17-.1.24-.34.13-.51s-.33-.24-.51-.13h0Z"/>
  <path class="st2" d="M28.28,25.61c-.16.23-.28.48-.39.74-.03.08-.07.15-.1.22-.02.03-.03.06-.03.09,0,.03,0,.07,0,.1.02.06.06.12.11.15.06.03.13.05.19.03.06-.02.12-.06.15-.11.11-.25.22-.51.36-.76.04-.07.08-.14.13-.21.04-.05.04-.13.03-.19s-.06-.12-.11-.15c-.06-.03-.13-.05-.19-.03s-.11.06-.15.11h0Z"/>
  <path class="st2" d="M29.46,25.67c-.17.29-.33.59-.48.89-.03.06-.04.13-.03.19.02.06.06.12.11.15.06.03.13.05.19.03.06-.02.12-.06.15-.11.15-.3.31-.6.48-.89.03-.06.04-.13.03-.19-.02-.06-.06-.12-.11-.15-.06-.03-.13-.05-.19-.03s-.12.06-.15.11h0Z"/>
  <path class="st2" d="M30.7,25.67l-.42.85c-.03.06-.04.13-.03.19.02.06.06.12.11.15.06.03.13.05.19.03.06-.02.12-.06.15-.11l.42-.85c.03-.06.04-.13.03-.19-.02-.06-.06-.12-.11-.15-.06-.03-.13-.05-.19-.03-.06.02-.12.06-.15.11h0Z"/>
  <path class="st0" d="M18.13,21.83l2.62,1.48v-.65c-.95.48-1.9.94-2.86,1.39-.18.08-.24.35-.13.51.12.18.32.22.51.13.96-.45,1.91-.92,2.86-1.39.25-.13.23-.52,0-.65l-2.62-1.48c-.17-.1-.42-.05-.51.13s-.05.41.13.51h0Z"/>
  <path class="st2" d="M17.25,25.84c-.15.21-.28.43-.39.67-.03.07-.07.14-.1.21-.02.03-.03.06-.03.09,0,.03,0,.07,0,.1.02.06.06.12.11.15.06.03.13.05.19.03.06-.02.12-.06.15-.11.11-.24.22-.47.36-.69.04-.07.09-.13.13-.2.04-.05.04-.13.03-.19s-.06-.12-.11-.15c-.06-.03-.13-.05-.19-.03l-.06.03s-.07.05-.09.09h0Z"/>
  <path class="st2" d="M18.43,25.82c-.17.29-.33.59-.48.89-.03.06-.04.13-.03.19.02.06.06.12.11.15.06.03.13.05.19.03.06-.02.12-.06.15-.11.15-.3.31-.6.48-.89.03-.06.04-.13.03-.19-.02-.06-.06-.12-.11-.15-.06-.03-.13-.05-.19-.03s-.12.06-.15.11h0Z"/>
  <path class="st2" d="M19.68,25.82l-.42.85c-.03.06-.04.13-.03.19.02.06.06.12.11.15.06.03.13.05.19.03.06-.02.12-.06.15-.11l.42-.85c.03-.06.04-.13.03-.19-.02-.06-.06-.12-.11-.15-.06-.03-.13-.05-.19-.03-.06.02-.12.06-.15.11h0Z"/>
</svg>