<?xml version="1.0" encoding="UTF-8"?>
<svg id="cat" xmlns="http://www.w3.org/2000/svg" version="1.1" viewBox="0 0 50.83 48.47">
  <!-- Generator: Adobe Illustrator 29.8.2, SVG Export Plug-In . SVG Version: 2.1.1 Build 3)  -->
  <defs>
    <style>
      .st0 {
        fill: #231f20;
      }

      .st1 {
        stroke: #231f20;
        stroke-miterlimit: 10;
        stroke-width: .5px;
      }

      .st1, .st2 {
        fill: #fff;
      }

      .st3 {
        fill: #ef394f;
      }
    </style>
  </defs>
  <g>
    <ellipse class="st0" cx="23.8" cy="24.18" rx=".88" ry=".54"/>
    <g>
      <path class="st1" d="M20.68,27.42c.01.28.45.29.73.29,1.11-.01,2.21-.02,3.32-.04.67,0,2.18.14,2.18-.37-.06-.95-2.25-2.41-3.14-2.36-.97.05-3.14,1.61-3.09,2.48Z"/>
      <path class="st0" d="M22.49,25.35c.03.36.05.72.05,1.08s-.02.72-.04,1.08c0,.13.12.26.25.25.14,0,.24-.11.25-.25.02-.36.04-.72.04-1.08s-.02-.72-.05-1.08c-.01-.13-.11-.26-.25-.25-.13,0-.26.11-.25.25h0Z"/>
      <path class="st0" d="M24.4,25.32s0,.06.01.09c0,.02,0,.03,0,.05,0,0,0,.02,0,.02,0,.03,0-.05,0-.02,0,.07.02.14.02.21.02.14.03.29.04.44.02.3.03.6.04.9,0,.15,0,.31,0,.46,0,.13.12.26.25.25s.25-.11.25-.25c0-.59-.02-1.18-.08-1.77-.02-.17-.04-.34-.07-.51-.02-.13-.19-.21-.31-.17-.14.05-.2.17-.17.31h0Z"/>
    </g>
    <path class="st0" d="M21.47,20.49l.63,1.21c.06.12.23.16.34.09.12-.08.15-.22.09-.34l-.63-1.21c-.06-.12-.23-.16-.34-.09-.12.08-.15.22-.09.34h0Z"/>
    <path class="st0" d="M25.21,20.25l-.62,1.13c-.03.06-.04.13-.03.19.02.06.06.12.11.15.12.06.27.03.34-.09l.62-1.13c.03-.06.04-.13.03-.19-.02-.06-.06-.12-.11-.15-.12-.06-.27-.03-.34.09h0Z"/>
    <g>
      <g>
        <g>
          <path class="st2" d="M25.61,22.65l4.75-1.47c.2.91.16,2.31-1.7,2.97-.87.31-3.18.19-3.09-1.43"/>
          <path class="st0" d="M25.68,22.89c1.58-.49,3.17-.98,4.75-1.47l-.31-.17s.02.1.03.14c0,.02,0,.05.01.07,0,.02.01.09,0,.04.01.11.02.22.02.33s0,.22-.01.33c0,.02-.01.08,0,.04,0,.03,0,.05-.01.08-.01.06-.02.12-.04.18s-.03.11-.05.17c0,.03-.02.05-.03.08s0,0,0,0c0,.02-.02.04-.03.06-.06.12-.12.23-.2.34-.14.19-.38.39-.61.53-.24.15-.51.27-.78.34-.05.01-.09.02-.14.03-.02,0-.05,0-.07.01-.02,0-.09.01-.03,0-.11.01-.22.02-.34.03s-.23,0-.35,0c-.06,0-.12,0-.18-.01-.01,0-.08,0-.06,0,.01,0-.05,0-.07-.01-.12-.02-.24-.05-.36-.08-.05-.02-.11-.03-.16-.05-.03,0-.05-.02-.08-.03-.04-.01.03.01,0,0-.02,0-.04-.02-.05-.02-.05-.03-.11-.05-.16-.08-.03-.02-.06-.04-.09-.05-.01,0-.09-.06-.05-.03-.05-.04-.09-.07-.13-.12-.02-.02-.04-.05-.07-.07-.04-.04,0,.01-.03-.04-.03-.05-.07-.1-.1-.16,0-.01-.01-.03-.02-.04.01.03,0,0,0-.01,0-.03-.02-.06-.03-.09,0-.03-.02-.07-.02-.1,0-.01,0-.02,0-.04,0-.03,0,.03,0-.02,0-.08,0-.16,0-.24.01-.32-.49-.32-.5,0-.02.58.25,1.09.74,1.41.46.29,1.03.4,1.56.41s1.07-.09,1.57-.34c.6-.29,1.1-.76,1.34-1.39.21-.54.19-1.14.07-1.69-.03-.13-.18-.21-.31-.17-1.58.49-3.17.98-4.75,1.47-.31.09-.18.58.13.48h0Z"/>
        </g>
        <g>
          <path class="st2" d="M21.87,22.65l-4.75-1.47c-.2.91-.16,2.31,1.7,2.97.87.31,3.18.19,3.09-1.43"/>
          <path class="st0" d="M21.94,22.41c-1.58-.49-3.17-.98-4.75-1.47-.12-.04-.28.05-.31.17-.11.49-.13,1.01,0,1.5.17.62.6,1.12,1.14,1.45.5.31,1.05.47,1.64.48.54.01,1.1-.07,1.59-.32.58-.29.94-.84.91-1.5-.01-.32-.51-.32-.5,0,0,.07,0,.13,0,.2,0,.01-.01.09,0,.04,0,.03-.01.06-.02.09-.01.06-.03.11-.05.16-.01.03,0,0,0,0,0,.01-.01.03-.02.04-.01.03-.03.06-.05.09-.01.02-.03.04-.04.06,0,.01-.02.02-.03.04,0,0,.02-.03,0,0-.04.04-.08.09-.12.13-.02.02-.04.03-.06.05-.01,0-.02.02-.03.03,0,0,.03-.02,0,0-.05.03-.1.07-.15.1s-.1.05-.15.08c-.01,0-.07.03-.05.02.01,0-.05.02-.07.03-.12.04-.23.08-.35.1-.05.01-.11.02-.17.03-.03,0-.06,0-.08.01-.04,0,.04,0,0,0-.02,0-.04,0-.06,0-.12.01-.24.02-.36.02s-.23,0-.34-.01c-.05,0-.11,0-.16-.02-.03,0,.01,0,.02,0-.01,0-.03,0-.04,0-.03,0-.05,0-.08-.01-.25-.04-.48-.13-.7-.24-.28-.14-.52-.3-.73-.53-.09-.1-.15-.17-.22-.3-.07-.12-.11-.2-.14-.3-.04-.13-.08-.25-.1-.39,0-.01,0-.02,0-.03,0-.03,0,.04,0-.01,0-.03,0-.06,0-.09,0-.06,0-.13,0-.19,0-.12,0-.24.02-.37,0-.01,0-.03,0-.04,0-.04,0,.06,0,0,0-.03,0-.05.01-.08,0-.06.02-.12.03-.17l-.31.17c1.58.49,3.17.98,4.75,1.47.31.1.44-.39.13-.48h0Z"/>
        </g>
      </g>
      <path class="st0" d="M19.88,22.16c-.07.08-.12.17-.16.28-.15.45.1.93.55,1.08s.93-.1,1.08-.55c.03-.11.04-.21.03-.32l-1.5-.49Z"/>
      <path class="st0" d="M27.62,22.12c.07.08.12.17.16.28.15.45-.1.93-.55,1.08s-.93-.1-1.08-.55c-.03-.11-.04-.21-.03-.32l1.5-.49Z"/>
    </g>
  </g>
  <g>
    <path class="st3" d="M26.83,16.86c.14.06.29.12.41.21.01,0,.03.03.05.03,0,0-.04-.03-.02-.01,0,0,.02.01.03.02.03.02.05.05.08.08,0,0,.01.01.02.02.01.02.01.03,0-.01,0,.01.02.03.03.04,0,.02.02.03.03.05,0,.01.03.07.02.03s0,.01,0,.02c0,.02,0,.03.01.05.01.04,0-.05,0,0,0,.02,0,.04,0,.06,0,0,0,.02,0,.03,0,0,.01-.05,0-.03,0,.02,0,.04-.01.06,0,0,0,.02,0,.02,0,.03,0-.02,0-.02-.01.02-.02.04-.03.06-.08.15-.19.29-.28.43-.11.17-.23.34-.34.51l.43.25c.04-.07.08-.15.12-.22.06-.11.03-.28-.09-.34s-.27-.03-.34.09c-.04.07-.08.15-.12.22-.06.11-.03.28.09.34s.26.03.34-.09c.11-.16.22-.32.33-.48.1-.15.22-.3.3-.47.1-.19.13-.4.07-.61-.06-.18-.17-.34-.32-.46-.16-.13-.35-.22-.54-.3-.06-.03-.12-.04-.19-.03-.06.02-.12.06-.15.11-.06.11-.04.29.09.34h0Z"/>
    <path class="st3" d="M27.78,15.9l.38.42c.12.14.24.29.4.39.17.11.39.13.57.06s.33-.19.47-.32c.15-.15.29-.29.44-.44.09-.09.1-.26,0-.35s-.25-.1-.35,0c-.12.12-.24.24-.36.36-.06.06-.11.11-.17.16-.01.01-.03.02-.04.04-.04.03.04-.03,0,0-.03.02-.06.04-.1.06-.01,0-.03.01-.04.02-.03.02.05-.02.02,0,0,0-.01,0-.02,0-.01,0-.03,0-.04.01,0,0-.02,0-.03,0,0,0,.06,0,.02,0-.02,0-.03,0-.05,0-.03,0,.03,0,.03,0,0,0-.03,0-.03,0,0,0-.01,0-.02,0-.02,0,.02.01.02.01-.02-.01-.04-.02-.05-.03,0,0-.01,0-.02-.01-.02-.01.02.02.02.02-.01-.01-.03-.02-.04-.04-.03-.03-.06-.05-.08-.08-.06-.06-.11-.12-.17-.18l-.4-.44c-.09-.1-.27-.1-.35,0-.1.1-.09.25,0,.35h0Z"/>
    <path class="st3" d="M28.25,19.12c.06-.1.12-.2.19-.3l-.04.05c.08-.11.18-.22.29-.3l-.05.04s.05-.03.07-.04l-.06.03s.04-.01.06-.02h-.07s.04,0,.06,0h-.07s.04,0,.05,0l-.06-.03s.05.03.08.05l-.05-.04c.09.07.15.16.22.24l-.04-.05c.18.24.34.49.47.76.02.03.06.07.09.09.05.03.1.04.16.03.04,0,.08-.02.12-.05.04-.03.08-.08.09-.13,0-.06.02-.11.03-.17.01-.07.01-.13-.03-.19-.03-.05-.09-.1-.15-.11-.06-.01-.14-.01-.19.03-.05.03-.1.09-.11.15,0,.06-.02.11-.03.17l.46-.06c-.15-.32-.35-.61-.57-.89-.05-.06-.09-.12-.15-.16-.1-.08-.2-.13-.34-.14-.21-.02-.38.15-.51.29s-.26.31-.35.49c-.06.11-.03.28.09.34s.28.03.34-.09h0Z"/>
    <path class="st3" d="M30.6,16.51c-.28.27-.57.53-.85.8-.1.1-.16.22-.14.37.01.11.08.21.14.3.1.15.22.3.34.43.14.15.3.28.46.41.05.04.14.04.19.03.06-.02.12-.06.15-.11.03-.06.05-.13.03-.19s-.06-.11-.11-.15c-.01,0-.03-.03.01,0,0,0-.01-.01-.02-.02-.01-.01-.03-.02-.04-.04-.03-.02-.06-.05-.09-.07-.06-.05-.11-.1-.16-.16s-.11-.11-.16-.17c-.02-.03-.04-.06-.07-.08,0,0,.04.05,0,.01,0,0,0-.01-.01-.02-.01-.02-.03-.03-.04-.05-.04-.06-.09-.13-.13-.19,0,0-.02-.04,0,0s0,0,0,0c0,0,0,.05,0,.03,0-.03,0,.04,0,.04,0,.03,0,.02,0,0,0,0-.04.04-.01.02.01-.01.03-.03.04-.04.13-.12.26-.24.39-.37l.44-.41c.1-.09.1-.26,0-.35-.1-.09-.25-.1-.35,0h0Z"/>
  </g>
</svg>