<?xml version="1.0" encoding="UTF-8"?>
<svg id="cat" xmlns="http://www.w3.org/2000/svg" version="1.1" viewBox="0 0 50.83 48.47">
  <!-- Generator: Adobe Illustrator 29.8.2, SVG Export Plug-In . SVG Version: 2.1.1 Build 3)  -->
  <defs>
    <style>
      .st0 {
        fill: #231f20;
      }

      .st1 {
        fill: #fff;
      }

      .st2 {
        fill: #f16876;
      }
    </style>
  </defs>
  <g>
    <path class="st1" d="M24.76,25.87c-.17.13-.3.21-.3.19.06.35.11.74.28,1.07.16.31.44.58.79.63.29.04.59-.09.8-.3.41-.41.46-1.06.37-1.61-.25-.03-.56-.09-.72-.3-.1-.14-.15-.31-.26-.44-.05.04-.6.51-.96.78Z"/>
    <g>
      <ellipse class="st0" cx="25.77" cy="24.28" rx=".88" ry=".54"/>
      <path class="st0" d="M23.41,25.11c-.06.29.04.57.24.78s.48.3.77.31c.45.02.85-.23,1.12-.57.13-.16.24-.32.35-.49h-.43c.24.31.38.71.77.88.42.18,1.05.18,1.37-.2.18-.22.24-.48.27-.75.02-.13-.13-.25-.25-.25-.15,0-.23.12-.25.25,0,.03,0,.04,0,.01,0,.02,0,.03,0,.05,0,.03-.01.07-.02.1-.01.05-.03.1-.05.15.02-.05,0,0-.01.02-.01.02-.03.05-.04.07-.02.02-.02.02,0,0,0,.01-.02.02-.03.03-.01.01-.03.03-.04.04-.02.02-.02.02,0,0-.01,0-.02.01-.03.02-.02,0-.04.02-.05.03-.03.01-.02.01,0,0-.01,0-.03,0-.04.01-.03,0-.06.01-.09.02-.05.01.03,0-.03,0-.03,0-.07,0-.1,0-.07,0-.14,0-.21-.01.03,0-.04,0-.05-.01-.03,0-.06-.01-.08-.02-.01,0-.03-.01-.04-.02.02.01.02.01,0,0-.02-.01-.04-.02-.06-.03,0,0-.08-.06-.03-.02-.02-.01-.04-.03-.05-.05s-.03-.03-.05-.05c0,0-.06-.08-.02-.03-.12-.16-.21-.34-.34-.51-.12-.15-.32-.17-.43,0-.04.07-.09.14-.13.2-.03.04-.05.08-.08.11,0,0-.05.06-.01.02-.02.02-.04.04-.05.07-.06.07-.13.14-.2.21,0,0-.08.06-.04.03-.02.01-.04.03-.06.04-.04.03-.09.05-.14.08-.05.03.02,0-.03.01-.03,0-.06.02-.09.03-.02,0-.05.01-.07.02-.03,0-.03,0,0,0-.01,0-.03,0-.04,0-.13,0-.2,0-.33-.04-.08-.03-.18-.11-.23-.17-.02-.02-.03-.05-.04-.07-.01-.03-.02-.03,0-.02,0-.02-.01-.03-.02-.05-.01-.03-.01-.08,0-.11.03-.13-.04-.27-.17-.31-.12-.03-.28.04-.31.17h0Z"/>
    </g>
    <path class="st0" d="M24.22,25.99c-.02.16,0,.32.02.48.02.17.07.34.12.5.13.36.33.72.66.94s.8.2,1.14,0,.52-.53.64-.88c.1-.29.15-.61.15-.92,0-.13-.12-.26-.25-.25s-.25.11-.25.25c0,.1,0,.2-.02.3,0,0,0,.02,0,.02,0,.03.01-.07,0-.03,0,.02,0,.03,0,.05,0,.03-.01.07-.02.1-.01.07-.03.14-.05.21s-.04.14-.07.21c0,.02-.01.04-.02.05,0,0,.03-.06.01-.03,0,0,0,.02-.01.03-.02.04-.03.07-.05.11-.02.03-.04.06-.05.09,0,.01-.02.03-.03.04-.01.02-.07.08,0,.01-.05.06-.1.11-.16.16-.05.04.04-.03,0,0-.01,0-.03.02-.04.03-.04.02-.07.04-.11.06-.05.03.05-.02,0,0-.02,0-.03.01-.05.02-.04.01-.09.02-.13.03-.02,0-.05,0,.03,0-.01,0-.02,0-.03,0-.02,0-.04,0-.06,0s-.04,0-.06,0c-.01,0-.09,0-.03,0s0,0-.02,0c-.02,0-.04,0-.05-.01s-.03-.01-.05-.02c-.03-.01.03.01.03.01,0,0-.02-.01-.03-.02-.03-.02-.06-.03-.09-.05-.02-.01-.07-.06,0,0-.02-.01-.03-.03-.05-.04-.03-.02-.05-.05-.08-.08-.01-.01-.03-.03-.04-.04,0,0,0-.01-.01-.02-.03-.03.03.05,0,.01-.05-.07-.09-.13-.13-.21-.02-.04-.04-.07-.06-.11,0-.02-.02-.04-.03-.06,0-.02-.01-.04.01.02,0-.01,0-.02-.01-.04-.07-.17-.12-.35-.15-.53,0,0,0-.02,0-.02,0-.06,0,.04,0,.02s0-.04,0-.06c0-.04,0-.08,0-.12,0-.07,0-.14,0-.21,0-.06-.03-.14-.07-.18-.04-.04-.11-.08-.18-.07-.15,0-.23.11-.25.25h0Z"/>
  </g>
  <path class="st2" d="M23.3,21.51c-.36-.28-.86-.38-1.29-.2-.23.09-.41.25-.56.44-.11-.14-.23-.26-.38-.35-.4-.24-.91-.23-1.31,0-.45.26-.67.75-.6,1.26.07.55.41.99.78,1.39.42.45.88.85,1.39,1.2.04.03.08.03.13.03.05,0,.09,0,.13-.03.45-.31.87-.66,1.25-1.05.37-.37.74-.79.88-1.31.13-.5.02-1.05-.4-1.38Z"/>
  <path class="st2" d="M31.67,21.51c-.36-.28-.86-.38-1.29-.2-.23.09-.41.25-.56.44-.11-.14-.23-.26-.38-.35-.4-.24-.91-.23-1.31,0-.45.26-.67.75-.6,1.26.07.55.41.99.78,1.39.42.45.88.85,1.39,1.2.04.03.08.03.13.03.05,0,.09,0,.13-.03.45-.31.87-.66,1.25-1.05.37-.37.74-.79.88-1.31.13-.5.02-1.05-.4-1.38Z"/>
</svg>