<?xml version="1.0" encoding="UTF-8"?>
<svg id="cat" xmlns="http://www.w3.org/2000/svg" version="1.1" viewBox="0 0 50.83 48.47">
  <!-- Generator: Adobe Illustrator 29.8.2, SVG Export Plug-In . SVG Version: 2.1.1 Build 3)  -->
  <defs>
    <style>
      .st0 {
        fill: #231f20;
      }

      .st1 {
        fill: #fff;
      }

      .st2 {
        fill: #ffe669;
      }

      .st3 {
        fill: #f8972f;
      }
    </style>
  </defs>
  <g>
    <g>
      <ellipse class="st0" cx="21.78" cy="23.42" rx="2.36" ry="2.33"/>
      <circle class="st1" cx="21.61" cy="24.17" r="1.09"/>
      <circle class="st1" cx="21.52" cy="22.15" r=".75"/>
      <circle class="st1" cx="23.14" cy="22.96" r=".56"/>
    </g>
    <g>
      <ellipse class="st0" cx="29.56" cy="23.42" rx="2.36" ry="2.33"/>
      <circle class="st1" cx="29.39" cy="24.17" r="1.09"/>
      <circle class="st1" cx="29.3" cy="22.15" r=".75"/>
      <circle class="st1" cx="30.92" cy="22.96" r=".56"/>
    </g>
    <g>
      <path class="st1" d="M24.35,27.04s-.09.02-.12.03c-.09.52-.02,1.13.17,1.63.39,1.04,1.77,1.68,2.56.65.49-.63.71-1.62.45-2.4-.25.11-.55.13-.81.02-.35-.16-.6-.52-.86-.78-.34.46-.86.69-1.39.85Z"/>
      <g>
        <g>
          <ellipse class="st0" cx="25.78" cy="25.4" rx=".88" ry=".54"/>
          <path class="st0" d="M22.9,26.25c.2.61.81,1.03,1.45,1.03.73,0,1.23-.56,1.55-1.16l-.43-.25c-.22.47.37.92.71,1.15.18.12.37.23.58.24.33.02.67-.08.95-.25.34-.2.59-.51.73-.88.05-.13-.05-.27-.17-.31-.14-.04-.26.05-.31.17-.11.28-.33.5-.59.64-.13.07-.28.11-.42.12-.04,0-.07,0-.11,0-.03,0-.16-.03-.07,0-.01,0-.03,0-.04-.01-.05-.02,0,0-.01,0-.21-.1-.38-.22-.54-.36-.04-.04-.09-.08-.13-.12-.02-.02-.05-.05-.07-.08.03.03-.01-.02-.02-.02-.01-.02-.02-.04-.03-.05-.04-.06,0,0-.01-.03-.01-.02,0-.06,0,0,0-.02,0,.02-.02.04.06-.12.03-.27-.09-.34-.11-.07-.28-.03-.34.09-.23.42-.56.9-1.08.91-.42.01-.86-.25-1-.66-.1-.3-.58-.17-.48.13h0Z"/>
        </g>
        <path class="st0" d="M23.97,27.27c.04.54.08,1.09.28,1.6.19.47.51.9.96,1.14s.96.26,1.41.02c.43-.22.73-.64.89-1.08.22-.59.19-1.25.16-1.87,0-.13-.11-.26-.25-.25-.13,0-.26.11-.25.25.01.26.03.51.02.77s-.02.46-.08.7c-.01.06-.03.12-.05.18,0,.02-.02.05-.02.07,0,.01,0,.02-.01.03,0,0-.02.05,0,.02.01-.02,0,.01,0,.01,0,.01,0,.02-.01.03-.01.02-.02.05-.04.07-.02.05-.05.09-.08.13-.03.04-.05.08-.08.12-.02.02,0,0,0,0,0,.01-.02.02-.03.04-.02.02-.04.04-.05.06-.03.03-.06.07-.1.1-.02.02-.03.03-.05.05,0,0-.04.03-.02.02.02-.02-.02.01-.02.02-.08.06-.16.1-.25.14.04-.02-.02,0-.04.01-.02,0-.04.01-.06.02-.05.01-.1.02-.15.03.05,0-.02,0-.04,0-.02,0-.05,0-.07,0s-.05,0-.07,0c-.01,0-.08-.01-.04,0-.05,0-.1-.02-.15-.03-.02,0-.05-.01-.07-.02-.01,0-.08-.03-.04-.01-.1-.04-.19-.09-.27-.15,0,0-.06-.04-.03-.02-.02-.01-.04-.03-.06-.05-.04-.04-.08-.08-.12-.12-.03-.03-.07-.07-.1-.11,0,0-.04-.05-.02-.03-.02-.02-.03-.05-.05-.07-.06-.09-.12-.19-.16-.29-.04-.1-.09-.22-.12-.35-.04-.13-.07-.26-.09-.4-.04-.24-.06-.52-.08-.79,0-.13-.11-.26-.25-.25-.13,0-.26.11-.25.25h0Z"/>
      </g>
    </g>
  </g>
  <g>
    <g>
      <path class="st2" d="M11.42,19.79c.07.57-.14,1.17-.55,1.58s-1.02.59-1.59.5c.24.18.54.25.8.39.52.28.86.8,1.04,1.36s.21,1.15.24,1.74c.05-.47.11-.93.19-1.39.09-.53.25-1.1.69-1.4.43-.3,1-.26,1.51-.21-.69-.27-1.43-.59-1.79-1.24-.13-.24-.2-.51-.27-.78-.09-.34-.17-.67-.26-1.01"/>
      <path class="st3" d="M11.17,19.79c.06.51-.1,1.02-.46,1.38s-.88.53-1.37.46c-.28-.04-.43.28-.19.46.28.2.63.28.92.46.26.16.45.41.6.67.36.65.4,1.42.43,2.14.02.33.46.31.5,0,.05-.41.1-.83.17-1.24.05-.32.11-.64.26-.93s.36-.48.66-.56c.34-.09.71-.05,1.06-.02.12.01.23-.1.25-.22.02-.13-.06-.23-.18-.27-.53-.21-1.09-.44-1.47-.88-.21-.24-.3-.55-.39-.85-.1-.37-.19-.74-.29-1.12-.08-.31-.56-.18-.48.13.1.4.2.8.31,1.2.1.37.24.7.49.99.44.51,1.09.77,1.69,1.01l.07-.49c-.4-.04-.82-.07-1.21.05s-.69.36-.89.71c-.18.32-.28.68-.34,1.04-.09.48-.14.97-.2,1.46h.5c-.04-.82-.09-1.67-.5-2.39-.18-.31-.41-.59-.7-.8-.31-.22-.69-.29-1-.51l-.19.46c.66.09,1.33-.09,1.82-.55s.72-1.12.64-1.77c-.02-.13-.1-.25-.25-.25-.12,0-.27.11-.25.25h0Z"/>
    </g>
    <g>
      <path class="st2" d="M41.68,14.17c.04.41.03.83-.03,1.24-.04.28-.1.57-.28.79-.36.46-1.02.5-1.6.5.39.06.77.17,1.13.32.2.08.4.19.53.36.13.17.18.39.22.61.09.44.18.89.27,1.33.05-.55.12-1.12.41-1.58.35-.54,1.01-.86,1.65-.79-1.35-.18-2.44-1.5-2.36-2.85"/>
      <path class="st3" d="M41.43,14.17c.03.35.03.71,0,1.06-.03.28-.07.59-.25.82-.32.4-.94.4-1.4.4-.27,0-.35.44-.07.49.31.05.61.13.9.24.23.08.51.18.65.38.16.23.18.56.23.83.07.33.14.66.2,1,.02.12.16.2.27.18.13-.02.2-.12.22-.25.05-.55.11-1.17.49-1.6.33-.38.82-.56,1.32-.52.28.03.35-.45.07-.49-1.25-.18-2.24-1.35-2.17-2.61.02-.32-.48-.32-.5,0-.08,1.46,1.08,2.89,2.54,3.1l.07-.49c-.62-.06-1.26.2-1.67.66-.48.54-.57,1.26-.64,1.95l.49-.07c-.07-.36-.15-.72-.22-1.07-.07-.33-.11-.68-.32-.95-.19-.25-.49-.38-.78-.49-.33-.13-.67-.22-1.02-.28l-.07.49c.6,0,1.33-.04,1.75-.54.24-.28.33-.64.37-1,.05-.41.06-.82.03-1.24-.01-.13-.11-.25-.25-.25-.13,0-.26.11-.25.25h0Z"/>
    </g>
    <g>
      <path class="st2" d="M39.63,20.39c.13.48-.03,1.03-.38,1.38s-.91.49-1.39.36c.39.06.78.15,1.08.41.5.44.55,1.19.55,1.86.03-.33.06-.68.18-.99s.35-.6.67-.71c.37-.12.78,0,1.15-.13-.55.05-1.06-.34-1.32-.83s-.32-1.05-.39-1.6"/>
      <path class="st3" d="M39.39,20.46c.1.39-.01.83-.31,1.13s-.76.41-1.16.3l-.13.48c.49.07.97.21,1.22.66.22.4.22.91.23,1.37,0,.14.11.25.25.25.14,0,.24-.11.25-.25.04-.46.08-.98.44-1.31.15-.14.34-.19.55-.2.28,0,.56.01.83-.08.12-.04.2-.15.18-.27-.02-.11-.12-.23-.25-.22-.44.04-.83-.25-1.06-.62-.28-.46-.34-1.03-.41-1.56-.02-.13-.1-.25-.25-.25-.12,0-.27.12-.25.25.08.63.15,1.31.51,1.86.32.48.86.87,1.45.82l-.07-.49c-.27.09-.56.04-.84.07-.3.03-.56.14-.78.36-.44.43-.51,1.06-.56,1.64h.5c0-.56-.03-1.15-.31-1.65-.31-.56-.9-.78-1.5-.87-.13-.02-.27.03-.31.17-.04.13.04.27.17.31.58.15,1.22,0,1.64-.43s.58-1.05.44-1.61c-.08-.31-.56-.18-.48.13h0Z"/>
    </g>
  </g>
</svg>