<?xml version="1.0" encoding="UTF-8"?>
<svg id="cat" xmlns="http://www.w3.org/2000/svg" version="1.1" viewBox="0 0 50.83 48.47">
  <!-- Generator: Adobe Illustrator 29.8.2, SVG Export Plug-In . SVG Version: 2.1.1 Build 3)  -->
  <defs>
    <style>
      .st0 {
        fill: #231f20;
      }

      .st1 {
        fill: #fff;
      }

      .st2 {
        fill: #91d6e1;
        stroke: #4c98c3;
        stroke-miterlimit: 10;
        stroke-width: .5px;
      }
    </style>
  </defs>
  <g>
    <ellipse class="st0" cx="25.42" cy="23.86" rx=".88" ry=".54"/>
    <path class="st0" d="M24.7,25.91c.32-.38.6-.78.84-1.22h-.43c.27.39.53.77.8,1.16.04.05.08.1.15.11.06.02.14,0,.19-.03.11-.07.17-.23.09-.34-.27-.39-.53-.77-.8-1.16-.05-.07-.12-.12-.22-.12-.09,0-.17.05-.22.12-.17.32-.37.62-.59.91l.04-.05c-.07.09-.14.17-.21.26-.04.05-.07.11-.07.18,0,.06.03.13.07.18.09.09.26.11.35,0h0Z"/>
  </g>
  <path class="st0" d="M22.5,19.34c.05.17.15.32.28.44s.29.2.46.23c.09.02.18.02.26.01.11-.01.2-.04.31-.09.16-.07.29-.2.39-.35.11-.16.17-.36.16-.55,0-.07-.03-.13-.07-.18-.04-.04-.11-.08-.18-.07-.13,0-.26.11-.25.25,0,.04,0,.08,0,.13v-.07c0,.06-.02.12-.04.18l.03-.06c-.03.06-.06.12-.1.17l.04-.05c-.04.05-.09.1-.14.14l.05-.04s-.1.06-.15.09l.06-.03c-.05.02-.11.04-.17.05h.07c-.06,0-.11,0-.17,0h.07c-.06,0-.12-.02-.18-.04l.06.03c-.06-.03-.12-.06-.17-.1l.05.04s-.09-.08-.13-.13l.04.05s-.06-.09-.09-.15l.03.06s-.02-.05-.03-.07c-.02-.06-.06-.12-.11-.15s-.13-.04-.19-.03c-.13.04-.21.17-.17.31h0Z"/>
  <path class="st0" d="M27.58,19.21s-.02.05-.03.07l.03-.06c-.02.05-.05.1-.09.15l.04-.05s-.08.09-.13.13l.05-.04c-.05.04-.11.07-.17.1l.06-.03c-.06.02-.12.04-.18.05h.07c-.06,0-.11,0-.17,0h.07c-.06,0-.11-.01-.17-.04l.06.03c-.05-.02-.1-.05-.15-.09l.05.04c-.05-.04-.1-.09-.14-.14l.04.05c-.04-.05-.07-.11-.1-.17l.03.06c-.02-.06-.04-.12-.05-.18v.07s0-.08,0-.13c0-.13-.12-.26-.25-.25-.14,0-.24.11-.25.25-.02.35.19.71.5.88s.71.14,1-.07c.09-.07.17-.14.24-.24.06-.08.1-.17.13-.26.04-.13-.04-.28-.17-.31s-.27.04-.31.17h0Z"/>
  <g>
    <path class="st0" d="M18.78,22.93c1.3,0,2.61-.03,3.91-.12.2-.01.38-.16.38-.38,0-.19-.17-.39-.38-.38-1.3.09-2.6.12-3.91.12-.2,0-.38.17-.38.38s.16.38.38.38h0Z"/>
    <path class="st2" d="M21.14,23.82c-.31-.75-1.43-.8-2.11-.67-.51.1-1.25.6-.91,1.21.09.16.29.29.54.38-.06.13-.1.27-.1.42,0,.47.3.85.66.85s.66-.38.66-.85c0-.09-.02-.18-.04-.27.83-.04,1.58-.38,1.29-1.08Z"/>
    <ellipse class="st1" cx="19.01" cy="23.93" rx=".5" ry=".33"/>
  </g>
  <g>
    <path class="st0" d="M31.66,22.18c-1.3,0-2.61-.03-3.91-.12-.2-.01-.38.18-.38.38,0,.21.16.36.38.38,1.3.09,2.6.12,3.91.12.2,0,.38-.17.38-.38s-.16-.37-.38-.38h0Z"/>
    <path class="st2" d="M29.56,23.77c.31-.75,1.43-.8,2.11-.67.51.1,1.25.6.91,1.21-.47.83-3.56.76-3.01-.54Z"/>
    <ellipse class="st1" cx="31.68" cy="23.88" rx=".5" ry=".33"/>
  </g>
</svg>