<?xml version="1.0" encoding="UTF-8"?>
<svg id="cat" xmlns="http://www.w3.org/2000/svg" version="1.1" viewBox="0 0 50.83 48.47">
  <!-- Generator: Adobe Illustrator 29.8.2, SVG Export Plug-In . SVG Version: 2.1.1 Build 3)  -->
  <defs>
    <style>
      .st0 {
        fill: #231f20;
      }

      .st1 {
        fill: #fff;
      }

      .st2 {
        fill: #f16876;
      }

      .st3 {
        fill: #4c98c3;
      }

      .st4 {
        fill: none;
        stroke: #231f20;
        stroke-miterlimit: 10;
        stroke-width: .5px;
      }

      .st5 {
        fill: #7cd1e6;
      }
    </style>
  </defs>
  <g>
    <ellipse class="st0" cx="26.49" cy="21.63" rx=".88" ry=".54"/>
    <g>
      <path class="st0" d="M22.28,18.26c.02.16.11.31.21.44s.25.21.41.27c.31.11.67,0,.9-.23.12-.13.22-.29.25-.47.01-.07.01-.13-.03-.19-.03-.05-.09-.1-.15-.11-.06-.01-.14-.01-.19.03-.05.03-.11.09-.11.15,0,.05-.02.1-.04.15l.03-.06c-.02.05-.05.1-.09.15l.04-.05s-.08.09-.12.12l.05-.04s-.1.07-.16.09l.06-.03c-.05.02-.1.04-.16.04h.07c-.05,0-.1,0-.15,0h.07c-.06,0-.11-.01-.17-.04l.06.03c-.05-.02-.1-.05-.15-.09l.05.04s-.09-.08-.13-.13l.04.05s-.06-.09-.08-.14l.03.06c-.02-.05-.04-.1-.04-.16,0-.06-.07-.12-.11-.15-.05-.03-.13-.04-.19-.03s-.12.06-.15.11l-.03.06s-.01.09,0,.13h0Z"/>
      <g>
        <rect class="st5" x="20.91" y="21.44" width="2.12" height="7.68"/>
        <path class="st3" d="M20.6,21.5v7.48c0,.32.5.32.5,0v-7.48c0-.32-.5-.32-.5,0h0Z"/>
        <path class="st3" d="M22.87,21.44v7.68c0,.32.5.32.5,0v-7.68c0-.32-.5-.32-.5,0h0Z"/>
        <path class="st0" d="M20.43,21.53c1.1,0,2.2.02,3.3.03.2,0,.38-.17.38-.38s-.16-.37-.38-.38c-1.1,0-2.2-.02-3.3-.03-.2,0-.38.17-.38.38s.16.37.38.38h0Z"/>
      </g>
    </g>
    <g>
      <path class="st0" d="M30.2,18.13c0,.05-.02.11-.04.16l.03-.06s-.05.1-.08.14l.04-.05s-.08.09-.13.13l.05-.04s-.1.06-.15.09l.06-.03c-.05.02-.11.04-.17.05h.07c-.05,0-.1,0-.15,0h.07c-.05,0-.11-.01-.16-.03l.06.03c-.06-.02-.11-.05-.16-.09l.05.04s-.09-.08-.12-.12l.04.05s-.06-.09-.09-.15l.03.06s-.03-.1-.04-.15c0-.06-.07-.12-.11-.15-.05-.03-.13-.04-.19-.03s-.12.06-.15.11l-.03.06s-.01.09,0,.13c.02.16.11.31.22.43s.25.21.41.27c.31.11.67,0,.9-.24.12-.13.22-.29.24-.47,0-.07.01-.13-.03-.19-.03-.05-.09-.1-.15-.11-.06-.01-.14-.01-.19.03-.05.03-.11.09-.11.15h0Z"/>
      <g>
        <rect class="st5" x="30.09" y="21.36" width="2.22" height="7.68" transform="translate(62.41 50.4) rotate(-180)"/>
        <path class="st3" d="M32.11,21.42v7.48c0,.32.5.32.5,0v-7.48c0-.32-.5-.32-.5,0h0Z"/>
        <path class="st3" d="M29.79,21.48c0,2.56,0,5.12,0,7.68,0,.32.5.32.5,0,0-2.56,0-5.12,0-7.68,0-.32-.5-.32-.5,0h0Z"/>
        <path class="st0" d="M32.71,20.78c-1.1,0-2.2.02-3.3.03-.2,0-.38.17-.38.38s.16.38.38.38c1.1,0,2.2-.02,3.3-.03.2,0,.38-.17.38-.38s-.16-.38-.38-.38h0Z"/>
      </g>
    </g>
  </g>
  <g>
    <path class="st0" d="M26.21,21.92c0,.83.03,1.66.04,2.49,0,.13.11.26.25.25s.25-.11.25-.25c0-.83-.04-1.66-.04-2.49,0-.13-.11-.26-.25-.25s-.25.11-.25.25h0Z"/>
    <path class="st2" d="M27.26,23.76c.14.06.27.12.39.21.14.1.27.2.41.3.09.06.18.13.23.22.39.6.66,1.19.83,1.9.11.45.12,1-.23,1.29-.27.22-.66.21-.99.12s-.65-.26-.99-.33c-.5-.1-1.03.01-1.5.21-.29.12-.63.27-.91.12-.13-.07-.22-.19-.28-.32-.29-.59-.08-1.29.17-1.89.2-.48.41-1.11.76-1.5.48-.54,1.44-.59,2.12-.33Z"/>
    <path class="st1" d="M28.22,27.91c.18.05.42.07.52-.08.04-.06.05-.14.05-.22.01-.24-.01-.48-.07-.72-.03-.12-.1-.25-.22-.24-.16,0-.22.25-.37.3-.19.07-.54-.02-.74-.05-.49-.06-.98-.17-1.48-.13-.26.02-.53.14-.78.15-.2,0-.31-.19-.48-.19-.08,0-.13.08-.16.15-.11.33-.22.65-.15,1,0,.05.03.11.07.14.06.04.14.03.21.01.34-.08.61-.25.96-.28.42-.03.86-.12,1.28-.12.46,0,.93.15,1.37.27Z"/>
    <path class="st4" d="M29.26,27.06c0,.11-.02.21-.05.31-.28,1-1.55.4-2.21.26-.39-.08-.86-.05-1.25.03s-.77.4-1.2.25c-.25-.09-.42-.32-.5-.57s-.06-.52-.03-.78c.19-1.42.88-2.72,2.42-2.79.79-.04,1.53.36,2,.99.42.56.86,1.51.81,2.29Z"/>
  </g>
</svg>