<?xml version="1.0" encoding="UTF-8"?>
<svg id="cat" xmlns="http://www.w3.org/2000/svg" version="1.1" viewBox="0 0 50.83 48.47">
  <!-- Generator: Adobe Illustrator 29.8.2, SVG Export Plug-In . SVG Version: 2.1.1 Build 3)  -->
  <defs>
    <style>
      .st0 {
        fill: #231f20;
      }
    </style>
  </defs>
  <g>
    <ellipse class="st0" cx="26.22" cy="23.85" rx=".88" ry=".54"/>
    <path class="st0" d="M25.51,26.02c.2-.41.46-.79.69-1.18.05-.09.11-.18.16-.28h-.43c.13.19.28.36.42.54.16.19.31.39.47.58.01.01.02.03.03.04,0,0,0,0,.01.01.02.02-.04-.05-.02-.02.02.02.03.04.05.06.03.04.06.08.09.12.07.11.22.17.34.09.11-.07.17-.23.09-.34-.13-.19-.28-.36-.42-.54-.16-.19-.31-.39-.47-.58-.01-.01-.02-.03-.03-.04,0,0,0,0-.01-.01-.02-.02.04.05.02.02-.02-.02-.03-.04-.05-.06-.03-.04-.06-.08-.09-.12-.05-.07-.12-.12-.22-.12-.09,0-.17.05-.22.12-.21.4-.46.78-.69,1.17-.05.09-.11.19-.16.29-.06.12-.03.28.09.34.11.06.28.04.34-.09h0Z"/>
  </g>
  <path class="st0" d="M20.45,22.95c1.18.33,2.36.63,3.55.9.19.04.41-.06.46-.26.04-.19-.06-.41-.26-.46-1.19-.27-2.37-.57-3.55-.9-.19-.05-.42.06-.46.26s.06.41.26.46h0Z"/>
  <path class="st0" d="M31.77,22.22c-1.18.33-2.36.63-3.55.9-.19.04-.32.27-.26.46.06.2.26.31.46.26,1.19-.27,2.37-.57,3.55-.9.19-.05.32-.27.26-.46s-.26-.32-.46-.26h0Z"/>
</svg>