<?xml version="1.0" encoding="UTF-8"?>
<svg id="cat" xmlns="http://www.w3.org/2000/svg" version="1.1" viewBox="0 0 50.83 48.47">
  <!-- Generator: Adobe Illustrator 29.8.2, SVG Export Plug-In . SVG Version: 2.1.1 Build 3)  -->
  <defs>
    <style>
      .st0 {
        fill: #231f20;
      }

      .st1 {
        fill: #fff;
      }

      .st2 {
        fill: #4c98c3;
      }

      .st3 {
        fill: #90d6e3;
      }

      .st4 {
        fill: #2061ac;
      }
    </style>
  </defs>
  <g>
    <g>
      <g>
        <ellipse class="st0" cx="30.09" cy="26.14" rx=".88" ry=".54"/>
        <path class="st0" d="M29.88,26.13c-.02.25-.03.49-.01.74.01.19.03.38.03.57,0,.16,0,.32-.02.47,0,.13.12.26.25.25.14,0,.24-.11.25-.25.02-.25.03-.49.01-.74-.01-.19-.03-.38-.03-.57,0-.16,0-.32.02-.47,0-.13-.12-.26-.25-.25-.14,0-.24.11-.25.25h0Z"/>
      </g>
      <g>
        <path class="st1" d="M30.08,27.6c-.19.18-.36.38-.49.6-.13.22-.23.47-.21.73s.19.51.44.57c.1.02.19.02.29,0,.2-.02.42-.08.55-.24.17-.2.14-.5.05-.75-.11-.34-.3-.65-.54-.91"/>
        <path class="st0" d="M29.9,27.43c-.3.27-.55.62-.69,1s-.1.84.21,1.13c.16.15.37.22.6.21.2-.01.41-.05.59-.14s.33-.26.4-.46c.06-.19.04-.4,0-.59-.05-.21-.14-.42-.25-.61s-.24-.38-.4-.54c-.09-.1-.26-.1-.35,0-.09.1-.1.25,0,.35.03.03.05.06.08.09.01.01.02.03.04.04,0,0,.01.02.02.03.03.04-.02-.03,0,0,.05.07.09.13.14.2s.08.15.12.22c0,.02.02.03.02.05,0,0,0,.02.01.03.01.03,0-.02,0-.02.01.04.03.08.05.12.03.07.05.15.06.22,0,.02,0,.04,0,.05,0,0,0-.06,0-.02,0,0,0,.02,0,.03,0,.04,0,.07,0,.11,0,.02,0,.03,0,.05,0-.07,0-.02,0,0,0,.02,0,.03-.01.05,0,0,0,.02,0,.03,0,.03-.02.02,0-.01-.02.02-.04.06-.05.08.03-.05.03-.03.01-.02,0,0-.01.01-.02.02-.01.01-.03.02-.04.04.05-.05.01-.01,0,0-.01,0-.03.02-.04.02,0,0-.01,0-.02,0-.04.02.02,0,.02,0-.02,0-.04.02-.06.02-.07.02-.14.04-.21.05-.03,0,.06,0,.02,0-.01,0-.02,0-.03,0-.02,0-.04,0-.06,0s-.04,0-.06,0-.06,0-.08,0c0,0,.06.01.02,0,0,0-.02,0-.02,0-.02,0-.03,0-.04-.01-.04-.01.02.01.02.01,0,0-.02,0-.02-.01-.02,0-.03-.02-.05-.03,0,0-.01-.01-.02-.02,0,0,.05.04.02.01-.01-.01-.02-.02-.03-.03s-.02-.02-.03-.03c0,0-.01-.01-.02-.02.01.01.03.05.01.01-.02-.03-.04-.06-.05-.09,0,0,0-.01,0-.02-.01-.03.02.05,0,.02,0-.02-.01-.03-.02-.05,0-.03-.02-.07-.02-.1,0,0,0,.07,0,.03,0,0,0-.02,0-.03,0-.02,0-.05,0-.07,0-.02,0-.04,0-.06,0,0,0-.05,0,0s0,0,0,0c0-.04.02-.09.03-.13,0-.02.02-.05.02-.07,0-.02.04-.09,0-.03.02-.04.04-.08.06-.12.05-.09.1-.17.15-.25.01-.02.03-.04.04-.05,0,0,.01-.02.02-.03.01-.02.02-.04,0,0,.02-.04.06-.08.09-.11.06-.07.13-.14.2-.21.1-.09.1-.26,0-.35-.1-.09-.25-.09-.35,0h0Z"/>
      </g>
    </g>
    <path class="st0" d="M24.18,24.13c.12.31.29.64.55.86.22.19.48.32.77.38.58.11,1.22-.02,1.68-.4.29-.24.46-.59.48-.97.01-.2-.18-.38-.38-.38-.21,0-.36.16-.38.38,0,.01,0,.03,0,.04,0,.06,0-.04,0-.04,0,.02-.01.07-.02.09,0,.03-.02.05-.02.08-.01.04.04-.08.02-.03,0,.01-.01.03-.02.04-.03.05-.06.1-.09.14-.03.04.05-.06.02-.03,0,.01-.02.02-.03.03-.02.03-.05.05-.07.07-.02.02-.04.04-.06.05-.03.03.07-.05.03-.02-.01,0-.02.02-.03.02-.05.03-.1.07-.16.09-.01,0-.02.01-.04.02-.04.02.08-.03.03-.01-.03,0-.05.02-.08.03-.05.02-.1.03-.16.05-.05.01-.1.02-.15.03-.01,0-.03,0-.04,0,0,0,.1-.01.04,0-.03,0-.06,0-.09,0-.05,0-.1,0-.15,0s-.12-.02-.17-.01c0,0,.1.02.04,0-.01,0-.02,0-.04,0-.02,0-.05,0-.07-.02-.05-.01-.11-.03-.16-.05-.01,0-.02,0-.03-.01.09.03.06.03.04.02-.02-.01-.04-.02-.07-.03-.05-.03-.09-.06-.14-.09.08.04.05.04.03.02-.01-.01-.03-.02-.04-.04-.02-.02-.05-.04-.07-.07s-.04-.05-.06-.07c-.03-.04.04.06.02.02-.01-.02-.02-.03-.03-.05-.05-.06-.09-.13-.12-.2-.02-.03-.04-.07-.05-.11,0-.01-.01-.03-.02-.04l.02.05s-.01-.03-.02-.04c-.04-.09-.08-.17-.17-.22-.08-.05-.2-.07-.29-.04-.18.06-.34.27-.26.46h0Z"/>
    <path class="st0" d="M32.25,24.13c.23.52.72.9,1.26,1.04.59.15,1.25.03,1.72-.38.28-.25.46-.62.47-1,0-.2-.18-.38-.38-.38s-.37.16-.38.38c0,.02,0,.03,0,.05s0,.06,0,0c.01-.07,0,.03-.01.05,0,.03-.01.05-.02.08,0,.01-.03.07,0,.01s0,0,0,0c-.03.05-.06.1-.09.15s.02-.03.02-.03c0,0-.02.02-.03.03-.02.03-.05.05-.08.08-.02.02-.05.04-.07.06-.02.02-.05.03.03-.02-.01,0-.02.02-.03.02-.05.04-.11.07-.17.1-.01,0-.03.02-.04.02,0,0,.09-.04.04-.02-.02,0-.05.02-.07.03-.06.02-.11.03-.17.05-.03,0-.05.01-.08.02-.06.01.05,0,.05,0-.01,0-.03,0-.04,0-.06,0-.12,0-.18,0-.05,0-.1,0-.15,0-.08,0,.1.02,0,0-.03,0-.06-.01-.09-.02-.05-.01-.1-.02-.15-.04-.03,0-.05-.02-.08-.03-.01,0-.02,0-.03-.01.11.04.05.02.02,0-.1-.05-.19-.1-.28-.16-.05-.03.03.03.03.03-.01,0-.03-.02-.04-.03-.02-.02-.04-.04-.07-.06-.04-.04-.08-.09-.12-.13-.04-.05.05.06.02.03,0-.01-.02-.02-.03-.04-.02-.03-.04-.06-.05-.08-.03-.06-.06-.11-.09-.17-.04-.08-.14-.15-.22-.17-.09-.02-.21-.01-.29.04s-.15.13-.17.22c-.02.1,0,.19.04.29h0Z"/>
    <g>
      <g>
        <path class="st3" d="M29.29,26.55c0,.11-.14.14-.24.13-.87-.08-1.51-.86-2.34-1.11-.8-.24-1.73.08-2.21.76-1.04,1.46-.15,3.35,1.63,3.51.82.07,1.64-.32,2.2-.92s.87-1.41.98-2.23"/>
        <path class="st2" d="M29.04,26.55l.07-.12s.02,0-.02,0c.03,0-.05,0-.05,0-.05,0-.1-.01-.14-.03-.13-.03-.25-.07-.37-.13-.24-.11-.46-.25-.68-.4-.46-.3-.93-.57-1.48-.63s-1.1.1-1.53.4-.73.73-.9,1.22c-.3.85-.08,1.82.55,2.46.73.75,1.88.94,2.84.56,1.3-.52,2.03-1.81,2.23-3.15.02-.13-.03-.27-.17-.31-.12-.03-.29.04-.31.17-.16,1.08-.66,2.16-1.66,2.7-.81.43-1.84.36-2.5-.26-.56-.53-.74-1.32-.49-2.05.14-.41.42-.78.8-1.01s.88-.32,1.32-.22c.54.13.99.5,1.46.78.25.14.52.27.81.33s.71.05.74-.35c.02-.32-.48-.32-.5,0h0Z"/>
      </g>
      <path class="st1" d="M24.9,27.28c-.03.1-.05.19-.06.29-.01.08-.01.16,0,.25.02.2.07.4.17.58.05.1.12.19.19.27.09.1.27.1.35,0,.1-.1.09-.25,0-.35-.02-.02-.04-.04-.06-.07l.04.05c-.06-.08-.11-.16-.14-.25l.03.06c-.04-.1-.07-.2-.08-.3v.07c0-.1,0-.2,0-.3v.07c0-.08.02-.15.05-.23.02-.06,0-.14-.03-.19s-.09-.1-.15-.11c-.06-.01-.14-.01-.19.03s-.09.09-.11.15h0Z"/>
      <path class="st1" d="M25.94,29.04c.06.04.11.06.18.09.03.01.07.03.11.03.05,0,.11.02.16.02s.1,0,.15-.02c.03,0,.07-.01.1-.02.03,0,.06-.02.09-.04.03-.02.05-.04.06-.07.02-.03.03-.06.03-.09,0-.03,0-.07,0-.1l-.03-.06s-.05-.07-.09-.09l-.06-.03s-.09-.01-.13,0c-.04.01-.09.02-.13.03h.07s-.09,0-.13,0h.07s-.09,0-.13-.03l.06.03s-.08-.04-.12-.06c-.03-.02-.06-.03-.09-.03-.03,0-.07,0-.1,0-.03,0-.06.02-.09.04-.03.02-.05.04-.06.07l-.03.06s-.01.09,0,.13l.03.06s.05.07.09.09h0Z"/>
    </g>
  </g>
  <g>
    <path class="st4" d="M11.69,18.18c.87-.61,1.75-1.2,2.65-1.76l-.37-.28c-.24,1.36-.51,2.72-.8,4.07-.02.1,0,.2.09.26.07.05.2.08.28.02.78-.58,1.54-1.18,2.28-1.8.1-.09.09-.26,0-.35-.1-.1-.25-.09-.35,0-.71.59-1.44,1.17-2.18,1.72l.37.28c.3-1.35.56-2.71.8-4.07.02-.1,0-.2-.09-.26-.08-.06-.19-.07-.28-.02-.9.56-1.78,1.15-2.65,1.76-.11.08-.16.22-.09.34.06.11.23.17.34.09h0Z"/>
    <path class="st4" d="M15.86,19.91c.33-.09.66-.18.99-.26.16-.04.33-.08.49-.11.08-.02.16-.04.25-.05.04,0,.08-.02.12-.03.02,0,.04-.01.06-.01-.04,0-.07.01-.11-.01l-.09-.09c.02-.16.02-.22-.01-.16,0,.01-.01.02-.02.03-.01.02-.02.04-.04.06-.02.04-.04.07-.06.11-.04.08-.09.16-.13.24-.09.16-.17.32-.25.49-.16.32-.31.65-.45.99-.04.1-.05.22.04.3s.2.09.3.04c.51-.22,1.02-.44,1.54-.66.12-.05.16-.24.09-.34-.08-.12-.21-.15-.34-.09-.51.22-1.02.44-1.54.66l.34.34c.23-.54.49-1.07.77-1.59.03-.06.07-.12.1-.18.04-.08.11-.16.13-.25.03-.13-.01-.26-.13-.34-.09-.06-.19-.05-.3-.03-.3.06-.59.12-.89.19-.33.08-.67.17-1,.26-.13.04-.22.18-.17.31s.17.21.31.17h0Z"/>
  </g>
</svg>