<?xml version="1.0" encoding="UTF-8"?>
<svg id="cat" xmlns="http://www.w3.org/2000/svg" version="1.1" viewBox="0 0 50.83 48.47">
  <!-- Generator: Adobe Illustrator 29.8.2, SVG Export Plug-In . SVG Version: 2.1.1 Build 3)  -->
  <defs>
    <style>
      .st0 {
        fill: #231f20;
      }

      .st1 {
        fill: #f16876;
      }

      .st2 {
        fill: none;
        stroke: #231f20;
        stroke-linecap: round;
        stroke-linejoin: round;
        stroke-width: .5px;
      }
    </style>
  </defs>
  <g>
    <ellipse class="st0" cx="26.14" cy="23.68" rx=".88" ry=".54"/>
    <g>
      <path class="st2" d="M22.98,24.21c0,.7.7,1.27,1.57,1.27s1.57-.57,1.57-1.27"/>
      <path class="st2" d="M26.13,24.21c0,.7.7,1.27,1.57,1.27s1.57-.57,1.57-1.27c0-.04,0-.07,0-.11"/>
    </g>
  </g>
  <path class="st0" d="M20.53,23.28s-.04.08,0,.02c0-.01.01-.02.02-.03.01-.02.03-.05.04-.07.01-.02.03-.04.04-.06.04-.05,0,.01-.01.02.01,0,.02-.03.03-.04.04-.04.08-.08.12-.12.02-.02.04-.04.07-.05.03-.03-.03.02-.03.02.01,0,.03-.02.04-.03.1-.07.21-.12.31-.17.04-.02-.03.01-.03.01,0,0,.05-.02.05-.02.02,0,.05-.02.07-.03.06-.02.12-.04.18-.05.06-.01.11-.03.17-.04.02,0,.04,0,.06-.01,0,0,.06,0,0,0-.05,0,.01,0,.03,0,.02,0,.04,0,.06,0,.14-.01.28-.01.42,0,.01,0,.08,0,.02,0-.05,0,0,0,0,0,.03,0,.07.01.1.02.07.02.15.04.22.06.02,0,.05.02.08.03-.09-.02-.01,0,.01,0,.06.03.11.06.17.09.03.02.06.04.08.06,0,0,.04.03,0,0-.05-.04.02.01.02.02.05.04.09.09.13.13.01.01.02.03.03.04,0,0,.04.05,0,.01s.03.04.04.05c.02.03.03.06.05.09.01.03.06.13.02.04.04.09.08.17.17.22.08.05.2.07.29.04.17-.06.34-.27.26-.46-.13-.32-.33-.58-.61-.8-.25-.19-.55-.32-.86-.37-.64-.11-1.35,0-1.9.34-.14.09-.28.2-.39.32-.14.15-.23.31-.31.5-.03.08,0,.22.04.29.05.08.13.15.22.17.1.02.2.02.29-.04s.13-.13.17-.22h0Z"/>
  <path class="st0" d="M28.98,23.28s-.04.08,0,.02c0-.01.01-.02.02-.03.01-.02.03-.05.04-.07.01-.02.03-.04.04-.06.04-.05,0,.01-.01.02.01,0,.02-.03.03-.04.04-.04.08-.08.12-.12.02-.02.04-.04.07-.05.03-.03-.03.02-.03.02.01,0,.03-.02.04-.03.1-.07.21-.12.31-.17.04-.02-.03.01-.03.01,0,0,.05-.02.05-.02.02,0,.05-.02.07-.03.06-.02.12-.04.18-.05.06-.01.11-.03.17-.04.02,0,.04,0,.06-.01,0,0,.06,0,0,0-.05,0,.01,0,.03,0,.02,0,.04,0,.06,0,.14-.01.28-.01.42,0,.01,0,.08,0,.02,0-.05,0,0,0,0,0,.03,0,.07.01.1.02.07.02.15.04.22.06.02,0,.05.02.08.03-.09-.02-.01,0,.01,0,.06.03.11.06.17.09.03.02.06.04.08.06,0,0,.04.03,0,0-.05-.04.02.01.02.02.05.04.09.09.13.13.01.01.02.03.03.04,0,0,.04.05,0,.01s.03.04.04.05c.02.03.03.06.05.09.01.03.06.13.02.04.04.09.08.17.17.22.08.05.2.07.29.04.17-.06.34-.27.26-.46-.13-.32-.33-.58-.61-.8-.25-.19-.55-.32-.86-.37-.64-.11-1.35,0-1.9.34-.14.09-.28.2-.39.32-.14.15-.23.31-.31.5-.03.08,0,.22.04.29.05.08.13.15.22.17.1.02.2.02.29-.04s.13-.13.17-.22h0Z"/>
  <path class="st1" d="M18.99,24.63l-.35.92c-.02.06,0,.14.03.19s.09.1.15.11c.06.01.14.01.19-.03l.05-.04s.05-.07.06-.11l.35-.92c.02-.06,0-.14-.03-.19s-.09-.1-.15-.11c-.06-.01-.14-.01-.19.03l-.05.04s-.05.07-.06.11h0Z"/>
  <path class="st1" d="M20.06,24.64l-.31.95c-.02.06,0,.14.03.19s.09.1.15.11c.06.01.14.01.19-.03s.09-.09.11-.15l.31-.95c.02-.06,0-.14-.03-.19s-.09-.1-.15-.11c-.06-.01-.14-.01-.19.03s-.09.09-.11.15h0Z"/>
  <path class="st1" d="M21.21,24.7l-.26.83c-.02.06,0,.14.03.19s.09.1.15.11c.06.01.14.01.19-.03s.1-.09.11-.15l.26-.83c.02-.06,0-.14-.03-.19s-.09-.1-.15-.11c-.06-.01-.14-.01-.19.03s-.1.09-.11.15h0Z"/>
  <path class="st1" d="M30.43,24.63l-.35.92c-.02.06,0,.14.03.19s.09.1.15.11c.06.01.14.01.19-.03l.05-.04s.05-.07.06-.11l.35-.92c.02-.06,0-.14-.03-.19s-.09-.1-.15-.11c-.06-.01-.14-.01-.19.03l-.05.04s-.05.07-.06.11h0Z"/>
  <path class="st1" d="M31.5,24.64l-.31.95c-.02.06,0,.14.03.19s.09.1.15.11c.06.01.14.01.19-.03s.09-.09.11-.15l.31-.95c.02-.06,0-.14-.03-.19s-.09-.1-.15-.11c-.06-.01-.14-.01-.19.03s-.09.09-.11.15h0Z"/>
  <path class="st1" d="M32.64,24.7l-.26.83c-.02.06,0,.14.03.19s.09.1.15.11c.06.01.14.01.19-.03s.1-.09.11-.15l.26-.83c.02-.06,0-.14-.03-.19s-.09-.1-.15-.11c-.06-.01-.14-.01-.19.03s-.1.09-.11.15h0Z"/>
</svg>