<?xml version="1.0" encoding="UTF-8"?>
<svg id="cat" xmlns="http://www.w3.org/2000/svg" version="1.1" viewBox="0 0 50.83 48.47">
  <!-- Generator: Adobe Illustrator 29.8.2, SVG Export Plug-In . SVG Version: 2.1.1 Build 3)  -->
  <defs>
    <style>
      .st0 {
        fill: #231f20;
      }

      .st1 {
        fill: #fff;
      }

      .st2 {
        fill: #ef394f;
      }
    </style>
  </defs>
  <g>
    <g>
      <path class="st1" d="M24.78,31.76c.26,1.48.21,3.07.3,4.58,0,.07.01.14.06.18.05.05.13.06.2.06.54,0,1.08,0,1.62.01.38,0,1.54.21,1.84-.02.5-.38-.08-2.32-.16-2.88-.1-.75-.2-1.51-.31-2.26-.43-.1-1.74-.57-1.93-1-.18.02-.53.58-.69.72-.28.25-.59.45-.93.61Z"/>
      <g>
        <g>
          <ellipse class="st0" cx="26.45" cy="29.4" rx=".88" ry=".54"/>
          <path class="st0" d="M23.73,31.78c1.2.44,2.27-.58,2.86-1.52l-.43-.25c-.15.27.06.54.26.72.23.21.5.39.77.54.72.42,1.63.42,2.36.02.28-.15.03-.58-.25-.43-.36.19-.78.26-1.18.21-.1-.01-.2-.04-.3-.06-.04-.01-.09-.03-.13-.04-.03,0,.07.03.02,0-.07-.04-.15-.08-.22-.12-.21-.12-.44-.26-.6-.4-.09-.07-.17-.14-.24-.23-.03-.04.02.03-.02-.02s0-.02-.01,0c-.03.02.03-.12,0,0,0-.02,0,.04-.02.05.16-.28-.26-.52-.43-.25-.48.75-1.32,1.64-2.3,1.29-.3-.11-.43.37-.13.48h0Z"/>
        </g>
        <path class="st0" d="M24.58,31.62c.1,1.21.13,2.42.18,3.63.01.3.01.6.04.89.02.25.1.51.34.63.12.06.26.07.39.09.15.02.3.03.45.04.3.02.61.03.91.04.68,0,1.35-.03,2.02-.11.12-.01.27-.1.25-.25-.19-1.74-.34-3.49-.67-5.21-.03-.13-.18-.21-.31-.17-.14.04-.2.17-.17.31.32,1.68.47,3.38.65,5.07l.25-.25c-1.11.13-2.23.15-3.33.04-.07,0-.2,0-.25-.06-.04-.06-.04-.17-.04-.24-.01-.28-.02-.56-.03-.84-.02-.56-.04-1.13-.06-1.69-.03-.64-.06-1.28-.11-1.92-.01-.13-.11-.25-.25-.25-.13,0-.26.11-.25.25h0Z"/>
        <path class="st0" d="M27.1,32.72c-.08-.02-.16-.04-.25-.05-.06,0-.12-.02-.17-.02-.06,0-.12,0-.18.02-.18.03-.35.15-.44.31-.11.19-.09.42.03.6.09.14.21.27.34.38.14.13.3.24.47.33.06.03.13.04.19.03.06-.02.12-.06.15-.11.06-.12.03-.27-.09-.34-.11-.06-.21-.12-.3-.2l.05.04c-.14-.11-.27-.23-.38-.37l.04.05s-.06-.08-.08-.13l.03.06s-.02-.06-.03-.09v.07s0-.05,0-.08v.07s0-.05.01-.07l-.03.06s.02-.05.04-.07l-.04.05s.05-.05.07-.07l-.05.04s.06-.04.1-.06l-.06.03s.08-.03.12-.03h-.07c.06,0,.13,0,.19.01h-.07c.08,0,.17.02.25.04.06.02.14,0,.19-.03.05-.03.1-.09.11-.15.03-.13-.04-.27-.17-.31h0Z"/>
      </g>
    </g>
    <g>
      <path class="st1" d="M27.82,18.47c.13.39.24.67.3.65-.47.12-1.22-.08-1.72-.1-.54-.02-1.07.05-1.61.09-.04,0-.09,0-.12-.02-.13-.12.31-1.18.34-1.37.08-.52.12-1.06.12-1.59,0,.28-1.16.33-1.35.31-.66-.08-1.14-.86-1.11-1.5.04-.76.61-1.21,1.32-1.2-.6,0,.04-1.48.26-1.66.49-.42,1.77-.59,2.35-.29.23.12.95.81.81,1.1.18-.37.59-.61,1.01-.64s.83.13,1.16.39c.4.32.68.81.63,1.32s-.5.97-1.01.94c.44.24.63.84.41,1.29-.42.88-1.8.57-2.35-.01-.06.94.47,2.15.98,2.89-.06.11-.26.03-.24-.09"/>
      <g>
        <path class="st2" d="M24.9,19.06c.39-.9.59-1.88.57-2.86,0-.13-.11-.26-.25-.25s-.25.11-.25.25c0,.23,0,.46-.02.68,0,.06-.01.12-.02.18,0,.03,0,.06-.01.09,0,.01,0,.03,0,.04,0-.02,0-.02,0,0-.02.11-.04.23-.06.34-.04.22-.1.45-.17.66-.03.11-.07.22-.11.32-.02.06-.04.11-.06.17,0,.02-.02.05-.03.07,0,.02-.01.03-.02.05,0-.02,0-.02,0,.01-.05.12-.04.27.09.34.11.06.29.04.34-.09h0Z"/>
        <path class="st2" d="M26.01,16.19l-.07,1.99c0,.13.12.26.25.25.14,0,.25-.11.25-.25l.07-1.99c0-.13-.12-.26-.25-.25-.14,0-.25.11-.25.25h0Z"/>
        <path class="st2" d="M27.06,16.08c-.08.85.12,1.73.55,2.47.12.21.27.42.43.61.08.1.27.09.35,0,.1-.11.09-.25,0-.35-.02-.02-.04-.05-.06-.07-.02-.02-.02-.02,0,0,0-.01-.02-.03-.03-.04-.04-.05-.07-.1-.11-.16-.07-.11-.14-.21-.2-.33-.13-.24-.2-.4-.28-.66-.04-.12-.07-.24-.09-.37-.01-.06-.02-.12-.03-.19,0,0-.01-.1,0-.05,0-.03,0-.06-.01-.09-.03-.25-.03-.51,0-.76.01-.13-.12-.26-.25-.25-.15,0-.24.11-.25.25h0Z"/>
        <path class="st2" d="M25.51,15.37c-.27.41-.69.72-1.19.78-.45.05-.93-.11-1.2-.49-.23-.32-.32-.77-.12-1.13s.6-.58,1-.5c.25.05.41-.23.24-.42-.25-.29-.2-.72,0-1.02.22-.34.62-.54,1.01-.64.81-.21,1.77.14,1.91,1.04.04.26.41.21.48,0,.13-.38.65-.45.99-.43.4.03.8.22,1.07.52s.33.68.19,1.04c-.13.33-.42.6-.79.59-.32,0-.32.49,0,.5s.46.41.35.67c-.14.32-.51.51-.84.53-.66.03-1.28-.46-1.37-1.12-.02-.13-.19-.21-.31-.17-.14.04-.19.17-.17.31.15.99,1.25,1.68,2.2,1.43.51-.13.98-.55,1.04-1.1s-.35-1.04-.89-1.05v.5c.89.01,1.51-.95,1.33-1.78-.19-.9-1.21-1.44-2.07-1.37-.51.04-1.02.28-1.19.79h.48c-.08-.53-.44-.99-.91-1.24-.53-.28-1.17-.3-1.74-.12-.5.16-1,.47-1.25.95s-.22,1.08.15,1.51l.24-.42c-.94-.19-1.84.63-1.73,1.58.12,1.04,1.1,1.66,2.1,1.49.6-.1,1.11-.49,1.43-1,.17-.27-.26-.52-.43-.25h0Z"/>
        <path class="st0" d="M22.53,12.88c-.12-.13-.28-.23-.45-.28-.09-.03-.18-.04-.27-.05s-.18,0-.27.02c-.1.02-.19.05-.29.1-.05.03-.1.09-.11.15-.02.06,0,.14.03.19s.09.1.15.11h.07s.09,0,.13-.03c.01,0,.03-.01.04-.02l-.06.03c.06-.03.13-.05.2-.05h-.07c.08,0,.15,0,.23,0h-.07c.08,0,.16.02.23.05l-.06-.03c.06.03.12.06.18.1l-.05-.04s.07.06.1.09c.04.05.12.07.18.07s.13-.03.18-.07.08-.11.07-.18-.03-.13-.07-.18h0Z"/>
        <g>
          <path class="st1" d="M19.49,12.97c-.1.3.23.64.53.56s.44-.51.24-.75-.65-.19-.79.09"/>
          <path class="st2" d="M19.25,12.9s-.02.09-.02.14c0,.02,0,.05,0,.07,0,.04,0,.09.02.13s.03.08.05.13c.03.06.07.12.12.18s.1.1.16.14c.02.01.04.03.07.04.04.02.08.04.13.05s.09.02.13.02c.02,0,.05,0,.07,0,.05,0,.09,0,.14-.02.04-.01.08-.03.12-.05.02,0,.04-.02.06-.03.03-.02.07-.05.1-.08.19-.18.26-.47.2-.72,0-.02-.01-.04-.02-.06-.02-.04-.03-.08-.05-.11s-.05-.07-.08-.1c-.02-.02-.03-.03-.05-.05-.03-.03-.07-.05-.1-.08s-.08-.04-.12-.05c-.06-.03-.13-.04-.19-.04-.05,0-.09,0-.14,0-.07,0-.13.02-.2.04s-.12.05-.18.09c-.03.02-.07.05-.1.08-.02.02-.04.05-.06.07s-.04.05-.06.08c-.03.06-.04.13-.03.19.02.06.06.12.11.15.06.03.13.05.19.03.06-.02.12-.06.15-.11.01-.02.02-.04.04-.06l-.04.05s.05-.06.08-.08l-.05.04s.07-.05.11-.07l-.06.03s.09-.03.14-.04h-.07s.1,0,.15,0h-.07s.09,0,.13.03l-.06-.03s.07.03.1.06l-.05-.04s.05.04.07.07l-.04-.05s.04.06.05.09l-.03-.06s.02.07.03.11v-.07s0,.09,0,.14v-.07s-.01.09-.03.14l.03-.06s-.04.08-.07.11l.04-.05s-.05.06-.08.08l.05-.04s-.06.04-.09.05l.06-.03s-.06.02-.09.03h.07s-.07,0-.1,0h.07s-.07,0-.11-.02l.06.03s-.07-.04-.11-.06l.05.04s-.07-.06-.09-.09l.04.05s-.05-.07-.07-.11l.03.06s-.02-.07-.03-.11v.07s0-.07,0-.1v.07s0-.04,0-.06c.02-.06,0-.14-.03-.19s-.09-.1-.15-.11c-.06-.01-.14-.01-.19.03s-.09.09-.11.15h0Z"/>
        </g>
        <path class="st0" d="M28.04,11.31s0-.04,0-.05v.07c0-.13.04-.25.09-.37l-.03.06c.05-.12.12-.23.2-.34l-.04.05c.06-.08.14-.16.22-.23.05-.04.07-.12.07-.18s-.03-.13-.07-.18-.11-.08-.18-.07h-.07s-.08.04-.11.07c-.13.11-.24.24-.33.39s-.16.3-.21.47c-.03.1-.04.21-.06.31,0,.06.03.14.07.18.04.04.11.08.18.07s.13-.02.18-.07l.04-.05s.03-.08.03-.13h0Z"/>
        <g>
          <path class="st1" d="M29.11,9.78c-.17.17-.12.5.09.61s.51-.03.56-.26c.02-.11,0-.24-.1-.31s-.24-.07-.31.02"/>
          <path class="st2" d="M28.93,9.6s-.05.06-.07.09c-.01.01-.02.03-.03.04-.02.03-.03.07-.04.1,0,.02-.01.03-.01.05-.02.11-.02.22,0,.33.01.05.03.1.06.15s.06.09.09.13c.01.01.02.02.04.04.03.02.06.05.09.07.01,0,.03.02.04.02.03.02.07.03.11.04s.08.01.11.02c.02,0,.03,0,.05,0,.03,0,.05,0,.08,0s.06,0,.08-.01c.02,0,.03-.01.05-.02.04-.01.07-.03.1-.05.05-.03.09-.06.13-.1s.08-.08.11-.13c0-.01.02-.03.02-.04.02-.03.03-.07.04-.1,0-.03.01-.06.02-.09,0-.03,0-.06,0-.09,0-.04,0-.08-.01-.12,0-.02,0-.04-.02-.06-.01-.04-.03-.08-.05-.11-.02-.02-.03-.05-.05-.07,0,0-.01-.02-.02-.02,0,0-.01-.01-.02-.02-.02-.02-.05-.04-.07-.05-.03-.02-.07-.03-.11-.05-.04-.01-.08-.02-.12-.02-.02,0-.04,0-.06,0-.04,0-.08,0-.12.02-.03,0-.05.02-.08.03,0,0-.02,0-.02.01-.03.02-.06.04-.09.07-.02.02-.04.05-.05.08-.02.03-.02.06-.02.1,0,.03,0,.07.02.1.01.03.03.06.05.08.05.04.11.08.18.07s.13-.02.18-.07c0,0,.02-.02.03-.03l-.05.04s.03-.02.04-.02l-.06.03s.04-.01.06-.02h-.07s.04,0,.07,0h-.07s.04,0,.06,0l-.06-.03s.03.02.05.03l-.05-.04s.03.03.05.05l-.04-.05s.03.04.04.07l-.03-.06s.02.05.02.08v-.07s0,.06,0,.1v-.07s0,.06-.01.08l.03-.06s-.03.06-.05.08l.04-.05s-.05.05-.07.07l.05-.04s-.06.04-.1.06l.06-.03s-.07.03-.11.03h.07s-.07,0-.1,0h.07s-.06,0-.09-.02l.06.03s-.05-.03-.07-.04l.05.04s-.04-.04-.06-.06l.04.05s-.04-.06-.05-.09l.03.06s-.03-.07-.03-.11v.07s0-.08,0-.12v.07s0-.07.02-.1l-.03.06s.03-.05.04-.07l-.04.05s.02-.02.03-.03c.05-.05.07-.11.07-.18,0-.03,0-.07-.02-.1-.01-.03-.03-.06-.05-.08-.05-.04-.11-.08-.18-.07s-.13.02-.18.07h0Z"/>
        </g>
        <path class="st0" d="M30.6,15.32s0,0,0,0l-.06.03s.05-.02.08-.02h-.07s.06,0,.09,0h-.07s.07,0,.1.02l-.06-.03s.07.03.1.06l-.05-.04s.06.05.08.08l-.04-.05s.04.06.05.09l-.03-.06s.02.06.02.09v-.07s0,.05,0,.08v-.07s0,.02,0,.03c-.01.03-.01.07,0,.1,0,.03.01.06.03.09.02.03.04.05.06.07.02.02.05.04.09.04h.07s.09,0,.13-.03c.05-.03.1-.09.11-.15,0-.03.01-.07.02-.1,0-.01,0-.03,0-.04,0-.03,0-.07-.01-.1,0-.01,0-.03,0-.04s0-.03-.01-.04c-.01-.03-.03-.06-.04-.09-.02-.04-.05-.08-.08-.12-.02-.02-.04-.04-.06-.06-.04-.03-.07-.06-.12-.09-.01,0-.02-.01-.04-.02-.03-.01-.06-.03-.09-.04-.05-.02-.09-.02-.14-.03-.05,0-.1,0-.15,0s-.1.03-.15.05c-.03.02-.05.04-.07.06-.02.02-.04.05-.04.09-.01.03-.01.07,0,.1,0,.03.01.06.03.09.03.05.09.1.15.11h.07s.09,0,.13-.03h0Z"/>
        <g>
          <path class="st1" d="M31.17,16.16c-.19-.08-.4.17-.33.36s.31.28.51.24c.17-.04.34-.17.37-.34s-.11-.37-.28-.37"/>
          <path class="st2" d="M31.24,15.92c-.05-.02-.11-.03-.17-.02-.08,0-.14.02-.21.07-.03.02-.06.04-.09.07-.01.01-.03.03-.04.04-.02.03-.05.06-.07.09-.02.03-.04.07-.05.11-.02.05-.03.11-.03.17,0,.04,0,.08.01.11,0,.02,0,.04.02.06.01.04.03.07.05.1s.04.06.07.09c.04.04.09.08.14.11.1.06.22.09.34.1.04,0,.08,0,.12,0,.06,0,.12-.02.18-.04.12-.04.23-.11.31-.2.04-.05.08-.1.1-.15.02-.03.03-.07.04-.11.01-.04.02-.08.02-.13,0-.03,0-.06,0-.1s0-.06-.02-.1c-.03-.08-.07-.15-.12-.22-.09-.11-.24-.18-.39-.18-.06,0-.13.03-.18.07-.04.04-.08.11-.07.18s.02.13.07.18.11.07.18.07c.01,0,.02,0,.03,0h-.07s.04,0,.07,0l-.06-.03s.04.02.06.03l-.05-.04s.04.04.06.06l-.04-.05s.03.05.05.08l-.03-.06s.02.06.02.08v-.07s0,.05,0,.08v-.07s0,.06-.02.09l.03-.06s-.03.06-.05.08l.04-.05s-.05.06-.08.08l.05-.04s-.07.05-.11.07l.06-.03s-.09.03-.13.04h.07s-.09,0-.13,0h.07s-.09,0-.13-.03l.06.03s-.07-.03-.1-.06l.05.04s-.04-.04-.06-.06l.04.05s-.03-.05-.04-.07l.03.06s-.02-.04-.02-.06v.07s0-.05,0-.07v.07s0-.05.01-.08l-.03.06s.03-.05.04-.07l-.04.05s.04-.04.06-.06l-.05.04s.04-.03.06-.04l-.06.03s.04-.01.05-.01h-.07s.03,0,.05,0h-.07s.03,0,.05,0c.03.01.07.01.1,0,.03,0,.06-.01.09-.03.05-.03.1-.09.11-.15.01-.06.01-.14-.03-.19l-.04-.05s-.07-.05-.11-.06h0Z"/>
        </g>
      </g>
    </g>
  </g>
  <g>
    <g>
      <path class="st0" d="M24.47,27.18l.48.97c.03.05.09.1.15.11.06.02.14,0,.19-.03s.1-.09.11-.15c.02-.07,0-.13-.03-.19l-.48-.97c-.03-.05-.09-.1-.15-.11-.06-.02-.14,0-.19.03s-.1.09-.11.15c-.02.07,0,.13.03.19h0Z"/>
      <path class="st0" d="M28.01,26.93l-.48.9c-.03.06-.04.13-.03.19.02.06.06.12.11.15.06.03.13.05.19.03.06-.02.12-.06.15-.11l.48-.9c.03-.06.04-.13.03-.19-.02-.06-.06-.12-.11-.15-.06-.03-.13-.05-.19-.03-.06.02-.12.06-.15.11h0Z"/>
      <g>
        <g>
          <path class="st1" d="M25.06,28.1l-4.75-1.47c-.2.91-.16,2.31,1.7,2.97.87.31,3.18.19,3.09-1.43"/>
          <path class="st0" d="M25.13,27.86c-1.58-.49-3.17-.98-4.75-1.47-.12-.04-.28.05-.31.17-.11.49-.13,1.01,0,1.5.17.62.6,1.12,1.14,1.45.5.31,1.05.47,1.64.48.54.01,1.1-.07,1.59-.32.58-.29.94-.84.91-1.5-.01-.32-.51-.32-.5,0,0,.07,0,.13,0,.2,0,.01-.01.09,0,.04,0,.03-.01.06-.02.09-.01.06-.03.11-.05.16-.01.03,0,0,0,0,0,.01-.01.03-.02.04-.01.03-.03.06-.05.09-.01.02-.03.04-.04.06,0,.01-.02.02-.03.04,0,0,.02-.03,0,0-.04.04-.08.09-.12.13-.02.02-.04.03-.06.05-.01,0-.02.02-.03.03,0,0,.03-.02,0,0-.05.03-.1.07-.15.1s-.1.05-.15.08c-.01,0-.07.03-.05.02.01,0-.05.02-.07.03-.12.04-.23.08-.35.1-.05.01-.11.02-.17.03-.03,0-.06,0-.08.01-.04,0,.04,0,0,0-.02,0-.04,0-.06,0-.12.01-.24.02-.36.02s-.23,0-.34-.01c-.05,0-.11,0-.16-.02-.03,0,.01,0,.02,0-.01,0-.03,0-.04,0-.03,0-.05,0-.08-.01-.25-.04-.48-.13-.7-.24-.28-.14-.52-.3-.73-.53-.09-.1-.15-.17-.22-.3-.07-.12-.11-.2-.14-.3-.04-.13-.08-.25-.1-.39,0-.01,0-.02,0-.03,0-.03,0,.04,0-.01,0-.03,0-.06,0-.09,0-.06,0-.13,0-.19,0-.12,0-.24.02-.37,0-.01,0-.03,0-.04,0-.04,0,.06,0,0,0-.03,0-.05.01-.08,0-.06.02-.12.03-.17l-.31.17c1.58.49,3.17.98,4.75,1.47.31.1.44-.39.13-.48h0Z"/>
        </g>
        <g>
          <path class="st1" d="M27.79,28.1l4.75-1.47c.2.91.16,2.31-1.7,2.97-.87.31-3.18.19-3.09-1.43"/>
          <path class="st0" d="M27.86,28.34c1.58-.49,3.17-.98,4.75-1.47l-.31-.17s.02.1.03.14c0,.02,0,.05.01.07,0,.02.01.09,0,.04.01.11.02.22.02.33s0,.22-.01.33c0,.02-.01.08,0,.04,0,.03,0,.05-.01.08-.01.06-.02.12-.04.18s-.03.11-.05.17c0,.03-.02.05-.03.08s0,0,0,0c0,.02-.02.04-.03.06-.06.12-.12.23-.2.34-.14.19-.38.39-.61.53-.24.15-.51.27-.78.34-.05.01-.09.02-.14.03-.02,0-.05,0-.07.01-.02,0-.09.01-.03,0-.11.01-.22.02-.34.03s-.23,0-.35,0c-.06,0-.12,0-.18-.01-.01,0-.08,0-.06,0,.01,0-.05,0-.07-.01-.12-.02-.24-.05-.36-.08-.05-.02-.11-.03-.16-.05-.03,0-.05-.02-.08-.03-.04-.01.03.01,0,0-.02,0-.04-.02-.05-.02-.05-.03-.11-.05-.16-.08-.03-.02-.06-.04-.09-.05-.01,0-.09-.06-.05-.03-.05-.04-.09-.07-.13-.12-.02-.02-.04-.05-.07-.07-.04-.04,0,.01-.03-.04-.03-.05-.07-.1-.1-.16,0-.01-.01-.03-.02-.04.01.03,0,0,0-.01,0-.03-.02-.06-.03-.09,0-.03-.02-.07-.02-.1,0-.01,0-.02,0-.04,0-.03,0,.03,0-.02,0-.08,0-.16,0-.24.01-.32-.49-.32-.5,0-.02.58.25,1.09.74,1.41.46.29,1.03.4,1.56.41s1.07-.09,1.57-.34c.6-.29,1.1-.76,1.34-1.39.21-.54.19-1.14.07-1.69-.03-.13-.18-.21-.31-.17-1.58.49-3.17.98-4.75,1.47-.31.09-.18.58.13.48h0Z"/>
        </g>
      </g>
    </g>
    <path class="st0" d="M25.37,24.94c.11.29.19.6.25.9.01.07.03.15.04.22,0,.02,0,.05,0,.07v-.03s0,.02,0,.03c0,.04,0,.08.01.12.02.16.03.31.03.47,0,.13.11.26.25.25s.25-.11.25-.25c-.01-.65-.13-1.31-.36-1.92-.02-.06-.06-.11-.11-.15-.05-.03-.13-.04-.19-.03-.12.04-.22.18-.17.31h0Z"/>
    <path class="st0" d="M27.08,25.59c0,.09-.01.17-.03.26v-.07c-.04.35-.13.69-.26,1.01l.03-.06s-.04.09-.06.14c-.03.06-.04.12-.03.19.02.06.06.12.11.15.06.03.13.05.19.03.06-.02.12-.06.15-.11.23-.48.36-1,.4-1.53,0-.06-.03-.13-.07-.18s-.11-.08-.18-.07c-.14,0-.24.11-.25.25h0Z"/>
  </g>
</svg>