<?xml version="1.0" encoding="UTF-8"?>
<svg id="_얼굴없는" data-name="얼굴없는" xmlns="http://www.w3.org/2000/svg" version="1.1" xmlns:xlink="http://www.w3.org/1999/xlink" viewBox="0 0 50.83 48.47">
  <!-- Generator: Adobe Illustrator 29.8.2, SVG Export Plug-In . SVG Version: 2.1.1 Build 3)  -->
  <defs>
    <style>
      .st0 {
        fill: #231f20;
      }

      .st1 {
        fill: #fff;
      }

      .st2 {
        fill: none;
      }

      .st3 {
        clip-path: url(#clippath-1);
      }

      .st4 {
        fill: #f39b4a;
      }

      .st5 {
        clip-path: url(#clippath);
      }
    </style>
    <clipPath id="clippath">
      <path class="st2" d="M19.25,39.27c-1.42-.63-2.54-1.93-2.91-3.44s.02-3.2,1.05-4.36c1.43-1.61,3.75-2.03,5.89-2.25.75-.07,1.54-.13,2.24.15.57.23,1.03.67,1.48,1.09.8.76,1.61,1.54,2.14,2.51.77,1.42.85,3.2.2,4.68-.18.4-.41.79-.75,1.07-.29.23-.64.38-1,.49-1.2.37-2.48.41-3.73.45-1.55.05-3.13.26-4.6-.39Z"/>
    </clipPath>
    <clipPath id="clippath-1">
      <path class="st2" d="M11.17,12.39c-.03,1.75.3,3.5.96,5.12.19.46.23.76-.03,1.18-.49.79-.78,1.7-.83,2.63-.05.81.03,1.44-.33,2.17s-.62,1.56-.95,2.32c-.16.37-.79,1.54.25,1.23.49-.14.85-.53,1.37-.59-.14,1.08-.42,2.3-.05,3.36.05.16.13.33.29.4.17.08.38,0,.5-.14s.19-.32.25-.5c.16.49.38.97.74,1.34.63.65,1.29.25,1.94.62.22.13.34.39.55.54.35.26.84.39,1.26.48.89.21,1.83.29,2.66.69,1.34.65,2.53,1.13,4.05,1.15.53,0,1.07-.03,1.58-.2.63-.21,1.18-.61,1.73-.99,1.16-.79,2.54-1.69,3.9-2.07.1.22.27.47.55.49.29.02.56-.16.78-.35.4-.34.75-.75,1.02-1.2.03-.05.07-.11.13-.12.06-.02.12.02.18.04.34.15.75-.06.95-.37.29-.45.4-.98.44-1.51s-.19-1.09,0-1.56c.27.2.6.33.93.38.22.03.45.02.66-.07s.37-.29.38-.51c.02-.35-.27-.5-.42-.76-.2-.33-.38-.74-.49-1.11-.48-1.6-.41-3.35-1.22-4.85-.43-.81-1.13-1.62-.95-2.52.14-.66.63-1.07.83-1.69.21-.67.18-1.39.13-2.08-.07-.86-.17-1.72-.31-2.57-.1-.63-.23-1.27-.55-1.83-.16-.27-.42-.55-.73-.5-.35.05-.54.45-.75.69-.28.31-.61.56-.93.83-.73.61-1.46,1.22-2.19,1.83-.67.56-1.29,1.19-2.2.95-1.35-.37-2.93-.7-4.33-.66s-2.72.38-4.06.65c-.43.09-.86.36-1.29.13-.15-.08-.27-.2-.39-.31-.7-.64-1.44-1.14-2.13-1.78s-1.49-1.16-2.24-1.73c-.68-.51-1.21.2-1.35.83-.18.83-.28,1.68-.29,2.54Z"/>
    </clipPath>
  </defs>
  <g>
    <g>
      <path class="st4" d="M31.14,33.13c.18-.65.27-1.34.65-1.89s1.21-.87,1.73-.45c.8-.29,1.65-.43,2.49-.42,1.11,0,.79,1.33.81,2.09.01.68.02,1.39-.2,2.03-.26.76-.74.88-1.27,1.34-.47.42-.79,1.14-1.21,1.63-.43.5-.89.98-1.46,1.3-1.04.57-3.75.68-4.16-.81-.26-.92.58-1.59,1.13-2.18.7-.76,1.22-1.66,1.5-2.65Z"/>
      <g>
        <path class="st0" d="M29.12,36.98c.92-.49,1.44-1.46,1.75-2.42s.46-2.13,1.12-2.99c.3-.39.69-.69,1.16-.8.2-.05.31-.27.26-.46-.06-.2-.26-.31-.46-.26-1.02.24-1.72,1.12-2.11,2.05-.43,1.02-.53,2.16-1.05,3.13-.25.46-.58.87-1.05,1.11-.18.09-.23.34-.13.51.11.18.33.23.51.13h0Z"/>
        <path class="st0" d="M33.4,31.82c.1-.13.22-.25.34-.36.03-.03.06-.06.09-.08.02-.01.03-.03.05-.04-.03.03-.04.03,0,0,.06-.04.12-.08.18-.12.07-.04.14-.09.22-.12.04-.02.08-.04.12-.06.02,0,.04-.02.06-.03-.04.02-.04.02,0,0,.15-.06.31-.11.47-.15.08-.02.16-.04.23-.05.04,0,.08-.01.13-.02.02,0,.04,0,.06,0-.05,0-.05,0,0,0,.17-.02.33-.03.5-.04.34-.02.68-.01,1.03,0,.2,0,.38-.17.38-.38s-.16-.37-.38-.38c-1.12-.02-2.34,0-3.3.66-.27.18-.51.4-.71.66-.06.08-.11.16-.11.27,0,.09.04.2.11.27.14.12.4.16.53,0h0Z"/>
        <path class="st0" d="M28.37,38.66c.96.92,2.42,1.23,3.69.85.35-.11.69-.27.99-.48.16-.11.25-.33.13-.51-.1-.16-.34-.26-.51-.13-.12.08-.24.16-.37.22-.06.03-.12.06-.19.09-.04.02.02,0,.02,0-.02,0-.04.01-.06.02-.04.01-.07.03-.11.04-.14.05-.27.08-.41.11-.03,0-.07.01-.1.02-.02,0-.04,0-.06,0,0,0-.06,0,0,0s0,0,0,0c-.02,0-.04,0-.06,0-.04,0-.08,0-.12.01-.14,0-.29.01-.43,0-.07,0-.14,0-.21-.02-.01,0-.03,0-.04,0,.08,0,.03,0,.01,0-.04,0-.08-.01-.12-.02-.14-.03-.28-.06-.42-.1-.07-.02-.13-.04-.2-.07-.03-.01-.1-.04-.03-.01-.04-.02-.07-.03-.11-.05-.14-.07-.28-.15-.41-.23-.04-.02-.07-.05-.11-.08-.01,0-.02-.02-.04-.03.04.03.02.02,0,0-.07-.05-.13-.11-.19-.17-.14-.14-.39-.15-.53,0s-.15.39,0,.53h0Z"/>
        <path class="st0" d="M33.18,38.07c.12.08.25.16.38.23.16.09.32.16.49.23.05.02.1.02.15,0,.05,0,.1-.02.14-.04.04-.02.08-.06.11-.1.03-.04.06-.08.07-.13v-.1c.01-.07,0-.13-.04-.19l-.06-.08s-.1-.08-.17-.1h0s.06.02.09.03c-.27-.11-.53-.26-.77-.42-.04-.03-.09-.04-.14-.04-.05-.01-.1,0-.15,0-.05.01-.09.03-.13.07-.04.03-.07.06-.1.11-.05.09-.07.19-.04.29l.04.09c.03.06.08.1.13.13h0Z"/>
        <path class="st0" d="M34.39,37.26s.02,0,.03,0h-.1c.07,0,.14,0,.21.01h-.1c.07,0,.15.02.22.05l-.09-.04s.09.04.14.07c.04.03.09.04.14.04.05.01.1,0,.15,0,.05-.01.09-.03.13-.07.04-.03.07-.06.1-.11l.04-.09c.02-.07.02-.13,0-.2l-.04-.09c-.03-.06-.08-.1-.13-.13-.07-.05-.15-.08-.23-.11-.05-.02-.1-.04-.15-.05-.08-.02-.17-.03-.25-.03s-.17.01-.25.02c-.05.01-.09.03-.13.07-.04.03-.07.06-.1.11-.03.04-.04.09-.04.14-.01.05,0,.1,0,.15l.04.09c.03.06.08.1.13.13l.09.04c.07.02.13.02.2,0h0Z"/>
        <path class="st0" d="M35.48,36.17c.48-.23.88-.61,1.15-1.06.31-.54.38-1.14.4-1.75.02-.37.03-.73.04-1.1,0-.2-.18-.38-.38-.38-.21,0-.37.16-.38.38-.01.3-.02.6-.04.9,0,.14-.01.29-.02.43,0,.07,0,.15-.02.22,0,.03,0,.07-.01.1,0,.02,0,.03,0,.05,0-.04,0-.03,0,0-.02.13-.05.27-.09.4-.01.04-.06.12-.06.16,0,0,.03-.07.01-.03,0,.01-.01.02-.02.04-.01.03-.03.06-.04.08-.05.1-.11.2-.18.29,0,.01-.02.02-.02.03-.03.04.04-.05,0-.01-.02.02-.03.04-.05.06-.04.04-.08.09-.12.13-.04.04-.09.09-.14.13-.01.01-.08.07-.05.04s-.03.03-.05.03c-.11.08-.23.14-.35.2-.18.08-.24.35-.13.51.12.18.32.22.51.13h0Z"/>
        <path class="st0" d="M36.34,31.87c.14-.11.3-.2.46-.27l-.09.04c.17-.07.35-.12.53-.14h-.1s.04,0,.05,0c.05,0,.1,0,.14-.03.05-.02.09-.04.12-.08.04-.03.06-.07.08-.12.02-.04.03-.09.03-.14,0-.1-.04-.2-.11-.27l-.08-.06c-.06-.03-.12-.05-.19-.05-.18.02-.36.05-.53.11s-.34.13-.49.22c-.07.04-.15.09-.21.14-.04.02-.08.06-.11.1-.03.04-.06.08-.07.13-.02.05-.02.1,0,.15,0,.05.02.1.04.14.05.08.13.15.22.17h.1c.07.01.13,0,.19-.04h0Z"/>
      </g>
    </g>
    <g>
      <g class="st5">
        <path class="st1" d="M19.25,39.27c-1.42-.63-2.54-1.93-2.91-3.44s.02-3.2,1.05-4.36c1.43-1.61,3.75-2.03,5.89-2.25.75-.07,1.54-.13,2.24.15.57.23,1.03.67,1.48,1.09.8.76,1.61,1.54,2.14,2.51.77,1.42.85,3.2.2,4.68-.18.4-.41.79-.75,1.07-.29.23-.64.38-1,.49-1.2.37-2.48.41-3.73.45-1.55.05-3.13.26-4.6-.39Z"/>
        <path class="st4" d="M18.57,34.77c-.47.7-2.37,2.18-3.22,1.5-.73-.59-.59-2.14-.64-2.98-.03-.47-.01-1.01.36-1.3.34-.26.82-.2,1.24-.11.38.07.76.15,1.14.22.46.09.97.21,1.25.59.22.3.25.71.21,1.08-.04.36-.13.72-.33,1.01Z"/>
        <path class="st4" d="M27.73,36c.18.13.4.18.62.23.34.07.7.15,1.05.08.5-.1,1.3-.89,1.2-1.46-.07-.37-.42-.35-.59-.61-.21-.31-.17-.66-.26-1-.08-.31-.19-.64-.41-.87-.19-.2-.45-.31-.7-.42-.7-.3-1.35-.26-1.83.4-.35.48-.38,1.14-.22,1.71s.49,1.08.83,1.58c.09.13.19.27.33.38Z"/>
      </g>
      <g>
        <g>
          <path class="st0" d="M18.75,36.76c.02.62.08,1.25.21,1.85.11.53.37,1.07.88,1.32.27.13.55.18.84.19.27,0,.57-.02.83-.08.31-.07.58-.26.73-.54.13-.24.19-.51.23-.78.11-.7.14-1.41.06-2.12-.01-.1-.03-.19-.11-.27-.07-.07-.17-.11-.27-.11-.18,0-.4.17-.38.38.06.56.06,1.12,0,1.68,0,.04,0,.07-.01.11,0,.02,0,.03,0,.05,0,.06,0-.07,0,0-.01.07-.02.14-.03.21-.02.11-.04.23-.07.34,0,.03-.02.05-.03.08,0,.01,0,.02-.01.03-.01.04.02-.04.02-.04-.02.02-.02.05-.03.07-.01.03-.03.05-.05.08,0,0-.01.02-.02.03,0,0,.05-.06.02-.03-.02.02-.04.04-.06.06,0,0-.04.03,0,0,.05-.03,0,0-.01,0-.02.01-.07.03-.08.04.02-.03.06-.02.02,0-.01,0-.02,0-.04.01-.03,0-.06.02-.09.02-.03,0-.05.01-.08.02-.02,0-.03,0-.05,0-.05,0,0,0,.02,0-.05.02-.12.01-.17.02-.06,0-.11,0-.17.01-.11,0-.23,0-.34,0-.01,0-.02,0-.04,0-.04,0,.04,0,.04,0-.03,0-.06,0-.08-.01-.06-.01-.12-.03-.17-.05-.02,0-.04-.02-.07-.02,0,0,.08.04.02,0-.01,0-.02-.01-.03-.02-.05-.03-.1-.06-.14-.09-.04-.03.05.05.02.01,0,0-.02-.02-.03-.02-.02-.02-.04-.04-.06-.06-.02-.02-.03-.03-.05-.05,0-.01-.04-.05,0,0s0,0,0,0c-.03-.04-.05-.08-.08-.13-.01-.02-.03-.05-.04-.07,0-.01,0-.02-.01-.03.05.08.02.04,0,.01-.04-.1-.07-.21-.1-.32-.03-.13-.05-.25-.07-.38-.01-.08-.02-.15-.03-.23,0-.01-.01-.08,0-.03s0-.02,0-.03c0-.04-.01-.08-.01-.12-.04-.32-.06-.64-.07-.97,0-.2-.17-.38-.38-.38s-.38.16-.38.38h0Z"/>
          <path class="st0" d="M26.48,36.76c0,.29-.03.57-.06.86,0,.07-.01.13-.02.2,0,.02,0,.03,0,.05,0,.07,0,0,0,0,0,.04-.01.08-.02.12-.02.12-.04.24-.06.37-.02.11-.05.22-.08.33-.02.05-.03.1-.05.15,0,0-.02.04-.02.04,0,0,.03-.07.01-.04-.01.03-.03.06-.04.08-.02.04-.05.09-.08.13,0,.01-.02.03-.03.04,0,0,.05-.06.02-.03-.02.02-.04.05-.06.07-.02.02-.03.03-.05.05-.01.01-.02.02-.04.03-.03.03.03-.02.03-.02-.05.02-.09.06-.14.09-.01,0-.1.05-.04.02.05-.02-.03,0-.04.01-.05.02-.11.03-.16.04-.03,0-.06,0-.08.01-.04,0,.04,0,.04,0,0,0-.05,0-.05,0-.06,0-.11,0-.17,0-.12,0-.23,0-.35-.01-.05,0-.11-.01-.16-.02-.04,0,.04,0,.04,0-.02,0-.04,0-.05,0-.03,0-.07-.01-.1-.02-.03,0-.05-.01-.08-.02-.02,0-.03-.01-.05-.02,0,0-.05-.02,0,0s0,0,0,0c-.01,0-.03-.02-.04-.03-.01,0-.02-.01-.03-.02-.04-.02.05.05.02.02-.02-.02-.04-.04-.06-.06,0,0-.03-.04,0,0,.03.05,0,0,0,0-.03-.04-.05-.09-.08-.14-.02-.04.02.04.02.04,0-.01-.01-.03-.02-.04,0-.02-.01-.04-.02-.07-.02-.06-.03-.11-.04-.17-.03-.13-.05-.26-.07-.39,0-.04,0,.02,0,.02,0-.02,0-.04,0-.06,0-.04,0-.08-.01-.12,0-.08-.02-.16-.02-.24-.01-.16-.02-.31-.02-.47,0-.32.01-.64.05-.95.02-.2-.19-.38-.38-.38-.22,0-.35.17-.38.38-.07.61-.06,1.22.02,1.83s.17,1.28.79,1.54c.27.11.57.14.85.15.27.01.55,0,.81-.09.27-.09.52-.24.7-.47s.3-.49.37-.76c.09-.32.13-.66.17-.99.04-.35.07-.69.08-1.04,0-.2-.18-.38-.38-.38-.21,0-.37.16-.38.38h0Z"/>
          <path class="st0" d="M20.04,38.75c0,.07,0,.14.02.22,0,.05.02.1.03.15.02.07.05.14.08.2.02.05.05.09.08.14.02.03.04.05.06.07.02.02.05.04.09.04.03.01.07.01.1,0,.03,0,.06-.01.09-.03.05-.03.1-.09.11-.15s.01-.14-.03-.19-.07-.11-.09-.17l.03.06c-.04-.08-.06-.17-.07-.26v.07s0-.1,0-.15c0-.03,0-.07-.02-.1-.01-.03-.03-.06-.05-.08-.02-.02-.05-.04-.08-.05-.03-.02-.06-.02-.1-.02-.06,0-.13.02-.18.07s-.07.11-.07.18h0Z"/>
          <path class="st0" d="M20.87,38.98l.09.5s.02.06.04.09c.02.03.04.05.07.06.03.02.06.03.09.03.03,0,.07,0,.1,0l.06-.03s.07-.05.09-.09l.03-.06s.01-.09,0-.13l-.09-.5s-.02-.06-.04-.09c-.02-.03-.04-.05-.07-.06-.03-.02-.06-.03-.09-.03-.03,0-.07,0-.1,0l-.06.03s-.07.05-.09.09l-.03.06s-.01.09,0,.13h0Z"/>
          <path class="st0" d="M24.62,38.69c-.02.07-.03.14-.03.21,0,.05,0,.1,0,.16,0,.07.02.14.04.21s.05.14.08.2c.02.03.04.05.06.07.02.02.05.04.09.04.03.01.07.01.1,0,.03,0,.06-.01.09-.03.05-.03.1-.09.11-.15v-.07s0-.09-.03-.13c0-.01-.01-.02-.02-.04l.03.06c-.03-.07-.05-.14-.06-.22v.07c0-.08,0-.15,0-.23v.07s0-.07.01-.1c.01-.03.01-.07,0-.1,0-.03-.01-.06-.03-.09-.02-.03-.04-.05-.06-.07-.02-.02-.05-.04-.09-.04-.06-.01-.14-.01-.19.03s-.1.09-.11.15h0Z"/>
          <path class="st0" d="M25.43,38.9s.01.06.02.08v-.07c0,.08,0,.16,0,.23v-.07c0,.08-.02.15-.05.22l.03-.06s-.01.03-.02.04c-.02.03-.03.06-.03.09,0,.03,0,.07,0,.1,0,.03.02.06.04.09.02.03.04.05.07.06.06.03.13.05.19.03.06-.02.12-.06.15-.11.03-.06.06-.13.08-.2s.03-.14.04-.21c0-.05,0-.1,0-.15,0-.07-.01-.14-.03-.21,0-.03-.02-.06-.04-.09-.02-.03-.04-.05-.07-.06-.03-.02-.06-.03-.09-.03-.03,0-.07,0-.1,0-.06.02-.12.06-.15.11l-.03.06s-.01.09,0,.13h0Z"/>
        </g>
        <path class="st0" d="M15.93,33.35c-.22,1.82-.09,3.83,1.26,5.22.32.33.7.61,1.13.79.19.08.4.06.51-.13.09-.16.05-.43-.13-.51-.68-.29-1.17-.78-1.52-1.42-.39-.7-.56-1.53-.58-2.36-.01-.53.03-1.06.09-1.59.02-.2-.19-.38-.38-.38-.22,0-.35.17-.38.38h0Z"/>
        <path class="st0" d="M27.82,39.3c.95-.15,1.7-.82,2.06-1.69.17-.42.27-.86.33-1.31.07-.48.11-.96.08-1.44-.04-.56-.17-1.1-.43-1.59-.1-.18-.34-.23-.51-.13-.18.11-.23.33-.13.51.38.71.39,1.55.29,2.35-.09.73-.27,1.56-.81,2.08-.29.28-.65.44-1.07.5-.2.03-.31.28-.26.46.06.21.26.29.46.26h0Z"/>
      </g>
    </g>
  </g>
  <g>
    <g class="st3">
      <path class="st4" d="M11.17,12.39c-.03,1.75.3,3.5.96,5.12.19.46.23.76-.03,1.18-.49.79-.78,1.7-.83,2.63-.05.81.03,1.44-.33,2.17s-.62,1.56-.95,2.32c-.16.37-.79,1.54.25,1.23.49-.14.85-.53,1.37-.59-.14,1.08-.42,2.3-.05,3.36.05.16.13.33.29.4.17.08.38,0,.5-.14s.19-.32.25-.5c.16.49.38.97.74,1.34.63.65,1.29.25,1.94.62.22.13.34.39.55.54.35.26.84.39,1.26.48.89.21,1.83.29,2.66.69,1.34.65,2.53,1.13,4.05,1.15.53,0,1.07-.03,1.58-.2.63-.21,1.18-.61,1.73-.99,1.16-.79,2.54-1.69,3.9-2.07.1.22.27.47.55.49.29.02.56-.16.78-.35.4-.34.75-.75,1.02-1.2.03-.05.07-.11.13-.12.06-.02.12.02.18.04.34.15.75-.06.95-.37.29-.45.4-.98.44-1.51s-.19-1.09,0-1.56c.27.2.6.33.93.38.22.03.45.02.66-.07s.37-.29.38-.51c.02-.35-.27-.5-.42-.76-.2-.33-.38-.74-.49-1.11-.48-1.6-.41-3.35-1.22-4.85-.43-.81-1.13-1.62-.95-2.52.14-.66.63-1.07.83-1.69.21-.67.18-1.39.13-2.08-.07-.86-.17-1.72-.31-2.57-.1-.63-.23-1.27-.55-1.83-.16-.27-.42-.55-.73-.5-.35.05-.54.45-.75.69-.28.31-.61.56-.93.83-.73.61-1.46,1.22-2.19,1.83-.67.56-1.29,1.19-2.2.95-1.35-.37-2.93-.7-4.33-.66s-2.72.38-4.06.65c-.43.09-.86.36-1.29.13-.15-.08-.27-.2-.39-.31-.7-.64-1.44-1.14-2.13-1.78s-1.49-1.16-2.24-1.73c-.68-.51-1.21.2-1.35.83-.18.83-.28,1.68-.29,2.54Z"/>
      <path class="st1" d="M31.29,32.47c.09.02.2.03.29,0,.22-.05.4-.21.56-.37.66-.65,1.18-1.44,1.52-2.3,0,.4.57.59.91.39s.49-.63.55-1.02c.22-1.32-.05-2.24-1.1-3.04-.85-.65-1.91-1.09-2.97-1.24-1.56-.21-3.81-.12-5.01-1.33-.72-.73-1.06-2.04-1.37-3-.26-.8-.95-1.94-1.96-1.61-1.55.51-1.54,2.89-2.44,4.03-1.39,1.76-4.43,1.86-6.47,2.3-.71.15-1.44.35-1.96.86-.74.72-1.9,2.41-1.34,3.51.23.44.97.57,1.18.12,0,.62.06,1.25.16,1.86.04.23.1.49.29.62.23.16.56.08.77-.11s.32-.46.42-.72c.39,1.17,1.64,1.81,2.83,2.11.96.24,2.01.32,2.92.72.96.43,1.8.8,2.87,1.03,1.43.31,2.64-.73,3.85-1.28,1.64-.74,3.51-1.08,5.19-1.76.05.12.16.19.29.23Z"/>
      <path class="st1" d="M32.93,11.16c-.05-.05-.12-.07-.2-.05-.14.03-.25.14-.34.25-.49.56-2.46,2.11-2.01,3,.12.24.35.4.54.58,2.11,1.96,2.44-1.13,2.28-2.76-.02-.2-.04-.83-.27-1.02Z"/>
      <path class="st1" d="M15.46,13.41c-.39-.54-1.09-1.12-1.34-1.41-.23-.25-.72-.86-1.14-.75-.86.23-.29,2.71-.18,3.32.09.47.23.96.56,1.31.07.08.16.15.27.16.47.04,2.02-1.45,2.11-1.91.04-.21-.08-.46-.28-.72Z"/>
    </g>
    <g>
      <path class="st0" d="M17.03,13.74c3.54-1.45,7.54-1.57,11.17-.32.46.16.65-.57.2-.72-3.73-1.29-7.91-1.18-11.56.32-.19.08-.32.25-.26.46.05.18.27.34.46.26h0Z"/>
      <path class="st0" d="M12.39,17.54c-.7.95-1.09,2.08-1.36,3.22s-.42,2.22-.78,3.29c-.21.61-.49,1.18-.86,1.7-.12.16-.03.42.13.51.19.11.39.03.51-.13,1.37-1.91,1.33-4.33,2.09-6.48.22-.62.52-1.2.91-1.72.12-.16.03-.42-.13-.51-.19-.11-.39-.03-.51.13h0Z"/>
      <path class="st0" d="M33.5,17.92c.73.99,1.18,2.13,1.49,3.31.28,1.06.33,2.16.62,3.22.17.63.43,1.2.83,1.72.12.16.4.13.53,0,.16-.16.12-.37,0-.53-.64-.83-.78-1.95-.93-2.96-.17-1.14-.43-2.25-.87-3.31-.27-.65-.59-1.26-1.01-1.82-.12-.16-.32-.24-.51-.13-.16.09-.26.35-.13.51h0Z"/>
      <path class="st0" d="M12.32,9.19c1.22,1.04,2.43,2.09,3.68,3.1.33.27.67.54,1,.8.15.12.38.16.53,0,.12-.14.16-.4,0-.53-1.11-.89-2.21-1.78-3.29-2.71-.46-.4-.93-.79-1.39-1.19-.15-.13-.39-.16-.53,0-.13.14-.16.39,0,.53h0Z"/>
      <path class="st0" d="M32.93,8.46c-1.25,1.15-2.58,2.2-3.9,3.26-.34.27-.68.55-1.01.83-.16.13-.13.4,0,.53.15.15.37.13.53,0,1.24-1.05,2.54-2.03,3.78-3.09.38-.33.76-.66,1.14-1.01.15-.14.14-.39,0-.53-.15-.15-.38-.14-.53,0h0Z"/>
      <path class="st0" d="M11.21,9.59c-.54,2.12-.51,4.49.13,6.59.17.58.4,1.14.7,1.67.24.42.88.04.65-.38-1-1.79-1.22-4-1.03-6.01.05-.56.15-1.12.28-1.66.12-.47-.6-.67-.72-.2h0Z"/>
      <path class="st0" d="M33.84,9.01c.69,2.1.9,4.48.27,6.63-.17.58-.41,1.14-.73,1.65-.26.41.39.79.65.38,1.27-2.03,1.39-4.62,1.01-6.93-.11-.65-.26-1.3-.47-1.93-.15-.46-.87-.26-.72.2h0Z"/>
      <path class="st0" d="M14.54,15.7c.04-.07.09-.13.14-.2.01-.01.02-.03.03-.04-.02.03-.02.02,0-.01.02-.03.05-.06.07-.09.1-.12.2-.23.31-.34s.22-.21.34-.31c0,0,.09-.07.04-.03.03-.02.06-.04.09-.07.07-.05.14-.1.21-.15.22-.14.23-.39.08-.59-.82-1.05-1.7-2.05-2.63-2.99-.14-.14-.39-.15-.53,0s-.15.38,0,.53c.93.95,1.81,1.95,2.63,2.99l.08-.59c-.6.39-1.11.9-1.52,1.49-.11.16-.04.42.13.51.19.1.4.04.51-.13h0Z"/>
      <path class="st0" d="M32.54,10.81c-.57.45-1.12.93-1.62,1.46-.29.31-.57.64-.78,1.01-.18.31-.32.7-.21,1.06.09.28.32.5.54.69.26.22.54.42.77.68.13.15.4.14.53,0,.14-.16.14-.37,0-.53-.19-.22-.43-.39-.65-.58-.11-.09-.21-.18-.31-.28-.05-.05-.09-.1-.13-.15.05.05-.01-.03-.03-.05-.03-.05.03-.01.02.04,0,0-.01-.03-.01-.04,0-.01,0-.03,0-.04-.02-.06.03,0,0,.04,0-.02,0-.07,0-.09,0-.02,0-.03,0-.05,0-.06-.02.11,0,.02.02-.07.03-.13.06-.19.02-.05.03-.02-.01.02,0,0,.02-.04.02-.05.02-.04.04-.08.06-.12.04-.07.08-.14.13-.21.02-.04.05-.07.08-.11.01-.02.03-.04.04-.06,0-.01.02-.02.03-.04.02-.03.02-.02-.02.02.06-.05.11-.14.17-.2.07-.08.14-.16.21-.24.28-.3.58-.58.88-.85.25-.22.51-.43.77-.64.15-.12.14-.4,0-.53-.16-.15-.37-.13-.53,0h0Z"/>
      <path class="st0" d="M9.73,27.35c.66-.04,1.3-.26,1.83-.65.16-.12.31-.24.45-.38s.15-.39,0-.53-.38-.15-.53,0c-.1.1-.2.19-.31.27l.08-.06c-.22.17-.46.3-.71.41l.09-.04c-.25.11-.52.18-.79.22h.1c-.07,0-.14,0-.21,0-.1,0-.19.04-.27.11-.07.07-.11.17-.11.27s.04.2.11.27.17.12.27.11h0Z"/>
      <path class="st0" d="M11.25,27.15c-.28.71-.3,1.5-.15,2.25.03.18.08.35.13.53.06.2.13.4.27.57.15.18.4.27.63.22.27-.05.38-.28.47-.5.18-.43.36-.85.54-1.28l-.74-.1c-.07.67,0,1.37.34,1.96.29.52.79.95,1.38,1.07.19.04.41-.06.46-.26.04-.19-.06-.42-.26-.46-.06-.01-.12-.03-.18-.05-.02,0-.1-.04-.03,0-.02-.01-.05-.02-.07-.03-.05-.03-.1-.05-.15-.08-.03-.02-.05-.03-.08-.05-.08-.06.05.05-.02-.02-.09-.08-.17-.17-.26-.26-.03-.03.03.05,0-.01-.02-.03-.04-.05-.05-.08-.03-.05-.07-.11-.1-.16-.01-.03-.03-.06-.04-.08,0,0-.04-.09-.02-.05,0,.02,0,.01,0-.03,0-.02-.01-.04-.02-.05-.01-.03-.02-.06-.03-.09-.02-.07-.04-.15-.06-.22,0-.04-.02-.07-.02-.11,0-.01-.02-.12,0-.05-.04-.29-.03-.58,0-.87.02-.18-.16-.35-.33-.37-.2-.03-.34.09-.41.27-.17.4-.34.8-.5,1.2-.01.03-.02.05-.03.08.01-.03.01-.03,0,.01-.02.04-.02.04,0,0,.02-.02.04-.03.07-.04.03-.01.06-.01.09,0,.04.02.05.02.01,0,.04.03.04.03,0,0,.02.03.02.03,0,0-.01-.02-.02-.04-.03-.06.02.04.02.03,0,0-.01-.05-.03-.09-.05-.14-.03-.09-.05-.18-.08-.27-.1-.4-.14-.67-.13-1.08,0-.09,0-.19.02-.28,0-.01.02-.16,0-.08,0-.05.02-.1.03-.15.04-.19.09-.38.17-.57s-.08-.42-.26-.46c-.22-.05-.38.07-.46.26h0Z"/>
      <path class="st0" d="M14.44,30.25c-.14,1.04.61,1.9,1.45,2.4s1.78.69,2.72.84c.6.1,1.2.18,1.78.34.47.13.67-.6.2-.72-.94-.26-1.92-.33-2.86-.55-.76-.18-1.51-.46-2.05-1.02-.16-.16-.29-.34-.39-.54-.09-.17-.14-.39-.12-.56.03-.2-.05-.4-.26-.46-.18-.05-.43.06-.46.26h0Z"/>
      <path class="st0" d="M34.4,27.28s.02.09.02.14c0,.02,0,.04,0,.06,0-.03,0-.03,0,.02,0,.08.02.16.02.24.01.17.01.35,0,.52-.02.33-.07.63-.18.98-.02.08-.05.15-.08.23.03-.08,0,.01-.01.02-.02.03-.03.06-.05.09-.05.08.03-.02-.02.03-.02.02-.04.04-.06.06.06-.06,0,0-.02,0,.05-.02.05-.02.01,0,.05,0,.06,0,.03,0-.01,0-.03,0-.05,0,.05,0,.05,0,.01,0h.03s-.04,0-.05-.02c.07.04,0,0-.02-.02-.03-.03-.03-.03,0,0,0-.01-.02-.03-.02-.04,0-.01-.01-.03-.02-.04.01.03.01.02,0-.02,0-.04-.02-.08-.03-.11.01.06,0-.04,0-.06,0-.05,0-.11,0-.16,0-.2-.17-.38-.38-.38s-.36.16-.38.38c0,.03,0,.06,0,.1,0,.01-.01.1,0,.05s0,.05-.01.06c0,.03,0,.05-.02.08-.02.12-.06.23-.09.34-.01.03-.02.06-.03.09,0,0-.04.09-.02.04s-.02.04-.02.04c-.01.03-.03.06-.04.09-.05.11-.11.21-.18.31-.03.04-.06.09-.09.13.05-.06-.01.01-.02.03-.02.02-.04.05-.06.07-.08.09-.16.17-.25.25-.02.02-.04.04-.06.05-.02.02-.06.04-.01.01-.05.04-.1.07-.15.1-.1.07-.21.13-.32.18-.18.08-.24.35-.13.51.12.18.32.23.51.13,1.02-.49,1.7-1.55,1.78-2.68h-.75c.02.36.06.76.36,1.01.32.27.74.27,1.05,0,.24-.21.36-.55.45-.85.1-.35.16-.71.18-1.06.03-.41,0-.82-.08-1.22-.04-.19-.28-.32-.46-.26-.21.07-.3.25-.26.46h0Z"/>
      <path class="st0" d="M30.97,30.39s-.05.07-.07.11c-.01.01-.02.03-.03.04.03-.04,0,0,0,.01-.06.07-.12.14-.18.2-.06.06-.11.11-.17.16-.03.03-.07.06-.1.08-.02.02-.04.03-.06.05-.05.04.04-.03-.01,0-.29.21-.6.39-.91.55-.67.33-1.38.58-2.03.94-.39.21-.75.47-1.07.78-.14.14-.15.39,0,.53s.38.15.53,0c.06-.06.13-.13.2-.19.03-.03.07-.06.11-.09.03-.03,0,0,0,0,.03-.02.05-.04.08-.06.15-.11.31-.21.48-.3.33-.19.68-.35,1.03-.5.67-.29,1.36-.57,1.95-1.01.36-.27.68-.58.93-.95.11-.16.04-.42-.13-.51-.19-.1-.4-.04-.51.13h0Z"/>
      <path class="st0" d="M34.98,26.78c.2.2.45.35.72.44.14.05.28.07.42.08.11.01.22,0,.34,0,.09-.01.19-.02.28-.05s.18-.06.26-.1c.08-.03.15-.14.17-.22.02-.09.01-.21-.04-.29s-.13-.15-.22-.17h-.1c-.07-.01-.13,0-.19.04h-.01s.06-.02.09-.03c-.11.05-.22.07-.34.09h.1c-.12,0-.25,0-.37-.01h.1c-.13,0-.26-.04-.38-.09l.09.04c-.11-.05-.21-.11-.3-.18l.08.06c-.05-.04-.1-.08-.14-.13-.07-.07-.17-.11-.27-.11s-.2.04-.27.11-.11.17-.11.27.04.19.11.27h0Z"/>
    </g>
  </g>
</svg>