<?xml version="1.0" encoding="UTF-8"?>
<svg id="_얼굴없는" data-name="얼굴없는" xmlns="http://www.w3.org/2000/svg" version="1.1" xmlns:xlink="http://www.w3.org/1999/xlink" viewBox="0 0 50.83 48.47">
  <!-- Generator: Adobe Illustrator 29.8.2, SVG Export Plug-In . SVG Version: 2.1.1 Build 3)  -->
  <defs>
    <style>
      .st0 {
        fill: #231f20;
      }

      .st1 {
        fill: #fff;
      }

      .st2 {
        fill: none;
      }

      .st3 {
        clip-path: url(#clippath-1);
      }

      .st4 {
        fill: #c0b9ac;
      }

      .st5 {
        fill: #5c564d;
      }

      .st6 {
        clip-path: url(#clippath);
      }
    </style>
    <clipPath id="clippath">
      <path class="st2" d="M21.65,38.33c-1.42-.63-2.54-1.93-2.91-3.44s.02-3.2,1.05-4.36c1.43-1.61,3.75-2.03,5.89-2.25.75-.07,1.54-.13,2.24.15.57.23,1.03.67,1.48,1.09.8.76,1.61,1.54,2.14,2.51.77,1.42.85,3.2.2,4.68-.18.4-.41.79-.75,1.07-.29.23-.64.38-1,.49-1.2.37-2.48.41-3.73.45-1.55.05-3.13.26-4.6-.39Z"/>
    </clipPath>
    <clipPath id="clippath-1">
      <path class="st2" d="M14.02,11.55c0,1.37.23,2.75.66,4.05.13.39.28.78.31,1.19.03.41-.05.81-.14,1.21-.61,2.75-1.53,5.43-2.72,7.98.68.05,1.37-.15,1.93-.53-.28.92-.26,1.93.04,2.85.05.17.17.36.34.34.11-.01.18-.11.24-.2.25-.37.44-.78.57-1.21.41.92.45,2.13.61,3.13.04.23.23.54.43.4.07-.05.09-.15.11-.23.13-.68.26-1.35.4-2.03.34.55.53,1.2.91,1.73.6.84,1.62,1.28,2.62,1.55,2.22.61,3.43.8,4.59,2.94.09.17.19.36.35.47.59.39,2.08-2.56,2.63-3.04.86-.77,2.06-.85,3.15-1.12,1.06-.26,2.2-.86,2.44-1.93.08.29.16.58.24.87,1.1-.54,1.93-1.59,2.19-2.79.17.62.51,1.26,1.01,1.67.31-1.05.51-2.1.21-3.19.53.14,2.3,1.08,2.25-.29,0-.22-.13-.42-.24-.62-.99-1.83-.69-4.14-1.67-5.97-.43-.81-1.13-1.62-.95-2.52.05-.24.16-.46.26-.69.73-1.73.42-3.71.07-5.56-.23-1.17-.67-2.56-1.83-2.83-.11-.03-2.4,3.14-2.68,3.45-1.16,1.26-1.19,1.56-2.86.89-.35-.14-.74-.18-1.12-.2-2.32-.16-4.69-.07-6.93.56-1.75.49-3.27-.85-4.14-2.29-.52-.87-.96-1.8-1.6-2.59-1.26,1.03-1.7,2.99-1.69,4.56Z"/>
    </clipPath>
  </defs>
  <g>
    <g>
      <path class="st5" d="M33.54,32.18c.18-.65.27-1.34.65-1.89s1.21-.87,1.73-.45c.8-.29,1.65-.43,2.49-.42,1.11,0,.79,1.33.81,2.09.01.68.02,1.39-.2,2.03-.26.76-.74.88-1.27,1.34-.47.42-.79,1.14-1.21,1.63-.43.5-.89.98-1.46,1.3-1.04.57-3.75.68-4.16-.81-.26-.92.58-1.59,1.13-2.18.7-.76,1.22-1.66,1.5-2.65Z"/>
      <g>
        <path class="st0" d="M31.52,36.03c.92-.49,1.44-1.46,1.75-2.42s.46-2.13,1.12-2.99c.3-.39.69-.69,1.16-.8.2-.05.31-.27.26-.46-.06-.2-.26-.31-.46-.26-1.02.24-1.72,1.12-2.11,2.05-.43,1.02-.53,2.16-1.05,3.13-.25.46-.58.87-1.05,1.11-.18.09-.23.34-.13.51.11.18.33.23.51.13h0Z"/>
        <path class="st0" d="M35.8,30.88c.1-.13.22-.25.34-.36.03-.03.06-.06.09-.08.02-.01.03-.03.05-.04-.03.03-.04.03,0,0,.06-.04.12-.08.18-.12.07-.04.14-.09.22-.12.04-.02.08-.04.12-.06.02,0,.04-.02.06-.03-.04.02-.04.02,0,0,.15-.06.31-.11.47-.15.08-.02.16-.04.23-.05.04,0,.08-.01.13-.02.02,0,.04,0,.06,0-.05,0-.05,0,0,0,.17-.02.33-.03.5-.04.34-.02.68-.01,1.03,0,.2,0,.38-.17.38-.38s-.16-.37-.38-.38c-1.12-.02-2.34,0-3.3.66-.27.18-.51.4-.71.66-.06.08-.11.16-.11.27,0,.09.04.2.11.27.14.12.4.16.53,0h0Z"/>
        <path class="st0" d="M30.77,37.71c.96.92,2.42,1.23,3.69.85.35-.11.69-.27.99-.48.16-.11.25-.33.13-.51-.1-.16-.34-.26-.51-.13-.12.08-.24.16-.37.22-.06.03-.12.06-.19.09-.04.02.02,0,.02,0-.02,0-.04.01-.06.02-.04.01-.07.03-.11.04-.14.05-.27.08-.41.11-.03,0-.07.01-.1.02-.02,0-.04,0-.06,0,0,0-.06,0,0,0s0,0,0,0c-.02,0-.04,0-.06,0-.04,0-.08,0-.12.01-.14,0-.29.01-.43,0-.07,0-.14,0-.21-.02-.01,0-.03,0-.04,0,.08,0,.03,0,.01,0-.04,0-.08-.01-.12-.02-.14-.03-.28-.06-.42-.1-.07-.02-.13-.04-.2-.07-.03-.01-.1-.04-.03-.01-.04-.02-.07-.03-.11-.05-.14-.07-.28-.15-.41-.23-.04-.02-.07-.05-.11-.08-.01,0-.02-.02-.04-.03.04.03.02.02,0,0-.07-.05-.13-.11-.19-.17-.14-.14-.39-.15-.53,0s-.15.39,0,.53h0Z"/>
        <path class="st0" d="M35.58,37.12c.12.08.25.16.38.23.16.09.32.16.49.23.05.02.1.02.15,0,.05,0,.1-.02.14-.04.04-.02.08-.06.11-.1.03-.04.06-.08.07-.13v-.1c.01-.07,0-.13-.04-.19l-.06-.08s-.1-.08-.17-.1h0s.06.02.09.03c-.27-.11-.53-.26-.77-.42-.04-.03-.09-.04-.14-.04-.05-.01-.1,0-.15,0-.05.01-.09.03-.13.07-.04.03-.07.06-.1.11-.05.09-.07.19-.04.29l.04.09c.03.06.08.1.13.13h0Z"/>
        <path class="st0" d="M36.79,36.31s.02,0,.03,0h-.1c.07,0,.14,0,.21.01h-.1c.07,0,.15.02.22.05l-.09-.04s.09.04.14.07c.04.03.09.04.14.04.05.01.1,0,.15,0,.05-.01.09-.03.13-.07.04-.03.07-.06.1-.11l.04-.09c.02-.07.02-.13,0-.2l-.04-.09c-.03-.06-.08-.1-.13-.13-.07-.05-.15-.08-.23-.11-.05-.02-.1-.04-.15-.05-.08-.02-.17-.03-.25-.03s-.17.01-.25.02c-.05.01-.09.03-.13.07-.04.03-.07.06-.1.11-.03.04-.04.09-.04.14-.01.05,0,.1,0,.15l.04.09c.03.06.08.1.13.13l.09.04c.07.02.13.02.2,0h0Z"/>
        <path class="st0" d="M37.88,35.22c.48-.23.88-.61,1.15-1.06.31-.54.38-1.14.4-1.75.02-.37.03-.73.04-1.1,0-.2-.18-.38-.38-.38-.21,0-.37.16-.38.38-.01.3-.02.6-.04.9,0,.14-.01.29-.02.43,0,.07,0,.15-.02.22,0,.03,0,.07-.01.1,0,.02,0,.03,0,.05,0-.04,0-.03,0,0-.02.13-.05.27-.09.4-.01.04-.06.12-.06.16,0,0,.03-.07.01-.03,0,.01-.01.02-.02.04-.01.03-.03.06-.04.08-.05.1-.11.2-.18.29,0,.01-.02.02-.02.03-.03.04.04-.05,0-.01-.02.02-.03.04-.05.06-.04.04-.08.09-.12.13-.04.04-.09.09-.14.13-.01.01-.08.07-.05.04s-.03.03-.05.03c-.11.08-.23.14-.35.2-.18.08-.24.35-.13.51.12.18.32.22.51.13h0Z"/>
        <path class="st0" d="M38.74,30.92c.14-.11.3-.2.46-.27l-.09.04c.17-.07.35-.12.53-.14h-.1s.04,0,.05,0c.05,0,.1,0,.14-.03.05-.02.09-.04.12-.08.04-.03.06-.07.08-.12.02-.04.03-.09.03-.14,0-.1-.04-.2-.11-.27l-.08-.06c-.06-.03-.12-.05-.19-.05-.18.02-.36.05-.53.11s-.34.13-.49.22c-.07.04-.15.09-.21.14-.04.02-.08.06-.11.1-.03.04-.06.08-.07.13-.02.05-.02.1,0,.15,0,.05.02.1.04.14.05.08.13.15.22.17h.1c.07.01.13,0,.19-.04h0Z"/>
      </g>
    </g>
    <g>
      <g class="st6">
        <path class="st4" d="M21.65,38.33c-1.42-.63-2.54-1.93-2.91-3.44s.02-3.2,1.05-4.36c1.43-1.61,3.75-2.03,5.89-2.25.75-.07,1.54-.13,2.24.15.57.23,1.03.67,1.48,1.09.8.76,1.61,1.54,2.14,2.51.77,1.42.85,3.2.2,4.68-.18.4-.41.79-.75,1.07-.29.23-.64.38-1,.49-1.2.37-2.48.41-3.73.45-1.55.05-3.13.26-4.6-.39Z"/>
        <path class="st5" d="M18.4,35.55c.51-.2,1.03-.38,1.56-.51.18-.05.35-.18.45-.34s.13-.4.08-.58c-.13-.39-.52-.63-.92-.52-.53.14-1.05.31-1.56.51-.1.02-.18.07-.26.13-.08.05-.15.12-.19.21-.09.16-.13.4-.08.58s.17.36.34.45.39.15.58.08h0Z"/>
        <path class="st5" d="M19.71,37.5s.1-.09.15-.13l-.15.12c.13-.1.27-.18.42-.25l-.18.08c.1-.04.2-.07.3-.1.1-.02.18-.07.26-.13.08-.05.15-.12.19-.21.05-.09.08-.18.09-.28.02-.1.02-.2-.01-.3-.06-.18-.17-.36-.34-.45l-.18-.08c-.13-.04-.27-.04-.4,0-.08.02-.17.04-.25.08-.14.05-.27.11-.4.18-.07.04-.14.08-.21.13-.12.09-.24.18-.34.28-.07.07-.12.15-.16.24-.05.09-.07.19-.06.29,0,.1.02.2.06.29.03.09.08.17.16.24.14.13.33.23.53.22s.38-.08.53-.22h0Z"/>
        <path class="st5" d="M30.91,34.99c.08-.01.17-.03.25-.04l-.2.03c.46-.06.93-.07,1.39-.03.18.02.41-.1.53-.22s.23-.34.22-.53-.07-.4-.22-.53-.32-.2-.53-.22c-.62-.06-1.23-.01-1.84.1-.18.03-.36.2-.45.34-.09.16-.13.4-.08.58s.17.36.34.45c.19.1.37.11.58.08h0Z"/>
        <path class="st5" d="M30.52,37.19c.52.1,1.03.25,1.52.46l-.18-.08c.1.04.21.09.31.14.18.09.37.13.58.08.17-.05.36-.18.45-.34.09-.17.14-.38.08-.58-.06-.18-.17-.37-.34-.45-.64-.31-1.31-.54-2-.67-.2-.04-.4-.03-.58.08-.16.09-.3.27-.34.45-.04.19-.03.41.08.58.1.16.26.31.45.34h0Z"/>
      </g>
      <g>
        <g>
          <path class="st0" d="M21.15,35.81c.02.62.08,1.25.21,1.85.11.53.37,1.07.88,1.32.27.13.55.18.84.19.27,0,.57-.02.83-.08.31-.07.58-.26.73-.54.13-.24.19-.51.23-.78.11-.7.14-1.41.06-2.12-.01-.1-.03-.19-.11-.27-.07-.07-.17-.11-.27-.11-.18,0-.4.17-.38.38.06.56.06,1.12,0,1.68,0,.04,0,.07-.01.11,0,.02,0,.03,0,.05,0,.06,0-.07,0,0-.01.07-.02.14-.03.21-.02.11-.04.23-.07.34,0,.03-.02.05-.03.08,0,.01,0,.02-.01.03-.01.04.02-.04.02-.04-.02.02-.02.05-.03.07-.01.03-.03.05-.05.08,0,0-.01.02-.02.03,0,0,.05-.06.02-.03-.02.02-.04.04-.06.06,0,0-.04.03,0,0,.05-.03,0,0-.01,0-.02.01-.07.03-.08.04.02-.03.06-.02.02,0-.01,0-.02,0-.04.01-.03,0-.06.02-.09.02-.03,0-.05.01-.08.02-.02,0-.03,0-.05,0-.05,0,0,0,.02,0-.05.02-.12.01-.17.02-.06,0-.11,0-.17.01-.11,0-.23,0-.34,0-.01,0-.02,0-.04,0-.04,0,.04,0,.04,0-.03,0-.06,0-.08-.01-.06-.01-.12-.03-.17-.05-.02,0-.04-.02-.07-.02,0,0,.08.04.02,0-.01,0-.02-.01-.03-.02-.05-.03-.1-.06-.14-.09-.04-.03.05.05.02.01,0,0-.02-.02-.03-.02-.02-.02-.04-.04-.06-.06-.02-.02-.03-.03-.05-.05,0-.01-.04-.05,0,0s0,0,0,0c-.03-.04-.05-.08-.08-.13-.01-.02-.03-.05-.04-.07,0-.01,0-.02-.01-.03.05.08.02.04,0,.01-.04-.1-.07-.21-.1-.32-.03-.13-.05-.25-.07-.38-.01-.08-.02-.15-.03-.23,0-.01-.01-.08,0-.03s0-.02,0-.03c0-.04-.01-.08-.01-.12-.04-.32-.06-.64-.07-.97,0-.2-.17-.38-.38-.38s-.38.16-.38.38h0Z"/>
          <path class="st0" d="M28.88,35.81c0,.29-.03.57-.06.86,0,.07-.01.13-.02.2,0,.02,0,.03,0,.05,0,.07,0,0,0,0,0,.04-.01.08-.02.12-.02.12-.04.24-.06.37-.02.11-.05.22-.08.33-.02.05-.03.1-.05.15,0,0-.02.04-.02.04,0,0,.03-.07.01-.04-.01.03-.03.06-.04.08-.02.04-.05.09-.08.13,0,.01-.02.03-.03.04,0,0,.05-.06.02-.03-.02.02-.04.05-.06.07-.02.02-.03.03-.05.05-.01.01-.02.02-.04.03-.03.03.03-.02.03-.02-.05.02-.09.06-.14.09-.01,0-.1.05-.04.02.05-.02-.03,0-.04.01-.05.02-.11.03-.16.04-.03,0-.06,0-.08.01-.04,0,.04,0,.04,0,0,0-.05,0-.05,0-.06,0-.11,0-.17,0-.12,0-.23,0-.35-.01-.05,0-.11-.01-.16-.02-.04,0,.04,0,.04,0-.02,0-.04,0-.05,0-.03,0-.07-.01-.1-.02-.03,0-.05-.01-.08-.02-.02,0-.03-.01-.05-.02,0,0-.05-.02,0,0s0,0,0,0c-.01,0-.03-.02-.04-.03-.01,0-.02-.01-.03-.02-.04-.02.05.05.02.02-.02-.02-.04-.04-.06-.06,0,0-.03-.04,0,0,.03.05,0,0,0,0-.03-.04-.05-.09-.08-.14-.02-.04.02.04.02.04,0-.01-.01-.03-.02-.04,0-.02-.01-.04-.02-.07-.02-.06-.03-.11-.04-.17-.03-.13-.05-.26-.07-.39,0-.04,0,.02,0,.02,0-.02,0-.04,0-.06,0-.04,0-.08-.01-.12,0-.08-.02-.16-.02-.24-.01-.16-.02-.31-.02-.47,0-.32.01-.64.05-.95.02-.2-.19-.38-.38-.38-.22,0-.35.17-.38.38-.07.61-.06,1.22.02,1.83s.17,1.28.79,1.54c.27.11.57.14.85.15.27.01.55,0,.81-.09.27-.09.52-.24.7-.47s.3-.49.37-.76c.09-.32.13-.66.17-.99.04-.35.07-.69.08-1.04,0-.2-.18-.38-.38-.38-.21,0-.37.16-.38.38h0Z"/>
          <path class="st0" d="M22.44,37.8c0,.07,0,.14.02.22,0,.05.02.1.03.15.02.07.05.14.08.2.02.05.05.09.08.14.02.03.04.05.06.07.02.02.05.04.09.04.03.01.07.01.1,0,.03,0,.06-.01.09-.03.05-.03.1-.09.11-.15s.01-.14-.03-.19-.07-.11-.09-.17l.03.06c-.04-.08-.06-.17-.07-.26v.07s0-.1,0-.15c0-.03,0-.07-.02-.1-.01-.03-.03-.06-.05-.08-.02-.02-.05-.04-.08-.05-.03-.02-.06-.02-.1-.02-.06,0-.13.02-.18.07s-.07.11-.07.18h0Z"/>
          <path class="st0" d="M23.27,38.04l.09.5s.02.06.04.09c.02.03.04.05.07.06.03.02.06.03.09.03.03,0,.07,0,.1,0l.06-.03s.07-.05.09-.09l.03-.06s.01-.09,0-.13l-.09-.5s-.02-.06-.04-.09c-.02-.03-.04-.05-.07-.06-.03-.02-.06-.03-.09-.03-.03,0-.07,0-.1,0l-.06.03s-.07.05-.09.09l-.03.06s-.01.09,0,.13h0Z"/>
          <path class="st0" d="M27.02,37.74c-.02.07-.03.14-.03.21,0,.05,0,.1,0,.16,0,.07.02.14.04.21s.05.14.08.2c.02.03.04.05.06.07.02.02.05.04.09.04.03.01.07.01.1,0,.03,0,.06-.01.09-.03.05-.03.1-.09.11-.15v-.07s0-.09-.03-.13c0-.01-.01-.02-.02-.04l.03.06c-.03-.07-.05-.14-.06-.22v.07c0-.08,0-.15,0-.23v.07s0-.07.01-.1c.01-.03.01-.07,0-.1,0-.03-.01-.06-.03-.09-.02-.03-.04-.05-.06-.07-.02-.02-.05-.04-.09-.04-.06-.01-.14-.01-.19.03s-.1.09-.11.15h0Z"/>
          <path class="st0" d="M27.83,37.95s.01.06.02.08v-.07c0,.08,0,.16,0,.23v-.07c0,.08-.02.15-.05.22l.03-.06s-.01.03-.02.04c-.02.03-.03.06-.03.09,0,.03,0,.07,0,.1,0,.03.02.06.04.09.02.03.04.05.07.06.06.03.13.05.19.03.06-.02.12-.06.15-.11.03-.06.06-.13.08-.2s.03-.14.04-.21c0-.05,0-.1,0-.15,0-.07-.01-.14-.03-.21,0-.03-.02-.06-.04-.09-.02-.03-.04-.05-.07-.06-.03-.02-.06-.03-.09-.03-.03,0-.07,0-.1,0-.06.02-.12.06-.15.11l-.03.06s-.01.09,0,.13h0Z"/>
        </g>
        <path class="st0" d="M18.33,32.41c-.22,1.82-.09,3.83,1.26,5.22.32.33.7.61,1.13.79.19.08.4.06.51-.13.09-.16.05-.43-.13-.51-.68-.29-1.17-.78-1.52-1.42-.39-.7-.56-1.53-.58-2.36-.01-.53.03-1.06.09-1.59.02-.2-.19-.38-.38-.38-.22,0-.35.17-.38.38h0Z"/>
        <path class="st0" d="M30.22,38.35c.95-.15,1.7-.82,2.06-1.69.17-.42.27-.86.33-1.31.07-.48.11-.96.08-1.44-.04-.56-.17-1.1-.43-1.59-.1-.18-.34-.23-.51-.13-.18.11-.23.33-.13.51.38.71.39,1.55.29,2.35-.09.73-.27,1.56-.81,2.08-.29.28-.65.44-1.07.5-.2.03-.31.28-.26.46.06.21.26.29.46.26h0Z"/>
      </g>
    </g>
  </g>
  <g>
    <g class="st3">
      <path class="st4" d="M14.02,11.55c0,1.37.23,2.75.66,4.05.13.39.28.78.31,1.19.03.41-.05.81-.14,1.21-.61,2.75-1.53,5.43-2.72,7.98.68.05,1.37-.15,1.93-.53-.28.92-.26,1.93.04,2.85.05.17.17.36.34.34.11-.01.18-.11.24-.2.25-.37.44-.78.57-1.21.41.92.45,2.13.61,3.13.04.23.23.54.43.4.07-.05.09-.15.11-.23.13-.68.26-1.35.4-2.03.34.55.53,1.2.91,1.73.6.84,1.62,1.28,2.62,1.55,2.22.61,3.43.8,4.59,2.94.09.17.19.36.35.47.59.39,2.08-2.56,2.63-3.04.86-.77,2.06-.85,3.15-1.12,1.06-.26,2.2-.86,2.44-1.93.08.29.16.58.24.87,1.1-.54,1.93-1.59,2.19-2.79.17.62.51,1.26,1.01,1.67.31-1.05.51-2.1.21-3.19.53.14,2.3,1.08,2.25-.29,0-.22-.13-.42-.24-.62-.99-1.83-.69-4.14-1.67-5.97-.43-.81-1.13-1.62-.95-2.52.05-.24.16-.46.26-.69.73-1.73.42-3.71.07-5.56-.23-1.17-.67-2.56-1.83-2.83-.11-.03-2.4,3.14-2.68,3.45-1.16,1.26-1.19,1.56-2.86.89-.35-.14-.74-.18-1.12-.2-2.32-.16-4.69-.07-6.93.56-1.75.49-3.27-.85-4.14-2.29-.52-.87-.96-1.8-1.6-2.59-1.26,1.03-1.7,2.99-1.69,4.56Z"/>
      <path class="st1" d="M29.18,26.38c.34-.41.57-.91.65-1.49.13-1-.27-2.06-1.02-2.74-.36-.32-.78-.55-1.22-.74-1.14-.47-2.43-.59-3.6-.21-1.91.62-3.56,3.12-2.28,4.99,1.46,2.13,5.8,2.2,7.48.18Z"/>
      <path class="st5" d="M23.72,10.35l.36,4.13c.04.52.43,1.03,1,1,.5-.02,1.05-.44,1-1l-.36-4.13c-.04-.52-.43-1.03-1-1-.5.02-1.05.44-1,1h0Z"/>
      <path class="st5" d="M20.79,11.02c.11.99.27,1.98.51,2.95.13.51.72.86,1.23.7s.84-.69.7-1.23c-.18-.7-.31-1.41-.41-2.12l.04.27c-.02-.19-.05-.37-.07-.56-.03-.27-.09-.51-.29-.71-.17-.17-.46-.3-.71-.29s-.53.1-.71.29c-.17.18-.32.45-.29.71h0Z"/>
      <path class="st5" d="M26.95,10.73c-.04.83-.02,1.67-.02,2.5,0,.52.46,1.02,1,1s1-.44,1-1c0-.83-.02-1.67.02-2.5.02-.52-.48-1.02-1-1-.56.03-.97.44-1,1h0Z"/>
      <path class="st5" d="M13.61,21.85c.45-.32.94-.6,1.45-.81l-.24.1c.44-.18.89-.32,1.35-.42.51-.11.86-.74.7-1.23-.18-.54-.68-.81-1.23-.7-1.08.23-2.14.69-3.04,1.34-.22.16-.39.33-.46.6-.07.24-.04.56.1.77s.34.4.6.46.55.05.77-.1h0Z"/>
      <path class="st5" d="M35.62,20.44c.23.01.46.04.69.07l-.27-.04c.47.06.93.16,1.39.29.22.06.44.13.66.21.11.04.22.08.32.12.21.08-.21-.1,0,0,.06.03.12.05.17.08.25.11.49.18.77.1.23-.06.48-.24.6-.46.23-.44.15-1.14-.36-1.37-1.27-.58-2.59-.92-3.98-1.01-.52-.03-1.02.48-1,1,.03.57.44.96,1,1h0Z"/>
    </g>
    <g>
      <path class="st0" d="M19.62,12.9c3.54-1.45,7.54-1.57,11.17-.32.46.16.65-.57.2-.72-3.73-1.29-7.91-1.18-11.56.32-.19.08-.32.25-.26.46.05.18.27.34.46.26h0Z"/>
      <g>
        <path class="st1" d="M35.5,10.32s-.02-.03-.02-.04c-.19-.31-.53-.55-.9-.53-.31,1.25-1.21,2.5-1.9,3.57.19.18.51.05.74-.07s.58-.21.73.02c.19.31-.28.7-.14,1.03.04.1.13.16.21.23,1.62,1.2,1.65-2.22,1.55-3.2-.03-.35-.1-.7-.28-1Z"/>
        <path class="st1" d="M17.97,12.61c-.37-.52-.85-.98-1.28-1.46-2.42-2.69-1.29,2.56-1.03,3.57.09.35.26.77.62.81.15.02.29-.03.42-.1.29-.15.54-.41.61-.73.1-.45-.33-.88-.53-1.26.24-.2.47-.18.77-.14.28.04.65,0,.73-.26-.09-.12-.2-.27-.32-.44Z"/>
        <path class="st0" d="M14.98,16.69c-.7.95-1.09,2.08-1.36,3.22s-.42,2.22-.78,3.29c-.21.61-.49,1.18-.86,1.7-.12.16-.03.42.13.51.19.11.39.03.51-.13,1.37-1.91,1.33-4.33,2.09-6.48.22-.62.52-1.2.91-1.72.12-.16.03-.42-.13-.51-.19-.11-.39-.03-.51.13h0Z"/>
        <path class="st0" d="M36.08,17.07c.73.99,1.18,2.13,1.49,3.31.28,1.06.33,2.16.62,3.22.17.63.43,1.2.83,1.72.12.16.4.13.53,0,.16-.16.12-.37,0-.53-.64-.83-.78-1.95-.93-2.96-.17-1.14-.43-2.25-.87-3.31-.27-.65-.59-1.26-1.01-1.82-.12-.16-.32-.24-.51-.13-.16.09-.26.35-.13.51h0Z"/>
        <path class="st0" d="M15.39,6.88c.75,1.62,1.8,3.11,3.08,4.37.36.35.73.68,1.12.99.16.13.38.15.53,0,.13-.13.16-.4,0-.53-1.36-1.09-2.5-2.4-3.39-3.89-.25-.43-.49-.87-.7-1.32-.09-.18-.35-.23-.51-.13-.19.11-.22.33-.13.51h0Z"/>
        <path class="st0" d="M34.84,6.5c-.89,1.48-1.76,2.95-3.01,4.14-.36.34-.69.61-1.09.88-.17.11-.24.33-.13.51.1.17.34.25.51.13,1.51-1.01,2.62-2.47,3.58-3.99.27-.43.53-.86.79-1.3.1-.17.04-.41-.13-.51s-.41-.04-.51.13h0Z"/>
        <path class="st0" d="M14.09,6.78c.02.62.22,1.25.59,1.76.02.04.06.08.1.11.04.03.08.06.13.07.09.02.21.01.29-.04s.15-.13.17-.22.02-.21-.04-.29c-.13-.18-.24-.37-.32-.57l.04.09c-.1-.23-.16-.46-.19-.71v.1c0-.1,0-.19-.01-.29s-.04-.2-.11-.27c-.07-.07-.17-.11-.27-.11s-.2.04-.27.11-.11.16-.11.27h0Z"/>
        <path class="st0" d="M14,9.38c-.82,2.49-.62,5.25.5,7.61.09.18.35.23.51.13.19-.11.22-.33.13-.51-1.03-2.18-1.17-4.74-.42-7.03.15-.46-.57-.66-.72-.2h0Z"/>
        <path class="st0" d="M36.12,6.97s-.03.07-.04.11l.04-.09c-.11.25-.25.49-.41.71l.06-.08c-.12.16-.26.31-.41.44-.07.06-.11.18-.11.27s.04.2.11.27.17.11.27.11h.1c.06-.03.12-.06.17-.11.16-.14.31-.3.44-.48s.25-.35.35-.55c.06-.13.12-.26.17-.39.02-.05.02-.1,0-.15,0-.05-.02-.1-.04-.14-.05-.08-.13-.15-.22-.17-.1-.02-.2-.02-.29.04l-.08.06s-.08.1-.1.17h0Z"/>
        <path class="st0" d="M36.28,8.73c1.03,2.5.92,5.41-.34,7.81-.22.43.42.81.65.38,1.35-2.56,1.52-5.7.41-8.39-.08-.19-.25-.32-.46-.26-.18.05-.34.27-.26.46h0Z"/>
        <path class="st0" d="M15.44,9.98c.64,1.33,1.51,2.54,2.55,3.58l.27-.64c-.62,0-1.24-.03-1.86-.06-.27-.01-.48.33-.32.56.29.41.58.82.87,1.24.11.16.33.25.51.13.16-.1.25-.34.13-.51-.29-.41-.58-.82-.87-1.24l-.32.56c.62.03,1.24.05,1.86.06.33,0,.49-.41.27-.64-1.01-1-1.8-2.13-2.43-3.43-.09-.18-.35-.24-.51-.13-.18.12-.23.32-.13.51h0Z"/>
        <path class="st0" d="M34.39,9.73c-.12.32-.23.57-.39.89s-.33.62-.52.91c-.09.14-.19.29-.29.43s-.19.25-.28.37c-.22.27-.45.53-.7.78-.11.11-.14.27-.08.41.05.13.2.24.34.23.52-.05,1.03-.09,1.55-.14.05,0,.11,0,.17-.01h.03c-.08-.08-.16-.16-.24-.25,0,0,.01-.06.01-.06,0,.01-.07.15-.09.18-.03.05-.05.1-.08.16-.12.23-.24.45-.38.67-.1.17-.04.42.13.51s.4.04.51-.13c.16-.26.31-.53.45-.81.08-.16.18-.32.18-.5.01-.23-.13-.43-.35-.5-.14-.04-.3-.01-.45,0l-.48.04c-.33.03-.65.06-.98.09l.27.64c1.04-1.06,1.84-2.32,2.36-3.71.07-.18-.08-.42-.26-.46-.21-.05-.39.07-.46.26h0Z"/>
        <path class="st0" d="M12.47,26.65c.82-.22,1.57-.63,2.2-1.2l-.59-.08s.02.03,0-.02c0,.02,0,.03.01.05,0-.06,0-.07,0-.03,0,.02,0,.03,0,.05,0-.06,0-.07,0-.02,0,.02,0,.03-.01.05,0,.02-.01.03-.02.05-.02.04-.01.03,0-.01,0,.06-.07.14-.11.2-.04.06-.08.12-.11.19-.16.27-.27.57-.34.88-.14.62-.12,1.28.1,1.87.07.18.26.33.46.26.18-.06.33-.26.26-.46-.04-.11-.07-.22-.1-.33-.01-.05-.02-.11-.03-.16,0-.03,0-.07-.02-.09,0,0,0,.07,0,.03,0-.02,0-.04,0-.05-.01-.11-.02-.23-.01-.34,0-.05,0-.11,0-.16,0-.03,0-.05,0-.08,0-.01,0-.03,0-.04,0-.01,0-.07,0-.02s0-.03,0-.05c0-.03,0-.05.01-.08.01-.06.02-.12.04-.17.03-.11.07-.23.11-.34,0-.01.01-.03.02-.04.02-.04,0,.03-.01.03,0,0,.03-.06.03-.07.03-.05.05-.11.08-.16.06-.1.12-.2.17-.3.17-.31.27-.66.09-.99-.12-.22-.41-.23-.59-.08-.07.06-.14.12-.21.18-.01.01-.08.07-.01.01-.01.01-.03.02-.04.03-.04.03-.08.06-.11.08-.16.11-.32.21-.49.3-.08.04-.17.09-.25.13-.04.02-.09.04-.13.06-.05.02.08-.03,0,0-.02,0-.04.02-.07.03-.18.07-.36.13-.55.18s-.32.27-.26.46.26.32.46.26h0Z"/>
        <path class="st0" d="M15.2,26.19c-.27,1.69-.04,3.44.71,4.98.16.32.58.18.69-.09.34-.88.62-1.78.84-2.69l-.74-.1c-.01,1.11.55,2.19,1.41,2.88.98.77,2.18,1.01,3.36,1.28.67.15,1.34.34,1.94.69.42.24.8-.41.38-.65-1.3-.75-2.82-.78-4.2-1.32-1.2-.47-2.17-1.53-2.15-2.87,0-.42-.64-.52-.74-.1-.22.92-.49,1.81-.84,2.69l.69-.09c-.66-1.35-.87-2.92-.64-4.4.03-.2-.05-.4-.26-.46-.18-.05-.43.06-.46.26h0Z"/>
        <path class="st0" d="M36.95,25.71c.17.27.42.49.7.62s.61.21.93.17c.1-.01.2-.02.3-.05s.2-.07.29-.11c.08-.04.15-.14.17-.22.02-.09.01-.21-.04-.29s-.13-.15-.22-.17h-.1c-.07-.01-.13,0-.19.04-.01,0-.03.01-.04.02l.09-.04c-.1.04-.21.07-.32.09h.1c-.12,0-.25,0-.37-.01h.1c-.13,0-.25-.04-.37-.09l.09.04c-.11-.05-.21-.11-.31-.18l.08.06c-.09-.07-.16-.14-.23-.23l.06.08s-.05-.06-.07-.1c-.05-.08-.13-.15-.22-.17s-.21-.01-.29.04-.15.13-.17.22-.02.2.04.29h0Z"/>
        <path class="st0" d="M36.49,26.66s.03.06.04.09c0,.01.03.07,0,0,0,.01.01.03.02.04.02.06.05.13.07.2s.04.13.05.2c0,.04.02.07.02.11,0,.02,0,.03,0,.05.01.06,0-.06,0,0,.01.14.02.28.02.41,0,.07,0,.14-.01.21,0,.03-.01.09,0,.03,0,.04-.01.08-.02.13-.03.14-.07.27-.11.4-.02.06-.01,0,0-.01,0,0-.02.03-.02.04,0,.01-.06.08-.02.04s-.02.02-.03.03c-.02.02-.05.02-.01.01s0,0-.01,0c-.04.02.04-.02.04-.02-.02,0-.05,0,0,0,.06,0,.13,0,.18.05,0,0,.04.05.02.02-.02-.04.01.02,0,.02-.02-.01-.03-.09-.04-.11-.05-.16-.11-.32-.16-.47-.12-.35-.24-.7-.36-1.05-.06-.19-.26-.33-.46-.26-.21.07-.29.25-.26.46-.01-.1,0,.04,0,.06,0,.04,0,.08,0,.12,0,.07,0,.15-.01.22.02-.1,0,.04-.01.05,0,.04-.02.08-.03.12-.02.07-.04.14-.06.21,0,.02-.06.14-.02.06-.02.04-.03.08-.05.11-.03.07-.07.13-.11.19-.04.07-.08.13-.13.2,0,.01-.08.1-.03.04-.03.03-.05.07-.08.1-.11.12-.22.24-.34.35-.06.05-.11.1-.17.15-.03.03-.07.06-.1.08-.01,0-.12.09-.05.04-.26.2-.54.38-.81.56-.16.11-.25.34-.13.51.11.16.34.25.51.13.95-.63,1.95-1.33,2.29-2.49.1-.34.11-.68.06-1.03l-.72.2c.13.37.25.74.38,1.1.06.18.12.37.19.55.09.23.27.44.54.44.43,0,.68-.41.79-.78.1-.34.15-.71.13-1.06-.03-.43-.13-.84-.32-1.23-.09-.18-.35-.24-.51-.13-.18.12-.23.32-.13.51h0Z"/>
        <path class="st0" d="M33.31,28.61c.08,1.07-1.24,1.58-2.03,1.94-.97.44-2.01.7-2.96,1.16-.49.24-.96.55-1.31.98-.13.16-.15.38,0,.53.13.13.4.16.53,0,.63-.76,1.61-1.06,2.51-1.37.58-.2,1.14-.43,1.7-.68s1.08-.5,1.53-.88c.48-.4.84-1.02.79-1.67-.02-.2-.16-.38-.38-.38-.19,0-.39.17-.38.38h0Z"/>
      </g>
    </g>
  </g>
</svg>