<?xml version="1.0" encoding="UTF-8"?>
<svg id="_얼굴없는" data-name="얼굴없는" xmlns="http://www.w3.org/2000/svg" version="1.1" xmlns:xlink="http://www.w3.org/1999/xlink" viewBox="0 0 50.83 48.47">
  <!-- Generator: Adobe Illustrator 29.8.2, SVG Export Plug-In . SVG Version: 2.1.1 Build 3)  -->
  <defs>
    <style>
      .st0 {
        fill: #231f20;
      }

      .st1 {
        fill: #fff;
      }

      .st2 {
        fill: url(#radial-gradient);
      }

      .st3 {
        fill: #5c564d;
      }

      .st4 {
        fill: #aa968a;
      }
    </style>
    <radialGradient id="radial-gradient" cx="-110.25" cy="435" fx="-110.25" fy="435" r="10.7" gradientTransform="translate(106.04 -211.68) scale(.73 .54)" gradientUnits="userSpaceOnUse">
      <stop offset="0" stop-color="#5c564d"/>
      <stop offset=".25" stop-color="#5e584f"/>
      <stop offset=".4" stop-color="#666058"/>
      <stop offset=".53" stop-color="#736e66"/>
      <stop offset=".64" stop-color="#86817b"/>
      <stop offset=".74" stop-color="#9e9b95"/>
      <stop offset=".84" stop-color="#bcbab6"/>
      <stop offset=".93" stop-color="#dfdedc"/>
      <stop offset="1" stop-color="#fff"/>
    </radialGradient>
  </defs>
  <g>
    <g>
      <path class="st3" d="M32.71,35.02c.36-.83.37-1.77.56-2.66.33-1.51,1.27-3.03,2.71-3.7.74-.35,1.62-.4,2.43-.32,1.09.11,1.19.1.82.95-.52,1.17-.64,2.24-.75,3.52-.1,1.14-.36,2.37-1.22,3.13-.53.47-1.24.7-1.75,1.2-.22.22-.4.48-.62.7-1.12,1.1-3.27.79-4.31-.3-.67-.7-.63-1.03.12-1.26.92-.28,1.55-.15,2.03-1.26Z"/>
      <g>
        <path class="st0" d="M31.56,38.43c.21.24.52.4.83.46.36.07.72.04,1.08-.04.19-.05.37-.1.56-.16.09-.03.17-.09.22-.17.05-.08.07-.2.04-.29-.06-.19-.26-.33-.46-.26-.28.09-.56.18-.85.22h.1c-.16,0-.32.01-.48,0h.1c-.13,0-.25-.04-.37-.09l.09.04c-.09-.04-.17-.09-.25-.14l.08.06c-.05-.04-.1-.09-.15-.14-.06-.07-.18-.11-.27-.11s-.2.04-.27.11-.11.17-.11.27.04.19.11.27h0Z"/>
        <path class="st0" d="M34.54,37.48s.01.05.02.08c.02.05.04.11.07.16.01.02.03.04.04.07.03.05.07.09.11.14.02.02.04.04.06.05.04.04.09.07.14.1.02.01.05.03.07.04.05.02.1.05.16.06.03,0,.06.02.09.02.06,0,.12.02.19.02.05,0,.1,0,.14-.03.05-.02.09-.04.12-.08.04-.03.06-.07.08-.12.02-.04.03-.09.03-.14v-.1c-.03-.06-.06-.12-.11-.17l-.08-.06c-.06-.03-.12-.05-.19-.05-.03,0-.06,0-.09,0h.1s-.1,0-.14-.03l.09.04s-.09-.05-.13-.08l.08.06s-.08-.07-.11-.11l.06.08s-.05-.08-.07-.12l.04.09s-.02-.06-.03-.1c-.01-.05-.03-.09-.07-.13-.03-.04-.06-.07-.11-.1-.04-.03-.09-.04-.14-.04-.05-.01-.1,0-.15,0l-.09.04c-.06.03-.1.08-.13.13l-.04.09c-.02.07-.02.13,0,.2h0Z"/>
        <path class="st0" d="M35.98,37.11c1.05-.49,1.86-1.44,2.35-2.48.28-.62.48-1.27.6-1.94s.17-1.37.25-2.06c.07-.62.24-1.32.82-1.65.42-.24.04-.89-.38-.65-1.24.7-1.16,2.26-1.31,3.49s-.49,2.48-1.26,3.46c-.39.5-.88.9-1.45,1.17-.18.09-.23.35-.13.51.11.19.33.22.51.13h0Z"/>
        <path class="st0" d="M32.08,36.24c.5-.2.89-.58,1.12-1.07.26-.55.32-1.15.37-1.76.1-1.11.3-2.23.96-3.16.32-.45.74-.8,1.23-1.04.18-.09.23-.35.13-.51-.11-.19-.33-.22-.51-.13-.97.46-1.64,1.34-2.04,2.31-.22.54-.35,1.1-.43,1.67s-.08,1.18-.21,1.75c-.11.47-.34,1.02-.82,1.21-.19.08-.32.25-.26.46.05.18.27.34.46.26h0Z"/>
        <path class="st0" d="M36.8,28.71c.23-.08.46-.13.7-.16h-.1c.34-.03.68-.03,1.02.01h-.1c.31.03.61.11.9.22.08.03.21,0,.29-.04s.15-.13.17-.22c.02-.1.02-.2-.04-.29s-.13-.13-.22-.17c-.89-.35-1.91-.37-2.81-.07-.19.06-.33.26-.26.46.06.18.26.33.46.26h0Z"/>
      </g>
    </g>
    <g>
      <path class="st1" d="M21.01,39.12c-1.42-.63-2.54-1.93-2.91-3.44s.02-3.2,1.05-4.36c1.43-1.61,3.75-2.03,5.89-2.25.75-.07,1.54-.13,2.24.15.57.23,1.03.67,1.48,1.09.8.76,1.61,1.54,2.14,2.51.77,1.42.85,3.2.2,4.68-.18.4-.41.79-.75,1.07-.29.23-.64.38-1,.49-1.2.37-2.48.41-3.73.45-1.55.05-3.13.26-4.6-.39Z"/>
      <path class="st4" d="M21.67,35.52c-1.05.16-.85,1.51-.6,2.44.02.09.06.19.13.25.11.09.27.05.41.02.46-.12,1.89.1,2.18-.22s-.08-1.3-.27-1.6c-.27-.43-.71-.76-1.21-.85-.25-.05-.47-.05-.65-.03Z"/>
      <path class="st4" d="M27.28,35.49c-1.24.22-1.76,1.5-1.44,2.66.6-.02,1.21,0,1.8.06,1.44.15,1.25-2.56.08-2.73-.16-.02-.3-.02-.44,0Z"/>
      <path class="st1" d="M18.02,28.79c-.34.52-.62,1.1-.65,1.72-.09,1.57,1.43,2.82,2.97,3.15,0-.17,0-.35-.01-.52,1.83.29,3.47,1.58,4.18,3.29.36-1.03,1.14-1.91,2.12-2.41.91-.46,2.01-.61,2.72-1.33-.07.16.11.35.29.34s.33-.13.47-.24c.99-.84,2.06-1.86,2.04-3.16,0-.47-.17-.93-.41-1.34-1.15-2-3.75-2.54-6.04-2.79-3.17-.34-5.88.53-7.67,3.31Z"/>
      <g>
        <g>
          <path class="st0" d="M20.51,36.61c.02.62.08,1.25.21,1.85.11.53.37,1.07.88,1.32.27.13.55.18.84.19.27,0,.57-.02.83-.08.31-.07.58-.26.73-.54.13-.24.19-.51.23-.78.11-.7.14-1.41.06-2.12-.01-.1-.03-.19-.11-.27-.07-.07-.17-.11-.27-.11-.18,0-.4.17-.38.38.06.56.06,1.12,0,1.68,0,.04,0,.07-.01.11,0,.02,0,.03,0,.05,0,.06,0-.07,0,0-.01.07-.02.14-.03.21-.02.11-.04.23-.07.34,0,.03-.02.05-.03.08,0,.01,0,.02-.01.03-.01.04.02-.04.02-.04-.02.02-.02.05-.03.07-.01.03-.03.05-.05.08,0,0-.01.02-.02.03,0,0,.05-.06.02-.03-.02.02-.04.04-.06.06,0,0-.04.03,0,0,.05-.03,0,0-.01,0-.02.01-.07.03-.08.04.02-.03.06-.02.02,0-.01,0-.02,0-.04.01-.03,0-.06.02-.09.02-.03,0-.05.01-.08.02-.02,0-.03,0-.05,0-.05,0,0,0,.02,0-.05.02-.12.01-.17.02-.06,0-.11,0-.17.01-.11,0-.23,0-.34,0-.01,0-.02,0-.04,0-.04,0,.04,0,.04,0-.03,0-.06,0-.08-.01-.06-.01-.12-.03-.17-.05-.02,0-.04-.02-.07-.02,0,0,.08.04.02,0-.01,0-.02-.01-.03-.02-.05-.03-.1-.06-.14-.09-.04-.03.05.05.02.01,0,0-.02-.02-.03-.02-.02-.02-.04-.04-.06-.06-.02-.02-.03-.03-.05-.05,0-.01-.04-.05,0,0s0,0,0,0c-.03-.04-.05-.08-.08-.13-.01-.02-.03-.05-.04-.07,0-.01,0-.02-.01-.03.05.08.02.04,0,.01-.04-.1-.07-.21-.1-.32-.03-.13-.05-.25-.07-.38-.01-.08-.02-.15-.03-.23,0-.01-.01-.08,0-.03s0-.02,0-.03c0-.04-.01-.08-.01-.12-.04-.32-.06-.64-.07-.97,0-.2-.17-.38-.38-.38s-.38.16-.38.38h0Z"/>
          <path class="st0" d="M28.24,36.61c0,.29-.03.57-.06.86,0,.07-.01.13-.02.2,0,.02,0,.03,0,.05,0,.07,0,0,0,0,0,.04-.01.08-.02.12-.02.12-.04.24-.06.37-.02.11-.05.22-.08.33-.02.05-.03.1-.05.15,0,0-.02.04-.02.04,0,0,.03-.07.01-.04-.01.03-.03.06-.04.08-.02.04-.05.09-.08.13,0,.01-.02.03-.03.04,0,0,.05-.06.02-.03-.02.02-.04.05-.06.07-.02.02-.03.03-.05.05-.01.01-.02.02-.04.03-.03.03.03-.02.03-.02-.05.02-.09.06-.14.09-.01,0-.1.05-.04.02.05-.02-.03,0-.04.01-.05.02-.11.03-.16.04-.03,0-.06,0-.08.01-.04,0,.04,0,.04,0,0,0-.05,0-.05,0-.06,0-.11,0-.17,0-.12,0-.23,0-.35-.01-.05,0-.11-.01-.16-.02-.04,0,.04,0,.04,0-.02,0-.04,0-.05,0-.03,0-.07-.01-.1-.02-.03,0-.05-.01-.08-.02-.02,0-.03-.01-.05-.02,0,0-.05-.02,0,0s0,0,0,0c-.01,0-.03-.02-.04-.03-.01,0-.02-.01-.03-.02-.04-.02.05.05.02.02-.02-.02-.04-.04-.06-.06,0,0-.03-.04,0,0,.03.05,0,0,0,0-.03-.04-.05-.09-.08-.14-.02-.04.02.04.02.04,0-.01-.01-.03-.02-.04,0-.02-.01-.04-.02-.07-.02-.06-.03-.11-.04-.17-.03-.13-.05-.26-.07-.39,0-.04,0,.02,0,.02,0-.02,0-.04,0-.06,0-.04,0-.08-.01-.12,0-.08-.02-.16-.02-.24-.01-.16-.02-.31-.02-.47,0-.32.01-.64.05-.95.02-.2-.19-.38-.38-.38-.22,0-.35.17-.38.38-.07.61-.06,1.22.02,1.83s.17,1.28.79,1.54c.27.11.57.14.85.15.27.01.55,0,.81-.09.27-.09.52-.24.7-.47s.3-.49.37-.76c.09-.32.13-.66.17-.99.04-.35.07-.69.08-1.04,0-.2-.18-.38-.38-.38-.21,0-.37.16-.38.38h0Z"/>
          <path class="st0" d="M21.8,38.6c0,.07,0,.14.02.22,0,.05.02.1.03.15.02.07.05.14.08.2.02.05.05.09.08.14.02.03.04.05.06.07.02.02.05.04.09.04.03.01.07.01.1,0,.03,0,.06-.01.09-.03.05-.03.1-.09.11-.15s.01-.14-.03-.19-.07-.11-.09-.17l.03.06c-.04-.08-.06-.17-.07-.26v.07s0-.1,0-.15c0-.03,0-.07-.02-.1-.01-.03-.03-.06-.05-.08-.02-.02-.05-.04-.08-.05-.03-.02-.06-.02-.1-.02-.06,0-.13.02-.18.07s-.07.11-.07.18h0Z"/>
          <path class="st0" d="M22.63,38.83l.09.5s.02.06.04.09c.02.03.04.05.07.06.03.02.06.03.09.03.03,0,.07,0,.1,0l.06-.03s.07-.05.09-.09l.03-.06s.01-.09,0-.13l-.09-.5s-.02-.06-.04-.09c-.02-.03-.04-.05-.07-.06-.03-.02-.06-.03-.09-.03-.03,0-.07,0-.1,0l-.06.03s-.07.05-.09.09l-.03.06s-.01.09,0,.13h0Z"/>
          <path class="st0" d="M26.38,38.53c-.02.07-.03.14-.03.21,0,.05,0,.1,0,.16,0,.07.02.14.04.21s.05.14.08.2c.02.03.04.05.06.07.02.02.05.04.09.04.03.01.07.01.1,0,.03,0,.06-.01.09-.03.05-.03.1-.09.11-.15v-.07s0-.09-.03-.13c0-.01-.01-.02-.02-.04l.03.06c-.03-.07-.05-.14-.06-.22v.07c0-.08,0-.15,0-.23v.07s0-.07.01-.1c.01-.03.01-.07,0-.1,0-.03-.01-.06-.03-.09-.02-.03-.04-.05-.06-.07-.02-.02-.05-.04-.09-.04-.06-.01-.14-.01-.19.03s-.1.09-.11.15h0Z"/>
          <path class="st0" d="M27.19,38.75s.01.06.02.08v-.07c0,.08,0,.16,0,.23v-.07c0,.08-.02.15-.05.22l.03-.06s-.01.03-.02.04c-.02.03-.03.06-.03.09,0,.03,0,.07,0,.1,0,.03.02.06.04.09.02.03.04.05.07.06.06.03.13.05.19.03.06-.02.12-.06.15-.11.03-.06.06-.13.08-.2s.03-.14.04-.21c0-.05,0-.1,0-.15,0-.07-.01-.14-.03-.21,0-.03-.02-.06-.04-.09-.02-.03-.04-.05-.07-.06-.03-.02-.06-.03-.09-.03-.03,0-.07,0-.1,0-.06.02-.12.06-.15.11l-.03.06s-.01.09,0,.13h0Z"/>
        </g>
        <path class="st0" d="M21.55,25.38c-1.59.54-3.09,1.54-3.97,3-.32.54-.55,1.14-.59,1.77-.05.78.24,1.61.64,2.26.52.83,1.32,1.48,2.28,1.69.47.1.67-.62.2-.72-1.37-.3-2.4-1.73-2.38-3.12,0-.24.03-.39.11-.66s.17-.46.31-.72c.32-.57.75-1.05,1.25-1.47.68-.58,1.5-1.01,2.35-1.3.45-.15.26-.88-.2-.72h0Z"/>
        <path class="st0" d="M20.19,32.24c-.06.66.46,1.24,1.02,1.52.31.15.64.25.97.36.08.02.15.05.23.08.04.01.07.03.1.04.02,0,.03.01.05.02.04.02-.08-.04,0,0,.13.06.25.12.36.2.01,0,.03.02.04.03.01,0,.06.05.02.01-.04-.04,0,0,0,0,.02.01.04.03.05.05.05.05.1.1.15.16.04.05-.01-.02-.02-.02,0,.02.03.04.04.06.02.03.04.06.06.1,0,.01.01.03.02.04.03.06-.02-.06,0-.02.01.04.03.08.04.12.05.19.27.32.46.26s.31-.26.26-.46c-.16-.64-.74-1.03-1.32-1.26-.3-.12-.6-.19-.9-.3-.03-.01-.07-.03-.1-.04-.07-.03.01,0,.01,0,0,0-.04-.02-.05-.02-.07-.03-.15-.07-.22-.11-.05-.03-.11-.07-.16-.1-.06-.04.02.01.02.01,0,0-.04-.03-.05-.04-.03-.02-.05-.05-.08-.07-.03-.03-.06-.06-.08-.09,0-.01-.02-.03-.03-.04.06.06.02.03,0,0-.04-.06-.07-.12-.11-.18-.04-.07.02.07,0,.02,0-.02-.01-.04-.02-.05-.01-.04-.02-.07-.03-.11s.01-.03,0,.03c0-.02,0-.05,0-.07,0-.04,0-.08,0-.12.02-.2-.18-.38-.38-.38-.22,0-.36.17-.38.38h0Z"/>
        <path class="st0" d="M25.48,35.48c.11-.14.24-.27.37-.39.03-.03.07-.06.1-.09,0,0,.06-.04,0,0,.02-.01.04-.03.05-.04.07-.05.15-.1.22-.15.15-.1.31-.18.47-.26.08-.04.15-.07.23-.11.04-.02.08-.04.13-.06.05-.02-.05.02,0,0,.03-.01.05-.02.08-.03.74-.3,1.59-.48,2.2-1.03.35-.32.58-.76.59-1.24,0-.2-.17-.38-.38-.38s-.37.16-.38.38c0,.02-.01.15,0,.07,0,.04-.01.08-.02.11s-.02.07-.04.11c-.02.07,0,.02,0,0-.01.03-.02.05-.04.08-.02.03-.04.07-.06.1-.01.02-.03.04-.04.06,0-.01.04-.05,0,0-.06.07-.12.14-.19.2-.02.01-.03.03-.05.04,0,0,.04-.03,0,0s-.07.05-.11.07c-.08.05-.17.1-.26.15-.05.02-.09.04-.14.06-.02.01-.05.02-.07.03,0,0,.04-.02,0,0-.09.04-.19.07-.29.11-.68.25-1.38.48-2,.87-.35.22-.68.48-.93.8-.12.15-.16.38,0,.53.14.13.4.16.53,0h0Z"/>
        <path class="st0" d="M30.45,33.2c1.2-.82,2.33-2.09,2.29-3.63s-1.23-2.77-2.56-3.41c-.85-.41-1.76-.65-2.67-.87-.47-.12-.67.61-.2.72,1.35.34,2.81.69,3.81,1.72.43.44.76,1,.85,1.62s-.09,1.18-.39,1.68c-.37.62-.91,1.12-1.51,1.52-.17.11-.24.33-.13.51.1.17.34.25.51.13h0Z"/>
        <path class="st0" d="M17.69,33.2c-.22,1.82-.09,3.83,1.26,5.22.32.33.7.61,1.13.79.19.08.4.06.51-.13.09-.16.05-.43-.13-.51-.68-.29-1.17-.78-1.52-1.42-.39-.7-.56-1.53-.58-2.36-.01-.53.03-1.06.09-1.59.02-.2-.19-.38-.38-.38-.22,0-.35.17-.38.38h0Z"/>
        <path class="st0" d="M29.58,39.15c.95-.15,1.7-.82,2.06-1.69.17-.42.27-.86.33-1.31.07-.48.11-.96.08-1.44-.04-.56-.17-1.1-.43-1.59-.1-.18-.34-.23-.51-.13-.18.11-.23.33-.13.51.38.71.39,1.55.29,2.35-.09.73-.27,1.56-.81,2.08-.29.28-.65.44-1.07.5-.2.03-.31.28-.26.46.06.21.26.29.46.26h0Z"/>
      </g>
    </g>
  </g>
  <g>
    <path class="st1" d="M13.43,12.22c-.04,1.87.22,3.75.77,5.54.25.82.47,1.48.13,2.29-.45,1.06-1.01,2.09-1.52,3.12.42.16.89.38,1.02.81.13.44-.15.92-.04,1.36.1.39.52.66.91.6,0,.42-.12.83-.13,1.25s.14.89.51,1.07.94-.13.85-.53c.12.94.95,1.65,1.85,1.96s1.86.31,2.81.4c1.65.16,3.28.6,4.77,1.31.19.09.38.19.59.2.18,0,.36-.05.53-.12.8-.31,1.5-.81,2.28-1.17,1-.47,2.1-.72,3.12-1.14s2.02-1.08,2.49-2.09c-.16.18.07.48.31.47s.43-.2.6-.38c.48-.53.83-1.09,1.23-1.67.22.09.45.19.68.18s.48-.17.52-.4c.02-.15-.05-.3-.11-.43-.31-.65-.6-1.32-.93-1.96-.03-.06-.63-1.21-.5-1.19.49.06,1-.17,1.27-.57.06-.08-1.46-1.71-1.53-1.99-.16-.66.42-1.74.61-2.36.61-1.96.83-4.08.4-6.09-.13-.62-.35-1.27-.86-1.65-.82-.62-1.48.08-2.17.48-1.08.63-2.04,1.48-2.8,2.47-.25.33-.5.7-.89.85-.37.15-.79.07-1.18,0-1.39-.23-2.81-.32-4.22-.26-.98.04-2.78-.1-3.67.29-.11.05-.22.11-.34.09-.14-.02-.24-.14-.33-.24-1.29-1.6-2.75-3.19-4.69-3.88-1.91-.69-2.36,2.03-2.39,3.4Z"/>
    <path class="st3" d="M14.46,18.83s0,.06,0,.09c.75-1.43,1.62-2.86,2.85-3.94.63-.56,1.34-1.01,2.12-1.32.5-.2,1.2-.26,1.57-.63-.87-.36-1.53-1.6-2.21-2.25-.86-.83-1.83-1.55-2.96-1.95-1.91-.69-2.36,2.03-2.39,3.4-.04,1.87.22,3.75.77,5.54.11.35.23.71.26,1.07Z"/>
    <path class="st3" d="M30.25,12.92c-.06.1-.1.2-.13.32,1.08.53,2.66.9,3.48,1.77.5.52.77,1.18,1.17,1.77.37.55.86,1.08,1.31,1.62.13-.55.31-1.1.48-1.64.61-1.96.83-4.08.4-6.09-.13-.62-.35-1.27-.86-1.65-.82-.62-1.48.08-2.17.48-1.08.63-2.04,1.48-2.8,2.47-.26.35-.67.59-.89.95Z"/>
    <path class="st4" d="M34,15.82c.36.39.7.81.98,1.26.27-.9.36-1.86.39-2.78.03-.95,0-1.94-.21-2.88-.53.2-1.03.49-1.52.84-.19.13-.31.23-.5.4-.17.15-.33.31-.48.49-.04.04-.07.08-.1.12.06-.07-.04.05-.04.06-.06.08-.11.17-.16.25-.04.07-.08.15-.12.23,0,.02-.02.04-.02.06-.01.04-.03.08-.04.13-.01.04-.03.07-.05.1.66.54,1.3,1.1,1.88,1.73Z"/>
    <path class="st4" d="M18.47,14.16s0-.01,0-.02c0,0,0,0,0-.01-.04-.08-.09-.16-.13-.23-.04-.07-.09-.14-.14-.21-.01-.02-.02-.03-.04-.05-.02-.03-.04-.06-.07-.08-.12-.15-.26-.3-.39-.44-.3-.31-.62-.6-.96-.87,0,0-.02-.01-.02-.02.01,0,0,0-.03-.02,0,0,0,0,0,0-.04-.03-.09-.07-.13-.1-.07-.05-.15-.11-.23-.16-.16-.11-.32-.21-.48-.3-.07-.04-.14-.08-.22-.11-.01,0-.03-.01-.04-.02-.02,0-.04-.02-.05-.02-.29.96-.35,2-.3,2.98.05.86.18,1.75.45,2.59.84-1.07,1.77-2.05,2.82-2.85,0-.02-.01-.03-.02-.05Z"/>
    <ellipse class="st2" cx="25.37" cy="21.74" rx="7.83" ry="5.74"/>
    <g>
      <path class="st0" d="M19.37,14.04c3.54-1.45,7.54-1.57,11.17-.32.46.16.65-.57.2-.72-3.73-1.29-7.91-1.18-11.56.32-.19.08-.32.25-.26.46.05.18.27.34.46.26h0Z"/>
      <path class="st0" d="M15.04,9.12c1.62.7,3.11,1.67,4.38,2.89.36.35.71.72,1.04,1.1.13.15.4.14.53,0,.15-.15.13-.38,0-.53-1.18-1.38-2.61-2.55-4.19-3.43-.45-.25-.91-.48-1.38-.68-.19-.08-.4-.06-.51.13-.09.16-.05.43.13.51h0Z"/>
      <path class="st0" d="M13.85,9.29c-1.12,3.05-.99,6.47.29,9.44.08.19.35.23.51.13.19-.11.22-.33.13-.51-1.2-2.79-1.26-6.02-.22-8.86.17-.45-.56-.65-.72-.2h0Z"/>
      <path class="st0" d="M15.61,11.87c.2.11.39.23.58.36.05.03.09.07.14.1.04.03-.06-.05-.03-.02.01,0,.02.02.03.02.02.02.05.04.07.06.09.07.17.15.26.22.17.15.32.32.47.49.02.02.04.05.06.07,0,.01.07.09.03.03s.02.02.03.03c.02.03.04.05.06.08.07.09.13.19.19.28.14.22.26.44.36.68.04.08.14.15.22.17.09.02.21.01.29-.04s.15-.13.17-.22c.02-.1,0-.19-.04-.29-.4-.9-1.04-1.67-1.83-2.26-.21-.16-.43-.3-.67-.42-.17-.09-.42-.05-.51.13-.09.17-.05.41.13.51h0Z"/>
      <path class="st0" d="M14.67,25.21c-.33.91-.39,2.01-.15,2.95.06.25.19.49.43.61s.52.1.76,0c.51-.23.61-.79.67-1.3h-.75c.15,1.37,1.27,2.3,2.53,2.67,1.44.43,2.98.22,4.42.6.47.12.67-.6.2-.72-1.34-.35-2.75-.2-4.09-.51-1.01-.24-2.19-.89-2.31-2.04-.05-.48-.7-.48-.75,0-.02.18-.04.64-.3.64-.03,0-.04-.01-.03,0-.03-.03-.03-.11-.04-.14-.04-.15-.06-.31-.08-.47-.07-.7,0-1.42.23-2.08.07-.19-.08-.41-.26-.46-.21-.06-.39.07-.46.26h0Z"/>
      <path class="st0" d="M16.3,15.85c-.93,1.02-1.59,2.24-2.04,3.54-.23.66-.42,1.33-.76,1.94s-.78,1.15-1.19,1.72c-.08.11-.06.27,0,.38.3.59,1.04.89,1.66.65l-.47-.36c-.06.62-.05,1.25.03,1.87.03.2.15.38.38.38.18,0,.4-.17.38-.38-.08-.62-.09-1.25-.03-1.87.02-.23-.26-.44-.47-.36-.32.12-.66,0-.81-.31v.38c.39-.54.81-1.07,1.15-1.64.35-.61.58-1.28.8-1.94.42-1.27,1.03-2.46,1.93-3.46.32-.36-.21-.89-.53-.53h0Z"/>
      <path class="st0" d="M30.39,13.21c.54-.53,1.05-1.09,1.6-1.62.44-.42.91-.79,1.38-1.16.42-.32.84-.64,1.29-.92.19-.12.4-.24.61-.31.05-.02.1-.03.16-.05s.05-.01.06-.01c.12,0,.1,0,.19.02.06.02.03,0,.04.01.03.01.06.03.09.05.05.03.08.06.15.13.09.1.18.25.25.41.17.36.27.81.33,1.22.13.78.15,1.59.16,2.38.02,1.71-.27,3.42-.95,5-.08.19-.05.4.13.51.16.09.43.05.51-.13,1.05-2.43,1.27-5.14.9-7.74-.12-.83-.34-1.95-1.13-2.42-.93-.56-2.07.37-2.79.91-.55.41-1.05.78-1.56,1.24-.69.62-1.31,1.32-1.98,1.97-.35.34.18.87.53.53h0Z"/>
      <path class="st0" d="M34.57,11.23c-.86.46-1.6,1.16-2.12,1.99-.14.22-.26.46-.37.7-.04.1-.07.18-.04.29.02.09.09.18.17.22.09.05.19.07.29.04.09-.03.19-.09.22-.17.09-.21.2-.41.31-.6.06-.1.12-.19.18-.29.03-.05.07-.09.1-.14.02-.02.03-.04.05-.06.03-.04-.05.06-.02.03.01-.01.02-.03.03-.04.14-.18.29-.35.46-.5.08-.08.17-.16.26-.24.04-.03.08-.07.12-.1.01,0,.09-.07.03-.03-.05.04-.01,0,0,0,.02-.01.03-.02.05-.04.21-.15.42-.29.65-.41.17-.09.24-.35.13-.51-.11-.18-.33-.23-.51-.13h0Z"/>
      <path class="st0" d="M34.11,26.85c-.08.17-.17.32-.28.47,0,0-.04.05-.01.02.03-.03-.02.02-.02.03-.03.03-.05.06-.08.09-.06.07-.13.14-.2.21-.06.06-.13.12-.19.17-.04.03-.07.06-.11.09.05-.04-.05.03-.06.05-.15.11-.31.21-.48.31s-.33.18-.5.25c-.04.02-.08.03-.12.05-.01,0-.14.06-.08.03-.09.04-.18.07-.27.11-.34.13-.69.24-1.04.33-.25.07-.49.16-.73.28s-.44.23-.67.3c-.19.06-.32.26-.26.46.05.19.27.32.46.26.46-.15.86-.43,1.31-.55.36-.1.72-.21,1.07-.34.76-.28,1.5-.65,2.11-1.19.33-.3.61-.65.8-1.05.09-.18.05-.41-.13-.51-.16-.1-.43-.05-.51.13h0Z"/>
      <path class="st0" d="M35.65,21.98c.04.37.28.66.49.96s.39.59.57.89c.1.16.19.33.27.49.04.08.08.15.11.23.01.02.06.13.02.05.02.04.04.09.05.13.02.07.05.13.07.2,0,.03.02.06.02.1,0,.02,0,.03,0,.05.02.07,0-.07,0-.02,0,.03,0,.06,0,.09,0,.01,0,.03,0,.04,0,.06-.01-.07,0-.04,0,.01-.01.06-.02.07,0,.02-.04.1.02-.04,0,.01-.01.03-.02.04-.02.02.03-.04,0,0-.02.03.03-.03-.02.02-.06.06.02,0-.02.01-.03.01-.06.02-.09.02.06-.01,0,0-.01,0-.04,0-.07,0-.11,0,.08.01-.1-.04-.07-.02-.08-.03-.18-.11-.26-.2-.1-.1-.16-.19-.24-.31-.11-.15-.29-.23-.47-.15s-.24.25-.22.44c-.02-.1,0,.04,0,.07,0,.05,0,.1,0,.15,0,.03,0,.07,0,.1,0-.04,0-.03,0,0-.01.06-.02.12-.03.17-.05.24-.15.52-.23.72s-.22.45-.35.66c-.03.05-.07.1-.1.15-.02.02-.03.05-.05.07.03-.04,0,0-.01.01-.07.08-.14.16-.22.22-.15.13-.14.39,0,.53.15.15.38.13.53,0,.42-.37.7-.91.91-1.42s.37-1.08.29-1.64l-.69.29c.36.51.83,1,1.51.88.47-.08.77-.49.73-.95-.04-.4-.21-.77-.39-1.12s-.41-.71-.63-1.06c-.11-.16-.21-.32-.32-.48-.04-.06-.09-.12-.13-.19s-.14-.18-.15-.23c-.02-.2-.16-.38-.38-.38-.18,0-.4.17-.38.38h0Z"/>
      <path class="st0" d="M33.73,16.38c.56.61.98,1.32,1.35,2.07.18.37.34.75.56,1.1s.47.66.75.94c.33.32.7.59,1.1.81l-.13-.51s-.05.09-.08.13c.03-.04-.04.04-.04.04-.07.08-.08.08-.17.13-.13.07-.24.09-.42.07-.2-.02-.38.19-.38.38,0,.22.17.36.38.38.55.05,1.11-.27,1.36-.75.09-.18.05-.41-.13-.51-.65-.36-1.19-.86-1.58-1.48-.21-.34-.36-.71-.53-1.06s-.38-.74-.6-1.09c-.26-.42-.56-.81-.89-1.17-.14-.15-.39-.14-.53,0-.15.15-.14.38,0,.53h0Z"/>
    </g>
  </g>
</svg>