<?xml version="1.0" encoding="UTF-8"?>
<svg id="_얼굴없는" data-name="얼굴없는" xmlns="http://www.w3.org/2000/svg" version="1.1" viewBox="0 0 50.83 48.47">
  <!-- Generator: Adobe Illustrator 29.8.2, SVG Export Plug-In . SVG Version: 2.1.1 Build 3)  -->
  <defs>
    <style>
      .st0 {
        fill: #231f20;
      }

      .st1 {
        fill: #fff;
      }

      .st2 {
        fill: #f39b4a;
      }

      .st3 {
        fill: #a05715;
      }
    </style>
  </defs>
  <g>
    <g>
      <path class="st2" d="M34.26,36.05c.28-.75.23-1.58.35-2.38.21-1.35.96-2.73,2.19-3.4.64-.35,1.41-.44,2.12-.41.96.04,1.06.03.77.79-.4,1.06-.45,2.01-.48,3.14-.03,1.01-.19,2.11-.91,2.82-.44.44-1.06.68-1.48,1.15-.19.2-.33.44-.51.65-.93,1.03-2.84.87-3.82-.04-.62-.58-.61-.87.04-1.11.8-.3,1.36-.22,1.73-1.21Z"/>
      <path class="st3" d="M36.31,34.52c-.05-.05-.1-.1-.13-.15-.13-.2-.18-.44-.19-.68-.01-.51.15-1.01.35-1.48-.18.2-.39.38-.61.53-.2.13-.52.22-.66.02-.06-.08-.06-.19-.05-.3.1-.9,1.03-1.78,1.79-2.19.64-.35,1.41-.44,2.12-.41.96.04,1.06.03.77.79-.27.73-.39,1.5-.44,2.28-.03.48.11,1.11-.14,1.55-.32.57-1.08.41-1.31-.18-.12-.31-.08-.66-.03-.99-.14.27-.2.57-.33.84s-.37.52-.67.54c-.17,0-.33-.06-.46-.18Z"/>
      <g>
        <path class="st0" d="M33.37,39.13c.22.23.51.35.82.39s.63,0,.93-.09c.16-.05.32-.11.47-.17.09-.04.17-.08.22-.17.05-.08.07-.2.04-.29s-.09-.18-.17-.22-.2-.07-.29-.04c-.27.11-.55.21-.84.26h.1c-.14,0-.27,0-.41-.01h.1c-.1,0-.2-.03-.29-.06l.09.04c-.08-.03-.15-.07-.22-.13l.08.06s-.07-.06-.09-.09c-.14-.14-.4-.15-.53,0s-.15.38,0,.53h0Z"/>
        <path class="st0" d="M35.95,38.12c.01.05.04.1.06.15,0,.02.02.04.03.06.03.05.06.09.1.13.01.02.03.03.05.05.04.04.08.07.13.1.02.01.04.03.06.04.05.03.1.05.15.07.02,0,.04.02.07.02.06.01.12.02.17.03.03,0,.05,0,.08,0,.05,0,.1,0,.14-.03.05-.02.09-.04.12-.08.04-.03.06-.07.08-.12.02-.04.03-.09.03-.14v-.1c-.03-.06-.06-.12-.11-.17l-.08-.06c-.06-.03-.12-.05-.19-.05-.03,0-.07,0-.1,0h.1s-.09,0-.13-.02l.09.04s-.08-.04-.12-.07l.08.06s-.07-.06-.09-.09l.06.08s-.05-.07-.07-.11l.04.09s-.01-.04-.02-.06c-.01-.05-.03-.09-.07-.13-.03-.04-.06-.07-.11-.1-.04-.03-.09-.04-.14-.04-.05-.01-.1,0-.15,0l-.09.04c-.06.03-.1.08-.13.13l-.04.09c-.02.07-.02.13,0,.2h0Z"/>
        <path class="st0" d="M37.25,37.77c.93-.51,1.59-1.38,1.98-2.35.46-1.14.48-2.34.54-3.55.03-.52.12-1.15.6-1.46.4-.26.03-.91-.38-.65-1.06.69-.94,2.02-1.01,3.13s-.29,2.22-.92,3.15c-.31.45-.71.83-1.19,1.09-.42.23-.05.88.38.65h0Z"/>
        <path class="st0" d="M33.85,37.16c.98-.46,1.1-1.63,1.13-2.58s.14-1.96.66-2.8c.25-.4.59-.74,1.01-.97s.05-.88-.38-.65c-.84.46-1.41,1.28-1.71,2.17-.17.5-.25,1.03-.3,1.56s0,1.02-.09,1.52c-.08.45-.27.88-.7,1.08-.18.09-.23.35-.13.51.11.19.33.22.51.13h0Z"/>
        <path class="st0" d="M37.52,30.32c.25-.1.52-.17.79-.21h-.1c.31-.03.61-.03.92.01h-.1c.2.01.4.06.6.13s.42-.07.46-.26c.05-.21-.06-.4-.26-.46-.8-.27-1.72-.24-2.51.07-.09.04-.17.08-.22.17-.05.08-.07.2-.04.29s.09.18.17.22.2.07.29.04h0Z"/>
      </g>
    </g>
    <g>
      <path class="st2" d="M22.23,40.1c-1.42-.63-2.54-1.93-2.91-3.44s.02-3.2,1.05-4.36c1.43-1.61,3.75-2.03,5.89-2.25.75-.07,1.54-.13,2.24.15.57.23,1.03.67,1.48,1.09.8.76,1.61,1.54,2.14,2.51.77,1.42.85,3.2.2,4.68-.18.4-.41.79-.75,1.07-.29.23-.64.38-1,.49-1.2.37-2.48.41-3.73.45-1.55.05-3.13.26-4.6-.39Z"/>
      <path class="st3" d="M25.05,38.71c-.15-.11-.43-.14-.87-.11-.3.03-1.77.44-1.91.02.17.48-.11.86.24,1.36.26.36.63.55,1.07.61.19.03.38.05.57,0,.33-.07.59-.33.74-.63.32-.65.44-1.07.17-1.26Z"/>
      <path class="st3" d="M26.97,38.57c-.15.57-.18,1.15-.06,1.55.28.98,1.55.78,2.22.42.58-.32.9-1.24.9-2.11-1.01.15-2.03.23-3.06.15Z"/>
      <path class="st1" d="M19.24,29.77c-.34.52-.62,1.1-.65,1.72-.09,1.57,1.43,2.82,2.97,3.15,0-.17,0-.35-.01-.52,1.83.29,3.47,1.58,4.18,3.29.36-1.03,1.14-1.91,2.12-2.41.91-.46,2.01-.61,2.72-1.33-.07.16.11.35.29.34s.33-.13.47-.24c.99-.84,2.06-1.86,2.04-3.16,0-.47-.17-.93-.41-1.34-1.15-2-3.75-2.54-6.04-2.79-3.17-.34-5.88.53-7.67,3.31Z"/>
      <g>
        <g>
          <path class="st0" d="M21.73,37.58c.02.62.08,1.25.21,1.85.11.53.37,1.07.88,1.32.27.13.55.18.84.19.27,0,.57-.02.83-.08.31-.07.58-.26.73-.54.13-.24.19-.51.23-.78.11-.7.14-1.41.06-2.12-.01-.1-.03-.19-.11-.27-.07-.07-.17-.11-.27-.11-.18,0-.4.17-.38.38.06.56.06,1.12,0,1.68,0,.04,0,.07-.01.11,0,.02,0,.03,0,.05,0,.06,0-.07,0,0-.01.07-.02.14-.03.21-.02.11-.04.23-.07.34,0,.03-.02.05-.03.08,0,.01,0,.02-.01.03-.01.04.02-.04.02-.04-.02.02-.02.05-.03.07-.01.03-.03.05-.05.08,0,0-.01.02-.02.03,0,0,.05-.06.02-.03-.02.02-.04.04-.06.06,0,0-.04.03,0,0,.05-.03,0,0-.01,0-.02.01-.07.03-.08.04.02-.03.06-.02.02,0-.01,0-.02,0-.04.01-.03,0-.06.02-.09.02-.03,0-.05.01-.08.02-.02,0-.03,0-.05,0-.05,0,0,0,.02,0-.05.02-.12.01-.17.02-.06,0-.11,0-.17.01-.11,0-.23,0-.34,0-.01,0-.02,0-.04,0-.04,0,.04,0,.04,0-.03,0-.06,0-.08-.01-.06-.01-.12-.03-.17-.05-.02,0-.04-.02-.07-.02,0,0,.08.04.02,0-.01,0-.02-.01-.03-.02-.05-.03-.1-.06-.14-.09-.04-.03.05.05.02.01,0,0-.02-.02-.03-.02-.02-.02-.04-.04-.06-.06-.02-.02-.03-.03-.05-.05,0-.01-.04-.05,0,0s0,0,0,0c-.03-.04-.05-.08-.08-.13-.01-.02-.03-.05-.04-.07,0-.01,0-.02-.01-.03.05.08.02.04,0,.01-.04-.1-.07-.21-.1-.32-.03-.13-.05-.25-.07-.38-.01-.08-.02-.15-.03-.23,0-.01-.01-.08,0-.03s0-.02,0-.03c0-.04-.01-.08-.01-.12-.04-.32-.06-.64-.07-.97,0-.2-.17-.38-.38-.38s-.38.16-.38.38h0Z"/>
          <path class="st0" d="M29.46,37.58c0,.29-.03.57-.06.86,0,.07-.01.13-.02.2,0,.02,0,.03,0,.05,0,.07,0,0,0,0,0,.04-.01.08-.02.12-.02.12-.04.24-.06.37-.02.11-.05.22-.08.33-.02.05-.03.1-.05.15,0,0-.02.04-.02.04,0,0,.03-.07.01-.04-.01.03-.03.06-.04.08-.02.04-.05.09-.08.13,0,.01-.02.03-.03.04,0,0,.05-.06.02-.03-.02.02-.04.05-.06.07-.02.02-.03.03-.05.05-.01.01-.02.02-.04.03-.03.03.03-.02.03-.02-.05.02-.09.06-.14.09-.01,0-.1.05-.04.02.05-.02-.03,0-.04.01-.05.02-.11.03-.16.04-.03,0-.06,0-.08.01-.04,0,.04,0,.04,0,0,0-.05,0-.05,0-.06,0-.11,0-.17,0-.12,0-.23,0-.35-.01-.05,0-.11-.01-.16-.02-.04,0,.04,0,.04,0-.02,0-.04,0-.05,0-.03,0-.07-.01-.1-.02-.03,0-.05-.01-.08-.02-.02,0-.03-.01-.05-.02,0,0-.05-.02,0,0s0,0,0,0c-.01,0-.03-.02-.04-.03-.01,0-.02-.01-.03-.02-.04-.02.05.05.02.02-.02-.02-.04-.04-.06-.06,0,0-.03-.04,0,0,.03.05,0,0,0,0-.03-.04-.05-.09-.08-.14-.02-.04.02.04.02.04,0-.01-.01-.03-.02-.04,0-.02-.01-.04-.02-.07-.02-.06-.03-.11-.04-.17-.03-.13-.05-.26-.07-.39,0-.04,0,.02,0,.02,0-.02,0-.04,0-.06,0-.04,0-.08-.01-.12,0-.08-.02-.16-.02-.24-.01-.16-.02-.31-.02-.47,0-.32.01-.64.05-.95.02-.2-.19-.38-.38-.38-.22,0-.35.17-.38.38-.07.61-.06,1.22.02,1.83s.17,1.28.79,1.54c.27.11.57.14.85.15.27.01.55,0,.81-.09.27-.09.52-.24.7-.47s.3-.49.37-.76c.09-.32.13-.66.17-.99.04-.35.07-.69.08-1.04,0-.2-.18-.38-.38-.38-.21,0-.37.16-.38.38h0Z"/>
          <path class="st0" d="M23.02,39.57c0,.07,0,.14.02.22,0,.05.02.1.03.15.02.07.05.14.08.2.02.05.05.09.08.14.02.03.04.05.06.07.02.02.05.04.09.04.03.01.07.01.1,0,.03,0,.06-.01.09-.03.05-.03.1-.09.11-.15s.01-.14-.03-.19-.07-.11-.09-.17l.03.06c-.04-.08-.06-.17-.07-.26v.07s0-.1,0-.15c0-.03,0-.07-.02-.1-.01-.03-.03-.06-.05-.08-.02-.02-.05-.04-.08-.05-.03-.02-.06-.02-.1-.02-.06,0-.13.02-.18.07s-.07.11-.07.18h0Z"/>
          <path class="st0" d="M23.85,39.81l.09.5s.02.06.04.09c.02.03.04.05.07.06.03.02.06.03.09.03.03,0,.07,0,.1,0l.06-.03s.07-.05.09-.09l.03-.06s.01-.09,0-.13l-.09-.5s-.02-.06-.04-.09c-.02-.03-.04-.05-.07-.06-.03-.02-.06-.03-.09-.03-.03,0-.07,0-.1,0l-.06.03s-.07.05-.09.09l-.03.06s-.01.09,0,.13h0Z"/>
          <path class="st0" d="M27.59,39.51c-.02.07-.03.14-.03.21,0,.05,0,.1,0,.16,0,.07.02.14.04.21s.05.14.08.2c.02.03.04.05.06.07.02.02.05.04.09.04.03.01.07.01.1,0,.03,0,.06-.01.09-.03.05-.03.1-.09.11-.15v-.07s0-.09-.03-.13c0-.01-.01-.02-.02-.04l.03.06c-.03-.07-.05-.14-.06-.22v.07c0-.08,0-.15,0-.23v.07s0-.07.01-.1c.01-.03.01-.07,0-.1,0-.03-.01-.06-.03-.09-.02-.03-.04-.05-.06-.07-.02-.02-.05-.04-.09-.04-.06-.01-.14-.01-.19.03s-.1.09-.11.15h0Z"/>
          <path class="st0" d="M28.41,39.72s.01.06.02.08v-.07c0,.08,0,.16,0,.23v-.07c0,.08-.02.15-.05.22l.03-.06s-.01.03-.02.04c-.02.03-.03.06-.03.09,0,.03,0,.07,0,.1,0,.03.02.06.04.09.02.03.04.05.07.06.06.03.13.05.19.03.06-.02.12-.06.15-.11.03-.06.06-.13.08-.2s.03-.14.04-.21c0-.05,0-.1,0-.15,0-.07-.01-.14-.03-.21,0-.03-.02-.06-.04-.09-.02-.03-.04-.05-.07-.06-.03-.02-.06-.03-.09-.03-.03,0-.07,0-.1,0-.06.02-.12.06-.15.11l-.03.06s-.01.09,0,.13h0Z"/>
        </g>
        <path class="st0" d="M22.77,26.35c-1.59.54-3.09,1.54-3.97,3-.32.54-.55,1.14-.59,1.77-.05.78.24,1.61.64,2.26.52.83,1.32,1.48,2.28,1.69.47.1.67-.62.2-.72-1.37-.3-2.4-1.73-2.38-3.12,0-.24.03-.39.11-.66s.17-.46.31-.72c.32-.57.75-1.05,1.25-1.47.68-.58,1.5-1.01,2.35-1.3.45-.15.26-.88-.2-.72h0Z"/>
        <path class="st0" d="M21.41,33.21c-.06.66.46,1.24,1.02,1.52.31.15.64.25.97.36.08.02.15.05.23.08.04.01.07.03.1.04.02,0,.03.01.05.02.04.02-.08-.04,0,0,.13.06.25.12.36.2.01,0,.03.02.04.03.01,0,.06.05.02.01-.04-.04,0,0,0,0,.02.01.04.03.05.05.05.05.1.1.15.16.04.05-.01-.02-.02-.02,0,.02.03.04.04.06.02.03.04.06.06.1,0,.01.01.03.02.04.03.06-.02-.06,0-.02.01.04.03.08.04.12.05.19.27.32.46.26s.31-.26.26-.46c-.16-.64-.74-1.03-1.32-1.26-.3-.12-.6-.19-.9-.3-.03-.01-.07-.03-.1-.04-.07-.03.01,0,.01,0,0,0-.04-.02-.05-.02-.07-.03-.15-.07-.22-.11-.05-.03-.11-.07-.16-.1-.06-.04.02.01.02.01,0,0-.04-.03-.05-.04-.03-.02-.05-.05-.08-.07-.03-.03-.06-.06-.08-.09,0-.01-.02-.03-.03-.04.06.06.02.03,0,0-.04-.06-.07-.12-.11-.18-.04-.07.02.07,0,.02,0-.02-.01-.04-.02-.05-.01-.04-.02-.07-.03-.11s.01-.03,0,.03c0-.02,0-.05,0-.07,0-.04,0-.08,0-.12.02-.2-.18-.38-.38-.38-.22,0-.36.17-.38.38h0Z"/>
        <path class="st0" d="M26.7,36.45c.11-.14.24-.27.37-.39.03-.03.07-.06.1-.09,0,0,.06-.04,0,0,.02-.01.04-.03.05-.04.07-.05.15-.1.22-.15.15-.1.31-.18.47-.26.08-.04.15-.07.23-.11.04-.02.08-.04.13-.06.05-.02-.05.02,0,0,.03-.01.05-.02.08-.03.74-.3,1.59-.48,2.2-1.03.35-.32.58-.76.59-1.24,0-.2-.17-.38-.38-.38s-.37.16-.38.38c0,.02-.01.15,0,.07,0,.04-.01.08-.02.11s-.02.07-.04.11c-.02.07,0,.02,0,0-.01.03-.02.05-.04.08-.02.03-.04.07-.06.1-.01.02-.03.04-.04.06,0-.01.04-.05,0,0-.06.07-.12.14-.19.2-.02.01-.03.03-.05.04,0,0,.04-.03,0,0s-.07.05-.11.07c-.08.05-.17.1-.26.15-.05.02-.09.04-.14.06-.02.01-.05.02-.07.03,0,0,.04-.02,0,0-.09.04-.19.07-.29.11-.68.25-1.38.48-2,.87-.35.22-.68.48-.93.8-.12.15-.16.38,0,.53.14.13.4.16.53,0h0Z"/>
        <path class="st0" d="M31.67,34.17c1.2-.82,2.33-2.09,2.29-3.63s-1.23-2.77-2.56-3.41c-.85-.41-1.76-.65-2.67-.87-.47-.12-.67.61-.2.72,1.35.34,2.81.69,3.81,1.72.43.44.76,1,.85,1.62s-.09,1.18-.39,1.68c-.37.62-.91,1.12-1.51,1.52-.17.11-.24.33-.13.51.1.17.34.25.51.13h0Z"/>
        <path class="st0" d="M18.91,34.18c-.22,1.82-.09,3.83,1.26,5.22.32.33.7.61,1.13.79.19.08.4.06.51-.13.09-.16.05-.43-.13-.51-.68-.29-1.17-.78-1.52-1.42-.39-.7-.56-1.53-.58-2.36-.01-.53.03-1.06.09-1.59.02-.2-.19-.38-.38-.38-.22,0-.35.17-.38.38h0Z"/>
        <path class="st0" d="M30.8,40.12c.95-.15,1.7-.82,2.06-1.69.17-.42.27-.86.33-1.31.07-.48.11-.96.08-1.44-.04-.56-.17-1.1-.43-1.59-.1-.18-.34-.23-.51-.13-.18.11-.23.33-.13.51.38.71.39,1.55.29,2.35-.09.73-.27,1.56-.81,2.08-.29.28-.65.44-1.07.5-.2.03-.31.28-.26.46.06.21.26.29.46.26h0Z"/>
      </g>
    </g>
  </g>
  <g>
    <g>
      <path class="st2" d="M14.38,18.2c.01.66-.08,1.26-.38,1.76-.97,1.59-1.36,3.54-1.07,5.39.04.28.11.56.29.77s.51.31.73.14c-.18.14.21,1.59.29,1.78.25.62.66,1.19,1.17,1.61.05-.15.1-.3.15-.44,1.11,1.19,2.76,1.61,4.31,1.99,2.67.64,5.39,1.29,8.12,1.01,1.59-.16,3.14-.63,4.65-1.19,1.05-.38,2.14-.85,2.78-1.78.13.12.26.23.4.35.66-.94,1.12-2.03,1.34-3.17.12.29.55.04.69-.25,1.01-1.99.39-4.49-.83-6.35-.13-.2-.27-.4-.34-.63-.11-.36-.06-.75-.01-1.12.39-3.04.16-6.17-.67-9.11-.13-.45-.4-1-.85-.96-.22.02-.4.17-.56.32-1.86,1.72-3.42,3.78-4.58,6.05,0,0-4.19-.36-4.62-.33-1.36.08-2.87.08-4.18.43-.11.03-.24.06-.34,0-.06-.04-.1-.1-.14-.17-.68-1.16-1.2-2.41-1.87-3.57-.53-.92-2.58-4.1-3.68-2.29-1.01,1.67-1.27,3.76-1.28,5.7,0,1.19.46,2.72.49,4.06Z"/>
      <path class="st1" d="M22.57,24.33c-.63.58-.95,1.61-.5,2.35.94,1.52,3.19,1.46,4.7,1.3,1.88-.2,3.19-2.02,1.47-3.64-1.54-1.45-4.11-1.46-5.67-.01Z"/>
      <path class="st1" d="M18.64,14.06c-.22-.8-.74-2.54-1.56-2.93-1.18-.57-1.21,2.17-1.2,3,0,.63.04,1.27.12,1.9.02.03.03.05.05.08.01.02.02.03.03.04.01.01.02.03.04.04.03.03.1.09.09.08.03.02.07.04.1.06.02,0,.05.01.07.02.02,0,.03,0,.04,0,.02,0,.04,0,.06,0,.07,0,.13,0,.19,0-.12.01.02-.01.1-.03.47-.34.95-.67,1.41-1.03.18-.14.47-.33.55-.56.07-.19-.04-.49-.1-.69Z"/>
      <path class="st1" d="M34.49,16.47c.06-.03.11-.05.17-.09.03-.02.05-.04.08-.06.01-.06.03-.11.04-.17.06-.3.12-.72.14-.89.17-1.42.2-2.62-.27-3.97-.04-.11-.08-.23-.17-.31-.14-.13-.36-.14-.53-.05-.87.46-1.34,2.41-1.61,3.29-.28.92,1.46,1.9,2.09,2.25.02,0,.03,0,.05-.01Z"/>
      <g>
        <path class="st3" d="M20.82,18.2c-.12-.06-.25-.09-.39-.09-.26.01-.53.1-.71.3-.18.2-.29.45-.29.73v1.26c0,.26.11.54.29.73.09.1.2.17.32.21.12.06.25.09.39.09.26-.01.53-.1.71-.3.18-.2.29-.45.29-.73v-1.26c0-.26-.11-.54-.29-.73-.09-.1-.2-.17-.32-.21Z"/>
        <path class="st3" d="M31.14,18.87c0-.14-.02-.27-.09-.4-.04-.13-.11-.24-.21-.33-.09-.1-.2-.17-.32-.21-.12-.06-.25-.09-.39-.09-.26.01-.53.1-.71.3-.05.07-.1.14-.16.21-.09.16-.14.33-.14.52-.03.45-.02.89.03,1.34,0,.14.02.27.09.4.04.13.11.24.21.33.09.1.2.17.32.21.12.06.25.09.39.09.26-.01.53-.1.71-.3.05-.07.1-.14.16-.21.09-.16.14-.33.14-.52-.05-.44-.06-.89-.03-1.34Z"/>
        <path class="st3" d="M23.2,14.37c-.07.02-.13.04-.2.06.16,1.4.32,2.81.49,4.21.15,1.19.52,3.61,2.27,3.25,1.5-.31,1.66-2.42,1.78-3.62.13-1.31.21-2.62.25-3.94-1.49-.22-3.11-.32-4.6.03Z"/>
      </g>
    </g>
    <g>
      <path class="st0" d="M20.62,15c2.99-.72,6.13-.74,9.13-.05.47.11.67-.62.2-.72-3.13-.72-6.4-.7-9.53.05-.47.11-.27.84.2.72h0Z"/>
      <path class="st0" d="M30.87,14.06c.49-1.08,1.07-2.12,1.75-3.09.35-.5.72-.97,1.11-1.43.35-.4.71-.9,1.19-1.15.16-.09.37-.16.51-.01.18.18.27.51.36.74.21.55.37,1.12.49,1.7.24,1.18.29,2.4.25,3.6-.04,1.37-.19,2.73-.35,4.09-.02.2.19.37.38.38.22,0,.35-.17.38-.38.31-2.63.6-5.32.06-7.93-.13-.65-.33-1.29-.58-1.91-.22-.53-.49-1.12-1.16-1.12-.61,0-1.12.44-1.51.86-.44.46-.85.95-1.24,1.46-.91,1.18-1.68,2.46-2.29,3.82-.08.19-.05.4.13.51.16.1.43.05.51-.13h0Z"/>
      <path class="st0" d="M33.22,11.34c-.37.69-.68,1.41-.93,2.14-.13.36-.24.73-.34,1.11-.06.26,0,.5.21.66.16.13.34.24.51.36.38.27.77.54,1.15.81.16.11.42.03.51-.13.1-.19.04-.39-.13-.51-.4-.28-.79-.56-1.19-.84-.1-.07-.2-.14-.3-.21-.02-.02-.05-.03-.07-.05-.05-.03-.05-.04-.01,0-.06-.06-.04-.02.04.12,0,.04,0,.04,0,0,.07-.21.12-.43.18-.65.27-.86.59-1.63,1.01-2.42.09-.17.05-.42-.13-.51-.17-.09-.41-.05-.51.13h0Z"/>
      <path class="st0" d="M35.58,18.53c1.63,2.12,2.62,4.9,2,7.57-.11.47.61.67.72.2.52-2.23.03-4.56-1.04-6.55-.3-.56-.65-1.09-1.04-1.6-.12-.16-.32-.25-.51-.13-.16.09-.26.35-.13.51h0Z"/>
      <path class="st0" d="M36.6,25.97c.01.06.02.12.03.18,0,.02,0,.04,0,.06,0,.04,0-.03,0-.03,0,0,.01.1.01.11.01.13.02.26.02.38s0,.27-.02.4c0,.01,0,.03,0,.04,0,.06-.01,0,0-.01,0,0-.01.07-.01.08-.01.07-.02.14-.04.21-.03.13-.06.25-.1.37-.02.06-.04.13-.06.19,0,.03-.02.05-.03.08,0,.01-.01.03-.02.04-.02.04.03-.06,0,0-.11.24-.23.47-.38.68-.02.03-.04.06-.07.09,0,0-.02.03-.03.03.03-.02.03-.04,0,0-.04.05-.09.11-.14.16-.1.11-.21.22-.32.31-.15.13-.14.4,0,.53.16.15.37.14.53,0,.89-.77,1.4-1.95,1.44-3.12.01-.34-.02-.68-.09-1.01-.04-.19-.28-.32-.46-.26-.2.07-.3.26-.26.46h0Z"/>
      <path class="st0" d="M35.07,28.61c-.17.82-.9,1.31-1.61,1.69-.77.4-1.61.67-2.47.86-.24.06-.49.1-.73.15-.12.02-.23.04-.35.06-.13.02-.21.03-.3.04-.2.03-.38.15-.38.38,0,.18.17.4.38.38.94-.12,1.87-.3,2.77-.6s1.82-.7,2.54-1.33c.42-.37.76-.86.87-1.41.04-.2-.06-.41-.26-.46-.19-.05-.42.06-.46.26h0Z"/>
      <path class="st0" d="M20.75,13.68c-.54-1.19-1.19-2.33-1.96-3.39-.39-.54-.81-1.06-1.26-1.56-.39-.44-.8-.91-1.37-1.11-.61-.22-1.16.06-1.43.63s-.48,1.18-.64,1.79c-.33,1.27-.43,2.6-.42,3.91.01,1.52.18,3.04.36,4.55.02.2.16.37.38.38.18,0,.4-.17.38-.38-.28-2.39-.57-4.85-.18-7.24.1-.58.23-1.16.42-1.72.09-.27.19-.54.31-.8.08-.19.17-.46.42-.45.48.01.9.58,1.19.9.41.45.79.91,1.15,1.4.79,1.08,1.47,2.24,2.02,3.46.08.19.35.23.51.13.19-.11.22-.33.13-.51h0Z"/>
      <path class="st0" d="M17.11,11.72c.42.8.74,1.56,1.01,2.42.07.21.11.44.18.65,0,.04.01.05,0,0,.09-.14.1-.18.04-.12.04-.03.03-.03-.01,0-.02.02-.05.03-.07.05-.1.07-.2.14-.3.21-.4.28-.79.56-1.19.84-.16.11-.25.33-.13.51.1.16.34.26.51.13.34-.24.68-.48,1.02-.72.17-.12.33-.24.5-.35.21-.14.39-.3.38-.58,0-.2-.09-.4-.14-.59s-.11-.38-.18-.56c-.13-.38-.27-.75-.42-1.11-.17-.4-.36-.79-.56-1.17-.09-.17-.35-.24-.51-.13-.18.11-.23.33-.13.51h0Z"/>
      <path class="st0" d="M14.75,18.15c-1.37,1.77-2.27,3.98-2.29,6.24,0,.64.07,1.29.21,1.91.11.47.83.27.72-.2-.62-2.67.37-5.46,2-7.57.12-.16.02-.42-.13-.51-.19-.11-.39-.03-.51.13h0Z"/>
      <path class="st0" d="M13.65,25.77c-.24,1.16,0,2.41.69,3.38.19.27.41.52.66.74.15.13.39.16.53,0,.13-.14.16-.39,0-.53-.1-.09-.19-.18-.28-.27-.04-.04-.08-.09-.12-.14-.02-.03-.04-.05-.06-.08,0,0-.03-.04,0,0s0-.01-.01-.02c-.16-.21-.29-.44-.4-.68-.01-.03-.02-.05-.04-.08-.04-.09.01.03-.01-.03s-.05-.12-.07-.19c-.04-.13-.08-.25-.11-.38-.01-.06-.03-.12-.04-.18,0-.03-.01-.07-.02-.1,0-.02,0-.1-.02-.11,0,0,0,.07,0,.03,0-.01,0-.03,0-.04,0-.03,0-.07,0-.1,0-.07,0-.13-.01-.2,0-.15,0-.29,0-.44,0-.04,0-.08.01-.11,0-.01,0-.03,0-.04,0-.05-.01.09,0,0,.01-.08.02-.15.04-.22.04-.19-.06-.41-.26-.46-.19-.04-.42.06-.46.26h0Z"/>
      <path class="st0" d="M15.18,28.81c.2.96,1,1.62,1.84,2.05.45.23.93.46,1.42.6s1,.19,1.51.23c.56.04,1.13.07,1.69.17.2.04.4-.06.46-.26.05-.18-.06-.42-.26-.46-.93-.18-1.89-.13-2.82-.32-.46-.09-.88-.26-1.3-.46-.4-.19-.81-.39-1.14-.68s-.58-.64-.67-1.07c-.04-.2-.27-.31-.46-.26-.21.06-.3.26-.26.46h0Z"/>
    </g>
  </g>
</svg>