<?xml version="1.0" encoding="UTF-8"?>
<svg id="_얼굴없는" data-name="얼굴없는" xmlns="http://www.w3.org/2000/svg" version="1.1" viewBox="0 0 50.83 48.47">
  <!-- Generator: Adobe Illustrator 29.8.2, SVG Export Plug-In . SVG Version: 2.1.1 Build 3)  -->
  <defs>
    <style>
      .st0 {
        fill: #231f20;
      }

      .st1 {
        fill: #a8acad;
      }
    </style>
  </defs>
  <g>
    <path class="st1" d="M35.73,36.05s.07-.07.1-.1c1.27-1.27.87-2.78,1.3-4.38.25-.92.92-1.68,1.19-2.59.42-1.43-2.02-1.74-2.84-1.18-.65.45-1.14,1.12-1.35,1.88-.23.8-.16,1.64-.23,2.47s-.32,1.71-1,2.19c-.86.61-2.73.66-2.78,2.08-.02.56.57.95,1.12,1.08,1.58.37,3.32-.34,4.48-1.44Z"/>
    <path class="st1" d="M27.08,24.57c2.2.68,3.34,2.59,4.12,4.6.45,1.16.76,2.36,1.1,3.57.51,1.92.25,4.26-1.34,5.43-1.03.76-2.37.88-3.65.95-3.26.17-7.18.06-7.8-3.93-.26-1.68.33-2.81.79-4.37.57-1.93,1.35-4.39,3.07-5.56,1.07-.73,2.46-1.07,3.71-.69Z"/>
    <g>
      <path class="st0" d="M21.42,26.99c-.42.9-.82,1.82-1.19,2.74s-.72,1.78-.96,2.7c-.42,1.62-.45,3.4.47,4.86.46.73,1.1,1.28,1.9,1.59.45.17.65-.55.2-.72-1.74-.67-2.27-2.78-2.06-4.45.13-1.08.51-2.12.91-3.13.43-1.09.89-2.16,1.38-3.22.2-.44-.44-.82-.65-.38h0Z"/>
      <path class="st0" d="M21.72,35.89c.02.62.08,1.25.21,1.85.11.53.37,1.07.88,1.32.27.13.55.18.84.19.27,0,.57-.02.83-.08.31-.07.58-.26.73-.54.13-.24.19-.51.23-.78.11-.7.14-1.41.06-2.12-.01-.1-.03-.19-.11-.27-.07-.07-.17-.11-.27-.11-.18,0-.4.17-.38.38.06.56.06,1.12,0,1.68,0,.04,0,.07-.01.11,0,.02,0,.03,0,.05,0,.06,0-.07,0,0-.01.07-.02.14-.03.21-.02.11-.04.23-.07.34,0,.03-.02.05-.03.08,0,.01,0,.02-.01.03-.01.04.02-.04.02-.04-.02.02-.02.05-.03.07-.01.03-.03.05-.05.08,0,0-.01.02-.02.03,0,0,.05-.06.02-.03-.02.02-.04.04-.06.06,0,0-.04.03,0,0,.05-.03,0,0-.01,0-.02.01-.07.03-.08.04.02-.03.06-.02.02,0-.01,0-.02,0-.04.01-.03,0-.06.02-.09.02-.03,0-.05.01-.08.02-.02,0-.03,0-.05,0-.05,0,0,0,.02,0-.05.02-.12.01-.17.02-.06,0-.11,0-.17.01-.11,0-.23,0-.34,0-.01,0-.02,0-.04,0-.04,0,.04,0,.04,0-.03,0-.06,0-.08-.01-.06-.01-.12-.03-.17-.05-.02,0-.04-.02-.07-.02,0,0,.08.04.02,0-.01,0-.02-.01-.03-.02-.05-.03-.1-.06-.14-.09-.04-.03.05.05.02.01,0,0-.02-.02-.03-.02-.02-.02-.04-.04-.06-.06-.02-.02-.03-.03-.05-.05,0-.01-.04-.05,0,0s0,0,0,0c-.03-.04-.05-.08-.08-.13-.01-.02-.03-.05-.04-.07,0-.01,0-.02-.01-.03.05.08.02.04,0,.01-.04-.1-.07-.21-.1-.32-.03-.13-.05-.25-.07-.38-.01-.08-.02-.15-.03-.23,0-.01-.01-.08,0-.03s0-.02,0-.03c0-.04-.01-.08-.01-.12-.04-.32-.06-.64-.07-.97,0-.2-.17-.38-.38-.38s-.38.16-.38.38h0Z"/>
      <path class="st0" d="M29.84,27.37c.49,1.06.95,2.13,1.38,3.22.4,1.01.78,2.05.91,3.13.21,1.67-.32,3.78-2.06,4.45-.45.17-.25.9.2.72,1.43-.55,2.33-1.92,2.58-3.4.31-1.86-.34-3.7-1.02-5.4-.42-1.04-.86-2.07-1.34-3.09-.2-.44-.85-.06-.65.38h0Z"/>
      <path class="st0" d="M29.45,35.89c0,.29-.03.57-.06.86,0,.07-.01.13-.02.2,0,.02,0,.03,0,.05,0,.07,0,0,0,0,0,.04-.01.08-.02.12-.02.12-.04.24-.06.37-.02.11-.05.22-.08.33-.02.05-.03.1-.05.15,0,0-.02.04-.02.04,0,0,.03-.07.01-.04-.01.03-.03.06-.04.08-.02.04-.05.09-.08.13,0,.01-.02.03-.03.04,0,0,.05-.06.02-.03-.02.02-.04.05-.06.07-.02.02-.03.03-.05.05-.01.01-.02.02-.04.03-.03.03.03-.02.03-.02-.05.02-.09.06-.14.09-.01,0-.1.05-.04.02.05-.02-.03,0-.04.01-.05.02-.11.03-.16.04-.03,0-.06,0-.08.01-.04,0,.04,0,.04,0,0,0-.05,0-.05,0-.06,0-.11,0-.17,0-.12,0-.23,0-.35-.01-.05,0-.11-.01-.16-.02-.04,0,.04,0,.04,0-.02,0-.04,0-.05,0-.03,0-.07-.01-.1-.02-.03,0-.05-.01-.08-.02-.02,0-.03-.01-.05-.02,0,0-.05-.02,0,0s0,0,0,0c-.01,0-.03-.02-.04-.03-.01,0-.02-.01-.03-.02-.04-.02.05.05.02.02-.02-.02-.04-.04-.06-.06,0,0-.03-.04,0,0,.03.05,0,0,0,0-.03-.04-.05-.09-.08-.14-.02-.04.02.04.02.04,0-.01-.01-.03-.02-.04,0-.02-.01-.04-.02-.07-.02-.06-.03-.11-.04-.17-.03-.13-.05-.26-.07-.39,0-.04,0,.02,0,.02,0-.02,0-.04,0-.06,0-.04,0-.08-.01-.12,0-.08-.02-.16-.02-.24-.01-.16-.02-.31-.02-.47,0-.32.01-.64.05-.95.02-.2-.19-.38-.38-.38-.22,0-.35.17-.38.38-.07.61-.06,1.22.02,1.83s.17,1.28.79,1.54c.27.11.57.14.85.15.27.01.55,0,.81-.09.27-.09.52-.24.7-.47s.3-.49.37-.76c.09-.32.13-.66.17-.99.04-.35.07-.69.08-1.04,0-.2-.18-.38-.38-.38-.21,0-.37.16-.38.38h0Z"/>
      <path class="st0" d="M33.22,34.6c1.1-.84,1.24-2.22,1.3-3.51.03-.59.05-1.21.28-1.74.2-.45.52-.87.92-1.13.46-.3.95-.37,1.48-.19.19.06.41-.07.46-.26.06-.2-.07-.4-.26-.46-1.16-.39-2.3.2-2.96,1.16-.35.5-.53,1.08-.6,1.68-.09.71-.04,1.44-.16,2.15-.1.6-.32,1.27-.83,1.66-.16.12-.25.32-.13.51.09.16.35.26.51.13h0Z"/>
      <path class="st0" d="M31.97,37.8c1.58.07,3.25-.66,4.25-1.89.55-.68.82-1.45.96-2.31s.15-1.83.56-2.64c.23-.45.55-.85.75-1.32s.22-1.01.02-1.5c-.08-.19-.25-.32-.46-.26-.18.05-.34.27-.26.46.15.37.15.71,0,1.07s-.41.69-.61,1.04c-.43.76-.53,1.63-.64,2.48-.1.78-.23,1.55-.66,2.21-.39.59-.97,1.06-1.6,1.38-.7.36-1.49.55-2.28.52-.48-.02-.48.73,0,.75h0Z"/>
      <path class="st0" d="M23,37.88c0,.07,0,.14.02.22,0,.05.02.1.03.15.02.07.05.14.08.2.02.05.05.09.08.14.02.03.04.05.06.07.02.02.05.04.09.04.03.01.07.01.1,0,.03,0,.06-.01.09-.03.05-.03.1-.09.11-.15s.01-.14-.03-.19-.07-.11-.09-.17l.03.06c-.04-.08-.06-.17-.07-.26v.07s0-.1,0-.15c0-.03,0-.07-.02-.1-.01-.03-.03-.06-.05-.08-.02-.02-.05-.04-.08-.05-.03-.02-.06-.02-.1-.02-.06,0-.13.02-.18.07s-.07.11-.07.18h0Z"/>
      <path class="st0" d="M23.83,38.11l.09.5s.02.06.04.09c.02.03.04.05.07.06.03.02.06.03.09.03.03,0,.07,0,.1,0l.06-.03s.07-.05.09-.09l.03-.06s.01-.09,0-.13l-.09-.5s-.02-.06-.04-.09c-.02-.03-.04-.05-.07-.06-.03-.02-.06-.03-.09-.03-.03,0-.07,0-.1,0l-.06.03s-.07.05-.09.09l-.03.06s-.01.09,0,.13h0Z"/>
      <path class="st0" d="M27.58,37.81c-.02.07-.03.14-.03.21,0,.05,0,.1,0,.16,0,.07.02.14.04.21s.05.14.08.2c.02.03.04.05.06.07.02.02.05.04.09.04.03.01.07.01.1,0,.03,0,.06-.01.09-.03.05-.03.1-.09.11-.15v-.07s0-.09-.03-.13c0-.01-.01-.02-.02-.04l.03.06c-.03-.07-.05-.14-.06-.22v.07c0-.08,0-.15,0-.23v.07s0-.07.01-.1c.01-.03.01-.07,0-.1,0-.03-.01-.06-.03-.09-.02-.03-.04-.05-.06-.07-.02-.02-.05-.04-.09-.04-.06-.01-.14-.01-.19.03s-.1.09-.11.15h0Z"/>
      <path class="st0" d="M28.39,38.03s.01.06.02.08v-.07c0,.08,0,.16,0,.23v-.07c0,.08-.02.15-.05.22l.03-.06s-.01.03-.02.04c-.02.03-.03.06-.03.09,0,.03,0,.07,0,.1,0,.03.02.06.04.09.02.03.04.05.07.06.06.03.13.05.19.03.06-.02.12-.06.15-.11.03-.06.06-.13.08-.2s.03-.14.04-.21c0-.05,0-.1,0-.15,0-.07-.01-.14-.03-.21,0-.03-.02-.06-.04-.09-.02-.03-.04-.05-.07-.06-.03-.02-.06-.03-.09-.03-.03,0-.07,0-.1,0-.06.02-.12.06-.15.11l-.03.06s-.01.09,0,.13h0Z"/>
    </g>
  </g>
  <g>
    <path class="st1" d="M15.34,13.95c-.09.1-.17.21-.22.34-.1.25-.07.54,0,.81.19.8.68,1.52,1.34,2-2.39,3.08-2.26,8.08.71,10.78,2.25,2.04,5.59,2.21,8.63,2.09,1.69-.07,3.39-.18,5.02-.65s3.19-1.29,4.28-2.58c.44-.52.8-1.1,1.06-1.72.4-.96.71-2.19.66-3.24-.04-.75-.21-1.61-.49-2.29-.09-.21-1.18-2.46-1.19-2.46.51-.23.78-.77,1.02-1.27.3-.63.6-1.37.3-2-.2-.42-.62-.67-1.03-.89-.79-.4-1.64-.73-2.52-.72-.69,0-1.28.25-1.82.67-.59.46-.69.53-1.52.39-1.39-.23-2.81-.32-4.22-.26-.98.04-2.78-.1-3.67.29-.6.26-.9-.63-1.43-.9-.58-.29-1.29-.34-1.92-.2-1.01.23-1.87.86-2.67,1.51-.11.09-.22.18-.32.28Z"/>
    <g>
      <path class="st0" d="M19.86,14.44c3.54-1.45,7.54-1.57,11.17-.32.46.16.65-.57.2-.72-3.73-1.29-7.91-1.18-11.56.32-.19.08-.32.25-.26.46.05.18.27.34.46.26h0Z"/>
      <path class="st0" d="M18.9,13.77c0,.21,0,.43-.02.64,0,.05-.01.1-.02.15-.01.12,0-.04,0,.03,0,.03,0,.05-.01.08-.02.11-.04.21-.06.32s-.05.21-.09.31c-.04.12-.06.17-.1.26-.04.09-.09.17-.14.26-.03.04-.05.08-.08.12,0,.01-.06.07-.02.03-.02.02-.04.05-.06.07-.06.07-.13.14-.21.2,0,0-.07.05-.03.03.04-.03-.06.04-.05.04-.05.03-.09.06-.14.09-.04.02-.09.05-.14.07-.06.03.04-.02-.02,0-.02,0-.05.02-.08.03-.15.05-.3.1-.46.13-.5.11-.91-.22-1.22-.55-.16-.17-.28-.34-.39-.56-.05-.1-.06-.14-.1-.25-.02-.05-.03-.1-.04-.16,0-.03-.01-.05-.01-.08,0,.06,0-.06,0-.06-.01-.21.02-.38.11-.55.03-.05.06-.1.09-.15,0,0,.05-.07,0-.01.01-.02.03-.04.04-.05.07-.08.15-.16.23-.23.63-.56,1.55-.96,2.38-1.23.25-.08.5-.14.74-.16.14,0,.28,0,.41,0,0,0,.07.01.02,0,.03,0,.07.01.1.02.06.01.12.03.17.04.06.02.13.04.19.06.07.03.04.01.02,0,.04.02.07.03.11.05.12.06.23.12.33.2.19.13.41.35.58.55.13.15.39.14.53,0,.15-.15.13-.38,0-.53-.38-.44-.84-.8-1.39-1.01s-1.15-.2-1.71-.06c-.51.12-1.01.33-1.48.55-.51.23-.99.51-1.43.86s-.77.82-.82,1.39.18,1.13.51,1.57c.36.47.89.96,1.49,1.07.38.07.75-.02,1.11-.13.25-.08.49-.19.7-.35.95-.71,1.2-1.98,1.18-3.11-.01-.48-.76-.48-.75,0h0Z"/>
      <path class="st0" d="M15.53,18c-1.98,3.61-1.11,8.88,2.65,11,1.09.62,2.34.88,3.59.85.48-.01.48-.76,0-.75-1.96.06-3.79-.74-5-2.3s-1.65-3.46-1.5-5.33c.08-1.08.4-2.14.92-3.09.23-.42-.42-.8-.65-.38h0Z"/>
      <path class="st0" d="M30.88,13.61c.1-.1.2-.19.3-.28.11-.1.15-.13.27-.21.1-.07.2-.13.3-.19.04-.02.08-.05.13-.07.03-.01.05-.03.08-.04.01,0,.12-.05.05-.03.2-.08.41-.14.62-.17-.08.01.06,0,.09,0,.05,0,.1,0,.16,0,.12,0,.24,0,.36,0,.14.01.13,0,.28.04.13.02.27.05.4.09.25.07.51.15.75.24.03.01.06.02.09.03,0,0,.07.03.01,0,.06.02.11.05.16.07.11.05.21.1.31.16.09.05.17.1.26.16.02.01.04.02.05.04,0,0,.08.06.04.03s.04.03.04.03c.02.02.05.04.07.06.07.06.13.13.19.19.02.02.03.04.05.06.04.05-.05-.07,0,0,.03.04.05.08.08.12s.04.08.07.13c0,.02.03.07,0-.01,0,.02.01.04.02.05.03.09.06.18.07.28-.02-.1,0,.05,0,.08,0,.05,0,.09,0,.14,0,.03,0,.05,0,.08,0-.01.01-.08,0,0-.01.06-.02.12-.04.18-.07.25-.14.4-.29.64-.03.05-.07.1-.1.15-.02.03-.04.06-.07.09,0,.01-.06.07-.02.02-.07.09-.14.17-.22.25-.07.07-.14.13-.21.19.07-.05-.06.04-.07.05-.04.03-.08.05-.13.08s-.08.05-.13.07c-.03.01-.12.05-.04.02-.09.03-.17.06-.26.08-.04.01-.09.02-.13.03.1-.02-.02,0-.05,0-.09,0-.18,0-.26,0-.03,0-.09-.01,0,0-.03,0-.05,0-.08-.01-.04,0-.09-.02-.13-.03-.05-.01-.09-.03-.14-.04-.02,0-.08-.04,0,0-.02-.01-.05-.02-.07-.03-.09-.04-.17-.1-.26-.16-.02-.01-.05-.05,0,0-.02-.02-.04-.04-.06-.05-.04-.03-.08-.07-.11-.11s-.07-.08-.11-.12c-.05-.05,0,0,0,0-.02-.02-.04-.05-.05-.07-.07-.1-.13-.2-.18-.3-.01-.02-.07-.16-.05-.1-.03-.07-.05-.13-.07-.2-.04-.13-.08-.27-.1-.4-.04-.2-.28-.31-.46-.26-.21.06-.3.26-.26.46.19.94.77,1.86,1.74,2.12.91.24,1.83-.2,2.4-.91.38-.47.68-1.02.74-1.63.05-.45-.09-.92-.36-1.28-.3-.4-.72-.7-1.16-.92-.51-.25-1.07-.45-1.63-.55-.59-.11-1.2-.12-1.77.08-.62.21-1.15.61-1.62,1.06-.15.14-.14.39,0,.53s.38.14.53,0h0Z"/>
      <path class="st0" d="M34.82,17.51c2.26,3.21,1.97,8.55-1.61,10.74-1.03.63-2.23.88-3.43.85-.48-.01-.48.74,0,.75,2.33.06,4.48-.95,5.81-2.87,1.26-1.82,1.65-4.16,1.3-6.32-.2-1.26-.69-2.48-1.43-3.53-.28-.39-.93-.02-.65.38h0Z"/>
    </g>
  </g>
</svg>