<?xml version="1.0" encoding="UTF-8"?>
<svg id="_얼굴없는" data-name="얼굴없는" xmlns="http://www.w3.org/2000/svg" version="1.1" xmlns:xlink="http://www.w3.org/1999/xlink" viewBox="0 0 50.83 48.47">
  <!-- Generator: Adobe Illustrator 29.8.2, SVG Export Plug-In . SVG Version: 2.1.1 Build 3)  -->
  <defs>
    <style>
      .st0 {
        fill: #231f20;
      }

      .st1 {
        fill: #fff;
      }

      .st2 {
        fill: #f8c04e;
      }

      .st3 {
        fill: none;
      }

      .st4 {
        clip-path: url(#clippath-1);
      }

      .st5 {
        fill: #e98029;
      }

      .st6 {
        clip-path: url(#clippath);
      }
    </style>
    <clipPath id="clippath">
      <path class="st3" d="M26.84,22.07c2.2.68,3.34,2.59,4.12,4.6.45,1.16.76,2.36,1.1,3.57.51,1.92.25,4.26-1.34,5.43-1.03.76-2.37.88-3.65.95-3.26.17-7.18.06-7.8-3.93-.26-1.68.33-2.81.79-4.37.57-1.93,1.35-4.39,3.07-5.56,1.07-.73,2.46-1.07,3.71-.69Z"/>
    </clipPath>
    <clipPath id="clippath-1">
      <path class="st3" d="M37.04,18.72c-.06-1.31-.4-2.47-1.1-3.6-.25-.4-.7-.88-.68-1.35.03-.5.34-1.08.43-1.59.17-1.05.15-2.14-.09-3.18-.04-.17-.09-.35-.21-.48-.19-.2-.49-.23-.76-.22-1.53.06-3.01.95-3.78,2.28-.47-.29-1.23-.25-1.78-.36-.45-.09-.91-.22-1.37-.28-.91-.11-1.83-.16-2.75-.14-1.76.03-3.45.29-5.11.85-.62-1.2-1.9-2.12-3.25-2.04-.79.05-1.09.42-1.32,1.1-.44,1.28-.1,2.63.29,3.87.06.18.11.36.11.55,0,.41-.36.7-.53,1.04-.26.49-.47,1.01-.63,1.54-.3,1.03-.4,2.12-.29,3.19.19,1.93.9,3.92,2.41,5.33,2.34,2.19,5.81,2.36,8.97,2.24,3.59-.14,7.22-.49,9.66-3.45.46-.55.83-1.18,1.1-1.84.42-1.03.74-2.34.68-3.47Z"/>
    </clipPath>
  </defs>
  <g>
    <g>
      <path class="st2" d="M35.64,25.86c-.45.67-.51,1.51-.51,2.32s.07,1.62-.16,2.39c-.36,1.22-1.5,2.17-2.77,2.3-.47.05-.95,0-1.4.11s-.91.46-.92.93c-.02.56.57.95,1.12,1.08,1.58.37,3.33-.36,4.48-1.44,1.47-1.37,1.04-2.82,1.36-4.56.12-.68.51-1.27.78-1.91.31-.73.55-1.53-.38-1.88-.66-.24-1.26.12-1.6.64Z"/>
      <g class="st6">
        <path class="st2" d="M26.84,22.07c2.2.68,3.34,2.59,4.12,4.6.45,1.16.76,2.36,1.1,3.57.51,1.92.25,4.26-1.34,5.43-1.03.76-2.37.88-3.65.95-3.26.17-7.18.06-7.8-3.93-.26-1.68.33-2.81.79-4.37.57-1.93,1.35-4.39,3.07-5.56,1.07-.73,2.46-1.07,3.71-.69Z"/>
        <path class="st5" d="M18.92,30.65l2.04-.11c.26-.01.52-.1.71-.29.17-.17.3-.46.29-.71s-.1-.53-.29-.71-.44-.31-.71-.29l-2.04.11c-.26.01-.52.1-.71.29-.17.17-.3.46-.29.71s.1.53.29.71.44.31.71.29h0Z"/>
        <path class="st5" d="M19.46,34.34c.32-.16.65-.31.98-.44l-.24.1c.24-.1.48-.2.72-.29.13-.03.24-.09.34-.18.11-.07.19-.16.26-.28.13-.21.18-.53.1-.77s-.23-.48-.46-.6-.52-.19-.77-.1c-.66.25-1.31.52-1.94.83-.22.11-.4.37-.46.6-.07.24-.04.56.1.77s.34.4.6.46l.27.04c.18,0,.35-.05.5-.14h0Z"/>
        <path class="st5" d="M30.66,30.76l2.13-.11c.26-.01.52-.1.71-.29.17-.17.3-.46.29-.71s-.1-.53-.29-.71-.44-.31-.71-.29l-2.13.11c-.26.01-.52.1-.71.29-.17.17-.3.46-.29.71s.1.53.29.71.44.31.71.29h0Z"/>
        <path class="st5" d="M30.44,34l1.77.35c.27.05.53.04.77-.1.21-.12.41-.36.46-.6.06-.26.05-.54-.1-.77-.14-.21-.34-.41-.6-.46l-1.77-.35c-.27-.05-.53-.04-.77.1-.21.12-.41.36-.46.6-.06.26-.05.54.1.77.14.21.34.41.6.46h0Z"/>
      </g>
      <path class="st5" d="M37.03,27.93c.25-.03.34-.26.49-.59.32-.72.73-1.76-.27-2.13-1.01-.37-1.6.57-1.95,1.33-.03.06-.06.12-.06.19,0,.12.08.22.17.3.34.34.8.7,1.27.85.15.05.26.06.35.05Z"/>
      <path class="st5" d="M35.74,28.84c-.19-.08-.39-.16-.6-.23,0,.3.03.61,0,.9-.02.22-.17.59-.09.78.03.07.09.13.14.18.34.32.73.58,1.15.77.4.17.42-1.74.46-2-.36-.13-.72-.26-1.07-.41Z"/>
      <path class="st5" d="M34.48,31.54s-.52.56-.58.61c-.23.18-.51.23-.36.57.23.53.46,1.06.7,1.59.49-.06.9-.42,1.25-.76.31-.29.53-.59.69-.89-.56-.38-1.13-.76-1.7-1.12Z"/>
    </g>
    <g>
      <path class="st0" d="M21.18,24.5c-.42.9-.82,1.82-1.19,2.74s-.72,1.78-.96,2.7c-.42,1.62-.45,3.4.47,4.86.46.73,1.1,1.28,1.9,1.59.45.17.65-.55.2-.72-1.74-.67-2.27-2.78-2.06-4.45.13-1.08.51-2.12.91-3.13.43-1.09.89-2.16,1.38-3.22.2-.44-.44-.82-.65-.38h0Z"/>
      <path class="st0" d="M21.48,33.39c.02.62.08,1.25.21,1.85.11.53.37,1.07.88,1.32.27.13.55.18.84.19.27,0,.57-.02.83-.08.31-.07.58-.26.73-.54.13-.24.19-.51.23-.78.11-.7.14-1.41.06-2.12-.01-.1-.03-.19-.11-.27-.07-.07-.17-.11-.27-.11-.18,0-.4.17-.38.38.06.56.06,1.12,0,1.68,0,.04,0,.07-.01.11,0,.02,0,.03,0,.05,0,.06,0-.07,0,0-.01.07-.02.14-.03.21-.02.11-.04.23-.07.34,0,.03-.02.05-.03.08,0,.01,0,.02-.01.03-.01.04.02-.04.02-.04-.02.02-.02.05-.03.07-.01.03-.03.05-.05.08,0,0-.01.02-.02.03,0,0,.05-.06.02-.03-.02.02-.04.04-.06.06,0,0-.04.03,0,0,.05-.03,0,0-.01,0-.02.01-.07.03-.08.04.02-.03.06-.02.02,0-.01,0-.02,0-.04.01-.03,0-.06.02-.09.02-.03,0-.05.01-.08.02-.02,0-.03,0-.05,0-.05,0,0,0,.02,0-.05.02-.12.01-.17.02-.06,0-.11,0-.17.01-.11,0-.23,0-.34,0-.01,0-.02,0-.04,0-.04,0,.04,0,.04,0-.03,0-.06,0-.08-.01-.06-.01-.12-.03-.17-.05-.02,0-.04-.02-.07-.02,0,0,.08.04.02,0-.01,0-.02-.01-.03-.02-.05-.03-.1-.06-.14-.09-.04-.03.05.05.02.01,0,0-.02-.02-.03-.02-.02-.02-.04-.04-.06-.06-.02-.02-.03-.03-.05-.05,0-.01-.04-.05,0,0s0,0,0,0c-.03-.04-.05-.08-.08-.13-.01-.02-.03-.05-.04-.07,0-.01,0-.02-.01-.03.05.08.02.04,0,.01-.04-.1-.07-.21-.1-.32-.03-.13-.05-.25-.07-.38-.01-.08-.02-.15-.03-.23,0-.01-.01-.08,0-.03s0-.02,0-.03c0-.04-.01-.08-.01-.12-.04-.32-.06-.64-.07-.97,0-.2-.17-.38-.38-.38s-.38.16-.38.38h0Z"/>
      <path class="st0" d="M29.61,24.87c.49,1.06.95,2.13,1.38,3.22.4,1.01.78,2.05.91,3.13.21,1.67-.32,3.78-2.06,4.45-.45.17-.25.9.2.72,1.43-.55,2.33-1.92,2.58-3.4.31-1.86-.34-3.7-1.02-5.4-.42-1.04-.86-2.07-1.34-3.09-.2-.44-.85-.06-.65.38h0Z"/>
      <path class="st0" d="M29.21,33.39c0,.29-.03.57-.06.86,0,.07-.01.13-.02.2,0,.02,0,.03,0,.05,0,.07,0,0,0,0,0,.04-.01.08-.02.12-.02.12-.04.24-.06.37-.02.11-.05.22-.08.33-.02.05-.03.1-.05.15,0,0-.02.04-.02.04,0,0,.03-.07.01-.04-.01.03-.03.06-.04.08-.02.04-.05.09-.08.13,0,.01-.02.03-.03.04,0,0,.05-.06.02-.03-.02.02-.04.05-.06.07-.02.02-.03.03-.05.05-.01.01-.02.02-.04.03-.03.03.03-.02.03-.02-.05.02-.09.06-.14.09-.01,0-.1.05-.04.02.05-.02-.03,0-.04.01-.05.02-.11.03-.16.04-.03,0-.06,0-.08.01-.04,0,.04,0,.04,0,0,0-.05,0-.05,0-.06,0-.11,0-.17,0-.12,0-.23,0-.35-.01-.05,0-.11-.01-.16-.02-.04,0,.04,0,.04,0-.02,0-.04,0-.05,0-.03,0-.07-.01-.1-.02-.03,0-.05-.01-.08-.02-.02,0-.03-.01-.05-.02,0,0-.05-.02,0,0s0,0,0,0c-.01,0-.03-.02-.04-.03-.01,0-.02-.01-.03-.02-.04-.02.05.05.02.02-.02-.02-.04-.04-.06-.06,0,0-.03-.04,0,0,.03.05,0,0,0,0-.03-.04-.05-.09-.08-.14-.02-.04.02.04.02.04,0-.01-.01-.03-.02-.04,0-.02-.01-.04-.02-.07-.02-.06-.03-.11-.04-.17-.03-.13-.05-.26-.07-.39,0-.04,0,.02,0,.02,0-.02,0-.04,0-.06,0-.04,0-.08-.01-.12,0-.08-.02-.16-.02-.24-.01-.16-.02-.31-.02-.47,0-.32.01-.64.05-.95.02-.2-.19-.38-.38-.38-.22,0-.35.17-.38.38-.07.61-.06,1.22.02,1.83s.17,1.28.79,1.54c.27.11.57.14.85.15.27.01.55,0,.81-.09.27-.09.52-.24.7-.47s.3-.49.37-.76c.09-.32.13-.66.17-.99.04-.35.07-.69.08-1.04,0-.2-.18-.38-.38-.38-.21,0-.37.16-.38.38h0Z"/>
      <path class="st0" d="M33.64,32.79c1.01-.48,1.48-1.62,1.62-2.67.15-1.17-.05-2.47.51-3.56.12-.24.27-.45.46-.63.16-.15.46-.39.7-.33.47.11.67-.61.2-.72-.61-.14-1.22.27-1.6.71s-.61.96-.74,1.51c-.3,1.26-.03,2.6-.49,3.83-.19.52-.53.97-1.04,1.21-.18.09-.23.35-.13.51.11.19.33.22.51.13h0Z"/>
      <path class="st0" d="M31.73,35.31c1.8.08,3.53-.89,4.54-2.36.53-.78.78-1.65.86-2.58.04-.53.04-1.07.12-1.6s.28-.96.55-1.41.5-.97.35-1.52c-.13-.48-.5-.86-1.01-.87-.48-.02-.48.73,0,.75.25,0,.33.38.3.58-.05.42-.37.78-.56,1.15-.43.85-.43,1.8-.49,2.73-.05.81-.23,1.55-.66,2.24-.4.64-.96,1.17-1.61,1.55-.73.43-1.55.65-2.4.61-.48-.02-.48.73,0,.75h0Z"/>
      <path class="st0" d="M22.76,35.38c0,.07,0,.14.02.22,0,.05.02.1.03.15.02.07.05.14.08.2.02.05.05.09.08.14.02.03.04.05.06.07.02.02.05.04.09.04.03.01.07.01.1,0,.03,0,.06-.01.09-.03.05-.03.1-.09.11-.15s.01-.14-.03-.19-.07-.11-.09-.17l.03.06c-.04-.08-.06-.17-.07-.26v.07s0-.1,0-.15c0-.03,0-.07-.02-.1-.01-.03-.03-.06-.05-.08-.02-.02-.05-.04-.08-.05-.03-.02-.06-.02-.1-.02-.06,0-.13.02-.18.07s-.07.11-.07.18h0Z"/>
      <path class="st0" d="M23.59,35.61l.09.5s.02.06.04.09c.02.03.04.05.07.06.03.02.06.03.09.03.03,0,.07,0,.1,0l.06-.03s.07-.05.09-.09l.03-.06s.01-.09,0-.13l-.09-.5s-.02-.06-.04-.09c-.02-.03-.04-.05-.07-.06-.03-.02-.06-.03-.09-.03-.03,0-.07,0-.1,0l-.06.03s-.07.05-.09.09l-.03.06s-.01.09,0,.13h0Z"/>
      <path class="st0" d="M27.34,35.32c-.02.07-.03.14-.03.21,0,.05,0,.1,0,.16,0,.07.02.14.04.21s.05.14.08.2c.02.03.04.05.06.07.02.02.05.04.09.04.03.01.07.01.1,0,.03,0,.06-.01.09-.03.05-.03.1-.09.11-.15v-.07s0-.09-.03-.13c0-.01-.01-.02-.02-.04l.03.06c-.03-.07-.05-.14-.06-.22v.07c0-.08,0-.15,0-.23v.07s0-.07.01-.1c.01-.03.01-.07,0-.1,0-.03-.01-.06-.03-.09-.02-.03-.04-.05-.06-.07-.02-.02-.05-.04-.09-.04-.06-.01-.14-.01-.19.03s-.1.09-.11.15h0Z"/>
      <path class="st0" d="M28.15,35.53s.01.06.02.08v-.07c0,.08,0,.16,0,.23v-.07c0,.08-.02.15-.05.22l.03-.06s-.01.03-.02.04c-.02.03-.03.06-.03.09,0,.03,0,.07,0,.1,0,.03.02.06.04.09.02.03.04.05.07.06.06.03.13.05.19.03.06-.02.12-.06.15-.11.03-.06.06-.13.08-.2s.03-.14.04-.21c0-.05,0-.1,0-.15,0-.07-.01-.14-.03-.21,0-.03-.02-.06-.04-.09-.02-.03-.04-.05-.07-.06-.03-.02-.06-.03-.09-.03-.03,0-.07,0-.1,0-.06.02-.12.06-.15.11l-.03.06s-.01.09,0,.13h0Z"/>
    </g>
  </g>
  <g>
    <g class="st4">
      <path class="st2" d="M37.04,18.72c-.06-1.31-.4-2.47-1.1-3.6-.25-.4-.7-.88-.68-1.35.03-.5.34-1.08.43-1.59.17-1.05.15-2.14-.09-3.18-.04-.17-.09-.35-.21-.48-.19-.2-.49-.23-.76-.22-1.53.06-3.01.95-3.78,2.28-.47-.29-1.23-.25-1.78-.36-.45-.09-.91-.22-1.37-.28-.91-.11-1.83-.16-2.75-.14-1.76.03-3.45.29-5.11.85-.62-1.2-1.9-2.12-3.25-2.04-.79.05-1.09.42-1.32,1.1-.44,1.28-.1,2.63.29,3.87.06.18.11.36.11.55,0,.41-.36.7-.53,1.04-.26.49-.47,1.01-.63,1.54-.3,1.03-.4,2.12-.29,3.19.19,1.93.9,3.92,2.41,5.33,2.34,2.19,5.81,2.36,8.97,2.24,3.59-.14,7.22-.49,9.66-3.45.46-.55.83-1.18,1.1-1.84.42-1.03.74-2.34.68-3.47Z"/>
      <path class="st1" d="M23.62,18.55c-.32.14-.62.32-.88.55-.54.46-.91,1.16-.84,1.87s.67,1.36,1.38,1.38c.55.01,1.06-.35,1.37-.8s.47-1,.62-1.53c.18.57.37,1.15.77,1.59s1.07.69,1.6.42c.54-.27.73-.96.74-1.57,0-1.21-1.35-1.89-2.39-2.11-.79-.17-1.64-.1-2.38.21Z"/>
      <path class="st5" d="M24.33,12.19c-.15-1.46-.41-2.9-.8-4.31-.14-.5-.72-.86-1.23-.7s-.85.69-.7,1.23c.18.65.33,1.31.46,1.97.06.33.12.66.17,1,.01.08.02.15.03.23-.03-.27,0,0,0,.04.02.18.04.36.06.54.03.27.09.51.29.71.17.17.46.3.71.29.5-.02,1.06-.44,1-1h0Z"/>
      <path class="st5" d="M28.29,11.71c0-1.06.07-2.12.2-3.18.03-.24-.13-.55-.29-.71-.17-.17-.46-.3-.71-.29s-.53.1-.71.29c-.19.21-.26.43-.29.71-.13,1.05-.2,2.12-.2,3.18,0,.52.46,1.02,1,1s1-.44,1-1h0Z"/>
      <path class="st5" d="M34.22,18.84c1.3-.08,2.61-.06,3.91.05.52.05,1.02-.49,1-1-.03-.58-.44-.95-1-1-1.3-.11-2.61-.13-3.91-.05-.52.03-1.03.44-1,1,.02.51.44,1.03,1,1h0Z"/>
      <path class="st5" d="M33.58,22.32c.71.38,1.48.59,2.27.73.73.13,1.47.21,2.19.42.5.14,1.11-.18,1.23-.7s-.16-1.07-.7-1.23c-.69-.2-1.41-.29-2.12-.41-.35-.06-.7-.13-1.05-.22-.16-.04-.32-.09-.47-.15-.04-.02-.09-.03-.13-.05.13.06.14.06.04.02-.09-.04-.17-.08-.25-.13-.46-.25-1.11-.13-1.37.36s-.13,1.1.36,1.37h0Z"/>
      <path class="st5" d="M13.61,21.57c1-.23,2-.43,3.01-.62.23-.04.48-.26.6-.46.13-.21.18-.53.1-.77s-.23-.48-.46-.6c-.25-.13-.49-.15-.77-.1-1.01.19-2.01.4-3.01.62-.51.12-.86.73-.7,1.23.17.53.68.82,1.23.7h0Z"/>
      <path class="st5" d="M15.38,25.97c.65-.41,1.25-.89,1.85-1.36.03-.02.06-.05.09-.07-.03.03-.17.13-.06.05.07-.05.14-.11.22-.16.14-.1.27-.2.41-.3.29-.21.6-.4.91-.57.46-.25.65-.92.36-1.37s-.88-.63-1.37-.36c-.67.37-1.28.84-1.88,1.3-.13.1-.27.21-.4.31-.03.02-.14.11-.02.01.14-.1-.03.02-.04.03-.06.05-.13.1-.19.15-.29.22-.58.42-.89.62-.44.28-.66.9-.36,1.37s.89.66,1.37.36h0Z"/>
    </g>
    <g>
      <path class="st0" d="M19.6,11.39c3.68-1.55,7.84-1.68,11.61-.34.46.16.65-.56.2-.72-3.87-1.38-8.22-1.25-12.01.34-.19.08-.32.25-.26.46.05.18.27.34.46.26h0Z"/>
      <path class="st0" d="M16.35,12.83c-1.73,1.88-2.66,4.57-2.57,7.12s1.44,4.92,3.62,6.3c1.19.76,2.6,1.17,4.01,1.13.48-.02.48-.77,0-.75-2.32.07-4.54-1.23-5.8-3.16s-1.34-4.46-.66-6.68c.39-1.26,1.02-2.46,1.91-3.43.33-.35-.2-.89-.53-.53h0Z"/>
      <path class="st0" d="M34.36,13.45c1.59,1.78,2.44,4.21,2.26,6.6s-1.44,4.39-3.39,5.61c-1.05.65-2.25,1.01-3.49.97-.48-.02-.48.73,0,.75,2.48.08,4.8-1.3,6.21-3.29,1.5-2.11,1.78-4.87,1.07-7.33-.41-1.42-1.14-2.74-2.13-3.84-.32-.36-.85.17-.53.53h0Z"/>
      <path class="st0" d="M31.37,10.46c.03-.06.07-.12.11-.18.02-.03.04-.06.06-.09,0,0,.07-.1.03-.04.09-.11.19-.22.29-.32.04-.04.09-.08.14-.12.03-.02.06-.05.08-.07.09-.08-.06.04.04-.03.12-.09.24-.17.37-.25.25-.15.51-.27.74-.35.28-.1.57-.19.87-.25.26-.05.54-.06.81.04.07.02.19.11.24.15.03.02.05.05.07.07,0,0,.08.09.03.03.04.05.08.11.11.17.02.03.03.06.05.09.05.1-.02-.07.02.04.02.05.04.11.06.16.04.14.07.28.1.42.04.27.06.65.05.97-.02.73-.18,1.48-.47,2.14-.08.19-.05.4.13.51.16.09.43.05.51-.13.32-.73.52-1.5.57-2.3.04-.71,0-1.47-.29-2.13-.13-.31-.35-.57-.63-.76-.31-.21-.71-.28-1.08-.26-.7.03-1.42.29-2.04.61-.65.34-1.24.84-1.61,1.49-.1.18-.04.41.13.51s.41.04.51-.13h0Z"/>
      <path class="st0" d="M33.79,9.36c-.51.54-.9,1.17-1.14,1.88-.09.28.2.53.46.46.01,0,.02,0,.04,0h-.1s.02.01.04.01h-.1s.03,0,.05,0l-.09-.04s.06.03.08.05l-.08-.06c.1.08.19.19.29.29.1.1.2.2.3.31.14.14.39.15.53,0s.15-.38,0-.53-.29-.29-.43-.44c-.08-.08-.16-.16-.26-.23-.14-.09-.31-.12-.47-.08l.46.46c.03-.1.07-.2.11-.3l-.04.09c.16-.37.36-.72.61-1.04l-.06.08c.1-.13.21-.25.32-.37.13-.14.15-.39,0-.53s-.39-.15-.53,0h0Z"/>
      <path class="st0" d="M20.26,10.43c-.32-.58-.83-1.04-1.39-1.37s-1.25-.6-1.91-.69c-.38-.06-.78-.07-1.14.08-.34.14-.61.37-.81.69-.17.27-.26.59-.32.9-.07.38-.1.77-.09,1.15.01.9.22,1.77.58,2.59.08.19.35.23.51.13.19-.11.22-.33.13-.51-.26-.59-.43-1.28-.47-1.92s-.02-1.21.2-1.77c.04-.1-.03.06.02-.04.02-.03.03-.06.05-.09.03-.05.06-.1.09-.15.06-.09-.05.04.03-.03.02-.02.05-.05.07-.07.02-.02.04-.04.06-.06.02-.02.02-.02,0,0,.02-.01.04-.03.06-.04.06-.04.12-.07.15-.08.06-.02.13-.04.19-.05,0,0,.13-.02.06-.01.04,0,.08,0,.12,0,.08,0,.16,0,.25,0,.11,0,.25.03.39.07.16.04.31.08.47.13.07.02.13.05.2.07.04.01.07.03.11.04,0,0,.12.05.05.02.14.06.28.13.41.2.14.08.28.16.42.25.14.1.19.13.33.26.11.1.22.21.31.33,0,.01.06.07.02.02.03.04.06.08.08.12.05.07.09.14.13.21.1.18.34.24.51.13s.23-.34.13-.51h0Z"/>
      <path class="st0" d="M16.66,10.24c.11.12.22.24.32.37l-.06-.08c.25.32.45.67.61,1.04l-.04-.09c.04.1.08.2.11.3l.46-.46c-.16-.04-.32-.02-.46.07-.1.07-.18.15-.27.24-.14.15-.29.29-.43.44s-.15.39,0,.53.38.15.53,0c.1-.1.2-.2.3-.31.09-.1.18-.2.29-.29l-.08.06s.05-.04.08-.05l-.09.04s.03-.01.05-.01h-.1s.02.01.04.01h-.1s.02,0,.04,0c.26.07.56-.18.46-.46-.24-.7-.63-1.34-1.14-1.88-.14-.14-.4-.15-.53,0s-.14.38,0,.53h0Z"/>
    </g>
  </g>
</svg>