<?xml version="1.0" encoding="UTF-8"?>
<svg id="_얼굴없는" data-name="얼굴없는" xmlns="http://www.w3.org/2000/svg" version="1.1" viewBox="0 0 50.83 48.47">
  <!-- Generator: Adobe Illustrator 29.8.2, SVG Export Plug-In . SVG Version: 2.1.1 Build 3)  -->
  <defs>
    <style>
      .st0 {
        fill: #231f20;
      }

      .st1 {
        fill: #fff;
      }

      .st2 {
        fill: #f9bdbe;
      }

      .st3 {
        fill: #5c564d;
      }
    </style>
  </defs>
  <g>
    <path class="st1" d="M20.03,28.82c-.05.49-.08.99-.03,1.48.07.81.33,1.6.74,2.3.09.15.19.3.22.47.05.23-.02.47-.08.69-.34,1.17-.64,2.46-.23,3.65.38,1.12,1.7,1.57,2.63.67.46,1.66,2.08-.24,2.14-.13.25.43.65.82,1.14.89s1.05-.29,1.06-.79c.27.4.86.56,1.32.46.22-.05,1.07-.85,1.09-.84.64.28,1.39,0,1.98-.38,1.15-.75,1.98-1.95,2.34-3.26s-.11-2.74.72-3.94c.2-.29.5-.6.41-.94-.09-.33-.54-.46-.86-.32s-.51.46-.66.77c-.39.86-.33,1.73-.52,2.63s-.62,1.84-1.04,2.68c-.34.68-.92,1.09-1.58,1.45-.06.03-.11.06-.18.06-.16,0-.23-.19-.27-.34-.19-.75-.38-1.51-.57-2.26-.04-.17-.09-.35-.07-.52.02-.26.16-.5.29-.72,1.86-3.09.38-7.72-3.12-8.89-1.85-.62-4.02-.14-5.45,1.19-1.11,1.04-1.28,2.53-1.43,3.97Z"/>
    <path class="st3" d="M23.14,37.33c.24-.57.75-.97.99-1.54.67-1.61-1.27-3.07-2.48-3.67-.62-.31-1.15-.66-1.54-1.1.13.55.33,1.09.62,1.58.09.15.19.3.22.47.05.23-.02.47-.08.69-.34,1.17-.64,2.46-.23,3.65.35,1.03,1.48,1.48,2.38.86-.05-.31-.02-.64.11-.94Z"/>
    <path class="st3" d="M35.48,29.13c-.09-.33-.54-.46-.86-.32-.32.14-.51.46-.66.77-.39.86-.33,1.73-.52,2.63-.2.92-.62,1.84-1.04,2.68-.34.68-.92,1.09-1.58,1.45-.06.03-.11.06-.18.06-.16,0-.23-.19-.27-.34-.19-.75-.38-1.51-.57-2.26-.04-.17-.09-.35-.07-.52.02-.26.16-.5.29-.72.5-.82.93-1.74.93-2.72-.4.96-1.08,1.81-1.94,2.4-.58.41-1.26.71-1.72,1.26-.51.61-.67,1.5-.4,2.25.14.39.78,2.42,1.04,2.58.3.18.68.25,1.01.17.22-.05,1.07-.85,1.09-.84.64.28,1.39,0,1.98-.38,1.15-.75,1.98-1.95,2.34-3.26.37-1.33-.11-2.74.72-3.94.2-.29.5-.6.41-.94Z"/>
    <g>
      <path class="st0" d="M20.74,25c-1.17,1.74-1.65,3.96-1.03,5.99s2.55,3.54,3.07,5.68c.13.54.18,1.1.24,1.65.03.28.1.53.34.69.21.14.48.17.69.02.39-.28.01-.93-.38-.65.06-.04.07.03.1-.04.02-.04-.01-.14-.02-.19-.01-.1-.02-.2-.03-.3-.03-.22-.05-.45-.09-.67-.06-.42-.15-.84-.29-1.24-.3-.9-.84-1.67-1.39-2.44s-1.17-1.63-1.48-2.57c-.29-.86-.37-1.78-.24-2.67.15-1.04.56-2.02,1.14-2.89.27-.4-.38-.78-.65-.38h0Z"/>
      <path class="st0" d="M23.85,32.07c.38,1.14.66,2.32.8,3.52.07.59.12,1.19.13,1.79,0,.21.01.45-.03.63-.05.2-.08.29-.25.36-.19.08-.23.35-.13.51.11.19.33.21.51.13.51-.21.64-.82.66-1.31.02-.64-.04-1.29-.12-1.92-.15-1.33-.43-2.64-.85-3.91-.06-.19-.26-.32-.46-.26-.19.05-.33.27-.26.46h0Z"/>
      <path class="st0" d="M20.7,33.48c-.28.93-.67,1.85-.67,2.84,0,.91.37,1.85,1.21,2.3.43.23.94.32,1.41.16.19-.06.33-.26.26-.46-.06-.19-.26-.33-.46-.26-.04.01-.08.02-.12.03-.02,0-.12.02-.05.01-.09,0-.18,0-.27,0,.07,0-.03,0-.05-.01-.04,0-.08-.02-.12-.03s-.08-.02-.11-.04c-.06-.02.05.02,0,0-.02,0-.04-.02-.06-.03-.08-.04-.15-.08-.22-.13-.01-.01-.03-.02-.04-.03-.05-.04.04.03,0,0-.04-.03-.07-.06-.1-.09-.03-.03-.06-.06-.08-.09-.02-.02-.03-.04-.05-.05,0,0-.04-.05-.01-.02.03.03-.02-.02-.02-.03,0-.01-.02-.03-.03-.04-.03-.04-.05-.09-.08-.13s-.05-.1-.07-.15c.02.04-.02-.06-.03-.08-.03-.1-.06-.19-.08-.29,0-.05-.02-.09-.03-.14-.01-.07,0,.05,0-.02,0-.02,0-.04,0-.06-.01-.11-.02-.22-.01-.33,0-.42.07-.76.19-1.18.13-.48.31-.96.45-1.44.06-.19-.07-.42-.26-.46s-.4.06-.46.26h0Z"/>
      <path class="st0" d="M28.51,24.94c1.09,1.53,2.25,3.37,1.95,5.34s-2.12,3.45-2.88,5.32c-.18.44-.3.9-.38,1.36-.04.23-.07.47-.1.71-.02.13-.03.26-.04.4,0,.05-.01.1-.02.15,0,.05,0,.09-.01.13-.02.05.02.07.1.04-.39-.28-.77.37-.38.65.41.3.91-.08,1.01-.51.12-.5.1-1.04.2-1.55.21-1.07.72-1.94,1.34-2.82.66-.94,1.38-1.89,1.74-3s.28-2.19-.05-3.24c-.39-1.22-1.08-2.32-1.82-3.36-.28-.39-.93-.02-.65.38h0Z"/>
      <path class="st0" d="M26.23,31.87c-.42,1.27-.7,2.58-.85,3.91-.07.63-.13,1.28-.12,1.92.01.5.15,1.1.66,1.31.19.08.4.06.51-.13.09-.16.05-.43-.13-.51-.02,0-.12-.07-.1-.05-.02-.02-.04-.04-.06-.06.01.02.01.01,0,0-.05-.08-.06-.12-.09-.23-.05-.19-.04-.43-.03-.65.02-.6.06-1.19.13-1.79.15-1.19.42-2.37.8-3.52.06-.19-.07-.41-.26-.46-.2-.06-.4.07-.46.26h0Z"/>
      <path class="st0" d="M29.38,33.68c.13.42.28.84.4,1.27.06.22.12.43.17.65s.06.32.07.54c0,.1,0,.21,0,.31,0,.05,0,.1,0,.14,0,.02,0,.04,0,.06,0,.02-.01.09,0,.04-.01.09-.03.19-.06.28-.01.05-.03.09-.04.14,0,.03-.02.05-.03.08,0,0-.03.08-.01.04-.04.09-.08.17-.13.25-.02.03-.04.07-.07.1s0,0,0,0c-.02.02-.04.05-.06.07-.05.06-.11.12-.17.17,0,0-.06.05-.03.03.03-.02-.02.01-.02.01-.04.03-.09.06-.13.09-.04.02-.08.05-.12.07-.02,0-.03.02-.05.02-.1.05.04-.01-.02,0-.09.03-.18.06-.28.08-.02,0-.07,0,0,0-.02,0-.04,0-.07,0-.05,0-.09,0-.14,0-.02,0-.05,0-.07,0,.06,0,.01,0-.02,0-.05-.01-.1-.02-.15-.04-.19-.06-.42.07-.46.26-.05.2.06.4.26.46.84.27,1.76-.2,2.22-.92.52-.83.46-1.88.23-2.79-.14-.54-.34-1.06-.49-1.59-.06-.19-.27-.33-.46-.26s-.32.26-.26.46h0Z"/>
      <path class="st0" d="M30.59,36.67c1.25-.18,2.11-1.25,2.57-2.35.56-1.35.51-2.85.97-4.23.09-.28.19-.59.4-.81.08-.09.36-.26.45-.09.08.14-.26.52-.33.65-.17.3-.29.64-.36.97-.3,1.28-.11,2.64-.68,3.85s-1.62,2.17-2.9,2.57c-.46.14-.26.87.2.72,1.29-.4,2.4-1.29,3.1-2.44.35-.58.59-1.23.7-1.89.12-.74.12-1.49.24-2.23.05-.33.13-.68.27-.99.15-.34.44-.63.52-1,.16-.76-.68-1.22-1.32-.94-.69.31-.95,1.21-1.12,1.87-.2.78-.28,1.58-.44,2.37-.26,1.34-.9,3.01-2.45,3.24-.2.03-.31.28-.26.46.06.21.26.29.46.26h0Z"/>
    </g>
  </g>
  <g>
    <path class="st1" d="M32.78,21.21c-1.95-2.9-5.38-5.58-9.09-4.94-2.85.5-4.61,2.88-6.24,5.14-.04.3-.11.59-.11.92,0,1.27.69,2.51,1.73,3.24.57.4,1.24.42,1.81.75.49.28.91.76,1.4,1.07.43.27.87.54,1.36.7,1.03.34,2.52.29,3.46-.27.43-.26.79-.61,1.21-.89.63-.41,1.37-.62,2.04-.96.98-.5,1.72-1.25,2.09-2.29.2-.57.05-1.79.36-2.44,0,0,0-.01-.01-.02Z"/>
    <path class="st3" d="M39.77,8.05c-1.05-1.04-3.02.54-4.01,1.13-2.38,1.41-4.19,3.19-6.36,4.89-.18.14-.58.63-.75.68-.29.09-.59-.15-.91-.24-.61-.19-1.27-.19-1.9-.18-1.18,0-2.73.6-3.83.46-.78-.1-1.41-1.15-2.25-1.74-1.05-.74-1.76-1.65-2.88-2.31-1.21-.71-2.43-1.42-3.6-2.2-.17-.12-.35-.23-.52-.35-.35-.24-.71-.49-1.12-.58s-.9,0-1.15.35c-.57.79.35,3.11.57,3.95.44,1.71.88,3.42,1.32,5.13.25.98.54,2.02,1.26,2.74.48.47,1.13.79,1.45,1.39.21.4.29.94.69,1.14.29.14.62.05.94.05,1.02,0,.81,1.18,1.48,1.6,2,1.25,4.71-.83,5.42-2.6.37-.92.54-1.91.74-2.89.06-.33.27-.75.59-.67.24.06.32.36.36.61.1.64.24,1.28.41,1.9.49,1.79,2.27,3.49,4.16,3.63,1.99.15,2.11-1.28,3.53-1.9.38-.17.83-.19,1.16-.45.51-.42.47-1.25.92-1.73.25-.27.62-.38.94-.57.91-.53,1.36-1.59,1.57-2.62s.24-2.1.58-3.09c.28-.81.76-1.53,1.1-2.31.33-.75.77-2.52.08-3.2Z"/>
    <path class="st2" d="M17.9,19.33c.15-.77.16-1.6.39-2.36.13-.46.83-1.25.8-1.62-.08-1.32-3.14-3.53-4.17-4.13-.49-.28-2.23-1.97-2.84-1.65-.77.41.18,2.87.35,3.53.32,1.25.7,2.9,1.28,4.03s1.95,1.84,2.62,3.01c.12.2.24.42.45.53.76.42,1.02-.89,1.11-1.34Z"/>
    <path class="st2" d="M38.2,9.65c-1.15-.31-3.97,2.08-4.49,2.51-1.15.95-2.25,2.09-2.86,3.48.03.12.13.21.31.35.35.27.75.54.92.97.38.95.17,2.29.47,3.34.08.27.25.58.52.56.23-.01.37-.25.47-.45.37-.72.79-1.45,1.45-1.92.33-.24.71-.4,1.01-.68.42-.39.63-.94.83-1.48.33-.93.63-1.87.93-2.82.26-.82.52-1.65.78-2.47.1-.32.2-.67.09-.99-.08-.22-.23-.35-.42-.4Z"/>
    <g>
      <path class="st0" d="M17.5,18.79c-.46,1.99-.91,4.26.31,6.08.26.38.57.71.95.98.42.3.91.47,1.39.66.82.32,1.47.83,2.19,1.34.8.57,1.66.99,2.66.83.2-.03.31-.28.26-.46-.06-.21-.26-.29-.46-.26-.73.12-1.4-.28-1.98-.67-.63-.44-1.22-.95-1.93-1.27-.82-.37-1.69-.58-2.28-1.31-.49-.6-.75-1.4-.82-2.16-.1-1.2.17-2.38.44-3.54.11-.47-.61-.67-.72-.2h0Z"/>
      <path class="st0" d="M20.79,15.71c1.25-.64,2.71-.79,4.1-.88s2.7-.02,3.86.65c.42.24.8-.41.38-.65-1.28-.74-2.79-.85-4.24-.76-1.52.09-3.1.27-4.48.98-.43.22-.05.87.38.65h0Z"/>
      <path class="st0" d="M31.97,18.99c.42,1.8.88,3.88-.25,5.53-.53.77-1.34,1.04-2.17,1.38-.76.31-1.4.8-2.08,1.26-.72.5-1.47.89-2.38.78-.2-.03-.38.19-.38.38,0,.22.17.35.38.38,1.86.24,3.04-1.36,4.59-2.04.47-.21.97-.36,1.43-.6.4-.22.76-.52,1.05-.88.58-.73.89-1.62.98-2.53.14-1.29-.17-2.59-.46-3.84-.11-.47-.83-.27-.72.2h0Z"/>
      <path class="st0" d="M28.75,15.17c.98-1.13,2.18-2.03,3.36-2.93s2.31-1.87,3.57-2.66c.61-.38,1.24-.73,1.9-1.01.48-.2,1.09-.49,1.63-.42.21.03.36.16.43.32.13.31.12.64.09.99-.06.77-.32,1.63-.62,2.26-.2.43.44.82.65.38.35-.74.58-1.54.69-2.35.1-.74.1-1.75-.64-2.18-.39-.23-.87-.21-1.3-.11-.76.18-1.51.52-2.2.88-1.44.75-2.68,1.78-3.95,2.77-1.43,1.11-2.95,2.15-4.15,3.53-.32.36.21.9.53.53h0Z"/>
      <path class="st0" d="M33.41,22.46c.48-.15,1.06-.29,1.41-.68s.51-.9.77-1.33c.19-.3.54-.46.84-.63.34-.19.65-.42.9-.73.54-.68.75-1.53.97-2.34.31-1.14.62-2.28.93-3.42.13-.47-.6-.67-.72-.2-.27.97-.53,1.94-.8,2.92-.21.79-.37,1.65-.81,2.35-.19.31-.44.53-.75.72s-.65.35-.92.6c-.42.38-.59.96-.88,1.44-.02.04-.05.08-.08.12.05-.07-.02.02-.05.04-.04.05-.07.06-.04.04-.04.03-.08.05-.12.07-.24.14-.56.22-.86.32-.46.14-.26.87.2.72h0Z"/>
      <path class="st0" d="M36.96,9.71c-1.33.84-2.6,1.79-3.78,2.83-.59.52-1.16,1.06-1.7,1.62-.44.45-1.06,1.06-.69,1.75.15.29.44.49.7.67.13.09.21.12.27.25.01.03.04.11.03.11v.02s0-.03,0-.04c.02-.02.08-.06,0-.02-.43.23-.05.88.38.65.32-.17.41-.53.32-.86s-.34-.54-.61-.73c-.1-.07-.2-.14-.29-.22-.03-.02-.05-.05-.07-.07,0,0-.06-.07-.03-.03-.01-.02-.03-.04-.04-.06-.04-.07,0,.04-.02-.04,0-.02-.01-.05-.02-.07,0,.07,0,.01,0,0,.01-.08,0-.02,0,0s.03-.1.02-.07c.05-.13.17-.27.28-.38,1.06-1.14,2.23-2.18,3.46-3.13.7-.53,1.42-1.04,2.16-1.51.41-.26.03-.91-.38-.65h0Z"/>
      <path class="st0" d="M22.05,14.64c-.93-1.07-2.05-1.93-3.18-2.79s-2.22-1.78-3.39-2.58c-.6-.41-1.23-.79-1.89-1.11-.61-.29-1.27-.59-1.94-.72-.54-.11-1.13-.02-1.41.5-.19.36-.22.8-.21,1.2.03.95.23,1.97.62,2.84.19.44.84.06.65-.38.04.08-.03-.08-.04-.1-.02-.07-.05-.14-.07-.21-.06-.19-.11-.38-.16-.57-.1-.4-.18-.8-.22-1.21-.03-.35-.06-.73.04-1.07.02-.07.02-.08.06-.15,0-.01.07-.08.04-.06.25-.17.58-.05.84.03,2.49.75,4.44,2.53,6.47,4.07,1.15.87,2.3,1.75,3.25,2.84.32.36.85-.17.53-.53h0Z"/>
      <path class="st0" d="M10.83,12.97c.42,1.43.68,2.9,1.2,4.31.26.7.57,1.39.99,2.01.21.31.45.61.72.87.29.28.63.52.93.79.35.33.54.75.85,1.11.33.39.82.62,1.33.51.47-.11.27-.83-.2-.72-.35.08-.61-.31-.77-.56-.22-.34-.43-.65-.73-.92s-.62-.49-.9-.77c-.23-.23-.43-.48-.61-.75-.78-1.16-1.16-2.53-1.5-3.87-.19-.74-.36-1.48-.57-2.22-.13-.46-.86-.27-.72.2h0Z"/>
      <path class="st0" d="M12.93,10.36c1.31.83,2.56,1.77,3.73,2.8.59.52,1.15,1.06,1.69,1.63.12.12.25.24.35.38.05.06.09.13.12.2.03.07-.02-.07.02.05.02.06,0,0,0,.03,0,.02,0,.1,0,.02,0,.02,0,.05-.02.07-.03.07,0,.02,0,0-.01.02-.02.04-.04.06-.07.09.02-.02-.02.03-.02.03-.05.05-.07.07-.04.04-.09.08-.13.12-.28.22-.59.37-.74.71s-.12.81.26,1.01c.43.23.8-.42.38-.65-.06-.03,0,.01.01.05.02.03,0-.06,0,0,0-.03.01-.05.02-.08.03-.08.1-.15.17-.2.25-.17.51-.34.7-.58s.27-.52.19-.82c-.08-.35-.34-.63-.58-.88-1.09-1.14-2.27-2.19-3.52-3.15-.7-.53-1.42-1.04-2.16-1.51-.41-.26-.79.39-.38.65h0Z"/>
      <path class="st0" d="M21.92,25.09c-.11.14-.19.28-.25.44-.05.14-.08.29-.09.44-.02.3.05.61.18.88.08.15.18.29.31.4.1.09.26.1.35,0,.09-.1.1-.26,0-.35-.05-.04-.09-.09-.13-.13-.02-.03.02.02.02.02,0,0-.01-.01-.01-.02,0-.01-.02-.02-.02-.03-.02-.03-.04-.05-.05-.08-.02-.03-.03-.05-.04-.08,0-.01-.01-.03-.02-.04-.01-.02.01.04.01.03,0,0,0-.02-.01-.03-.02-.06-.04-.12-.06-.18,0-.03-.01-.06-.02-.08,0-.02,0-.03,0-.05,0,0,0,.06,0,.04,0-.01,0-.02,0-.03,0-.06,0-.12,0-.18,0-.03,0-.06,0-.09,0-.01,0-.03,0-.04,0,0-.01.07,0,.03,0-.01,0-.02,0-.03.01-.06.02-.12.04-.18,0-.03.02-.07.04-.1,0,0-.03.06-.01.03,0,0,0-.01.01-.02,0-.02.02-.03.02-.05.02-.03.03-.06.05-.09,0-.01.02-.03.03-.04.01-.02.06-.08,0,0,.04-.05.07-.1.07-.18,0-.06-.03-.13-.07-.18-.09-.08-.27-.11-.35,0h0Z"/>
      <path class="st0" d="M27.85,25.34c.06.03.11.06.16.1l-.05-.04c.06.05.12.11.17.17l-.04-.05c.06.08.11.16.14.25l-.03-.06c.04.1.07.2.08.31v-.07c0,.1,0,.21,0,.31v-.07c0,.09-.03.18-.06.27l.03-.06c-.03.07-.07.14-.11.2l.04-.05s-.01.02-.02.02c-.04.05-.07.11-.07.18,0,.06.03.13.07.18.09.08.27.11.35,0,.1-.13.18-.27.23-.43.04-.14.06-.29.05-.43-.01-.31-.12-.61-.32-.85-.1-.12-.23-.23-.38-.3-.12-.06-.28-.04-.34.09-.06.11-.04.28.09.34h0Z"/>
    </g>
  </g>
</svg>