<svg width="28" height="28" viewBox="0 0 28 28" fill="none" xmlns="http://www.w3.org/2000/svg">
<path d="M17.4883 3C20.5236 3.00007 22.9844 5.4608 22.9844 8.49609C22.9844 9.51736 22.704 10.4727 22.2188 11.292C24.9162 11.6425 27 13.9473 27 16.7402C26.9999 19.7755 24.5391 22.2363 21.5039 22.2363C20.4569 22.2363 19.4784 21.9428 18.6455 21.4346C18.1355 23.9421 15.9188 25.829 13.2607 25.8291C10.5289 25.8291 8.26278 23.8361 7.83691 21.2246C7.4077 21.3323 6.95868 21.3906 6.49609 21.3906C3.46081 21.3906 1.00009 18.9298 1 15.8945C1 13.8484 2.11871 12.0643 3.77734 11.1182C3.35357 10.3389 3.1133 9.4455 3.11328 8.49609C3.11328 5.46076 5.57404 3 8.60938 3C10.4333 3.00004 12.0492 3.88901 13.0488 5.25684C14.0485 3.88905 15.6643 3 17.4883 3Z" fill="#FFC400"/>
<path d="M20.2883 4.08088L20.4684 3.61443L20.2883 4.08088ZM21.5963 5.34657L22.0584 5.15538L21.5963 5.34657ZM22.3457 7.15736L21.8837 7.34855L22.3457 7.15736ZM22.7722 8.88518L22.2732 8.91663L22.7722 8.88518ZM22.824 9.70761L23.323 9.67616L22.824 9.70761ZM23.7847 11.9249L24.0624 11.5092L23.7847 11.9249ZM26.3754 18.5495L25.9481 18.2898L26.3754 18.5495ZM25.8583 19.4002L25.4311 19.1405L25.8583 19.4002ZM23.8607 21.4353L24.0243 21.9078L23.8607 21.4353ZM22.8972 21.7689L22.7336 21.2964L22.8972 21.7689ZM20.2585 22.5625L20.1711 22.0702L20.2585 22.5625ZM18.8352 22.8154L18.9227 23.3077L18.8352 22.8154ZM17.3657 23.6083L17.0355 23.2329V23.2329L17.3657 23.6083ZM14.0747 25.5772L14.0597 26.077L14.0747 25.5772ZM12.0394 25.5162L12.0543 25.0164L12.0394 25.5162ZM10.3055 24.7624L9.95021 25.1142L10.3055 24.7624ZM8.87321 23.3157L9.22852 22.9639L8.87321 23.3157ZM7.41356 22.2369L7.19787 22.688L7.41356 22.2369ZM5.92657 21.5259L6.14225 21.0748L5.92657 21.5259ZM4.31583 20.6395L4.57689 20.213L4.31583 20.6395ZM2.58136 19.5776L2.3203 20.0041L2.58136 19.5776ZM1.38529 16.045L0.888262 16.0994L1.38529 16.045ZM2.15949 13.2691L1.71188 13.0462L2.15949 13.2691ZM2.60139 12.3814L2.15379 12.1586L2.60139 12.3814ZM3.43713 7.0726L3.86007 7.3393L3.43713 7.0726ZM4.51629 5.36125L4.09335 5.09455L4.51629 5.36125ZM7.78764 3.49006L7.61342 3.0214L7.78764 3.49006ZM11.5967 4.04482L11.4494 4.52265L11.5967 4.04482ZM13.9724 3.75147L13.779 3.29037L13.9724 3.75147ZM14.6772 3.45592L14.8705 3.91701L14.6772 3.45592ZM15.9085 3.05607L15.8114 2.5656L15.9085 3.05607ZM19.355 3.72059L19.1749 4.18704L20.1083 4.54733L20.2883 4.08088L20.4684 3.61443L19.535 3.25413L19.355 3.72059ZM20.2883 4.08088L20.1083 4.54733C20.6058 4.73941 20.9381 5.06361 21.1343 5.53775L21.5963 5.34657L22.0584 5.15538C21.755 4.42233 21.2153 3.90274 20.4684 3.61443L20.2883 4.08088ZM21.5963 5.34657L21.1343 5.53775L21.509 6.44315L21.971 6.25196L22.433 6.06078L22.0584 5.15538L21.5963 5.34657ZM21.971 6.25196L21.509 6.44315L21.8837 7.34855L22.3457 7.15736L22.8077 6.96617L22.433 6.06078L21.971 6.25196ZM22.3457 7.15736L21.8837 7.34855C22.1163 7.91065 22.2427 8.43253 22.2732 8.91663L22.7722 8.88518L23.2712 8.85373C23.2326 8.24127 23.0747 7.61127 22.8077 6.96617L22.3457 7.15736ZM22.7722 8.88518L22.2732 8.91663L22.325 9.73905L22.824 9.70761L23.323 9.67616L23.2712 8.85373L22.7722 8.88518ZM22.824 9.70761L22.325 9.73905L22.3768 10.5615L22.8758 10.53L23.3749 10.4986L23.323 9.67616L22.824 9.70761ZM22.8758 10.53L22.3768 10.5615C22.4236 11.3039 22.8419 11.8965 23.507 12.3407L23.7847 11.9249L24.0624 11.5092C23.5848 11.1901 23.3972 10.8527 23.3749 10.4986L22.8758 10.53ZM23.7847 11.9249L23.507 12.3407L24.364 12.9132L24.6418 12.4974L24.9195 12.0817L24.0624 11.5092L23.7847 11.9249ZM24.6418 12.4974L24.364 12.9132L25.2211 13.4857L25.4988 13.0699L25.7765 12.6541L24.9195 12.0817L24.6418 12.4974ZM25.4988 13.0699L25.2211 13.4857C25.6738 13.7881 25.9239 14.1899 25.9943 14.722L26.49 14.6565L26.9857 14.5909C26.8772 13.771 26.4665 13.115 25.7765 12.6541L25.4988 13.0699ZM26.49 14.6565L25.9943 14.722L26.1285 15.7361L26.6242 15.6705L27.1198 15.605L26.9857 14.5909L26.49 14.6565ZM26.6242 15.6705L26.1285 15.7361L26.2626 16.7502L26.7583 16.6846L27.254 16.619L27.1198 15.605L26.6242 15.6705ZM26.7583 16.6846L26.2626 16.7502C26.3376 17.3166 26.2319 17.8229 25.9481 18.2898L26.3754 18.5495L26.8027 18.8091C27.2084 18.1416 27.3579 17.4048 27.254 16.619L26.7583 16.6846ZM26.3754 18.5495L25.9481 18.2898L25.4311 19.1405L25.8583 19.4002L26.2856 19.6599L26.8027 18.8091L26.3754 18.5495ZM25.8583 19.4002L25.4311 19.1405L24.914 19.9913L25.3413 20.251L25.7686 20.5107L26.2856 19.6599L25.8583 19.4002ZM25.3413 20.251L24.914 19.9913C24.6313 20.4564 24.2324 20.7775 23.6971 20.9628L23.8607 21.4353L24.0243 21.9078C24.7737 21.6484 25.3618 21.1799 25.7686 20.5107L25.3413 20.251ZM23.8607 21.4353L23.6971 20.9628L22.7336 21.2964L22.8972 21.7689L23.0608 22.2414L24.0243 21.9078L23.8607 21.4353ZM22.8972 21.7689L22.7336 21.2964L21.7701 21.63L21.9337 22.1024L22.0973 22.5749L23.0608 22.2414L22.8972 21.7689ZM21.9337 22.1024L21.7701 21.63C21.1434 21.8469 20.6116 21.9919 20.1711 22.0702L20.2585 22.5625L20.346 23.0548C20.8544 22.9644 21.4394 22.8027 22.0973 22.5749L21.9337 22.1024ZM20.2585 22.5625L20.1711 22.0702L19.4594 22.1967L19.5469 22.689L19.6344 23.1812L20.346 23.0548L20.2585 22.5625ZM19.5469 22.689L19.4594 22.1967L18.7477 22.3231L18.8352 22.8154L18.9227 23.3077L19.6344 23.1812L19.5469 22.689ZM18.8352 22.8154L18.7477 22.3231C18.1543 22.4286 17.5834 22.751 17.0355 23.2329L17.3657 23.6083L17.6959 23.9838C18.1584 23.5771 18.5672 23.3709 18.9227 23.3077L18.8352 22.8154ZM17.3657 23.6083L17.0355 23.2329L16.2778 23.8993L16.608 24.2748L16.9382 24.6503L17.6959 23.9838L17.3657 23.6083ZM16.608 24.2748L16.2778 23.8993L15.52 24.5658L15.8502 24.9412L16.1804 25.3167L16.9382 24.6503L16.608 24.2748ZM15.8502 24.9412L15.52 24.5658C15.1109 24.9256 14.6428 25.094 14.0897 25.0774L14.0747 25.5772L14.0597 26.077C14.8636 26.1011 15.5791 25.8455 16.1804 25.3167L15.8502 24.9412ZM14.0747 25.5772L14.0897 25.0774L13.072 25.0469L13.057 25.5467L13.0421 26.0465L14.0597 26.077L14.0747 25.5772ZM13.057 25.5467L13.072 25.0469L12.0543 25.0164L12.0394 25.5162L12.0244 26.016L13.0421 26.0465L13.057 25.5467ZM12.0394 25.5162L12.0543 25.0164C11.5041 24.9999 11.048 24.8016 10.6608 24.4106L10.3055 24.7624L9.95021 25.1142C10.5179 25.6876 11.2177 25.9918 12.0244 26.016L12.0394 25.5162ZM10.3055 24.7624L10.6608 24.4106L9.94468 23.6873L9.58937 24.039L9.23405 24.3908L9.95021 25.1142L10.3055 24.7624ZM9.58937 24.039L9.94468 23.6873L9.22852 22.9639L8.87321 23.3157L8.5179 23.6675L9.23405 24.3908L9.58937 24.039ZM8.87321 23.3157L9.22852 22.9639C8.71977 22.4501 8.1874 22.0527 7.62924 21.7858L7.41356 22.2369L7.19787 22.688C7.63105 22.8951 8.07178 23.2169 8.5179 23.6675L8.87321 23.3157ZM7.41356 22.2369L7.62924 21.7858L6.88575 21.4303L6.67006 21.8814L6.45438 22.3325L7.19787 22.688L7.41356 22.2369ZM6.67006 21.8814L6.88575 21.4303L6.14225 21.0748L5.92657 21.5259L5.71088 21.977L6.45438 22.3325L6.67006 21.8814ZM5.92657 21.5259L6.14225 21.0748C5.66522 20.8467 5.1436 20.56 4.57689 20.213L4.31583 20.6395L4.05477 21.0659C4.64438 21.4268 5.19659 21.731 5.71088 21.977L5.92657 21.5259ZM4.31583 20.6395L4.57689 20.213L3.70966 19.6821L3.4486 20.1085L3.18754 20.535L4.05477 21.0659L4.31583 20.6395ZM3.4486 20.1085L3.70966 19.6821L2.84242 19.1512L2.58136 19.5776L2.3203 20.0041L3.18754 20.535L3.4486 20.1085ZM2.58136 19.5776L2.84242 19.1512C2.39467 18.8771 2.15756 18.5031 2.10154 17.9917L1.60451 18.0461L1.10749 18.1006C1.19761 18.9233 1.61174 19.5703 2.3203 20.0041L2.58136 19.5776ZM1.60451 18.0461L2.10154 17.9917L1.99193 16.9911L1.4949 17.0455L0.997875 17.1L1.10749 18.1006L1.60451 18.0461ZM1.4949 17.0455L1.99193 16.9911L1.88232 15.9905L1.38529 16.045L0.888262 16.0994L0.997875 17.1L1.4949 17.0455ZM1.38529 16.045L1.88232 15.9905C1.81951 15.4172 1.91396 14.8842 2.16518 14.3795L1.71758 14.1567L1.26998 13.9339C0.931993 14.6128 0.80492 15.3386 0.888262 16.0994L1.38529 16.045ZM1.71758 14.1567L2.16518 14.3795L2.60709 13.4919L2.15949 13.2691L1.71188 13.0462L1.26998 13.9339L1.71758 14.1567ZM2.15949 13.2691L2.60709 13.4919L3.04899 12.6042L2.60139 12.3814L2.15379 12.1586L1.71188 13.0462L2.15949 13.2691ZM2.60139 12.3814L3.04899 12.6042C3.37687 11.9456 3.53454 11.2695 3.50644 10.582L3.00686 10.6024L2.50728 10.6228C2.52776 11.1238 2.41512 11.6336 2.15379 12.1586L2.60139 12.3814ZM3.00686 10.6024L3.50644 10.582L3.47001 9.6906L2.97042 9.71102L2.47084 9.73144L2.50728 10.6228L3.00686 10.6024ZM2.97042 9.71102L3.47001 9.6906L3.43357 8.79923L2.93399 8.81965L2.43441 8.84007L2.47084 9.73144L2.97042 9.71102ZM2.93399 8.81965L3.43357 8.79923C3.41396 8.31944 3.5469 7.83592 3.86007 7.3393L3.43713 7.0726L3.0142 6.80591C2.60792 7.45019 2.40544 8.13136 2.43441 8.84007L2.93399 8.81965ZM3.43713 7.0726L3.86007 7.3393L4.39964 6.48362L3.97671 6.21692L3.55378 5.95023L3.0142 6.80591L3.43713 7.0726ZM3.97671 6.21692L4.39964 6.48362L4.93922 5.62794L4.51629 5.36125L4.09335 5.09455L3.55378 5.95023L3.97671 6.21692ZM4.51629 5.36125L4.93922 5.62794C5.24303 5.14616 5.6409 4.82152 6.14068 4.63573L5.96646 4.16707L5.79224 3.6984C5.07789 3.96395 4.50898 4.43543 4.09335 5.09455L4.51629 5.36125ZM5.96646 4.16707L6.14068 4.63573L7.05127 4.29723L6.87705 3.82856L6.70283 3.3599L5.79224 3.6984L5.96646 4.16707ZM6.87705 3.82856L7.05127 4.29723L7.96186 3.95873L7.78764 3.49006L7.61342 3.0214L6.70283 3.3599L6.87705 3.82856ZM7.78764 3.49006L7.96186 3.95873C8.46127 3.77308 8.97367 3.75965 9.51713 3.92714L9.66439 3.44931L9.81165 2.97149C9.0669 2.74197 8.32813 2.75571 7.61342 3.0214L7.78764 3.49006ZM9.66439 3.44931L9.51713 3.92714L10.4833 4.22489L10.6305 3.74707L10.7778 3.26925L9.81165 2.97149L9.66439 3.44931ZM10.6305 3.74707L10.4833 4.22489L11.4494 4.52265L11.5967 4.04482L11.744 3.567L10.7778 3.26925L10.6305 3.74707ZM11.5967 4.04482L11.4494 4.52265C12.169 4.74441 12.8524 4.76333 13.461 4.50812L13.2676 4.04702L13.0743 3.58593C12.7431 3.72479 12.3126 3.74224 11.744 3.567L11.5967 4.04482ZM13.2676 4.04702L13.461 4.50812L14.1658 4.21257L13.9724 3.75147L13.779 3.29037L13.0743 3.58593L13.2676 4.04702ZM13.9724 3.75147L14.1658 4.21257L14.8705 3.91701L14.6772 3.45592L14.4838 2.99482L13.779 3.29037L13.9724 3.75147ZM14.6772 3.45592L14.8705 3.91701C15.3213 3.728 15.6982 3.60744 16.0057 3.54655L15.9085 3.05607L15.8114 2.5656C15.4167 2.64376 14.9728 2.78976 14.4838 2.99482L14.6772 3.45592ZM15.9085 3.05607L16.0057 3.54655L16.5323 3.44225L16.4351 2.95178L16.338 2.46131L15.8114 2.5656L15.9085 3.05607ZM16.4351 2.95178L16.5323 3.44225L17.0588 3.33796L16.9617 2.84749L16.8646 2.35702L16.338 2.46131L16.4351 2.95178ZM16.9617 2.84749L17.0588 3.33796C17.2304 3.30398 17.338 3.28819 17.3946 3.28388C17.4293 3.28123 17.4127 3.28565 17.3727 3.27894C17.3564 3.27622 17.2853 3.26414 17.206 3.21217C17.1621 3.18339 17.1055 3.13571 17.06 3.06141C17.0121 2.98337 16.9883 2.89506 16.9883 2.8074H17.4883H17.9883C17.9883 2.59411 17.8642 2.4479 17.7541 2.37579C17.6639 2.31663 17.5763 2.29912 17.5381 2.29271C17.4542 2.27864 17.3717 2.28272 17.3187 2.28676C17.1998 2.29581 17.044 2.32147 16.8646 2.35702L16.9617 2.84749ZM17.4883 2.8074H16.9883V2.8716H17.4883H17.9883V2.8074H17.4883ZM17.4883 2.8716H16.9883V2.9358H17.4883H17.9883V2.8716H17.4883ZM17.4883 2.9358H16.9883C16.9883 3.08564 17.0531 3.19037 17.0833 3.23317C17.1178 3.28205 17.154 3.31579 17.1752 3.33416C17.2184 3.3716 17.2627 3.39938 17.2918 3.41659C17.3542 3.45359 17.4321 3.49164 17.5146 3.52916C17.6838 3.60613 17.9282 3.70577 18.2416 3.82675L18.4216 3.36029L18.6017 2.89384C18.2929 2.77462 18.0705 2.68342 17.9286 2.61888C17.8556 2.58565 17.8168 2.56529 17.8014 2.55622C17.7916 2.55039 17.8068 2.55822 17.8305 2.57879C17.842 2.58873 17.8709 2.61481 17.9005 2.65679C17.9258 2.6927 17.9883 2.7913 17.9883 2.9358H17.4883ZM18.4216 3.36029L18.2416 3.82675L19.1749 4.18704L19.355 3.72059L19.535 3.25413L18.6017 2.89384L18.4216 3.36029Z" fill="#616161"/>
<path d="M15.2227 10C16.2861 10.0002 17.1483 10.8623 17.1484 11.9258C17.1484 12.2844 17.0476 12.6188 16.877 12.9062C17.8237 13.0277 18.5557 13.8356 18.5557 14.8154C18.5554 15.8788 17.6933 16.7411 16.6299 16.7412C16.2625 16.7412 15.92 16.6365 15.6279 16.458C15.4499 17.3376 14.6724 18 13.7402 18C12.7823 17.9998 11.9891 17.2999 11.8408 16.3838C11.69 16.4217 11.5327 16.4443 11.3701 16.4443C10.3065 16.4442 9.44435 15.5822 9.44434 14.5186C9.44434 13.8011 9.83714 13.1761 10.4189 12.8447C10.2703 12.5716 10.1855 12.2586 10.1855 11.9258C10.1856 10.8622 11.0477 10 12.1113 10C12.7511 10.0001 13.3158 10.3138 13.666 10.7939C14.0162 10.3133 14.5825 10 15.2227 10Z" fill="white"/>
<path d="M17.1643 13.6459L17.6386 13.488L17.1643 13.6459ZM17.6641 15.147L18.1385 14.989L17.6641 15.147ZM17.1794 16.3359L16.9232 15.9065L17.1794 16.3359ZM14.181 17.4033L14.3298 16.9259L14.181 17.4033ZM11.2453 15.959L10.8525 16.2684L11.2453 15.959ZM10.14 14.5562L10.5327 14.2468L10.14 14.5562ZM9.93228 12.9899L9.46785 12.8047L9.93228 12.9899ZM16.0685 11.4477L15.6368 11.6999L16.0597 12.4238L16.4914 12.1716L16.9231 11.9193L16.5002 11.1955L16.0685 11.4477ZM16.4914 12.1716L16.0597 12.4238C16.3252 12.8783 16.5348 13.3383 16.6899 13.8039L17.1643 13.6459L17.6386 13.488C17.4605 12.9529 17.2215 12.43 16.9231 11.9193L16.4914 12.1716ZM17.1643 13.6459L16.6899 13.8039L16.9398 14.5544L17.4142 14.3965L17.8886 14.2385L17.6386 13.488L17.1643 13.6459ZM17.4142 14.3965L16.9398 14.5544L17.1897 15.305L17.6641 15.147L18.1385 14.989L17.8886 14.2385L17.4142 14.3965ZM17.6641 15.147L17.1897 15.305C17.2444 15.4692 17.2308 15.5671 17.2049 15.6307C17.1768 15.6995 17.1056 15.7976 16.9232 15.9065L17.1794 16.3359L17.4356 16.7652C17.7429 16.5819 17.9973 16.3357 18.1309 16.0082C18.2665 15.6756 18.2504 15.3251 18.1385 14.989L17.6641 15.147ZM17.1794 16.3359L16.9232 15.9065L16.1885 16.3448L16.4447 16.7742L16.7009 17.2036L17.4356 16.7652L17.1794 16.3359ZM16.4447 16.7742L16.1885 16.3448L15.4539 16.7832L15.71 17.2125L15.9662 17.6419L16.7009 17.2036L16.4447 16.7742ZM15.71 17.2125L15.4539 16.7832C15.0822 17.0049 14.7194 17.0474 14.3298 16.9259L14.181 17.4033L14.0322 17.8806C14.7018 18.0893 15.3583 18.0046 15.9662 17.6419L15.71 17.2125ZM14.181 17.4033L14.3298 16.9259L13.5355 16.6783L13.3867 17.1556L13.2379 17.633L14.0322 17.8806L14.181 17.4033ZM13.3867 17.1556L13.5355 16.6783L12.7411 16.4307L12.5923 16.908L12.4435 17.3853L13.2379 17.633L13.3867 17.1556ZM12.5923 16.908L12.7411 16.4307C12.3151 16.2979 11.9488 16.0439 11.638 15.6495L11.2453 15.959L10.8525 16.2684C11.2787 16.8092 11.8103 17.188 12.4435 17.3853L12.5923 16.908ZM11.2453 15.959L11.638 15.6495L11.0854 14.9482L10.6926 15.2576L10.2999 15.5671L10.8525 16.2684L11.2453 15.959ZM10.6926 15.2576L11.0854 14.9482L10.5327 14.2468L10.14 14.5562L9.74728 14.8657L10.2999 15.5671L10.6926 15.2576ZM10.14 14.5562L10.5327 14.2468C10.2805 13.9267 10.2294 13.5946 10.3967 13.1751L9.93228 12.9899L9.46785 12.8047C9.17526 13.5385 9.26264 14.2506 9.74728 14.8657L10.14 14.5562ZM9.93228 12.9899L10.3967 13.1751L10.7416 12.3102L10.2772 12.125L9.81275 11.9398L9.46785 12.8047L9.93228 12.9899ZM10.2772 12.125L10.7416 12.3102L11.0865 11.4452L10.6221 11.26L10.1577 11.0748L9.81275 11.9398L10.2772 12.125ZM10.6221 11.26L11.0865 11.4452C11.2561 11.02 11.5135 10.8276 11.8861 10.7786L11.821 10.2829L11.7559 9.78714C10.9899 9.88776 10.448 10.3467 10.1577 11.0748L10.6221 11.26ZM11.821 10.2829L11.8861 10.7786L12.7402 10.6664L12.675 10.1707L12.6099 9.67496L11.7559 9.78714L11.821 10.2829ZM12.675 10.1707L12.7402 10.6664L13.5942 10.5543L13.5291 10.0585L13.4639 9.56278L12.6099 9.67496L12.675 10.1707ZM13.5291 10.0585L13.5942 10.5543C14.1826 10.477 14.4811 10.4536 14.5611 10.4587L14.593 9.95976L14.6249 9.46078C14.425 9.448 14.0143 9.4905 13.4639 9.56278L13.5291 10.0585ZM14.593 9.95976L14.5611 10.4587L14.771 10.4722L14.8029 9.97317L14.8348 9.47419L14.6249 9.46078L14.593 9.95976ZM14.8029 9.97317L14.771 10.4722L14.9809 10.4856L15.0128 9.98659L15.0447 9.4876L14.8348 9.47419L14.8029 9.97317ZM15.0128 9.98659L14.9809 10.4856C14.9297 10.4823 14.8918 10.4693 14.8702 10.46C14.8488 10.4508 14.8377 10.4426 14.8373 10.4423C14.8365 10.4417 14.8417 10.4455 14.8528 10.4562C14.8637 10.4668 14.8783 10.4821 14.8965 10.5033C14.9733 10.5927 15.0789 10.745 15.2139 10.9761L15.6456 10.7239L16.0773 10.4716C15.9303 10.2201 15.7895 10.0083 15.6553 9.85196C15.5884 9.77395 15.5115 9.69605 15.4248 9.63307C15.3429 9.57363 15.2124 9.49833 15.0447 9.4876L15.0128 9.98659ZM15.6456 10.7239L15.2139 10.9761L15.6368 11.6999L16.0685 11.4477L16.5002 11.1955L16.0773 10.4716L15.6456 10.7239Z" fill="#616161"/>
</svg>
