<?xml version="1.0" encoding="UTF-8"?>
<svg id="dog" xmlns="http://www.w3.org/2000/svg" version="1.1" viewBox="0 0 50.83 48.47">
  <!-- Generator: Adobe Illustrator 29.8.2, SVG Export Plug-In . SVG Version: 2.1.1 Build 3)  -->
  <defs>
    <style>
      .st0 {
        fill: #231f20;
      }

      .st1 {
        fill: #2061ac;
      }
    </style>
  </defs>
  <ellipse class="st0" cx="24.1" cy="25.7" rx="1.89" ry="1.17" transform="translate(-.08 .07) rotate(-.17)"/>
  <g>
    <g>
      <path class="st0" d="M17.81,24.41l3.3.02c.2,0,.38-.17.38-.38s-.16-.37-.38-.38l-3.3-.02c-.2,0-.38.17-.38.38s.16.37.38.38h0Z"/>
      <path class="st0" d="M30.7,23.66c-1.1,0-2.2.02-3.3.03-.2,0-.38.17-.38.38s.16.38.38.38c1.1,0,2.2-.02,3.3-.03.2,0,.38-.17.38-.38s-.16-.38-.38-.38h0Z"/>
    </g>
    <g>
      <path class="st1" d="M27.82,16.69v3.89c0,.32.5.32.5,0v-.23c0-.32-.5-.32-.5,0v.23c0,.32.5.32.5,0v-3.89c0-.32-.5-.32-.5,0h0Z"/>
      <path class="st1" d="M29.15,16.88v3.51c0,.14.11.25.25.25s.25-.11.25-.25v-3.51c0-.14-.11-.25-.25-.25s-.25.11-.25.25h0Z"/>
      <path class="st1" d="M30.57,17.36v3.6c0,.14.11.25.25.25s.25-.11.25-.25v-3.6c0-.14-.11-.25-.25-.25s-.25.11-.25.25h0Z"/>
      <path class="st1" d="M31.9,18.69v2.66c0,.13.11.26.25.25s.25-.11.25-.25v-2.66c0-.13-.11-.26-.25-.25s-.25.11-.25.25h0Z"/>
    </g>
  </g>
</svg>