<?xml version="1.0" encoding="UTF-8"?>
<svg id="dog" xmlns="http://www.w3.org/2000/svg" version="1.1" viewBox="0 0 50.83 48.47">
  <!-- Generator: Adobe Illustrator 29.8.2, SVG Export Plug-In . SVG Version: 2.1.1 Build 3)  -->
  <defs>
    <style>
      .st0 {
        fill: #231f20;
      }

      .st1 {
        fill: #fff;
      }

      .st1, .st2 {
        stroke: #231f20;
        stroke-miterlimit: 10;
        stroke-width: .5px;
      }

      .st3 {
        fill: #f16876;
      }

      .st2 {
        fill: none;
      }

      .st4 {
        fill: #2061ac;
      }
    </style>
  </defs>
  <ellipse class="st0" cx="25.66" cy="22.47" rx="1.89" ry="1.17" transform="translate(-.07 .08) rotate(-.17)"/>
  <g>
    <g>
      <circle class="st1" cx="20.87" cy="21.91" r="2.19"/>
      <circle class="st1" cx="30.53" cy="21.91" r="2.19"/>
      <g>
        <path class="st0" d="M26.5,24.46c.38.06.72.35.84.72.06.19.06.38.07.58,0,.61-.02,1.22-.08,1.83-.05.5-.12,1.02-.39,1.45-.6.95-1.97.81-2.44-.18-.2-.41-.25-.87-.29-1.33-.07-.71-.38-1.72-.06-2.39.4-.84,1.58-.8,2.35-.68Z"/>
        <path class="st3" d="M24.89,28.1c-.39.43-.26,1.17.48,1.51,1.6.74,2.17-1.92.32-1.84-.36.01-.63.15-.8.34Z"/>
        <path class="st2" d="M27.46,25.97c-.13,2.55-.27,3.74-1.67,3.74s-1.56-1.05-1.71-3.58c-.07-1.19.37-1.55,1.57-1.61,1.29-.06,1.85.41,1.8,1.45Z"/>
      </g>
    </g>
    <path class="st4" d="M39.26,18.82c-.06.7.28,1.4.86,1.79.61.42,1.45.41,2.08.04l-.34-.34c-.49.77-1.48,1.55-1.08,2.58.31.79,1.24,1.01,2,1.1l-.07-.49c-.68.21-1.41.48-1.84,1.08-.39.54-.44,1.27-.03,1.8.08.11.27.09.35,0,.11-.1.08-.25,0-.35-.29-.37-.12-.95.16-1.27.38-.43.95-.61,1.48-.78.29-.09.2-.46-.07-.49-.54-.07-1.36-.22-1.55-.82-.25-.81.68-1.51,1.06-2.11.14-.21-.13-.47-.34-.34-.48.29-1.11.29-1.58-.04-.44-.3-.66-.84-.61-1.36.03-.32-.47-.32-.5,0h0Z"/>
    <path class="st4" d="M10.87,19.31c.24.38.07.86-.23,1.16-.35.35-.86.5-1.32.65-.21.07-.24.34-.06.46.48.31.76.91.65,1.47s-.54,1-1.08,1.15c-.27.07-.22.5.07.49.55-.01,1.22.02,1.39.66.13.51-.05,1.08-.22,1.56-.11.3.38.43.48.13.21-.6.41-1.34.17-1.97-.3-.78-1.09-.9-1.83-.89l.07.49c.72-.19,1.32-.81,1.44-1.55s-.24-1.56-.89-1.98l-.06.46c.59-.19,1.24-.4,1.65-.9.37-.45.52-1.12.2-1.64-.17-.27-.6-.02-.43.25h0Z"/>
  </g>
</svg>