<?xml version="1.0" encoding="UTF-8"?>
<svg id="dog" xmlns="http://www.w3.org/2000/svg" version="1.1" viewBox="0 0 50.83 48.47">
  <!-- Generator: Adobe Illustrator 29.8.2, SVG Export Plug-In . SVG Version: 2.1.1 Build 3)  -->
  <defs>
    <style>
      .st0 {
        fill: #231f20;
      }

      .st1 {
        fill: #fff;
      }

      .st2 {
        fill: #f16876;
      }
    </style>
  </defs>
  <ellipse class="st0" cx="25.02" cy="23.41" rx="1.89" ry="1.17" transform="translate(-.07 .08) rotate(-.17)"/>
  <g>
    <path class="st2" d="M23.86,26.03c-.17.59.06,1.29.58,1.6.38.23.86.23,1.3.17.11-.02.22-.04.32-.08.27-.12.44-.41.51-.7s.03-.6,0-.89c-.02-.23-.06-.47-.22-.63-.88-.85-2.12-.75-2.49.54Z"/>
    <g>
      <path class="st0" d="M22.35,20.06l.48.97c.03.05.09.1.15.11.06.02.14,0,.19-.03s.1-.09.11-.15c.02-.07,0-.13-.03-.19l-.48-.97c-.03-.05-.09-.1-.15-.11-.06-.02-.14,0-.19.03s-.1.09-.11.15c-.02.07,0,.13.03.19h0Z"/>
      <path class="st0" d="M26.98,19.81l-.48.9c-.03.06-.04.13-.03.19.02.06.06.12.11.15.06.03.13.05.19.03.06-.02.12-.06.15-.11l.48-.9c.03-.06.04-.13.03-.19-.02-.06-.06-.12-.11-.15-.06-.03-.13-.05-.19-.03-.06.02-.12.06-.15.11h0Z"/>
      <g>
        <g>
          <g>
            <path class="st1" d="M23.05,20.98c-1.66,0-3.32-.01-4.97-.02.08.93.52,2.26,2.49,2.35.92.04,3.09-.75,2.54-2.27"/>
            <path class="st0" d="M23.05,20.73c-1.66,0-3.32-.01-4.97-.02-.13,0-.26.12-.25.25.04.48.15.96.4,1.37.31.52.8.88,1.37,1.06s1.18.21,1.77.07c.54-.13,1.08-.37,1.5-.75.5-.45.72-1.1.49-1.74-.04-.13-.17-.21-.31-.17-.12.03-.22.18-.17.31.08.24.1.45.05.65-.05.2-.16.36-.31.51-.33.33-.77.54-1.22.67-.11.03-.22.06-.34.08-.03,0-.05,0-.08.01-.01,0-.07.01-.05,0s-.04,0-.05,0c-.03,0-.06,0-.08,0-.27.02-.56-.02-.82-.08s-.52-.16-.76-.32c-.16-.11-.35-.3-.46-.45-.07-.1-.13-.21-.18-.32,0-.02-.03-.08-.03-.07,0,.01-.02-.05-.03-.07-.02-.05-.04-.11-.05-.16-.03-.11-.06-.23-.08-.34,0-.03,0-.06-.01-.08,0-.01,0-.02,0-.03,0-.04,0,.04,0,0,0-.06-.01-.11-.02-.17l-.25.25c1.66,0,3.32.01,4.97.02.32,0,.32-.5,0-.5h0Z"/>
          </g>
          <path class="st0" d="M21.49,20.99c-.04.1-.07.2-.07.31,0,.47.36.86.84.87s.86-.36.87-.84c0-.11-.02-.22-.06-.32l-1.58-.03Z"/>
        </g>
        <g>
          <g>
            <path class="st1" d="M26.67,20.98h4.97c-.08.92-.52,2.24-2.49,2.33-.92.04-3.09-.75-2.54-2.27"/>
            <path class="st0" d="M26.67,21.23h4.97c-.08-.09-.17-.18-.25-.26,0,.05,0,.09-.01.14,0,.02,0,.06,0,.02,0,.03,0,.06-.01.08-.02.1-.04.2-.06.3s-.06.2-.1.3c0,0-.02.04,0,.01.01-.03,0,.02-.01.02-.01.02-.02.05-.03.07-.02.05-.05.1-.08.15-.24.4-.61.7-1.08.85-.29.09-.6.15-.91.15-.1,0-.19,0-.29-.02.04,0,0,0-.02,0-.03,0-.05,0-.08-.01-.06-.01-.12-.02-.18-.04-.46-.11-.92-.3-1.26-.59-.05-.04-.1-.09-.14-.13-.02-.02-.05-.05-.07-.07,0,0-.02-.02-.02-.03-.05-.06.01.02-.01-.02-.04-.05-.08-.11-.11-.16-.01-.02-.03-.05-.04-.08-.02-.04,0-.02,0,0,0-.01-.01-.03-.02-.05-.05-.15-.06-.21-.06-.35s.03-.25.08-.4c.04-.13-.05-.27-.17-.31-.14-.04-.26.05-.31.17-.2.57-.06,1.16.34,1.6.38.41.92.68,1.45.84,1.13.34,2.5.08,3.23-.91.32-.45.46-.99.51-1.54.01-.13-.12-.25-.25-.25h-4.97c-.32.01-.32.51,0,.51h0Z"/>
          </g>
          <path class="st0" d="M28.34,21.14c.04.1.07.2.07.31,0,.47-.37.86-.84.87s-.86-.37-.87-.84c0-.11.02-.22.06-.31l1.58-.03Z"/>
        </g>
        <g>
          <path class="st0" d="M24.83,24.81c-.02.18,0,.37.01.55.01.21.03.42.04.63,0,.08,0,.17,0,.25v-.07s0,.03,0,.05c-.04.12.05.28.17.31.14.03.26-.04.31-.17.03-.08.03-.17.03-.25,0-.1,0-.2-.01-.3-.02-.23-.04-.46-.05-.69,0-.1,0-.2,0-.31,0-.06-.03-.14-.07-.18-.04-.04-.11-.08-.18-.07s-.13.02-.18.07c-.05.05-.07.11-.07.18h0Z"/>
          <path class="st0" d="M24,25.25c-.18.19-.3.45-.39.7s-.13.52-.11.78c.03.34.13.65.34.91.17.21.39.36.64.46.48.19,1.03.13,1.49-.07.23-.1.44-.25.59-.45s.21-.44.23-.68c.03-.27,0-.54-.06-.8s-.14-.49-.24-.72c-.05-.12-.24-.16-.34-.09-.12.08-.15.21-.09.34.03.06-.02-.05,0,.02,0,.02.02.04.02.06.02.05.03.09.05.14.03.1.06.19.09.29.01.05.02.09.03.14,0,.03.01.05.01.08,0,.02,0,.06.01.08-.02-.03,0-.04,0-.02,0,.02,0,.03,0,.05,0,.02,0,.04,0,.06,0,.05,0,.11,0,.16,0,.05,0,.1,0,.15,0,.02,0,.05,0,.07,0,.05,0-.05,0-.01,0,.01,0,.03,0,.05,0,.05-.02.09-.03.14,0,.02-.01.04-.02.06,0,.01-.01.03-.02.04,0-.03.02-.04,0,0s-.04.08-.06.11c0,0-.01.02-.02.02-.02.03-.03.02,0,0-.02.01-.03.04-.05.05-.02.02-.04.03-.05.05,0,0-.02.02-.02.02,0-.02.04-.03.01-.01-.04.03-.09.06-.14.09s-.09.05-.14.07c-.01,0-.03.02-.04.02,0,0,.06-.02.01,0-.03.01-.06.02-.09.03-.1.04-.21.06-.32.08-.04,0,.02,0,.02,0,0,0-.04,0-.04,0-.02,0-.05,0-.08,0-.06,0-.11,0-.17,0-.03,0-.06,0-.08,0-.01,0-.06-.01-.07,0,.02-.01.05,0,0,0-.01,0-.03,0-.04,0-.03,0-.05-.01-.08-.02-.05-.01-.1-.03-.15-.05-.01,0-.03,0-.04-.01-.04-.01.01,0,.01,0,0,0-.08-.04-.08-.04-.05-.02-.09-.05-.13-.08,0,0-.02-.01-.03-.02-.04-.03,0,0,.01,0-.02,0-.06-.05-.08-.07-.04-.04-.07-.07-.11-.11,0,0-.02-.02-.02-.03.04.05,0,0,0-.01-.02-.03-.04-.06-.05-.09s-.03-.06-.05-.09c0-.01-.02-.04,0,0,0-.01,0-.03-.01-.04-.02-.06-.04-.13-.06-.2,0-.02,0-.03,0-.05,0-.01-.02-.09,0-.03,0-.03,0-.07,0-.1,0-.08,0-.15,0-.23,0-.03,0-.06,0-.09,0,.08,0,0,0-.03.01-.06.03-.11.04-.17.02-.06.04-.13.07-.19,0,0,.03-.06,0-.02-.02.03.01-.02.01-.03.01-.03.03-.06.04-.09.03-.06.06-.11.09-.16.01-.02.03-.04.04-.06-.02.05-.02.03,0,.01.01-.01.02-.02.03-.03.09-.09.1-.26,0-.35s-.26-.1-.35,0h0Z"/>
          <path class="st0" d="M22.7,25.72c.64.14,1.35.13,1.9-.27.36-.26.59-.63.74-1.05h-.48c.06.3.22.57.44.78.17.17.39.28.61.38.25.11.5.18.76.2.34.02.66-.07.96-.21.12-.06.15-.23.09-.34-.07-.13-.22-.15-.34-.09-.23.11-.48.16-.73.14-.09,0-.18-.03-.28-.05-.05-.01-.1-.03-.15-.05-.04-.02-.07-.03-.09-.04-.16-.07-.33-.15-.46-.26-.17-.16-.29-.36-.33-.59-.05-.26-.41-.22-.48,0-.01.03-.02.07-.04.1,0,.02-.03.07,0,0,0,.02-.02.04-.03.06-.03.07-.07.15-.12.22-.02.04-.05.07-.07.11-.04.06,0,0-.02.03-.01.02-.03.03-.04.05-.03.04-.07.07-.1.1-.02.02-.04.04-.06.06-.01,0-.02.02-.03.03.02-.01.02-.02,0,0-.09.07-.19.12-.29.17.04-.02-.03.01-.03.01-.03.01-.06.02-.1.03-.06.02-.12.03-.18.05-.28.05-.62.02-.91-.04-.13-.03-.27.04-.31.17-.03.12.04.28.17.31h0Z"/>
        </g>
      </g>
    </g>
  </g>
</svg>