<?xml version="1.0" encoding="UTF-8"?>
<svg id="dog" xmlns="http://www.w3.org/2000/svg" version="1.1" viewBox="0 0 50.83 48.47">
  <!-- Generator: Adobe Illustrator 29.8.2, SVG Export Plug-In . SVG Version: 2.1.1 Build 3)  -->
  <defs>
    <style>
      .st0 {
        fill: #231f20;
      }

      .st1 {
        fill: #4c98c3;
      }

      .st2 {
        fill: #7cd1e6;
      }
    </style>
  </defs>
  <ellipse class="st0" cx="26.19" cy="23.48" rx="1.89" ry="1.17" transform="translate(-.07 .08) rotate(-.17)"/>
  <g>
    <g>
      <path class="st0" d="M21.81,18.66c.02.16.11.31.21.44s.25.21.41.27c.31.11.67,0,.9-.23.12-.13.22-.29.25-.47.01-.07.01-.13-.03-.19-.03-.05-.09-.1-.15-.11-.06-.01-.14-.01-.19.03-.05.03-.11.09-.11.15,0,.05-.02.1-.04.15l.03-.06c-.02.05-.05.1-.09.15l.04-.05s-.08.09-.12.12l.05-.04s-.1.07-.16.09l.06-.03c-.05.02-.1.04-.16.04h.07c-.05,0-.1,0-.15,0h.07c-.06,0-.11-.01-.17-.04l.06.03c-.05-.02-.1-.05-.15-.09l.05.04s-.09-.08-.13-.13l.04.05s-.06-.09-.08-.14l.03.06c-.02-.05-.04-.1-.04-.16,0-.06-.07-.12-.11-.15-.05-.03-.13-.04-.19-.03s-.12.06-.15.11l-.03.06s-.01.09,0,.13h0Z"/>
      <g>
        <rect class="st2" x="20.44" y="21.84" width="2.12" height="7.68"/>
        <path class="st1" d="M20.13,21.9v7.48c0,.32.5.32.5,0v-7.48c0-.32-.5-.32-.5,0h0Z"/>
        <path class="st1" d="M22.4,21.84v7.68c0,.32.5.32.5,0v-7.68c0-.32-.5-.32-.5,0h0Z"/>
        <path class="st0" d="M19.96,21.93c1.1,0,2.2.02,3.3.03.2,0,.38-.17.38-.38s-.16-.37-.38-.38c-1.1,0-2.2-.02-3.3-.03-.2,0-.38.17-.38.38s.16.37.38.38h0Z"/>
      </g>
    </g>
    <g>
      <path class="st0" d="M29.73,18.53c0,.05-.02.11-.04.16l.03-.06s-.05.1-.08.14l.04-.05s-.08.09-.13.13l.05-.04s-.1.06-.15.09l.06-.03c-.05.02-.11.04-.17.05h.07c-.05,0-.1,0-.15,0h.07c-.05,0-.11-.01-.16-.03l.06.03c-.06-.02-.11-.05-.16-.09l.05.04s-.09-.08-.12-.12l.04.05s-.06-.09-.09-.15l.03.06s-.03-.1-.04-.15c0-.06-.07-.12-.11-.15-.05-.03-.13-.04-.19-.03s-.12.06-.15.11l-.03.06s-.01.09,0,.13c.02.16.11.31.22.43s.25.21.41.27c.31.11.67,0,.9-.24.12-.13.22-.29.24-.47,0-.07.01-.13-.03-.19-.03-.05-.09-.1-.15-.11-.06-.01-.14-.01-.19.03-.05.03-.11.09-.11.15h0Z"/>
      <g>
        <rect class="st2" x="29.62" y="21.76" width="2.22" height="7.68" transform="translate(61.47 51.2) rotate(-180)"/>
        <path class="st1" d="M31.64,21.82v7.48c0,.32.5.32.5,0v-7.48c0-.32-.5-.32-.5,0h0Z"/>
        <path class="st1" d="M29.32,21.88c0,2.56,0,5.12,0,7.68,0,.32.5.32.5,0,0-2.56,0-5.12,0-7.68,0-.32-.5-.32-.5,0h0Z"/>
        <path class="st0" d="M32.24,21.18c-1.1,0-2.2.02-3.3.03-.2,0-.38.17-.38.38s.16.38.38.38c1.1,0,2.2-.02,3.3-.03.2,0,.38-.17.38-.38s-.16-.38-.38-.38h0Z"/>
      </g>
    </g>
  </g>
</svg>