<?xml version="1.0" encoding="UTF-8"?>
<svg id="dog" xmlns="http://www.w3.org/2000/svg" version="1.1" viewBox="0 0 50.83 48.47">
  <!-- Generator: Adobe Illustrator 29.8.2, SVG Export Plug-In . SVG Version: 2.1.1 Build 3)  -->
  <defs>
    <style>
      .st0 {
        fill: #231f20;
      }

      .st1 {
        fill: #f48993;
      }
    </style>
  </defs>
  <ellipse class="st0" cx="22.88" cy="23.05" rx="1.89" ry="1.17" transform="translate(-.07 .07) rotate(-.17)"/>
  <g>
    <path class="st0" d="M16.19,21.25c.84.26,1.65.61,2.46.93v-.72c-.84.33-1.65.75-2.48,1.1l.09-.04h-.02c-.09.05-.17.09-.22.18-.05.08-.07.2-.04.29s.09.18.17.22.2.08.29.04c.74-.31,1.46-.67,2.19-.99l-.09.04c.1-.04.2-.08.31-.13.08-.03.14-.07.19-.13.05-.06.08-.15.08-.23,0-.07-.02-.13-.05-.19-.05-.09-.13-.14-.22-.17-.82-.33-1.62-.67-2.46-.93-.19-.06-.42.07-.46.26-.05.2.06.4.26.46h0Z"/>
    <path class="st0" d="M27.72,21.99c0-.08,0-.16,0-.25v.1c0-.11.03-.22.08-.33l-.04.09c.03-.06.06-.12.09-.18.02-.03.1-.12,0-.02.02-.02.04-.05.06-.07s.05-.05.07-.07.09-.06-.02.01c.01,0,.02-.02.04-.03.06-.04.13-.08.19-.11l-.09.04c.1-.04.2-.07.3-.08h-.1c.13,0,.27,0,.4.01h-.1c.11,0,.22.03.32.07l-.09-.04c.09.04.17.08.24.13.01,0,.02.02.03.02,0,0-.08-.06-.04-.03.02.01.03.03.05.04.03.03.07.06.1.09.01.02.03.03.04.05,0,0,.01.02.02.02.03.04-.06-.08-.03-.04s.05.06.07.1c.04.06.08.13.11.2l-.04-.09c.04.09.06.18.08.27v-.1s0,.08,0,.12c0,.09.05.2.11.27s.17.11.27.11c.22,0,.36-.17.38-.38.02-.23-.08-.48-.18-.68-.14-.27-.35-.5-.61-.66-.63-.4-1.6-.33-2.09.27-.25.31-.4.71-.37,1.11,0,.1.04.19.11.27.07.07.17.11.27.11.19,0,.39-.17.38-.38h0Z"/>
    <g>
      <path class="st1" d="M24.1,25.03c.11-.23.22-.47.41-.65s.46-.29.7-.22c.3.09.47.44.42.75s-.27.57-.54.73c-.17.1-1.06.54-1.23.41-.27-.2.13-.8.24-1.02Z"/>
      <path class="st0" d="M20.46,25.06c.39.55.95.95,1.6,1.15.71.22,1.49.19,2.19-.02.61-.19,1.41-.53,1.59-1.22.08-.31.02-.64-.18-.89-.22-.26-.59-.33-.9-.23-.4.12-.65.45-.81.82s-.21.78-.42,1.12h.43l-.02.15c.11-.08.09-.27,0-.35-.1-.1-.25-.09-.35,0-.13.11-.15.31-.06.45.1.15.33.17.43,0,.16-.27.24-.57.34-.87.08-.26.17-.54.38-.72.14-.13.39-.21.56-.08.13.1.15.31.11.46-.06.23-.25.4-.45.52-.25.15-.53.27-.81.35-.57.17-1.18.21-1.76.06s-1.1-.48-1.44-.96c-.08-.11-.22-.16-.34-.09-.11.06-.17.23-.09.34h0Z"/>
    </g>
  </g>
</svg>