<?xml version="1.0" encoding="UTF-8"?>
<svg id="dog" xmlns="http://www.w3.org/2000/svg" version="1.1" viewBox="0 0 50.83 48.47">
  <!-- Generator: Adobe Illustrator 29.8.2, SVG Export Plug-In . SVG Version: 2.1.1 Build 3)  -->
  <defs>
    <style>
      .st0 {
        fill: #231f20;
      }

      .st1 {
        fill: #f16876;
      }
    </style>
  </defs>
  <ellipse class="st0" cx="24.62" cy="23.09" rx="1.89" ry="1.17" transform="translate(-.07 .07) rotate(-.17)"/>
  <g>
    <g>
      <g>
        <ellipse class="st0" cx="19.93" cy="20.5" rx=".97" ry=".96"/>
        <ellipse class="st0" cx="29.14" cy="20.5" rx=".97" ry=".96"/>
      </g>
      <path class="st0" d="M22.27,24.76c.06.33.3.63.6.77s.6.15.9.01c.27-.12.49-.33.67-.56.16-.22.29-.51.26-.79l-.49.07c.1.62.63,1.22,1.27,1.3.7.09,1.32-.5,1.35-1.18,0-.14-.12-.25-.25-.25-.14,0-.24.11-.25.25,0,.08-.03.2-.07.28-.06.11-.11.18-.21.26-.07.06-.17.11-.26.13-.09.02-.2.03-.27.01-.43-.09-.75-.5-.82-.94-.05-.27-.53-.21-.49.07,0,.05,0,.1,0,.15,0-.05,0,0,0,.02,0,.02-.01.05-.02.07-.02.08-.07.16-.13.25-.05.07-.13.15-.21.23-.05.05-.05.05-.1.08-.05.03-.09.06-.14.08-.02.01-.04.02-.07.03.04-.02-.02,0-.03,0-.03,0-.05.01-.08.02-.06.02.02,0-.03,0-.1,0-.18-.01-.26-.05-.21-.1-.33-.26-.37-.47-.03-.13-.18-.21-.31-.17-.14.04-.2.17-.17.31h0Z"/>
    </g>
    <path class="st0" d="M18.08,21.76c.11-.05.17-.08.29-.12.11-.04.23-.07.35-.1.05-.01.1-.02.16-.03.03,0,.06-.01.09-.01,0,0,.04,0,.02,0-.02,0,.03,0,.03,0,.11-.01.23-.02.34-.02s.23,0,.34.01c.03,0,.06,0,.09,0,.04,0,0,0,.04,0,.06.01.12.02.18.03.11.02.22.05.33.09.05.02.1.03.15.05.02,0,.07.03.07.03,0,0,.05.02.07.03.12.06.24.12.35.19s.21.14.3.22c.1.09.25.1.35,0,.09-.09.1-.27,0-.35-.82-.69-1.92-.95-2.97-.74-.29.06-.57.16-.84.29-.12.06-.15.23-.09.34.07.12.22.15.34.09h0Z"/>
    <path class="st0" d="M27.94,22.19c.08-.08.16-.16.25-.23.03-.03-.01,0,.02-.02.02-.02.04-.03.07-.05.05-.03.09-.06.14-.09.09-.06.19-.11.29-.16.01,0,.08-.03.04-.02.02,0,.04-.02.07-.03.05-.02.11-.04.17-.06.1-.03.2-.06.31-.08.05-.01.11-.02.16-.03-.04,0,.01,0,.03,0,.03,0,.06,0,.09,0,.11,0,.22-.01.33,0,.05,0,.1,0,.15,0,.02,0,.05,0,.07,0,.02,0,.03,0,.05,0,0,0,.05,0,.03,0s.01,0,.01,0c.02,0,.04,0,.06,0,.03,0,.06.01.09.02.06.01.12.03.17.04.12.03.25.07.36.12s.28-.05.31-.17c.03-.14-.04-.26-.17-.31-.9-.36-1.96-.3-2.8.18-.24.14-.46.31-.65.51-.09.1-.1.26,0,.35s.26.1.35,0h0Z"/>
    <path class="st1" d="M18.28,22.9l-.33.33-.09.09s-.04.05-.05.08c-.02.03-.02.06-.02.1,0,.03,0,.07.02.1.01.03.03.06.05.08l.05.04s.08.03.13.03h.07s.08-.04.11-.07l.33-.33.09-.09s.04-.05.05-.08c.02-.03.02-.06.02-.1,0-.03,0-.07-.02-.1-.01-.03-.03-.06-.05-.08l-.05-.04s-.08-.03-.13-.03h-.07s-.08.04-.11.07h0Z"/>
    <path class="st1" d="M19.57,23l-.37.37-.11.11s-.04.05-.05.08c-.02.03-.02.06-.02.1,0,.03,0,.07.02.1.01.03.03.06.05.08l.05.04s.08.03.13.03h.07s.08-.04.11-.07l.37-.37.11-.11s.04-.05.05-.08c.02-.03.02-.06.02-.1,0-.03,0-.07-.02-.1-.01-.03-.03-.06-.05-.08l-.05-.04s-.08-.03-.13-.03h-.07s-.08.04-.11.07h0Z"/>
    <path class="st1" d="M20.76,23.16l-.29.29-.08.08s-.04.05-.05.08c-.02.03-.02.06-.02.1,0,.03,0,.07.02.1.01.03.03.06.05.08l.05.04s.08.03.13.03h.07s.08-.04.11-.07l.29-.29.08-.08s.04-.05.05-.08c.02-.03.02-.06.02-.1,0-.03,0-.07-.02-.1-.01-.03-.03-.06-.05-.08l-.05-.04s-.08-.03-.13-.03h-.07s-.08.04-.11.07h0Z"/>
    <path class="st1" d="M28.38,22.83l-.33.33-.09.09s-.04.05-.05.08c-.02.03-.02.06-.02.1,0,.03,0,.07.02.1.01.03.03.06.05.08l.05.04s.08.03.13.03h.07s.08-.04.11-.07l.33-.33.09-.09s.04-.05.05-.08c.02-.03.02-.06.02-.1,0-.03,0-.07-.02-.1-.01-.03-.03-.06-.05-.08l-.05-.04s-.08-.03-.13-.03h-.07s-.08.04-.11.07h0Z"/>
    <path class="st1" d="M29.68,22.82l-.37.37-.11.11s-.04.05-.05.08c-.02.03-.02.06-.02.1,0,.03,0,.07.02.1.01.03.03.06.05.08l.05.04s.08.03.13.03h.07s.08-.04.11-.07l.37-.37.11-.11s.04-.05.05-.08c.02-.03.02-.06.02-.1,0-.03,0-.07-.02-.1-.01-.03-.03-.06-.05-.08l-.05-.04s-.08-.03-.13-.03h-.07s-.08.04-.11.07h0Z"/>
    <path class="st1" d="M30.91,22.93l-.29.29-.08.08s-.04.05-.05.08c-.02.03-.02.06-.02.1,0,.03,0,.07.02.1.01.03.03.06.05.08l.05.04s.08.03.13.03h.07s.08-.04.11-.07l.29-.29.08-.08s.04-.05.05-.08c.02-.03.02-.06.02-.1,0-.03,0-.07-.02-.1-.01-.03-.03-.06-.05-.08l-.05-.04s-.08-.03-.13-.03h-.07s-.08.04-.11.07h0Z"/>
  </g>
</svg>