<?xml version="1.0" encoding="UTF-8"?>
<svg id="dog" xmlns="http://www.w3.org/2000/svg" version="1.1" viewBox="0 0 50.83 48.47">
  <!-- Generator: Adobe Illustrator 29.8.2, SVG Export Plug-In . SVG Version: 2.1.1 Build 3)  -->
  <defs>
    <style>
      .st0 {
        fill: #231f20;
      }
    </style>
  </defs>
  <ellipse class="st0" cx="23.58" cy="25.18" rx="1.89" ry="1.17" transform="translate(-.08 .07) rotate(-.17)"/>
  <g>
    <path class="st0" d="M16.12,23.48c1.18.3,2.36.57,3.55.82.19.04.41-.06.46-.26.04-.19-.06-.42-.26-.46-1.19-.25-2.37-.52-3.55-.82-.19-.05-.42.06-.46.26s.06.41.26.46h0Z"/>
    <path class="st0" d="M30.88,22.75c-1.18.3-2.36.57-3.55.82-.19.04-.32.28-.26.46.07.2.26.31.46.26,1.19-.25,2.37-.52,3.55-.82.19-.05.32-.27.26-.46s-.26-.31-.46-.26h0Z"/>
  </g>
</svg>