<?xml version="1.0" encoding="UTF-8"?>
<svg id="dog" xmlns="http://www.w3.org/2000/svg" version="1.1" viewBox="0 0 50.83 48.47">
  <!-- Generator: Adobe Illustrator 29.8.2, SVG Export Plug-In . SVG Version: 2.1.1 Build 3)  -->
  <defs>
    <style>
      .st0 {
        fill: #231f20;
      }

      .st1 {
        fill: #fff;
      }

      .st2 {
        fill: #4c98c3;
      }
    </style>
  </defs>
  <ellipse class="st0" cx="24.62" cy="24.53" rx="1.89" ry="1.17" transform="translate(-.07 .07) rotate(-.17)"/>
  <g>
    <g>
      <g>
        <g>
          <path class="st1" d="M22.83,21.52l-4.75-1.47c-.2.91-.16,2.31,1.7,2.97.87.31,3.18.19,3.09-1.43"/>
          <path class="st0" d="M22.9,21.27c-1.58-.49-3.17-.98-4.75-1.47-.12-.04-.28.05-.31.17-.11.49-.13,1.01,0,1.5.17.62.6,1.12,1.14,1.45.5.31,1.05.47,1.64.48.54.01,1.1-.07,1.59-.32.58-.29.94-.84.91-1.5-.01-.32-.51-.32-.5,0,0,.07,0,.13,0,.2,0,.01-.01.09,0,.04,0,.03-.01.06-.02.09-.01.06-.03.11-.05.16-.01.03,0,0,0,0,0,.01-.01.03-.02.04-.01.03-.03.06-.05.09-.01.02-.03.04-.04.06,0,.01-.02.02-.03.04,0,0,.02-.03,0,0-.04.04-.08.09-.12.13-.02.02-.04.03-.06.05-.01,0-.02.02-.03.03,0,0,.03-.02,0,0-.05.03-.1.07-.15.1s-.1.05-.15.08c-.01,0-.07.03-.05.02.01,0-.05.02-.07.03-.12.04-.23.08-.35.1-.05.01-.11.02-.17.03-.03,0-.06,0-.08.01-.04,0,.04,0,0,0-.02,0-.04,0-.06,0-.12.01-.24.02-.36.02s-.23,0-.34-.01c-.05,0-.11,0-.16-.02-.03,0,.01,0,.02,0-.01,0-.03,0-.04,0-.03,0-.05,0-.08-.01-.25-.04-.48-.13-.7-.24-.28-.14-.52-.3-.73-.53-.09-.1-.15-.17-.22-.3-.07-.12-.11-.2-.14-.3-.04-.13-.08-.25-.1-.39,0-.01,0-.02,0-.03,0-.03,0,.04,0-.01,0-.03,0-.06,0-.09,0-.06,0-.13,0-.19,0-.12,0-.24.02-.37,0-.01,0-.03,0-.04,0-.04,0,.06,0,0,0-.03,0-.05.01-.08,0-.06.02-.12.03-.17l-.31.17c1.58.49,3.17.98,4.75,1.47.31.1.44-.39.13-.48h0Z"/>
        </g>
        <path class="st0" d="M19.87,20.76c-.07.08-.12.17-.16.28-.15.45.1.93.55,1.08s.93-.1,1.08-.55c.03-.11.04-.21.03-.32l-1.5-.49Z"/>
      </g>
      <g>
        <g>
          <path class="st1" d="M26.47,21.52l4.75-1.47c.2.91.16,2.31-1.7,2.97-.87.31-3.18.19-3.09-1.43"/>
          <path class="st0" d="M26.54,21.76c1.58-.49,3.17-.98,4.75-1.47l-.31-.17s.02.1.03.14c0,.02,0,.05.01.07,0,.02.01.09,0,.04.01.11.02.22.02.33s0,.22-.01.33c0,.02-.01.08,0,.04,0,.03,0,.05-.01.08-.01.06-.02.12-.04.18s-.03.11-.05.17c0,.03-.02.05-.03.08s0,0,0,0c0,.02-.02.04-.03.06-.06.12-.12.23-.2.34-.14.19-.38.39-.61.53-.24.15-.51.27-.78.34-.05.01-.09.02-.14.03-.02,0-.05,0-.07.01-.02,0-.09.01-.03,0-.11.01-.22.02-.34.03s-.23,0-.35,0c-.06,0-.12,0-.18-.01-.01,0-.08,0-.06,0,.01,0-.05,0-.07-.01-.12-.02-.24-.05-.36-.08-.05-.02-.11-.03-.16-.05-.03,0-.05-.02-.08-.03-.04-.01.03.01,0,0-.02,0-.04-.02-.05-.02-.05-.03-.11-.05-.16-.08-.03-.02-.06-.04-.09-.05-.01,0-.09-.06-.05-.03-.05-.04-.09-.07-.13-.12-.02-.02-.04-.05-.07-.07-.04-.04,0,.01-.03-.04-.03-.05-.07-.1-.1-.16,0-.01-.01-.03-.02-.04.01.03,0,0,0-.01,0-.03-.02-.06-.03-.09,0-.03-.02-.07-.02-.1,0-.01,0-.02,0-.04,0-.03,0,.03,0-.02,0-.08,0-.16,0-.24.01-.32-.49-.32-.5,0-.02.58.25,1.09.74,1.41.46.29,1.03.4,1.56.41s1.07-.09,1.57-.34c.6-.29,1.1-.76,1.34-1.39.21-.54.19-1.14.07-1.69-.03-.13-.18-.21-.31-.17-1.58.49-3.17.98-4.75,1.47-.31.09-.18.58.13.48h0Z"/>
        </g>
        <path class="st0" d="M29.47,20.68c.07.08.12.17.16.28.15.45-.1.93-.55,1.08s-.93-.1-1.08-.55c-.03-.11-.04-.21-.03-.32l1.5-.49Z"/>
      </g>
    </g>
    <g>
      <path class="st1" d="M21.9,25.42l-1.38.75c-.06.03-.12.06-.19.06-.11-.01-.17-.12-.24-.2-.21-.26-.57-.33-.91-.34-.42-.01-.92.11-1.07.51-.08.23-.01.5.13.7s.35.34.57.47c-.36.31-.34.96.03,1.26s1,.18,1.23-.24c.14.35.42.72.8.7.35-.02.6-.39.59-.74s-.22-.66-.46-.92c.49-.55.85-1.22,1.04-1.93"/>
      <path class="st2" d="M21.77,25.2l-1.32.72s-.1.07-.11.06c-.03-.04.05,0,.06,0h0s-.02-.01-.03-.02c-.05-.05-.11-.15-.19-.21-.16-.14-.35-.23-.55-.27-.36-.08-.78-.08-1.13.05-.38.15-.68.47-.66.9.02.53.43.89.86,1.15l-.05-.39c-.46.42-.44,1.24.05,1.62s1.29.24,1.61-.3h-.43c.12.29.32.59.61.73.32.16.68.11.93-.13s.35-.59.3-.92c-.05-.36-.27-.67-.51-.93v.35c.52-.59.9-1.29,1.11-2.04.09-.31-.4-.44-.48-.13-.19.67-.52,1.3-.98,1.82-.09.1-.1.25,0,.35.17.18.31.38.37.62.02.11.02.19,0,.28-.02.08-.07.17-.13.23-.04.04-.04.04-.09.07-.04.02,0,0-.04.02,0,0-.08.02-.04.01-.03,0-.06,0-.09,0-.02,0-.02,0,0,0-.01,0-.03,0-.04,0-.01,0-.03,0-.04-.01.02,0,.01,0,0,0-.03-.01-.05-.03-.08-.05-.05-.03-.14-.13-.18-.18-.07-.1-.13-.21-.18-.33-.08-.18-.35-.15-.43,0-.04.06-.03.05-.08.1-.02.02-.03.03-.05.05.03-.03-.02.01-.03.02-.02.01-.04.03-.06.04,0,0-.07.03-.03.02-.05.02-.1.03-.15.05-.01,0-.02,0-.04,0,.03,0,.02,0,0,0-.02,0-.05,0-.07,0s-.05,0-.07,0c-.06,0,.02,0-.03,0-.03,0-.06-.01-.08-.02,0,0-.07-.03-.05-.02.02,0-.05-.03-.06-.03,0,0-.06-.04-.03-.02-.04-.03-.08-.07-.11-.11.03.03-.01-.02-.02-.03-.02-.02-.03-.05-.04-.08,0-.02,0-.01,0,0,0-.02-.01-.03-.02-.05,0-.02-.01-.05-.02-.07,0,0-.01-.08,0-.03,0-.02,0-.05,0-.07,0-.19.05-.34.19-.47.12-.11.08-.31-.05-.39-.16-.1-.31-.2-.43-.33-.1-.11-.17-.25-.18-.38,0-.15.04-.23.14-.33,0,0,.04-.03,0,0,.01,0,.03-.02.04-.03.03-.02.06-.03.09-.05.05-.02.02,0,.01,0,.02,0,.03-.01.05-.02.04-.01.08-.03.13-.04.25-.06.62-.05.87.05.18.08.22.18.35.31.18.18.41.17.62.06.46-.24.92-.5,1.38-.75.28-.15.03-.59-.25-.43h0Z"/>
    </g>
  </g>
  <path class="st0" d="M23.91,27.71s0-.02,0-.04c0-.05,0,.07,0,.02,0-.02,0-.05,0-.07s0-.05,0-.07c0,0,0-.02,0-.02,0-.04-.01.07,0,0,0-.05.02-.1.04-.14,0-.02.01-.04.02-.06-.03.07-.01.03,0,.01,0-.01.01-.03.02-.04.02-.04.05-.09.08-.13,0-.01.03-.03-.02.02,0,0,.02-.02.02-.03.02-.02.04-.04.06-.06.02-.02.04-.03.05-.05s.08-.05,0,0c.05-.03.09-.06.14-.08.01,0,.02-.01.03-.02.04-.02-.05.02-.02,0,.02,0,.04-.02.06-.02.02,0,.05-.01.07-.02.01,0,.02,0,.04,0,.04,0-.07,0,0,0,.05,0,.09,0,.14,0,.02,0,.06.01-.02,0,.01,0,.02,0,.04,0,.02,0,.05.01.07.02s.05.01.07.02c.02,0,.05.03-.01,0,.01,0,.02.01.03.02.05.02.09.05.13.08.01,0,.02.02.03.02-.06-.04-.03-.02-.01,0,.02.02.04.03.06.05.02.01.03.03.04.05,0,0,.02.02.03.03.04.05-.02-.04,0,0,.03.04.06.09.09.14,0,.01.01.02.02.03.03.06-.02-.04,0,0,.01.03.02.05.03.08,0,.03.01.05.02.08,0,.01,0,.02,0,.03-.02-.08,0-.03,0,0,0,.03,0,.06,0,.09,0,.02-.01.13,0,.03-.01.07-.01.13.03.19.03.05.09.1.15.11.06.01.14.01.19-.03.05-.03.11-.09.11-.15.02-.15.02-.29-.01-.44-.03-.12-.08-.25-.15-.36-.15-.24-.37-.42-.63-.52-.23-.09-.52-.1-.75,0-.26.1-.47.28-.62.51-.16.26-.22.57-.16.86.03.13.18.21.31.17.14-.04.2-.17.17-.31h0Z"/>
</svg>