<?xml version="1.0" encoding="UTF-8"?>
<svg id="dog" xmlns="http://www.w3.org/2000/svg" version="1.1" viewBox="0 0 50.83 48.47">
  <!-- Generator: Adobe Illustrator 29.8.2, SVG Export Plug-In . SVG Version: 2.1.1 Build 3)  -->
  <defs>
    <style>
      .st0 {
        fill: #231f20;
      }

      .st1 {
        fill: #f39b4a;
      }

      .st2 {
        fill: #5c564d;
      }
    </style>
  </defs>
  <g>
    <path class="st2" d="M21.03,28.17c.51-.88,1.37-1.56,2.34-1.86.59-.18,1.22-.22,1.84-.23.95-.01,1.92.05,2.8.4,1.97.77,3.24,3.03,2.87,5.12-.04.2-.08.41-.05.61.04.19.14.35.24.52.45.8.64,1.75.53,2.67.93-.18,1.74-.87,2.07-1.75.07-.18.14-.4.32-.47.12-.05.25-.03.37.03.48.25.46.94.32,1.46-.1.34-.22.68-.42.97-.45.66-1.26,1.01-2.06,1.04-.3.01-.62-.01-.88.12-.15.08-.28.2-.42.3-.45.32-1.07.39-1.58.17-.1-.04-.19-.09-.29-.11-.28-.03-.5.21-.74.36-.52.32-1.27.17-1.62-.33-.82.43-1.79.41-2.72.39-.48-.01-.95-.03-1.43-.04-.77-.02-1.6-.07-2.2-.55-.45-.37-.7-.93-.81-1.51-.11-.58-.1-1.19.04-1.76.23-.95.83-1.81.92-2.79s.04-1.86.57-2.76Z"/>
    <path class="st1" d="M23.25,36.24c-.51,0-.89-.16-.82.42.12,1.03,1.29,1.11,1.96.5.2-.19.59-.64.34-.88-.21-.21-1.19-.04-1.48-.04Z"/>
    <path class="st1" d="M27.33,36.24c-.51,0-.89-.16-.82.42.12,1.03,1.29,1.11,1.96.5.2-.19.59-.64.34-.88-.21-.21-1.19-.04-1.48-.04Z"/>
    <path class="st1" d="M25.13,33.87c0-.22.02-.45.03-.68,0-.05,0-.11-.02-.16,0,0-.01-.1,0-.04,0-.04-.01-.08-.02-.12-.03-.16-.06-.32-.11-.48-.02-.08-.05-.15-.08-.22,0,0-.01-.03-.02-.04-.01-.03-.03-.06-.05-.1-.05-.1-.11-.19-.17-.28-.01-.01-.02-.03-.03-.04-.03-.03-.05-.06-.08-.09-.04-.04-.09-.08-.13-.12-.01-.01-.01-.01-.02-.02,0,0,0,0-.01,0-.07-.04-.14-.09-.22-.14-.05-.03-.09-.05-.14-.07-.01,0-.01,0-.02-.01,0,0,0,0,0,0-.09-.03-.17-.06-.26-.08-.05-.01-.1-.02-.15-.03-.01,0-.05,0-.08-.01-.03,0-.07,0-.08,0-.04,0-.09,0-.13,0-.09,0-.18,0-.27.01,0,0,0,0,0,0,0,0,0,0-.01,0-.04,0-.08.02-.12.03-.08.02-.15.05-.23.07.02,0,.02,0,.03,0-.01,0-.02,0-.03.01-.03.02-.07.04-.1.06-.07.04-.09.08-.02,0-.02.03-.06.05-.08.07-.02.02-.03.03-.05.05,0,0-.01.01-.02.03-.02.03-.03.06-.05.09,0,0,0,.02,0,.03,0,.03-.01.08-.03.11,0,0,0,0,0,.01,0,.05,0,.1,0,.15,0,.02,0,.03,0,.05.02.09.04.19.07.28,0,.03.02.06.03.09,0,0,.01.02.02.04.01.02.04.07.04.07.02.02.02.03.03.04.02.02.04.04.06.06.03.03.07.06.1.09.01,0,.03.02.04.03.08.05.16.1.24.15.17.1.36.19.53.28.35.17.71.37.97.67.26.31.36.67.34,1.05.11,0,.22,0,.33.01.01-.21.02-.42.02-.63-.03-.07-.06-.15-.05-.25Z"/>
    <path class="st1" d="M28.07,31.07c-.12-.03-.08-.02-.18-.02-.09,0-.18,0-.27,0-.07,0-.06,0-.16.03-.32.07-.6.2-.77.43-.33.43-.4,1.03-.43,1.61.04.37.04.75.03,1.13.12-.23.27-.44.42-.62.27-.3.63-.51.98-.7.17-.09.33-.17.49-.27.14-.08.26-.16.32-.22.08-.08.12-.12.14-.15.02-.03.09-.18.06-.11.05-.15.06-.22.04-.4,0-.08-.06-.25-.06-.26,0-.02-.11-.19-.07-.14-.11-.15-.17-.18-.34-.26.07.03-.09-.03-.09-.03-.04-.01-.08-.02-.11-.03Z"/>
    <g>
      <path class="st0" d="M21.19,27.21c-1.36,1.85-1.55,4.47-.48,6.5.28.54.66,1.02.91,1.58.22.47.28,1,.44,1.49.15.46.39.9.83,1.13.48.26,1.06.19,1.51-.11,1.3-.86.96-2.66.87-3.98-.03-.48-.78-.48-.75,0,.04.6.1,1.2.1,1.8,0,.5-.08,1.04-.45,1.41-.26.25-.68.41-1,.17s-.4-.67-.49-1.02c-.12-.45-.22-.89-.42-1.32-.24-.5-.56-.94-.83-1.42-.47-.85-.68-1.81-.65-2.78.04-1.11.41-2.18,1.07-3.08.12-.16.03-.42-.13-.51-.19-.11-.39-.03-.51.13h0Z"/>
      <path class="st0" d="M20.1,31.47c-.46.48-.66,1.13-.78,1.77-.11.55-.17,1.12-.15,1.68.02.59.12,1.2.4,1.73s.7.84,1.24,1.04c.57.21,1.26.26,1.85.07.19-.06.32-.26.26-.46-.05-.19-.27-.33-.46-.26-.1.03-.2.06-.3.07.07-.01,0,0-.02,0-.03,0-.06,0-.09,0-.06,0-.12,0-.19,0-.06,0-.11,0-.17,0-.03,0-.06,0-.1,0,0,0-.07,0-.02,0-.13-.02-.26-.05-.38-.08-.23-.07-.35-.12-.57-.26-.01,0-.08-.05-.02-.01-.02-.01-.04-.03-.05-.04-.04-.03-.07-.07-.11-.11-.06-.06-.1-.12-.16-.23-.22-.38-.32-.88-.34-1.33-.01-.26-.01-.52,0-.78s.04-.42.08-.66c.1-.57.23-1.19.62-1.6.33-.35-.2-.88-.53-.53h0Z"/>
      <path class="st0" d="M29.41,27.59c1.15,1.57,1.42,3.76.58,5.53-.23.48-.53.91-.79,1.37s-.43.9-.55,1.4c-.15.6-.41,1.8-1.3,1.34-.5-.26-.68-.8-.71-1.33-.04-.69.05-1.39.09-2.07.03-.48-.72-.48-.75,0-.08,1.19-.4,2.77.55,3.72.38.38.92.61,1.46.51.5-.1.87-.48,1.07-.93s.28-.92.41-1.39c.17-.6.54-1.11.85-1.64.59-.99.92-2.11.91-3.27,0-1.29-.41-2.57-1.17-3.61-.12-.16-.32-.24-.51-.13-.16.09-.25.35-.13.51h0Z"/>
      <path class="st0" d="M30.93,33.06s.02.05.03.06c0,0-.04-.1-.02-.05,0,0,0,.02.01.03.02.05.04.1.05.14.03.09.06.19.08.29.03.11.05.22.07.33,0,.05.02.1.02.16.01.08-.01-.09,0,0,0,.03,0,.06.01.1.03.24.04.49.04.73,0,.12,0,.25-.02.37,0,.06,0,.12-.02.18,0,.03,0,.06-.01.09-.01.1.01-.08,0,.02-.04.23-.08.46-.16.68-.02.05-.04.1-.05.15,0,.01,0,.02-.01.03-.02.05.02-.04.02-.04-.01.03-.03.06-.04.09-.04.09-.09.18-.15.27-.01.02-.02.03-.04.05-.05.08.06-.07,0,0-.03.04-.06.07-.09.1s-.07.06-.1.09c-.03.03.09-.06,0,0-.02.01-.04.03-.06.04-.04.02-.08.04-.12.06-.05.02.1-.04.02,0-.02,0-.05.02-.07.02-.04.01-.09.02-.13.03-.04,0,.11,0,.01,0-.03,0-.06,0-.09,0-.06,0-.11,0-.17,0s.05,0,.05,0c-.02,0-.04,0-.05,0-.03,0-.07-.01-.1-.02-.07-.02-.14-.04-.2-.06-.03-.01-.07-.03-.1-.04.11.03,0,0-.04-.02-.18-.09-.37-.24-.58-.22-.12,0-.23.06-.32.15l-.06.08c.05-.06.07-.08.05-.06.04-.04.15-.08.23-.09h.08c.06.04.08.05.05.03-.02-.02-.05-.03-.07-.05-.16-.12-.43-.03-.51.13-.1.2-.03.39.13.51.19.14.47.17.63-.02.03-.03.13-.14.01-.01.02-.02.03-.02-.02.01-.08.05-.17.08-.26.06.05.01-.03-.02-.03-.02.01,0,.2.11.23.12.29.15.59.25.91.28.48.05.97-.15,1.29-.53.33-.39.51-.88.61-1.38.1-.53.13-1.08.09-1.62s-.14-1.11-.38-1.62c-.08-.18-.35-.24-.51-.13-.18.12-.22.32-.13.51h0Z"/>
      <path class="st0" d="M31.88,35.88c1.03-.32,1.83-1.17,2.15-2.19.09-.28.13-.58.14-.88l-.38.38s.09,0,.13,0c.08,0-.06-.01-.02,0,.02,0,.04,0,.06.01.02,0,.04.02.07.02l-.05-.02s.02.01.04.02c.03.02.07.05.1.07l-.04-.03s.02.02.03.03c.02.01.03.03.05.04s.03.03.04.05c.03.03.03.06,0,0,.02.04.05.07.07.11.01.02.02.04.03.06,0,.01.01.03.02.04-.02-.05-.03-.07-.02-.04.01.04.03.08.04.12,0,.03.01.05.02.08.02.1,0-.06,0,.02,0,.11.01.22,0,.33,0,.03,0,.05,0,.08,0,.02,0,.11,0,0,0,.05-.02.11-.03.16-.02.12-.05.23-.08.35-.04.19.06.42.26.46.19.04.41-.06.46-.26.13-.56.23-1.14,0-1.68-.2-.44-.68-.81-1.18-.75-.1.01-.19.03-.27.11s-.11.16-.11.27c0,.06,0,.11,0,.17,0,.03,0,.06,0,.08,0,.01,0,.03,0,.04,0,.07.01-.07,0-.03-.02.11-.04.22-.07.33s-.07.22-.11.33c0,0,.04-.09.01-.03,0,.01-.01.03-.02.04-.01.03-.02.05-.04.08-.02.05-.05.1-.08.15-.06.1-.12.2-.19.29-.01.02-.03.04-.04.06-.04.05.02-.02.02-.03,0,.01-.02.02-.03.03-.04.05-.08.09-.12.14-.08.09-.16.17-.25.24-.02.02-.04.04-.06.05-.01.01-.08.06-.03.02.05-.04-.03.02-.04.03-.03.02-.05.04-.08.05-.1.07-.21.13-.32.19-.03.02-.06.03-.09.04-.01,0-.03.01-.04.02.02-.01.08-.03.02,0-.06.02-.12.05-.19.07-.19.06-.33.26-.26.46s.26.32.46.26h0Z"/>
      <path class="st0" d="M31.68,37.19c.66-.02,1.31-.21,1.87-.55.17-.1.34-.22.49-.35.07-.06.11-.18.11-.27,0-.09-.04-.2-.11-.27s-.17-.11-.27-.11c-.11,0-.18.04-.27.11-.02.02-.05.04-.07.06l.08-.06c-.25.19-.51.34-.8.47l.09-.04c-.28.12-.58.2-.88.24h.1c-.12,0-.23.01-.35.02-.2,0-.38.17-.38.38s.16.38.38.38h0Z"/>
    </g>
  </g>
  <g>
    <path class="st2" d="M11.11,16.56c-.15.22-.29.45-.37.7-.13.38-.11.8-.06,1.2.34,2.7,2.28,4.9,3.33,7.4.18.42.34.86.63,1.21s.77.59,1.21.46c.47-.13.73-.62.95-1.05.55,1.43,2.07,2.26,3.57,2.59,1.18.26,2.41.27,3.62.27,1.47.01,2.94.02,4.4-.05,1.2-.06,2.42-.19,3.54-.63s2.14-1.26,2.61-2.37c.28.37.56.76.96,1,.19.12.48.33.71.23.12-.06.21-.17.29-.27,1.34-1.75,1.79-3.79,2.42-5.86.41-1.36.83-2.77.71-4.18-.04-.46-.14-.93-.39-1.32-.17-.27-.4-.5-.63-.72-.78-.76-1.58-1.53-2.58-1.96-.73-.31-1.45-.38-2.21-.44-.71-.06-1.12-.36-1.75-.7-.76-.41-1.58-.79-2.38-1.13-2.5-1.07-5.36-1.21-7.98-.51-1.59.46-3.25,1.13-4.57,2.12-.12.09-.23.18-.37.23-.7.31-1.49.41-2.2.77-1.38.7-2.58,1.75-3.45,3.03Z"/>
    <path class="st1" d="M31.99,28.33c.18-.17.32-.38.41-.62.75-2.12-.97-3.55-2.57-4.04-.86-.26-1.82-.35-2.7-.12-.34.09-.76.47-1.08.49-.67.05-1.57-.57-2.3-.6-.75-.04-1.69.05-2.4.27-1.23.38-2.3,1.23-2.73,2.67-.06.21-.11.43-.11.66.06,2.88,3.92,2.28,5.47,2.29,1.47.01,2.94.02,4.4-.06.91-.05,2.72-.1,3.6-.94Z"/>
    <g>
      <g>
        <circle class="st0" cx="20.93" cy="21.85" r=".98"/>
        <circle class="st0" cx="30.11" cy="21.85" r=".98"/>
      </g>
      <ellipse class="st0" cx="25.52" cy="23.35" rx="1.89" ry="1.17"/>
    </g>
    <g>
      <path class="st0" d="M15.81,12.36c-1.63.73-3.42,1.51-4.55,2.95-.58.74-.91,1.62-.94,2.56-.03,1.19.53,2.29,1.08,3.32.33.61.64,1.23.93,1.86s.58,1.29.94,1.9c.25.41.9.04.65-.38-.6-1.01-1-2.12-1.55-3.16-.51-.97-1.19-2-1.29-3.12-.17-1.8,1.06-3.1,2.49-3.97.83-.51,1.72-.91,2.61-1.31.44-.2.06-.84-.38-.65h0Z"/>
      <path class="st0" d="M16.56,14.96c-.17,1.14.14,2.25.31,3.37s.25,2.31.27,3.47c.01.94,0,1.9-.18,2.82s-.55,1.67-1.14,2.34c-.1.11-.22.28-.39.25s-.3-.23-.39-.35c-.26-.36-.42-.77-.59-1.17-.19-.44-.84-.06-.65.38.29.68.68,1.73,1.51,1.89.47.09.85-.22,1.12-.56.3-.37.59-.77.8-1.2.46-.94.59-2,.64-3.04.06-1.22.01-2.45-.11-3.67-.07-.7-.16-1.39-.28-2.09-.13-.74-.3-1.5-.19-2.25.07-.47-.65-.68-.72-.2h0Z"/>
      <path class="st0" d="M33.91,13.11c1.84.51,3.97,1.11,4.97,2.9s.27,4.09-.39,5.83c-.41,1.08-.89,2.13-1.28,3.22-.17.45.56.65.72.2.75-2.06,1.79-4.03,2.07-6.23.14-1.06.1-2.16-.35-3.14-.41-.9-1.16-1.61-1.98-2.13-1.08-.68-2.34-1.03-3.56-1.37-.47-.13-.66.59-.2.72h0Z"/>
      <path class="st0" d="M33.05,15.28c.58,2.38.11,4.84.25,7.26.07,1.13.26,2.26.71,3.3.29.68.72,1.45,1.38,1.84.91.54,1.65-.22,2-1.03.19-.44-.45-.82-.65-.38-.12.28-.3.72-.61.83-.16.06-.36-.05-.51-.18-.55-.46-.89-1.23-1.12-1.89-.68-2.02-.45-4.18-.41-6.27.02-1.24-.02-2.48-.32-3.69-.11-.47-.84-.27-.72.2h0Z"/>
      <path class="st0" d="M17.33,13.27c1.36-1.57,3.36-2.3,5.38-2.57s4.32-.2,6.35.39c1.16.34,2.25.88,3.16,1.68.36.32.89-.21.53-.53-1.75-1.55-4.04-2.19-6.33-2.37s-4.54-.03-6.61.79c-1.15.46-2.2,1.14-3.02,2.08-.31.36.21.9.53.53h0Z"/>
      <path class="st0" d="M16.97,27.43c.34.66.93,1.17,1.58,1.5.32.16.67.24,1.02.32,1.05.23,2.13.38,3.2.49.47.05.94.09,1.41.06.2-.01.38-.16.38-.38,0-.19-.17-.39-.38-.38-.39.03-.78,0-1.16-.04-.51-.04-1.03-.11-1.5-.17-.83-.12-1.7-.24-2.5-.51-.1-.04.04.03,0,0-.07-.05-.17-.09-.25-.13-.14-.08-.29-.17-.42-.27-.3-.24-.55-.53-.73-.87-.09-.18-.35-.23-.51-.13-.18.11-.23.33-.13.51h0Z"/>
      <path class="st0" d="M27.58,29.71c1.53-.05,3.15-.17,4.58-.76.85-.35,1.58-.86,2.1-1.62.22-.32.38-.66.53-1.01.08-.19.05-.4-.13-.51-.16-.09-.43-.05-.51.13-.13.3-.27.6-.44.87-.04.07-.09.14-.14.21-.02.03-.04.06-.07.09.07-.1-.03.04-.05.06-.12.14-.24.27-.38.39-.03.03-.06.05-.1.08-.02.02-.04.03-.06.05.08-.06,0,0,0,0-.09.06-.18.13-.27.18-.2.12-.4.23-.61.32,0,0-.1.04-.05.02s-.05.02-.05.02c-.06.03-.13.05-.19.07-.14.05-.28.1-.42.14-.31.09-.62.17-.93.23-.92.18-1.87.25-2.81.28-.48.02-.48.77,0,.75h0Z"/>
    </g>
    <ellipse class="st1" cx="21.25" cy="18.27" rx=".82" ry="1.3" transform="translate(.67 37.28) rotate(-83.42)"/>
    <ellipse class="st1" cx="29.86" cy="18.27" rx="1.3" ry=".82" transform="translate(-1.9 3.54) rotate(-6.58)"/>
  </g>
</svg>