<?xml version="1.0" encoding="UTF-8"?>
<svg id="dog" xmlns="http://www.w3.org/2000/svg" version="1.1" viewBox="0 0 50.83 48.47">
  <!-- Generator: Adobe Illustrator 29.8.2, SVG Export Plug-In . SVG Version: 2.1.1 Build 3)  -->
  <defs>
    <style>
      .st0 {
        fill: #231f20;
      }

      .st1 {
        fill: #888;
      }
    </style>
  </defs>
  <g>
    <path class="st1" d="M34.83,31.37c-.35-.01-.68.07-.92.32-.03.04-.07.08-.07.12,0,.06.02.12.06.18.52.91.6,2.07.2,3.04-.15.36-.37.71-.69.92s-.77.28-1.11.08c.43-1.98-.35-4.03-1.12-5.82-.14-.33-.33-.99-.64-1.2-1.04-1.58-2.8-2.68-4.69-2.89-1.94-.23-3.97.48-5.35,1.86-2.41,2.41-4.3,10.85,1.28,10.57l.4-.42c.19.29.47.51.94.58,1.67.23,2.07-.81,2.17-2.06.09,1.25.49,2.29,2.17,2.06.96-.13,1.88-.25,2.8-.57.94-.33,1.79-.14,2.73-.09,1.04.06,2.1-.52,2.9-1.13.81-.62,1.1-1.47,1.16-2.46.05-.87,0-1.84-.63-2.44-.19-.18-.42-.31-.65-.42-.28-.13-.6-.22-.91-.23Z"/>
    <g>
      <path class="st0" d="M21.53,35.24c0,.61-.08,1.22-.04,1.82.04.66.22,1.33.79,1.73.31.22.7.29,1.08.31.34.02.7-.01,1.03-.14s.58-.34.78-.62c.17-.24.28-.53.35-.81.18-.7.16-1.45.16-2.17,0-.2-.17-.38-.38-.38s-.38.16-.38.38c0,.31,0,.61,0,.92,0,.15-.01.3-.03.45,0,.07-.01.14-.02.21,0,.03-.02.1,0-.02,0,.02,0,.04,0,.06,0,.04-.01.07-.02.11-.02.13-.05.27-.09.4-.02.06-.04.12-.06.18-.03.09.04-.08,0,0-.02.03-.03.07-.05.1-.03.05-.06.1-.09.15-.01.02-.03.04-.05.06-.04.05.06-.07.02-.03-.01.02-.03.03-.04.05-.04.04-.08.08-.12.12,0,0-.02.02-.03.03-.03.03.08-.06.03-.02-.03.02-.06.04-.09.06-.05.03-.11.05-.16.08.06-.05.08-.03.04-.02-.02,0-.03.01-.05.02-.04.01-.08.03-.12.04-.07.02-.14.03-.2.04,0,0,.1-.01.04,0-.02,0-.04,0-.06,0-.05,0-.09,0-.14,0-.08,0-.16,0-.24,0-.05,0-.1,0-.15-.01-.03,0-.05,0-.08,0-.09-.01.08.01,0,0s-.15-.03-.22-.05c-.04-.01-.07-.02-.11-.04-.07-.02.09.04.02,0-.02,0-.03-.02-.05-.02-.06-.03-.11-.06-.16-.1-.06-.04.07.06.02.02-.01-.01-.03-.02-.04-.03-.02-.02-.05-.04-.07-.07s-.04-.05-.06-.07c.06.05.05.06.03.04,0-.01-.02-.03-.03-.04-.04-.05-.07-.11-.1-.17,0-.01-.01-.03-.02-.05-.03-.06.03.09.01.03,0-.03-.02-.05-.03-.08-.02-.07-.04-.13-.06-.2-.02-.06-.03-.13-.04-.19,0-.02,0-.04,0-.05.02.12,0,.06,0,.04,0-.04,0-.08-.01-.12-.06-.65.03-1.29.04-1.94,0-.2-.17-.38-.38-.38s-.37.16-.38.38h0Z"/>
      <path class="st0" d="M30.95,28.97c-1.28-2.02-3.58-3.32-5.99-3.26-2.07.05-4.17,1.05-5.36,2.77-.81,1.16-1.33,2.57-1.62,3.95s-.4,2.93.12,4.27c.26.68.69,1.28,1.31,1.68.69.45,1.54.58,2.36.55.48-.02.48-.77,0-.75-1.2.05-2.3-.35-2.85-1.48s-.49-2.44-.3-3.6c.21-1.3.64-2.59,1.3-3.73.87-1.5,2.37-2.48,4.08-2.81,2.44-.47,4.99.7,6.31,2.79.26.41.91.03.65-.38h0Z"/>
      <path class="st0" d="M28.26,35.24c0,.58.07,1.15.05,1.73,0,.07,0,.14-.01.21,0,.03,0,.07-.01.1,0,.02,0,.03,0,.05.01-.13,0-.04,0,0-.02.13-.05.27-.1.39,0,.03-.02.05-.03.08-.02.06.04-.09.01-.03,0,.01-.01.03-.02.05-.03.06-.06.12-.1.17,0,.01-.02.02-.02.03-.02.03-.04.02.02-.03-.02.02-.04.05-.06.07-.02.02-.04.04-.06.06-.01.01-.02.02-.04.03-.07.06.06-.04.01,0s-.11.07-.16.1c-.03.02-.13.04,0,0-.04.01-.08.03-.13.04-.07.02-.15.04-.22.05-.05,0,.01-.02.03,0,0,0-.07,0-.08,0-.05,0-.11.01-.16.01-.08,0-.16,0-.24,0-.04,0-.09,0-.13,0-.04,0-.17-.03-.04,0-.07-.02-.14-.02-.2-.04-.03,0-.07-.02-.1-.03-.02,0-.03-.01-.05-.02-.04-.01-.05-.05.03.01-.05-.03-.11-.05-.16-.08-.03-.02-.05-.04-.08-.05-.01,0-.06-.04,0,0s0,0-.01-.01c-.04-.04-.08-.08-.12-.12-.03-.03-.08-.12-.01,0-.02-.03-.04-.05-.05-.08-.03-.05-.06-.1-.09-.15-.02-.03-.03-.06-.04-.09,0,0,0-.02-.01-.03-.03-.06.04.1,0,.01-.05-.12-.09-.25-.12-.38-.02-.08-.03-.15-.05-.23,0-.04-.01-.07-.02-.11-.01-.07.01.1,0,.03,0-.02,0-.04,0-.07-.02-.16-.03-.33-.04-.49-.02-.35-.01-.69-.01-1.04,0-.2-.17-.38-.38-.38s-.37.16-.38.38c0,.66,0,1.32.12,1.97.11.59.39,1.18.93,1.5.3.18.66.26,1,.27.4.01.81-.04,1.17-.21.64-.3.88-.98.95-1.63s-.02-1.35-.03-2.03c0-.2-.17-.38-.38-.38s-.38.16-.38.38h0Z"/>
      <path class="st0" d="M30.3,29.3c.13.08.21.28.27.42.08.19.15.38.22.57.12.3.26.61.38.94.26.7.48,1.41.64,2.14.15.68.23,1.38.18,2.08-.04.56-.2,1.18-.53,1.59-.47.6-1.21.85-1.98.92-.48.04-.48.79,0,.75.84-.07,1.68-.31,2.3-.91.52-.5.81-1.19.91-1.89.23-1.59-.2-3.24-.74-4.72-.14-.39-.32-.81-.46-1.16-.19-.48-.34-1.1-.81-1.38-.42-.25-.79.4-.38.65h0Z"/>
      <path class="st0" d="M36.68,34.49c-.01.11.01-.08,0,.03,0,.02,0,.04,0,.06,0,.05-.02.11-.03.16-.02.1-.05.21-.08.31-.03.09-.06.18-.09.27-.02.05-.04.1-.06.15,0,.01-.03.06,0,0-.01.03-.03.06-.04.09-.09.19-.19.37-.31.55-.05.08-.11.15-.16.23.04-.06.01-.01,0,0-.02.02-.04.05-.06.07-.03.04-.07.08-.1.12-.13.15-.28.29-.44.42-.02.02-.04.03-.06.05.06-.05.01-.01,0,0-.04.03-.08.06-.13.09-.08.06-.17.11-.26.17-.08.05-.16.09-.25.13-.05.02-.09.04-.14.06.07-.03.02,0,0,0-.03.01-.07.03-.1.04-.19.07-.39.12-.59.16-.02,0-.04,0-.06.01-.03,0-.09.01-.03,0-.06,0-.13.01-.19.02-.12,0-.24.01-.35,0s-.23-.01-.35-.03c-.07,0,.09.02-.02,0-.03,0-.07-.01-.1-.02-.07-.01-.13-.03-.2-.04-.19-.05-.42.06-.46.26s.06.41.26.46c.95.23,1.94.11,2.81-.35.8-.42,1.46-1.11,1.86-1.92.25-.49.39-1.01.46-1.55.02-.2-.19-.38-.38-.38-.22,0-.35.17-.38.38h0Z"/>
      <path class="st0" d="M32.95,36.68c1.26-.32,1.96-1.75,1.88-2.98-.02-.34-.09-.66-.23-.97s-.34-.52-.55-.76c.05.06-.05-.05-.04-.06s.02.07.02.07c-.01-.07,0-.02,0,0,0,0-.02.05-.03.05,0,0,.04-.04.05-.05-.05.04,0,0,0,0,.03-.01.05-.03.08-.04,0,0,.07-.03.03-.02s.02,0,.03-.01c.04-.02.08-.03.12-.04.09-.03.17-.05.26-.06.07-.01,0,0,0,0,.02,0,.04,0,.06,0,.04,0,.08,0,.12,0,.09,0,.17,0,.26.01.06,0-.06-.01,0,0,.02,0,.04,0,.06.01.04,0,.08.02.12.03.08.02.16.05.24.08.02,0,.07.03,0,0,.02.01.05.02.07.03.04.02.08.04.12.06.08.04.16.09.23.14.02.01.03.02.05.04-.07-.05,0,0,.02.02.03.03.07.06.1.09.07.07.13.14.19.21.01.01.04.06,0,0,.01.02.02.03.04.05.03.04.06.08.08.13.05.08.09.16.12.24-.03-.07,0-.02,0,0,.01.03.02.06.03.09.01.04.02.08.04.12.01.05.02.1.03.15,0,.02,0,.04.01.06-.01-.07,0-.01,0,.02.02.19.16.38.38.38.19,0,.4-.17.38-.38-.08-.8-.52-1.5-1.19-1.92s-1.53-.5-2.27-.18c-.23.1-.45.27-.52.52-.08.29.05.54.24.75.06.07.12.13.18.19.01.01.02.03.03.04.03.04-.04-.06-.01-.02.02.04.05.07.07.1.04.06.07.12.1.18.01.02.06.14.02.04.01.04.03.07.04.11.02.07.04.14.06.21,0,.03.02.07.02.1,0,.02,0,.03,0,.05,0,.01.02.09,0,.03-.01-.06,0,0,0,.02,0,.02,0,.04,0,.07,0,.04,0,.07,0,.11,0,.08,0,.16,0,.24,0,.07,0,.14-.02.21,0,.02-.01.07,0-.02,0,.02,0,.04,0,.05,0,.04-.02.09-.02.13-.03.15-.07.3-.13.44,0,.02-.07.15-.02.06-.02.04-.03.07-.05.11-.04.08-.08.15-.12.22s-.09.14-.14.21c-.03.05.06-.07,0,0-.01.02-.03.03-.04.05-.03.03-.05.06-.08.09-.06.06-.12.12-.19.17-.02.01-.06.04.02-.01-.02.01-.03.03-.05.04-.03.02-.07.05-.11.07-.07.04-.14.08-.21.11.09-.04-.02,0-.05.02-.04.01-.08.02-.12.04-.19.05-.32.27-.26.46s.26.31.46.26h0Z"/>
    </g>
  </g>
  <g>
    <path class="st1" d="M10.78,16.96c-.24.48-.42,1.01-.43,1.55-.01.54.14,1.06.3,1.57.46,1.42,1.04,2.79,1.75,4.1.4.75,1.08,1.58,1.91,1.39.12-.03.23-.07.35-.05.22.04.32.28.4.48,1.96,5.38,9.18,4.03,13.67,3.73.89-.06,1.8-.14,2.61-.5,1.73-.76,2.67-2.61,3.48-4.32.25.52,1.02.6,1.51.3s.78-.85,1.02-1.37c.59-1.29,1.07-2.64,1.2-4.04s-.12-2.88-.91-4.05c-1.34-1.98-3.38-1.94-5.37-2.91-2.65-1.29-4.62-2.61-7.67-2.65-2.29-.03-5,.37-6.85,1.82-.14.11-.28.23-.38.39-.08.14-.12.31-.23.43-.27.31-1.66.61-2.11.73-1.82.52-3.41,1.67-4.26,3.4Z"/>
    <g>
      <g>
        <circle class="st0" cx="20.25" cy="22.19" r="1.02"/>
        <circle class="st0" cx="29.31" cy="22.19" r="1.02"/>
        <ellipse class="st0" cx="24.74" cy="23.48" rx="1.97" ry="1.22"/>
      </g>
      <g>
        <path class="st0" d="M17.75,12.47c1.57-1.19,3.61-1.68,5.55-1.84s3.89.07,5.71.74c1.02.38,2,.91,2.86,1.58.16.12.37.15.53,0,.13-.13.16-.41,0-.53-3.31-2.56-7.73-3.12-11.73-2.1-1.17.3-2.32.76-3.29,1.5-.38.29,0,.94.38.65h0Z"/>
        <path class="st0" d="M15.99,13.06c-1.88.06-3.56,1.28-4.85,2.56-.69.69-1.14,1.49-1.25,2.47s.16,1.99.54,2.9c.47,1.11,1.05,2.18,1.59,3.26.22.43.86.05.65-.38-.43-.86-.88-1.72-1.29-2.59-.39-.81-.73-1.69-.76-2.6-.03-.86.23-1.64.81-2.28s1.23-1.17,1.93-1.63c.79-.53,1.67-.93,2.63-.96.48-.01.48-.76,0-.75h0Z"/>
        <path class="st0" d="M12.55,25.15c.45.56,1.1.89,1.83.78.62-.09,1.17-.48,1.57-.94.49-.58.76-1.27.92-2,.19-.87.26-1.78.36-2.66.12-1.05.25-2.1.37-3.15.02-.2-.19-.38-.38-.38-.22,0-.35.17-.38.38-.19,1.64-.35,3.29-.58,4.93-.16,1.13-.52,2.56-1.71,3.02-.25.1-.48.12-.73.06-.31-.09-.55-.31-.75-.55-.13-.16-.4-.13-.53,0-.16.16-.13.37,0,.53h0Z"/>
        <path class="st0" d="M34.2,14c1.45.38,2.92,1.19,3.77,2.45.38.56.61,1.18.62,1.87.01.77-.19,1.54-.41,2.28-.32,1.02-.75,2.01-1.2,2.99-.2.44.45.82.65.38.44-.95.86-1.92,1.19-2.91.27-.82.5-1.69.52-2.56.04-1.67-1-3.1-2.33-4.01-.79-.54-1.69-.95-2.62-1.2-.47-.12-.67.6-.2.72h0Z"/>
        <path class="st0" d="M32.27,18.39l.45,2.38c.14.73.26,1.47.42,2.2.24,1.06.75,2.4,1.9,2.75.66.2,1.44-.02,1.81-.62.25-.41-.4-.79-.65-.38-.2.33-.66.4-1.02.26-.39-.15-.68-.56-.88-.94-.22-.43-.36-.9-.46-1.37-.14-.67-.26-1.35-.39-2.02l-.46-2.45c-.04-.2-.28-.31-.46-.26-.21.06-.3.26-.26.46h0Z"/>
        <path class="st0" d="M14.92,26.59c.18,1.01.83,1.85,1.64,2.45.91.68,2.02.97,3.13,1.09.69.08,1.38.09,2.07.11.48,0,.48-.74,0-.75-1.95-.04-4.22-.12-5.52-1.79-.3-.39-.5-.83-.59-1.31-.04-.2-.28-.31-.46-.26-.21.06-.3.26-.26.46h0Z"/>
        <path class="st0" d="M28.48,30.38c1.32-.22,2.64-.46,3.79-1.18.93-.57,1.73-1.36,2.26-2.32.24-.42.43-.87.54-1.34s-.61-.67-.72-.2c-.04.18-.1.35-.16.52-.02.04-.03.09-.05.13,0,.01-.03.07,0,0,0,.02-.02.04-.03.07-.04.1-.09.19-.14.28-.21.41-.46.76-.75,1.09-.75.85-1.73,1.46-2.82,1.78-.69.21-1.41.32-2.12.44-.2.03-.31.28-.26.46.06.21.26.29.46.26h0Z"/>
      </g>
    </g>
  </g>
</svg>