<?xml version="1.0" encoding="UTF-8"?>
<svg id="dog" xmlns="http://www.w3.org/2000/svg" version="1.1" viewBox="0 0 50.83 48.47">
  <!-- Generator: Adobe Illustrator 29.8.2, SVG Export Plug-In . SVG Version: 2.1.1 Build 3)  -->
  <defs>
    <style>
      .st0 {
        fill: #231f20;
      }

      .st1 {
        fill: #fff;
      }

      .st2 {
        fill: #f39b4a;
      }

      .st3 {
        fill: #5c564d;
      }
    </style>
  </defs>
  <g>
    <g>
      <path class="st1" d="M32.39,31.26c-.24-.76-.55-1.5-.83-2.15-.15-.34-.35-1.03-.66-1.25-1.08-1.64-2.91-2.78-4.86-3-2.02-.23-4.12.5-5.56,1.93-2.51,2.5-4.47,11.26,1.33,10.97l.41-.44c.19.31.49.53.98.6,1.74.24,2.15-.84,2.25-2.14.1,1.29.51,2.37,2.25,2.14,1-.14,1.95-.26,2.9-.59,1.04-.37,2.27-.16,3.34-.54.71-.25,1.61-.69,2.18-1.18.37-.32,1.02-1.26.38-1.57-.5-.25-1.45.62-1.84.83-.44.24-.94.41-1.44.36-.55-.06-.29-1.34-.33-1.72-.06-.76-.25-1.51-.49-2.24Z"/>
      <path class="st3" d="M34.48,34.94c-.4.19-.84.33-1.28.28-.16-.02-.24-.13-.29-.3-.14.18-.29.36-.43.54-.14.4-.31.79-.55,1.15-.13.19-.27.37-.42.54.81-.1,1.66-.09,2.43-.37.33-.12.71-.28,1.08-.47-.2-.45-.37-.91-.53-1.38Z"/>
      <g>
        <path class="st3" d="M21.46,29.67c-.41-.7-1.2-1.3-1.88-1.68-.42-.24-1.58,5.03-1.52,5.55.38-.31.74-.47,1.22-.64.69-.24,1.4-.51,1.9-1.04.72-.76.67-1.52.29-2.19Z"/>
        <path class="st3" d="M31.53,29.12c-.17-.38-.33-.77-.42-1.15-.61.24-1.19.56-1.72.96-.17.12-.33.26-.45.42-.66.88.13,2.3.87,2.88.85.67,1.97.9,2.94,1.35.33.15-.35-2.58-.41-2.73-.23-.57-.54-1.14-.81-1.73Z"/>
      </g>
      <g>
        <path class="st0" d="M21.57,34.32c0,.63-.08,1.26-.05,1.89.04.68.23,1.37.81,1.78.32.23.73.3,1.11.32.36.02.73-.01,1.06-.15s.59-.35.8-.64c.18-.25.29-.54.36-.84.18-.73.17-1.5.16-2.24,0-.2-.17-.38-.38-.38s-.38.16-.38.38c0,.32,0,.64,0,.95,0,.16-.01.31-.03.47,0,.07-.01.14-.02.22,0,.03-.02.1,0-.02,0,.02,0,.04,0,.06,0,.04-.01.08-.02.11-.02.14-.06.28-.1.41-.02.06-.04.12-.06.18-.03.09.04-.08,0,0-.02.04-.03.07-.05.11-.03.05-.06.11-.09.16-.02.02-.03.04-.05.07-.04.05.06-.07.02-.02-.01.02-.03.03-.04.05-.04.04-.08.09-.13.13-.01,0-.02.02-.03.03-.03.03.08-.06.03-.02-.03.02-.06.04-.1.07-.05.03-.12.05-.17.09.05-.04.08-.03.04-.02-.02,0-.03.01-.05.02-.04.01-.08.03-.12.04-.07.02-.14.03-.21.04,0,0,.1-.01.04,0-.02,0-.04,0-.06,0-.05,0-.1,0-.14,0-.08,0-.17,0-.25,0-.05,0-.1,0-.15-.01-.03,0-.05,0-.08,0-.09-.01.08.01,0,0s-.15-.03-.23-.05c-.04-.01-.08-.03-.11-.04-.07-.02.08.04.02,0-.02,0-.03-.02-.05-.02-.06-.03-.11-.07-.17-.1s.07.06.02.02c-.01-.01-.03-.02-.04-.03-.03-.02-.05-.05-.07-.07-.02-.02-.04-.06-.07-.08.06.04.05.07.03.04,0-.01-.02-.03-.03-.04-.04-.06-.07-.12-.1-.18,0-.02-.01-.03-.02-.05-.03-.06.03.09.01.03,0-.03-.02-.05-.03-.08-.02-.07-.04-.14-.06-.21-.02-.07-.03-.13-.04-.2,0-.02,0-.04,0-.06.02.11,0,.06,0,.03,0-.04,0-.08-.01-.13-.06-.67.04-1.34.04-2.01,0-.2-.17-.38-.38-.38s-.37.16-.38.38h0Z"/>
        <path class="st0" d="M31.32,27.82c-1.32-2.09-3.69-3.43-6.17-3.38-2.15.04-4.33,1.08-5.58,2.86-.84,1.21-1.38,2.67-1.68,4.1s-.42,3.02.11,4.41c.27.7.7,1.32,1.33,1.74.72.48,1.61.62,2.47.59.48-.02.48-.77,0-.75-1.26.06-2.4-.37-2.97-1.54s-.51-2.55-.31-3.76c.22-1.35.66-2.68,1.35-3.86.9-1.55,2.45-2.57,4.21-2.91,2.55-.5,5.21.71,6.59,2.9.26.41.91.03.65-.38h0Z"/>
        <path class="st0" d="M28.56,34.32c0,.6.08,1.19.05,1.79,0,.07,0,.14-.01.22,0,.04,0,.07-.01.11,0,.02,0,.03,0,.05.01-.13,0-.03,0,0-.02.14-.05.28-.1.41,0,.03-.02.05-.03.08-.02.07.04-.09.01-.03,0,.02-.01.03-.02.05-.03.06-.06.12-.1.18,0,.01-.02.02-.02.03-.02.04-.04.02.02-.03-.02.02-.04.05-.07.08-.02.02-.04.04-.06.06-.01.01-.03.02-.04.03-.07.06.06-.04,0,0-.06.04-.11.07-.17.1-.03.02-.13.04-.01,0-.04.01-.09.03-.13.05-.08.02-.15.04-.23.05-.03,0-.04.02.03,0-.02,0-.06,0-.08,0-.06,0-.11.01-.17.01-.08,0-.17,0-.25,0-.04,0-.09,0-.13,0-.04,0-.17-.03-.05,0-.07-.02-.14-.02-.21-.04-.04,0-.07-.02-.11-.03-.02,0-.03-.01-.05-.02-.04-.02-.04-.04.02.01-.04-.04-.12-.06-.17-.09-.03-.02-.06-.04-.08-.06-.01,0-.06-.04,0,0s0,0-.01-.01c-.05-.04-.09-.08-.13-.13-.03-.03-.08-.12-.01-.01-.02-.03-.04-.05-.06-.08-.03-.05-.06-.1-.09-.16-.02-.03-.03-.06-.04-.09,0-.01,0-.02-.01-.03-.03-.06.04.1,0,0-.05-.13-.09-.26-.12-.39-.02-.08-.03-.16-.05-.24,0-.04-.01-.08-.02-.11-.01-.07.01.1,0,.02,0-.02,0-.05,0-.07-.02-.17-.03-.34-.04-.51-.02-.36-.01-.72-.01-1.08,0-.2-.17-.38-.38-.38s-.37.16-.38.38c0,.68,0,1.37.12,2.04.12.61.4,1.22.95,1.55.31.19.68.26,1.03.28.41.01.84-.04,1.21-.22.66-.31.91-1.01.98-1.68s-.03-1.4-.03-2.11c0-.2-.17-.38-.38-.38s-.38.16-.38.38h0Z"/>
        <path class="st0" d="M30.66,28.14c.14.08.22.3.29.44.09.2.15.4.23.6.13.32.27.64.39.97.27.73.5,1.47.66,2.23.26,1.24.42,2.82-.36,3.83-.49.63-1.28.89-2.06.95-.48.04-.48.79,0,.75.87-.07,1.73-.32,2.38-.94.54-.52.83-1.23.94-1.96.24-1.64-.21-3.36-.77-4.89-.15-.4-.33-.82-.48-1.21-.2-.49-.35-1.13-.84-1.42-.42-.25-.79.4-.38.65h0Z"/>
      </g>
    </g>
    <path class="st0" d="M32.88,35.74c.77.05,1.51-.25,2.17-.62.31-.17.61-.37.9-.58.15-.11.29-.22.44-.34.03-.03.07-.06.1-.08-.05.03.06-.04.06-.03-.01.04-.15-.01-.14,0-.07-.08-.08-.09-.05-.03-.01-.04-.01-.03,0,0,0,.03.01.05.02.08-.01-.06,0,.07,0,.07,0,.04,0,.08,0,.13,0,0-.01.13,0,.07-.02.17-.08.31-.14.43-.15.28-.37.51-.64.71-.21.17-.53.36-.8.5-.31.17-.59.28-.91.39-.74.25-1.45.35-2.23.33-.2,0-.38.18-.38.38,0,.21.17.37.38.38,1.53.05,3.12-.42,4.34-1.35.63-.48,1.21-1.19,1.13-2.03-.02-.22-.07-.45-.23-.61-.2-.2-.48-.21-.72-.09-.18.09-.33.25-.49.37-.13.1-.29.22-.44.32-.36.24-.75.47-1.14.64s-.81.27-1.24.24c-.2-.01-.38.18-.38.38,0,.21.17.36.38.38h0Z"/>
  </g>
  <g>
    <g>
      <path class="st2" d="M13.88,17.47c-.92,3.19-1.56,6.44-2.2,9.68-.38,1.96-.62,4.07,1.3,5.43.54.38,1.19.64,1.86.67,1.1.04,2.17-.62,2.5-1.59.18-.55.19-1.13.19-1.7,0-1.45.02-2.89.03-4.34.02-3.07.04-6.15-.58-9.17-.15-.76.08-3.08-1.38-2.1-1.01.68-1.43,2.06-1.73,3.11Z"/>
      <path class="st2" d="M32.17,19.05c0,.2,0,.4,0,.6.03,1.22-.38,2.45-.34,3.69.03,1.27.31,2.52.58,3.77.27,1.22.53,2.44.8,3.67.17.78.42,1.66,1.18,2.03.35.17.76.2,1.16.17,1.65-.12,3.14-1.3,3.53-2.79.65-2.52-.53-5.61-1.34-7.98-.71-2.08-1.26-4.28-2.21-6.28-.48-1-.87-1.8-2.05-2.11-.1-.03-.21-.05-.31-.01-.1.04-.16.14-.21.24-.33.69-.44,1.45-.55,2.2-.14.96-.23,1.88-.24,2.83Z"/>
      <g>
        <path class="st1" d="M15.65,17.91c.11,1.27.66,2.59.49,3.88s-.75,2.25-.32,3.56c.53,1.61,2.82,2.93,4.51,3.35.73.18,1.48.25,2.23.32,2.28.21,4.74.24,6.96-.47s4.87-2.42,4.66-4.86c-.07-.84-.5-1.62-.59-2.45-.08-.8.15-1.59.29-2.38.44-2.33.11-4.51-1.82-6.17-1.54-1.32-3.64-1.89-5.66-2.24-2.71-.46-5.86-.33-8.04,1.4-1.84,1.46-2.9,3.85-2.71,6.06Z"/>
        <path class="st2" d="M23.64,18.77c.01-.14,0-.29.02-.43,0-.72-.05-1.44-.11-2.13-.2-2.13-.62-4.34-2.52-5.62-.97.25-1.88.65-2.66,1.27-1.84,1.46-2.9,3.85-2.71,6.06.11,1.27.66,2.59.49,3.88-.07.55-.23,1.05-.34,1.56,1.81.12,3.83.59,5.48-.18,1.72-.8,2.22-2.78,2.35-4.4Z"/>
        <path class="st2" d="M25.87,13.94c-.12,1.31-.01,2.64.24,3.93.28,1.45.64,2.96,1.54,4.2,1.07,1.48,2.99,1.93,4.8,1.49.56-.14,1.09-.35,1.58-.62-.16-.57-.38-1.12-.44-1.71-.08-.8.15-1.59.29-2.38.44-2.33.11-4.51-1.82-6.17-1.28-1.1-2.95-1.67-4.63-2.04-1.05.76-1.44,2.06-1.56,3.29Z"/>
      </g>
    </g>
    <g>
      <g>
        <circle class="st0" cx="20.38" cy="21.26" r=".98"/>
        <circle class="st0" cx="29.55" cy="21.26" r=".98"/>
      </g>
      <ellipse class="st0" cx="24.96" cy="22.49" rx="1.89" ry="1.17"/>
    </g>
    <g>
      <path class="st0" d="M18.07,12.42c2.77-2.03,6.41-1.7,9.63-1.41.48.04.48-.71,0-.75-3.35-.31-7.13-.59-10.01,1.51-.16.12-.24.32-.13.51.09.16.35.25.51.13h0Z"/>
      <path class="st0" d="M29.11,10.09c-.02.08-.05.15-.08.22l.04-.09c-.06.13-.13.25-.21.37l.06-.08c-.09.11-.19.22-.3.3l.08-.06s-.06.05-.09.07c-.04.02-.08.06-.11.1-.03.04-.06.08-.07.13-.02.05-.02.1,0,.15,0,.05.02.1.04.14.05.08.13.15.22.17s.21.02.29-.04c.16-.11.31-.23.43-.38s.23-.3.31-.47c.05-.11.09-.22.12-.33.02-.1.01-.2-.04-.29-.02-.04-.06-.08-.1-.11-.04-.03-.08-.06-.13-.07-.1-.02-.2-.02-.29.04s-.15.13-.17.22h0Z"/>
      <path class="st0" d="M16.83,12.91c-.8.95-1.36,2.1-1.55,3.34-.09.61-.11,1.21-.03,1.82.09.68.31,1.33.46,2,.17.7.14,1.35-.03,2.05s-.38,1.32-.4,2.01c-.03,1.2.61,2.34,1.48,3.13,1.11,1,2.57,1.5,4.01,1.8.47.1.67-.62.2-.72-1.19-.25-2.39-.61-3.37-1.35-.85-.64-1.55-1.64-1.56-2.74-.01-1.25.68-2.38.53-3.65-.08-.66-.29-1.3-.45-1.94-.13-.56-.19-1.13-.16-1.7.07-1.28.58-2.52,1.4-3.5.31-.37-.22-.9-.53-.53h0Z"/>
      <path class="st0" d="M28.89,29.06c1.53-.32,3.1-.86,4.22-2,.49-.51.89-1.11,1.1-1.79.23-.72.18-1.47.01-2.2-.18-.79-.47-1.55-.39-2.37s.44-1.64.56-2.48c.21-1.46-.08-2.97-.81-4.25s-1.95-2.5-3.37-2.86c-.47-.12-.67.61-.2.72,1.14.29,2.16,1.29,2.77,2.26.71,1.12,1.04,2.46.91,3.78-.08.76-.36,1.47-.51,2.22s-.1,1.48.08,2.22c.17.69.42,1.39.36,2.11-.05.63-.33,1.23-.72,1.73-1.01,1.3-2.66,1.85-4.21,2.18-.47.1-.27.82.2.72h0Z"/>
      <path class="st0" d="M15.11,14.09c-1.93,2.49-2.36,5.76-3.01,8.75-.36,1.65-.79,3.31-1.05,4.98-.2,1.3-.3,2.65.47,3.79.85,1.26,2.28,2.14,3.83,1.9.48-.07.27-.8-.2-.72-1.2.19-2.37-.63-3.01-1.6-.68-1.04-.51-2.32-.31-3.49.26-1.52.64-3.03.97-4.54s.61-2.92.98-4.37.92-2.96,1.86-4.18c.12-.16.15-.37,0-.53-.13-.13-.41-.16-.53,0h0Z"/>
      <path class="st0" d="M16.51,33.29c.56-.39.97-.93,1.24-1.55.28-.67.37-1.39.38-2.11,0-.44-.02-.87-.05-1.31-.01-.2-.16-.38-.38-.38-.19,0-.39.17-.38.38.06.89.12,1.79-.1,2.63-.05.17-.1.35-.17.51.03-.06-.03.06-.03.08-.02.04-.04.09-.06.13-.04.09-.09.17-.14.25-.04.07-.09.14-.14.21-.03.04-.03.04,0,0-.02.02-.03.04-.05.06-.03.04-.06.07-.1.11-.07.07-.13.14-.21.2,0,0-.12.1-.07.06-.04.03-.08.06-.12.09-.16.11-.25.33-.13.51.1.16.34.25.51.13h0Z"/>
      <path class="st0" d="M33.14,13.88c1.24.64,1.98,1.9,2.52,3.14.65,1.48,1.03,3.07,1.49,4.62.52,1.72,1.04,3.44,1.35,5.21.16.89.28,1.81.27,2.72,0,.69-.34,1.25-.78,1.76-.49.56-1.02,1.02-1.75,1.24-.63.19-1.35.21-1.82-.32-.32-.36-.85.17-.53.53.99,1.11,2.77.66,3.81-.12.58-.44,1.14-1.07,1.48-1.72.4-.78.35-1.61.28-2.46-.17-2-.68-3.94-1.25-5.86-.29-.97-.59-1.94-.87-2.91-.23-.81-.47-1.61-.78-2.4-.62-1.58-1.5-3.25-3.06-4.07-.43-.22-.81.42-.38.65h0Z"/>
      <path class="st0" d="M32.35,27.53c.07.56.13,1.11.21,1.67.06.42.13.83.25,1.23.06.22.14.44.23.65.04.09.08.17.17.22.08.05.2.07.29.04.17-.06.34-.27.26-.46-.15-.37-.27-.75-.35-1.14-.04-.21-.08-.42-.11-.62,0-.05-.02-.1-.02-.16,0-.01-.02-.11,0-.05,0,.06,0,.01,0,0,0-.02,0-.04,0-.06-.02-.12-.03-.25-.05-.37-.04-.32-.08-.64-.12-.95-.01-.1-.03-.19-.11-.27-.07-.07-.17-.11-.27-.11-.18,0-.4.17-.38.38h0Z"/>
    </g>
  </g>
</svg>