<?xml version="1.0" encoding="UTF-8"?>
<svg id="dog" xmlns="http://www.w3.org/2000/svg" version="1.1" viewBox="0 0 50.83 48.47">
  <!-- Generator: Adobe Illustrator 29.8.2, SVG Export Plug-In . SVG Version: 2.1.1 Build 3)  -->
  <defs>
    <style>
      .st0 {
        fill: #231f20;
      }

      .st1 {
        fill: #fff;
      }

      .st2 {
        fill: #f39b4a;
      }

      .st3 {
        fill: #5c564d;
      }
    </style>
  </defs>
  <g>
    <g>
      <path class="st3" d="M35.44,30.5l.07-.39c-.76-.29-1.69-.05-2.23.56-.54.61-.64,1.57-.26,2.28.01.02.03.05.04.07-.06.17-.12.35-.18.52-.02.05-.03.09-.05.14-.18-1.36-.7-2.74-1.21-3.92-.15-.34-.35-1.03-.66-1.25-1.08-1.64-2.91-2.78-4.86-3-2.02-.23-4.12.5-5.56,1.93-2.51,2.5-4.47,11.26,1.33,10.97l.41-.44c.19.31.49.53.98.6,1.74.24,2.15-.84,2.25-2.14.1,1.29.51,2.37,2.25,2.14,1.77-.24,3.87-.38,4.73-1.96.21.46.52.86.48,1.23,1.29.22,2.53-.36,3.53-1.13.72-.55,1.29-1.52,1.53-2.4.57-2.11-1.04-3.84-2.59-3.82Z"/>
      <g>
        <path class="st2" d="M25.12,36.45c-.1-.1-.22-.18-.36-.26-.61-.33-1.25-.6-1.92-.78-.28-.08-.55-.13-.81,0,.09.56.55,2.24.15,2.67l.1-.11c.19.31.49.53.98.6,1.01.14,1.76-.22,2.09-1.2.13-.39.01-.7-.23-.94Z"/>
        <path class="st2" d="M27.76,38.59s.07-.01.11-.02c.89-.16,1.23-.94,1.26-1.83.01-.34.13-1.33-.25-1.51-.07-.03-.15-.04-.23-.04-.55.01-1.07.26-1.57.51-.87.44-1.88.75-1.29,1.91.35.68,1.22,1.07,1.97.97Z"/>
      </g>
      <g>
        <path class="st1" d="M21.86,37.29c.01.06.03.12.04.18.04.13.08.27.13.39,0,.01,0,.01,0,.01,0,0,0,0,.01.02.01.03.03.06.04.1.02.04.04.08.06.11l.13-.13c.19.31.49.53.98.6,1.33.18,1.88-.41,2.11-1.28-1.17-.03-2.36-.01-3.51-.01Z"/>
        <path class="st1" d="M35.44,30.5l.07-.39c-.76-.29-1.69-.05-2.23.56-.54.61-.64,1.57-.26,2.28.01.02.03.05.04.07,0,0,0,.01,0,.02.19.03.36.14.44.37.04.11.1.22.15.27.05.05.09.07.15.09.11.03.12.03.26.01-.06,0,.11-.03.13-.04.04-.01.07-.03.12-.05.11-.06.24-.13.33-.22.06-.06.08-.11.1-.17.06-.21.05-.51.04-.79,0-.41.47-.69.82-.47,1.2.75.87,2.66.41,3.76-.39.92-1.1,1.65-1.96,2.06.9-.13,1.74-.58,2.46-1.13.72-.55,1.29-1.52,1.53-2.4.57-2.11-1.04-3.84-2.59-3.82Z"/>
        <path class="st1" d="M28.6,38.43c.09-.12.17-.24.25-.36.08-.12.16-.25.23-.37.03-.06.06-.12.09-.18.02-.03.03-.07.05-.1.01-.03.02-.07.03-.1-1.14.12-2.29.05-3.43,0-.06,0-.11,0-.17,0,.23.86.78,1.45,2.11,1.27.26-.04.53-.07.8-.11.01-.02.03-.03.04-.05Z"/>
      </g>
      <g>
        <path class="st0" d="M21.64,34.99c0,.63-.08,1.26-.05,1.89.04.68.23,1.37.81,1.78.32.23.73.3,1.11.32.36.02.73-.01,1.06-.15s.59-.35.8-.64c.18-.25.29-.54.36-.84.18-.73.17-1.5.16-2.24,0-.2-.17-.38-.38-.38s-.38.16-.38.38c0,.32,0,.64,0,.95,0,.16-.01.31-.03.47,0,.07-.01.14-.02.22,0,.03-.02.1,0-.02,0,.02,0,.04,0,.06,0,.04-.01.08-.02.11-.02.14-.06.28-.1.41-.02.06-.04.12-.06.18-.03.09.04-.08,0,0-.02.04-.03.07-.05.11-.03.05-.06.11-.09.16-.02.02-.03.04-.05.07-.04.05.06-.07.02-.02-.01.02-.03.03-.04.05-.04.04-.08.09-.13.13-.01,0-.02.02-.03.03-.03.03.08-.06.03-.02-.03.02-.06.04-.1.07-.05.03-.12.05-.17.09.05-.04.08-.03.04-.02-.02,0-.03.01-.05.02-.04.01-.08.03-.12.04-.07.02-.14.03-.21.04,0,0,.1-.01.04,0-.02,0-.04,0-.06,0-.05,0-.1,0-.14,0-.08,0-.17,0-.25,0-.05,0-.1,0-.15-.01-.03,0-.05,0-.08,0-.09-.01.08.01,0,0s-.15-.03-.23-.05c-.04-.01-.08-.03-.11-.04-.07-.02.08.04.02,0-.02,0-.03-.02-.05-.02-.06-.03-.11-.07-.17-.1s.07.06.02.02c-.01-.01-.03-.02-.04-.03-.03-.02-.05-.05-.07-.07-.02-.02-.04-.06-.07-.08.06.04.05.07.03.04,0-.01-.02-.03-.03-.04-.04-.06-.07-.12-.1-.18,0-.02-.01-.03-.02-.05-.03-.06.03.09.01.03,0-.03-.02-.05-.03-.08-.02-.07-.04-.14-.06-.21-.02-.07-.03-.13-.04-.2,0-.02,0-.04,0-.06.02.11,0,.06,0,.03,0-.04,0-.08-.01-.13-.06-.67.04-1.34.04-2.01,0-.2-.17-.38-.38-.38s-.37.16-.38.38h0Z"/>
        <path class="st0" d="M31.39,28.49c-1.32-2.09-3.69-3.43-6.17-3.38-2.15.04-4.33,1.08-5.58,2.86-.84,1.21-1.38,2.67-1.68,4.1s-.42,3.02.11,4.41c.27.7.7,1.32,1.33,1.74.72.48,1.61.62,2.47.59.48-.02.48-.77,0-.75-1.26.06-2.4-.37-2.97-1.54s-.51-2.55-.31-3.76c.22-1.35.66-2.68,1.35-3.86.9-1.55,2.45-2.57,4.21-2.91,2.55-.5,5.21.71,6.59,2.9.26.41.91.03.65-.38h0Z"/>
        <path class="st0" d="M28.63,34.99c0,.6.08,1.19.05,1.79,0,.07,0,.14-.01.22,0,.04,0,.07-.01.11,0,.02,0,.03,0,.05.01-.13,0-.03,0,0-.02.14-.05.28-.1.41,0,.03-.02.05-.03.08-.02.07.04-.09.01-.03,0,.02-.01.03-.02.05-.03.06-.06.12-.1.18,0,.01-.02.02-.02.03-.02.04-.04.02.02-.03-.02.02-.04.05-.07.08-.02.02-.04.04-.06.06-.01.01-.03.02-.04.03-.07.06.06-.04,0,0-.06.04-.11.07-.17.1-.03.02-.13.04-.01,0-.04.01-.09.03-.13.05-.08.02-.15.04-.23.05-.03,0-.04.02.03,0-.02,0-.06,0-.08,0-.06,0-.11.01-.17.01-.08,0-.17,0-.25,0-.04,0-.09,0-.13,0-.04,0-.17-.03-.05,0-.07-.02-.14-.02-.21-.04-.04,0-.07-.02-.11-.03-.02,0-.03-.01-.05-.02-.04-.02-.04-.04.02.01-.04-.04-.12-.06-.17-.09-.03-.02-.06-.04-.08-.06-.01,0-.06-.04,0,0s0,0-.01-.01c-.05-.04-.09-.08-.13-.13-.03-.03-.08-.12-.01-.01-.02-.03-.04-.05-.06-.08-.03-.05-.06-.1-.09-.16-.02-.03-.03-.06-.04-.09,0-.01,0-.02-.01-.03-.03-.06.04.1,0,0-.05-.13-.09-.26-.12-.39-.02-.08-.03-.16-.05-.24,0-.04-.01-.08-.02-.11-.01-.07.01.1,0,.02,0-.02,0-.05,0-.07-.02-.17-.03-.34-.04-.51-.02-.36-.01-.72-.01-1.08,0-.2-.17-.38-.38-.38s-.37.16-.38.38c0,.68,0,1.37.12,2.04.12.61.4,1.22.95,1.55.31.19.68.26,1.03.28.41.01.84-.04,1.21-.22.66-.31.91-1.01.98-1.68s-.03-1.4-.03-2.11c0-.2-.17-.38-.38-.38s-.38.16-.38.38h0Z"/>
        <path class="st0" d="M30.73,28.81c.14.08.22.3.29.44.09.2.15.4.23.6.13.32.27.64.39.97.27.73.5,1.47.66,2.23.26,1.24.42,2.82-.36,3.83-.49.63-1.28.89-2.06.95-.48.04-.48.79,0,.75.87-.07,1.73-.32,2.38-.94.54-.52.83-1.23.94-1.96.24-1.64-.21-3.36-.77-4.89-.15-.4-.33-.82-.48-1.21-.2-.49-.35-1.13-.84-1.42-.42-.25-.79.4-.38.65h0Z"/>
        <path class="st0" d="M37.24,31.92c.72.94.62,2.12.11,3.13-.26.51-.6.99-1.05,1.36s-.94.67-1.46.86c-.63.24-1.25.3-1.92.22-.2-.03-.38.19-.38.38,0,.22.17.35.38.38.66.08,1.33.03,1.96-.19s1.22-.56,1.75-.96.96-.92,1.28-1.5.55-1.24.59-1.92c.04-.75-.16-1.53-.62-2.12-.12-.16-.32-.25-.51-.13-.16.09-.26.35-.13.51h0Z"/>
        <path class="st0" d="M34.76,32.49s.01.06.02.09c0,.04,0-.03,0-.03,0,0,0,.04,0,.05,0,.03,0,.05,0,.08,0,.02,0,.04,0,.05,0,.05,0,0,0-.02-.01.02-.01.07-.02.09,0,.03-.02.06-.03.09,0,.01,0,.03-.01.04-.02.05.03-.06,0-.02-.02.03-.03.06-.05.09,0,.01-.05.07-.05.08,0,0,.05-.05.02-.02,0,0-.02.02-.03.03-.02.02-.04.05-.07.07,0,0-.03.02-.03.03.04-.03.04-.03.02-.02,0,0-.01.01-.02.02-.03.02-.05.03-.08.05-.01,0-.07.03-.07.04,0-.02.07-.02.01,0-.01,0-.03,0-.04.01-.03.01-.07.02-.1.03-.02,0-.04,0-.05.01-.04,0,.03,0,.03,0-.02,0-.08,0-.09,0-.03,0-.06,0-.09,0-.01,0-.06,0,0,0,.06,0-.02,0-.03,0-.03,0-.05-.01-.08-.02-.02,0-.1-.03-.06-.02s-.04-.02-.05-.03c-.03-.02-.06-.04-.09-.05-.02,0-.05-.04-.07-.05.03,0,.05.04.01,0,0,0-.02-.02-.03-.03-.05-.05-.1-.1-.14-.15s.04.06-.02-.02c-.02-.03-.04-.05-.05-.08-.03-.05-.06-.11-.09-.16-.01-.03-.03-.06-.04-.08-.02-.04.01.03.01.03,0-.01-.01-.04-.02-.05-.02-.06-.04-.12-.06-.17s-.03-.12-.04-.18c0-.02,0-.04,0-.05,0,0,0,.08,0,.03,0-.03,0-.07,0-.1,0-.12,0-.24,0-.37,0-.04,0,.03,0,.03,0-.02,0-.04,0-.05,0-.03.01-.06.02-.09.01-.06.03-.12.05-.18s.04-.12.06-.17c.02-.04-.01.03-.01.03,0-.01.02-.04.02-.05.01-.03.03-.06.05-.09.03-.05.06-.1.09-.15.02-.03.03-.05.05-.08,0,0,.03-.04,0,0-.04.04.01-.01.02-.02.04-.04.07-.08.11-.12s.12-.08.14-.13c0,0-.07.05-.01.01.01,0,.02-.02.03-.02.02-.02.05-.03.07-.05.05-.03.1-.06.16-.09.03-.02.06-.03.09-.05.01,0,.03-.01.05-.02-.02.01-.06.03-.02,0,.06-.02.13-.05.19-.07s.13-.03.2-.05c.01,0,.03,0,.04,0,.06,0,.03,0-.01,0,.03,0,.07,0,.1,0,.07,0,.14,0,.21,0,.03,0,.06,0,.09,0,.02,0,.03,0,.05,0,.01,0,.07,0,.01,0s0,0,.01,0c.02,0,.03,0,.05,0,.03,0,.07.01.1.02.07.02.14.04.21.06.18.07.42-.08.46-.26.05-.21-.06-.39-.26-.46-.6-.22-1.26-.15-1.83.1s-1.02.76-1.23,1.36-.17,1.27.1,1.85c.29.62.92,1.1,1.64,1,.41-.06.77-.27,1-.62s.29-.77.19-1.15c-.05-.19-.27-.32-.46-.26s-.31.26-.26.46h0Z"/>
        <path class="st0" d="M36.63,30.03c0,.07,0,.13-.02.19v-.1c-.01.17-.06.34-.12.5l.04-.09c-.03.06-.05.12-.09.18-.05.09-.06.19-.04.29.01.05.03.09.07.13.03.04.06.07.11.1.09.05.19.07.29.04.09-.03.18-.09.22-.17.18-.33.28-.69.29-1.06,0-.05,0-.1-.03-.14-.02-.05-.04-.09-.08-.12-.03-.04-.07-.06-.12-.08-.04-.02-.09-.03-.14-.03-.1,0-.2.04-.27.11l-.06.08c-.03.06-.05.12-.05.19h0Z"/>
      </g>
    </g>
    <g>
      <path class="st1" d="M17.86,31.79c.03.15.09.32.23.35.1.02.2-.03.28-.08.26-.17.48-.37.67-.61.21.57.49,1.11.84,1.61.18.25.4.52.71.56s.65-.28.51-.56c1.32,1.31,3.65.97,5.09,2.15.32-.82,1.28-1.15,2.12-1.4.54-.16,1.08-.36,1.53-.71.08-.06.8-.87.73-.89.62.22,1.34-.03,1.77-.53s.59-1.18.55-1.83c-.11-1.58-1.97-2.77-3.24-3.5-1.5-.87-3.22-1.31-4.93-1.45-1.63-.13-3.55-.14-4.45,1.5-.35.63-.86.92-1.33,1.48-.89,1.07-1.31,2.54-1.06,3.92Z"/>
      <g>
        <path class="st0" d="M19.88,26.47c-1.06.5-1.77,1.43-2.13,2.53s-.62,2.34-.05,3.37c.09.17.23.33.44.33.18,0,.34-.1.48-.19.13-.09.26-.19.38-.29.06-.06.12-.11.18-.18.04-.04.08-.12.12-.14l-.19.05h-.02c-.06-.04-.11-.07-.17-.1-.03-.02-.01-.09-.02-.04-.01.04.02.15.03.2.03.11.07.22.12.33.09.22.21.43.34.63.24.36.56.83.97,1,.19.08.4.06.51-.13.09-.16.05-.43-.13-.51-.05-.02-.1-.05-.15-.08-.08-.06.05.05-.03-.02-.03-.02-.05-.05-.08-.07-.11-.1-.22-.24-.29-.33-.1-.14-.2-.28-.28-.43-.04-.07-.08-.15-.12-.23-.02-.04-.04-.07-.05-.11,0-.02-.02-.04-.02-.05.01.03.01.03,0,0-.02-.06-.04-.12-.06-.18,0-.03-.01-.06-.02-.09.03.12,0-.07-.01-.09-.05-.26-.25-.46-.52-.44s-.42.27-.6.44c-.15.14-.32.27-.51.35l.19-.05h-.05c.06.02.13.04.19.05.06.08.07.08.03.01-.02-.03-.04-.06-.05-.1-.02-.04-.03-.07-.05-.11-.04-.12-.08-.24-.1-.37-.04-.22-.04-.45-.02-.68.03-.51.17-1.01.32-1.49s.36-.93.68-1.3.69-.64,1.12-.84c.18-.09.23-.35.13-.51-.11-.19-.33-.22-.51-.13h0Z"/>
        <path class="st0" d="M20.8,33.26c.24.33.56.51.93.66s.71.28,1.08.39c.63.2,1.3.25,1.92.47.04.01.07.03.11.04-.07-.03.04.02.06.03.08.04.15.08.22.12.04.02.07.05.1.07-.06-.04.02.02.03.03.07.06.13.13.19.2.12.15.4.14.53,0,.15-.16.13-.37,0-.53-.41-.51-1.06-.73-1.67-.86-.3-.07-.61-.12-.91-.19-.39-.1-.76-.23-1.13-.37-.09-.04-.18-.07-.28-.11-.02,0-.03-.01-.05-.02.05.02,0,0-.02-.01-.04-.02-.08-.03-.11-.05-.08-.04-.16-.09-.24-.14.05.04-.03-.03-.04-.04-.02-.02-.03-.03-.05-.05,0-.01-.05-.07-.02-.02-.11-.16-.33-.25-.51-.13-.16.1-.26.34-.13.51h0Z"/>
        <path class="st0" d="M26.29,35.6c.05-.09.11-.18.17-.26.04-.05-.03.04,0-.01.02-.02.03-.04.05-.06.04-.05.08-.09.12-.13.07-.07.15-.14.23-.2-.05.04.06-.04.07-.05.04-.03.09-.06.13-.09.09-.05.17-.1.26-.15.04-.02.08-.04.13-.06.02,0,.04-.02.06-.03.11-.05-.07.03.04-.02.19-.08.38-.14.58-.2.41-.12.82-.22,1.22-.4s.78-.48,1.06-.83c.35-.44.57-.94.63-1.49.02-.2-.19-.38-.38-.38-.22,0-.35.17-.38.38,0,.08,0,.03,0,.01,0,.03,0,.05-.01.08,0,.05-.02.1-.03.15s-.03.1-.04.14c0,.02-.02.05-.03.07,0,0-.05.11-.02.05-.04.09-.09.18-.14.26-.03.04-.05.08-.08.12-.01.02-.03.04-.04.06-.07.1.04-.05-.03.04-.12.14-.3.32-.4.4-.09.06-.18.12-.27.18-.04.02-.08.05-.13.07-.02.01-.04.02-.06.03,0,0-.09.04-.05.02s-.03.01-.04.01c-.02,0-.04.02-.07.02-.04.02-.09.03-.13.05-.09.03-.19.06-.28.09-.2.06-.39.11-.59.17-.4.12-.81.28-1.16.51-.42.27-.78.62-1.03,1.06-.1.17-.05.42.13.51s.41.05.51-.13h0Z"/>
        <path class="st0" d="M31.6,32.55c1.12-.66,1.72-2.01,1.47-3.28-.23-1.17-1.32-1.93-2.25-2.55-2.36-1.57-5.27-2.34-8.09-2.07-1.23.12-2.69.56-3.02,1.91-.12.47.61.67.72.2.23-.95,1.34-1.26,2.2-1.35,1.2-.13,2.42-.06,3.6.19s2.34.68,3.41,1.28c.53.3,1.04.64,1.53,1.01.35.27.7.56.93.94.64,1.04.14,2.48-.88,3.08-.42.24-.04.89.38.65h0Z"/>
      </g>
    </g>
  </g>
  <g>
    <g>
      <path class="st1" d="M28.35,12.06c-.29-.83-.67-1.14-1.38-1.48-.34-.17-.59-.18-.97-.2-.99-.07-1.95-.15-2.93.06-.37.08-.73.2-1.03.44-.28.23-.48.55-.68.86-1.11,1.75-2.22,3.53-2.92,5.51-.76,2.16-1,4.5-1.09,6.8-.04.88-.05,1.77.15,2.62s.65,1.67,1.35,2.11c1.06.67,2.56.48,3.74.62,2.05.24,4.08-.07,6.14-.06.67,0,1.31.09,1.93-.22.67-.34,1.13-1.05,1.34-1.81s.2-1.57.13-2.37c-.24-2.64-1.1-5.16-1.97-7.64-.6-1.75-1.21-3.49-1.81-5.24Z"/>
      <path class="st3" d="M18.96,26.81c-.08-.78.12-1.62.62-2.21.53-.61,1.31-.84,1.88-1.38,1.04-.98,1.31-2.66,1.57-4.03.31-1.63.48-3.28.61-4.93.09-1.19-.05-2.28-.35-3.44-.03-.1-.06-.22-.15-.27-.2-.12-.79-.04-1.03-.04-.57.01-1.23.28-1.75.5-.25.1-2.56,1.63-2.57,1.62-1.11-.63-2.49-.02-3.39.83-.88.83-1.6,1.89-2.65,2.44-1.26.66-.82,1.3.05,2.07.11.09.22.21.21.36,0,.08-.06.16-.11.22-.45.61-1.47,1.62-1.26,2.48.2.28.7-.25.91.02.07.09.05.23.04.35-.13.85-.02,1.73.29,2.52.1.26.25.53.49.64s.59-.07.58-.35c.42.68,1.1,1.15,1.85,1.29.15,2.75,3.31,3.72,5.39,3.72-.66-.63-1.14-1.48-1.24-2.42Z"/>
      <path class="st3" d="M38.39,18c.25-.1.53-.2.75-.37.45-.35.61-1.01.07-1.33-1.14-.67-1.98-1.79-2.98-2.68-1-.89-2.35-1.57-3.57-1.1-.17.07-.35.16-.53.16-.29,0-.54-.21-.78-.39-1.4-1.12-3.11-1.7-4.85-1.88-.04.04-.08.07-.13.1-1,1.43-.91,3.49-.73,5.17.16,1.52.38,3.1.73,4.58.2.84.51,1.69,1.14,2.27.55.5,1.24.75,1.85,1.15,1.19.78,1.88,2.21,1.49,3.71-.18.68-.54,1.28-1.02,1.76,2.76-.14,5.48-.96,5.6-4.55.53.18,1.11-.16,1.43-.65.32-.49.43-1.1.54-1.68.02.32.05.66.23.91.18.26.55.38.77.17.25-.24.56-2.08.27-2.21.34.15.73-.19.8-.57s-.08-.78-.26-1.12c-.28-.52-.63-.88-.84-1.44Z"/>
      <path class="st2" d="M19.58,24.61c.16-.19.36-.34.55-.47-.82.1-1.68.01-2.49-.22-.45-.13-.88-.31-1.31-.51-.18-.08-.62-.38-.83-.32-.33.09-.49.86-.52,1.15,0,0,0,0,0,0,.06.58.11,1.17.11,1.76,0,.12-.04.22-.1.3.02.08.02.15.01.22.76,1.99,3.37,2.73,5.18,2.73-.66-.63-1.14-1.48-1.24-2.42-.08-.78.12-1.62.62-2.21Z"/>
      <path class="st2" d="M35.42,24.56c0-.43.02-.94-.15-1.34-.31-.75-1.14-.3-1.63-.04-.82.43-1.53.81-2.44.92-.43.05-.85.06-1.28.02.84.82,1.27,2.01.94,3.26-.18.68-.54,1.28-1.02,1.76,2.69-.14,5.34-.93,5.58-4.29,0-.1,0-.19,0-.29Z"/>
      <ellipse class="st2" cx="19.81" cy="18.66" rx="1.22" ry=".89"/>
      <ellipse class="st2" cx="29.49" cy="18.26" rx="1.22" ry=".89"/>
    </g>
    <g>
      <g>
        <circle class="st0" cx="19.84" cy="22.69" r=".98"/>
        <circle class="st0" cx="30.01" cy="22.69" r=".98"/>
        <ellipse class="st0" cx="24.93" cy="23.93" rx="1.89" ry="1.17"/>
      </g>
      <path class="st0" d="M17.64,13.45c2.46-3.08,7.1-3.22,10.59-2.13.89.28,1.75.66,2.53,1.18.4.27.78-.38.38-.65-1.57-1.06-3.47-1.59-5.33-1.81-2.03-.23-4.15-.04-6.02.81-1.03.47-1.96,1.17-2.67,2.06-.3.37.23.91.53.53h0Z"/>
      <path class="st0" d="M15.87,15.37c-.49,1.59-.46,3.27-.76,4.9-.21,1.17-.52,2.3-.59,3.5-.06,1.09.05,2.21.54,3.2.51,1.04,1.45,1.75,2.51,2.17,1.54.59,3.28.56,4.9.43.48-.04.48-.79,0-.75-2.27.17-5.44.22-6.7-2.1-1-1.85-.37-4.1.02-6.02.34-1.7.29-3.46.8-5.12.14-.46-.58-.66-.72-.2h0Z"/>
      <path class="st0" d="M33.75,15.57c.45,1.48.47,3.04.7,4.56.18,1.14.51,2.25.6,3.4.08.98.05,2.01-.36,2.92-.44.98-1.3,1.67-2.3,2.01-1.46.5-3.06.35-4.57.34-.48,0-.48.75,0,.75,2.55,0,5.7.23,7.26-2.25,1.2-1.91.73-4.41.26-6.48-.41-1.8-.33-3.69-.87-5.46-.14-.46-.87-.26-.72.2h0Z"/>
      <path class="st0" d="M17.86,12.07c-1.47-.61-2.99.39-4.02,1.38-.54.52-1.05,1.08-1.63,1.55-.27.22-.56.4-.87.55s-.59.33-.77.62c-.22.35-.18.8.06,1.13s.59.51.96.67c.19.08.41-.08.46-.26.06-.22-.07-.38-.26-.46-.17-.07-.42-.21-.53-.36-.12-.16-.09-.3.07-.44.18-.16.45-.26.67-.39.3-.17.57-.38.84-.6.99-.82,1.76-1.92,2.93-2.5.6-.3,1.27-.42,1.9-.16.19.08.41-.08.46-.26.06-.22-.07-.38-.26-.46h0Z"/>
      <path class="st0" d="M11.91,18.32c-.72.5-1.27,1.19-1.6,2-.09.21-.18.44-.16.67.03.3.27.48.56.51.23.02.48-.02.71-.07.25-.05.49-.14.72-.24l-.51-.51c-.64,1.17-.58,2.73.22,3.81.12.16.32.24.51.13.16-.09.26-.35.13-.51-.33-.45-.51-.97-.55-1.49-.04-.56.06-1.09.33-1.56.08-.15.06-.33-.06-.45-.13-.13-.3-.12-.45-.06-.3.13-.64.2-.97.21-.02,0-.04,0-.05,0h.03s.05.04.07.07c.04.03.06.07.04.12-.02-.02.06-.19.07-.22.05-.15.1-.27.18-.41.27-.54.67-1.02,1.16-1.36.17-.11.24-.33.13-.51-.1-.17-.35-.25-.51-.13h0Z"/>
      <path class="st0" d="M12.55,22.83c-.08.89.33,1.85,1.04,2.41.22.18.46.31.73.41.19.07.42-.07.46-.26.05-.21-.06-.39-.26-.46-.04-.01-.07-.03-.11-.04l.09.04c-.13-.06-.25-.12-.37-.21-.01,0-.03-.02-.04-.03,0,0-.02-.01-.03-.02l.05.04s-.06-.05-.09-.07c-.05-.05-.11-.1-.16-.15s-.09-.1-.14-.16.06.08.01.01c-.01-.01-.02-.03-.03-.04-.02-.03-.04-.06-.06-.1-.08-.12-.15-.26-.21-.39l.04.09c-.08-.2-.14-.42-.17-.64v.1c0-.17-.01-.35,0-.52,0-.09-.05-.2-.11-.27s-.17-.11-.27-.11-.2.04-.27.11-.1.16-.11.27h0Z"/>
      <path class="st0" d="M32.94,12.97c1.13-.53,2.37.4,3.13,1.15.47.46.9.96,1.39,1.41.24.22.5.44.78.62.24.16.51.28.76.44.08.06.18.14.21.21.06.13,0,.26-.07.38-.16.24-.46.4-.74.41-.2.01-.38.16-.38.38,0,.19.17.39.38.38.8-.04,1.73-.71,1.57-1.6-.13-.74-1.02-.97-1.54-1.37-1.2-.9-1.98-2.27-3.37-2.93-.79-.38-1.67-.5-2.48-.11-.18.09-.23.35-.13.51.11.19.33.22.51.13h0Z"/>
      <path class="st0" d="M37.97,18.37c.09.05.17.11.25.17l-.08-.06c.18.14.34.31.49.49l-.06-.08c.16.2.29.43.39.66l-.04-.09c.1.25.17.5.21.77v-.1s0,.04,0,.07c.01.1.03.19.11.27.07.07.17.11.27.11s.2-.04.27-.11c.06-.07.12-.17.11-.27-.05-.42-.16-.81-.34-1.18-.16-.33-.39-.64-.66-.9-.16-.15-.34-.29-.52-.4-.17-.1-.42-.04-.51.13s-.05.41.13.51h0Z"/>
      <path class="st0" d="M38.1,20.5s.02.04.03.06c-.02-.04-.02-.04,0,0,.01.03.02.06.03.09.02.07.05.14.06.2.04.14.07.29.09.44,0-.07,0,0,0,.03,0,.03,0,.07,0,.1,0,.08,0,.15,0,.23,0,.14,0,.29-.02.43,0,.01-.02.12,0,.03,0,.04-.01.08-.02.11-.01.07-.03.14-.04.21-.03.14-.08.28-.13.41,0,.01-.05.12-.03.08s-.03.06-.03.07c-.03.06-.06.12-.09.17-.04.07-.08.13-.12.2-.02.03-.04.05-.05.08,0,.01-.09.12-.04.05h.53s-.07-.08-.1-.11c-.03-.03.02.04-.02-.02-.01-.02-.03-.04-.04-.06-.03-.05-.06-.1-.09-.15-.01-.02-.02-.04-.03-.06-.03-.06,0,.01-.01-.02-.04-.1-.07-.2-.09-.3,0-.02,0-.05-.01-.07,0-.04,0,.05,0-.02,0-.06,0-.12,0-.18h-.75c0,.1,0,.2,0,.3,0,.03,0,.06,0,.08,0,.02-.01.09,0,.02,0,.05-.02.1-.03.15-.02.1-.05.19-.08.29-.02.05-.03.09-.05.14.03-.07,0,0,0,.02-.01.02-.02.05-.04.07-.04.09-.09.17-.15.25-.01.02-.02.04-.04.05,0,0-.06.08-.03.04s-.03.04-.03.04c-.01.02-.03.03-.04.05-.07.08-.14.15-.22.21,0,0-.06.05-.02.02.04-.03-.03.02-.04.03-.04.03-.09.06-.13.09-.17.1-.25.34-.13.51s.33.24.51.13c.84-.51,1.33-1.51,1.28-2.49-.01-.2-.16-.38-.38-.38s-.38.16-.38.38c0,.57.22,1.13.62,1.53.13.13.41.16.53,0,.86-1.11,1.03-2.64.45-3.92-.08-.18-.36-.24-.51-.13-.19.12-.22.32-.13.51h0Z"/>
    </g>
  </g>
</svg>