<?xml version="1.0" encoding="UTF-8"?>
<svg id="dog" xmlns="http://www.w3.org/2000/svg" version="1.1" viewBox="0 0 50.83 48.47">
  <!-- Generator: Adobe Illustrator 29.8.2, SVG Export Plug-In . SVG Version: 2.1.1 Build 3)  -->
  <defs>
    <style>
      .st0 {
        fill: #e5e2e0;
      }

      .st1 {
        fill: #231f20;
      }

      .st2 {
        fill: #fff;
      }

      .st3 {
        fill: #b8b2af;
      }
    </style>
  </defs>
  <g>
    <path class="st0" d="M34.3,36.49c-.21-.67-1.18-2.58-2.06-2.26-.18.07-.31.23-.42.44-.44-2.83-1.44-6.22-3.54-7.74-4.52-3.28-6.77,4.3-7.5,7.28-.78.13-1.57,1.69-1.75,2.28-.32,1.05-.06,2.34.86,2.94.26.17.58.28.89.24.23-.03.44-.15.61-.31.43.41,1.03.68,1.87.71,1.28.05,2.58-.89,3.83-.59.4.1.74.33,1.1.51.88.43,1.98.51,2.84.03.39-.22.64-.49.81-.79.19.23.43.4.71.44.31.04.63-.07.89-.24.91-.6,1.18-1.89.86-2.94Z"/>
    <g>
      <path class="st1" d="M21.67,29.4c-.53,1.53-.93,3.09-1.19,4.69-.22,1.32-.48,2.75-.2,4.08.12.58.39,1.15.83,1.55.51.46,1.16.66,1.83.74.31.03.62.04.93.04.39,0,.8.01,1.17-.11.6-.19.97-.67,1.15-1.25.24-.75.22-1.61.23-2.39.01-.93-.04-1.87-.14-2.79-.02-.2-.16-.37-.38-.38-.19,0-.4.17-.38.38.16,1.43.22,2.92.07,4.35-.05.43-.15.98-.53,1.24-.25.17-.56.17-.85.18-.31,0-.63,0-.94,0-.55-.03-1.14-.13-1.58-.5-.41-.34-.61-.84-.71-1.34s-.09-1.06-.04-1.58c.05-.68.15-1.35.26-2.03.27-1.59.67-3.16,1.19-4.69.16-.46-.57-.65-.72-.2h0Z"/>
      <path class="st1" d="M30.08,29.67c.46,1.31.89,2.64,1.25,3.99s.64,2.67.54,4.04c-.04.54-.09,1.28-.57,1.63-.4.29-.94.33-1.41.37-.52.04-1.13.11-1.55-.27-.36-.32-.49-.81-.58-1.27-.12-.65-.13-1.33-.18-2-.06-.78-.11-1.56-.17-2.35-.03-.48-.78-.48-.75,0,.06.78.11,1.56.17,2.35.05.68.07,1.37.18,2.05.09.55.26,1.11.61,1.55.41.5,1.01.7,1.64.71,1.19.02,2.67-.17,3.12-1.45.24-.69.27-1.49.25-2.22-.03-.76-.15-1.53-.31-2.27-.38-1.72-.94-3.4-1.52-5.06-.16-.45-.88-.26-.72.2h0Z"/>
      <path class="st1" d="M19.96,34.08c-.71.9-1.43,1.83-1.57,3.01-.13,1.05.35,2.07,1.28,2.58.5.27,1.05.36,1.61.28.2-.03.31-.28.26-.46-.06-.22-.26-.29-.46-.26.07,0-.07,0-.08,0-.04,0-.09,0-.13,0-.05,0-.1,0-.15,0-.02,0-.04,0-.05,0,.07,0-.04,0-.05,0-.08-.02-.17-.04-.25-.06-.05-.01-.09-.03-.14-.05-.07-.03-.03-.01-.01,0-.03-.01-.06-.03-.08-.04-.08-.04-.16-.09-.24-.14-.11-.07-.1-.07-.19-.14-.07-.06-.13-.13-.19-.2-.02-.02-.03-.04-.05-.06-.04-.05.03.04,0-.01-.03-.05-.06-.09-.09-.14-.04-.07-.09-.15-.12-.23.02.05,0,0,0-.01,0-.03-.02-.06-.03-.09-.02-.07-.04-.13-.05-.2-.04-.2-.05-.42-.03-.65.04-.43.21-.88.43-1.27.27-.47.6-.9.93-1.32.13-.16.15-.38,0-.53-.13-.13-.4-.16-.53,0h0Z"/>
      <path class="st1" d="M32.01,34c.76.61,1.37,1.38,1.74,2.28.19.47.32.96.28,1.47,0,.11-.03.21-.06.32-.01.05-.03.11-.05.16,0,0-.04.1-.02.06.01-.03-.03.05-.03.06-.1.2-.19.3-.37.45-.03.03,0,0,0,0-.03.02-.06.05-.1.07-.05.03-.1.06-.15.09-.09.04-.14.07-.26.1-.02,0-.05.01-.07.02-.06.01.08,0-.03,0-.06,0-.11,0-.17,0,0,0-.09,0-.04,0s-.05,0-.06-.01c-.02,0-.05-.01-.07-.02-.01,0-.11-.04-.05-.01-.19-.08-.4-.06-.51.13-.09.16-.05.43.13.51.52.22,1.07.18,1.57-.1s.83-.72.99-1.24c.36-1.17-.17-2.46-.82-3.43-.37-.54-.81-1.03-1.32-1.44-.16-.13-.38-.15-.53,0-.13.13-.16.4,0,.53h0Z"/>
    </g>
  </g>
  <g>
    <path class="st3" d="M38.47,23.1c.14.7.12,1.42-.14,2.14-.33.92-.92,1.72-1.54,2.48-.38.47-.8.95-1.36,1.18-2.17.93-2.95-2.46-3.15-3.89-.25-1.78-.07-3.6.17-5.38.09-.68.21-1.39.6-1.95,1.15-1.66,2.73.48,3.41,1.46.81,1.17,1.72,2.53,2,3.96Z"/>
    <path class="st3" d="M16.34,20.25c-.74,1.17-1.64,2.38-1.15,3.78.37,1.05.8,2.08,1.3,3.07.34.68.84,1.42,1.59,1.46,1.47.09,2.52-1.72,2.96-2.86.68-1.73.77-3.62.69-5.48-.03-.72-.1-1.48-.5-2.08-1.42-2.13-3.49-.1-4.89,2.11Z"/>
    <path class="st0" d="M18.52,11.13c-.88.75-1.29,2.11-.76,3.17.1.21.24.43.19.65-.04.2-.2.34-.34.5-1.58,1.86,1.27,2.71,1.64,4.19.32,1.28.33,2.89.26,4.2-.09,1.94-.73,4.28.8,5.8,1.45,1.44,3.66,2.03,5.62,2.32,1.67.24,3.41.2,4.99-.39,2.11-.79,3.98-2.68,3.74-5.01s-.92-5.12.02-7.53c.29-.74.91-1.62.98-2.42.03-.27-.56-1.91-.59-1.89.85-.86,1.05-2.68.13-3.58-.55-.53-1.36-.7-2.12-.67-.22-.93-1.13-1.64-2.08-1.62-.36,0-.72.1-1.06.01-.32-.08-.58-.32-.86-.49-1.2-.75-2.98-.28-3.66.96-1.21-1.36-3.74-1.12-4.67.45-.13.22-.24.46-.44.61-.22.16-.51.18-.77.23-.38.08-.73.26-1.03.51Z"/>
    <path class="st2" d="M19.38,28.38c-.02-.1-.04-.19-.07-.29-.01-.05-.03-.09-.05-.14,0-.02,0-.02,0-.02,0,0,0,0-.01-.03-.03-.06-.06-.13-.1-.19-.02-.04-.05-.07-.07-.11,0-.01,0,0,0-.01,0,0,0,0-.02-.02-.05-.06-.11-.12-.17-.18-.01-.01-.01-.01-.02-.02,0,0,0,0,0,0-.03-.02-.07-.05-.1-.07-.05-.03-.11-.06-.17-.09,0,0,0,0-.01,0,0,0,0,0-.01,0-.04-.01-.07-.03-.11-.04-.04-.01-.25-.05-.14-.03-.08,0-.16-.01-.24,0-.03,0-.12.01-.13.01-.08.01-.15.03-.22.05-.16.05-.24.08-.42.2-.15.09-.23.17-.37.3-.12.12-.25.14-.38.14,0,0-.01.02-.02.03,0,.02-.02.04-.03.05,0,0-.01.03-.02.05-.02.06-.04.12-.06.18-.02.07-.03.14-.05.2,0,.02,0,.04-.01.07,0,0,0,0,0,.02-.01.14-.02.27-.01.4,0,.07,0,.14.01.22,0,.03,0,.06,0,.1,0,.01,0,0,0,.02,0,0,0,0,0,0,.01.07.03.14.04.2.18.27.38.52.63.72.02.01.08.06.08.06.03.02.06.04.09.06.04.02.08.04.12.07.01,0,.05.02.06.03.17.06.28.09.41.09.37.02.69-.07.99-.29.48-.36.68-1.12.57-1.74Z"/>
    <path class="st2" d="M36.43,27.82c.07-.05.13-.11.19-.17-.22.01-.44.02-.66.03-.23,0-.46.02-.68.05-.03,0-.1.02-.12.02-.06.01-.11.02-.17.04-.06.02-.13.04-.19.06,0,.11,0,.21-.06.3-.31.46-.6.94-.9,1.41,0,0,0,.01,0,.02,0,0,0,0,0,0,0,.05.02.1.03.16.01.05.03.11.04.16,0,.02.02.07.03.09.04.08.08.15.13.22,0,.01.05.07.07.09.03.03.06.06.1.09-.09-.08.02.01.05.03.05.03.09.05.14.07.07.03.13.09.17.16.07.01.13.03.2.04.02,0,.07.01.09.01.04,0,.09,0,.13.01.2.01.4.02.6,0,.1,0,.21-.01.31-.02.04,0,.09,0,.13-.01.02,0,.04,0,.06,0,.27-.04.54-.11.81-.18.31-.91.2-1.94-.5-2.67Z"/>
    <g>
      <g>
        <circle class="st1" cx="22.61" cy="24.99" r=".98"/>
        <circle class="st1" cx="31.09" cy="24.86" r=".98"/>
        <ellipse class="st1" cx="27.04" cy="28.75" rx="1.89" ry="1.17"/>
      </g>
      <path class="st1" d="M31.16,21.94c.35-.12.62-.38.68-.76l-.36.28c1.6.19,2.84-1.28,2.54-2.82l-.36.47c1.16.02,2.18-.56,2.38-1.77.15-.88-.06-1.94-.56-2.69-.23-.34-.57-.65-.99-.45l.38.65c1.16-.62,1.48-1.98.98-3.15s-1.66-1.86-2.89-1.48l.46.26c-.11-.73-.7-1.34-1.34-1.68-.71-.37-1.54-.34-2.24.04l.45.06c-.68-.75-1.7-1.16-2.71-1.11-.91.04-2.36.53-2.11,1.7.1.47.82.27.72-.2-.07-.34.49-.56.74-.63.33-.1.66-.13,1-.11.7.05,1.35.38,1.82.89.11.12.31.14.45.06.95-.52,2.31.09,2.48,1.19.03.2.28.32.46.26.88-.27,1.68.27,2.02,1.08s.13,1.74-.68,2.17c-.43.23-.05.85.38.65-.07.03-.08.02-.18.02.08,0-.04.02,0,0,.01,0,.02.01.03.02-.05-.04-.05-.04-.02-.02.03.02.05.05.07.07.07.07,0-.01.03.04.03.04.05.07.07.11.05.07.09.15.12.23.17.36.3.84.33,1.27.03.45-.01.91-.28,1.27-.31.42-.87.52-1.39.51-.26,0-.41.24-.36.47.22,1.11-.73,2-1.81,1.87-.15-.02-.34.13-.36.28-.02.11-.04.2-.16.24-.45.15-.26.88.2.72h0Z"/>
      <path class="st1" d="M24.53,8.74c-1.73-1.03-4-.07-4.43,1.9l.36-.28c-1.25-.09-2.5.58-3.05,1.71-.43.89-.63,2.7.63,3.04l-.09-.69c-.95.63-1.47,1.88-1.08,2.99.34.96,1.29,1.33,2.23,1.44l-.36-.47c-.2,1.5,1.29,2.89,2.75,2.83l-.36-.28c.28.97,1.54,1,2.35.92.48-.05.48-.8,0-.75-.35.03-.72.08-1.06-.01-.22-.05-.5-.12-.57-.36-.04-.15-.2-.28-.36-.28-.49.02-.97-.13-1.32-.48s-.77-.88-.7-1.41c.04-.26-.1-.44-.36-.47-.59-.07-1.27-.28-1.51-.89-.31-.77.06-1.7.73-2.14.26-.17.24-.6-.09-.69-.39-.1-.42-.67-.41-1,.01-.42.15-.84.37-1.2.48-.77,1.37-1.15,2.26-1.09.16.01.33-.12.36-.28.33-1.5,2-2.25,3.33-1.46.42.25.79-.4.38-.65h0Z"/>
      <path class="st1" d="M18.48,19.29c.43,1.87.59,3.78.46,5.7-.08,1.31-.37,2.66.19,3.91s1.83,2.04,3.01,2.58c1.54.71,3.16.98,4.85.95s3.61-.29,5.11-1.24c.41-.26.03-.91-.38-.65-1.25.79-2.77,1.05-4.22,1.12-1.6.08-3.18-.08-4.67-.7-1.13-.47-2.44-1.18-3-2.33s-.23-2.39-.15-3.53c.14-2.02-.03-4.05-.48-6.01-.11-.47-.83-.27-.72.2h0Z"/>
      <path class="st1" d="M34.41,18.84c-.56,2.15-.62,4.37-.24,6.55.14.8.17,1.61-.07,2.39s-.77,1.48-1.41,2.04c-.37.32.17.85.53.53,1.04-.9,1.7-2.09,1.8-3.47.05-.75-.1-1.47-.21-2.21-.13-.87-.17-1.75-.13-2.62.04-1.02.2-2.02.46-3.01.12-.47-.6-.67-.72-.2h0Z"/>
      <path class="st1" d="M18.77,29.43s-.01.05-.02.07c0,.01-.04.1,0,.02s0,.01-.02.03c-.01.02-.02.04-.04.06,0,0-.04.06-.04.06,0,0,.07-.08.03-.04,0,0-.01.02-.02.02-.03.04-.07.07-.1.1-.06.05.06-.04.01,0-.02.01-.04.02-.05.04-.04.03-.08.05-.13.07,0,0-.02,0-.03.01-.06.03.08-.03.04-.01-.02,0-.04.02-.06.02-.05.02-.1.03-.15.04-.02,0-.05.01-.08.02-.03,0-.12.01.01,0-.05,0-.1.01-.15.01-.05,0-.09,0-.14,0-.03,0-.05,0-.08,0-.08,0,.1.02,0,0-.1-.02-.19-.05-.29-.08-.04-.02.09.04.03.01-.01,0-.02,0-.03-.01-.02-.01-.04-.02-.06-.03-.05-.03-.1-.06-.15-.09-.02-.01-.04-.03-.06-.04.1.06.03.02,0,0-.04-.04-.09-.08-.13-.12s-.08-.08-.11-.13c0,0-.02-.02-.02-.03,0,0,.06.08.02.03-.02-.03-.04-.05-.05-.08-.03-.04-.05-.08-.08-.13-.01-.02-.02-.04-.03-.07-.02-.03-.04-.13,0-.01-.03-.1-.07-.2-.09-.3,0-.01-.02-.11,0-.03s0-.02,0-.04c0-.05,0-.11,0-.16,0-.02,0-.05,0-.07,0-.01,0-.02,0-.04,0,.11-.01.07,0,.05.01-.05.02-.11.04-.16,0-.02.01-.05.02-.07,0-.02.04-.11.02-.04s.01-.02.02-.03c.01-.03.03-.06.05-.09.03-.05.06-.09.09-.14,0,0-.06.07-.02.03,0-.01.02-.02.03-.03.02-.03.05-.05.07-.08.02-.02.04-.04.07-.06.01-.01.03-.02.04-.03.05-.04-.06.04-.02.01.05-.04.11-.07.16-.1.03-.02.06-.03.09-.05.01,0,.03-.01.04-.02-.09.05-.04.02-.01,0,.06-.02.12-.04.19-.06.03,0,.07-.01.1-.02.02,0,.06,0,0,0-.07,0,0,0,.02,0,.06,0,.13,0,.19,0,.01,0,.1,0,.1,0,0,0-.1-.02-.04,0,.02,0,.04,0,.06.01.07.01.13.03.2.06.19.07.42-.07.46-.26.05-.21-.06-.39-.26-.46-.6-.21-1.29-.06-1.78.33-.44.35-.71.93-.67,1.5s.3,1.08.73,1.43c.22.18.47.33.75.41s.54.08.82.04c.57-.08,1.11-.47,1.26-1.05.05-.19-.06-.42-.26-.46s-.41.06-.46.26h0Z"/>
      <path class="st1" d="M16.83,18.91c-.56.92-1.37,1.68-1.78,2.68-.49,1.2-.24,2.58.25,3.73.31.74.74,1.41,1.22,2.05.12.16.32.25.51.13.16-.09.26-.35.13-.51-.78-1.02-1.46-2.19-1.61-3.49-.06-.54-.03-1.08.16-1.6.16-.42.43-.8.7-1.16.36-.48.74-.94,1.05-1.46.25-.41-.4-.79-.65-.38h0Z"/>
      <path class="st1" d="M33.93,30.26c.17.23.38.43.64.56s.53.2.81.22c.54.03,1.07-.16,1.48-.5s.66-.89.61-1.42-.3-1.09-.73-1.44c-.25-.2-.53-.35-.86-.36-.35-.01-.67.15-.92.39-.14.13-.15.4,0,.53.15.14.38.14.53,0,.02-.02.05-.04.07-.06.05-.04-.07.05-.03.02.01,0,.02-.02.03-.02.05-.03.1-.06.15-.08.04-.02-.1.04-.04.02,0,0,.02,0,.03-.01.02,0,.05-.01.07-.02s.05,0,.07-.01c-.14.03-.04,0,0,0,.02,0,.05,0,.07,0,0,0,.02,0,.03,0,.06,0-.1-.02-.05,0,.05.01.09.02.14.04.03.01.11.05-.01,0,.02.01.04.02.06.03.04.02.08.05.12.08.01,0,.02.02.04.03,0,0-.08-.07-.04-.03.02.02.04.03.06.05.04.04.08.07.11.11.02.02.03.04.05.05,0,0,.02.04.03.04,0,0-.06-.08-.03-.04.03.05.07.1.1.15.02.04.05.08.07.13.01.02.02.05.03.07.01.03.03.09-.01-.03,0,.02.01.03.02.04.04.1.07.2.09.31,0,.03,0,.05.01.08-.02-.14,0-.04,0,0,0,.05,0,.1,0,.15,0,.02,0,.05,0,.07,0,.09.02-.1,0-.01,0,.05-.02.1-.04.15,0,.03-.02.05-.03.08-.03.07.04-.09,0,0-.02.05-.05.1-.08.15-.01.02-.03.04-.04.07,0,0-.01.02-.02.03-.04.05.05-.07.03-.03-.04.04-.07.08-.11.12-.04.04-.07.07-.11.1-.07.05.07-.05,0,0-.02.02-.05.03-.07.05-.04.03-.09.05-.13.08-.02.01-.05.02-.07.03,0,0-.02,0-.03.01-.08.03.06-.02.03-.01-.1.04-.2.07-.3.09-.02,0-.05,0-.07.01-.01,0-.03,0-.04,0-.05,0,.06,0,.05,0-.05,0-.11.01-.17.01s-.11,0-.17,0c-.03,0-.06,0-.09,0,.14.01.04,0,0,0-.06-.01-.11-.02-.17-.04-.03,0-.05-.02-.08-.03-.03-.01-.13-.06,0,0-.05-.03-.11-.05-.16-.08-.02-.01-.05-.03-.07-.04-.03-.02-.12-.09-.01,0-.04-.04-.09-.07-.13-.11-.02-.02-.04-.05-.06-.07,0,0-.01-.02-.02-.02-.06-.07.05.06,0,.01-.06-.08-.12-.14-.22-.17-.09-.02-.21-.01-.29.04-.15.1-.26.35-.13.51h0Z"/>
      <path class="st1" d="M35.48,18.9c.73,1.08,1.69,2,2.32,3.14.3.54.49,1.12.49,1.74s-.15,1.24-.41,1.8c-.29.65-.7,1.24-1.23,1.72-.36.33.18.86.53.53,1.02-.93,1.7-2.28,1.84-3.66.14-1.46-.59-2.69-1.45-3.8-.48-.62-1.01-1.21-1.45-1.86-.27-.4-.92-.02-.65.38h0Z"/>
    </g>
  </g>
</svg>