<?xml version="1.0" encoding="UTF-8"?>
<svg id="dog" xmlns="http://www.w3.org/2000/svg" version="1.1" viewBox="0 0 50.83 48.47">
  <!-- Generator: Adobe Illustrator 29.8.2, SVG Export Plug-In . SVG Version: 2.1.1 Build 3)  -->
  <defs>
    <style>
      .st0 {
        fill: #231f20;
      }

      .st1 {
        fill: #fff;
      }

      .st2 {
        fill: #5c564d;
      }
    </style>
  </defs>
  <g>
    <path class="st1" d="M35.59,32.38c-.36-.01-.71.08-.96.34-.04.04-.07.08-.08.13,0,.06.03.13.06.18.54.95.62,2.14.21,3.15-.15.38-.38.74-.72.96s-.8.29-1.15.08c.45-2.05-.36-4.18-1.17-6.04-.15-.34-.35-1.03-.66-1.25-1.08-1.64-2.91-2.78-4.86-3-2.02-.23-4.12.5-5.56,1.93-2.51,2.5-4.47,11.26,1.33,10.97l.41-.44c.19.31.49.53.98.6,1.74.24,2.15-.84,2.25-2.14.1,1.29.51,2.37,2.25,2.14,1-.14,1.95-.26,2.9-.59.97-.34,1.86-.15,2.83-.09,1.08.06,2.18-.54,3.01-1.18.84-.64,1.14-1.53,1.2-2.55.05-.9,0-1.91-.65-2.53-.2-.19-.43-.32-.68-.43-.29-.13-.62-.23-.94-.24Z"/>
    <path class="st2" d="M34.24,38.34c1.8-.71,3.08-2.72,2.62-4.69-.05-.2-.11-.4-.24-.57-.21-.28-.56-.42-.91-.45-.25-.02-1.37-.08-1.1.4.54.95.62,2.14.21,3.15-.15.38-.38.74-.72.96-.65.43-1.12.2-1.48,1.06-.25.61,1.09.31,1.31.24.1-.03.2-.07.3-.11Z"/>
    <g>
      <path class="st2" d="M25.09,38.75c.12-.01.25-.02.37-.03.02,0,.05,0,.07-.02.02-.02.02-.04.02-.06.03-.56.12-1.06.06-1.64s-.23-1.19-.23-1.78c-.03-.31-.06-.63-.17-.93-.33-.89-1.26-1.39-2.12-1.8-.68-.33-1.39-.67-2.15-.74s-1.59.18-2.01.82c-.14.22-.23.47-.31.72-.27.88-.4,1.8-.34,2.72.07,1.08.19,2.59,1.11,3.31.79.62,1.91.61,2.89.4.22-.05.01-.63.04-.76,0-.03.01-.05.03-.07.02-.02.05-.02.08-.02.88,0,1.76-.03,2.64-.1Z"/>
      <path class="st2" d="M32.46,33.35c-.04-.09-.09-.19-.13-.28-.1-.2-.22-.41-.39-.55-.24-.19-.55-.23-.85-.24-1.25-.04-2.45.45-3.51,1.1-.42.26-.84.56-1.08.99-.12.22-.19.47-.25.72-.28,1.19-.34,2.3-.25,3.51,0,.03,0,.07.03.1.02.02.05.02.08.02.79.02,1.59.06,2.38.02.29-.02.37-.11.6-.25.08.44-.07.93-.32,1.29.8.06,1.62-.02,2.35-.36,1.49-.7,2.08-2.26,1.96-3.81-.06-.78-.3-1.55-.62-2.27Z"/>
    </g>
    <g>
      <path class="st0" d="M21.8,36.4c0,.63-.08,1.26-.05,1.89.04.68.23,1.37.81,1.78.32.23.73.3,1.11.32.36.02.73-.01,1.06-.15s.59-.35.8-.64c.18-.25.29-.54.36-.84.18-.73.17-1.5.16-2.24,0-.2-.17-.38-.38-.38s-.38.16-.38.38c0,.32,0,.64,0,.95,0,.16-.01.31-.03.47,0,.07-.01.14-.02.22,0,.03-.02.1,0-.02,0,.02,0,.04,0,.06,0,.04-.01.08-.02.11-.02.14-.06.28-.1.41-.02.06-.04.12-.06.18-.03.09.04-.08,0,0-.02.04-.03.07-.05.11-.03.05-.06.11-.09.16-.02.02-.03.04-.05.07-.04.05.06-.07.02-.02-.01.02-.03.03-.04.05-.04.04-.08.09-.13.13-.01,0-.02.02-.03.03-.03.03.08-.06.03-.02-.03.02-.06.04-.1.07-.05.03-.12.05-.17.09.05-.04.08-.03.04-.02-.02,0-.03.01-.05.02-.04.01-.08.03-.12.04-.07.02-.14.03-.21.04,0,0,.1-.01.04,0-.02,0-.04,0-.06,0-.05,0-.1,0-.14,0-.08,0-.17,0-.25,0-.05,0-.1,0-.15-.01-.03,0-.05,0-.08,0-.09-.01.08.01,0,0s-.15-.03-.23-.05c-.04-.01-.08-.03-.11-.04-.07-.02.08.04.02,0-.02,0-.03-.02-.05-.02-.06-.03-.11-.07-.17-.1s.07.06.02.02c-.01-.01-.03-.02-.04-.03-.03-.02-.05-.05-.07-.07-.02-.02-.04-.06-.07-.08.06.04.05.07.03.04,0-.01-.02-.03-.03-.04-.04-.06-.07-.12-.1-.18,0-.02-.01-.03-.02-.05-.03-.06.03.09.01.03,0-.03-.02-.05-.03-.08-.02-.07-.04-.14-.06-.21-.02-.07-.03-.13-.04-.2,0-.02,0-.04,0-.06.02.11,0,.06,0,.03,0-.04,0-.08-.01-.13-.06-.67.04-1.34.04-2.01,0-.2-.17-.38-.38-.38s-.37.16-.38.38h0Z"/>
      <path class="st0" d="M31.55,29.89c-1.32-2.09-3.69-3.43-6.17-3.38-2.15.04-4.33,1.08-5.58,2.86-.84,1.21-1.38,2.67-1.68,4.1s-.42,3.02.11,4.41c.27.7.7,1.32,1.33,1.74.72.48,1.61.62,2.47.59.48-.02.48-.77,0-.75-1.26.06-2.4-.37-2.97-1.54s-.51-2.55-.31-3.76c.22-1.35.66-2.68,1.35-3.86.9-1.55,2.45-2.57,4.21-2.91,2.55-.5,5.21.71,6.59,2.9.26.41.91.03.65-.38h0Z"/>
      <path class="st0" d="M28.79,36.4c0,.6.08,1.19.05,1.79,0,.07,0,.14-.01.22,0,.04,0,.07-.01.11,0,.02,0,.03,0,.05.01-.13,0-.03,0,0-.02.14-.05.28-.1.41,0,.03-.02.05-.03.08-.02.07.04-.09.01-.03,0,.02-.01.03-.02.05-.03.06-.06.12-.1.18,0,.01-.02.02-.02.03-.02.04-.04.02.02-.03-.02.02-.04.05-.07.08-.02.02-.04.04-.06.06-.01.01-.03.02-.04.03-.07.06.06-.04,0,0-.06.04-.11.07-.17.1-.03.02-.13.04-.01,0-.04.01-.09.03-.13.05-.08.02-.15.04-.23.05-.03,0-.04.02.03,0-.02,0-.06,0-.08,0-.06,0-.11.01-.17.01-.08,0-.17,0-.25,0-.04,0-.09,0-.13,0-.04,0-.17-.03-.05,0-.07-.02-.14-.02-.21-.04-.04,0-.07-.02-.11-.03-.02,0-.03-.01-.05-.02-.04-.02-.04-.04.02.01-.04-.04-.12-.06-.17-.09-.03-.02-.06-.04-.08-.06-.01,0-.06-.04,0,0s0,0-.01-.01c-.05-.04-.09-.08-.13-.13-.03-.03-.08-.12-.01-.01-.02-.03-.04-.05-.06-.08-.03-.05-.06-.1-.09-.16-.02-.03-.03-.06-.04-.09,0-.01,0-.02-.01-.03-.03-.06.04.1,0,0-.05-.13-.09-.26-.12-.39-.02-.08-.03-.16-.05-.24,0-.04-.01-.08-.02-.11-.01-.07.01.1,0,.02,0-.02,0-.05,0-.07-.02-.17-.03-.34-.04-.51-.02-.36-.01-.72-.01-1.08,0-.2-.17-.38-.38-.38s-.37.16-.38.38c0,.68,0,1.37.12,2.04.12.61.4,1.22.95,1.55.31.19.68.26,1.03.28.41.01.84-.04,1.21-.22.66-.31.91-1.01.98-1.68s-.03-1.4-.03-2.11c0-.2-.17-.38-.38-.38s-.38.16-.38.38h0Z"/>
      <path class="st0" d="M30.89,30.22c.14.08.22.3.29.44.09.2.15.4.23.6.13.32.27.64.39.97.27.73.5,1.47.66,2.23.26,1.24.42,2.82-.36,3.83-.49.63-1.28.89-2.06.95-.48.04-.48.79,0,.75.87-.07,1.73-.32,2.38-.94.54-.52.83-1.23.94-1.96.24-1.64-.21-3.36-.77-4.89-.15-.4-.33-.82-.48-1.21-.2-.49-.35-1.13-.84-1.42-.42-.25-.79.4-.38.65h0Z"/>
      <path class="st0" d="M37.53,35.61c-.01.11.01-.08,0,.03,0,.02,0,.04-.01.07,0,.05-.02.11-.03.16-.02.11-.05.22-.08.32-.03.09-.06.19-.09.28-.02.05-.04.1-.06.15,0,.01-.03.07,0,0-.01.03-.03.06-.04.09-.09.2-.2.39-.32.57-.05.08-.11.16-.17.24.04-.06,0,0,0,0-.02.03-.04.05-.06.08-.03.04-.07.08-.11.12-.14.16-.29.3-.45.43-.02.02-.04.03-.06.05.05-.04.01,0,0,0-.04.03-.09.06-.13.09-.09.06-.18.12-.27.17-.08.05-.17.09-.25.14-.05.02-.1.04-.15.07.07-.03.01,0,0,0-.03.01-.07.03-.11.04-.2.07-.4.13-.61.17-.02,0-.04,0-.06.01-.03,0-.1.01-.03,0-.07,0-.13.02-.2.02-.12,0-.25.01-.37,0s-.24-.01-.36-.03c-.07,0,.09.02-.02,0-.03,0-.07-.01-.1-.02-.07-.01-.14-.03-.21-.04-.19-.05-.42.06-.46.26s.06.41.26.46c.98.23,2.01.11,2.9-.36.82-.43,1.51-1.15,1.92-1.98.25-.51.41-1.04.47-1.6.02-.2-.19-.38-.38-.38-.22,0-.35.17-.38.38h0Z"/>
      <path class="st0" d="M33.63,37.87c1.31-.33,2.02-1.81,1.95-3.08-.02-.35-.1-.68-.23-1-.06-.13-.13-.26-.21-.37-.11-.15-.24-.27-.36-.42.05.05-.05-.06-.04-.07.02,0,.01.06.02.06-.02-.07,0-.02,0,0-.04.07-.02.03.02,0-.04.04,0,0,.01,0,.03-.01.05-.03.08-.04,0,0,.08-.03.03-.02s.02,0,.03-.01c.04-.02.08-.03.13-.04.09-.03.18-.05.27-.06.07-.01.01,0,0,0,.02,0,.04,0,.06,0,.04,0,.08,0,.13,0,.09,0,.18,0,.27.01.06,0-.06-.01,0,0,.02,0,.04,0,.06.01.04,0,.08.02.12.03.09.02.17.05.25.08.01,0,.07.03,0,0,.02.01.05.02.07.03.04.02.08.04.13.06.08.05.16.1.24.15.02.01.03.02.05.04-.07-.05.01.01.02.02.04.03.07.06.1.09.07.07.14.14.2.22.01.01.04.06,0,0,.01.02.02.03.04.05.03.04.06.09.09.13.05.08.09.16.13.25-.03-.07,0-.02,0,0,.01.03.02.06.03.09.01.04.03.08.04.12.01.05.03.1.04.16,0,.02,0,.04.01.06-.01-.07,0,0,0,.03.02.19.16.38.38.38.19,0,.4-.17.38-.38-.08-.82-.53-1.54-1.23-1.98s-1.58-.52-2.34-.18c-.23.1-.47.27-.53.53-.08.29.05.55.24.76.06.07.13.13.19.2.01.01.02.03.03.04.03.04-.04-.06-.01-.01.02.04.05.07.07.11.04.06.07.12.1.18,0,.02.06.14.02.04.01.04.03.07.04.11.02.07.05.14.06.22,0,.03.02.07.02.11,0,.02,0,.04,0,.05,0,.01.01.09,0,.03,0-.06,0,0,0,.02,0,.02,0,.05,0,.07,0,.04,0,.07,0,.11,0,.08,0,.17,0,.25,0,.07-.01.15-.02.22,0,.02-.01.07,0-.02,0,.02,0,.04,0,.06,0,.05-.02.09-.03.14-.03.16-.08.31-.13.46,0,.02-.07.15-.02.07-.02.04-.03.08-.05.11-.04.08-.08.15-.13.23s-.1.14-.14.21c-.03.05.06-.07,0,0-.01.02-.03.03-.04.05-.03.03-.05.06-.08.09-.06.06-.13.12-.19.18-.02.01-.06.04.01-.01-.02.01-.04.03-.05.04-.04.03-.07.05-.11.07-.07.04-.14.08-.22.11.09-.04-.03,0-.06.02-.04.01-.08.03-.13.04-.2.05-.31.27-.26.46s.26.31.46.26h0Z"/>
    </g>
  </g>
  <g>
    <path class="st2" d="M28.7,14.02c-.42,0-.93-.11-1.22-.13-1.14-.08-2.34-.2-3.44-.14-.91.05-2.05.09-2.92.35-.26-.25-.52-.51-.77-.77-1.56-1.62-4.03-2.04-6.26-1.73-1.56.22-.91.99-.34,1.92.2.32,1.7,2.71,1.46,2.99-.88,1.01-1.71,2.12-2.29,3.34-.24.51-.63,1.29-.57,1.87.08.74.78.42,1.23-.08-.59.64-.92,1.48-1.17,2.32-.17.57-.12,1.04-.06,1.61.01.14.03.29.14.38.15.13.38.04.56-.06.31-.17.6-.37.88-.59-.38.3-.63,2.3-.74,2.81-.05.27-.26,2.69.47,1.7.35-.48.85-.85,1.41-1.04.35.63-.22,1.46.08,2.12.03.07.08.15.16.18.24.11.81-.46,1.01-.61.51-.4,1.22-.39,1.8-.13.64.3.83.98,1.47,1.24,1.36.54,2.86.58,4.32.61,2.12.05,4.26.09,6.31-.41.61-.15,1.23-.35,1.77-.69.43-.27.91-.86,1.45-.86,1.11-.12,2.29.23,3.14.96.14.12.4-.91.4-1.03,0-.51-.3-1.09-.57-1.51.38.03.52.68.95.47.48-.23.14-1.41.03-1.75-.2-.61-.48-1.17-.74-1.75.16.18.49.1.63-.1s.15-.46.13-.7c-.07-1.11-.45-2.2-1.09-3.11.22.32,1.18.85,1.5.4.11-.15.1-.36.07-.54-.14-1.08-.53-2.13-1.14-3.03-.55-.83-1.57-1.24-1.28-2.32.35-1.33.81-2.64,1.37-3.9.08-.17.16-.35.17-.55.02-.49-.56-.72-.96-.76-2.13-.23-4.34.49-5.96,1.89-.28.24-.58.89-.84,1.04-.13.07-.31.09-.52.09Z"/>
    <path class="st1" d="M32.13,30.68s-.03-.04-.05-.06c.47-1.1.34-2.67-.3-3.67-.63-.99-1.58-1.25-2.67-1.54-.88-.23-1.46-.35-2.09-1.03-1.42-1.54-1.11-4.17.22-5.7,1.01-1.17,1.94-2.84,1.1-4.35-.46-.82-1.47-.62-2.27-.65-.7-.03-3.47-.31-3.76.54-.31.9-.27,2.4.07,3.3.39,1.04,1.4,1.75,1.51,2.89.11,1.19-.16,2.53-.8,3.55-.64,1.02-1.73,1.33-2.78,1.77-.58.24-1.18.51-1.55,1.01-.43.59-.61,1.37-.62,2.08,0,.6.31,1.53.69,2-.2.05-.25.3-.24.51.01.71.26,1.49.65,2.08.47.71,1.27,1.2,2.12,1.29.19.02.39.02.56.1.19.08.33.24.49.36.47.36,1.09.44,1.67.6s1.19.44,1.4.99c-.19-.5,1.2-1.26,1.51-1.37.84-.31,1.62-.69,2.39-1.19.83.44,1.62.21,2.29-.38.78-.69,1.19-2.25.48-3.13Z"/>
    <path class="st1" d="M31.24,14.57c.42.2.83.39,1.25.59.52.24.93-.15,1.16-.59.32-.6,1.13-1.5.03-1.64-.56-.07-1.17.35-1.65.58-.27.13-1.53.72-.8,1.07Z"/>
    <path class="st1" d="M15.61,13.72c-.02.07-.03.16-.02.25.02.27.16.5.3.73.38.62.89,1.03,1.6.74.4-.16,1.2-1.23,1.69-.93-.54-.34-1.1-.65-1.69-.9-.04-.01-.13-.05-.16-.06-.09-.03-.19-.06-.29-.09-.12-.03-.24-.06-.37-.09-.4-.1-.93-.06-1.06.33Z"/>
    <g>
      <path class="st0" d="M18.22,32.03c.21,1.2.97,2.32,2.03,2.94.29.17.61.3.94.39.19.05.42-.06.46-.26s-.06-.41-.26-.46c-.13-.03-.26-.07-.39-.12-.01,0-.03-.01-.04-.02-.07-.03.07.03.02,0-.03-.01-.06-.03-.09-.04-.06-.03-.12-.06-.18-.09-.12-.06-.23-.13-.34-.21-.03-.02-.06-.04-.09-.06-.01,0-.02-.02-.03-.03.08.06.04.03.02.02-.06-.05-.11-.09-.17-.14-.1-.09-.2-.19-.3-.29-.04-.05-.08-.09-.12-.14-.02-.03-.04-.05-.06-.08.07.09,0,0-.02-.03-.17-.23-.31-.47-.42-.73,0-.01-.01-.03-.02-.04.05.1.01.03,0,0-.01-.03-.03-.07-.04-.1-.03-.07-.05-.15-.08-.22-.05-.16-.08-.31-.11-.47-.03-.19-.28-.32-.46-.26-.21.07-.3.25-.26.46h0Z"/>
      <path class="st0" d="M21.13,33.46c.23.64.54,1.3,1.04,1.78.26.25.57.44.92.55.18.06.36.09.54.14.04.01.08.03.13.04.1.03-.04-.02,0,0,.02,0,.04.02.05.02.08.04.16.08.23.13.02.01.03.02.05.03,0,0,.09.06.05.03s.01,0,.02.02c.02.02.04.03.06.05.08.07.15.13.22.21.14.14.28.3.41.45s.4.14.53,0c.14-.16.14-.37,0-.53-.23-.26-.46-.52-.73-.73-.15-.12-.3-.23-.47-.31-.19-.09-.38-.15-.58-.2-.09-.02-.18-.04-.27-.07-.04-.01-.08-.03-.13-.04-.02,0-.04-.02-.06-.02-.04-.02.07.03,0,0-.07-.03-.13-.07-.2-.1-.03-.02-.06-.04-.09-.06-.01,0-.03-.02-.04-.03-.04-.03.06.05,0,0-.12-.1-.23-.21-.33-.33-.01-.01-.02-.03-.03-.04,0,0-.04-.06-.01-.02s0,0-.01-.02c-.01-.01-.02-.03-.03-.04-.05-.07-.09-.14-.14-.21-.09-.15-.18-.31-.25-.47-.02-.04-.03-.08-.05-.12-.03-.06,0,0,0,.01-.01-.02-.02-.05-.03-.08-.03-.09-.07-.17-.1-.26-.07-.18-.26-.33-.46-.26-.18.06-.33.26-.26.46h0Z"/>
      <path class="st0" d="M26.09,36.13c-.08-.04.1.14.1.15.01.03.01.08,0,.11-.01.06-.02.05,0,.02.02-.05,0-.01,0,0,.01-.02.03-.03.04-.04.01-.02.05-.03,0,0,.05-.03.1-.05.15-.08.22-.11.44-.22.67-.33.44-.22.87-.44,1.31-.66.69-.35,1.48-.67,2-1.27.29-.34.48-.75.46-1.2,0-.2-.17-.38-.38-.38s-.38.16-.38.38c0,.04,0,.08,0,.13,0,0-.01.1,0,.04,0-.05,0,.01,0,.02,0,.04-.02.08-.03.12,0,.02-.01.04-.02.06-.01.04-.02.05,0,0-.04.08-.08.15-.12.22-.01.02-.02.03-.03.05-.03.05.04-.04,0,0-.03.04-.07.08-.1.12-.06.06-.12.12-.18.17-.02.02-.04.03-.06.05-.01,0-.06.04,0,0-.04.03-.08.06-.12.09-.15.11-.31.2-.48.29-.42.23-.85.43-1.28.65-.46.23-.91.46-1.37.69-.25.13-.5.23-.67.47-.18.25-.17.65.14.8.17.09.42.05.51-.13.09-.17.05-.42-.13-.51h0Z"/>
      <g>
        <g>
          <circle class="st0" cx="19.73" cy="23.81" r=".98"/>
          <circle class="st0" cx="29.9" cy="23.81" r=".98"/>
          <ellipse class="st0" cx="24.82" cy="25.05" rx="1.89" ry="1.17"/>
        </g>
        <g>
          <path class="st0" d="M13.86,14.52c.39.53.75,1.09,1.02,1.69.03.06.05.11.08.17,0,.01.01.03.02.04-.04-.09-.02-.05-.01-.03.01.03.03.06.04.09.04.11.08.22.12.32.07.19.13.38.19.57s.13.39.2.58c.04.09.08.17.17.22.08.05.2.07.29.04.17-.06.34-.27.26-.46-.15-.35-.25-.72-.37-1.08-.18-.51-.4-1.01-.67-1.49-.21-.36-.44-.71-.69-1.04-.12-.16-.33-.25-.51-.13-.16.1-.26.34-.13.51h0Z"/>
          <path class="st0" d="M13.89,13.34c-.11-.17-.21-.34-.32-.5-.06-.09-.11-.18-.17-.27-.04-.07-.09-.21-.16-.25-.07-.05.04-.02-.03.02-.13.06.06.02.02.02.04,0,.11-.03.15-.04.16-.04.32-.07.47-.1.61-.12,1.23-.17,1.86-.16,1.2.01,2.42.27,3.47.87.63.35,1.18.81,1.65,1.36.32.37.84-.17.53-.53-1.98-2.3-5.15-2.82-8-2.2-.43.09-.91.29-.87.81.02.25.18.45.31.65.15.23.3.47.45.7.26.41.91.03.65-.38h0Z"/>
          <path class="st0" d="M16.03,18.76c.7-.88,1.56-1.59,2.56-2.11.38-.2.12-.79-.29-.69-.28.07-.52.12-.8.02-.08-.03-.17-.07-.25-.11.03.02-.09-.06-.09-.06-.02,0-.07.21-.05.22.04.02.41-.21.47-.24.25-.12.51-.23.77-.33,1.11-.44,2.25-.78,3.43-1,2.37-.45,4.84-.42,7.2.08,1.38.29,2.72.72,4.01,1.3l-.17-.42c-.1.38-1.12.15-1.39.11-.37-.05-.51.55-.19.7,1.26.59,2.36,1.44,3.23,2.53.3.38.83-.16.53-.53-.91-1.13-2.07-2.04-3.38-2.65l-.19.7c.71.09,1.88.26,2.11-.66.04-.15-.02-.36-.17-.42-5.16-2.3-11.09-2.4-16.24,0-.22.1-.5.22-.63.43-.15.25-.05.54.14.73.5.48,1.24.51,1.87.34l-.29-.69c-1.05.55-1.98,1.3-2.72,2.23-.3.37.23.91.53.53h0Z"/>
          <path class="st0" d="M29.56,13.7c1.2-1.36,2.99-1.97,4.74-2.21.47-.06.95-.1,1.43-.11.29,0,.71.01.89.21.03.03.04.04.04.07,0,.05-.02.14-.05.2-.11.25-.25.49-.37.74-.23.49-.44,1-.63,1.51-.42,1.18-.69,2.4-.83,3.64-.02.2.19.38.38.38.22,0,.35-.17.38-.38.13-1.15.4-2.28.78-3.37.19-.54.41-1.07.67-1.59.23-.47.61-.99.33-1.52-.22-.41-.7-.56-1.13-.62-.47-.06-.96,0-1.42.04-1,.1-2,.28-2.95.64-1.05.4-2.03.99-2.78,1.84-.32.36.21.89.53.53h0Z"/>
          <path class="st0" d="M31.3,14.32s.09-.08.14-.11c.01-.01.03-.02.04-.03,0,0-.07.05-.03.02.02-.02.04-.03.07-.05.1-.07.2-.14.3-.2.2-.12.41-.23.63-.33l-.09.04c.38-.16.78-.27,1.19-.33h-.1s.03,0,.04,0c.1-.01.19-.03.27-.11.07-.07.11-.17.11-.27s-.04-.2-.11-.27c-.07-.06-.17-.12-.27-.11-.77.1-1.51.36-2.16.78-.19.13-.38.27-.55.42-.15.13-.14.4,0,.53.16.15.37.14.53,0h0Z"/>
          <path class="st0" d="M15.51,13.77c.29-.02.58,0,.87.02.04,0,.04,0-.02,0,.02,0,.04,0,.05,0,.04,0,.07.01.11.02.07.01.14.03.21.04.14.03.27.07.41.11s.27.09.4.15c-.1-.04.02,0,.04.02.03.01.07.03.1.05.07.03.13.06.19.1.13.07.25.14.37.22.06.04.12.08.18.13.02.01.12.08.03.02.03.02.06.05.08.07.15.12.38.16.53,0,.13-.14.16-.4,0-.53-.79-.65-1.74-1.04-2.76-1.15-.27-.03-.54-.03-.8-.02-.2.01-.38.16-.38.38,0,.19.17.39.38.38h0Z"/>
          <path class="st0" d="M14.38,17.12c-.63.77-1.26,1.56-1.73,2.44-.23.43-.43.9-.56,1.37-.07.25-.11.5-.14.75-.03.28-.02.61.25.77.36.22.69-.06.96-.27.26-.19.53-.39.79-.58.16-.12.25-.33.13-.51-.1-.16-.34-.26-.51-.13-.2.15-.4.3-.6.45-.1.07-.2.15-.3.22-.05.04-.1.08-.15.11-.02.02-.04.03-.06.04-.05.03-.03.01.03.01.07,0,.18.12.18.12,0,0,.03.03,0-.01.03.04,0,.05,0,0,0-.02,0-.04,0-.06,0-.05,0-.1.02-.16,0-.08,0-.03,0-.02,0-.03,0-.06.02-.1.04-.21.09-.42.15-.62.13-.41.26-.71.48-1.09s.45-.74.7-1.09c.29-.4.55-.72.86-1.11.12-.15.16-.38,0-.53-.14-.13-.4-.16-.53,0h0Z"/>
          <path class="st0" d="M13.79,21.68c.48,0,.48-.75,0-.75s-.48.75,0,.75h0Z"/>
          <path class="st0" d="M13.56,21.07c-1.07,1.15-1.69,2.74-1.6,4.32.01.24.11.47.31.62.24.19.59.17.74-.12.09-.17.05-.42-.13-.51-.17-.09-.42-.05-.51.13-.03.06-.03.03.11-.05.09-.05.11-.08.19-.06.07.02.06.03.03,0,0,0,.07.03.03.02,0,0-.02-.02-.03-.03,0,0,.05.05.02.02,0,0-.04-.06-.01-.02.03.04,0,0,0-.02,0-.04,0,.03,0,.04,0,0,0-.05,0-.05,0-.04,0-.08,0-.12,0-.08,0-.17,0-.25,0-.16.01-.32.03-.48,0-.02.01-.11,0-.07,0,.04,0-.02,0-.02,0-.02,0-.05.01-.07.01-.08.03-.16.04-.24.06-.31.15-.61.27-.9.01-.04.03-.08.05-.12-.02.06.01-.02.02-.04.03-.08.07-.15.11-.22.07-.14.15-.28.23-.42.09-.15.19-.3.3-.44.03-.03,0,0,0,0,.01-.02.03-.04.04-.06.03-.04.06-.07.09-.11.06-.07.12-.14.19-.21.13-.14.15-.39,0-.53s-.39-.15-.53,0h0Z"/>
          <path class="st0" d="M14.16,24.16c-.87,1.98-1.76,4.01-1.34,6.22.07.36.51.32.69.09.24-.31.51-.6.81-.86.14-.12.29-.24.44-.35.14-.1.3-.25.48-.24l-.27-.64c-.19.16-.19.52-.22.74-.04.33-.07.66-.09.99-.01.22-.04.48.02.69.11.34.41.71.8.71.63,0,.89-.81,1.43-1,.41-.15.84.1,1.17.33.39.27.75.57,1.16.81,1.14.66,2.4.99,3.7.68.47-.11.27-.83-.2-.72-1,.24-1.98,0-2.87-.47-.41-.21-.77-.47-1.14-.74-.35-.26-.72-.52-1.14-.63-.79-.19-1.35.2-1.87.74-.05.05-.1.1-.15.15-.02.02-.11.1-.06.06-.02.02-.05.03-.07.04s.05,0,0,0c0,0,.09,0,.02,0,.02,0,.04,0,.07.01.03.01.02,0,0,0,.01-.01.03.04,0-.01.02.04-.03-.05-.04-.05-.02-.03-.04-.1-.07-.12,0,0,.02.03,0,0,0,0,0,.08,0-.02,0-.06,0-.12,0-.18,0-.32.03-.65.06-.97.02-.16.03-.28.05-.4,0-.05.02-.1.03-.15.02-.12,0,0-.05.04.26-.22.04-.63-.27-.64-.51-.02-.96.4-1.33.71-.4.33-.74.71-1.05,1.11l.69.09c-.38-1.98.48-3.87,1.26-5.64.08-.19.05-.4-.13-.51-.16-.09-.43-.05-.51.13h0Z"/>
          <path class="st0" d="M35.56,17.65c.72.87,1.27,1.89,1.61,2.96.08.26.16.53.22.8.02.11.05.19.04.3,0,.03-.01.06-.01.09,0,.02,0,.03,0,.01-.04.05-.03.05.03-.01h.02s.04-.02,0-.03c-.02-.04-.16-.09-.19-.11-.14-.08-.27-.15-.41-.23-.29-.17-.59-.34-.88-.5-.32-.18-.72.19-.51.51.76,1.22,1.58,2.54,1.56,4.03,0,.48.74.48.75,0,.03-1.63-.83-3.07-1.66-4.41l-.51.51c.36.21.72.41,1.08.62.31.18.65.44,1.02.31.68-.23.47-1.12.33-1.63-.36-1.38-1.03-2.66-1.94-3.76-.13-.16-.4-.13-.53,0-.16.16-.13.37,0,.53h0Z"/>
          <path class="st0" d="M35.46,24.46c1.03,1.48,1.64,3.21,1.73,5l.64-.27c-.41-.32-.9-.55-1.26-.94-.28-.31-.84.1-.59.45s.45.76.54,1.19c.08.38.06.77-.22,1.05l.45-.06c-.66-.38-1.3-.83-2.05-1.03-.71-.18-1.5-.14-2.13.28-.17.11-.24.33-.13.51.1.17.34.25.51.13,1.15-.76,2.42.18,3.42.75.14.08.34.06.45-.06.85-.88.42-2.27-.21-3.15l-.59.45c.36.39.84.62,1.26.94.12.09.26.14.41.08.13-.06.24-.19.23-.34-.1-1.92-.73-3.8-1.84-5.38-.12-.17-.33-.24-.51-.13-.16.1-.25.35-.13.51h0Z"/>
          <path class="st0" d="M28.23,32.54c1.38.03,2.77-.38,3.92-1.15.33-.22.65-.47.93-.75.14-.14.15-.4,0-.53s-.38-.15-.53,0c-.12.11-.24.22-.36.32-.03.02-.06.05-.09.07,0,0-.05.04-.02.02s-.02.02-.02.02c-.06.05-.13.1-.2.14-.27.19-.55.35-.84.49-.07.03-.13.07-.2.1-.03.02-.07.03-.1.05-.04.02,0,0,0,0-.02,0-.05.02-.07.03-.15.06-.3.12-.46.16-.3.1-.61.17-.93.22-.02,0-.05,0-.07.01,0,0-.08.01-.04,0,.04,0-.02,0-.02,0-.02,0-.05,0-.07,0-.09,0-.17.02-.26.02-.19.01-.37.02-.56.01-.2,0-.38.18-.38.38s.16.37.38.38h0Z"/>
        </g>
      </g>
      <path class="st0" d="M30.85,34.8c.53-.33,1.05-.69,1.45-1.17.42-.51.7-1.11.74-1.77.02-.38-.06-.74-.21-1.08-.08-.18-.35-.24-.51-.13-.18.12-.22.32-.13.51,0,0,.02.05.02.05,0,0-.02-.07-.01-.03,0,.03.02.06.03.09.02.07.04.13.05.2,0,.01,0,.03,0,.04.01.07,0,0,0-.02,0,.03,0,.07,0,.1,0,.07,0,.14,0,.21,0,.06,0,.13-.01.19,0,.07.01-.06,0,.01,0,.04-.01.07-.02.11-.03.13-.07.26-.12.39-.03.09.02-.03-.01.03-.01.03-.03.06-.04.09-.03.06-.06.12-.1.18s-.07.11-.11.17c-.02.03-.04.06-.06.08-.02.03.01-.02.01-.02-.01.02-.03.04-.05.06-.17.21-.38.4-.59.58-.02.01-.03.02-.05.04-.03.03-.01.01,0,0-.03.03-.07.05-.1.08-.06.05-.13.09-.19.13-.13.09-.26.17-.4.26-.17.1-.25.34-.13.51s.33.24.51.13h0Z"/>
    </g>
  </g>
</svg>