<?xml version="1.0" encoding="UTF-8"?>
<svg id="dog" xmlns="http://www.w3.org/2000/svg" version="1.1" viewBox="0 0 50.83 48.47">
  <!-- Generator: Adobe Illustrator 29.8.2, SVG Export Plug-In . SVG Version: 2.1.1 Build 3)  -->
  <defs>
    <style>
      .st0 {
        fill: #231f20;
      }

      .st1 {
        fill: #fff;
      }

      .st2 {
        fill: #f8c04e;
      }
    </style>
  </defs>
  <g>
    <g>
      <path class="st2" d="M15.88,12.66c-.16.91-.22,1.83-.18,2.75-.74.04-1.5.24-2.05.74s-.82,1.34-.5,2.01c.05.1.11.21.12.32,0,.39-.97,1.34-1.18,1.73-.35.64-.62,1.31-.81,2.01-.17.64-.2,1.68.18,2.25.33.48.75.76.85,1.37s-.16,1.18-.11,1.77c.07.72.25,1.43.42,2.13.19.76.4,1.57.98,2.1.18.16.39.3.63.32s.5-.1.59-.32c-.12.3,1.23,1.29,1.48,1.5.52.42,1.05.98,1.71,1.2.44.14.58.01.87.4.26.36.27,1.03.22,1.45-.03.21-.08.42-.01.62.07.22.25.38.44.49,1.7,1.04,3.63-.29,3.44-2.17.05.45,1.83.66,2.12.69.94.09,1.9,0,2.8-.27-.1.38-.1.8.09,1.14.55.96,3.57,1.14,3.73-.18.04-.33-.06-.66-.15-.98-.03-.12-.07-.25-.04-.38.02-.09.07-.17.13-.25.87-1.23,2.46-1.55,3.48-2.66.48-.51.88-1.1,1.17-1.74.12-.27.79-1.77.54-2.02.43.5,1.05-.31,1.22-.64.31-.6.32-1.37.05-1.98-.04-.08-.61-1.6-.33-1.63,1.92-.18.98-2.62.46-3.54-.07-.12-1.37-2.2-1.65-1.93.25-.24.61-.32.91-.5,1.42-.88-1.63-2.87-2.32-3.23-.26-.13-.55-.28-.63-.55-.02-.08-.02-.16-.03-.25-.02-.97.11-2.2-.39-3.09-.12-.22-.34-.4-.58-.42-.19-.01-.37.06-.55.14-.97.42-1.66,1.03-2.49,1.65-.1-.41-.48-.69-.87-.87-.87-.41-1.96-.49-2.88-.18-.81.27-1.69,1.07-2.58.48-.6-.4-1.04-.45-1.76-.61-.56-.12-1.18-.21-1.66.09-.4.25-.61.72-.79,1.15-.58-.5-1.23-.93-1.92-1.25-.52-.24-1.25-.69-1.73-.14-.22.25-.3.58-.37.91-.02.12-.05.25-.07.37Z"/>
      <path class="st1" d="M16.96,15.22c.44.29,1.53-.34,1.67-.79.16-.51-.67-1.1-1.19-1.11-.77-.02-.8,1.14-.65,1.67.03.1.09.18.17.23Z"/>
      <path class="st1" d="M30.5,23.19c-.64.12-1.28.23-1.89.08-.48-.12-.87-.59-1.26-.91-1.11-.94-2.96-1.26-4.24-.43-.74.48-1.17,1.22-2.12,1.3-1.13.08-2.22-.25-3.31.08-1.25.38-2.22,1.27-2.55,2.55-.22.86-.16,1.77.04,2.63.34,1.51,1.12,2.96,2.37,3.86.39.28,1.01.46,1.27.06.92,1.39,2.3,2.46,3.87,3.01.08-.28.08-.58.01-.86,1.48,1.55,4.04,1.94,5.91.89.46-.25.87-.58,1.27-.91.68-.54,1.38-1.1,1.8-1.86,0,.14,0,.28,0,.43,1.02-.14,1.9-.85,2.46-1.72s.84-1.88,1.06-2.89l.07.28c.33.02.49-.41.51-.74.07-1.18-.3-2.38-1.03-3.31-.62-.79-1.73-1.68-2.78-1.72-.47-.02-.96.08-1.45.17Z"/>
      <path class="st1" d="M33.43,13.22c-.07-.27-.18-.52-.26-.7-.37.21-1.47,1.01-1.16,1.54.2.34.96.58,1.27.31.29-.26.26-.72.15-1.15Z"/>
    </g>
    <g>
      <g>
        <path class="st0" d="M30.34,13.39c.18-.21.37-.41.57-.59.1-.09.2-.17.3-.26.03-.02.06-.04.08-.07-.05.04,0,0,0,0,.07-.05.13-.1.2-.15.22-.15.44-.29.67-.41.12-.06.23-.12.35-.18.03-.02.07-.03.1-.04,0,0,.11-.05.04-.02.07-.03.13-.05.2-.08.25-.1.52-.18.78-.24.1-.02-.04,0,.02,0,.03,0,.06,0,.09,0h.03s-.05,0,0,0h-.03s.04,0,0-.02c0,0,.06.06,0,0,.02.02.03.06.05.08-.04-.07,0,.02.01.03.01.03.02.06.03.1.04.14.07.29.1.44.02.08.03.16.05.24,0,.03,0,.05.01.08,0,.03,0,.05.01.08,0,.05,0,.05,0,.02.04.31.06.62.06.94,0,.71-.08,1.31-.28,1.99-.05.19.07.42.26.46s.4-.06.46-.26c.38-1.33.4-2.77.06-4.11-.09-.36-.26-.71-.65-.81-.31-.08-.65.03-.95.13-.58.18-1.13.44-1.64.76-.58.37-1.11.82-1.56,1.34-.13.15-.16.39,0,.53.14.13.39.16.53,0h0Z"/>
        <path class="st0" d="M20.47,13.46c-.69-1.09-1.72-1.93-2.92-2.4-.3-.12-.65-.26-.98-.23-.38.03-.65.28-.8.62-.29.67-.42,1.43-.47,2.16-.06.82.02,1.65.23,2.45.05.19.27.32.46.26s.31-.26.26-.46c-.32-1.23-.29-2.53.08-3.75.02-.07.05-.15.07-.22,0-.03.02-.05.03-.08.04-.1-.04.06.02-.04.03-.05.05-.1.08-.14-.05.07.02-.01.03-.02t0,0s.04-.02,0,0c0,0,.11-.02.06-.02-.05,0,.08,0,.07,0,.1,0-.05-.02.06,0,.04.01.08.02.12.03.13.04.26.08.39.13.07.03.14.05.2.08-.07-.03.04.02.05.02.02.01.04.02.07.03.13.06.26.13.39.2.12.07.23.14.34.21.05.03.1.07.15.1.03.02.06.04.09.06.01,0,.12.09.07.05.24.19.47.4.67.62.05.06.11.12.16.18.02.02.04.05.06.07,0,0,.09.12.05.07.1.13.19.26.27.39.1.17.34.25.51.13s.25-.34.13-.51h0Z"/>
        <path class="st0" d="M17.17,13.94c.12.03.25.07.36.12l-.09-.04c.17.07.34.17.49.29l-.08-.06c.14.11.27.24.38.38.03.04.07.06.12.08.04.02.09.03.14.03.09,0,.2-.04.27-.11s.11-.17.11-.27v-.1c-.03-.06-.06-.12-.11-.17-.14-.18-.31-.33-.49-.46s-.38-.24-.59-.32c-.1-.04-.21-.07-.32-.1-.1-.02-.2-.01-.29.04-.08.05-.15.13-.17.22-.02.1-.02.2.04.29.05.08.13.15.22.17h0Z"/>
        <path class="st0" d="M32.74,12.5c-.18.08-.35.2-.5.33s-.28.29-.39.45c-.05.08-.1.17-.14.26-.03.04-.04.09-.04.14-.01.05,0,.1,0,.15.01.05.03.09.07.13.03.04.06.07.11.1.09.05.19.07.29.04l.09-.04c.06-.03.1-.08.13-.13.06-.13.13-.26.22-.37l-.06.08c.09-.12.2-.23.32-.32l-.08.06c.11-.09.23-.16.36-.21.04-.02.08-.06.11-.1.03-.04.06-.08.07-.13.02-.05.02-.1,0-.15,0-.05-.02-.1-.04-.14-.05-.08-.13-.15-.22-.17h-.1c-.07-.01-.13,0-.19.04h0Z"/>
        <path class="st0" d="M15.24,15.11c-.95.22-2.03.54-2.5,1.49-.2.41-.25.88-.08,1.31s.53.79.99.88l-.09-.69c-.92.7-1.63,1.6-2.09,2.66-.19.44-.38.88-.5,1.35s-.21.99-.04,1.44c.08.19.25.32.46.26.18-.05.34-.27.26-.46-.14-.34-.05-.73.05-1.09.11-.4.27-.78.43-1.15.41-.92,1-1.74,1.81-2.35.12-.09.2-.21.18-.37-.02-.14-.12-.29-.27-.31-.26-.05-.44-.22-.52-.48-.09-.29,0-.57.17-.81.43-.62,1.25-.79,1.94-.94.47-.11.27-.83-.2-.72h0Z"/>
        <path class="st0" d="M12.03,25.41c-.46,1.17-.32,2.51-.02,3.71.16.62.38,1.23.64,1.81.24.52.5,1.16.99,1.5.61.41,1.6-.02,1.41-.82l-.63.36c1.02,1.28,2.22,2.68,3.92,2.98.2.03.4-.05.46-.26.05-.18-.06-.43-.26-.46-1.58-.28-2.65-1.6-3.59-2.79-.25-.31-.7.03-.63.36-.02-.07.05-.03-.02,0-.03.01-.05.03-.07.04-.09.02-.17-.03-.24-.09-.22-.18-.34-.49-.47-.73-.28-.55-.51-1.13-.69-1.72-.35-1.18-.55-2.51-.09-3.69.07-.19-.08-.41-.26-.46-.21-.06-.39.07-.46.26h0Z"/>
        <path class="st0" d="M35.01,15.5c.6.31,1.13.72,1.61,1.17.29.26.54.53.72.84.02.03.04.06.05.1,0,.02.02.03.02.05.03.05-.02-.05,0,0,.03.07.05.14.06.22,0,.02,0-.05,0,.02,0,.03,0,.07,0,.1,0-.07,0-.02,0,.01,0,.02-.01.04-.02.06.01-.03.02-.04,0,0-.01.02-.08.11-.03.05-.03.03-.05.06-.08.08s0,0,0,0c-.03.02-.05.04-.08.05-.04.03-.09.05-.13.07-.34.16-.72.14-1.08.13-.48-.01-.48.73,0,.75.02,0,.04,0,.06,0,0,0-.07-.01-.02,0,.04,0,.07.02.11.03s.07.02.11.04c.04.02,0,0,0,0,.03.01.05.03.08.04.18.09.28.17.42.3.33.29.59.64.83,1.01.25.4.47.83.63,1.27.14.39.25.79.25,1.17,0,.05,0,.1,0,.15,0,.02,0,.05,0,.07,0,.07,0-.02,0,.02s-.02.08-.03.13c0,.02,0,.03-.01.05-.02.07.02-.03,0,0-.06.12-.28.34-.43.22s-.38-.15-.53,0c-.13.13-.16.4,0,.53.6.5,1.45.15,1.69-.56.15-.46.08-.98-.03-1.43-.27-1.11-.88-2.23-1.69-3.04-.38-.38-.85-.71-1.41-.74v.75c.65.02,1.37-.02,1.86-.51.3-.3.39-.73.27-1.14-.26-.86-1.1-1.53-1.79-2.05-.32-.24-.65-.47-1-.65-.43-.22-.81.43-.38.65h0Z"/>
        <path class="st0" d="M37.25,25.13c.45.64.71,1.33.67,2.13-.02.33-.05.76-.27,1.03-.12.15-.38.24-.48.03-.16-.35-.7-.16-.7.19,0,2.22-1.54,4.32-3.65,5-.46.15-.26.87.2.72,2.43-.77,4.2-3.16,4.2-5.72l-.7.19c.2.45.78.59,1.21.43.52-.19.77-.74.86-1.25.2-1.13-.04-2.18-.7-3.12-.27-.39-.92-.02-.65.38h0Z"/>
        <path class="st0" d="M26.5,12.34c.06-.04-.03.02.03-.02.03-.02.05-.04.08-.06.06-.04.13-.08.19-.12.06-.03.11-.06.17-.09.03-.02.07-.03.1-.05.04-.02-.01,0-.02,0,.02,0,.04-.02.06-.02.13-.05.26-.09.4-.12.06-.01.13-.02.19-.03-.07.01,0,0,.03,0,.04,0,.09,0,.13,0,.13,0,.27,0,.4,0,.03,0,.11.02.04,0,.03,0,.06,0,.09.01.07.01.13.03.2.04s.13.04.19.06c.03,0,.06.02.09.03.01,0,.03.01.04.02,0,0,.07.03.03.01-.04-.02.04.02.05.02.03.02.06.03.1.05.06.03.12.06.17.1.07.04.13.08.19.13.01,0,.02.02.04.03.04.03-.04-.04,0,0,.03.02.06.05.08.07.12.1.22.21.32.33.13.15.4.14.53,0,.15-.16.13-.37,0-.53-.82-.99-2.23-1.38-3.44-.96-.37.13-.7.32-1,.57-.15.12-.14.4,0,.53.16.15.37.13.53,0h0Z"/>
        <path class="st0" d="M18.85,32.74c.08.43.32.8.58,1.14.25.32.51.64.8.93.6.59,1.48,1.04,2.33.72.16-.06.27-.19.28-.36,0-.23,0-.47,0-.7l-.7.19c.76.98,1.9,1.59,3.14,1.64.2,0,.38-.18.38-.38,0-.21-.17-.37-.38-.38-.94-.03-1.91-.5-2.49-1.27-.1-.13-.25-.22-.42-.17-.16.04-.27.2-.28.36,0,.23,0,.47,0,.7l.28-.36c-.63.23-1.23-.16-1.67-.61-.25-.25-.48-.53-.7-.81-.2-.26-.36-.53-.42-.85-.04-.2-.28-.31-.46-.26-.21.06-.3.26-.26.46h0Z"/>
        <path class="st0" d="M27.17,36.1c1.44-.1,2.81-.72,3.84-1.72.29-.28.55-.6.78-.93.11-.16.04-.42-.13-.51-.19-.1-.39-.04-.51.13-.04.06-.09.13-.13.19-.01.02-.03.04-.04.05,0,0,.03-.04,0-.01-.03.04-.06.08-.09.12-.1.12-.21.24-.32.35s-.23.22-.35.33c-.06.05-.12.1-.18.15.06-.05-.04.03-.06.04-.04.03-.07.05-.11.08-.26.18-.54.35-.83.49-.07.03-.14.07-.21.1-.07.03-.02,0,0,0-.02,0-.04.02-.06.03-.04.02-.08.03-.12.05-.15.06-.3.11-.46.15-.18.05-.35.09-.53.12-.04,0-.09.02-.13.02-.02,0-.04,0-.07,0,.04,0,.04,0,0,0-.1.01-.2.02-.3.03-.2.01-.38.16-.38.38,0,.19.17.39.38.38h0Z"/>
        <path class="st0" d="M18.3,34.66c.09.13.17.26.25.39.03.06.06.11.09.17.02.03.04.07.05.1.01.02.02.05.03.07-.01-.03-.01-.03,0,.02.03.07.05.14.07.21,0,.04.02.07.02.11.02.07,0,.03,0,0,.02.19,0,.27-.03.42-.09.32-.21.63-.12.97.08.29.3.52.57.66.28.14.58.2.9.24s.63.05.95.02c.64-.05,1.44-.18,1.83-.75.19-.29.24-.64.29-.97.06-.39.13-.78.19-1.17.03-.19-.05-.41-.26-.46-.18-.04-.43.05-.46.26-.05.32-.1.63-.16.95-.05.28-.07.58-.17.85-.02.07-.08.16-.14.22-.02.02-.03.03-.05.05.06-.05-.03.02-.04.02-.02.01-.05.03-.08.04-.02,0-.03.02-.05.02.04-.01.03-.01,0,0-.12.04-.25.08-.37.11-.07.02-.15.03-.22.05-.03,0-.05,0-.08.01-.03,0-.05,0-.08.01.03,0,.02,0-.02,0-.3.03-.6.04-.91,0-.15-.01-.19-.02-.34-.05-.06-.01-.12-.03-.18-.04-.02,0-.04-.01-.06-.02-.02,0-.14-.06-.05-.02-.05-.02-.09-.04-.13-.07-.03-.02-.05-.03-.07-.05.01,0,.05.05,0,0-.02-.02-.04-.04-.06-.06.06.07.01,0,0,0-.02-.01-.04-.08,0,0,0-.02-.03-.14-.02-.06,0-.02,0-.05,0-.07,0,0,.02-.12,0-.05.01-.06.03-.12.05-.18.04-.14.09-.28.12-.42.12-.71-.23-1.34-.62-1.91-.11-.16-.34-.25-.51-.13-.16.1-.25.34-.13.51h0Z"/>
        <path class="st0" d="M31.68,34.23c-.32.49-.66,1.06-.63,1.67,0,.16.04.32.09.47.04.14.1.28.12.42-.01-.09-.02.14,0,.05,0,.02-.01.08-.02.09l.02-.04s-.02.03-.03.05c0,0-.02.04-.03.04l.03-.03s-.02.03-.04.04c-.02.02-.04.04-.06.05.08-.06-.02,0-.04.02-.04.02-.08.05-.13.07.09-.04,0,0-.02,0-.03,0-.06.02-.08.03-.13.04-.26.06-.39.08s.04,0-.04,0c-.03,0-.07,0-.1.01-.08,0-.16.01-.24.02-.16,0-.32,0-.48,0-.28-.02-.51-.05-.82-.14-.05-.02-.11-.03-.16-.05-.1-.04.06.04-.03-.01-.03-.02-.06-.03-.09-.05s-.06-.03-.08-.05c.05.04,0,0,0,0-.02-.02-.05-.05-.07-.07.05.06-.02-.04-.03-.06-.02-.03-.03-.06-.04-.09.03.08,0-.02,0-.03-.02-.07-.04-.15-.06-.23-.01-.07-.03-.13-.04-.2,0-.01-.02-.14,0-.04,0-.03,0-.06,0-.09,0-.03,0-.06,0-.09.01.08-.01.1,0,.05,0-.04.01-.09.02-.14,0-.13-.02-.26-.04-.39-.03-.19-.28-.32-.46-.26-.21.07-.3.25-.26.46,0,.01.02.14,0,.04,0,.02,0,.05,0,.07,0,.03,0,.06,0,.1,0,.06.02-.11,0-.05,0,.04-.01.08-.02.12,0,.04,0,.07,0,.11.02.31.09.63.21.91.29.66,1.02.82,1.67.9.33.04.66.05.99.02.29-.03.6-.06.88-.17s.55-.26.71-.53c.19-.31.14-.67.04-1-.03-.08-.05-.16-.08-.25,0-.04-.02-.07-.02-.11,0-.05,0-.05,0,0,0-.02,0-.05,0-.07,0-.04,0-.07,0-.11,0-.02.02-.15,0-.08.01-.08.03-.16.06-.24.01-.03.02-.07.04-.1.02-.04.02-.05,0-.01,0-.02.02-.04.03-.07.04-.08.08-.16.12-.23.08-.15.18-.3.27-.44.11-.16.04-.42-.13-.51-.19-.1-.4-.04-.51.13h0Z"/>
        <path class="st0" d="M20.02,12.71c.1-.12.21-.24.33-.35.03-.02.05-.05.08-.07.05-.04-.02.01.04-.03.06-.04.12-.09.19-.13s.13-.08.19-.11c.03-.02.06-.03.09-.04.02,0,.03-.01.05-.02.05-.02-.05.02,0,0,.14-.05.27-.09.41-.12.03,0,.06-.01.1-.02.01,0,.1-.02.06-.01s.05,0,.06,0c.04,0,.08,0,.11,0,.15,0,.3,0,.45.02-.06,0,.03,0,.05,0,.04,0,.08.01.11.02.09.02.18.04.26.06.14.04.33.11.43.15.33.14.7.36,1.01.58.16.11.42.03.51-.13.1-.19.04-.39-.13-.51-.61-.43-1.31-.79-2.05-.9-.69-.1-1.38,0-1.99.33-.35.19-.66.46-.91.76-.12.15-.16.38,0,.53.14.13.4.16.53,0h0Z"/>
        <path class="st0" d="M24.37,10.95s.05.05.07.08l-.06-.08c.11.14.2.3.27.47l-.04-.09c.08.2.14.4.17.61v-.1c0,.12.01.24,0,.36,0,.1.04.2.11.27s.17.11.27.11c.21,0,.37-.16.38-.38,0-.5-.12-1.01-.38-1.44-.08-.13-.16-.24-.26-.35-.06-.07-.18-.11-.27-.11s-.2.04-.27.11-.11.17-.11.27.04.19.11.27h0Z"/>
      </g>
      <path class="st0" d="M11.05,25.75s.06-.09.1-.13l-.06.08c.24-.32.53-.6.85-.85l-.08.06c.13-.1.26-.19.4-.28.08-.05.15-.13.17-.22s.01-.21-.04-.29-.13-.15-.22-.17-.2-.02-.29.04c-.44.27-.84.61-1.17,1-.11.13-.21.26-.31.39-.05.07-.06.2-.04.29s.09.18.17.22c.09.05.19.07.29.04l.09-.04c.06-.03.1-.08.13-.13h0Z"/>
    </g>
  </g>
  <g>
    <circle class="st0" cx="19.86" cy="22.02" r=".98"/>
    <circle class="st0" cx="30.04" cy="22.02" r=".98"/>
    <ellipse class="st0" cx="24.95" cy="23.26" rx="1.89" ry="1.17"/>
  </g>
</svg>