<?xml version="1.0" encoding="UTF-8"?>
<svg id="dog" xmlns="http://www.w3.org/2000/svg" version="1.1" viewBox="0 0 50.83 48.47">
  <!-- Generator: Adobe Illustrator 29.8.2, SVG Export Plug-In . SVG Version: 2.1.1 Build 3)  -->
  <defs>
    <style>
      .st0 {
        fill: #231f20;
      }

      .st1 {
        fill: #fff;
      }

      .st2 {
        fill: #984e25;
      }

      .st3 {
        fill: #f39b4a;
      }
    </style>
  </defs>
  <g>
    <path class="st1" d="M32.53,36.23s.01.02.02.04c.09-.19.18-.38.27-.58.14-.93.04-1.95-.07-2.94-.2-1.18-.58-2.35-.96-3.38-.13-.34-.3-1.03-.57-1.25-.94-1.64-2.51-2.78-4.2-3-1.74-.23-3.56.5-4.8,1.93-2.16,2.5-3.86,11.26,1.14,10.97l.36-.44c.17.31.42.53.84.6,1.5.24,1.86-.84,1.94-2.14.08,1.29.44,2.37,1.94,2.14,1.53-.24,3.34-.38,4.08-1.96Z"/>
    <g>
      <path class="st3" d="M30.59,34.74c.69.43,1.38.87,2.04,1.35.06-.13.13-.26.19-.4.14-.93.04-1.95-.07-2.94-.2-1.18-.58-2.35-.96-3.38-.13-.34-.3-1.03-.57-1.25-.09-.15-.18-.29-.28-.43-.94,1.91-2.08,4.11-1.17,6.15.26.32.53.61.83.89Z"/>
      <path class="st3" d="M23.48,32.69c-.33-1.67-1.18-3.11-1.93-4.6-1.1,2.04-1.84,5.47-1.18,7.72,1.39-.12,3.46-1.35,3.11-3.12Z"/>
    </g>
    <g>
      <path class="st0" d="M23.12,34.6c0,.63-.07,1.25-.04,1.88s.15,1.32.64,1.73c.3.25.64.35,1.02.38.35.03.71-.01,1.03-.16.56-.26.86-.85.99-1.42.17-.74.15-1.52.15-2.28,0-.2-.17-.38-.38-.38s-.38.16-.38.38c0,.32,0,.64,0,.96,0,.16-.01.32-.02.47,0,.07-.01.15-.02.22,0,.03,0,.07-.01.1,0,.08.01-.08,0-.03,0,.02,0,.05-.01.07-.02.14-.05.27-.08.41-.02.07-.04.13-.06.2-.01.03-.02.06-.03.09,0,0-.01.02-.01.03.02-.11.02-.04,0,0-.02.05-.05.1-.08.15-.01.02-.03.05-.04.07,0,.01-.02.03-.03.04-.02.03-.06.04.02-.02-.04.04-.07.08-.11.12-.02.02-.04.04-.07.06-.03.02-.05.02.03-.02-.02,0-.03.02-.05.03-.05.03-.1.06-.15.09-.08.04.08-.03,0,0-.03.01-.07.02-.1.03-.06.02-.12.03-.18.04-.07.01.1,0,.02,0-.01,0-.03,0-.04,0-.04,0-.08,0-.13,0-.08,0-.16,0-.24,0-.02,0-.04,0-.06,0-.09,0,.09.01,0,0-.04,0-.08-.01-.13-.02-.06-.01-.12-.03-.18-.06-.06-.02.07.04.03.01-.01,0-.03-.01-.04-.02-.03-.02-.06-.03-.09-.05-.02-.01-.05-.04-.07-.05.08.03.06.05.02.02,0,0-.02-.01-.03-.02-.02-.02-.04-.04-.07-.07,0-.01-.02-.02-.03-.03-.06-.06.03.04.01.02-.03-.05-.07-.1-.1-.15-.01-.03-.03-.05-.04-.08,0-.01-.01-.03-.02-.04-.01-.02.04.1,0,.02-.05-.12-.08-.25-.11-.38,0-.03-.01-.06-.02-.1,0-.02,0-.04,0-.06-.01-.07,0,.08,0,.03,0-.08-.02-.16-.02-.23-.05-.66.03-1.32.03-1.98,0-.2-.17-.38-.38-.38s-.37.16-.38.38h0Z"/>
      <path class="st0" d="M31.63,28.09c-1.09-2-3.2-3.51-5.55-3.37-1.98.12-3.8,1.3-4.78,3.02-.71,1.26-1.15,2.69-1.39,4.11s-.33,2.95.16,4.32c.24.67.61,1.27,1.19,1.69.61.44,1.37.59,2.1.55.48-.02.48-.77,0-.75-1.14.06-2.05-.44-2.5-1.5-.48-1.14-.45-2.48-.3-3.68.17-1.3.52-2.62,1.09-3.8.7-1.47,1.88-2.62,3.5-3.05,2.39-.64,4.69.77,5.82,2.85.23.42.88.05.65-.38h0Z"/>
      <path class="st0" d="M29.15,34.6c0,.59.06,1.18.04,1.77,0,.14-.02.29-.03.43,0,.08.01-.1,0-.02,0,.02,0,.03,0,.05,0,.04-.01.07-.02.11-.01.07-.03.14-.05.2-.02.06-.04.12-.06.17-.03.09.04-.08,0,0-.02.03-.03.06-.05.09-.03.05-.06.1-.09.14-.04.06.06-.07.02-.02,0,.01-.02.02-.03.03-.02.03-.05.05-.07.07-.01,0-.02.02-.03.03-.03.03-.06.02.02-.02-.02.01-.05.03-.07.05-.02.02-.05.03-.08.04-.01,0-.03.01-.04.02-.07.04.08-.03.01,0-.06.02-.12.04-.18.06-.03,0-.07.01-.1.02h-.03s-.03,0,.03,0c-.01,0-.05,0-.07,0-.08,0-.16.01-.24.01-.04,0-.08,0-.12,0-.01,0-.03,0-.04,0-.1,0,.07.01,0,0-.06-.01-.12-.02-.18-.04-.03,0-.06-.02-.08-.03-.01,0-.03-.02-.05-.02.03,0,.09.04.03,0-.05-.03-.1-.05-.14-.08-.01,0-.03-.02-.04-.03-.05-.04.06.05.03.02-.02-.02-.05-.04-.07-.06-.04-.04-.07-.09-.12-.13.06.06.05.06.03.04,0-.01-.02-.03-.03-.04-.02-.03-.04-.06-.05-.09-.03-.05-.06-.1-.08-.15,0-.01-.01-.04-.02-.05,0,0,.04.09.02.04-.01-.03-.03-.07-.04-.1-.05-.13-.08-.27-.11-.41-.02-.08-.03-.16-.04-.24,0-.01,0-.03,0-.04.02.13,0,.02,0,0,0-.04,0-.08-.01-.13-.02-.17-.03-.35-.03-.52-.01-.36-.01-.72-.01-1.07,0-.2-.17-.38-.38-.38s-.37.16-.38.38c0,.69,0,1.38.11,2.07.1.6.34,1.2.87,1.55.28.18.62.25.94.26.36,0,.74-.05,1.05-.24.59-.35.78-1.03.84-1.66.07-.7-.02-1.4-.02-2.1,0-.2-.17-.38-.38-.38s-.38.16-.38.38h0Z"/>
      <path class="st0" d="M30.99,28.42c.08.06.16.27.2.38.08.21.14.42.21.63.12.33.24.65.34.98.24.73.44,1.47.58,2.23.23,1.24.39,2.8-.33,3.88-.37.55-1.02.85-1.71.91-.2.02-.38.16-.38.38,0,.19.17.39.38.38.78-.08,1.55-.34,2.09-.94.49-.55.73-1.25.82-1.97.22-1.63-.18-3.34-.67-4.89-.13-.41-.28-.8-.41-1.21-.17-.49-.29-1.1-.75-1.42-.4-.28-.77.37-.38.65h0Z"/>
    </g>
  </g>
  <g>
    <g>
      <path class="st3" d="M33.27,25.89c.35-1.05.59-2.16.77-3.25.36-2.12.49-4.48-.09-6.58-.11-.39-.36-1.03-.57-1.71-.02.03-.04.05-.06.09-.82-2.32-2.62-4.48-5.25-4.96-2.12-.38-4.49.09-6.27,1.3-.88.59-1.62,1.38-2.07,2.35-.51,1.1-1.15,2.09-1.32,3.34-.2,1.5-.1,3.19.04,4.7.22,2.38.85,4.66,1.65,6.9.5.65,2.47,1.08,3.11,1.16.43.06.88.04,1.31.02,1.45-.06,2.9-.12,4.35-.18,1.29-.05,2.53-.56,3.66-1.16.25-.67.52-1.35.75-2.03Z"/>
      <path class="st2" d="M19.05,19.22c-.13-1.59-.07-2.96.21-4.51.03-.16.02-.3-.11-.41-1.6.43-2.27,1.92-2.76,3.42-.96,2.91-1.92,5.82-2.87,8.73-.41,1.24-1.05,2.65-.9,3.98s.65,2.87,1.02,4.23c.23.87.51,1.8,1.25,2.32.92.64,2.57.34,3.26-.49.84-1,.98-2.55,1.26-3.78.47-2,.68-4.04.48-6.09-.24-2.44-.64-4.92-.84-7.4Z"/>
      <path class="st1" d="M29.46,28.63c.96-.97,1.18-2.99.88-4.21-.43-1.75-2.15-2.47-2.82-3.99-.72-1.63-.84-3.45-.2-5.12.65-1.68,2.16-3.54,1.78-5.44,0-.03,0-.06,0-.09-.33-.13-.68-.23-1.05-.3-1.19-.21-3.56-.47-4.53.52-1.42,1.46,1.61,4,1.94,5.51.36,1.63.5,3.71-.19,5.29-.55,1.26-2.02,1.77-2.56,3.01-.2.47-.21,1-.2,1.51.02,1.03.12,3.25,1.18,3.87,1.09.64,3.91.29,5.06-.11.27-.09.5-.25.7-.45Z"/>
      <path class="st2" d="M38.59,22.55c-.77-1.71-.99-3.6-1.58-5.42-.48-1.48-1.44-2.94-2.76-3.08-.08,0-.17,0-.26,0-.84.1-.35,1.24-.37,1.86-.11,3.12-.32,6.22-.64,9.33-.1,1-.39,2.05-.28,3.06.07.64.38,1.17.48,1.8.23,1.43.17,2.88.47,4.3.37,1.72,1.91,4.49,4.01,3,2.24-1.59,2.52-5.29,2.69-7.75.17-2.46-.76-4.9-1.75-7.1Z"/>
    </g>
    <g>
      <g>
        <ellipse class="st0" cx="22.67" cy="20.94" rx="1.02" ry="1"/>
        <ellipse class="st0" cx="29.82" cy="20.94" rx="1.02" ry="1"/>
        <ellipse class="st0" cx="26.33" cy="23.45" rx="1.98" ry="1.21"/>
      </g>
      <path class="st0" d="M19.73,14.43c.22-1.11.95-2.08,1.77-2.83.92-.85,2.06-1.38,3.29-1.62,2.45-.48,5.19.43,6.87,2.27.86.94,1.5,2.14,1.57,3.43.03.48.78.48.75,0-.14-2.56-2.11-4.87-4.42-5.83-2.67-1.11-5.82-.99-8.14.84-1.11.87-2.14,2.13-2.41,3.54-.09.47.63.67.72.2h0Z"/>
      <path class="st0" d="M18.29,14.19c-1.04.31-1.62,1.25-2,2.19-.49,1.19-.71,2.48-1.06,3.72-.41,1.44-.88,2.86-1.4,4.26s-1.15,2.68-1.43,4.11-.02,2.95.32,4.41c.18.74.38,1.48.58,2.22.17.6.35,1.22.74,1.72.74.96,2.1,1.21,3.2.75.98-.42,1.59-1.31,1.97-2.28.49-1.25.61-2.64.8-3.96.25-1.75.41-3.52.27-5.29-.04-.48-.79-.48-.75,0,.11,1.43.03,2.86-.14,4.28-.15,1.23-.3,2.48-.58,3.69-.2.88-.52,1.81-1.19,2.44-.72.68-1.93.85-2.72.19-.46-.38-.65-.98-.81-1.54-.18-.64-.36-1.29-.52-1.94-.33-1.31-.68-2.72-.5-4.08s.71-2.53,1.19-3.74c.51-1.28.96-2.58,1.37-3.89s.7-2.72,1.12-4.06c.29-.93.73-2.16,1.76-2.47.46-.14.26-.86-.2-.72h0Z"/>
      <path class="st0" d="M20.2,25.02c.03-1.19-.24-2.41-.43-3.58-.23-1.4-.47-2.8-.53-4.22-.02-.6-.03-1.17.14-1.71.15-.46-.58-.66-.72-.2-.16.51-.18,1.07-.17,1.6,0,.68.08,1.35.16,2.02.18,1.45.45,2.89.66,4.34.08.58.16,1.17.15,1.75-.01.48.74.48.75,0h0Z"/>
      <path class="st0" d="M34.09,14.57c.81-.09,1.39.59,1.73,1.25.36.69.58,1.45.8,2.19.25.82.53,1.62.77,2.44.25.87.49,1.75.79,2.62.56,1.62,1.41,3.15,1.65,4.86s0,3.53-.5,5.23c-.26.89-.53,1.87-.96,2.69-.38.71-.97,1.25-1.78,1.41-.47.09-.27.82.2.72.75-.15,1.4-.59,1.86-1.19.53-.68.78-1.53,1.06-2.34.62-1.81,1.05-3.71.95-5.64-.05-.96-.23-1.91-.54-2.82s-.7-1.72-1.03-2.59c-.36-.94-.62-1.91-.9-2.87-.26-.9-.57-1.78-.84-2.67s-.54-1.85-1.03-2.67c-.47-.77-1.28-1.47-2.24-1.37-.48.05-.48.8,0,.75h0Z"/>
      <path class="st0" d="M33.24,16.8c.06,2.59-.38,5.19-.7,7.76-.22,1.73-.1,3.47.13,5.19.11.86.24,1.71.36,2.56.1.72.18,1.44.31,2.16.25,1.36.79,2.78,2.11,3.42.43.21.81-.44.38-.65-1.12-.54-1.53-1.74-1.75-2.89-.13-.66-.19-1.34-.29-2-.12-.85-.25-1.69-.36-2.54-.22-1.66-.34-3.34-.16-5.01.14-1.27.33-2.52.46-3.79.15-1.4.29-2.81.26-4.21-.01-.48-.76-.48-.75,0h0Z"/>
      <path class="st0" d="M19.93,28c.32.53.92.83,1.49,1.03.6.21,1.24.32,1.88.35.3.02.59,0,.89-.04.19-.03.32-.29.26-.46-.07-.21-.25-.29-.46-.26-.06,0,.09-.01.05,0-.01,0-.03,0-.04,0-.02,0-.04,0-.06,0-.06,0-.12,0-.17.01-.12,0-.24,0-.36,0-.13,0-.27-.01-.4-.03-.07,0-.14-.02-.21-.02.11,0,.01,0-.02,0-.04,0-.09-.01-.13-.02-.3-.05-.59-.12-.87-.21-.07-.02-.13-.04-.2-.07-.03-.01-.06-.02-.09-.03-.01,0-.03-.01-.04-.02-.05-.02-.04-.02,0,0-.12-.07-.25-.12-.37-.19-.06-.04-.12-.07-.17-.11-.01,0-.03-.02-.04-.03-.07-.05.04.04.01.01s-.06-.05-.08-.07c-.05-.04-.09-.09-.13-.13,0,0-.02-.02-.02-.03-.05-.05.05.07.01.02-.02-.03-.04-.06-.06-.09-.1-.17-.34-.25-.51-.13s-.24.33-.13.51h0Z"/>
      <path class="st0" d="M28.38,29.34c1.32.18,2.71.09,3.86-.65.25-.16.48-.34.69-.55.14-.14.15-.39,0-.53s-.38-.15-.53,0c-.08.08-.16.15-.24.22-.02.02-.04.03-.06.05-.07.06.05-.03,0,0-.05.04-.1.07-.15.11-.2.14-.42.25-.64.35-.02.01-.05.03.02,0-.01,0-.02.01-.04.01-.03.01-.06.02-.09.03-.07.03-.13.05-.2.07-.13.04-.27.08-.4.11-.07.01-.13.03-.2.04-.04,0-.08.01-.12.02-.03,0-.13.02-.05,0-.16.02-.32.03-.48.04-.2,0-.39,0-.59,0-.1,0-.2-.01-.29-.02-.06,0-.11-.01-.17-.02-.02,0-.04,0-.06,0-.13-.02.07.01-.05,0-.19-.03-.41.05-.46.26-.04.18.05.43.26.46h0Z"/>
    </g>
  </g>
</svg>