<?xml version="1.0" encoding="UTF-8"?>
<svg id="dog" xmlns="http://www.w3.org/2000/svg" version="1.1" viewBox="0 0 50.83 48.47">
  <!-- Generator: Adobe Illustrator 29.8.2, SVG Export Plug-In . SVG Version: 2.1.1 Build 3)  -->
  <defs>
    <style>
      .st0 {
        fill: #231f20;
      }

      .st1 {
        fill: #fff;
      }

      .st2 {
        fill: #984e25;
      }

      .st3 {
        fill: #f39b4a;
      }

      .st4 {
        fill: #5c564d;
      }
    </style>
  </defs>
  <g>
    <g>
      <path class="st1" d="M32.91,30.97c-.24-.76-.55-1.5-.83-2.15-.15-.34-.35-1.03-.66-1.25-1.08-1.64-2.91-2.78-4.86-3-2.02-.23-4.12.5-5.56,1.93-2.51,2.5-4.47,11.26,1.33,10.97l.41-.44c.19.31.49.53.98.6,1.74.24,2.15-.84,2.25-2.14.1,1.29.51,2.37,2.25,2.14,1-.14,1.95-.26,2.9-.59,1.04-.37,2.27-.16,3.34-.54.71-.25,1.61-.69,2.18-1.18.37-.32,1.02-1.26.38-1.57-.5-.25-1.45.62-1.84.83-.44.24-.94.41-1.44.36-.55-.06-.29-1.34-.33-1.72-.06-.76-.25-1.51-.49-2.24Z"/>
      <g>
        <path class="st3" d="M22.19,35.14c.05-1.39.36-3.02,0-4.39-.11-.42-2.35-2.58-2.3-2.68-1.82,3.44-2.46,9.64,2.42,9.39l.1-.1c-.24-.69-.26-1.52-.24-2.22Z"/>
        <path class="st3" d="M33.47,34.73c-.2-.38-.05-1.22-.07-1.53-.06-.76-.25-1.51-.49-2.24-.2-.62-.53-2.37-1.41-2.38-.24,0-.47.1-.68.21-.46.22-.94.47-1.22.89-.35.52-.32,1.19-.29,1.82.12,2.04.42,4-.17,5.99.67-.1,1.32-.23,1.98-.46.58-.21,1.23-.23,1.87-.28.14-.68.27-1.36.48-2.02Z"/>
      </g>
      <path class="st4" d="M35.01,34.64c-.4.19-.84.33-1.28.28-.16-.02-.24-.13-.29-.3-.14.18-.29.36-.43.54-.14.4-.31.79-.55,1.15-.13.19-.27.37-.42.54.81-.1,1.66-.09,2.43-.37.33-.12.71-.28,1.08-.47-.2-.45-.37-.91-.53-1.38Z"/>
      <g>
        <path class="st4" d="M21.99,29.8c-.41-.63-1.2-1.16-1.88-1.5-.42-.21-1.58,4.48-1.52,4.94.38-.28.74-.42,1.22-.57.69-.21,1.4-.45,1.9-.92.72-.68.67-1.36.29-1.95Z"/>
        <path class="st4" d="M32.06,29.25c-.17-.35-.33-.69-.42-1.05-.61.22-1.19.51-1.72.87-.17.11-.33.23-.45.38-.66.79.13,2.08.87,2.61.85.61,1.97.81,2.94,1.23.33.14-.35-2.34-.41-2.48-.23-.52-.54-1.04-.81-1.56Z"/>
      </g>
      <g>
        <path class="st0" d="M22.1,34.03c0,.63-.08,1.26-.05,1.89.04.68.23,1.37.81,1.78.32.23.73.3,1.11.32.36.02.73-.01,1.06-.15s.59-.35.8-.64c.18-.25.29-.54.36-.84.18-.73.17-1.5.16-2.24,0-.2-.17-.38-.38-.38s-.38.16-.38.38c0,.32,0,.64,0,.95,0,.16-.01.31-.03.47,0,.07-.01.14-.02.22,0,.03-.02.1,0-.02,0,.02,0,.04,0,.06,0,.04-.01.08-.02.11-.02.14-.06.28-.1.41-.02.06-.04.12-.06.18-.03.09.04-.08,0,0-.02.04-.03.07-.05.11-.03.05-.06.11-.09.16-.02.02-.03.04-.05.07-.04.05.06-.07.02-.02-.01.02-.03.03-.04.05-.04.04-.08.09-.13.13-.01,0-.02.02-.03.03-.03.03.08-.06.03-.02-.03.02-.06.04-.1.07-.05.03-.12.05-.17.09.05-.04.08-.03.04-.02-.02,0-.03.01-.05.02-.04.01-.08.03-.12.04-.07.02-.14.03-.21.04,0,0,.1-.01.04,0-.02,0-.04,0-.06,0-.05,0-.1,0-.14,0-.08,0-.17,0-.25,0-.05,0-.1,0-.15-.01-.03,0-.05,0-.08,0-.09-.01.08.01,0,0s-.15-.03-.23-.05c-.04-.01-.08-.03-.11-.04-.07-.02.08.04.02,0-.02,0-.03-.02-.05-.02-.06-.03-.11-.07-.17-.1s.07.06.02.02c-.01-.01-.03-.02-.04-.03-.03-.02-.05-.05-.07-.07-.02-.02-.04-.06-.07-.08.06.04.05.07.03.04,0-.01-.02-.03-.03-.04-.04-.06-.07-.12-.1-.18,0-.02-.01-.03-.02-.05-.03-.06.03.09.01.03,0-.03-.02-.05-.03-.08-.02-.07-.04-.14-.06-.21-.02-.07-.03-.13-.04-.2,0-.02,0-.04,0-.06.02.11,0,.06,0,.03,0-.04,0-.08-.01-.13-.06-.67.04-1.34.04-2.01,0-.2-.17-.38-.38-.38s-.37.16-.38.38h0Z"/>
        <path class="st0" d="M31.85,27.53c-1.32-2.09-3.69-3.43-6.17-3.38-2.15.04-4.33,1.08-5.58,2.86-.84,1.21-1.38,2.67-1.68,4.1s-.42,3.02.11,4.41c.27.7.7,1.32,1.33,1.74.72.48,1.61.62,2.47.59.48-.02.48-.77,0-.75-1.26.06-2.4-.37-2.97-1.54s-.51-2.55-.31-3.76c.22-1.35.66-2.68,1.35-3.86.9-1.55,2.45-2.57,4.21-2.91,2.55-.5,5.21.71,6.59,2.9.26.41.91.03.65-.38h0Z"/>
        <path class="st0" d="M29.09,34.03c0,.6.08,1.19.05,1.79,0,.07,0,.14-.01.22,0,.04,0,.07-.01.11,0,.02,0,.03,0,.05.01-.13,0-.03,0,0-.02.14-.05.28-.1.41,0,.03-.02.05-.03.08-.02.07.04-.09.01-.03,0,.02-.01.03-.02.05-.03.06-.06.12-.1.18,0,.01-.02.02-.02.03-.02.04-.04.02.02-.03-.02.02-.04.05-.07.08-.02.02-.04.04-.06.06-.01.01-.03.02-.04.03-.07.06.06-.04,0,0-.06.04-.11.07-.17.1-.03.02-.13.04-.01,0-.04.01-.09.03-.13.05-.08.02-.15.04-.23.05-.03,0-.04.02.03,0-.02,0-.06,0-.08,0-.06,0-.11.01-.17.01-.08,0-.17,0-.25,0-.04,0-.09,0-.13,0-.04,0-.17-.03-.05,0-.07-.02-.14-.02-.21-.04-.04,0-.07-.02-.11-.03-.02,0-.03-.01-.05-.02-.04-.02-.04-.04.02.01-.04-.04-.12-.06-.17-.09-.03-.02-.06-.04-.08-.06-.01,0-.06-.04,0,0s0,0-.01-.01c-.05-.04-.09-.08-.13-.13-.03-.03-.08-.12-.01-.01-.02-.03-.04-.05-.06-.08-.03-.05-.06-.1-.09-.16-.02-.03-.03-.06-.04-.09,0-.01,0-.02-.01-.03-.03-.06.04.1,0,0-.05-.13-.09-.26-.12-.39-.02-.08-.03-.16-.05-.24,0-.04-.01-.08-.02-.11-.01-.07.01.1,0,.02,0-.02,0-.05,0-.07-.02-.17-.03-.34-.04-.51-.02-.36-.01-.72-.01-1.08,0-.2-.17-.38-.38-.38s-.37.16-.38.38c0,.68,0,1.37.12,2.04.12.61.4,1.22.95,1.55.31.19.68.26,1.03.28.41.01.84-.04,1.21-.22.66-.31.91-1.01.98-1.68s-.03-1.4-.03-2.11c0-.2-.17-.38-.38-.38s-.38.16-.38.38h0Z"/>
        <path class="st0" d="M31.19,27.85c.14.08.22.3.29.44.09.2.15.4.23.6.13.32.27.64.39.97.27.73.5,1.47.66,2.23.26,1.24.42,2.82-.36,3.83-.49.63-1.28.89-2.06.95-.48.04-.48.79,0,.75.87-.07,1.73-.32,2.38-.94.54-.52.83-1.23.94-1.96.24-1.64-.21-3.36-.77-4.89-.15-.4-.33-.82-.48-1.21-.2-.49-.35-1.13-.84-1.42-.42-.25-.79.4-.38.65h0Z"/>
      </g>
    </g>
    <path class="st0" d="M33.41,35.45c.77.05,1.51-.25,2.17-.62.31-.17.61-.37.9-.58.15-.11.29-.22.44-.34.03-.03.07-.06.1-.08-.05.03.06-.04.06-.03-.01.04-.15-.01-.14,0-.07-.08-.08-.09-.05-.03-.01-.04-.01-.03,0,0,0,.03.01.05.02.08-.01-.06,0,.07,0,.07,0,.04,0,.08,0,.13,0,0-.01.13,0,.07-.02.17-.08.31-.14.43-.15.28-.37.51-.64.71-.21.17-.53.36-.8.5-.31.17-.59.28-.91.39-.74.25-1.45.35-2.23.33-.2,0-.38.18-.38.38,0,.21.17.37.38.38,1.53.05,3.12-.42,4.34-1.35.63-.48,1.21-1.19,1.13-2.03-.02-.22-.07-.45-.23-.61-.2-.2-.48-.21-.72-.09-.18.09-.33.25-.49.37-.13.1-.29.22-.44.32-.36.24-.75.47-1.14.64s-.81.27-1.24.24c-.2-.01-.38.18-.38.38,0,.21.17.36.38.38h0Z"/>
  </g>
  <g>
    <g>
      <path class="st2" d="M11.97,21.91c-.08.34-.13.67-.14.99-.09,2.01,1.45,6.67,4.17,6.23.34-.05.56-.37.74-.66.93-1.48,1.88-3,2.26-4.7.36-1.6.19-3.26-.03-4.88-.22-1.62-.14-4.3-1.53-5.47-.26-.22-.63-.25-.95-.16-1.79.5-2.09,3.03-2.8,4.43-.6,1.19-1.4,2.78-1.72,4.23Z"/>
      <path class="st2" d="M32.65,16.47c-.37,3.35-.72,6.86.57,9.97.42,1,1.16,2.05,2.24,2.14.79.07,1.55-.43,2.01-1.08,1.49-2.1,1.91-5.5,1.3-7.94-.22-.88-.63-1.7-1.03-2.52-.41-.83-.82-1.66-1.23-2.48-.48-.97-1.34-2.57-2.58-1.75-1.08.71-1.16,2.52-1.29,3.67Z"/>
      <path class="st1" d="M16.74,15.85c.11,1.2.39,2.41.44,3.48.09,2.13-.81,4.92.92,6.67.92.92,2.59,1.22,3.8,1.57,2.77.8,5.78.77,8.54-.11,1.43-.45,2.88-1.22,3.5-2.58.61-1.35.41-3.16.41-4.61s.24-2.78.25-4.19c.02-2.22-.89-3.95-2.67-5.26-2.99-2.19-6.74-2.43-10.18-1.29-1.74.58-3.67,1.49-4.58,3.18-.51.94-.54,2.03-.44,3.15Z"/>
      <path class="st3" d="M34.6,16.08c.02-2.22-.89-3.95-2.67-5.26-2.99-2.19-6.74-2.43-10.18-1.29-1.74.58-3.67,1.49-4.58,3.18-.51.94-.54,2.03-.44,3.15.11,1.2.39,2.41.44,3.48.08,1.91-.63,4.37.49,6.11-.03-.23-.04-.46-.04-.67.04-1.57.99-2.71,2.43-3.27,1.2-.46,2.91-.59,3.57-1.89.31-.6.36-1.3.41-1.98.05-.74.11-1.47.16-2.21.04-.54.1-1.13.48-1.51.36-.36.96-.43,1.39-.17,1,.61.8,3.42.97,4.46.25,1.49.87,2.56,2.38,3.01,1.5.44,3.05.49,4.08,1.83.32.42.52.88.63,1.36.39-1.28.23-2.85.24-4.14,0-1.41.24-2.78.25-4.19Z"/>
    </g>
    <g>
      <g>
        <circle class="st0" cx="20.35" cy="19.79" r=".98"/>
        <circle class="st0" cx="30.52" cy="19.79" r=".98"/>
        <ellipse class="st0" cx="25.44" cy="21.03" rx="1.89" ry="1.17"/>
      </g>
      <g>
        <path class="st0" d="M18.25,11.78c3.15-2.59,7.56-3.23,11.33-1.68,1.07.44,2.06,1.05,2.94,1.79.37.31.9-.22.53-.53-3.35-2.84-8.09-3.66-12.18-1.99-1.15.47-2.2,1.1-3.16,1.88-.37.31.16.83.53.53h0Z"/>
        <path class="st0" d="M16.47,13.93c-.29,1.24-.11,2.48.08,3.73.09.59.17,1.18.18,1.78s-.05,1.16-.1,1.74c-.1,1.1-.2,2.25.13,3.31.31.99.98,1.77,1.85,2.32.96.6,2.08.92,3.16,1.2.47.12.67-.6.2-.72-1.7-.45-3.83-1.04-4.46-2.9-.33-.98-.24-2.04-.15-3.05.1-1.1.15-2.17,0-3.27-.18-1.31-.48-2.63-.17-3.94.11-.47-.61-.67-.72-.2h0Z"/>
        <path class="st0" d="M33.29,12.65c.6,1.11.76,2.34.7,3.59-.05,1.02-.25,2.03-.28,3.04-.06,2.23.93,5.02-1.16,6.64-.96.74-2.19,1.07-3.34,1.37-.47.12-.27.85.2.72,1.11-.29,2.26-.62,3.24-1.25s1.72-1.65,1.92-2.86c.22-1.31-.04-2.63-.1-3.95-.05-1.14.17-2.25.25-3.39.1-1.49-.06-2.98-.78-4.3-.23-.42-.88-.05-.65.38h0Z"/>
        <path class="st0" d="M16.08,13.01c-1.36.58-1.94,2.09-2.47,3.35-.35.83-.69,1.66-1.02,2.49s-.67,1.66-.92,2.52c-.47,1.65-.27,3.27.41,4.83.54,1.24,1.39,2.88,2.85,3.19.67.14,1.44.02,1.94-.49.26-.27.4-.61.51-.96.1-.3.16-.7.43-.9.39-.28.01-.93-.38-.65-.5.36-.63.91-.82,1.46s-.6.84-1.18.84c-1.33-.01-2.09-1.55-2.57-2.57-.67-1.42-.91-2.92-.5-4.45s1.07-2.98,1.68-4.42c.53-1.27,1.04-3.02,2.43-3.61.19-.08.23-.35.13-.51-.11-.19-.33-.21-.51-.13h0Z"/>
        <path class="st0" d="M34.51,13.21c.74-.21,1.18.98,1.43,1.46.41.78.8,1.56,1.17,2.36s.72,1.6,1.05,2.41.69,1.64.55,2.49c-.03.2.05.4.26.46.18.05.43-.06.46-.26.12-.78-.04-1.52-.3-2.25s-.59-1.46-.9-2.18c-.62-1.41-1.28-2.83-2.05-4.17-.38-.66-1.04-1.27-1.86-1.03-.46.13-.27.86.2.72h0Z"/>
        <path class="st0" d="M38.39,23.59c-.13,1.1-.52,2.21-1.09,3.18-.27.47-.55.93-.98,1.25.03-.03-.02.01-.02.01-.03.02-.07.05-.1.07-.05.03-.09.05-.14.08.05-.02-.03.01-.04.01-.03.01-.06.02-.1.03-.03,0-.05.01-.08.02-.1.02.04,0-.07,0-.24,0-.45-.06-.67-.19-.55-.32-.92-.92-1.39-1.36-.15-.14-.38-.15-.53,0-.14.14-.15.39,0,.53.49.46.87,1.03,1.43,1.4s1.24.48,1.86.17c.56-.28.95-.83,1.28-1.35.35-.54.64-1.12.86-1.73.26-.69.43-1.41.52-2.15.02-.2-.19-.38-.38-.38-.22,0-.35.17-.38.38h0Z"/>
        <path class="st0" d="M16.03,12.18l.7.43s.09.04.14.04c.05.01.1,0,.15,0,.05-.01.09-.03.13-.07.04-.03.07-.06.1-.11l.04-.09c.02-.07.02-.13,0-.2l-.04-.09c-.03-.06-.08-.1-.13-.13l-.7-.43s-.09-.04-.14-.04c-.05-.01-.1,0-.15,0-.05.01-.09.03-.13.07-.04.03-.07.06-.1.11l-.04.09c-.02.07-.02.13,0,.2l.04.09c.03.06.08.1.13.13h0Z"/>
      </g>
    </g>
  </g>
</svg>