<?xml version="1.0" encoding="UTF-8"?>
<svg id="dog" xmlns="http://www.w3.org/2000/svg" version="1.1" viewBox="0 0 50.83 48.47">
  <!-- Generator: Adobe Illustrator 29.8.2, SVG Export Plug-In . SVG Version: 2.1.1 Build 3)  -->
  <defs>
    <style>
      .st0 {
        fill: #231f20;
      }

      .st1 {
        fill: #984e25;
      }

      .st2 {
        fill: #f39b4a;
      }
    </style>
  </defs>
  <g>
    <path class="st2" d="M21.57,30.25c.51-.88,1.37-1.56,2.34-1.86.59-.18,1.22-.22,1.84-.23.95-.01,1.92.05,2.8.4,1.97.77,3.24,3.03,2.87,5.12-.04.2-.08.41-.05.61.04.19.14.35.24.52.45.8.64,1.75.53,2.67.93-.18,1.74-.87,2.07-1.75.07-.18.14-.4.32-.47.12-.05.25-.03.37.03.48.25.46.94.32,1.46-.1.34-.22.68-.42.97-.45.66-1.26,1.01-2.06,1.04-.3.01-.62-.01-.88.12-.15.08-.28.2-.42.3-.45.32-1.07.39-1.58.17-.1-.04-.19-.09-.29-.11-.28-.03-.5.21-.74.36-.52.32-1.27.17-1.62-.33-.82.43-1.79.41-2.72.39-.48-.01-.95-.03-1.43-.04-.77-.02-1.6-.07-2.2-.55-.45-.37-.7-.93-.81-1.51-.11-.58-.1-1.19.04-1.76.23-.95.83-1.81.92-2.79s.04-1.86.57-2.76Z"/>
    <g>
      <path class="st0" d="M21.73,29.3c-1.36,1.85-1.55,4.47-.48,6.5.28.54.66,1.02.91,1.58.22.47.28,1,.44,1.49.15.46.39.9.83,1.13.48.26,1.06.19,1.51-.11,1.3-.86.96-2.66.87-3.98-.03-.48-.78-.48-.75,0,.04.6.1,1.2.1,1.8,0,.5-.08,1.04-.45,1.41-.26.25-.68.41-1,.17s-.4-.67-.49-1.02c-.12-.45-.22-.89-.42-1.32-.24-.5-.56-.94-.83-1.42-.47-.85-.68-1.81-.65-2.78.04-1.11.41-2.18,1.07-3.08.12-.16.03-.42-.13-.51-.19-.11-.39-.03-.51.13h0Z"/>
      <path class="st0" d="M20.64,33.55c-.46.48-.66,1.13-.78,1.77-.11.55-.17,1.12-.15,1.68.02.59.12,1.2.4,1.73s.7.84,1.24,1.04c.57.21,1.26.26,1.85.07.19-.06.32-.26.26-.46-.05-.19-.27-.33-.46-.26-.1.03-.2.06-.3.07.07-.01,0,0-.02,0-.03,0-.06,0-.09,0-.06,0-.12,0-.19,0-.06,0-.11,0-.17,0-.03,0-.06,0-.1,0,0,0-.07,0-.02,0-.13-.02-.26-.05-.38-.08-.23-.07-.35-.12-.57-.26-.01,0-.08-.05-.02-.01-.02-.01-.04-.03-.05-.04-.04-.03-.07-.07-.11-.11-.06-.06-.1-.12-.16-.23-.22-.38-.32-.88-.34-1.33-.01-.26-.01-.52,0-.78s.04-.42.08-.66c.1-.57.23-1.19.62-1.6.33-.35-.2-.88-.53-.53h0Z"/>
      <path class="st0" d="M29.95,29.67c1.15,1.57,1.42,3.76.58,5.53-.23.48-.53.91-.79,1.37s-.43.9-.55,1.4c-.15.6-.41,1.8-1.3,1.34-.5-.26-.68-.8-.71-1.33-.04-.69.05-1.39.09-2.07.03-.48-.72-.48-.75,0-.08,1.19-.4,2.77.55,3.72.38.38.92.61,1.46.51.5-.1.87-.48,1.07-.93s.28-.92.41-1.39c.17-.6.54-1.11.85-1.64.59-.99.92-2.11.91-3.27,0-1.29-.41-2.57-1.17-3.61-.12-.16-.32-.24-.51-.13-.16.09-.25.35-.13.51h0Z"/>
      <path class="st0" d="M31.47,35.14s.02.05.03.06c0,0-.04-.1-.02-.05,0,0,0,.02.01.03.02.05.04.1.05.14.03.09.06.19.08.29.03.11.05.22.07.33,0,.05.02.1.02.16.01.08-.01-.09,0,0,0,.03,0,.06.01.1.03.24.04.49.04.73,0,.12,0,.25-.02.37,0,.06,0,.12-.02.18,0,.03,0,.06-.01.09-.01.1.01-.08,0,.02-.04.23-.08.46-.16.68-.02.05-.04.1-.05.15,0,.01,0,.02-.01.03-.02.05.02-.04.02-.04-.01.03-.03.06-.04.09-.04.09-.09.18-.15.27-.01.02-.02.03-.04.05-.05.08.06-.07,0,0-.03.04-.06.07-.09.1s-.07.06-.1.09c-.03.03.09-.06,0,0-.02.01-.04.03-.06.04-.04.02-.08.04-.12.06-.05.02.1-.04.02,0-.02,0-.05.02-.07.02-.04.01-.09.02-.13.03-.04,0,.11,0,.01,0-.03,0-.06,0-.09,0-.06,0-.11,0-.17,0s.05,0,.05,0c-.02,0-.04,0-.05,0-.03,0-.07-.01-.1-.02-.07-.02-.14-.04-.2-.06-.03-.01-.07-.03-.1-.04.11.03,0,0-.04-.02-.18-.09-.37-.24-.58-.22-.12,0-.23.06-.32.15l-.06.08c.05-.06.07-.08.05-.06.04-.04.15-.08.23-.09h.08c.06.04.08.05.05.03-.02-.02-.05-.03-.07-.05-.16-.12-.43-.03-.51.13-.1.2-.03.39.13.51.19.14.47.17.63-.02.03-.03.13-.14.01-.01.02-.02.03-.02-.02.01-.08.05-.17.08-.26.06.05.01-.03-.02-.03-.02.01,0,.2.11.23.12.29.15.59.25.91.28.48.05.97-.15,1.29-.53.33-.39.51-.88.61-1.38.1-.53.13-1.08.09-1.62s-.14-1.11-.38-1.62c-.08-.18-.35-.24-.51-.13-.18.12-.22.32-.13.51h0Z"/>
      <path class="st0" d="M32.42,37.96c1.03-.32,1.83-1.17,2.15-2.19.09-.28.13-.58.14-.88l-.38.38s.09,0,.13,0c.08,0-.06-.01-.02,0,.02,0,.04,0,.06.01.02,0,.04.02.07.02l-.05-.02s.02.01.04.02c.03.02.07.05.1.07l-.04-.03s.02.02.03.03c.02.01.03.03.05.04s.03.03.04.05c.03.03.03.06,0,0,.02.04.05.07.07.11.01.02.02.04.03.06,0,.01.01.03.02.04-.02-.05-.03-.07-.02-.04.01.04.03.08.04.12,0,.03.01.05.02.08.02.1,0-.06,0,.02,0,.11.01.22,0,.33,0,.03,0,.05,0,.08,0,.02,0,.11,0,0,0,.05-.02.11-.03.16-.02.12-.05.23-.08.35-.04.19.06.42.26.46.19.04.41-.06.46-.26.13-.56.23-1.14,0-1.68-.2-.44-.68-.81-1.18-.75-.1.01-.19.03-.27.11s-.11.16-.11.27c0,.06,0,.11,0,.17,0,.03,0,.06,0,.08,0,.01,0,.03,0,.04,0,.07.01-.07,0-.03-.02.11-.04.22-.07.33s-.07.22-.11.33c0,0,.04-.09.01-.03,0,.01-.01.03-.02.04-.01.03-.02.05-.04.08-.02.05-.05.1-.08.15-.06.1-.12.2-.19.29-.01.02-.03.04-.04.06-.04.05.02-.02.02-.03,0,.01-.02.02-.03.03-.04.05-.08.09-.12.14-.08.09-.16.17-.25.24-.02.02-.04.04-.06.05-.01.01-.08.06-.03.02.05-.04-.03.02-.04.03-.03.02-.05.04-.08.05-.1.07-.21.13-.32.19-.03.02-.06.03-.09.04-.01,0-.03.01-.04.02.02-.01.08-.03.02,0-.06.02-.12.05-.19.07-.19.06-.33.26-.26.46s.26.32.46.26h0Z"/>
      <path class="st0" d="M32.22,39.27c.66-.02,1.31-.21,1.87-.55.17-.1.34-.22.49-.35.07-.06.11-.18.11-.27,0-.09-.04-.2-.11-.27s-.17-.11-.27-.11c-.11,0-.18.04-.27.11-.02.02-.05.04-.07.06l.08-.06c-.25.19-.51.34-.8.47l.09-.04c-.28.12-.58.2-.88.24h.1c-.12,0-.23.01-.35.02-.2,0-.38.17-.38.38s.16.38.38.38h0Z"/>
    </g>
  </g>
  <g>
    <g>
      <path class="st2" d="M22.12,12.78c.95-.2,1.91-.4,2.87-.46.97-.06,1.95.02,2.92.14,1.31.16,2.64.4,3.82,1s2.23,1.63,2.63,2.95c.21.69.23,1.43.2,2.15-.16,3.41-1.56,6.6-2.93,9.7-.29.66-.59,1.33-1.05,1.88-.66.78-1.67,1.26-2.65,1.12-1.48-.21-1.53-1.31-2.2-2.36-.34.71-.48,1.61-1.23,2.01-.71.37-1.45.39-2.2.05-1.19-.54-1.87-2.06-2.49-3.19-.89-1.61-1.63-3.3-2.22-5.05-.53-1.56-.93-3.22-.77-4.87.32-3.21,2.56-4.51,5.29-5.08Z"/>
      <path class="st1" d="M13.89,18.32c-.74.93-1.27,1.68-1.08,2.99.15,1.04.66,1.99,1.16,2.9.68,1.25,1.36,2.49,2.04,3.74.15.28.33.59.62.71.63.27,1.26-.99,1.44-1.46.34-.88.37-1.88.37-2.81,0-2.06-.05-4.12.04-6.18.05-1.22.1-3.21.97-4.12.41-.43.8-1.35-.22-1.15-.54.1-.75.54-1.13.87-1.54,1.33-2.92,2.92-4.18,4.51Z"/>
      <path class="st1" d="M33.28,19.15c-.06,1.27-.09,2.54,0,3.8.1,1.27-.08,5.98,2.04,5.85.43-.03.71-.47.92-.86.92-1.72,1.77-3.48,2.57-5.27.2-.46.41-.93.43-1.44.02-.54-.16-1.06-.37-1.55-.95-2.16-2.55-3.89-4.28-5.39-.53-.46-1.57-1.72-2.36-1.17-.75.52.54,1.59.77,2.24.41,1.19.33,2.52.27,3.77Z"/>
    </g>
    <g>
      <g>
        <circle class="st0" cx="21.49" cy="21.33" r=".98"/>
        <circle class="st0" cx="30.23" cy="21.33" r=".98"/>
        <ellipse class="st0" cx="25.66" cy="27.26" rx="1.89" ry="1.17"/>
      </g>
      <path class="st0" d="M19.83,14.09c.22-.33.65-.44,1.01-.55.49-.15.99-.29,1.49-.4.97-.22,1.95-.36,2.94-.42,1.87-.11,3.99-.1,5.67.83.42.23.8-.41.38-.65-1.86-1.03-4.2-1.07-6.27-.92-1.09.08-2.18.25-3.24.51-.52.13-1.03.26-1.53.44-.44.16-.83.37-1.09.77s.38.78.65.38h0Z"/>
      <path class="st0" d="M20.03,12.78c-.66-.3-1.27.02-1.78.46-.36.31-.71.65-1.07.97-.79.7-1.6,1.38-2.34,2.14-1.39,1.42-2.65,3.23-2.33,5.32.09.57.3,1.09.56,1.6.36.72.72,1.45,1.08,2.17s.7,1.41,1.06,2.11c.26.51.47,1.16.96,1.5.74.52,1.47-.14,1.87-.75.52-.77.83-1.7.88-2.63.05-.86-.01-1.73-.03-2.59s-.03-1.74-.02-2.62c0-1.78.07-3.56.23-5.34.04-.48-.71-.48-.75,0-.26,2.83-.25,5.67-.2,8.5.02,1.09.14,2.2-.24,3.24-.13.37-.31.72-.52,1.05-.14.21-.36.5-.61.56-.04.01-.12,0-.21-.07-.15-.11-.24-.31-.33-.47-.32-.63-.63-1.26-.94-1.89s-.65-1.3-.97-1.95c-.29-.59-.64-1.17-.87-1.78-.66-1.78.16-3.46,1.33-4.81.7-.81,1.5-1.53,2.3-2.23.38-.33.75-.65,1.13-.99.32-.29.95-1.09,1.44-.86.44.2.82-.45.38-.65h0Z"/>
      <path class="st0" d="M32.31,13.43c.45-.21,1.01.48,1.31.74.33.3.66.58.99.87.72.63,1.44,1.26,2.1,1.95,1.18,1.23,2.35,2.86,1.99,4.66-.11.54-.34,1.02-.59,1.51-.31.63-.63,1.26-.94,1.89s-.65,1.3-.97,1.95c-.16.32-.31.63-.47.95-.08.16-.18.35-.33.47-.18.14-.33.05-.51-.12-.27-.25-.46-.58-.62-.91-.43-.88-.5-1.74-.48-2.71.07-3.18.12-6.37-.17-9.55-.04-.48-.79-.48-.75,0,.29,3.16.24,6.32.18,9.49-.01.63-.03,1.27.12,1.88.1.42.25.82.44,1.2.31.64.86,1.57,1.69,1.53.44-.02.77-.36.99-.72.4-.66.7-1.39,1.05-2.08s.7-1.41,1.06-2.11c.31-.63.67-1.25.9-1.91.7-2.05-.31-4-1.65-5.52-.78-.88-1.66-1.65-2.55-2.42-.41-.36-.81-.72-1.21-1.08-.54-.5-1.19-.94-1.93-.6-.44.2-.06.85.38.65h0Z"/>
      <path class="st0" d="M18.41,24.97c.67,1.72,1.15,3.59,2.31,5.06.53.67,1.25,1.23,2.08,1.45.76.2,1.55.08,2.17-.41.79-.62,1.08-1.67,1.15-2.63.02-.2-.18-.38-.38-.38-.22,0-.36.17-.38.38-.03.41-.11.83-.27,1.22-.12.28-.29.54-.51.75-.11.11-.17.15-.33.24-.03.02-.06.03-.09.05-.07.04,0,0-.06.02-.07.03-.14.05-.22.07-.03,0-.07.01-.1.02-.02,0-.04,0-.05,0,0,0,.06,0,.01,0-.09,0-.17.01-.26.01-.08,0-.15,0-.23-.01-.04,0,0,0,0,0-.02,0-.04,0-.06,0-.05,0-.1-.02-.16-.03-.71-.17-1.29-.63-1.75-1.2-.49-.61-.86-1.36-1.16-2.1-.37-.89-.66-1.81-1.01-2.7-.07-.19-.25-.32-.46-.26-.18.05-.34.27-.26.46h0Z"/>
      <path class="st0" d="M32.49,24.77c-.6,1.55-1.04,3.23-2.02,4.6-.42.58-.99,1.1-1.65,1.33-.34.12-.57.16-.93.12-.07,0,.03,0-.04,0-.04,0-.07-.01-.1-.02-.07-.02-.15-.04-.22-.07,0,0-.08-.03-.04-.01.04.01-.02,0-.02,0-.03-.01-.06-.03-.09-.05-.07-.04-.13-.08-.2-.12-.01,0-.03-.02-.04-.03.04.03,0,0-.02-.02-.03-.03-.06-.06-.1-.09-.06-.06-.12-.13-.18-.19-.03-.04,0,0-.05-.06-.03-.04-.06-.09-.09-.13-.05-.08-.1-.17-.14-.26-.18-.38-.28-.86-.31-1.31-.02-.2-.16-.38-.38-.38-.19,0-.39.17-.38.38.07.89.31,1.82.96,2.46.56.55,1.33.76,2.1.63,1.82-.29,2.89-2.06,3.54-3.61.41-.97.74-1.97,1.12-2.96.07-.19-.08-.41-.26-.46-.21-.06-.39.07-.46.26h0Z"/>
    </g>
  </g>
</svg>