<?xml version="1.0" encoding="UTF-8"?>
<svg id="dog" xmlns="http://www.w3.org/2000/svg" version="1.1" viewBox="0 0 50.83 48.47">
  <!-- Generator: Adobe Illustrator 29.8.2, SVG Export Plug-In . SVG Version: 2.1.1 Build 3)  -->
  <defs>
    <style>
      .st0 {
        fill: #231f20;
      }

      .st1 {
        fill: #fff;
      }

      .st2 {
        fill: #f39b4a;
      }

      .st3 {
        fill: #5c564d;
      }
    </style>
  </defs>
  <g>
    <g>
      <path class="st3" d="M36.16,32.72l.07-.39c-.76-.29-1.69-.05-2.23.56-.54.61-.64,1.57-.26,2.28.01.02.03.05.04.07-.06.17-.12.35-.18.52-.02.05-.03.09-.05.14-.18-1.36-.7-2.74-1.21-3.92-.15-.34-.35-1.03-.66-1.25-1.08-1.64-2.91-2.78-4.86-3-2.02-.23-4.12.5-5.56,1.93-2.51,2.5-4.47,11.26,1.33,10.97l.41-.44c.19.31.49.53.98.6,1.74.24,2.15-.84,2.25-2.14.1,1.29.51,2.37,2.25,2.14,1.77-.24,3.87-.38,4.73-1.96.21.46.52.86.48,1.23,1.29.22,2.53-.36,3.53-1.13.72-.55,1.29-1.52,1.53-2.4.57-2.11-1.04-3.84-2.59-3.82Z"/>
      <g>
        <path class="st2" d="M25.98,38.86c-.17-.13-.53-.38-.8-.56-.42-.27-.84-.52-1.29-.73-.33-.16-.71-.33-1.09-.37.04.23.09.47.12.7.11.77.2,1.62,0,2.39l.08-.09c.19.31.49.53.98.6,1.59.22,2.07-.68,2.21-1.83-.08-.03-.15-.07-.22-.12Z"/>
        <path class="st2" d="M29.68,37.22c-.68.32-1.33.71-1.99,1.07-.05.03-.09.03-.14.04-.3.2-.6.4-.9.61-.12.08-.25.09-.37.06.15,1.14.63,2.02,2.21,1.8.31-.04.62-.08.94-.13.62-.95.62-2.34.26-3.45Z"/>
      </g>
      <g>
        <path class="st1" d="M22.58,39.51c.01.06.03.12.04.18.04.13.08.27.13.39,0,.01,0,.01,0,.01,0,0,0,0,.01.02.01.03.03.06.04.1.02.04.04.08.06.11l.13-.13c.19.31.49.53.98.6,1.33.18,1.88-.41,2.11-1.28-1.17-.03-2.36-.01-3.51-.01Z"/>
        <path class="st1" d="M36.16,32.72l.07-.39c-.76-.29-1.69-.05-2.23.56-.54.61-.64,1.57-.26,2.28.01.02.03.05.04.07,0,0,0,.01,0,.02.19.03.36.14.44.37.04.11.1.22.15.27.05.05.09.07.15.09.11.03.12.03.26.01-.06,0,.11-.03.13-.04.04-.01.07-.03.12-.05.11-.06.24-.13.33-.22.06-.06.08-.11.1-.17.06-.21.05-.51.04-.79,0-.41.47-.69.82-.47,1.2.75.87,2.66.41,3.76-.39.92-1.1,1.65-1.96,2.06.9-.13,1.74-.58,2.46-1.13.72-.55,1.29-1.52,1.53-2.4.57-2.11-1.04-3.84-2.59-3.82Z"/>
        <path class="st1" d="M29.32,40.64c.09-.12.17-.24.25-.36.08-.12.16-.25.23-.37.03-.06.06-.12.09-.18.02-.03.03-.07.05-.1.01-.03.02-.07.03-.1-1.14.12-2.29.05-3.43,0-.06,0-.11,0-.17,0,.23.86.78,1.45,2.11,1.27.26-.04.53-.07.8-.11.01-.02.03-.03.04-.05Z"/>
      </g>
      <g>
        <path class="st0" d="M22.36,37.2c0,.63-.08,1.26-.05,1.89.04.68.23,1.37.81,1.78.32.23.73.3,1.11.32.36.02.73-.01,1.06-.15s.59-.35.8-.64c.18-.25.29-.54.36-.84.18-.73.17-1.5.16-2.24,0-.2-.17-.38-.38-.38s-.38.16-.38.38c0,.32,0,.64,0,.95,0,.16-.01.31-.03.47,0,.07-.01.14-.02.22,0,.03-.02.1,0-.02,0,.02,0,.04,0,.06,0,.04-.01.08-.02.11-.02.14-.06.28-.1.41-.02.06-.04.12-.06.18-.03.09.04-.08,0,0-.02.04-.03.07-.05.11-.03.05-.06.11-.09.16-.02.02-.03.04-.05.07-.04.05.06-.07.02-.02-.01.02-.03.03-.04.05-.04.04-.08.09-.13.13-.01,0-.02.02-.03.03-.03.03.08-.06.03-.02-.03.02-.06.04-.1.07-.05.03-.12.05-.17.09.05-.04.08-.03.04-.02-.02,0-.03.01-.05.02-.04.01-.08.03-.12.04-.07.02-.14.03-.21.04,0,0,.1-.01.04,0-.02,0-.04,0-.06,0-.05,0-.1,0-.14,0-.08,0-.17,0-.25,0-.05,0-.1,0-.15-.01-.03,0-.05,0-.08,0-.09-.01.08.01,0,0s-.15-.03-.23-.05c-.04-.01-.08-.03-.11-.04-.07-.02.08.04.02,0-.02,0-.03-.02-.05-.02-.06-.03-.11-.07-.17-.1s.07.06.02.02c-.01-.01-.03-.02-.04-.03-.03-.02-.05-.05-.07-.07-.02-.02-.04-.06-.07-.08.06.04.05.07.03.04,0-.01-.02-.03-.03-.04-.04-.06-.07-.12-.1-.18,0-.02-.01-.03-.02-.05-.03-.06.03.09.01.03,0-.03-.02-.05-.03-.08-.02-.07-.04-.14-.06-.21-.02-.07-.03-.13-.04-.2,0-.02,0-.04,0-.06.02.11,0,.06,0,.03,0-.04,0-.08-.01-.13-.06-.67.04-1.34.04-2.01,0-.2-.17-.38-.38-.38s-.37.16-.38.38h0Z"/>
        <path class="st0" d="M32.11,30.7c-1.32-2.09-3.69-3.43-6.17-3.38-2.15.04-4.33,1.08-5.58,2.86-.84,1.21-1.38,2.67-1.68,4.1s-.42,3.02.11,4.41c.27.7.7,1.32,1.33,1.74.72.48,1.61.62,2.47.59.48-.02.48-.77,0-.75-1.26.06-2.4-.37-2.97-1.54s-.51-2.55-.31-3.76c.22-1.35.66-2.68,1.35-3.86.9-1.55,2.45-2.57,4.21-2.91,2.55-.5,5.21.71,6.59,2.9.26.41.91.03.65-.38h0Z"/>
        <path class="st0" d="M29.35,37.2c0,.6.08,1.19.05,1.79,0,.07,0,.14-.01.22,0,.04,0,.07-.01.11,0,.02,0,.03,0,.05.01-.13,0-.03,0,0-.02.14-.05.28-.1.41,0,.03-.02.05-.03.08-.02.07.04-.09.01-.03,0,.02-.01.03-.02.05-.03.06-.06.12-.1.18,0,.01-.02.02-.02.03-.02.04-.04.02.02-.03-.02.02-.04.05-.07.08-.02.02-.04.04-.06.06-.01.01-.03.02-.04.03-.07.06.06-.04,0,0-.06.04-.11.07-.17.1-.03.02-.13.04-.01,0-.04.01-.09.03-.13.05-.08.02-.15.04-.23.05-.03,0-.04.02.03,0-.02,0-.06,0-.08,0-.06,0-.11.01-.17.01-.08,0-.17,0-.25,0-.04,0-.09,0-.13,0-.04,0-.17-.03-.05,0-.07-.02-.14-.02-.21-.04-.04,0-.07-.02-.11-.03-.02,0-.03-.01-.05-.02-.04-.02-.04-.04.02.01-.04-.04-.12-.06-.17-.09-.03-.02-.06-.04-.08-.06-.01,0-.06-.04,0,0s0,0-.01-.01c-.05-.04-.09-.08-.13-.13-.03-.03-.08-.12-.01-.01-.02-.03-.04-.05-.06-.08-.03-.05-.06-.1-.09-.16-.02-.03-.03-.06-.04-.09,0-.01,0-.02-.01-.03-.03-.06.04.1,0,0-.05-.13-.09-.26-.12-.39-.02-.08-.03-.16-.05-.24,0-.04-.01-.08-.02-.11-.01-.07.01.1,0,.02,0-.02,0-.05,0-.07-.02-.17-.03-.34-.04-.51-.02-.36-.01-.72-.01-1.08,0-.2-.17-.38-.38-.38s-.37.16-.38.38c0,.68,0,1.37.12,2.04.12.61.4,1.22.95,1.55.31.19.68.26,1.03.28.41.01.84-.04,1.21-.22.66-.31.91-1.01.98-1.68s-.03-1.4-.03-2.11c0-.2-.17-.38-.38-.38s-.38.16-.38.38h0Z"/>
        <path class="st0" d="M31.45,31.02c.14.08.22.3.29.44.09.2.15.4.23.6.13.32.27.64.39.97.27.73.5,1.47.66,2.23.26,1.24.42,2.82-.36,3.83-.49.63-1.28.89-2.06.95-.48.04-.48.79,0,.75.87-.07,1.73-.32,2.38-.94.54-.52.83-1.23.94-1.96.24-1.64-.21-3.36-.77-4.89-.15-.4-.33-.82-.48-1.21-.2-.49-.35-1.13-.84-1.42-.42-.25-.79.4-.38.65h0Z"/>
        <path class="st0" d="M37.96,34.13c.72.94.62,2.12.11,3.13-.26.51-.6.99-1.05,1.36s-.94.67-1.46.86c-.63.24-1.25.3-1.92.22-.2-.03-.38.19-.38.38,0,.22.17.35.38.38.66.08,1.33.03,1.96-.19s1.22-.56,1.75-.96.96-.92,1.28-1.5.55-1.24.59-1.92c.04-.75-.16-1.53-.62-2.12-.12-.16-.32-.25-.51-.13-.16.09-.26.35-.13.51h0Z"/>
        <path class="st0" d="M35.48,34.7s.01.06.02.09c0,.04,0-.03,0-.03,0,0,0,.04,0,.05,0,.03,0,.05,0,.08,0,.02,0,.04,0,.05,0,.05,0,0,0-.02-.01.02-.01.07-.02.09,0,.03-.02.06-.03.09,0,.01,0,.03-.01.04-.02.05.03-.06,0-.02-.02.03-.03.06-.05.09,0,.01-.05.07-.05.08,0,0,.05-.05.02-.02,0,0-.02.02-.03.03-.02.02-.04.05-.07.07,0,0-.03.02-.03.03.04-.03.04-.03.02-.02,0,0-.01.01-.02.02-.03.02-.05.03-.08.05-.01,0-.07.03-.07.04,0-.02.07-.02.01,0-.01,0-.03,0-.04.01-.03.01-.07.02-.1.03-.02,0-.04,0-.05.01-.04,0,.03,0,.03,0-.02,0-.08,0-.09,0-.03,0-.06,0-.09,0-.01,0-.06,0,0,0,.06,0-.02,0-.03,0-.03,0-.05-.01-.08-.02-.02,0-.1-.03-.06-.02s-.04-.02-.05-.03c-.03-.02-.06-.04-.09-.05-.02,0-.05-.04-.07-.05.03,0,.05.04.01,0,0,0-.02-.02-.03-.03-.05-.05-.1-.1-.14-.15s.04.06-.02-.02c-.02-.03-.04-.05-.05-.08-.03-.05-.06-.11-.09-.16-.01-.03-.03-.06-.04-.08-.02-.04.01.03.01.03,0-.01-.01-.04-.02-.05-.02-.06-.04-.12-.06-.17s-.03-.12-.04-.18c0-.02,0-.04,0-.05,0,0,0,.08,0,.03,0-.03,0-.07,0-.1,0-.12,0-.24,0-.37,0-.04,0,.03,0,.03,0-.02,0-.04,0-.05,0-.03.01-.06.02-.09.01-.06.03-.12.05-.18s.04-.12.06-.17c.02-.04-.01.03-.01.03,0-.01.02-.04.02-.05.01-.03.03-.06.05-.09.03-.05.06-.1.09-.15.02-.03.03-.05.05-.08,0,0,.03-.04,0,0-.04.04.01-.01.02-.02.04-.04.07-.08.11-.12s.12-.08.14-.13c0,0-.07.05-.01.01.01,0,.02-.02.03-.02.02-.02.05-.03.07-.05.05-.03.1-.06.16-.09.03-.02.06-.03.09-.05.01,0,.03-.01.05-.02-.02.01-.06.03-.02,0,.06-.02.13-.05.19-.07s.13-.03.2-.05c.01,0,.03,0,.04,0,.06,0,.03,0-.01,0,.03,0,.07,0,.1,0,.07,0,.14,0,.21,0,.03,0,.06,0,.09,0,.02,0,.03,0,.05,0,.01,0,.07,0,.01,0s0,0,.01,0c.02,0,.03,0,.05,0,.03,0,.07.01.1.02.07.02.14.04.21.06.18.07.42-.08.46-.26.05-.21-.06-.39-.26-.46-.6-.22-1.26-.15-1.83.1s-1.02.76-1.23,1.36-.17,1.27.1,1.85c.29.62.92,1.1,1.64,1,.41-.06.77-.27,1-.62s.29-.77.19-1.15c-.05-.19-.27-.32-.46-.26s-.31.26-.26.46h0Z"/>
        <path class="st0" d="M37.35,32.25c0,.07,0,.13-.02.19v-.1c-.01.17-.06.34-.12.5l.04-.09c-.03.06-.05.12-.09.18-.05.09-.06.19-.04.29.01.05.03.09.07.13.03.04.06.07.11.1.09.05.19.07.29.04.09-.03.18-.09.22-.17.18-.33.28-.69.29-1.06,0-.05,0-.1-.03-.14-.02-.05-.04-.09-.08-.12-.03-.04-.07-.06-.12-.08-.04-.02-.09-.03-.14-.03-.1,0-.2.04-.27.11l-.06.08c-.03.06-.05.12-.05.19h0Z"/>
      </g>
    </g>
    <g>
      <path class="st1" d="M18.58,34c.03.15.09.32.23.35.1.02.2-.03.28-.08.26-.17.48-.37.67-.61.21.57.49,1.11.84,1.61.18.25.4.52.71.56s.65-.28.51-.56c1.32,1.31,3.65.97,5.09,2.15.32-.82,1.28-1.15,2.12-1.4.54-.16,1.08-.36,1.53-.71.08-.06.8-.87.73-.89.62.22,1.34-.03,1.77-.53s.59-1.18.55-1.83c-.11-1.58-1.97-2.77-3.24-3.5-1.5-.87-3.22-1.31-4.93-1.45-1.63-.13-3.55-.14-4.45,1.5-.35.63-.86.92-1.33,1.48-.89,1.07-1.31,2.54-1.06,3.92Z"/>
      <g>
        <path class="st0" d="M20.6,28.68c-1.06.5-1.77,1.43-2.13,2.53s-.62,2.34-.05,3.37c.09.17.23.33.44.33.18,0,.34-.1.48-.19.13-.09.26-.19.38-.29.06-.06.12-.11.18-.18.04-.04.08-.12.12-.14l-.19.05h-.02c-.06-.04-.11-.07-.17-.1-.03-.02-.01-.09-.02-.04-.01.04.02.15.03.2.03.11.07.22.12.33.09.22.21.43.34.63.24.36.56.83.97,1,.19.08.4.06.51-.13.09-.16.05-.43-.13-.51-.05-.02-.1-.05-.15-.08-.08-.06.05.05-.03-.02-.03-.02-.05-.05-.08-.07-.11-.1-.22-.24-.29-.33-.1-.14-.2-.28-.28-.43-.04-.07-.08-.15-.12-.23-.02-.04-.04-.07-.05-.11,0-.02-.02-.04-.02-.05.01.03.01.03,0,0-.02-.06-.04-.12-.06-.18,0-.03-.01-.06-.02-.09.03.12,0-.07-.01-.09-.05-.26-.25-.46-.52-.44s-.42.27-.6.44c-.15.14-.32.27-.51.35l.19-.05h-.05c.06.02.13.04.19.05.06.08.07.08.03.01-.02-.03-.04-.06-.05-.1-.02-.04-.03-.07-.05-.11-.04-.12-.08-.24-.1-.37-.04-.22-.04-.45-.02-.68.03-.51.17-1.01.32-1.49s.36-.93.68-1.3.69-.64,1.12-.84c.18-.09.23-.35.13-.51-.11-.19-.33-.22-.51-.13h0Z"/>
        <path class="st0" d="M21.52,35.47c.24.33.56.51.93.66s.71.28,1.08.39c.63.2,1.3.25,1.92.47.04.01.07.03.11.04-.07-.03.04.02.06.03.08.04.15.08.22.12.04.02.07.05.1.07-.06-.04.02.02.03.03.07.06.13.13.19.2.12.15.4.14.53,0,.15-.16.13-.37,0-.53-.41-.51-1.06-.73-1.67-.86-.3-.07-.61-.12-.91-.19-.39-.1-.76-.23-1.13-.37-.09-.04-.18-.07-.28-.11-.02,0-.03-.01-.05-.02.05.02,0,0-.02-.01-.04-.02-.08-.03-.11-.05-.08-.04-.16-.09-.24-.14.05.04-.03-.03-.04-.04-.02-.02-.03-.03-.05-.05,0-.01-.05-.07-.02-.02-.11-.16-.33-.25-.51-.13-.16.1-.26.34-.13.51h0Z"/>
        <path class="st0" d="M27.01,37.81c.05-.09.11-.18.17-.26.04-.05-.03.04,0-.01.02-.02.03-.04.05-.06.04-.05.08-.09.12-.13.07-.07.15-.14.23-.2-.05.04.06-.04.07-.05.04-.03.09-.06.13-.09.09-.05.17-.1.26-.15.04-.02.08-.04.13-.06.02,0,.04-.02.06-.03.11-.05-.07.03.04-.02.19-.08.38-.14.58-.2.41-.12.82-.22,1.22-.4s.78-.48,1.06-.83c.35-.44.57-.94.63-1.49.02-.2-.19-.38-.38-.38-.22,0-.35.17-.38.38,0,.08,0,.03,0,.01,0,.03,0,.05-.01.08,0,.05-.02.1-.03.15s-.03.1-.04.14c0,.02-.02.05-.03.07,0,0-.05.11-.02.05-.04.09-.09.18-.14.26-.03.04-.05.08-.08.12-.01.02-.03.04-.04.06-.07.1.04-.05-.03.04-.12.14-.3.32-.4.4-.09.06-.18.12-.27.18-.04.02-.08.05-.13.07-.02.01-.04.02-.06.03,0,0-.09.04-.05.02s-.03.01-.04.01c-.02,0-.04.02-.07.02-.04.02-.09.03-.13.05-.09.03-.19.06-.28.09-.2.06-.39.11-.59.17-.4.12-.81.28-1.16.51-.42.27-.78.62-1.03,1.06-.1.17-.05.42.13.51s.41.05.51-.13h0Z"/>
        <path class="st0" d="M32.32,34.77c1.12-.66,1.72-2.01,1.47-3.28-.23-1.17-1.32-1.93-2.25-2.55-2.36-1.57-5.27-2.34-8.09-2.07-1.23.12-2.69.56-3.02,1.91-.12.47.61.67.72.2.23-.95,1.34-1.26,2.2-1.35,1.2-.13,2.42-.06,3.6.19s2.34.68,3.41,1.28c.53.3,1.04.64,1.53,1.01.35.27.7.56.93.94.64,1.04.14,2.48-.88,3.08-.42.24-.04.89.38.65h0Z"/>
      </g>
    </g>
  </g>
  <g>
    <g>
      <path class="st3" d="M19.02,10.84c-1.93-.63-3.6,1.04-4.33,2.63-.09.2-.17.41-.14.62s.22.42.44.38c.12-.02.21-.1.32-.16,1.01-.55,2.01,1.07,2.25,1.83.05.14-1.6,1.84-1.77,2.11-.5.76-.79,1.58-1.13,2.41-.7,1.72-.91,3.54-2.06,5.08-.24.32-.52.69-.4,1.07.17.55.89.52,1.34.53-.33.7-.24,1.59.11,2.27.06.11.12.21.22.28.19.13.47.07.64-.09.18-.18.24-.45.23-.7-.06.77.54,1.76,1.27,2.06.25.1.58.19.75-.02.13-.15.09-.42.03-.59.9.75,1.96.96,3.12,1.06,2.7.23,5.45.49,8.16.56,1.38.04,2.76,0,4.13-.2.68-.09,1.35-.22,2.01-.4.56-.15.99-.46,1.47-.78-.05.19.11.38.29.43s.38,0,.56-.07c.91-.39,1.22-1.25,1.5-2.11.02.22.05.47.21.62.55.5.67-.71.67-.97,0-.46-.05-.95.17-1.36.58.05,1.37-.09,1.39-.67.01-.43-.45-.7-.78-.99-.5-.45-.73-1.13-.92-1.78-.53-1.82-.91-3.71-1.71-5.42-.33-.71-.65-1.23-1.12-1.81-.16-.2-.13-.49-.09-.74.11-.67.1-1.44.54-1.99.09-.11.2-.22.34-.27.46-.17.9.3,1.3-.15.2-.23.25-.56.17-.86-.16-.56-.74-.91-1.15-1.28-.51-.46-1.08-.92-1.76-1.01-1.31-.18-2.36,1-3.13,2.07-.22.31-.5.95-.86,1.08-.38.13-.91-.16-1.28-.28-.44-.14-.91-.13-1.37-.11-1.33.05-2.65.09-3.98.14-.52.02-2.41.35-2.66-.22-.41-.93-2.06-1.9-2.99-2.21Z"/>
      <path class="st2" d="M38.93,27.84c-1.2-1.33-2.77-2.32-4.53-2.02-.33.06-.71-.14-.69-.53.06-1.6-.31-3.34-.98-4.8-.6-1.3-2.03-2.14-3.42-1.44-1.38.7-1.99,2.53-2.25,3.96-.15.82-.21,1.64-.43,2.45-.02.07-.04.14-.1.19-.06.05-.14.04-.22.04-.17,0-.33-.02-.5-.03-.09,0-.19-.01-.26-.06-.13-.08-.16-.25-.18-.41-.25-2.11-.59-6.18-3.52-6.07-2.53.09-3.42,3.82-3.7,5.8-.03.25-.31.38-.53.4-1.58.13-4.42.75-4.15,2.84.02.18-.03.31-.13.4.03.37.13.74.3,1.06.06.11.12.21.22.28.19.13.47.07.64-.09.18-.18.24-.45.23-.7-.06.77.54,1.76,1.27,2.06.25.1.58.19.75-.02.13-.15.09-.42.03-.59.9.75,1.96.96,3.12,1.06,2.7.23,5.45.49,8.16.56,1.38.04,2.76,0,4.13-.2.68-.09,1.35-.22,2.01-.4.56-.15.99-.46,1.47-.78-.05.19.11.38.29.43.18.05.38,0,.56-.07.91-.39,1.22-1.25,1.5-2.11.02.22.05.47.21.62.55.5.67-.71.67-.97,0-.28-.01-.57.02-.85Z"/>
      <path class="st2" d="M19.07,14.47c-.01-.05-.02-.1-.04-.15-.04-.14-.1-.28-.15-.42-.1-.27-.25-.49-.46-.68-.07-.06-.05-.05-.13-.1-.02-.01-.16-.09-.11-.06-.15-.06-.18-.06-.28-.06-.02,0-.04,0-.05,0-.02,0-.05.01-.07.02-.07.02-.14.04-.2.07.07-.03-.08.04-.1.05-.06.03-.12.06-.19.1-.26.15-.49.32-.71.5-.17.14-.33.29-.49.45.36.6.75,1.18,1.05,1.82.61-.27,1.18-.7,1.66-1.13.06-.05.12-.11.17-.17.02-.02.07-.09.07-.09,0-.02.02-.03.03-.05,0-.02,0-.05.01-.02,0,0,0,0,0,0,0-.03,0-.06,0-.07Z"/>
      <path class="st2" d="M36.15,14.38c.08-.19.16-.38.25-.56-.22-.32-.93-.92-1.35-.89-.62.04-2.22,1.2-1.59,1.95.21.25.57.25.83.44.43.32.66.79,1.18,1,.19-.66.42-1.31.68-1.94Z"/>
      <path class="st1" d="M33.37,31c.59-.74.67-1.74.07-2.72-.58-.93-1.62-1.49-2.7-1.71-.34-.07-.69-.11-1.02-.23-.59-.22-1.06-.87-1.59-1.23-.93-.63-2.16-.75-3.22-.4-.6.2-.94.55-1.43.9-.77.55-1.52.59-2.43.72-1.03.15-2.01.76-2.49,1.69s-.42,2.14.26,2.93c.69.81,1.83.73,2.77.96,1.89.46,3.86.4,5.79.3,1.64-.09,3.54.28,5.05-.47.39-.19.71-.45.94-.74Z"/>
    </g>
    <g>
      <g>
        <circle class="st0" cx="20.89" cy="24.93" r=".98"/>
        <circle class="st0" cx="31.07" cy="24.93" r=".98"/>
        <ellipse class="st0" cx="25.98" cy="26.17" rx="1.89" ry="1.17"/>
      </g>
      <g>
        <path class="st0" d="M19.09,15.3c.2-.28.53-.44.83-.59.33-.16.66-.3,1-.43.7-.27,1.43-.48,2.17-.63,1.47-.3,3-.36,4.49-.16.2.03.4-.05.46-.26.05-.17-.06-.43-.26-.46-1.66-.22-3.33-.17-4.97.18-.8.17-1.59.41-2.35.72s-1.57.6-2.03,1.26c-.27.4.37.77.65.38h0Z"/>
        <path class="st0" d="M28.51,12.35l-.08.69c0,.05,0,.1.03.14.02.05.04.09.08.12.03.04.07.06.12.08.04.02.09.03.14.03h.1c.06-.03.12-.06.17-.11l.06-.08c.03-.06.05-.12.05-.19l.08-.69c0-.05,0-.1-.03-.14-.02-.05-.04-.09-.08-.12-.03-.04-.07-.06-.12-.08-.04-.02-.09-.03-.14-.03h-.1c-.06.03-.12.06-.17.11l-.06.08c-.03.06-.05.12-.05.19h0Z"/>
        <path class="st0" d="M30,13.72c.48.08.95.25,1.4.42.14.05.28.11.42.16.03.01.07.03.1.04.02,0,.08.03,0,0,.02,0,.03.01.05.02.07.03.14.06.21.09.26.11.51.23.76.36.22.12.44.24.63.39.16.12.43.03.51-.13.1-.2.03-.39-.13-.51-.39-.3-.86-.51-1.3-.71-.56-.25-1.13-.48-1.71-.67-.24-.07-.48-.14-.72-.18-.19-.03-.41.05-.46.26-.04.18.05.43.26.46h0Z"/>
        <path class="st0" d="M17.55,15.5c-1.12,1.12-2.1,2.42-2.82,3.83-.36.69-.66,1.43-.84,2.18-.21.83-.26,1.7-.51,2.52-.23.75-.67,1.45-1.41,1.78-.19.08-.23.35-.13.51.11.19.33.21.51.13,1.55-.67,1.86-2.47,2.11-3.95.28-1.63.97-3.08,1.91-4.43.51-.74,1.09-1.42,1.72-2.06.34-.34-.19-.87-.53-.53h0Z"/>
        <path class="st0" d="M12.04,27.36c.23.2.51.35.81.39.34.05.66,0,.97-.14l-.55-.42c-.32.76-.28,1.65.03,2.4.09.21.2.41.33.59.09.13.26.23.42.17.29-.1.41-.39.27-.67-.09-.18-.35-.24-.51-.13-.18.12-.23.32-.13.51-.09-.19-.03-.34.18-.44l.42.17c-.07-.1-.14-.2-.2-.3-.03-.05-.05-.09-.07-.14-.01-.03-.02-.06-.04-.08.02.06.03.06.01.03,0-.01-.01-.03-.02-.04-.04-.11-.07-.21-.1-.32-.01-.06-.03-.12-.04-.18,0-.03-.01-.06-.02-.09-.01-.08.01.09,0,0-.01-.12-.02-.23-.02-.35s.02-.22.02-.34c0,.12,0,.02,0-.01s.01-.06.02-.09c.01-.05.02-.1.04-.15.03-.12.07-.23.12-.34.02-.05.02-.14,0-.2-.02-.08-.07-.15-.13-.19-.13-.1-.28-.09-.42-.03-.04.02-.03.01.03-.01-.01,0-.03.01-.04.02-.03,0-.05.02-.08.03-.05.01-.1.02-.15.03.06,0,.08-.01.04,0-.01,0-.03,0-.04,0-.03,0-.06,0-.09,0s-.06,0-.09,0c-.01,0-.03,0-.04,0,.06,0,.08.01.05,0-.05,0-.11-.02-.16-.03-.03,0-.06-.02-.08-.03-.01,0-.03-.01-.04-.02.05.02.07.03.04.02-.05-.02-.1-.05-.14-.08-.02-.01-.05-.04-.07-.05.05.04.06.04.03.02-.01,0-.02-.02-.03-.03-.15-.13-.39-.16-.53,0-.13.14-.16.39,0,.53h0Z"/>
        <path class="st0" d="M14.27,28.6c-.15,1.2.52,2.43,1.61,2.96.32.16.65.25,1.01.29.28.03.48-.34.32-.56-.07-.1-.13-.21-.19-.31-.03-.06-.06-.12-.09-.18-.03-.07.03.07,0,0-.01-.03-.02-.06-.04-.09-.04-.12-.08-.23-.1-.35-.01-.06-.02-.11-.03-.17,0-.02,0-.03,0-.05,0,.06,0,.07,0,.03,0-.03,0-.07,0-.1,0-.1-.04-.19-.11-.27-.07-.07-.17-.11-.27-.11-.19,0-.39.17-.38.38.05.57.23,1.13.56,1.6l.32-.56s-.03,0-.04,0c.1,0,.06,0,.03,0-.03,0-.06,0-.09-.02-.07-.01-.13-.03-.2-.05-.05-.02-.11-.03-.16-.05-.03,0-.06-.02-.08-.03-.01,0-.06-.03,0,0,.06.03,0,0-.02,0-.12-.05-.23-.11-.34-.18-.05-.03-.1-.07-.15-.1-.02-.02-.03-.04.02.02,0-.01-.02-.02-.04-.03-.02-.02-.05-.04-.07-.06-.1-.08-.19-.17-.27-.27-.02-.02-.04-.05-.06-.07,0,0,.05.07.02.02,0-.01-.02-.03-.03-.04-.04-.05-.08-.11-.11-.17-.03-.05-.06-.1-.08-.16-.01-.03-.03-.06-.04-.08,0,0-.01-.04-.02-.04.02.05.03.06.01.04,0-.01,0-.02-.01-.03-.05-.12-.09-.25-.12-.37-.02-.07-.03-.15-.04-.22,0,0,.01.09,0,.03,0-.02,0-.04,0-.06,0-.04,0-.07,0-.11,0-.15,0-.3.02-.45.01-.09-.05-.21-.11-.27-.07-.07-.17-.11-.27-.11s-.2.04-.27.11c-.07.08-.1.16-.11.27h0Z"/>
        <path class="st0" d="M16.03,30.13c.27.5.57,1,1.05,1.34.51.36,1.21.46,1.82.54,1.31.18,2.65.06,3.95.33.2.04.41-.06.46-.26.05-.19-.06-.42-.26-.46-1.26-.26-2.54-.18-3.82-.32-.3-.03-.6-.08-.9-.15-.26-.06-.54-.12-.77-.26-.42-.25-.66-.72-.88-1.14s-.88-.05-.65.38h0Z"/>
        <path class="st0" d="M34.89,16.33c1.07,1.07,1.92,2.36,2.47,3.77.28.71.48,1.45.62,2.21.15.82.24,1.66.58,2.43.31.73.83,1.4,1.57,1.72.19.08.4.05.51-.13.09-.16.05-.43-.13-.51-1.48-.63-1.57-2.48-1.83-3.84-.28-1.48-.85-2.91-1.66-4.17-.46-.72-1-1.39-1.6-2-.34-.34-.87.19-.53.53h0Z"/>
        <path class="st0" d="M39.89,26.83s-.02.02-.03.03c-.03.02-.02.02.03-.02-.02.01-.05.03-.07.05-.04.03-.09.05-.13.07-.04.02-.03.01.03-.01-.01,0-.03.01-.04.02-.03,0-.05.02-.08.03-.05.02-.1.03-.16.03-.03,0-.01,0,.05,0-.01,0-.03,0-.04,0-.03,0-.06,0-.09,0s-.06,0-.09,0c-.01,0-.11-.01-.04,0s-.02,0-.04,0c-.03,0-.06-.01-.08-.02s-.06-.02-.08-.03c-.01,0-.03-.01-.04-.02.06.02.07.03.03.01-.14-.07-.29-.07-.42.03-.11.08-.19.26-.13.39.05.11.09.22.12.34.01.05.03.1.04.15,0,.03.01.06.02.09s0,.13,0,.01c0,.11.02.22.02.34s0,.23-.02.35c-.01.09.01-.07,0,0,0,.03,0,.06-.02.09-.01.06-.02.12-.04.18-.03.11-.06.22-.1.32,0,.01-.01.03-.02.04-.02.04-.01.03.01-.03-.02.02-.03.06-.04.08-.02.05-.05.09-.07.14-.06.11-.12.21-.2.3l.42-.17c.21.1.27.24.18.44.09-.18.05-.41-.13-.51-.17-.09-.42-.05-.51.13-.14.27-.02.56.27.67.17.06.33-.04.42-.17.5-.68.67-1.55.54-2.37-.03-.21-.09-.42-.18-.62l-.55.42c.31.15.63.19.97.14.3-.04.58-.19.81-.39.15-.13.14-.4,0-.53-.16-.14-.37-.14-.53,0h0Z"/>
        <path class="st0" d="M37.45,28.6c.02.13.02.27.02.4,0,.06,0,.12-.01.18,0,.02,0,.03,0,.05,0,.05.01-.08,0-.03,0,.03-.01.07-.02.1-.02.13-.06.26-.1.39-.01.03-.02.06-.03.09,0,.01-.01.03-.02.04,0,0,.04-.08,0-.02s-.05.11-.08.17-.06.11-.1.16c-.02.03-.03.05-.05.08,0,.01-.02.03-.03.04,0,0-.01.02-.02.03-.02.02,0,.01.02-.03-.04.03-.08.1-.12.14-.04.05-.09.09-.13.14-.04.04-.08.08-.13.11-.01,0-.02.02-.03.03-.05.04.02-.01.02-.02-.03.02-.06.04-.09.07-.1.07-.21.13-.32.19-.03.02-.06.03-.09.04-.01,0-.03.01-.04.02.09-.05.03-.01,0,0-.06.02-.13.05-.19.07s-.13.04-.2.05c-.04,0-.07.01-.11.02-.01,0-.03,0-.04,0h.06s-.03,0-.04,0l.32.56c.33-.47.51-1.03.56-1.6.02-.2-.18-.38-.38-.38-.22,0-.36.17-.38.38,0,.03,0,.07,0,.1,0,.04,0,.03,0-.03,0,.02,0,.03,0,.05,0,.06-.02.11-.03.17-.03.12-.06.24-.1.35-.01.03-.02.06-.04.09-.03.08.04-.08,0,0-.03.06-.05.12-.09.18-.06.11-.12.21-.19.31-.15.22.05.6.32.56.32-.04.62-.12.92-.25.27-.12.51-.28.73-.47.45-.39.78-.94.91-1.52.08-.33.1-.68.06-1.01-.01-.1-.03-.19-.11-.27-.07-.07-.17-.11-.27-.11s-.2.04-.27.11c-.06.07-.12.17-.11.27h0Z"/>
        <path class="st0" d="M35.79,29.75c-.21.39-.42.79-.77,1.06-.15.12-.39.21-.6.26-.26.07-.52.13-.78.19-1.11.24-2.24.38-3.35.61-.2.04-.31.28-.26.46.06.21.26.3.46.26.91-.19,1.82-.31,2.73-.48.45-.08.9-.18,1.35-.3.42-.11.79-.28,1.1-.59s.55-.71.76-1.1c.23-.42-.42-.8-.65-.38h0Z"/>
        <path class="st0" d="M22.16,12.69c-.74-.7-1.57-1.36-2.48-1.83-.45-.23-.93-.4-1.44-.45s-.98.08-1.43.3c-.84.42-1.55,1.17-2.07,1.95-.27.41-.57.92-.41,1.44s.67.8,1.19.59,1.06-.52,1.55-.82.97-.62,1.42-.97c.16-.12.25-.32.13-.51-.09-.16-.35-.26-.51-.13-.7.54-1.45,1.02-2.23,1.43-.18.1-.37.2-.56.28-.13.06-.2.09-.26-.04-.13-.28.21-.71.36-.93.42-.63.99-1.21,1.66-1.57.73-.4,1.5-.27,2.22.09.86.44,1.63,1.05,2.33,1.71.35.33.88-.2.53-.53h0Z"/>
        <path class="st0" d="M17.81,13.37c.35.29.66.62.94.98l-.06-.08c.04.06.09.11.13.17.09.12.17.26.33.3.07.02.15.02.22,0,.07-.02.14-.05.18-.1s.08-.11.1-.18.02-.1,0-.17c0-.06-.02-.1-.05-.15-.04-.06-.09-.11-.14-.14-.03-.02-.06-.03-.09-.04-.06-.01-.14-.02-.2,0s-.13.05-.18.1c-.07.07-.11.17-.11.27s.04.2.11.27.17.11.27.11.19-.04.27-.11h0s-.05.04-.08.05h0s-.06.02-.09.04h0c-.07,0-.13,0-.2,0h0s-.06-.02-.09-.04h0s-.05-.04-.08-.06c0,0,0,0,0,0l-.06-.08s0,0,0,0l-.04-.09s0,0,0,.01v-.1s-.01.01-.01.02v-.1s.01,0,.01,0l.04-.09h0s.04-.05.06-.07h0s.05-.04.08-.05h0s.06-.02.09-.03c0,0,0,0-.01,0h.1s0-.01,0-.01h.1s-.01.01-.02,0l.09.04s-.01,0-.02,0l.08.06s-.02-.02-.03-.03l.06.08c-.07-.09-.13-.18-.19-.26-.09-.11-.17-.22-.26-.33-.14-.17-.3-.33-.46-.48-.09-.09-.18-.17-.28-.25-.03-.04-.07-.06-.12-.08-.04-.02-.09-.03-.14-.03-.09,0-.2.04-.27.11s-.11.17-.11.27c0,.09.03.2.11.27h0Z"/>
        <path class="st0" d="M16.09,14.51c.3.49.58.99.83,1.51.04.08.14.15.22.17.09.02.21.01.29-.04s.15-.13.17-.22c.02-.1,0-.19-.04-.29-.25-.52-.53-1.02-.83-1.51-.05-.08-.13-.15-.22-.17s-.21-.01-.29.04-.15.13-.17.22-.02.2.04.29h0Z"/>
        <path class="st0" d="M31.63,13.51c.56-.69,1.13-1.4,1.78-2.01.26-.24.54-.46.87-.59.34-.14.68-.13,1.03,0,.37.13.73.34,1.06.54s.65.43.92.71c.22.22.46.52.47.83,0,.11,0,.2-.11.27-.12.09-.29.09-.43.09-.47,0-.91-.22-1.33-.42-.46-.22-.92-.47-1.36-.73-.42-.25-.79.4-.38.65.44.26.9.5,1.36.73.49.24.98.45,1.53.51.49.05,1.03-.07,1.31-.5.27-.41.16-.94-.06-1.35-.44-.82-1.34-1.36-2.15-1.77-.44-.23-.91-.43-1.42-.41-.46.02-.91.2-1.29.46-.43.29-.79.66-1.13,1.04-.42.47-.82.94-1.22,1.43-.13.16-.15.38,0,.53.13.13.4.16.53,0h0Z"/>
        <path class="st0" d="M34.23,12.77c-.18.16-.34.33-.49.51-.16.21-.31.42-.44.66-.08.14-.14.29-.2.45-.03.08,0,.21.04.29s.13.15.22.17c.1.02.2.02.29-.04l.08-.06s.08-.1.1-.17c.01-.03.02-.05.03-.08l-.04.09c.13-.3.29-.58.49-.83l-.06.08c.15-.2.32-.38.51-.54.07-.06.11-.18.11-.27s-.04-.2-.11-.27-.17-.11-.27-.11-.19.04-.27.11h0Z"/>
        <path class="st0" d="M36.07,13.74c-.14.3-.26.61-.35.93s-.15.64-.19.97c-.01.09.05.21.11.27.07.07.17.11.27.11s.2-.04.27-.11l.06-.08c.03-.06.05-.12.05-.19,0-.01,0-.02,0-.03v.1c.06-.52.2-1.03.4-1.52l-.04.09c.02-.05.05-.11.07-.16.04-.09.07-.19.04-.29-.02-.09-.09-.18-.17-.22-.09-.05-.19-.07-.29-.04-.09.03-.18.09-.22.17h0Z"/>
      </g>
    </g>
  </g>
</svg>