<?xml version="1.0" encoding="UTF-8"?>
<svg id="dog" xmlns="http://www.w3.org/2000/svg" version="1.1" viewBox="0 0 50.83 48.47">
  <!-- Generator: Adobe Illustrator 29.8.2, SVG Export Plug-In . SVG Version: 2.1.1 Build 3)  -->
  <defs>
    <style>
      .st0 {
        fill: #231f20;
      }

      .st1 {
        fill: #f8c04e;
      }

      .st2 {
        fill: #984e25;
      }
    </style>
  </defs>
  <g>
    <path class="st1" d="M18.25,30.33c-.38,1.24-.29,2.45-.41,3.72-.13,1.4-.64,2.92-1.23,4.19.3.17.67.02,1-.05.04,0,.09-.02.14,0,.07,0,.12.05.18.08.74.44,1.48.19,2.28.2l1.59.02c.14,0,.28,0,.41.04.14.04.26.11.39.15.47.14.97-.16,1.47-.15.25,0,.5.09.75.09.3,0,.58-.13.88-.1.24.02.46.13.69.17.44.08.73-.19,1.12-.24.16-.02.35.01.51.02.54.02,1.09.04,1.63.03.57,0,1.13-.11,1.68,0,.57.1,1.15-.06,1.7-.23.04-.01.08-.03.1-.06.02-.03.01-.07,0-.1-.18-.91-.35-1.81-.53-2.72s-.17-1.78-.36-2.66c-.24-1.13-.75-2.18-1.25-3.22-.45-.94-.9-1.88-1.36-2.82-.67-1.38-1.51-2.92-3.01-3.31-.62-.16-1.27-.1-1.9-.02-1.55.2-3.17.56-4.31,1.6-.72.65-1.03,1.47-1.09,2.43-.01.24-.01.48-.08.71-.06.21-.18.4-.29.58-.33.56-.56,1.1-.73,1.65Z"/>
    <g>
      <g>
        <path class="st0" d="M21.29,23.7c-1.48,1.26-2.41,2.9-2.54,4.85s.48,4.01.76,6c.17,1.17.28,2.42.03,3.59-.1.47.62.67.72.2.45-2.03-.03-4.21-.41-6.21-.34-1.77-.64-3.66.05-5.39.4-1,1.11-1.82,1.92-2.51.37-.31-.16-.84-.53-.53h0Z"/>
        <path class="st0" d="M27.4,24.19c.79.53,1.44,1.23,1.85,2.1.37.79.51,1.68.54,2.54.03.95-.05,1.9-.15,2.84-.12,1.21-.19,2.43-.09,3.64.08,1.06.26,2.15.75,3.1.22.43.87.05.65-.38-.44-.84-.59-1.83-.66-2.77-.09-1.23-.02-2.46.11-3.69.19-1.86.32-3.85-.47-5.6-.46-1.01-1.24-1.82-2.15-2.44-.4-.27-.78.38-.38.65h0Z"/>
      </g>
      <path class="st0" d="M18.85,28.79c-.9.98-1.3,2.2-1.46,3.5-.14,1.22-.08,2.46-.31,3.67-.14.7-.38,1.35-.78,1.94-.27.4.38.78.65.38.72-1.06.94-2.31,1.03-3.56s.06-2.42.39-3.58c.2-.68.53-1.3,1.01-1.82.33-.35-.2-.89-.53-.53h0Z"/>
      <path class="st0" d="M30.02,29.14c1.01.77,1.48,1.96,1.73,3.16.27,1.28.33,2.59.57,3.88.06.35.14.69.24,1.02.11.37.23.76.49,1.05.32.36.85-.17.53-.53-.19-.21-.25-.57-.33-.83-.08-.3-.15-.61-.21-.91-.12-.64-.19-1.28-.27-1.93-.16-1.31-.34-2.66-.94-3.85-.34-.68-.83-1.25-1.44-1.71-.16-.12-.42-.03-.51.13-.11.19-.03.39.13.51h0Z"/>
      <path class="st0" d="M23.48,32.59c.11,1-.03,2.01-.05,3.02,0,.24,0,.48,0,.73,0,.26-.03.53,0,.79.02.3.09.57.21.84.05.12.12.24.18.36.03.06.07.11.11.17.02.03.04.05.06.08.08.11.08.1,0-.03v-.2c.03-.11.09-.17.17-.2.04-.01.04-.02,0,0-.02,0-.04.01-.06.01-.03,0-.18.03-.09.02-.1.01-.19.02-.29.03-.33.04-.62,0-.9-.18-.41-.25-.79.39-.38.65.29.18.61.27.95.29.2.01.4-.02.59-.04s.46-.04.61-.19c.29-.29-.04-.6-.19-.86-.13-.23-.22-.47-.24-.73-.03-.3,0-.6,0-.89,0-.57.01-1.13.04-1.7.03-.64.07-1.29,0-1.93-.02-.2-.16-.38-.38-.38-.19,0-.4.17-.38.38h0Z"/>
      <path class="st0" d="M25.28,32.74c.07.83.16,1.66.22,2.49.03.42.05.84.05,1.26,0,.18,0,.37-.01.55,0,.08-.01.17-.02.25,0,.04,0,.08-.01.12,0-.1,0,.04-.01.07-.02.15-.07.29-.11.43-.02.06.01-.02.01-.03,0,.02-.02.04-.03.06-.01.02-.02.05-.04.07,0,0-.02.02-.02.03-.02.05.06-.06.02-.02-.02.02-.04.04-.06.06-.15.14-.14.39,0,.53.15.15.38.14.53,0,.21-.19.32-.48.38-.74.08-.35.11-.73.12-1.09.02-.88-.06-1.76-.14-2.64-.04-.47-.09-.93-.13-1.4-.02-.2-.16-.38-.38-.38-.19,0-.39.17-.38.38h0Z"/>
      <path class="st0" d="M21.34,36.12c.01.08.02.15.04.23v-.1c.06.55.05,1.1-.02,1.65v-.1c0,.08-.01.17-.05.25l.04-.09s-.03.07-.06.1l.06-.08s-.05.05-.08.08l.08-.06s-.08.05-.12.07l.09-.04c-.07.03-.15.06-.23.07h.1s-.04-.01-.07-.01h.1c-.09,0-.18-.05-.27-.08-.19-.06-.42.07-.46.26-.05.21.06.4.26.46.08.03.16.06.24.08.12.03.24.02.36-.01.25-.08.5-.2.62-.44.11-.21.12-.44.15-.68.03-.26.04-.53.03-.79,0-.33-.04-.66-.1-.98-.02-.09-.1-.18-.17-.22-.08-.05-.2-.07-.29-.04s-.18.09-.22.17c-.05.09-.06.18-.04.29h0Z"/>
      <path class="st0" d="M26.76,36.97s0,.03,0,.04v-.1c.01.21,0,.42-.03.63v-.1c0,.16-.04.32-.06.47-.03.2-.1.43-.01.63.1.24.35.35.61.35.18,0,.36-.05.54-.08h-.1c.07,0,.13,0,.2.01h-.1c.13,0,.25.06.37.09.15.03.31.05.46.04.31,0,.61-.09.88-.23.17-.09.24-.35.13-.51-.12-.18-.33-.23-.51-.13-.04.02-.07.04-.11.05l.09-.04c-.14.06-.28.09-.42.11h.1c-.14,0-.28,0-.42-.01h.1c-.2-.01-.39-.1-.59-.12s-.41.05-.61.07h.1c-.07,0-.13,0-.2-.01h.1s-.05,0-.08,0l.09.04s-.04-.02-.06-.03l.08.06s-.02-.02-.03-.03l.06.08s-.01-.02-.01-.03l.04.09s0-.02,0-.04v.1c0-.05.02-.1.02-.15v.1c.02-.26.07-.51.11-.77s.04-.51,0-.77c-.01-.09-.1-.18-.17-.22-.08-.05-.2-.07-.29-.04s-.18.09-.22.17c-.05.1-.05.18-.04.29h0Z"/>
      <path class="st0" d="M28.31,36.49c.04.38.09.77.2,1.14.1.31.25.62.51.83.16.13.34.23.55.28.1.02.2.01.29-.04.08-.05.15-.13.17-.22.04-.19-.06-.41-.26-.46-.06-.01-.12-.03-.17-.06l.09.04c-.07-.03-.14-.07-.2-.12l.08.06c-.06-.05-.12-.11-.17-.17l.06.08c-.07-.09-.13-.2-.18-.31l.04.09c-.13-.3-.18-.63-.23-.95v.1c0-.09,0-.18-.02-.27-.01-.1-.03-.19-.11-.27-.07-.07-.17-.11-.27-.11s-.2.04-.27.11c-.06.07-.12.17-.11.27h0Z"/>
    </g>
  </g>
  <g>
    <g>
      <path class="st1" d="M19.7,11.14c-.31.28-.58.61-.79.97-.61,1.07-.76,2.32-.85,3.53-.22,2.75.84,5.86,2.11,8.31.72,1.38,1.21,2.64,2.74,3.08,1.43.4,3.48.6,4.68-.45.78-.68,1.05-1.74,1.48-2.67,1.14-2.47,2.13-5.08,2.02-7.83-.1-2.34-.8-5.49-3.79-5.32-1.01.06-2.09.41-2.61,1.26-.78-.77-1.66-1.58-2.76-1.69-.82-.08-1.61.26-2.23.81Z"/>
      <path class="st2" d="M28.81,9.24c-.09-.03-.19-.06-.28-.08-1.43-.35-3.13.23-3.76,1.54-.65-1.25-2.23-1.87-3.66-1.68s-2.68,1.05-3.61,2.12c-1.47,1.67-2.27,3.84-2.62,6.02-.39,2.39-.06,4.82-.4,7.18-.17,1.18-.4,2.37-.31,3.56.06.79,1.04,4.26,2.39,3.53.73,1.1,2.51,1.34,3.51.47-.96-1.31-.57-3.1-.56-4.71,0-1.42-.32-2.82-.55-4.22-.43-2.59-.68-5.48,0-8.06.1-.36.22-.72.41-1.05.58-.95,1.81-1.46,2.92-1.24s2.02,1.16,2.23,2.25c-.14-.74,1.16-1.71,1.72-1.95.82-.36,1.97-.35,2.62.33.42.43.62,1.03.76,1.61.62,2.63.15,5.33.12,7.98-.02,2.48.62,4.84.14,7.36-.14.71-.32,1.44-.73,2.04.56.37,1.39.3,1.87-.17.92.28,1.99.54,2.77-.01.38-.27.62-.69.8-1.11.78-1.88.89-4.31.54-6.29-.28-1.56-.79-3.08-1.16-4.63-.65-2.7-.79-5.64-2.17-8.13-.66-1.18-1.69-2.23-2.98-2.65Z"/>
    </g>
    <g>
      <g>
        <g>
          <g>
            <ellipse class="st0" cx="21.2" cy="18.98" rx="1" ry=".98"/>
            <ellipse class="st0" cx="27.75" cy="18.85" rx="1" ry=".98"/>
          </g>
          <ellipse class="st0" cx="24.41" cy="25.45" rx="1.92" ry="1.17"/>
        </g>
        <g>
          <path class="st0" d="M18.6,21.8c.59.97,1.06,2,1.57,3.01.39.78.81,1.62,1.49,2.19.35.29.77.51,1.23.57.2.03.4-.05.46-.26.05-.18-.06-.43-.26-.46-.08-.01-.17-.03-.25-.05-.04-.01-.09-.03-.13-.04-.02,0-.14-.06-.07-.02-.07-.03-.15-.07-.22-.11-.04-.02-.07-.04-.1-.07-.02-.01-.14-.1-.07-.05-.14-.11-.27-.24-.39-.38-.03-.03-.06-.07-.09-.1-.01-.02-.03-.04-.04-.05.04.05,0,0,0,0-.06-.09-.13-.17-.19-.27-.53-.81-.91-1.71-1.34-2.57-.29-.58-.59-1.16-.93-1.71-.25-.41-.9-.03-.65.38h0Z"/>
          <path class="st0" d="M29.76,20.93c-.27.49-.48,1-.7,1.52-.11.27-.23.54-.34.81.03-.07-.02.04-.02.04-.01.03-.03.07-.04.1-.03.07-.06.13-.09.2-.06.14-.13.29-.19.43-.24.52-.51,1.04-.84,1.51-.04.06-.08.11-.12.16,0,0-.07.09-.02.03-.02.03-.04.05-.06.08-.09.11-.18.22-.28.32-.09.09-.18.18-.28.26-.02.02-.05.04-.07.06-.08.07.06-.04-.02.02-.06.04-.12.08-.18.12-.12.08-.25.15-.38.21.08-.04-.01,0-.03.01-.04.02-.08.03-.12.04-.07.02-.14.04-.21.06s-.15.03-.22.05c-.11.02.08,0-.03,0-.04,0-.09,0-.13.01-.17.01-.33,0-.5,0-.2-.02-.38.18-.38.38,0,.22.17.36.38.38.61.05,1.23-.07,1.78-.35.5-.26.92-.65,1.27-1.09.78-.99,1.25-2.16,1.72-3.31.03-.08.07-.16.1-.24.02-.04.03-.07.05-.11,0-.02.04-.11.03-.08s.03-.06.03-.08c.02-.04.03-.07.05-.11.03-.08.07-.15.1-.23.12-.27.25-.54.39-.81.23-.42-.42-.8-.65-.38h0Z"/>
        </g>
      </g>
      <path class="st0" d="M24.72,14.56c0-.48-.13-.96-.4-1.36-.12-.18-.26-.34-.43-.48-.09-.07-.18-.14-.28-.2s-.2-.1-.3-.15c-.19-.08-.41-.12-.62-.12-.2,0-.38.17-.38.38s.16.37.38.38c.06,0,.11,0,.17.01h-.1c.12,0,.24.04.36.09l-.09-.04c.14.06.27.13.38.22l-.08-.06c.13.1.24.22.34.34l-.06-.08c.1.13.18.27.25.43l-.04-.09c.07.17.12.35.14.53v-.1c0,.1,0,.2,0,.3,0,.2.17.38.38.38s.38-.16.38-.38h0Z"/>
      <path class="st0" d="M21.62,12.19c-3,.22-3.45,3.69-3.4,6.06.03,1.21.17,2.41.28,3.62.14,1.7.46,3.4.49,5.11.01.84-.1,1.67-.06,2.51s.26,1.67.74,2.39c.26.4.91.03.65-.38-.81-1.23-.62-2.61-.58-4,.05-1.6-.24-3.19-.41-4.78-.12-1.16-.24-2.33-.31-3.49s-.1-2.39.15-3.56c.28-1.29.99-2.62,2.46-2.73.48-.04.48-.79,0-.75h0Z"/>
      <path class="st0" d="M25.51,13.64c.76-.86,2-1.09,2.93-.34,1.13.91,1.28,2.62,1.31,3.97.07,3.37.01,6.76-.06,10.13-.03,1.49-.12,3.17-1.2,4.31-.33.35.2.88.53.53,1.06-1.13,1.32-2.67,1.4-4.16.09-1.85.07-3.71.09-5.56s.06-3.72,0-5.57c-.06-1.5-.36-3.27-1.62-4.26s-2.89-.72-3.89.42c-.32.36.21.89.53.53h0Z"/>
      <path class="st0" d="M24.71,10.04c-.62-.66-1.41-1.17-2.31-1.34-.81-.15-1.65-.05-2.42.23-1.62.6-3,1.88-3.87,3.37-1.05,1.81-1.45,3.99-1.69,6.04-.26,2.18-.3,4.38-.55,6.56s-.46,4.52,1.03,6.28c.31.37.84-.16.53-.53-1.2-1.41-1.06-3.45-.87-5.17.21-1.98.31-3.97.49-5.96.32-3.51,1.02-7.59,4.36-9.5.74-.42,1.57-.69,2.42-.64.93.05,1.72.53,2.35,1.19.33.35.86-.18.53-.53h0Z"/>
      <path class="st0" d="M34.37,32.32c1.29-1.67,1.46-3.84,1.25-5.88-.23-2.24-.83-4.43-1.19-6.64s-.71-4.38-1.44-6.48c-.54-1.54-1.34-3-2.73-3.93-1.57-1.05-3.92-1.38-5.11.4-.27.4.38.78.65.38.96-1.42,2.9-.92,4.09-.13s1.93,2.16,2.4,3.52c.66,1.91,1.01,3.92,1.34,5.91.17,1.02.34,2.04.55,3.05s.43,2.01.59,3.03c.32,2.05.43,4.5-.91,6.24-.12.16-.15.37,0,.53.13.13.41.16.53,0h0Z"/>
      <path class="st0" d="M15.5,22.1c.17,3.36-.89,7.18,1.25,10.14.12.17.32.24.51.13.16-.09.25-.35.13-.51-2.05-2.83-.99-6.54-1.15-9.76-.02-.48-.78-.48-.75,0h0Z"/>
      <path class="st0" d="M31.98,24.21c.06,1.23.14,2.46.1,3.69-.02.47-.05.9-.14,1.34-.04.22-.1.43-.16.64-.06.19-.14.4-.2.55-.22.49-.51.95-.84,1.38-.12.16-.02.42.13.51.19.11.39.03.51-.13.59-.76,1.03-1.62,1.24-2.56.23-1.01.23-2.06.2-3.09-.02-.77-.06-1.54-.1-2.31-.02-.48-.77-.48-.75,0h0Z"/>
    </g>
  </g>
</svg>