<?xml version="1.0" encoding="UTF-8"?>
<svg id="dog" xmlns="http://www.w3.org/2000/svg" version="1.1" viewBox="0 0 50.83 48.47">
  <!-- Generator: Adobe Illustrator 29.8.2, SVG Export Plug-In . SVG Version: 2.1.1 Build 3)  -->
  <defs>
    <style>
      .st0 {
        fill: #231f20;
      }

      .st1 {
        fill: #984e25;
      }

      .st2 {
        fill: #f39b4a;
      }
    </style>
  </defs>
  <g>
    <path class="st2" d="M34.93,32.2l.07-.39c-.76-.29-1.69-.05-2.23.56-.54.61-.64,1.57-.26,2.28.01.02.03.05.04.07-.06.17-.12.35-.18.52-.02.05-.03.09-.05.14-.18-1.36-.7-2.74-1.21-3.92-.15-.34-.35-1.03-.66-1.25-1.08-1.64-2.91-2.78-4.86-3-2.02-.23-4.12.5-5.56,1.93-2.51,2.5-4.47,11.26,1.33,10.97l.41-.44c.19.31.49.53.98.6,1.74.24,2.15-.84,2.25-2.14.1,1.29.51,2.37,2.25,2.14,1.77-.24,3.87-.38,4.73-1.96.21.46.52.86.48,1.23,1.29.22,2.53-.36,3.53-1.13.72-.55,1.29-1.52,1.53-2.4.57-2.11-1.04-3.84-2.59-3.82Z"/>
    <g>
      <path class="st0" d="M21.06,36.89c0,.63-.08,1.26-.05,1.89.04.68.23,1.37.81,1.78.32.23.73.3,1.11.32.36.02.73-.01,1.06-.15s.59-.35.8-.64c.18-.25.29-.54.36-.84.18-.73.17-1.5.16-2.24,0-.2-.17-.38-.38-.38s-.38.16-.38.38c0,.32,0,.64,0,.95,0,.16-.01.31-.03.47,0,.07-.01.14-.02.22,0,.03-.02.1,0-.02,0,.02,0,.04,0,.06,0,.04-.01.08-.02.11-.02.14-.06.28-.1.41-.02.06-.04.12-.06.18-.03.09.04-.08,0,0-.02.04-.03.07-.05.11-.03.05-.06.11-.09.16-.02.02-.03.04-.05.07-.04.05.06-.07.02-.02-.01.02-.03.03-.04.05-.04.04-.08.09-.13.13-.01,0-.02.02-.03.03-.03.03.08-.06.03-.02-.03.02-.06.04-.1.07-.05.03-.12.05-.17.09.05-.04.08-.03.04-.02-.02,0-.03.01-.05.02-.04.01-.08.03-.12.04-.07.02-.14.03-.21.04,0,0,.1-.01.04,0-.02,0-.04,0-.06,0-.05,0-.1,0-.14,0-.08,0-.17,0-.25,0-.05,0-.1,0-.15-.01-.03,0-.05,0-.08,0-.09-.01.08.01,0,0s-.15-.03-.23-.05c-.04-.01-.08-.03-.11-.04-.07-.02.08.04.02,0-.02,0-.03-.02-.05-.02-.06-.03-.11-.07-.17-.1s.07.06.02.02c-.01-.01-.03-.02-.04-.03-.03-.02-.05-.05-.07-.07-.02-.02-.04-.06-.07-.08.06.04.05.07.03.04,0-.01-.02-.03-.03-.04-.04-.06-.07-.12-.1-.18,0-.02-.01-.03-.02-.05-.03-.06.03.09.01.03,0-.03-.02-.05-.03-.08-.02-.07-.04-.14-.06-.21-.02-.07-.03-.13-.04-.2,0-.02,0-.04,0-.06.02.11,0,.06,0,.03,0-.04,0-.08-.01-.13-.06-.67.04-1.34.04-2.01,0-.2-.17-.38-.38-.38s-.37.16-.38.38h0Z"/>
      <path class="st0" d="M30.81,30.38c-1.32-2.09-3.69-3.43-6.17-3.38-2.15.04-4.33,1.08-5.58,2.86-.84,1.21-1.38,2.67-1.68,4.1s-.42,3.02.11,4.41c.27.7.7,1.32,1.33,1.74.72.48,1.61.62,2.47.59.48-.02.48-.77,0-.75-1.26.06-2.4-.37-2.97-1.54s-.51-2.55-.31-3.76c.22-1.35.66-2.68,1.35-3.86.9-1.55,2.45-2.57,4.21-2.91,2.55-.5,5.21.71,6.59,2.9.26.41.91.03.65-.38h0Z"/>
      <path class="st0" d="M28.05,36.89c0,.6.08,1.19.05,1.79,0,.07,0,.14-.01.22,0,.04,0,.07-.01.11,0,.02,0,.03,0,.05.01-.13,0-.03,0,0-.02.14-.05.28-.1.41,0,.03-.02.05-.03.08-.02.07.04-.09.01-.03,0,.02-.01.03-.02.05-.03.06-.06.12-.1.18,0,.01-.02.02-.02.03-.02.04-.04.02.02-.03-.02.02-.04.05-.07.08-.02.02-.04.04-.06.06-.01.01-.03.02-.04.03-.07.06.06-.04,0,0-.06.04-.11.07-.17.1-.03.02-.13.04-.01,0-.04.01-.09.03-.13.05-.08.02-.15.04-.23.05-.03,0-.04.02.03,0-.02,0-.06,0-.08,0-.06,0-.11.01-.17.01-.08,0-.17,0-.25,0-.04,0-.09,0-.13,0-.04,0-.17-.03-.05,0-.07-.02-.14-.02-.21-.04-.04,0-.07-.02-.11-.03-.02,0-.03-.01-.05-.02-.04-.02-.04-.04.02.01-.04-.04-.12-.06-.17-.09-.03-.02-.06-.04-.08-.06-.01,0-.06-.04,0,0s0,0-.01-.01c-.05-.04-.09-.08-.13-.13-.03-.03-.08-.12-.01-.01-.02-.03-.04-.05-.06-.08-.03-.05-.06-.1-.09-.16-.02-.03-.03-.06-.04-.09,0-.01,0-.02-.01-.03-.03-.06.04.1,0,0-.05-.13-.09-.26-.12-.39-.02-.08-.03-.16-.05-.24,0-.04-.01-.08-.02-.11-.01-.07.01.1,0,.02,0-.02,0-.05,0-.07-.02-.17-.03-.34-.04-.51-.02-.36-.01-.72-.01-1.08,0-.2-.17-.38-.38-.38s-.37.16-.38.38c0,.68,0,1.37.12,2.04.12.61.4,1.22.95,1.55.31.19.68.26,1.03.28.41.01.84-.04,1.21-.22.66-.31.91-1.01.98-1.68s-.03-1.4-.03-2.11c0-.2-.17-.38-.38-.38s-.38.16-.38.38h0Z"/>
      <path class="st0" d="M30.15,30.71c.14.08.22.3.29.44.09.2.15.4.23.6.13.32.27.64.39.97.27.73.5,1.47.66,2.23.26,1.24.42,2.82-.36,3.83-.49.63-1.28.89-2.06.95-.48.04-.48.79,0,.75.87-.07,1.73-.32,2.38-.94.54-.52.83-1.23.94-1.96.24-1.64-.21-3.36-.77-4.89-.15-.4-.33-.82-.48-1.21-.2-.49-.35-1.13-.84-1.42-.42-.25-.79.4-.38.65h0Z"/>
      <path class="st0" d="M36.67,33.81c.72.94.62,2.12.11,3.13-.26.51-.6.99-1.05,1.36s-.94.67-1.46.86c-.63.24-1.25.3-1.92.22-.2-.03-.38.19-.38.38,0,.22.17.35.38.38.66.08,1.33.03,1.96-.19s1.22-.56,1.75-.96.96-.92,1.28-1.5.55-1.24.59-1.92c.04-.75-.16-1.53-.62-2.12-.12-.16-.32-.25-.51-.13-.16.09-.26.35-.13.51h0Z"/>
      <path class="st0" d="M34.18,34.38s.01.06.02.09c0,.04,0-.03,0-.03,0,0,0,.04,0,.05,0,.03,0,.05,0,.08,0,.02,0,.04,0,.05,0,.05,0,0,0-.02-.01.02-.01.07-.02.09,0,.03-.02.06-.03.09,0,.01,0,.03-.01.04-.02.05.03-.06,0-.02-.02.03-.03.06-.05.09,0,.01-.05.07-.05.08,0,0,.05-.05.02-.02,0,0-.02.02-.03.03-.02.02-.04.05-.07.07,0,0-.03.02-.03.03.04-.03.04-.03.02-.02,0,0-.01.01-.02.02-.03.02-.05.03-.08.05-.01,0-.07.03-.07.04,0-.02.07-.02.01,0-.01,0-.03,0-.04.01-.03.01-.07.02-.1.03-.02,0-.04,0-.05.01-.04,0,.03,0,.03,0-.02,0-.08,0-.09,0-.03,0-.06,0-.09,0-.01,0-.06,0,0,0,.06,0-.02,0-.03,0-.03,0-.05-.01-.08-.02-.02,0-.1-.03-.06-.02s-.04-.02-.05-.03c-.03-.02-.06-.04-.09-.05-.02,0-.05-.04-.07-.05.03,0,.05.04.01,0,0,0-.02-.02-.03-.03-.05-.05-.1-.1-.14-.15s.04.06-.02-.02c-.02-.03-.04-.05-.05-.08-.03-.05-.06-.11-.09-.16-.01-.03-.03-.06-.04-.08-.02-.04.01.03.01.03,0-.01-.01-.04-.02-.05-.02-.06-.04-.12-.06-.17s-.03-.12-.04-.18c0-.02,0-.04,0-.05,0,0,0,.08,0,.03,0-.03,0-.07,0-.1,0-.12,0-.24,0-.37,0-.04,0,.03,0,.03,0-.02,0-.04,0-.05,0-.03.01-.06.02-.09.01-.06.03-.12.05-.18s.04-.12.06-.17c.02-.04-.01.03-.01.03,0-.01.02-.04.02-.05.01-.03.03-.06.05-.09.03-.05.06-.1.09-.15.02-.03.03-.05.05-.08,0,0,.03-.04,0,0-.04.04.01-.01.02-.02.04-.04.07-.08.11-.12s.12-.08.14-.13c0,0-.07.05-.01.01.01,0,.02-.02.03-.02.02-.02.05-.03.07-.05.05-.03.1-.06.16-.09.03-.02.06-.03.09-.05.01,0,.03-.01.05-.02-.02.01-.06.03-.02,0,.06-.02.13-.05.19-.07s.13-.03.2-.05c.01,0,.03,0,.04,0,.06,0,.03,0-.01,0,.03,0,.07,0,.1,0,.07,0,.14,0,.21,0,.03,0,.06,0,.09,0,.02,0,.03,0,.05,0,.01,0,.07,0,.01,0s0,0,.01,0c.02,0,.03,0,.05,0,.03,0,.07.01.1.02.07.02.14.04.21.06.18.07.42-.08.46-.26.05-.21-.06-.39-.26-.46-.6-.22-1.26-.15-1.83.1s-1.02.76-1.23,1.36-.17,1.27.1,1.85c.29.62.92,1.1,1.64,1,.41-.06.77-.27,1-.62s.29-.77.19-1.15c-.05-.19-.27-.32-.46-.26s-.31.26-.26.46h0Z"/>
      <path class="st0" d="M36.05,31.93c0,.07,0,.13-.02.19v-.1c-.01.17-.06.34-.12.5l.04-.09c-.03.06-.05.12-.09.18-.05.09-.06.19-.04.29.01.05.03.09.07.13.03.04.06.07.11.1.09.05.19.07.29.04.09-.03.18-.09.22-.17.18-.33.28-.69.29-1.06,0-.05,0-.1-.03-.14-.02-.05-.04-.09-.08-.12-.03-.04-.07-.06-.12-.08-.04-.02-.09-.03-.14-.03-.1,0-.2.04-.27.11l-.06.08c-.03.06-.05.12-.05.19h0Z"/>
    </g>
  </g>
  <g>
    <g>
      <path class="st2" d="M11.34,18.24c-.04.34,0,.68.11,1,.03.09.08.18.07.28-.01.11-.09.21-.16.29-1.11,1.39-1.24,3.79.04,5.12.51.53.45,1.3,1.08,1.82.6.5.71.7.85,1.41.12.6.53,1.21.92,1.67.85.96,2.1,1.58,3.39,1.57.24,0,.47-.02.7.03.77.16,1.11.97,1.92,1.04.72.06,1.46-.1,2.1-.45,1.46.51,3.1.47,4.53-.1-.12.05.74.41.79.42.37.1.74.26,1.14.27.64.01,1.29-.08,1.9-.28.3-.1.61-.23.83-.46.45-.48.61-.71,1.3-.74,1-.04,2.05-.18,2.87-.76s1.33-1.69.95-2.62c.6-.3,1.06-.82,1.33-1.43.14-.32.23-.65.26-1,0-.07-.08-.86-.13-.79.38-.47.52-1.12.36-1.7-.02-.07-.05-.15-.04-.23,0-.1.06-.19.11-.27.38-.66.41-1.71.24-2.44-.16-.68-.6-1.26-1.06-1.77-.05-.06-.11-.12-.13-.19-.02-.06-.02-.12-.02-.18.01-1.07-.77-2.24-1.53-2.95-.32-.3-1.24-.45-1.4-.8-.04-.08-.03-.16-.03-.25,0-.56-.05-1.15-.32-1.64-.09-.17-.24-.35-.43-.37-.08-.01-.16,0-.24.02-.57.13-.95.47-1.44.69-.46.2-.81-.33-1.24-.62-.93-.61-1.99-1.02-3.08-1.19-.76-.12-1.47-.05-2.22-.01-.68.03-1.41.29-2.09.27-.33-.01-.65-.14-.98-.21-1-.22-2.12.04-3.05.41-.21.09-2.3,1.05-2.11,1.36-.45-.73-1.74-.64-2.08.14-.17.39.01.81-.1,1.18-.12.42-.69.68-1.03.9-.6.39-1.15.85-1.64,1.36-.41.43-.78.9-1.01,1.45-.1.23-.16.48-.19.73Z"/>
      <path class="st1" d="M19.38,13.88c-.07-.06-.14-.11-.2-.17-.01-.01-.03-.02-.04-.04-.43-.31-.91-.57-1.36-.86-.28-.19-.67-.44-.89-.76-.23-.09-.48-.09-.73-.05,0,0-.01,0-.02,0-.1.08-.2.17-.28.26-.09.11-.25.15-.39.16-.01,0-.02,0-.03,0-.04.05-.09.08-.11.14.23.67.08,1.6.04,2.17-.02.25-.03.49-.03.74,0,.13,0,.25.01.38,0,.02,0,.08.01.1,0,.03.02.11.02.12.01.05.03.11.04.16,0,.01.02.05.03.08.01.02.04.08.05.09.01.02.02.03.03.04.01.01.02.02.04.04.04-.02.08-.03,0,0,0,0,0,0,0,0,.04-.02.08-.04.12-.06.09-.05.18-.11.26-.17.15-.11.38-.3.57-.48.37-.34.73-.7,1.1-1.04.19-.17.37-.3.61-.4.26-.1.52-.17.79-.26.13-.04.27-.09.35-.13.02,0,.03-.02.05-.03-.02-.02-.04-.04-.05-.04Z"/>
      <path class="st1" d="M31.85,12.47c-.1.09-.2.19-.31.28-.26.24-.52.47-.79.69-.02.02-.04.03-.05.05,0,0,0,0,0,0-.04.03-.07.06-.11.09-.06.05-.14.07-.21.07-.03.03-.07.06-.1.09-.09.1-.13.16-.2.28.02,0,.04.01.05.01.16.05.32.1.47.16.92.35,1.63,1.01,2.36,1.64.29.25.64.56.97.68,0,0,.1.03.13.04,0,0,0,0,0,0,0,0,0,0,0,0,0,0,.04,0,.07,0,0,0,0,0,0,0,.09-.06.18-.19.26-.33.2-.39.26-.87.29-1.3.02-.26.04-.53.06-.79-.05-.04-.09-.09-.11-.14-.04-.08-.03-.16-.03-.25,0-.56-.05-1.15-.32-1.64-.09-.17-.24-.35-.43-.37-.08-.01-.16,0-.24.02-.57.13-.95.47-1.44.69-.11.05-.22.06-.32.03Z"/>
      <path class="st1" d="M28.5,24.13c-1.52-1.19-3.35-1.47-5.2-1.4-.86.14-1.76.43-2.38,1.08-.56.59-.76,1.49-.27,2.19.44.63,1.26.97,2.02.94.99-.04,1.38-.75,1.78-1.54.27-.54.96-.2,1.02.28.11.84,1.12,1.13,1.84,1.03.97-.14,1.56-.97,1.4-1.94-.04-.23-.11-.44-.2-.63Z"/>
    </g>
    <g>
      <g>
        <circle class="st0" cx="19.46" cy="21.43" r=".98"/>
        <circle class="st0" cx="29.63" cy="21.43" r=".98"/>
        <ellipse class="st0" cx="24.55" cy="22.67" rx="1.89" ry="1.17"/>
      </g>
      <path class="st0" d="M15.6,15.02c-.02-.51-.01-1.03.03-1.54,0-.12.02-.24.03-.37,0-.05.01-.1.02-.15,0-.03-.01-.04,0,.02,0-.03.01-.07.01-.09.02-.09.04-.17.06-.26,0-.02.01-.04.02-.06.02-.07,0,.01,0,.02,0-.04.05-.1.07-.13v-.02s.03-.03,0,.02c0,0,.03-.04.03-.04.02-.02.04-.03.05-.05.04-.04-.02.01-.02.01,0-.02.14-.07.05-.04.03-.01.06-.02.09-.03.07-.02-.06,0,.02,0,.05,0,.1,0,.16,0-.08,0-.02,0,0,0,.03,0,.06.01.09.02.05.01.1.03.16.05.07.02.02,0,0,0,.04.02.08.04.12.06.39.19.76.43,1.11.7-.06-.05,0,0,.01.01.03.02.06.05.09.07.05.04.1.08.15.12.09.08.18.16.26.24.19.18.36.36.53.56.13.15.4.14.53,0,.15-.16.14-.37,0-.53-.63-.74-1.42-1.38-2.3-1.81-.26-.13-.54-.24-.84-.24s-.55.1-.76.3c-.35.33-.42.85-.46,1.3-.06.62-.08,1.25-.05,1.87,0,.2.17.38.38.38s.38-.17.38-.38h0Z"/>
      <path class="st0" d="M30.97,13.99c.41-.38.84-.75,1.27-1.11.1-.08.21-.17.31-.25.03-.02.06-.05.09-.07-.04.03.02-.01.03-.02.06-.05.12-.09.18-.13.1-.07.19-.13.3-.18.03-.02.06-.03.09-.05,0,0,.1-.04.05-.02s.05-.02.05-.02c.04-.01.08-.03.13-.04.02,0,.04,0,.06-.01.1-.03-.07,0,.03,0,.05,0,.1,0,.16,0-.09,0,0,0,.03,0,.03,0,.06.02.09.03-.01,0-.06-.03,0,0,.02,0,.08.04.09.05-.01-.04-.05-.04,0,0,.02.01.03.03.05.04.01.01.05.04.05.06,0-.03-.04-.05-.01-.01.03.04.06.09.08.14,0,.02.02.03.02.05.02.04.01.03,0-.02,0,.02.01.03.02.05.03.09.06.19.08.28.01.05.02.1.03.15,0,.02,0,.04,0,.06,0,.04,0,.04,0-.02,0,.02,0,.04,0,.05.03.28.05.55.07.83.04.66.04,1.31.01,1.97,0,.2.18.38.38.38.21,0,.37-.16.38-.38.03-.63.03-1.26,0-1.89-.02-.3-.04-.61-.07-.91-.03-.24-.06-.49-.15-.73s-.21-.48-.41-.65c-.23-.2-.51-.31-.81-.3-.63,0-1.15.43-1.63.8-.54.42-1.05.87-1.55,1.33-.14.13-.15.4,0,.53.15.14.38.14.53,0h0Z"/>
      <path class="st0" d="M18.86,12.05s.05-.04.08-.06c.05-.04-.03.02.03-.02s.12-.09.18-.13c.12-.08.24-.16.37-.23s.25-.13.37-.18c.07-.03-.03.01.03-.01.03-.01.06-.02.09-.04.07-.03.14-.05.2-.07.27-.09.55-.15.83-.2.07-.01-.04,0,.03,0,.03,0,.07,0,.1-.01.07,0,.14-.01.22-.02.14,0,.28,0,.42,0,.08,0,.17,0,.25.01.04,0,.08,0,.12.01.02,0,.03,0,.05,0,.06,0-.06,0,0,0,.16.02.32.05.47.09.19.05.42-.06.46-.26s-.06-.41-.26-.46c-1.23-.31-2.55-.14-3.67.45-.32.17-.61.37-.89.6-.15.13-.14.4,0,.53.16.15.37.13.53,0h0Z"/>
      <path class="st0" d="M23.19,10.32c.07.03.14.07.2.12l-.08-.06c.06.05.12.1.16.17l-.06-.08c.05.06.09.14.12.21l-.04-.09c.03.07.05.15.06.22v-.1s0,.03,0,.04c0,.05,0,.1.03.14.02.05.04.09.08.12.03.04.07.06.12.08.04.02.09.03.14.03h.1c.06-.03.12-.06.17-.11l.06-.08c.03-.06.05-.12.05-.19,0-.1-.02-.19-.05-.29-.02-.06-.04-.12-.07-.18-.01-.03-.03-.06-.04-.09-.05-.08-.11-.16-.17-.23s-.14-.13-.21-.19c-.06-.05-.12-.08-.19-.11-.04-.03-.09-.04-.14-.04-.05-.01-.1,0-.15,0-.05.01-.09.03-.13.07-.04.03-.07.06-.1.11l-.04.09c-.02.07-.02.13,0,.2l.04.09c.03.06.08.1.13.13h0Z"/>
      <path class="st0" d="M25.39,11.11c.77-.08,1.54-.1,2.31-.02.34.04.71.1,1.07.2s.69.21,1,.37c.38.19.71.41,1.01.67.15.14.38.15.53,0,.14-.14.15-.39,0-.53-1.23-1.12-2.95-1.5-4.57-1.51-.45,0-.9.02-1.35.07-.2.02-.38.16-.38.38,0,.19.17.4.38.38h0Z"/>
      <path class="st0" d="M13.89,14.42c-1.37.6-2.42,1.85-2.85,3.27-.12.4-.19.83-.21,1.25,0,.2.18.38.38.38.21,0,.37-.16.38-.38,0-.08,0-.16.02-.25,0-.04,0-.08.01-.12-.01.09,0-.06.01-.08.03-.16.06-.32.11-.48.05-.17.1-.33.17-.49,0-.02.02-.04.02-.06,0,.01-.03.07,0,0,.02-.04.03-.07.05-.11.03-.07.07-.15.11-.22.08-.15.17-.3.27-.45.05-.07.09-.14.14-.2.01-.02.02-.03.04-.05,0,.01-.05.06,0,0,.03-.04.06-.07.09-.11.22-.26.46-.49.73-.71.04-.04-.05.04,0,0,.02-.02.04-.03.06-.05.04-.03.08-.06.13-.09.08-.05.15-.1.23-.15.17-.1.34-.19.52-.27s.24-.36.13-.51c-.12-.19-.32-.22-.51-.13h0Z"/>
      <path class="st0" d="M11.64,19.09c-1.24,1.09-1.73,2.9-1.35,4.49.11.45.29.88.54,1.27.11.17.33.24.51.13.17-.1.24-.34.13-.51-.1-.15-.19-.31-.26-.48-.01-.02-.02-.04-.03-.07,0,.01.02.06,0-.01-.02-.04-.03-.08-.05-.12-.03-.09-.06-.17-.08-.26s-.05-.18-.07-.26c0-.04-.02-.08-.02-.12,0-.02,0-.05-.01-.07,0,0-.02-.1,0-.06,0,.04,0-.02,0-.02,0-.02,0-.05,0-.07,0-.04,0-.08-.01-.13,0-.1-.01-.19-.01-.29,0-.18.01-.36.03-.55,0-.06,0,.05,0,0,0-.02,0-.04,0-.05,0-.05.02-.1.03-.14.02-.09.04-.18.06-.27.05-.18.1-.35.17-.52,0,0,.03-.08.02-.04-.01.03,0-.02,0-.02.02-.04.04-.09.06-.13.04-.09.09-.17.14-.26s.1-.17.15-.25c.03-.04.06-.09.09-.13.01-.01.02-.03.03-.04-.04.05.01-.02.02-.02.13-.16.28-.32.44-.46s.14-.39,0-.53c-.15-.15-.38-.13-.53,0h0Z"/>
      <path class="st0" d="M11.81,25.91s.04-.06.06-.09l-.06.08c.04-.05.09-.1.14-.14l-.08.06c.05-.04.11-.08.17-.1l-.09.04s.09-.03.14-.04c.05-.01.09-.03.13-.07.04-.03.07-.06.1-.11.03-.04.04-.09.04-.14.01-.05,0-.1,0-.15l-.04-.09c-.03-.06-.08-.1-.13-.13l-.09-.04c-.07-.02-.13-.02-.2,0-.04,0-.08.02-.12.04-.07.03-.14.06-.2.09s-.12.08-.18.13c-.03.03-.06.06-.09.09-.05.06-.1.12-.14.19-.03.04-.04.09-.04.14-.01.05,0,.1,0,.15.01.05.03.09.07.13.03.04.06.07.11.1l.09.04c.07.02.13.02.2,0l.09-.04c.06-.03.1-.08.13-.13h0Z"/>
      <path class="st0" d="M12.36,26.21c-.11.14-.2.3-.27.46-.08.19-.15.39-.19.59-.02.05-.02.1,0,.15,0,.05.02.1.04.14.02.04.06.08.1.11.04.03.08.06.13.07.1.02.2.02.29-.04.08-.05.15-.13.17-.22.03-.16.08-.32.14-.47l-.04.09c.07-.18.17-.34.28-.49.03-.04.04-.09.04-.14.01-.05,0-.1,0-.15-.01-.05-.03-.09-.07-.13-.03-.04-.06-.07-.11-.1-.09-.05-.19-.07-.29-.04l-.09.04c-.06.03-.1.08-.13.13h0Z"/>
      <path class="st0" d="M12.94,27.36c-.04.89.23,1.8.75,2.53s1.31,1.31,2.21,1.57c.48.14,1,.2,1.5.15.19-.02.38-.16.38-.38,0-.19-.17-.39-.38-.38s-.4.02-.61,0c-.05,0-.1,0-.15-.01-.07,0-.01,0,0,0-.03,0-.05,0-.08-.01-.1-.02-.2-.04-.31-.06-.1-.02-.19-.05-.28-.08-.04-.01-.08-.03-.12-.04-.03,0-.05-.02-.08-.03-.02,0-.03-.01-.05-.02.03.01.04.02.01,0-.18-.08-.36-.18-.54-.29-.08-.05-.15-.1-.23-.16-.05-.04.07.06-.01-.01-.02-.01-.03-.03-.05-.04-.04-.04-.08-.07-.12-.11-.07-.07-.14-.14-.21-.21-.03-.04-.07-.07-.1-.11-.01-.02-.03-.03-.04-.05,0,0-.07-.09-.04-.05.03.04-.03-.04-.03-.04-.01-.02-.03-.04-.04-.05-.03-.04-.06-.08-.08-.12-.06-.09-.11-.18-.16-.27s-.09-.17-.13-.26c0-.01-.03-.07,0,0,0-.02-.02-.04-.02-.06-.02-.05-.04-.1-.06-.15-.07-.22-.13-.44-.16-.66-.01-.07,0-.01,0,0,0-.03,0-.06-.01-.1,0-.05,0-.11-.01-.16,0-.12,0-.24,0-.36,0-.2-.18-.38-.38-.38-.21,0-.37.16-.38.38h0Z"/>
      <path class="st0" d="M18.15,31.5c.45.64,1.11,1.12,1.88,1.3.62.14,1.31.22,1.92.01.13-.04.26-.1.39-.15.03-.01.05-.02.08-.03.02-.01.06-.02-.04.02.02,0,.03-.01.05-.02.06-.02.11-.04.17-.06.18-.07.33-.26.26-.46-.06-.18-.26-.33-.46-.26-.12.04-.23.09-.35.14-.02,0-.04.02-.05.02-.01,0-.09.04-.02.01s-.01,0-.02,0c-.02,0-.05.02-.07.03-.09.04-.18.07-.28.09-.05.01-.1.02-.15.03-.04,0-.12,0,0,0-.03,0-.06,0-.09,0-.14.01-.28.01-.42,0-.08,0-.16-.01-.24-.02-.02,0-.07-.01,0,0-.02,0-.05,0-.07,0-.05,0-.11-.02-.16-.03-.18-.03-.35-.07-.52-.13-.04-.01-.08-.03-.11-.04-.02,0-.06-.03,0,0-.02,0-.04-.02-.06-.03-.08-.04-.15-.08-.23-.12-.08-.05-.16-.1-.24-.16-.01,0-.05-.04,0,0-.02-.02-.04-.03-.06-.05-.03-.03-.07-.06-.1-.09-.07-.06-.13-.13-.19-.2-.03-.04-.07-.08-.1-.12,0,.01.04.06,0,0-.02-.03-.04-.05-.05-.08-.11-.16-.33-.25-.51-.13-.16.1-.25.34-.13.51h0Z"/>
      <path class="st0" d="M35.41,14.85c.09.05.19.11.27.17.04.03.09.06.13.09.01,0,.02.02.03.02,0,0-.07-.06-.03-.02.02.02.04.03.06.05.17.14.33.29.48.46.03.04.07.08.1.12.02.02.03.04.05.06,0,.01.02.02.03.03.04.05-.04-.06-.02-.02.06.09.13.17.19.27.12.18.22.37.31.57.01.03.02.06.04.08-.05-.11,0-.01,0,.01.02.06.04.11.06.17.04.12.08.24.11.36.05.19.27.32.46.26s.31-.26.26-.46c-.23-.92-.75-1.78-1.48-2.39-.21-.18-.44-.35-.69-.49-.17-.1-.42-.04-.51.13s-.05.41.13.51h0Z"/>
      <path class="st0" d="M37.22,18.37s.06.04.09.07c.01.01.05.04,0,0,.01,0,.02.02.03.03.06.05.12.1.17.15.11.1.21.22.3.33-.06-.07.01.02.03.04.02.03.04.06.07.1.04.06.08.13.12.2.03.06.07.12.1.18.02.03.03.07.05.1,0,.02.02.04.02.05-.02-.04-.01-.03,0,0,.06.14.1.28.14.43.02.07.03.14.05.21,0,.03.01.07.02.1,0,.02,0,.04,0,.06.01.07,0-.05,0,0,.02.15.03.3.03.45,0,.07,0,.14,0,.22,0,.03,0,.07,0,.1,0,.02,0,.04,0,.06,0,.09,0-.05,0,0-.03.17-.06.33-.11.49-.03.08-.06.16-.09.24.03-.08,0,.01-.02.04-.02.04-.04.09-.07.13-.09.17-.05.42.13.51.17.09.42.05.51-.13.65-1.23.51-2.83-.31-3.95-.25-.34-.53-.62-.88-.86-.16-.11-.42-.04-.51.13-.1.19-.04.39.13.51h0Z"/>
      <path class="st0" d="M38.36,23.82s0,0,.01,0h-.1c.12,0,.24,0,.35.01h-.1c.11,0,.22.03.33.07.05.02.1.02.15,0,.05,0,.1-.02.14-.04.04-.02.08-.06.11-.1.03-.04.06-.08.07-.13v-.1c.01-.07,0-.13-.04-.19l-.06-.08s-.1-.08-.17-.1c-.06-.02-.11-.04-.17-.06-.09-.02-.18-.03-.27-.05-.06,0-.12-.01-.18-.01-.09,0-.18.01-.28.03-.05.01-.09.03-.13.07-.04.03-.07.06-.1.11-.03.04-.04.09-.04.14-.01.05,0,.1,0,.15l.04.09c.03.06.08.1.13.13l.09.04c.07.02.13.02.2,0h0Z"/>
      <path class="st0" d="M37.77,24.91c.33.42.14,1.09-.12,1.52-.33.55-.82.97-1.4,1.23-.18.08-.23.35-.13.51.48.8-.3,1.66-.93,2.08-.76.5-1.67.7-2.57.58-.2-.03-.38.19-.38.38,0,.22.17.35.38.38,1.08.14,2.24-.15,3.12-.8.45-.33.87-.74,1.09-1.26.24-.55.26-1.19-.06-1.72l-.13.51c1.35-.61,2.78-2.51,1.67-3.93-.12-.16-.4-.13-.53,0-.16.16-.12.37,0,.53h0Z"/>
      <path class="st0" d="M26.98,32.37c1.18.78,2.77.79,4.01.15.35-.18.67-.42.94-.7.14-.14.15-.39,0-.53s-.38-.15-.53,0c-.05.05-.1.1-.16.15-.03.02-.05.05-.08.07-.01.01-.12.1-.06.05-.12.09-.25.17-.38.25-.06.04-.13.07-.19.1-.03.02-.07.03-.1.05-.02,0-.04.02-.06.03.03-.01.04-.02,0,0-.15.06-.29.11-.45.15-.07.02-.14.03-.21.05-.04,0-.07.01-.11.02-.02,0-.03,0-.05,0-.1.02.05,0,0,0-.15.02-.3.03-.45.03s-.31-.01-.47-.03c.08,0,0,0-.04,0-.04,0-.07-.01-.11-.02-.08-.02-.15-.03-.23-.05-.09-.02-.17-.05-.25-.08-.04-.01-.08-.03-.12-.04-.01,0-.03-.01-.04-.02-.04-.02.05.03-.01,0-.16-.08-.32-.16-.47-.26-.16-.11-.42-.04-.51.13-.1.19-.04.4.13.51h0Z"/>
      <path class="st0" d="M16.08,16.49c.22-.27.47-.51.73-.74.06-.05.12-.1.19-.16.03-.03.07-.05.1-.08,0,0-.04.03,0,0,.02-.02.05-.04.07-.06.13-.1.27-.19.42-.28.29-.18.6-.35.92-.49.02,0,.03-.01.05-.02-.05.02,0,0,.01,0,.03-.01.07-.03.1-.04.09-.03.17-.07.26-.1.16-.06.33-.11.5-.15.19-.05.37-.09.56-.12.05,0,.1-.02.15-.02.02,0,.04,0,.06,0,.06,0-.05,0,.01,0,.1-.01.21-.02.31-.03.2-.02.38-.16.38-.38,0-.19-.17-.39-.38-.38-1.51.12-2.94.7-4.1,1.66-.32.26-.61.55-.87.86-.13.15-.16.39,0,.53.14.13.4.16.53,0h0Z"/>
      <path class="st0" d="M29.31,14.15c.06,0,.11,0,.17.01.03,0,.05,0,.08,0,.01,0,.07,0,.01,0s0,0,.01,0c.11.02.23.04.34.06.23.05.45.12.66.2.02,0,.05.02.07.03.01,0,.02,0,.04.01.04.02-.03-.01-.03-.01.06.02.11.05.16.07.1.05.21.1.31.16s.2.12.3.18c.05.03.09.06.14.09.02.01.04.03.06.05.01.01.03.02.04.03,0,0,.06.04.01,0s0,0,0,0c.01.01.03.02.04.03.03.02.05.04.08.07.05.04.1.08.14.13.1.09.19.18.28.28.13.14.4.15.53,0,.14-.15.14-.38,0-.53-.68-.74-1.59-1.27-2.57-1.5-.29-.07-.59-.11-.89-.14-.2-.01-.38.18-.38.38,0,.22.16.36.38.38h0Z"/>
      <path class="st0" d="M22.7,22.73c-.71.02-1.42.32-1.9.84s-.71,1.27-.46,1.96.87,1.26,1.6,1.39c.77.14,1.58-.13,2.14-.67.65-.62.93-1.57.83-2.45-.02-.13-.1-.25-.25-.25-.12,0-.27.11-.25.25.08.66-.07,1.35-.48,1.88-.39.49-1.01.79-1.62.78s-1.12-.36-1.4-.88c-.13-.25-.19-.53-.16-.82,0,.02,0-.05.01-.06,0-.03.01-.06.02-.1.02-.07.04-.14.07-.21,0-.02.06-.12.09-.17.04-.06.08-.13.12-.19.38-.49,1.03-.79,1.65-.81.32,0,.32-.51,0-.5h0Z"/>
      <path class="st0" d="M26.44,23.35c.07,0,.15,0,.22,0,.04,0,.08,0,.12,0,0,0,.05,0,0,0,.02,0,.05,0,.07.01.15.03.29.07.43.12,0,0,.06.02.02,0,.01,0,.03.01.04.02.03.02.07.03.1.05.07.04.13.08.2.12.03.02.07.05.1.07-.03-.02.03.03.04.04.06.05.12.11.17.17.02.03.05.05.07.08,0,0,.03.04.02.02-.02-.03.03.04.02.03.04.06.08.13.12.19.02.03.03.06.05.1.02.04,0,.01,0,0,0,.02.01.03.02.05.02.07.04.14.06.2,0,.04.01.07.02.11,0,.01,0,.05,0,0,0,.01,0,.03,0,.04,0,.07,0,.15,0,.22,0,.03,0,.07,0,.1,0,.01,0,.03,0,.04,0,.04.01-.06,0,.01s-.03.14-.04.21c-.02.06-.04.13-.06.19-.02.04.03-.05,0,.01,0,.01-.01.03-.02.04-.02.03-.03.07-.05.1-.03.06-.07.11-.11.17-.04.06.02-.02,0,.01-.01.01-.02.03-.04.04-.02.03-.05.05-.08.08-.02.02-.05.05-.07.07-.01,0-.02.02-.03.03-.03.03.05-.03-.01,0s-.12.08-.19.12c-.03.02-.06.03-.1.05.04-.02,0,0,0,0-.02,0-.04.01-.06.02-.07.02-.14.04-.22.06,0,0-.07.01-.04,0s-.04,0-.04,0c-.03,0-.06,0-.09,0-.08,0-.16,0-.24,0-.02,0-.03,0-.05,0,.04,0,0,0,0,0-.04,0-.08-.01-.12-.02-.07-.02-.15-.04-.22-.06-.02,0-.04-.01-.06-.02,0,0-.04-.02,0,0-.03-.01-.07-.03-.1-.05-.07-.03-.13-.07-.2-.11-.03-.02-.07-.05-.1-.07.03.02-.03-.03-.04-.04-.06-.05-.12-.11-.17-.17-.01-.01-.02-.03-.03-.04,0,0-.05-.06-.02-.03-.03-.03-.05-.07-.07-.1-.05-.08-.1-.16-.14-.24,0-.02-.01-.03-.02-.05,0,0-.03-.07-.02-.03-.02-.04-.03-.08-.05-.12-.03-.09-.06-.18-.08-.27,0-.04-.02-.08-.02-.13,0-.02,0-.03,0-.05,0-.06,0,.02,0-.04,0-.09-.02-.18-.02-.27s0-.18.01-.27c0-.02,0-.03,0-.05,0-.06,0,.02,0-.04s.02-.1.03-.15c.03-.13-.04-.27-.17-.31-.12-.03-.28.04-.31.17-.15.72-.04,1.52.38,2.13s1.12.97,1.85.94c.35-.02.7-.12.98-.33s.48-.47.62-.79c.26-.62.21-1.37-.18-1.92-.46-.66-1.27-1.04-2.07-1-.13,0-.25.11-.25.25,0,.13.11.26.25.25h0Z"/>
      <path class="st0" d="M16.05,19.23c-.68.92-1.29,1.98-1.1,3.17.05.3.16.6.33.85.07.11.22.16.34.09.11-.07.16-.23.09-.34-.34-.51-.36-1.15-.21-1.73.18-.66.58-1.24.98-1.79.08-.11.02-.28-.09-.34-.13-.07-.26-.02-.34.09h0Z"/>
      <path class="st0" d="M15.74,22.42c-.54,1.31-.23,2.86.65,3.95.25.31.54.57.88.78.27.17.52-.26.25-.43-1.04-.67-1.61-1.93-1.53-3.15.02-.34.1-.69.24-1.01.05-.12-.06-.27-.17-.31-.14-.04-.26.05-.31.17h0Z"/>
      <path class="st0" d="M33.36,19.82c.35.56.72,1.13.85,1.78,0,.04.01.07.02.11,0-.03,0,.06,0,.07,0,.07.01.15.01.22,0,.16,0,.26-.04.39-.06.27-.16.5-.34.69-.09.1-.1.26,0,.35s.26.1.35,0c.36-.39.53-.91.53-1.43,0-.56-.19-1.1-.45-1.59-.15-.29-.33-.56-.5-.84-.07-.11-.22-.16-.34-.09-.11.07-.16.23-.09.34h0Z"/>
      <path class="st0" d="M33.6,23.02s.03.06.04.09c.01.03.01.03,0,0,0,.02.01.03.02.05.02.06.05.12.07.19.04.13.07.25.1.38,0,.03.01.06.02.1,0,.02,0,.03,0,.05,0-.03,0-.02,0,0,0,.06.01.11.02.17,0,.13,0,.26,0,.39-.01.24-.05.45-.13.71-.02.06-.04.13-.06.19-.01.03-.02.06-.04.09.02-.04-.02.05-.02.05-.05.12-.12.24-.19.35s-.03.28.09.34.27.03.34-.09c.48-.77.62-1.72.43-2.6-.06-.25-.14-.49-.25-.72-.06-.12-.24-.16-.34-.09-.12.08-.15.22-.09.34h0Z"/>
    </g>
  </g>
</svg>