<?xml version="1.0" encoding="UTF-8"?>
<svg id="dog" xmlns="http://www.w3.org/2000/svg" version="1.1" viewBox="0 0 50.83 48.47">
  <!-- Generator: Adobe Illustrator 29.8.2, SVG Export Plug-In . SVG Version: 2.1.1 Build 3)  -->
  <defs>
    <style>
      .st0 {
        fill: #231f20;
      }

      .st1 {
        fill: #f9bdbe;
      }

      .st2 {
        fill: #f39b4a;
      }

      .st3 {
        fill: #5c564d;
      }
    </style>
  </defs>
  <g>
    <path class="st3" d="M19.56,29.13c.51-.88,1.37-1.56,2.34-1.86.59-.18,1.22-.22,1.84-.23.95-.01,1.92.05,2.8.4,1.97.77,3.24,3.03,2.87,5.12-.04.2-.08.41-.05.61.04.19.14.35.24.52.45.8.64,1.75.53,2.67.93-.18,1.74-.87,2.07-1.75.07-.18.14-.4.32-.47.12-.05.25-.03.37.03.48.25.46.94.32,1.46-.1.34-.22.68-.42.97-.45.66-1.26,1.01-2.06,1.04-.3.01-.62-.01-.88.12-.15.08-.28.2-.42.3-.45.32-1.07.39-1.58.17-.1-.04-.19-.09-.29-.11-.28-.03-.5.21-.74.36-.52.32-1.27.17-1.62-.33-.82.43-1.79.41-2.72.39-.48-.01-.95-.03-1.43-.04-.77-.02-1.6-.07-2.2-.55-.45-.37-.7-.93-.81-1.51-.11-.58-.1-1.19.04-1.76.23-.95.83-1.81.92-2.79s.04-1.86.57-2.76Z"/>
    <path class="st2" d="M21.78,37.2c-.51,0-.89-.16-.82.42.12,1.03,1.29,1.11,1.96.5.2-.19.59-.64.34-.88-.21-.21-1.19-.04-1.48-.04Z"/>
    <path class="st2" d="M25.87,37.2c-.51,0-.89-.16-.82.42.12,1.03,1.29,1.11,1.96.5.2-.19.59-.64.34-.88-.21-.21-1.19-.04-1.48-.04Z"/>
    <path class="st2" d="M23.67,34.83c0-.22.02-.45.03-.68,0-.05,0-.11-.02-.16,0,0-.01-.1,0-.04,0-.04-.01-.08-.02-.12-.03-.16-.06-.32-.11-.48-.02-.08-.05-.15-.08-.22,0,0-.01-.03-.02-.04-.01-.03-.03-.06-.05-.1-.05-.1-.11-.19-.17-.28-.01-.01-.02-.03-.03-.04-.03-.03-.05-.06-.08-.09-.04-.04-.09-.08-.13-.12-.01-.01-.01-.01-.02-.02,0,0,0,0-.01,0-.07-.04-.14-.09-.22-.14-.05-.03-.09-.05-.14-.07-.01,0-.01,0-.02-.01,0,0,0,0,0,0-.09-.03-.17-.06-.26-.08-.05-.01-.1-.02-.15-.03-.01,0-.05,0-.08-.01-.03,0-.07,0-.08,0-.04,0-.09,0-.13,0-.09,0-.18,0-.27.01,0,0,0,0,0,0,0,0,0,0-.01,0-.04,0-.08.02-.12.03-.08.02-.15.05-.23.07.02,0,.02,0,.03,0-.01,0-.02,0-.03.01-.03.02-.07.04-.1.06-.07.04-.09.08-.02,0-.02.03-.06.05-.08.07-.02.02-.03.03-.05.05,0,0-.01.01-.02.03-.02.03-.03.06-.05.09,0,0,0,.02,0,.03,0,.03-.01.08-.03.11,0,0,0,0,0,.01,0,.05,0,.1,0,.15,0,.02,0,.03,0,.05.02.09.04.19.07.28,0,.03.02.06.03.09,0,0,.01.02.02.04.01.02.04.07.04.07.02.02.02.03.03.04.02.02.04.04.06.06.03.03.07.06.1.09.01,0,.03.02.04.03.08.05.16.1.24.15.17.1.36.19.53.28.35.17.71.37.97.67.26.31.36.67.34,1.05.11,0,.22,0,.33.01.01-.21.02-.42.02-.63-.03-.07-.06-.15-.05-.25Z"/>
    <path class="st2" d="M26.61,32.03c-.12-.03-.08-.02-.18-.02-.09,0-.18,0-.27,0-.07,0-.06,0-.16.03-.32.07-.6.2-.77.43-.33.43-.4,1.03-.43,1.61.04.37.04.75.03,1.13.12-.23.27-.44.42-.62.27-.3.63-.51.98-.7.17-.09.33-.17.49-.27.14-.08.26-.16.32-.22.08-.08.12-.12.14-.15.02-.03.09-.18.06-.11.05-.15.06-.22.04-.4,0-.08-.06-.25-.06-.26,0-.02-.11-.19-.07-.14-.11-.15-.17-.18-.34-.26.07.03-.09-.03-.09-.03-.04-.01-.08-.02-.11-.03Z"/>
    <g>
      <path class="st0" d="M19.73,28.18c-1.36,1.85-1.55,4.47-.48,6.5.28.54.66,1.02.91,1.58.22.47.28,1,.44,1.49.15.46.39.9.83,1.13.48.26,1.06.19,1.51-.11,1.3-.86.96-2.66.87-3.98-.03-.48-.78-.48-.75,0,.04.6.1,1.2.1,1.8,0,.5-.08,1.04-.45,1.41-.26.25-.68.41-1,.17s-.4-.67-.49-1.02c-.12-.45-.22-.89-.42-1.32-.24-.5-.56-.94-.83-1.42-.47-.85-.68-1.81-.65-2.78.04-1.11.41-2.18,1.07-3.08.12-.16.03-.42-.13-.51-.19-.11-.39-.03-.51.13h0Z"/>
      <path class="st0" d="M18.64,32.43c-.46.48-.66,1.13-.78,1.77-.11.55-.17,1.12-.15,1.68.02.59.12,1.2.4,1.73s.7.84,1.24,1.04c.57.21,1.26.26,1.85.07.19-.06.32-.26.26-.46-.05-.19-.27-.33-.46-.26-.1.03-.2.06-.3.07.07-.01,0,0-.02,0-.03,0-.06,0-.09,0-.06,0-.12,0-.19,0-.06,0-.11,0-.17,0-.03,0-.06,0-.1,0,0,0-.07,0-.02,0-.13-.02-.26-.05-.38-.08-.23-.07-.35-.12-.57-.26-.01,0-.08-.05-.02-.01-.02-.01-.04-.03-.05-.04-.04-.03-.07-.07-.11-.11-.06-.06-.1-.12-.16-.23-.22-.38-.32-.88-.34-1.33-.01-.26-.01-.52,0-.78s.04-.42.08-.66c.1-.57.23-1.19.62-1.6.33-.35-.2-.88-.53-.53h0Z"/>
      <path class="st0" d="M27.94,28.55c1.15,1.57,1.42,3.76.58,5.53-.23.48-.53.91-.79,1.37s-.43.9-.55,1.4c-.15.6-.41,1.8-1.3,1.34-.5-.26-.68-.8-.71-1.33-.04-.69.05-1.39.09-2.07.03-.48-.72-.48-.75,0-.08,1.19-.4,2.77.55,3.72.38.38.92.61,1.46.51.5-.1.87-.48,1.07-.93s.28-.92.41-1.39c.17-.6.54-1.11.85-1.64.59-.99.92-2.11.91-3.27,0-1.29-.41-2.57-1.17-3.61-.12-.16-.32-.24-.51-.13-.16.09-.25.35-.13.51h0Z"/>
      <path class="st0" d="M29.46,34.02s.02.05.03.06c0,0-.04-.1-.02-.05,0,0,0,.02.01.03.02.05.04.1.05.14.03.09.06.19.08.29.03.11.05.22.07.33,0,.05.02.1.02.16.01.08-.01-.09,0,0,0,.03,0,.06.01.1.03.24.04.49.04.73,0,.12,0,.25-.02.37,0,.06,0,.12-.02.18,0,.03,0,.06-.01.09-.01.1.01-.08,0,.02-.04.23-.08.46-.16.68-.02.05-.04.1-.05.15,0,.01,0,.02-.01.03-.02.05.02-.04.02-.04-.01.03-.03.06-.04.09-.04.09-.09.18-.15.27-.01.02-.02.03-.04.05-.05.08.06-.07,0,0-.03.04-.06.07-.09.1s-.07.06-.1.09c-.03.03.09-.06,0,0-.02.01-.04.03-.06.04-.04.02-.08.04-.12.06-.05.02.1-.04.02,0-.02,0-.05.02-.07.02-.04.01-.09.02-.13.03-.04,0,.11,0,.01,0-.03,0-.06,0-.09,0-.06,0-.11,0-.17,0s.05,0,.05,0c-.02,0-.04,0-.05,0-.03,0-.07-.01-.1-.02-.07-.02-.14-.04-.2-.06-.03-.01-.07-.03-.1-.04.11.03,0,0-.04-.02-.18-.09-.37-.24-.58-.22-.12,0-.23.06-.32.15l-.06.08c.05-.06.07-.08.05-.06.04-.04.15-.08.23-.09h.08c.06.04.08.05.05.03-.02-.02-.05-.03-.07-.05-.16-.12-.43-.03-.51.13-.1.2-.03.39.13.51.19.14.47.17.63-.02.03-.03.13-.14.01-.01.02-.02.03-.02-.02.01-.08.05-.17.08-.26.06.05.01-.03-.02-.03-.02.01,0,.2.11.23.12.29.15.59.25.91.28.48.05.97-.15,1.29-.53.33-.39.51-.88.61-1.38.1-.53.13-1.08.09-1.62s-.14-1.11-.38-1.62c-.08-.18-.35-.24-.51-.13-.18.12-.22.32-.13.51h0Z"/>
      <path class="st0" d="M30.41,36.84c1.03-.32,1.83-1.17,2.15-2.19.09-.28.13-.58.14-.88l-.38.38s.09,0,.13,0c.08,0-.06-.01-.02,0,.02,0,.04,0,.06.01.02,0,.04.02.07.02l-.05-.02s.02.01.04.02c.03.02.07.05.1.07l-.04-.03s.02.02.03.03c.02.01.03.03.05.04s.03.03.04.05c.03.03.03.06,0,0,.02.04.05.07.07.11.01.02.02.04.03.06,0,.01.01.03.02.04-.02-.05-.03-.07-.02-.04.01.04.03.08.04.12,0,.03.01.05.02.08.02.1,0-.06,0,.02,0,.11.01.22,0,.33,0,.03,0,.05,0,.08,0,.02,0,.11,0,0,0,.05-.02.11-.03.16-.02.12-.05.23-.08.35-.04.19.06.42.26.46.19.04.41-.06.46-.26.13-.56.23-1.14,0-1.68-.2-.44-.68-.81-1.18-.75-.1.01-.19.03-.27.11s-.11.16-.11.27c0,.06,0,.11,0,.17,0,.03,0,.06,0,.08,0,.01,0,.03,0,.04,0,.07.01-.07,0-.03-.02.11-.04.22-.07.33s-.07.22-.11.33c0,0,.04-.09.01-.03,0,.01-.01.03-.02.04-.01.03-.02.05-.04.08-.02.05-.05.1-.08.15-.06.1-.12.2-.19.29-.01.02-.03.04-.04.06-.04.05.02-.02.02-.03,0,.01-.02.02-.03.03-.04.05-.08.09-.12.14-.08.09-.16.17-.25.24-.02.02-.04.04-.06.05-.01.01-.08.06-.03.02.05-.04-.03.02-.04.03-.03.02-.05.04-.08.05-.1.07-.21.13-.32.19-.03.02-.06.03-.09.04-.01,0-.03.01-.04.02.02-.01.08-.03.02,0-.06.02-.12.05-.19.07-.19.06-.33.26-.26.46s.26.32.46.26h0Z"/>
      <path class="st0" d="M30.21,38.15c.66-.02,1.31-.21,1.87-.55.17-.1.34-.22.49-.35.07-.06.11-.18.11-.27,0-.09-.04-.2-.11-.27s-.17-.11-.27-.11c-.11,0-.18.04-.27.11-.02.02-.05.04-.07.06l.08-.06c-.25.19-.51.34-.8.47l.09-.04c-.28.12-.58.2-.88.24h.1c-.12,0-.23.01-.35.02-.2,0-.38.17-.38.38s.16.38.38.38h0Z"/>
    </g>
  </g>
  <g>
    <g>
      <g>
        <path class="st3" d="M9.61,11.28c.03,1.62.36,3.24.96,4.74s1.06,3.35,2.45,4.36c.32.24.67.43,1.02.64.08.05.16.09.21.16.07.08.1.19.12.29.24.93.59,1.95.69,2.9.16,1.51-.65,2.75.1,4.23.35.68,1.45,1.16,2.15,1.42.58.21,1.21.27,1.83.31,1.75.13,3.5.19,5.25.18.86,0,1.71,0,2.57-.05.65-.03,1.27-.22,1.92-.29.75-.08,1.5-.19,2.19-.49s1.3-.84,1.55-1.55c.36-1.04-.12-2.16-.14-3.26-.01-.67.07-1.17.36-1.75.07-.14.52-1.83.42-1.81,1.57-.26,2.77-1.71,3.39-3.06,1.26-2.73,2.05-5.67,1.53-8.68-.11-.65-.36-1.38-.98-1.62-.37-.14-.79-.07-1.18.02-1.76.39-3.5,1.01-4.99,2.02-.91.62-1.72,1.39-2.35,2.29-.42.6-.43,1.5-.9,2.06-.42.49-1.18.29-1.74.21-.63-.09-1.25-.19-1.88-.21-.55-.02-1.09-.02-1.64,0-.76.03-1.37.11-2.12-.04-.36-.07-.26.04-.48-.26-.12-.17-.2-.41-.3-.6-.19-.34-.41-.66-.63-.97-.48-.66-1.02-1.28-1.61-1.84-1.2-1.13-2.64-1.99-4.23-2.43-1.21-.34-2.69-.62-3.26.81-.18.45-.23.94-.25,1.43-.01.28-.02.57-.01.85Z"/>
        <path class="st2" d="M32.35,25.37c-.12-.12-.3-.2-.47-.15-.11.03-.21.1-.3.17-1.62,1.19-3.32.77-4.84-.32-.83-.59-1.87-.86-2.88-.81-.84.04-1.91.18-2.56.74-.72.62-1.45,1.17-2.46,1.18-1.11.01-2.66-1.09-3.72-.54-.72.37-.25,2.39.04,2.96.35.68,1.45,1.16,2.15,1.42.58.21,1.21.27,1.83.31,1.75.13,3.5.19,5.25.18.86,0,1.71,0,2.57-.05.65-.03,1.27-.22,1.92-.29.75-.08,1.5-.19,2.19-.49.69-.31,1.3-.84,1.55-1.55.22-.63.11-1.28.02-1.92-.04-.27-.08-.62-.28-.84Z"/>
        <path class="st1" d="M17.21,13.31c-.91-1.11-1.91-2.19-3.14-2.94-.52-.32-1.07-.52-1.63-.73-.42-.16-.97-.52-1.43-.26-.5.29-.67,1.3-.74,1.81-.17,1.33-.1,2.53.15,3.85.03.15,0,.27-.06.38.07.2.13.41.21.6.6,1.51,1.06,3.35,2.45,4.36.32.23.66.43,1.01.63.19-1.31.71-2.56,1.53-3.66.5-.68,1.17-1.19,1.73-1.82.28-.32.57-.66.51-1.11-.06-.41-.34-.8-.59-1.11Z"/>
        <path class="st1" d="M38.03,12.45c-.09-.68-.14-1.42-.41-2.06-.66-1.54-2.38-.73-3.47-.21-.29.14-.58.29-.87.45-.49.48-1.04.89-1.58,1.3-.38.43-.74.88-1.09,1.33-.47.6-.99,1.27-1.08,2.05.08.07.17.12.24.19,1.11.66,2.04,1.52,2.66,2.7.48.9.9,1.99.95,3.07,1.49-.33,2.64-1.72,3.24-3.02.7-1.51,1.24-3.09,1.5-4.71-.03-.37-.06-.73-.11-1.1Z"/>
      </g>
      <g>
        <path class="st0" d="M16.3,16.12c-2.15,1.56-2.7,4.34-2.09,6.82.16.66.53,1.33.53,2.02,0,.65-.35,1.26-.4,1.91-.09,1.15.63,2.19,1.53,2.83,1.19.85,2.74.96,4.14,1.07.48.04.48-.71,0-.75-1.15-.08-2.38-.16-3.41-.74-.84-.47-1.58-1.35-1.51-2.36.04-.58.31-1.11.38-1.69.07-.62-.13-1.19-.33-1.77-.39-1.18-.56-2.46-.31-3.69s.87-2.28,1.85-3c.39-.28.01-.93-.38-.65h0Z"/>
        <path class="st0" d="M30.83,16.77c1.93,1.41,2.29,4.02,1.69,6.2-.17.61-.44,1.19-.49,1.83-.04.58.18,1.12.32,1.67.26,1.03-.25,1.99-1.08,2.6-1.08.78-2.49.87-3.77.96-.48.04-.48.79,0,.75,1.29-.09,2.64-.2,3.79-.84.97-.54,1.76-1.51,1.88-2.65.06-.62-.17-1.19-.32-1.79-.18-.74.1-1.35.31-2.05.4-1.31.52-2.73.19-4.06s-1.06-2.47-2.15-3.25c-.39-.28-.77.37-.38.65h0Z"/>
        <path class="st0" d="M17.76,15.49c3.78-1.14,7.87-1,11.56.39.45.17.65-.55.2-.72-3.81-1.43-8.06-1.57-11.96-.39-.46.14-.26.86.2.72h0Z"/>
        <path class="st0" d="M28.34,13.96c1.27-2.55,3.6-4.52,6.33-5.36.39-.12.79-.22,1.19-.29.18-.03.36-.06.54-.08.2-.02.42-.07.6.04.41.26.79-.39.38-.65-.38-.24-.83-.17-1.25-.11-.38.05-.76.12-1.14.22-.76.19-1.5.47-2.2.81-1.38.68-2.64,1.65-3.64,2.83-.57.68-1.07,1.41-1.46,2.21-.21.43.43.81.65.38h0Z"/>
        <path class="st0" d="M37.69,9.43c.79,3.11.09,6.5-1.75,9.11-.52.74-1.14,1.41-1.83,1.99-.37.31.16.84.53.53,2.59-2.2,4.09-5.57,4.12-8.95,0-.97-.11-1.94-.35-2.88-.12-.47-.84-.27-.72.2h0Z"/>
        <path class="st0" d="M30.19,14.84c.96-1.8,2.33-3.26,4.14-4.21.52-.28,1.02-.48,1.59-.67.19-.06.32-.26.26-.46-.05-.19-.27-.33-.46-.26-1.03.34-2.02.82-2.91,1.45s-1.63,1.37-2.28,2.23c-.37.49-.7,1.01-.99,1.55-.1.18-.05.41.13.51.17.1.42.04.51-.13h0Z"/>
        <path class="st0" d="M20.13,13.49c-1.06-2.13-2.84-3.89-4.96-4.96-1.06-.54-2.2-.92-3.38-1.09-.49-.07-.97-.13-1.42.13-.34.19-.57.52-.72.87-.37.84-.38,1.8-.38,2.7,0,.48.75.48.75,0,0-.69,0-1.4.2-2.08.09-.3.22-.61.47-.8.24-.18.58-.14.91-.1,2.13.3,4.15,1.3,5.71,2.77.9.84,1.63,1.83,2.18,2.93.21.43.86.05.65-.38h0Z"/>
        <path class="st0" d="M9.37,12.94c.27,2.42,1.03,4.8,2.55,6.73.37.48.8.91,1.26,1.3.15.13.38.15.53,0,.13-.13.16-.4,0-.53-1.65-1.4-2.68-3.37-3.22-5.45-.17-.68-.3-1.36-.37-2.06-.02-.2-.16-.38-.38-.38-.19,0-.4.17-.38.38h0Z"/>
        <path class="st0" d="M17.64,13.47c-.5-.78-1.08-1.51-1.76-2.13s-1.5-1.18-2.36-1.59c-.55-.27-1.12-.49-1.7-.69-.19-.06-.41.07-.46.26-.06.2.07.4.26.46,1.75.58,3.31,1.5,4.52,2.9.31.37.58.73.85,1.16.11.17.33.24.51.13.17-.1.24-.34.13-.51h0Z"/>
      </g>
    </g>
    <g>
      <circle class="st0" cx="19.11" cy="24.92" r="1.01"/>
      <circle class="st0" cx="28.36" cy="24.92" r="1.01"/>
      <ellipse class="st0" cx="23.73" cy="25.78" rx="1.96" ry="1.22"/>
    </g>
    <g>
      <ellipse class="st2" cx="19.54" cy="22.13" rx=".94" ry="1.3" transform="translate(-8.22 32.19) rotate(-68.47)"/>
      <ellipse class="st2" cx="27.93" cy="22.09" rx="1.3" ry=".94" transform="translate(-6.16 11.79) rotate(-21.53)"/>
    </g>
  </g>
</svg>