<?xml version="1.0" encoding="UTF-8"?>
<svg id="dog" xmlns="http://www.w3.org/2000/svg" version="1.1" viewBox="0 0 50.83 48.47">
  <!-- Generator: Adobe Illustrator 29.8.2, SVG Export Plug-In . SVG Version: 2.1.1 Build 3)  -->
  <defs>
    <style>
      .st0 {
        fill: #231f20;
      }

      .st1 {
        fill: #fff;
      }

      .st2 {
        fill: #f39b4a;
      }
    </style>
  </defs>
  <g>
    <path class="st1" d="M33.12,32.15c-.17-.56-.38-1.12-.63-1.68-.15-.34-.35-1.03-.66-1.25-1.08-1.64-2.91-2.78-4.86-3-2.02-.23-4.12.5-5.56,1.93-2.51,2.5-4.47,11.26,1.33,10.97l.41-.44c.19.31.49.53.98.6,1.74.24,2.15-.84,2.25-2.14.1,1.29.51,2.37,2.25,2.14,1.08-.15,2.26-.21,3.27-.68.94-.44,1.85-1.05,2.07-2.13.28-1.37-.45-3.02-.85-4.33Z"/>
    <g>
      <path class="st0" d="M22.51,35.69c0,.63-.08,1.26-.05,1.89.04.68.23,1.37.81,1.78.32.23.73.3,1.11.32.36.02.73-.01,1.06-.15s.59-.35.8-.64c.18-.25.29-.54.36-.84.18-.73.17-1.5.16-2.24,0-.2-.17-.38-.38-.38s-.38.16-.38.38c0,.32,0,.64,0,.95,0,.16-.01.31-.03.47,0,.07-.01.14-.02.22,0,.03-.02.1,0-.02,0,.02,0,.04,0,.06,0,.04-.01.08-.02.11-.02.14-.06.28-.1.41-.02.06-.04.12-.06.18-.03.09.04-.08,0,0-.02.04-.03.07-.05.11-.03.05-.06.11-.09.16-.02.02-.03.04-.05.07-.04.05.06-.07.02-.02-.01.02-.03.03-.04.05-.04.04-.08.09-.13.13-.01,0-.02.02-.03.03-.03.03.08-.06.03-.02-.03.02-.06.04-.1.07-.05.03-.12.05-.17.09.05-.04.08-.03.04-.02-.02,0-.03.01-.05.02-.04.01-.08.03-.12.04-.07.02-.14.03-.21.04,0,0,.1-.01.04,0-.02,0-.04,0-.06,0-.05,0-.1,0-.14,0-.08,0-.17,0-.25,0-.05,0-.1,0-.15-.01-.03,0-.05,0-.08,0-.09-.01.08.01,0,0s-.15-.03-.23-.05c-.04-.01-.08-.03-.11-.04-.07-.02.08.04.02,0-.02,0-.03-.02-.05-.02-.06-.03-.11-.07-.17-.1s.07.06.02.02c-.01-.01-.03-.02-.04-.03-.03-.02-.05-.05-.07-.07-.02-.02-.04-.06-.07-.08.06.04.05.07.03.04,0-.01-.02-.03-.03-.04-.04-.06-.07-.12-.1-.18,0-.02-.01-.03-.02-.05-.03-.06.03.09.01.03,0-.03-.02-.05-.03-.08-.02-.07-.04-.14-.06-.21-.02-.07-.03-.13-.04-.2,0-.02,0-.04,0-.06.02.11,0,.06,0,.03,0-.04,0-.08-.01-.13-.06-.67.04-1.34.04-2.01,0-.2-.17-.38-.38-.38s-.37.16-.38.38h0Z"/>
      <path class="st0" d="M32.26,29.18c-1.32-2.09-3.69-3.43-6.17-3.38-2.15.04-4.33,1.08-5.58,2.86-.84,1.21-1.38,2.67-1.68,4.1s-.42,3.02.11,4.41c.27.7.7,1.32,1.33,1.74.72.48,1.61.62,2.47.59.48-.02.48-.77,0-.75-1.26.06-2.4-.37-2.97-1.54s-.51-2.55-.31-3.76c.22-1.35.66-2.68,1.35-3.86.9-1.55,2.45-2.57,4.21-2.91,2.55-.5,5.21.71,6.59,2.9.26.41.91.03.65-.38h0Z"/>
      <path class="st0" d="M29.5,35.69c0,.6.08,1.19.05,1.79,0,.07,0,.14-.01.22,0,.04,0,.07-.01.11,0,.02,0,.03,0,.05.01-.13,0-.03,0,0-.02.14-.05.28-.1.41,0,.03-.02.05-.03.08-.02.07.04-.09.01-.03,0,.02-.01.03-.02.05-.03.06-.06.12-.1.18,0,.01-.02.02-.02.03-.02.04-.04.02.02-.03-.02.02-.04.05-.07.08-.02.02-.04.04-.06.06-.01.01-.03.02-.04.03-.07.06.06-.04,0,0-.06.04-.11.07-.17.1-.03.02-.13.04-.01,0-.04.01-.09.03-.13.05-.08.02-.15.04-.23.05-.03,0-.04.02.03,0-.02,0-.06,0-.08,0-.06,0-.11.01-.17.01-.08,0-.17,0-.25,0-.04,0-.09,0-.13,0-.04,0-.17-.03-.05,0-.07-.02-.14-.02-.21-.04-.04,0-.07-.02-.11-.03-.02,0-.03-.01-.05-.02-.04-.02-.04-.04.02.01-.04-.04-.12-.06-.17-.09-.03-.02-.06-.04-.08-.06-.01,0-.06-.04,0,0s0,0-.01-.01c-.05-.04-.09-.08-.13-.13-.03-.03-.08-.12-.01-.01-.02-.03-.04-.05-.06-.08-.03-.05-.06-.1-.09-.16-.02-.03-.03-.06-.04-.09,0-.01,0-.02-.01-.03-.03-.06.04.1,0,0-.05-.13-.09-.26-.12-.39-.02-.08-.03-.16-.05-.24,0-.04-.01-.08-.02-.11-.01-.07.01.1,0,.02,0-.02,0-.05,0-.07-.02-.17-.03-.34-.04-.51-.02-.36-.01-.72-.01-1.08,0-.2-.17-.38-.38-.38s-.37.16-.38.38c0,.68,0,1.37.12,2.04.12.61.4,1.22.95,1.55.31.19.68.26,1.03.28.41.01.84-.04,1.21-.22.66-.31.91-1.01.98-1.68s-.03-1.4-.03-2.11c0-.2-.17-.38-.38-.38s-.38.16-.38.38h0Z"/>
      <path class="st0" d="M31.6,29.51c.14.08.22.3.29.44.09.2.15.4.23.6.13.32.27.64.39.97.27.73.5,1.47.66,2.23.26,1.24.42,2.82-.36,3.83-.49.63-1.28.89-2.06.95-.48.04-.48.79,0,.75.87-.07,1.73-.32,2.38-.94.54-.52.83-1.23.94-1.96.24-1.64-.21-3.36-.77-4.89-.15-.4-.33-.82-.48-1.21-.2-.49-.35-1.13-.84-1.42-.42-.25-.79.4-.38.65h0Z"/>
    </g>
  </g>
  <g>
    <path class="st2" d="M14.99,9.93c-1.44,1.23-3.3,3.29-3.21,5.32.01.29.08.61.31.79s.66.08.69-.21c-.04.35-1.02,2.4-.06,2.23.57-.1,1.14-1.32,1.41-1.77-.27,1.05-.32,2.15-.14,3.22.08.5.49.5.9.28-.26.53-.5,1.12-.68,1.68-.27.86.92.06,1.19-.04-.48.9-1.08,1.71-1.42,2.69-.39,1.13-.83,2.7-.42,3.86.03.09.08.19.17.21.06.01.12-.01.17-.04.12-.06,1.53-1.01,1.51-.39,0,.28-.36.69-.47.97-.2.48-.37,1.08-.32,1.6,0,.09.02.19.08.26.12.15.37.1.53,0,1.55-.95,3.1-1.57,4.92-1.06,1.08.3,2.08.83,3.17,1.1,1.63.41,3.36.5,5.02.19.69-.13,1.25-.44,1.89-.63.93-.28,1.94-.05,2.89-.15,1.07-.12,2.24,0,3.25.4.24.1.5.21.75.13.55-.19.04-1.88,0-2.34.27.32.78.42,1.13.19.95-.62-.11-2.4-.61-2.95.36.54.97-.51.96-.8s-.12-.58-.24-.85c-.35-.78-.74-1.53-1.18-2.27.16.22.55.04.62-.22.1-.42-.37-1.34-.49-1.76.13.19.46.12.58-.08s.1-.45.07-.68c-.13-1.07-.41-2.03-.69-3.06.27.33,1.67,2.36,2.08,1.86.12-.15.15-.35.16-.54.02-.57-.09-1.14-.32-1.66.09.16.36.09.44-.07s.05-.36,0-.53c-.11-.49-.22-.98-.33-1.47-.08-.34-.15-.68-.3-.99-.1-.22-.23-.42-.37-.62-.53-.8-.92-1.48-1.78-1.97-.91-.51-2.03-.71-3.01-.37-2.01.69-2.73,2.96-3.34,4.76-1.1-.19-2.28-.26-3.41-.33-1.71-.11-3.44-.1-5.12.27-.22.05-.46.1-.66-.01-.44-.25-.6-.93-.86-1.33-.53-.81-1.18-1.53-1.95-2.12-.63-.49-1.37-.91-2.17-.97s-1.67.29-2.04,1"/>
    <path class="st1" d="M30.35,30.19c1.78-.45,2.83-3.1,1.42-4.43-1.08-1.02-2.79-.94-3.98-1.77-1.2-.84-1.3-2.24-.83-3.54.41-1.15,1.12-2.18,1.51-3.34.35-1.03.44-2.09.33-3.15-.57-.05-1.14-.09-1.7-.12-1.19-.08-2.4-.08-3.59.04-.35.98-.25,2.08,0,3.08.26,1.07.81,1.99,1.19,3.01.63,1.7-.05,3.22-1.61,4.05-.61.33-1.27.58-1.87.92s-1.18.78-1.52,1.39c-.41.72-.34,1.52,0,2.25.61,1.3,2.35,1.77,3.63,2.1,1.63.41,3.36.5,5.02.19.69-.13,1.25-.44,1.89-.63.04-.01.08-.01.12-.02Z"/>
    <g>
      <g>
        <g>
          <circle class="st0" cx="20.6" cy="23.53" r=".96"/>
          <circle class="st0" cx="30.58" cy="23.53" r=".96"/>
          <ellipse class="st0" cx="25.59" cy="24.75" rx="1.86" ry="1.15"/>
        </g>
        <g>
          <path class="st0" d="M19.84,15.62c1.86-1.11,4-1.55,6.15-1.55,1.09,0,2.18.1,3.25.29.95.16,2.16.28,2.88,1,.34.34.87-.19.53-.53-.62-.61-1.46-.84-2.29-1.01-.89-.19-1.79-.33-2.7-.41-1.81-.17-3.67-.08-5.42.4-.98.27-1.92.66-2.78,1.18-.41.25-.04.9.38.65h0Z"/>
          <path class="st0" d="M15.64,27.19c-.87.83-1.37,2.13-1.26,3.33.02.18.05.37.19.5.18.17.41.17.64.12.33-.07.65-.22.95-.38.29-.15.57-.3.87-.42.32-.12.64-.21.97-.28.7-.14,1.45-.13,2.15.01.2.04.41-.06.46-.26.05-.19-.06-.42-.26-.46-1.27-.26-2.6-.13-3.79.38-.29.12-.56.27-.84.42-.12.06-.25.13-.37.17-.07.03-.13.05-.2.07-.04.01-.08.02-.12.03-.02,0-.1.03-.09.01l.1.07c.09.09.11.1.09.03-.02.05,0,0,0-.03,0-.06,0-.12-.01-.18,0-.14,0-.27.01-.41,0-.08.01-.11.02-.15,0-.06.02-.11.03-.17.03-.14.06-.28.1-.41.17-.55.46-1.06.89-1.46.15-.14.14-.39,0-.53s-.38-.14-.53,0h0Z"/>
          <path class="st0" d="M16.83,17.25c-1.34,1.33-2.66,2.81-3.07,4.71-.06.27.17.55.46.46.83-.24,1.57-.7,2.13-1.36l-.53-.53c-1.17,1.42-2.06,3.1-2.54,4.89-.12.43-.2.87-.26,1.32-.05.4-.14.86,0,1.25.16.44.61.64,1.04.48s.84-.61,1.2-.92-.17-.84-.53-.53c-.18.16-.36.31-.55.47-.09.08-.26.28-.4.29-.08,0-.02.03-.06-.01s-.03-.13-.04-.18c-.01-.17.01-.34.03-.51.07-.72.25-1.43.48-2.12.47-1.4,1.2-2.74,2.14-3.88.3-.37-.22-.9-.53-.53-.48.56-1.09.96-1.8,1.17l.46.46c.38-1.78,1.63-3.14,2.88-4.38.34-.34-.19-.87-.53-.53h0Z"/>
          <path class="st0" d="M21.69,14.02c-.54-.95-1.18-1.83-1.92-2.63-.36-.38-.74-.75-1.13-1.09s-.82-.67-1.31-.88c-2.08-.89-3.88,1.23-4.81,2.83-.58,1.01-.97,2.12-1.14,3.27-.03.2.05.4.26.46.18.05.43-.06.46-.26.27-1.81,1.09-3.57,2.41-4.85.64-.62,1.47-1.12,2.38-.82.42.14.78.42,1.12.7.37.31.72.64,1.05.98.77.8,1.42,1.7,1.97,2.66.24.42.89.04.65-.38h0Z"/>
          <path class="st0" d="M13.86,13.64c-1.21,1.33-1.87,3.13-1.78,4.93,0,.17.11.32.28.36s.32-.04.42-.17c.75-1.01,1.51-2.02,2.26-3.03l-.65-.38c-.59,1.38-.83,2.88-.67,4.38.02.2.16.38.38.38.19,0,.4-.17.38-.38-.15-1.35.03-2.74.57-4,.08-.19.06-.4-.13-.51s-.39-.03-.51.13c-.75,1.01-1.51,2.02-2.26,3.03l.7.19c-.08-1.6.48-3.2,1.56-4.4.14-.15.15-.38,0-.53-.14-.14-.39-.15-.53,0h0Z"/>
          <path class="st0" d="M19.44,26.23c-.56.9-.37,2.06.2,2.91.65.96,1.7,1.48,2.81,1.72.66.15,1.34.21,2.01.27.2.02.38-.19.38-.38,0-.22-.17-.36-.38-.38-.56-.05-1.03-.1-1.56-.2-.26-.05-.51-.11-.77-.19-.12-.04-.25-.08-.37-.13-.03-.01-.06-.02-.09-.04-.07-.03.08.04-.04-.02-.07-.03-.14-.06-.21-.1-.1-.05-.21-.11-.31-.17-.06-.03-.11-.07-.16-.11-.03-.02-.05-.04-.08-.06-.06-.05.04.03-.03-.02-.17-.14-.32-.3-.46-.47.05.06-.05-.06-.06-.08-.03-.05-.06-.09-.09-.14-.06-.1-.12-.21-.17-.32,0-.02-.02-.04-.03-.06-.04-.1.01.04,0-.02-.02-.05-.04-.09-.05-.14-.04-.11-.07-.23-.09-.34,0-.02,0-.04-.01-.06,0-.02,0-.04-.01-.06,0,.05,0,.05,0,0,0-.05,0-.1-.01-.16,0-.06,0-.13,0-.19,0-.03,0-.05,0-.08,0-.02.02-.13,0-.04.02-.11.05-.22.08-.33,0-.02.02-.05.03-.07.01-.03,0-.02,0,.02,0-.02.02-.04.03-.06.03-.06.06-.11.09-.17.1-.17.04-.42-.13-.51s-.4-.04-.51.13h0Z"/>
          <path class="st0" d="M31.76,26.23c.04.07.09.15.12.22.01.02.06.13.03.05.02.04.03.08.05.12.06.16.1.33.13.5,0,.06,0-.06,0,0,0,.02,0,.03,0,.05,0,.04,0,.08,0,.13,0,.09,0,.18,0,.27,0,.04,0,.08,0,.13,0,.02,0,.04,0,.06,0,.01-.01.08,0,.03,0-.05,0,0,0,.01,0,.02,0,.04-.01.06,0,.05-.02.1-.03.15-.02.08-.04.15-.07.23-.01.04-.03.08-.04.12s0-.01,0-.02c-.01.03-.03.06-.04.09-.07.15-.16.3-.26.43.05-.06-.03.04-.04.05-.03.03-.06.07-.09.1-.06.06-.12.13-.19.18-.03.03-.07.06-.1.09-.06.05-.01.01,0,0-.02.01-.04.03-.05.04-.08.05-.16.11-.24.15-.09.05-.17.1-.26.14-.05.02-.09.04-.14.06.01,0,.06-.03,0,0-.03.01-.05.02-.08.03-.19.07-.39.13-.59.17s-.32.28-.26.46c.07.2.26.31.46.26.79-.17,1.58-.56,2.1-1.19s.78-1.44.7-2.25c-.05-.47-.18-.92-.43-1.32-.1-.17-.34-.25-.51-.13s-.24.33-.13.51h0Z"/>
          <path class="st0" d="M30.97,13.76c.36-.82.73-1.65,1.24-2.39.22-.32.48-.63.8-.91.07-.06.15-.13.22-.19-.05.04,0,0,.01,0,.02-.01.04-.03.06-.04.05-.04.1-.07.15-.1.17-.11.35-.21.54-.3.02,0,.04-.02.07-.03-.05.02,0,0,.03,0,.05-.02.1-.04.15-.06.11-.04.22-.07.33-.09.06-.01.12-.02.17-.03,0,0,.08-.01.04,0s.05,0,.06,0c.12-.01.24-.02.36-.01.2,0,.38-.18.38-.38s-.16-.37-.38-.38c-.92-.02-1.79.36-2.5.93s-1.26,1.37-1.69,2.18c-.25.47-.46.96-.68,1.45-.08.18-.06.41.13.51.16.09.43.06.51-.13h0Z"/>
          <path class="st0" d="M37.87,13.53c.67,1.34,1.44,2.87,1.1,4.41l.26-.26s.05.01.07.01c.03,0-.02-.02-.01,0,0,0-.03-.04-.06-.09-.07-.12-.1-.23-.17-.37-.13-.29-.28-.57-.45-.85-.34-.55-.75-1.07-1.2-1.54-.26-.27-.74,0-.63.36.42,1.38.79,2.8.85,4.25,0,.2.17.38.38.38s.38-.17.38-.38c-.06-1.51-.43-3-.87-4.44l-.63.36c.48.5.9,1.06,1.24,1.66.16.29.27.6.43.89.17.33.49.6.88.49.12-.03.23-.14.26-.26.39-1.76-.4-3.45-1.18-4.99-.09-.18-.35-.23-.51-.13-.18.11-.23.33-.13.51h0Z"/>
          <path class="st0" d="M35.29,17.17c1.05,1.42,2.09,2.93,2.45,4.69l.26-.46s-.12,0-.13,0c-.09-.01-.18-.04-.26-.07-.16-.06-.31-.14-.46-.22-.3-.16-.62-.35-.97-.36-.31-.01-.52.43-.27.64,1.11.9,2.21,2.08,2.32,3.58.02.2.16.38.38.38.19,0,.39-.17.38-.38-.13-1.71-1.26-3.07-2.54-4.11l-.27.64c.1,0-.07-.02.03,0,.04,0,.07.02.11.03.04.02.09.04.16.07.18.09.35.18.53.27.38.18.77.32,1.19.25.21-.04.3-.28.26-.46-.37-1.82-1.44-3.39-2.53-4.87-.12-.16-.33-.24-.51-.13-.16.09-.26.35-.13.51h0Z"/>
          <path class="st0" d="M36.64,25.03c.15.11.34.31.49.48.17.19.31.41.44.62.24.42.46.92.5,1.37.01.11.01.23,0,.34,0,.05,0,.05,0,.01,0,.02,0,.04-.01.07,0,.03-.02.14-.01.05,0,.02-.02.03-.03.04.03-.04.04-.05.01-.02-.06.08.03-.02-.02.01-.04.02-.03.02.03,0-.01,0-.03.01-.05.01-.02,0-.03,0-.05.01.06,0,.07,0,.02,0-.08,0-.15,0-.23,0-.02,0-.04,0-.06,0,.05,0,.05,0,0,0-.04,0-.09-.01-.13-.02-.19-.04-.37-.08-.55-.11-.32-.06-.59.25-.42.55.22.41.35.86.41,1.32.03.25.04.49.04.74,0,.03,0,.06,0,.08,0,.06-.02.03,0,.02,0,0,.12-.17.16-.12-.01-.02-.1-.03-.12-.04.01,0,.04.02-.02,0-.05-.02-.09-.04-.14-.06-.97-.42-2.01-.58-3.07-.57-.59,0-1.17.06-1.76.13-.2.02-.38.15-.38.38,0,.18.17.4.38.38,1.12-.14,2.27-.22,3.38.01.28.06.56.14.83.23.24.09.48.23.74.28.33.05.65-.1.72-.44.06-.27.02-.59,0-.86-.05-.65-.21-1.28-.52-1.86l-.42.55c.6.11,1.51.44,1.89-.25.22-.4.14-.92.04-1.34-.12-.49-.34-.96-.6-1.39-.3-.48-.67-.9-1.12-1.24-.16-.12-.42-.03-.51.13-.11.19-.03.39.13.51h0Z"/>
        </g>
      </g>
      <path class="st0" d="M36.21,9.93c.79.4,1.41,1.11,1.9,1.83s.85,1.44,1.02,2.29c.09.48.11.99.09,1.51,0,.2.18.38.38.38.21,0,.37-.17.38-.38.04-.95-.08-1.9-.45-2.78s-.93-1.73-1.59-2.44c-.39-.42-.84-.8-1.35-1.06-.18-.09-.41-.05-.51.13-.1.17-.05.42.13.51h0Z"/>
    </g>
  </g>
</svg>