<?xml version="1.0" encoding="UTF-8"?>
<svg id="dog" xmlns="http://www.w3.org/2000/svg" version="1.1" viewBox="0 0 50.83 48.47">
  <!-- Generator: Adobe Illustrator 29.8.2, SVG Export Plug-In . SVG Version: 2.1.1 Build 3)  -->
  <defs>
    <style>
      .st0 {
        fill: #231f20;
      }

      .st1 {
        fill: #8e887c;
      }

      .st2 {
        fill: #f39b4a;
      }
    </style>
  </defs>
  <g>
    <path class="st1" d="M21.46,29.37c.51-.88,1.37-1.56,2.34-1.86.59-.18,1.22-.22,1.84-.23.95-.01,1.92.05,2.8.4,1.97.77,3.24,3.03,2.87,5.12-.04.2-.08.41-.05.61.04.19.14.35.24.52.45.8.64,1.75.53,2.67.93-.18,1.74-.87,2.07-1.75.07-.18.14-.4.32-.47.12-.05.25-.03.37.03.48.25.46.94.32,1.46-.1.34-.22.68-.42.97-.45.66-1.26,1.01-2.06,1.04-.3.01-.62-.01-.88.12-.15.08-.28.2-.42.3-.45.32-1.07.39-1.58.17-.1-.04-.19-.09-.29-.11-.28-.03-.5.21-.74.36-.52.32-1.27.17-1.62-.33-.82.43-1.79.41-2.72.39-.48-.01-.95-.03-1.43-.04-.77-.02-1.6-.07-2.2-.55-.45-.37-.7-.93-.81-1.51-.11-.58-.1-1.19.04-1.76.23-.95.83-1.81.92-2.79s.04-1.86.57-2.76Z"/>
    <path class="st2" d="M23.68,37.43c-.51,0-.89-.16-.82.42.12,1.03,1.29,1.11,1.96.5.2-.19.59-.64.34-.88-.21-.21-1.19-.04-1.48-.04Z"/>
    <path class="st2" d="M27.77,37.43c-.51,0-.89-.16-.82.42.12,1.03,1.29,1.11,1.96.5.2-.19.59-.64.34-.88-.21-.21-1.19-.04-1.48-.04Z"/>
    <path class="st2" d="M25.57,35.07c0-.22.02-.45.03-.68,0-.05,0-.11-.02-.16,0,0-.01-.1,0-.04,0-.04-.01-.08-.02-.12-.03-.16-.06-.32-.11-.48-.02-.08-.05-.15-.08-.22,0,0-.01-.03-.02-.04-.01-.03-.03-.06-.05-.1-.05-.1-.11-.19-.17-.28-.01-.01-.02-.03-.03-.04-.03-.03-.05-.06-.08-.09-.04-.04-.09-.08-.13-.12-.01-.01-.01-.01-.02-.02,0,0,0,0-.01,0-.07-.04-.14-.09-.22-.14-.05-.03-.09-.05-.14-.07-.01,0-.01,0-.02-.01,0,0,0,0,0,0-.09-.03-.17-.06-.26-.08-.05-.01-.1-.02-.15-.03-.01,0-.05,0-.08-.01-.03,0-.07,0-.08,0-.04,0-.09,0-.13,0-.09,0-.18,0-.27.01,0,0,0,0,0,0,0,0,0,0-.01,0-.04,0-.08.02-.12.03-.08.02-.15.05-.23.07.02,0,.02,0,.03,0-.01,0-.02,0-.03.01-.03.02-.07.04-.1.06-.07.04-.09.08-.02,0-.02.03-.06.05-.08.07-.02.02-.03.03-.05.05,0,0-.01.01-.02.03-.02.03-.03.06-.05.09,0,0,0,.02,0,.03,0,.03-.01.08-.03.11,0,0,0,0,0,.01,0,.05,0,.1,0,.15,0,.02,0,.03,0,.05.02.09.04.19.07.28,0,.03.02.06.03.09,0,0,.01.02.02.04.01.02.04.07.04.07.02.02.02.03.03.04.02.02.04.04.06.06.03.03.07.06.1.09.01,0,.03.02.04.03.08.05.16.1.24.15.17.1.36.19.53.28.35.17.71.37.97.67.26.31.36.67.34,1.05.11,0,.22,0,.33.01.01-.21.02-.42.02-.63-.03-.07-.06-.15-.05-.25Z"/>
    <path class="st2" d="M28.51,32.26c-.12-.03-.08-.02-.18-.02-.09,0-.18,0-.27,0-.07,0-.06,0-.16.03-.32.07-.6.2-.77.43-.33.43-.4,1.03-.43,1.61.04.37.04.75.03,1.13.12-.23.27-.44.42-.62.27-.3.63-.51.98-.7.17-.09.33-.17.49-.27.14-.08.26-.16.32-.22.08-.08.12-.12.14-.15.02-.03.09-.18.06-.11.05-.15.06-.22.04-.4,0-.08-.06-.25-.06-.26,0-.02-.11-.19-.07-.14-.11-.15-.17-.18-.34-.26.07.03-.09-.03-.09-.03-.04-.01-.08-.02-.11-.03Z"/>
    <g>
      <path class="st0" d="M21.63,28.41c-1.36,1.85-1.55,4.47-.48,6.5.28.54.66,1.02.91,1.58.22.47.28,1,.44,1.49.15.46.39.9.83,1.13.48.26,1.06.19,1.51-.11,1.3-.86.96-2.66.87-3.98-.03-.48-.78-.48-.75,0,.04.6.1,1.2.1,1.8,0,.5-.08,1.04-.45,1.41-.26.25-.68.41-1,.17s-.4-.67-.49-1.02c-.12-.45-.22-.89-.42-1.32-.24-.5-.56-.94-.83-1.42-.47-.85-.68-1.81-.65-2.78.04-1.11.41-2.18,1.07-3.08.12-.16.03-.42-.13-.51-.19-.11-.39-.03-.51.13h0Z"/>
      <path class="st0" d="M20.54,32.66c-.46.48-.66,1.13-.78,1.77-.11.55-.17,1.12-.15,1.68.02.59.12,1.2.4,1.73s.7.84,1.24,1.04c.57.21,1.26.26,1.85.07.19-.06.32-.26.26-.46-.05-.19-.27-.33-.46-.26-.1.03-.2.06-.3.07.07-.01,0,0-.02,0-.03,0-.06,0-.09,0-.06,0-.12,0-.19,0-.06,0-.11,0-.17,0-.03,0-.06,0-.1,0,0,0-.07,0-.02,0-.13-.02-.26-.05-.38-.08-.23-.07-.35-.12-.57-.26-.01,0-.08-.05-.02-.01-.02-.01-.04-.03-.05-.04-.04-.03-.07-.07-.11-.11-.06-.06-.1-.12-.16-.23-.22-.38-.32-.88-.34-1.33-.01-.26-.01-.52,0-.78s.04-.42.08-.66c.1-.57.23-1.19.62-1.6.33-.35-.2-.88-.53-.53h0Z"/>
      <path class="st0" d="M29.84,28.79c1.15,1.57,1.42,3.76.58,5.53-.23.48-.53.91-.79,1.37s-.43.9-.55,1.4c-.15.6-.41,1.8-1.3,1.34-.5-.26-.68-.8-.71-1.33-.04-.69.05-1.39.09-2.07.03-.48-.72-.48-.75,0-.08,1.19-.4,2.77.55,3.72.38.38.92.61,1.46.51.5-.1.87-.48,1.07-.93s.28-.92.41-1.39c.17-.6.54-1.11.85-1.64.59-.99.92-2.11.91-3.27,0-1.29-.41-2.57-1.17-3.61-.12-.16-.32-.24-.51-.13-.16.09-.25.35-.13.51h0Z"/>
      <path class="st0" d="M31.36,34.25s.02.05.03.06c0,0-.04-.1-.02-.05,0,0,0,.02.01.03.02.05.04.1.05.14.03.09.06.19.08.29.03.11.05.22.07.33,0,.05.02.1.02.16.01.08-.01-.09,0,0,0,.03,0,.06.01.1.03.24.04.49.04.73,0,.12,0,.25-.02.37,0,.06,0,.12-.02.18,0,.03,0,.06-.01.09-.01.1.01-.08,0,.02-.04.23-.08.46-.16.68-.02.05-.04.1-.05.15,0,.01,0,.02-.01.03-.02.05.02-.04.02-.04-.01.03-.03.06-.04.09-.04.09-.09.18-.15.27-.01.02-.02.03-.04.05-.05.08.06-.07,0,0-.03.04-.06.07-.09.1s-.07.06-.1.09c-.03.03.09-.06,0,0-.02.01-.04.03-.06.04-.04.02-.08.04-.12.06-.05.02.1-.04.02,0-.02,0-.05.02-.07.02-.04.01-.09.02-.13.03-.04,0,.11,0,.01,0-.03,0-.06,0-.09,0-.06,0-.11,0-.17,0s.05,0,.05,0c-.02,0-.04,0-.05,0-.03,0-.07-.01-.1-.02-.07-.02-.14-.04-.2-.06-.03-.01-.07-.03-.1-.04.11.03,0,0-.04-.02-.18-.09-.37-.24-.58-.22-.12,0-.23.06-.32.15l-.06.08c.05-.06.07-.08.05-.06.04-.04.15-.08.23-.09h.08c.06.04.08.05.05.03-.02-.02-.05-.03-.07-.05-.16-.12-.43-.03-.51.13-.1.2-.03.39.13.51.19.14.47.17.63-.02.03-.03.13-.14.01-.01.02-.02.03-.02-.02.01-.08.05-.17.08-.26.06.05.01-.03-.02-.03-.02.01,0,.2.11.23.12.29.15.59.25.91.28.48.05.97-.15,1.29-.53.33-.39.51-.88.61-1.38.1-.53.13-1.08.09-1.62s-.14-1.11-.38-1.62c-.08-.18-.35-.24-.51-.13-.18.12-.22.32-.13.51h0Z"/>
      <path class="st0" d="M32.31,37.08c1.03-.32,1.83-1.17,2.15-2.19.09-.28.13-.58.14-.88l-.38.38s.09,0,.13,0c.08,0-.06-.01-.02,0,.02,0,.04,0,.06.01.02,0,.04.02.07.02l-.05-.02s.02.01.04.02c.03.02.07.05.1.07l-.04-.03s.02.02.03.03c.02.01.03.03.05.04s.03.03.04.05c.03.03.03.06,0,0,.02.04.05.07.07.11.01.02.02.04.03.06,0,.01.01.03.02.04-.02-.05-.03-.07-.02-.04.01.04.03.08.04.12,0,.03.01.05.02.08.02.1,0-.06,0,.02,0,.11.01.22,0,.33,0,.03,0,.05,0,.08,0,.02,0,.11,0,0,0,.05-.02.11-.03.16-.02.12-.05.23-.08.35-.04.19.06.42.26.46.19.04.41-.06.46-.26.13-.56.23-1.14,0-1.68-.2-.44-.68-.81-1.18-.75-.1.01-.19.03-.27.11s-.11.16-.11.27c0,.06,0,.11,0,.17,0,.03,0,.06,0,.08,0,.01,0,.03,0,.04,0,.07.01-.07,0-.03-.02.11-.04.22-.07.33s-.07.22-.11.33c0,0,.04-.09.01-.03,0,.01-.01.03-.02.04-.01.03-.02.05-.04.08-.02.05-.05.1-.08.15-.06.1-.12.2-.19.29-.01.02-.03.04-.04.06-.04.05.02-.02.02-.03,0,.01-.02.02-.03.03-.04.05-.08.09-.12.14-.08.09-.16.17-.25.24-.02.02-.04.04-.06.05-.01.01-.08.06-.03.02.05-.04-.03.02-.04.03-.03.02-.05.04-.08.05-.1.07-.21.13-.32.19-.03.02-.06.03-.09.04-.01,0-.03.01-.04.02.02-.01.08-.03.02,0-.06.02-.12.05-.19.07-.19.06-.33.26-.26.46s.26.32.46.26h0Z"/>
      <path class="st0" d="M32.12,38.38c.66-.02,1.31-.21,1.87-.55.17-.1.34-.22.49-.35.07-.06.11-.18.11-.27,0-.09-.04-.2-.11-.27s-.17-.11-.27-.11c-.11,0-.18.04-.27.11-.02.02-.05.04-.07.06l.08-.06c-.25.19-.51.34-.8.47l.09-.04c-.28.12-.58.2-.88.24h.1c-.12,0-.23.01-.35.02-.2,0-.38.17-.38.38s.16.38.38.38h0Z"/>
    </g>
  </g>
  <g>
    <g>
      <path class="st1" d="M17.43,13.82c-.2.51-.41,1.04-.37,1.58.04.63.64,1.75,1.31,1.94.06.02.11.03.16.05.21.13.1.45-.03.65-1.15,1.78-1.53,4.26-.63,6.23.49,1.08,1.33,1.96,2.07,2.9.58.74,1.11,1.54,1.8,2.19s1.58,1.15,2.52,1.14c.5,0,.99-.16,1.48-.2.82-.08,1.61.14,2.42.14,1.29,0,2.26-.63,3.04-1.59.84-1.04,1.64-2.11,2.4-3.21,1.76-2.55,2.43-5.85,0-8.27-.06-.06-.14-.14-.14-.23,0-.08.04-.16.08-.23.62-1.02,1.24-1.75,1.21-3.03-.02-.92-.3-1.82-.58-2.71-.33-1.05-.67-2.12-1.26-3.05.01.02-1.62,2.54-1.75,2.82-.24.52-.45,1.07-.62,1.62-.11.34-.16,1.31-.38,1.55-.39.42-2.96-.1-3.67-.11-1.28-.01-2.56.06-3.83.21-.31-.78-1.83-5.5-2.96-5.3-.54.09-.92,1.52-1.08,1.93-.32.79-1.18,2.13-1.18,2.97Z"/>
      <path class="st2" d="M18.37,17.35c.06.02.11.03.16.05.07.04.1.11.11.18.13-.15.26-.31.39-.46.27-.32.54-.67.7-1.06.19-.5.08-.99-.04-1.49-.45-1.84-.21-3.7-.14-5.57-.46.29-.79,1.49-.94,1.86-.32.79-1.18,2.13-1.18,2.97-.2.51-.41,1.04-.37,1.58.04.63.64,1.75,1.31,1.94Z"/>
      <path class="st2" d="M30.56,29.05c.04-.1.07-.2.1-.31.28-.98.38-2.27-.26-3.14-.71-.96-1.97-1.13-3.08-1.18-2.05-.08-4.6-.44-5.46,1.93-.65,1.79.15,4.18,2.39,4.15.5,0,.99-.16,1.48-.2.82-.08,1.61.14,2.42.14,1.16,0,2-.41,2.4-1.4Z"/>
      <path class="st2" d="M32.65,11.03c-.04,1.24.32,2.43.27,3.66-.01.37-.1.79-.04,1.16.08.42.37.77.67,1.06.61-1.01,1.23-1.74,1.2-3.01-.02-.92-.3-1.82-.58-2.71-.28-.91-.58-1.82-1.04-2.65-.28.8-.46,1.63-.49,2.49Z"/>
      <g>
        <g>
          <circle class="st0" cx="22.29" cy="23.47" r=".95"/>
          <circle class="st0" cx="30.32" cy="23.55" r=".95"/>
          <ellipse class="st0" cx="26.31" cy="26.4" rx="1.84" ry="1.14"/>
        </g>
        <path class="st0" d="M20.85,15.23c1.57-.52,3.2-.81,4.86-.84.82-.01,1.65.03,2.47.14s1.67.35,2.52.31c.48-.02.48-.77,0-.75-.87.04-1.74-.22-2.6-.33s-1.65-.15-2.48-.13c-1.69.04-3.37.33-4.97.86-.46.15-.26.88.2.72h0Z"/>
        <path class="st0" d="M32.62,7.75c-1.23,1.88-2.2,3.92-2.88,6.06-.06.19.07.41.26.46.2.06.4-.07.46-.26.67-2.08,1.62-4.05,2.81-5.88.11-.17.03-.41-.13-.51-.18-.11-.4-.04-.51.13h0Z"/>
        <path class="st0" d="M32.78,7.86c-.28,1.27-.71,2.55-.61,3.87.05.67.29,1.29.38,1.95.09.62.08,1.27-.03,1.89-.03.2.05.4.26.46.18.05.43-.06.46-.26.11-.65.14-1.31.07-1.97-.04-.33-.09-.66-.17-.99s-.17-.62-.21-.94c-.14-1.3.29-2.56.57-3.81.11-.47-.62-.67-.72-.2h0Z"/>
        <path class="st0" d="M32.6,8.04c.29,1.13.81,2.18,1.25,3.26.38.94.76,1.99.6,3.03-.1.64-.39,1.22-.8,1.71-.13.16-.15.38,0,.53.13.13.4.16.53,0,.41-.5.75-1.06.92-1.69.15-.55.16-1.12.09-1.68-.16-1.19-.7-2.3-1.16-3.4-.27-.64-.52-1.29-.7-1.97-.12-.47-.84-.27-.72.2h0Z"/>
        <path class="st0" d="M19.14,8.13c1.19,1.83,2.14,3.8,2.81,5.88.06.19.26.32.46.26.19-.05.32-.27.26-.46-.68-2.14-1.66-4.18-2.88-6.06-.11-.17-.33-.24-.51-.13-.17.1-.25.34-.13.51h0Z"/>
        <path class="st0" d="M18.91,8.06c.31,1.39.4,2.77.26,4.19-.04.36-.08.7-.06,1.06s.09.72.16,1.07c.12.63.27,1.29.06,1.92-.15.46.57.66.72.2.23-.69.11-1.42-.02-2.11-.06-.34-.13-.67-.16-1.01-.03-.38.02-.75.05-1.13.15-1.49.04-2.93-.29-4.39-.1-.47-.83-.27-.72.2h0Z"/>
        <path class="st0" d="M18.91,8.15c-.23,1.29-.8,2.48-1.29,3.68-.25.62-.49,1.25-.66,1.9-.18.69-.34,1.42-.21,2.14.12.64.53,1.25,1.13,1.53.18.09.4.05.51-.13.09-.16.05-.43-.13-.51-.64-.3-.84-.97-.8-1.64.05-.81.33-1.63.61-2.38.54-1.45,1.3-2.85,1.57-4.38.04-.2-.05-.4-.26-.46-.18-.05-.43.06-.46.26h0Z"/>
        <path class="st0" d="M18.94,16.56c-.58,1.1-1.43,2.04-1.81,3.24s-.23,2.51.1,3.67c.16.59.39,1.16.68,1.69.33.59.75,1.14,1.14,1.69.78,1.08,1.59,2.31,2.73,3.05,1.05.68,2.31.78,3.52.91.48.05.48-.7,0-.75-.96-.1-1.99-.17-2.86-.64-1.06-.57-1.8-1.66-2.5-2.61s-1.48-1.98-1.88-3.16c-.35-1.04-.54-2.23-.3-3.32.28-1.28,1.23-2.26,1.82-3.39.22-.43-.42-.81-.65-.38h0Z"/>
        <path class="st0" d="M32.06,15.81c.79,1.01,1.55,2.06,2.14,3.21.24.48.46.98.55,1.51.1.58.07,1.2-.01,1.78-.19,1.26-.69,2.36-1.42,3.4-.82,1.17-1.65,2.43-2.73,3.39-.91.81-1.97.98-3.14,1.03-.48.02-.48.77,0,.75,1.13-.05,2.24-.18,3.18-.86,1.2-.86,2.09-2.17,2.93-3.36.42-.59.86-1.17,1.18-1.83.29-.62.52-1.27.65-1.94.25-1.24.24-2.49-.26-3.67-.61-1.44-1.58-2.72-2.53-3.95-.3-.38-.82.15-.53.53h0Z"/>
      </g>
    </g>
    <path class="st2" d="M23.84,20.33c.17.77-.29,1.34-1.27.79-.61-.34-1.27-.35-1.27-.79s.57-.79,1.27-.79,1.17.37,1.27.79Z"/>
    <path class="st2" d="M28.18,20.33c-.17.77.29,1.34,1.27.79.61-.34,1.27-.35,1.27-.79,0-.44-.57-.79-1.27-.79s-1.17.37-1.27.79Z"/>
  </g>
</svg>