<?xml version="1.0" encoding="UTF-8"?>
<svg id="dog" xmlns="http://www.w3.org/2000/svg" version="1.1" viewBox="0 0 50.83 48.47">
  <!-- Generator: Adobe Illustrator 29.8.2, SVG Export Plug-In . SVG Version: 2.1.1 Build 3)  -->
  <defs>
    <style>
      .st0 {
        fill: #231f20;
      }

      .st1 {
        fill: #fff;
      }

      .st2 {
        fill: #888;
      }

      .st3 {
        fill: #eec688;
      }
    </style>
  </defs>
  <g>
    <g>
      <path class="st3" d="M34.09,31.88c-.24-.76-.55-1.5-.83-2.15-.15-.34-.35-1.03-.66-1.25-1.08-1.64-2.91-2.78-4.86-3-2.02-.23-4.12.5-5.56,1.93-1.7,1.7-2.51,4.65-2.45,6.99.03,1.11.28,2.33,1.12,3.13.41.39.92.64,1.47.76.34.07.65.05.99.06.78.02,1.55.31,2.33.21.39-.05.71-.23,1.1-.27.45-.05.91-.13,1.33.05.26.11.41.29.72.37.32.09.65.12.98.09.45-.03.9-.16,1.29-.38.42-.23.78-.31,1.24-.47,2.78-.98,2.57-3.64,1.79-6.07Z"/>
      <g>
        <path class="st2" d="M34.09,31.88c-.24-.76-.55-1.5-.83-2.15-.21-.48-.79-2.23-1.32-.8-.18.5-.09,1.06-.22,1.58-.14.55-.52,1.01-.95,1.36s-.93.64-1.4.96c-.36.25-.71.53-.9.93-.29.63.19,1.24.23,1.89.03.6,0,1.17-.29,1.71-.16.31-.42.66-.73.88.13.02.26.04.39.1.26.11.41.29.72.37.32.09.65.12.98.09.45-.03.9-.16,1.29-.38.42-.23.78-.31,1.24-.47,2.78-.98,2.57-3.64,1.79-6.07Z"/>
        <path class="st2" d="M25.77,36.72c-.19-.79.15-1.45,0-2.17-.15-.65-.77-1.21-1.3-1.57-.83-.58-1.56-.91-2.12-1.77-.27-.42-1.41-2.1-1.08-2.62-1.08,1.7-1.59,3.96-1.55,5.83.03,1.11.28,2.33,1.12,3.13.41.39.92.64,1.47.76.34.07.65.05.99.06.78.02,1.55.31,2.33.21.36-.05.66-.19,1.02-.25-.54-.3-.74-1.04-.88-1.59Z"/>
      </g>
      <g>
        <path class="st0" d="M33.03,28.44c-1.32-2.09-3.69-3.43-6.17-3.38-2.15.04-4.33,1.08-5.58,2.86-.84,1.21-1.38,2.67-1.68,4.1s-.42,3.02.11,4.41c.27.7.7,1.32,1.33,1.74.72.48,1.61.62,2.47.59.48-.02.48-.77,0-.75-1.26.06-2.4-.37-2.97-1.54s-.51-2.55-.31-3.76c.22-1.35.66-2.68,1.35-3.86.9-1.55,2.45-2.57,4.21-2.91,2.55-.5,5.21.71,6.59,2.9.26.41.91.03.65-.38h0Z"/>
        <path class="st0" d="M32.37,28.77c.14.08.22.3.29.44.09.2.15.4.23.6.13.32.27.64.39.97.27.73.5,1.47.66,2.23.26,1.24.42,2.82-.36,3.83-.49.63-1.28.89-2.06.95-.48.04-.48.79,0,.75.87-.07,1.73-.32,2.38-.94.54-.52.83-1.23.94-1.96.24-1.64-.21-3.36-.77-4.89-.15-.4-.33-.82-.48-1.21-.2-.49-.35-1.13-.84-1.42-.42-.25-.79.4-.38.65h0Z"/>
      </g>
    </g>
    <g>
      <path class="st0" d="M21.59,33.47c-.02.94.08,1.88.3,2.79.1.44.23.87.4,1.29s.38.81.77,1.07.83.29,1.26.35.91.1,1.33-.05.75-.44.91-.85c.08-.19.09-.42.04-.62-.05-.22-.18-.38-.3-.56-.06-.09-.11-.18-.16-.27,0-.02-.02-.04-.03-.05-.03-.05,0,0-.02-.04-.02-.05-.04-.1-.05-.15-.03-.1-.06-.2-.08-.3s-.02-.12-.03-.25c-.02-.41.07-.76.26-1.1.1-.18.04-.41-.13-.51s-.41-.04-.51.13c-.38.66-.47,1.47-.25,2.2.06.19.13.37.23.54.09.16.2.29.29.44.01.02.03.05.04.07,0,0-.01-.04,0,0,0,.02,0,.03.01.05,0,0,0-.06,0-.01,0,.04,0,.08,0,.12,0-.07-.01.03-.02.05,0,.02-.01.03-.02.05,0,0,.02-.05,0,0s-.04.07-.06.11c-.03.05.01,0-.03.04-.03.04-.07.07-.1.1-.05.04.01,0-.04.03-.03.02-.06.04-.09.05-.04.02-.02.01-.08.03-.05.02-.1.03-.15.04-.16.03-.36.03-.55.02-.1,0-.2-.02-.3-.03-.05,0-.09-.01-.14-.02-.03,0-.05,0-.08-.01.04,0-.01,0-.02,0-.18-.03-.37-.06-.55-.12-.02,0-.04-.01-.06-.02,0,0,.03.02,0,0s-.07-.04-.11-.06c-.08-.05-.1-.07-.18-.15-.1-.1-.19-.27-.26-.43.01.03-.02-.05-.03-.06-.02-.05-.04-.09-.05-.14-.04-.11-.08-.21-.11-.32-.06-.2-.12-.4-.18-.6-.25-.93-.35-1.86-.33-2.83,0-.2-.18-.38-.38-.38s-.37.17-.38.38h0Z"/>
      <path class="st0" d="M31.99,33.63c.02.85-.06,1.68-.25,2.5-.1.41-.22.82-.36,1.22-.03.07-.07.18-.09.23-.02.05-.08.16-.12.23-.05.09-.07.11-.12.17-.07.08-.11.11-.17.15-.03.02-.07.04-.11.06-.05.03,0,0-.06.03-.09.03-.18.06-.28.08-.09.02-.18.03-.27.05-.02,0-.04,0-.06,0,.05,0-.02,0-.02,0-.05,0-.1.01-.15.02-.2.02-.41.04-.61.04-.09,0-.17,0-.24-.02-.04,0-.09-.02-.13-.03-.02,0-.04-.01-.06-.02l-.04-.02s.02,0,0,0c-.03-.02-.06-.03-.09-.05-.02,0-.03-.02-.05-.03,0,0,.04.03,0,0s-.06-.06-.09-.09c-.01-.01-.02-.03-.04-.04-.04-.04.03.04,0,0-.02-.03-.04-.07-.07-.11-.03-.05,0,.02-.02-.04,0-.03-.02-.07-.03-.1.02.07,0-.04,0-.07,0-.07,0,.03,0-.04,0,0,.02-.06,0-.02,0-.02.02-.04.03-.06.05-.09.11-.16.17-.24.1-.15.19-.31.26-.47.34-.8.29-1.73-.14-2.48-.1-.18-.34-.24-.51-.13s-.24.34-.13.51c.02.04.04.08.07.12,0,.01.06.12.04.07.04.09.07.18.09.28.02.08.04.16.05.25,0-.06,0,0,0,.02,0,.03,0,.05,0,.08,0,.05,0,.1,0,.16,0,.21,0,.3-.05.48-.02.09-.05.18-.08.26-.04.1-.04.11-.09.21-.09.17-.21.31-.31.48-.11.19-.18.41-.16.63.04.43.3.8.66,1.03.39.24.89.27,1.33.23.41-.04.86-.07,1.25-.22.43-.17.75-.47.95-.88s.34-.86.46-1.3c.28-1.01.41-2.07.39-3.12,0-.2-.17-.38-.38-.38s-.38.17-.38.38h0Z"/>
    </g>
    <path class="st0" d="M26.08,38.71c.09-.01.17-.03.26-.04h-.1c.65-.07,1.31-.1,1.96-.07.2,0,.38-.18.38-.38,0-.21-.16-.36-.38-.38-.78-.04-1.55.01-2.32.13-.09.01-.18.1-.22.17-.05.08-.07.2-.04.29s.09.18.17.22c.09.05.18.05.29.04h0Z"/>
  </g>
  <g>
    <g>
      <path class="st2" d="M15.59,15.51c.07-1.48.52-3,1.34-4.24.3-.46.88-1.39,1.49-1.34s1.38,1.2,1.69,1.65c.27.4.53,1.42.95,1.67.52.3,1.12-.1,1.66-.24.8-.21,1.62-.32,2.44-.2.41.06.82.18,1.23.22.41.03.82-.01,1.23-.04,1.69-.09,3.41.31,4.89,1.12.21-1.08.62-2.11,1.22-3.03.54-.84,1.63-1.38,2.35-.6.84.9,1.52,2.89,1.75,4.08.12.61.1,1.06-.13,1.64-.05.12-.81,1.41-.89,1.27.67,1.12.93,2.47.73,3.76-.05.34-.14.67-.12,1.01.04.66.55,1.35.66,2.05.16,1,.13,2.03-.21,2.98-.5,1.39-2.23,3.18-3.89,2.7-.28-.08-.56-.22-.85-.23-.5,0-1.02.65-1.55.78-.76.19-1.58-.25-2.14-.73-.67.72-1.64,1.16-2.62,1.14-.3,0-2.43-.79-2.37-.84-.65.53-1.53.77-2.36.63s-1.23-.79-1.94-1.02c-.53-.17-1.12.04-1.67-.04-1.3-.21-2.32-1.3-2.69-2.53-.4-1.34-.15-2.8.32-4.13.09-.25.19-.51.19-.79,0-.2-.06-.39-.11-.59-.21-.89-.16-1.83.14-2.69.26-.76.86-1.28.04-1.88-.46-.34-.8-.96-.77-1.54Z"/>
      <path class="st3" d="M17.45,16.76c1.43-1.8,1.65-3.55.96-5.75-.64-2.02-1.77.89-2.14,1.69-.67,1.48-1.04,3.15.05,4.53.46.58.86-.13,1.13-.47Z"/>
      <path class="st3" d="M37.02,17.9c-.07-.15-.13-.3-.21-.44.08.14.84-1.15.89-1.27.23-.59.25-1.03.13-1.64-.23-1.19-.91-3.18-1.75-4.08-.13-.14-.28-.22-.43-.28-.03.03-.07.06-.11.1-.62.66-.77,1.45-.76,2.34.02,1.18.34,2.3.8,3.37.42.66.94,1.28,1.42,1.91Z"/>
      <path class="st3" d="M37.16,26.58c-1.09.94-2.58,1.23-3.81.38-1.22-.85-1.99-2.22-3.38-2.84-.09.03-.18.04-.29.01-2.09-.5-4.12-.93-6.09.2-.83.48-1.4,1.09-2.01,1.82-.44.52-.93,1.01-1.58,1.24-1.42.51-3.38-.33-4.25-1.49-.05-.07-.11-.15-.16-.24,0,.5.04.99.18,1.47.37,1.23,1.39,2.32,2.69,2.53.55.09,1.14-.13,1.67.04.71.23,1.12.89,1.94,1.02.83.13,1.71-.1,2.36-.63-.06.05,2.07.83,2.37.84.98.02,1.96-.43,2.62-1.14.56.48,1.38.92,2.14.73.53-.13,1.05-.79,1.55-.78.3,0,.57.15.85.23,1.66.48,3.39-1.31,3.89-2.7.23-.64.31-1.31.3-1.98-.27.48-.59.94-1,1.29Z"/>
      <ellipse class="st1" cx="21.22" cy="19.86" rx=".96" ry="1.43" transform="translate(-4.07 34.19) rotate(-72.64)"/>
      <ellipse class="st1" cx="31.27" cy="19.73" rx="1.43" ry=".96" transform="translate(-4.46 10.23) rotate(-17.36)"/>
    </g>
    <g>
      <g>
        <circle class="st0" cx="21.33" cy="23.71" r=".98"/>
        <circle class="st0" cx="32.16" cy="23.32" r=".98"/>
        <ellipse class="st0" cx="26.68" cy="25.57" rx="1.95" ry="1.14"/>
      </g>
      <path class="st0" d="M19.99,14.68c1.36-.99,3.13-1.52,4.81-1.4.43.03.85.15,1.28.19.5.05.98-.09,1.47-.16.91-.13,1.82-.06,2.7.19.99.28,1.91.75,2.84,1.18.43.2.82-.44.38-.65-1.72-.81-3.45-1.65-5.4-1.53-.52.03-1.03.17-1.54.21-.49.04-.96-.11-1.45-.17-.9-.11-1.83,0-2.7.21-.98.25-1.94.66-2.75,1.26-.39.28-.01.93.38.65h0Z"/>
      <path class="st0" d="M19.3,27.57c-.18,1.59.99,3.25,2.58,3.55s3.15-.64,4.14-1.83c.56-.67,1-1.47,1.18-2.33l-.69.09c1.05,1.43,2.13,3.44,4.06,3.74.96.15,1.97-.13,2.68-.8s1.08-1.7.96-2.67c-.06-.47-.81-.48-.75,0,.21,1.72-1.35,3.17-3.06,2.67-.75-.22-1.34-.81-1.83-1.39-.51-.61-.94-1.28-1.42-1.92-.17-.23-.62-.26-.69.09-.31,1.59-1.66,3.14-3.24,3.57-.79.22-1.63.08-2.26-.46-.67-.57-1.03-1.42-.93-2.3.05-.48-.7-.48-.75,0h0Z"/>
      <path class="st0" d="M24.38,30.38c1.07,1.06,2.77,1.25,4.11.63.37-.17.71-.41.98-.71.14-.14.15-.39,0-.53s-.39-.15-.53,0c-.05.06-.11.11-.16.16-.03.03-.06.05-.09.08-.01,0-.02.02-.04.03-.07.06.04-.02,0,0-.13.08-.26.17-.4.25-.04.02-.07.04-.11.05-.02.01-.13.06-.05.02-.08.03-.15.06-.23.08-.15.05-.3.09-.46.12-.04,0-.07.01-.11.02-.07.01,0,0,0,0-.02,0-.04,0-.06,0-.08,0-.16.01-.24.02-.16,0-.32,0-.47-.02-.03,0-.11-.01-.04,0-.04,0-.08-.01-.12-.02-.08-.01-.16-.03-.24-.05-.07-.02-.15-.04-.22-.06-.03-.01-.07-.02-.1-.03-.02,0-.04-.01-.06-.02,0,0-.09-.04-.04-.02.05.02-.01,0-.02-.01-.02-.01-.05-.02-.07-.03-.04-.02-.08-.04-.12-.06-.08-.04-.15-.08-.22-.13-.04-.02-.08-.05-.11-.08-.01,0-.02-.02-.04-.03-.08-.06.06.05-.02-.02-.07-.06-.14-.12-.2-.18-.14-.14-.39-.15-.53,0s-.15.38,0,.53h0Z"/>
      <path class="st0" d="M15.61,22.5c-.67,2.35-1.05,5.72,1.46,7.15.75.43,1.61.58,2.47.46.2-.03.31-.28.26-.46-.06-.22-.26-.29-.46-.26-1.2.16-2.44-.47-3.01-1.53-.54-.99-.53-2.23-.38-3.33.08-.62.23-1.23.4-1.83.13-.47-.59-.66-.72-.2h0Z"/>
      <path class="st0" d="M37.23,22.55c.31,1.22.49,2.44.36,3.71-.02.25-.07.52-.14.81-.07.27-.16.54-.26.74-.06.12-.12.23-.18.34-.04.06-.07.11-.11.17-.06.08-.04.06-.1.13-.17.2-.38.4-.55.51-.58.4-1.24.55-1.95.58-.48.02-.48.77,0,.75.73-.03,1.46-.17,2.1-.54.54-.31.98-.76,1.29-1.3.65-1.13.74-2.52.64-3.79-.06-.78-.2-1.55-.39-2.31-.12-.47-.84-.27-.72.2h0Z"/>
      <path class="st0" d="M22.74,25.38c1.7-1.55,4.36-1.77,6.48-1.08.61.2,1.18.49,1.7.86.26.19.51-.24.25-.43-1.97-1.44-4.84-1.69-7.07-.77-.63.26-1.21.61-1.71,1.07-.24.22.12.57.35.35h0Z"/>
      <path class="st0" d="M23.44,17.13c.53-.09,1.1-.11,1.63.04.46.13.86.41,1.34.44.55.04,1.06-.26,1.56-.44.58-.21,1.13-.16,1.73-.08.13.02.25-.13.25-.25,0-.15-.12-.23-.25-.25-.6-.07-1.19-.13-1.78.07-.49.17-1.01.52-1.54.45-.21-.03-.42-.12-.61-.21-.24-.1-.47-.2-.72-.26-.57-.12-1.16-.09-1.74,0-.13.02-.21.19-.17.31.04.14.17.2.31.17h0Z"/>
      <path class="st0" d="M16.44,16.6c-.43-.48-.52-1.2-.4-1.81.14-.78.51-1.5.84-2.21.18-.38.35-.77.53-1.15.14-.3.29-.63.58-.82s.51-.15.76.05c.27.23.52.49.74.77.5.61.86,1.33,1.07,2.09.13.46.86.27.72-.2-.23-.8-.6-1.56-1.11-2.22-.26-.34-.55-.67-.88-.95-.36-.32-.77-.5-1.26-.38-.92.23-1.26,1.24-1.61,2.01-.39.85-.85,1.71-1.06,2.62s-.11,1.98.56,2.72c.32.36.85-.17.53-.53h0Z"/>
      <path class="st0" d="M18.16,11.88c.05.15.09.3.13.45.01.07.03.13.04.2,0,.04.01.08.02.12-.01-.1,0,.03,0,.05.03.29.03.59,0,.88,0,.04,0,.08-.01.12.02-.1,0,.03,0,.05-.01.07-.02.13-.04.2-.03.14-.07.29-.11.42-.02.07-.05.15-.08.22-.01.04-.03.07-.04.11.04-.09,0,0,0,.02-.06.14-.14.28-.22.42-.1.17-.04.42.13.51s.41.05.51-.13c.67-1.14.83-2.57.41-3.82-.06-.19-.26-.33-.46-.26-.18.06-.33.26-.26.46h0Z"/>
      <path class="st0" d="M17.48,16.34c-1.25,1.36-1.9,3.25-1.75,5.1.04.53.14,1.04.31,1.54.06.19.26.32.46.26.19-.05.33-.27.26-.46-.52-1.56-.36-3.32.43-4.77.23-.41.5-.8.81-1.14.14-.15.15-.38,0-.53-.14-.14-.39-.15-.53,0h0Z"/>
      <path class="st0" d="M37.71,17.13c.58-.64.74-1.52.62-2.36-.13-.93-.58-1.79-.97-2.63-.2-.43-.38-.87-.6-1.29-.19-.37-.46-.74-.84-.94-.43-.23-.93-.24-1.34.04-.34.23-.64.55-.91.87-.62.73-1.07,1.58-1.34,2.51-.13.47.59.66.72.2.2-.69.51-1.33.93-1.91.2-.27.43-.53.68-.76.22-.21.44-.44.76-.34s.5.39.65.67c.19.36.35.74.51,1.1.33.72.71,1.44.91,2.21.18.7.18,1.54-.34,2.11-.32.36.21.89.53.53h0Z"/>
      <path class="st0" d="M34.73,11.68c-.42,1.25-.27,2.69.41,3.82.1.17.34.24.51.13s.24-.33.13-.51c-.08-.13-.15-.27-.22-.42,0-.02-.05-.1,0-.02-.02-.04-.03-.07-.04-.11-.03-.07-.05-.15-.08-.22-.04-.14-.08-.28-.11-.42-.01-.07-.03-.13-.04-.2,0-.02-.03-.15,0-.05,0-.04,0-.08-.01-.12-.03-.29-.03-.59,0-.88,0-.02.02-.15,0-.05,0-.04.01-.08.02-.12.01-.07.02-.13.04-.2.03-.15.08-.3.13-.45.06-.19-.07-.42-.26-.46-.21-.05-.39.06-.46.26h0Z"/>
      <path class="st0" d="M35.61,16.87c1.13,1.22,1.66,2.9,1.53,4.54-.04.46-.14.92-.29,1.37-.06.19.07.41.26.46.2.06.4-.07.46-.26.59-1.76.37-3.75-.52-5.37-.25-.46-.56-.89-.92-1.27-.14-.15-.39-.14-.53,0-.15.15-.14.38,0,.53h0Z"/>
    </g>
  </g>
</svg>