<?xml version="1.0" encoding="UTF-8"?>
<svg id="_얼굴없는" data-name="얼굴없는" xmlns="http://www.w3.org/2000/svg" version="1.1" viewBox="0 0 50.83 48.47">
  <!-- Generator: Adobe Illustrator 29.8.2, SVG Export Plug-In . SVG Version: 2.1.1 Build 3)  -->
  <defs>
    <style>
      .st0 {
        fill: #231f20;
      }

      .st1 {
        fill: #f8c04e;
      }
    </style>
  </defs>
  <g>
    <path class="st1" d="M31.74,32.63c-.24-.76-.55-1.5-.83-2.15-.15-.34-.35-1.03-.66-1.25-1.08-1.64-2.91-2.78-4.86-3-2.02-.23-4.12.5-5.56,1.93-2.51,2.5-4.47,11.26,1.33,10.97l.41-.44c.19.31.49.53.98.6,1.74.24,2.15-.84,2.25-2.14.1,1.29.51,2.37,2.25,2.14,1-.14,1.95-.26,2.9-.59.1-.04,1.76-.91,1.57-1.06.85.68,2.07.64,3.13.38.56-.13,1.14-.34,1.51-.78s.43-1.19-.01-1.56c.31-.51.85-1.19.38-1.77-.21-.26-.58-.39-.9-.32.24-.71.1-1.72-.38-2.31-.13-.16-.3-.3-.51-.33-.31-.04-.61.18-.75.46s-.18.6-.22.91c-.06.48-.16.97-.4,1.39s-.65.78-1.13.84c-.07-.66-.31-1.29-.51-1.92Z"/>
    <g>
      <g>
        <path class="st0" d="M20.93,35.69c0,.63-.08,1.26-.05,1.89.04.68.23,1.37.81,1.78.32.23.73.3,1.11.32.36.02.73-.01,1.06-.15s.59-.35.8-.64c.18-.25.29-.54.36-.84.18-.73.17-1.5.16-2.24,0-.2-.17-.38-.38-.38s-.38.16-.38.38c0,.32,0,.64,0,.95,0,.16-.01.31-.03.47,0,.07-.01.14-.02.22,0,.03-.02.1,0-.02,0,.02,0,.04,0,.06,0,.04-.01.08-.02.11-.02.14-.06.28-.1.41-.02.06-.04.12-.06.18-.03.09.04-.08,0,0-.02.04-.03.07-.05.11-.03.05-.06.11-.09.16-.02.02-.03.04-.05.07-.04.05.06-.07.02-.02-.01.02-.03.03-.04.05-.04.04-.08.09-.13.13-.01,0-.02.02-.03.03-.03.03.08-.06.03-.02-.03.02-.06.04-.1.07-.05.03-.12.05-.17.09.05-.04.08-.03.04-.02-.02,0-.03.01-.05.02-.04.01-.08.03-.12.04-.07.02-.14.03-.21.04,0,0,.1-.01.04,0-.02,0-.04,0-.06,0-.05,0-.1,0-.14,0-.08,0-.17,0-.25,0-.05,0-.1,0-.15-.01-.03,0-.05,0-.08,0-.09-.01.08.01,0,0s-.15-.03-.23-.05c-.04-.01-.08-.03-.11-.04-.07-.02.08.04.02,0-.02,0-.03-.02-.05-.02-.06-.03-.11-.07-.17-.1s.07.06.02.02c-.01-.01-.03-.02-.04-.03-.03-.02-.05-.05-.07-.07-.02-.02-.04-.06-.07-.08.06.04.05.07.03.04,0-.01-.02-.03-.03-.04-.04-.06-.07-.12-.1-.18,0-.02-.01-.03-.02-.05-.03-.06.03.09.01.03,0-.03-.02-.05-.03-.08-.02-.07-.04-.14-.06-.21-.02-.07-.03-.13-.04-.2,0-.02,0-.04,0-.06.02.11,0,.06,0,.03,0-.04,0-.08-.01-.13-.06-.67.04-1.34.04-2.01,0-.2-.17-.38-.38-.38s-.37.16-.38.38h0Z"/>
        <path class="st0" d="M30.68,29.19c-1.32-2.09-3.69-3.43-6.17-3.38-2.15.04-4.33,1.08-5.58,2.86-.84,1.21-1.38,2.67-1.68,4.1s-.42,3.02.11,4.41c.27.7.7,1.32,1.33,1.74.72.48,1.61.62,2.47.59.48-.02.48-.77,0-.75-1.26.06-2.4-.37-2.97-1.54s-.51-2.55-.31-3.76c.22-1.35.66-2.68,1.35-3.86.9-1.55,2.45-2.57,4.21-2.91,2.55-.5,5.21.71,6.59,2.9.26.41.91.03.65-.38h0Z"/>
        <path class="st0" d="M27.91,35.69c0,.6.08,1.19.05,1.79,0,.07,0,.14-.01.22,0,.04,0,.07-.01.11,0,.02,0,.03,0,.05.01-.13,0-.03,0,0-.02.14-.05.28-.1.41,0,.03-.02.05-.03.08-.02.07.04-.09.01-.03,0,.02-.01.03-.02.05-.03.06-.06.12-.1.18,0,.01-.02.02-.02.03-.02.04-.04.02.02-.03-.02.02-.04.05-.07.08-.02.02-.04.04-.06.06-.01.01-.03.02-.04.03-.07.06.06-.04,0,0-.06.04-.11.07-.17.1-.03.02-.13.04-.01,0-.04.01-.09.03-.13.05-.08.02-.15.04-.23.05-.03,0-.04.02.03,0-.02,0-.06,0-.08,0-.06,0-.11.01-.17.01-.08,0-.17,0-.25,0-.04,0-.09,0-.13,0-.04,0-.17-.03-.05,0-.07-.02-.14-.02-.21-.04-.04,0-.07-.02-.11-.03-.02,0-.03-.01-.05-.02-.04-.02-.04-.04.02.01-.04-.04-.12-.06-.17-.09-.03-.02-.06-.04-.08-.06-.01,0-.06-.04,0,0s0,0-.01-.01c-.05-.04-.09-.08-.13-.13-.03-.03-.08-.12-.01-.01-.02-.03-.04-.05-.06-.08-.03-.05-.06-.1-.09-.16-.02-.03-.03-.06-.04-.09,0-.01,0-.02-.01-.03-.03-.06.04.1,0,0-.05-.13-.09-.26-.12-.39-.02-.08-.03-.16-.05-.24,0-.04-.01-.08-.02-.11-.01-.07.01.1,0,.02,0-.02,0-.05,0-.07-.02-.17-.03-.34-.04-.51-.02-.36-.01-.72-.01-1.08,0-.2-.17-.38-.38-.38s-.37.16-.38.38c0,.68,0,1.37.12,2.04.12.61.4,1.22.95,1.55.31.19.68.26,1.03.28.41.01.84-.04,1.21-.22.66-.31.91-1.01.98-1.68s-.03-1.4-.03-2.11c0-.2-.17-.38-.38-.38s-.38.16-.38.38h0Z"/>
        <path class="st0" d="M30.02,29.51c.14.08.22.3.29.44.09.2.15.4.23.6.13.32.27.64.39.97.27.73.5,1.47.66,2.23.26,1.24.42,2.82-.36,3.83-.49.63-1.28.89-2.06.95-.48.04-.48.79,0,.75.87-.07,1.73-.32,2.38-.94.54-.52.83-1.23.94-1.96.24-1.64-.21-3.36-.77-4.89-.15-.4-.33-.82-.48-1.21-.2-.49-.35-1.13-.84-1.42-.42-.25-.79.4-.38.65h0Z"/>
      </g>
      <path class="st0" d="M32.45,34.9c.55-.22.98-.63,1.27-1.15.31-.56.43-1.2.5-1.83.02-.15.03-.29.04-.44,0,0,.02-.13,0-.05,0-.03.01-.06.02-.09v-.02s0,.03,0,0c.02-.03.02-.03-.01.01.01-.01.02-.03.04-.04.05-.05-.04,0,0,0,.02,0,.04-.02.06-.03-.09.04-.01,0,0,0,0,0,.09-.01.03,0s.03,0,.03,0c.03,0,.06,0,.08,0,.09,0-.05-.02,0,0,.03.01.07.01.1.02.03,0,.06.02.08.03.06.02,0,0,0,0,.05.03.11.06.16.09.02.01.04.03.06.04-.06-.05.03.02.03.03.05.05.1.09.15.15.07.08.11.13.18.26.03.05.05.1.08.16-.03-.07.01.03.01.04.02.04.03.09.04.13.02.07.04.13.05.2,0,0,.02.11,0,.05,0-.04,0,.09,0,.1,0,.08,0,.16,0,.24,0,.04,0,.08,0,.12,0,.05,0,.05,0,.02,0,.02,0,.04,0,.06-.06.35-.16.59-.34.88l.69.29s0-.03.01-.04c0-.03,0-.02-.01.03.01-.01.05-.05.01-.03-.04.03.01,0,.02-.02-.04.05-.03.02,0,0,.01,0,.08-.03.03-.02-.06.02.03,0,.03,0,.01,0,.09-.02.03,0s.02,0,.03,0c.01,0,.03,0,.04,0,.03,0,.02,0-.03,0,.01,0,.05.01.07.01.05.01.04.02,0,0,.02.01.05.03.07.04-.04-.03-.02-.01,0,.01.02.02.04.04.05.06-.05-.07,0,.02.01.03,0,0,.04.09.02.04s.01.04.01.04c0,.03.01.05.02.08,0,.04,0,.06,0,.01,0,.03,0,.06,0,.1,0,.03,0,.05,0,.08,0,.04.01-.06,0,.01-.01.07-.03.13-.05.19,0,.02,0,.02,0,0l-.02.03s-.03.07-.05.1c-.03.06-.07.11-.1.16-.05.08-.14.18-.24.29-.13.15-.15.39,0,.53.14.13.39.16.53,0,.27-.3.52-.62.63-1.01.1-.35.07-.77-.13-1.08s-.53-.5-.9-.47-.71.26-.82.63c-.11.41.46.65.69.29.37-.6.54-1.3.43-1.99-.1-.61-.46-1.19-.99-1.52-.47-.3-1.25-.34-1.56.21-.09.16-.12.33-.13.51s-.03.36-.05.54c-.02.13-.03.24-.06.4-.03.18-.08.36-.13.53-.03.08-.05.16-.09.24.03-.07-.01.03-.02.04-.02.04-.04.08-.06.13-.04.07-.08.14-.12.21-.02.03-.04.06-.06.09-.01.02-.03.04-.04.06.02-.03.02-.03,0,0-.1.12-.2.22-.32.32.06-.05-.03.02-.03.02-.04.03-.08.05-.12.07-.03.02-.06.03-.09.05-.01,0-.14.06-.07.03-.18.07-.33.25-.26.46.06.18.27.34.46.26h0Z"/>
      <path class="st0" d="M31.68,38.32c.82.32,1.72.29,2.57.12.7-.14,1.38-.43,1.92-.9.32-.28.55-.62.7-1.02.07-.18-.08-.42-.26-.46-.21-.05-.39.07-.46.26,0,0-.02.06,0,.02.02-.04-.01.02-.01.03-.01.03-.03.06-.04.09-.04.07-.08.14-.12.2-.01.02-.08.1-.03.04-.02.03-.04.05-.06.08-.05.06-.11.11-.16.17-.03.03-.06.05-.09.08-.01.01-.08.06-.05.05.03-.03-.01,0-.02.01-.02.01-.04.03-.05.04-.03.02-.07.05-.1.07-.13.08-.27.16-.41.23-.04.02-.07.03-.11.05-.04.02,0,0,0,0-.02,0-.03.01-.05.02-.08.03-.15.06-.23.08-.15.05-.3.09-.45.13-.37.09-.67.12-1.06.13-.44,0-.8-.06-1.22-.22-.18-.07-.42.08-.46.26-.05.21.07.39.26.46h0Z"/>
    </g>
  </g>
  <g>
    <path class="st1" d="M21.69,9.67c-1.87.4-3.68,1.22-5.34,2.54-.2.16-.4.32-.63.43-.9.44-1.73.31-2.6.93-1.48,1.08-3.2,2.37-3.35,4.35-.16,2.12,1.29,4.64,2.27,6.44.25.46.53.93.99,1.19s1.13.2,1.38-.26c-.2.35,1.25,2.89,1.55,3.19.62.63,1.55.83,2.42.98,3.11.52,6.27.74,9.42.64.81-.02,1.62-.07,2.4-.28,2.11-.56,3.8-2.01,4.58-4.05,1.84,2.03,2.69-.65,3.21-2.07.53-1.45,1.31-2.8,1.55-4.34.2-1.31-.03-2.75-.9-3.74-1.23-1.4-2.96-1.57-4.39-2.46-.62-.39-1.03-1.1-1.66-1.53-.84-.58-1.69-1.04-2.61-1.47-1.32-.61-2.65-.55-4.07-.7s-2.84-.09-4.22.2Z"/>
    <g>
      <path class="st0" d="M17.42,11.91c2.81-2.15,6.47-2.34,9.85-1.86.2.03.4-.05.46-.26.05-.18-.06-.43-.26-.46-3.57-.51-7.45-.34-10.43,1.93-.16.12-.24.32-.13.51.09.16.35.26.51.13h0Z"/>
      <path class="st0" d="M28.39,8.66c.06.19.11.38.13.57v-.1c.02.27.02.55-.01.82v-.1s0,.08,0,.12c-.02.1-.02.2.04.29.05.08.13.15.22.17.1.02.2.02.29-.04.08-.05.16-.13.17-.22.1-.57.07-1.16-.11-1.72-.03-.09-.09-.17-.17-.22-.08-.05-.2-.07-.29-.04s-.18.09-.22.17-.07.19-.04.29h0Z"/>
      <path class="st0" d="M30.56,9c-.03.2-.09.39-.16.57l.04-.09c-.08.2-.19.38-.32.56l.06-.08s-.07.09-.11.14c-.07.07-.11.16-.11.27,0,.09.04.2.11.27s.17.11.27.11.2-.04.27-.11c.29-.32.5-.7.63-1.12.03-.1.05-.21.07-.31.02-.05.02-.1,0-.15,0-.05-.02-.1-.04-.14-.05-.08-.13-.15-.22-.17-.1-.02-.2-.02-.29.04-.08.05-.16.13-.17.22h0Z"/>
      <path class="st0" d="M31.42,11.49c.33.15.63.34.92.56l-.08-.06c.34.27.65.58.92.92l-.06-.08c.09.12.18.25.26.38.05.08.13.15.22.17.09.02.21.01.29-.04.17-.11.25-.34.13-.51-.43-.68-1.01-1.26-1.69-1.69-.18-.11-.36-.22-.55-.31-.09-.04-.19-.07-.29-.04-.09.02-.18.09-.22.17-.05.09-.07.19-.04.29.03.09.09.18.17.22h0Z"/>
      <path class="st0" d="M15.6,12.54c-1.95.06-3.69,1.33-5.02,2.66-.71.71-1.18,1.54-1.29,2.55s.16,2.06.56,3.01c.48,1.15,1.09,2.26,1.65,3.38.22.43.86.05.65-.38-.45-.89-.91-1.78-1.34-2.69-.4-.85-.76-1.75-.79-2.7-.03-.9.24-1.71.84-2.38s1.28-1.22,2-1.7c.82-.55,1.74-.97,2.74-1,.48-.01.48-.76,0-.75h0Z"/>
      <path class="st0" d="M12.83,24.66c-.19.37-.34.77-.44,1.18-.02.1-.01.2.04.29.05.08.13.15.22.17.1.02.2.02.29-.04.08-.05.15-.13.17-.22.06-.26.14-.52.24-.76l-.04.09c.05-.11.1-.22.15-.33.05-.09.06-.19.04-.29-.02-.09-.09-.18-.17-.22-.09-.05-.19-.07-.29-.04-.09.03-.18.09-.22.17h0Z"/>
      <path class="st0" d="M14.4,25.85c1.45-.62,2.01-2.27,2.22-3.71.26-1.78.43-3.57.64-5.35.02-.2-.19-.38-.38-.38-.22,0-.35.17-.38.38-.2,1.67-.37,3.34-.59,5-.18,1.3-.56,2.84-1.89,3.41-.19.08-.23.35-.13.51.11.19.33.21.51.13h0Z"/>
      <path class="st0" d="M34.85,13.75c1.77.46,3.73,1.6,4.37,3.41.3.83.21,1.7.01,2.55-.23,1.01-.61,1.99-1.01,2.94-.47,1.09-.98,2.15-1.49,3.22-.21.43.44.82.65.38.95-2.02,2.03-4.05,2.56-6.23.23-.96.36-1.97.05-2.93s-.96-1.82-1.74-2.44c-.93-.75-2.04-1.3-3.2-1.6-.47-.12-.67.6-.2.72h0Z"/>
      <path class="st0" d="M32.51,18.05l.81,4.28c.24,1.25.46,2.58,1.28,3.6.41.5.97.85,1.62.89.48.03.48-.72,0-.75-.6-.04-1.05-.56-1.33-1.05-.38-.66-.55-1.42-.7-2.16-.34-1.67-.64-3.34-.95-5.01-.04-.2-.28-.31-.46-.26-.21.06-.3.26-.26.46h0Z"/>
      <path class="st0" d="M14.5,26.56c.19,1.04.86,1.91,1.69,2.53.94.7,2.09,1,3.24,1.13.71.08,1.43.1,2.14.11.48,0,.48-.74,0-.75-2.02-.04-4.39-.12-5.74-1.86-.31-.4-.52-.86-.61-1.36-.04-.2-.28-.31-.46-.26-.21.06-.3.26-.26.46h0Z"/>
      <path class="st0" d="M28.56,30.48c1.05-.17,2.09-.36,3.08-.78.86-.37,1.63-.92,2.2-1.67.31-.41.54-.89.67-1.39.05-.2-.06-.41-.26-.46s-.41.06-.46.26c-.19.78-.68,1.42-1.32,1.92-.68.53-1.58.86-2.44,1.07-.55.13-1.11.23-1.67.32-.2.03-.31.28-.26.46.06.21.26.29.46.26h0Z"/>
    </g>
  </g>
</svg>