<?xml version="1.0" encoding="UTF-8"?>
<svg id="_얼굴없는" data-name="얼굴없는" xmlns="http://www.w3.org/2000/svg" version="1.1" viewBox="0 0 50.83 48.47">
  <!-- Generator: Adobe Illustrator 29.8.2, SVG Export Plug-In . SVG Version: 2.1.1 Build 3)  -->
  <defs>
    <style>
      .st0 {
        fill: #231f20;
      }

      .st1 {
        fill: #8e887c;
      }

      .st2 {
        fill: #fff;
      }

      .st3 {
        fill: #f9bdbe;
      }
    </style>
  </defs>
  <g>
    <path class="st1" d="M20.62,30.76c-.05-.73.05-1.46.25-2.16.48-1.7,1.6-3.32,3.26-3.89.91-.32,1.94-.29,2.84.07.6.24,1.14.63,1.62,1.07.89.81,1.6,1.85,1.97,3,.18.57.29,1.19.25,1.8-.06.99-.83,2.13-.5,3.08.42,1.2.67,2.17.65,3.47.98.37,1.96-.61,2.29-1.47.06-.17.13-.37.3-.45.11-.05.24-.03.34.03.45.23.44.88.3,1.38-.09.32-.21.64-.39.92-.43.62-1.19.95-1.94.98-.28.01-.58-.01-.83.11-.15.07-.26.19-.39.28-.42.3-1.01.36-1.49.16-.09-.04-.18-.09-.28-.1-.26-.03-.47.2-.69.34-.55.35-1.31-.02-1.92,0-.72.01-1.47.08-2.16.06-.45-.01-.9-.03-1.35-.04-.73-.02-1.51-.06-2.07-.52-.43-.34-.66-.88-.76-1.42-.11-.55-.09-1.12.04-1.66.23-.96.85-1.8,1.11-2.73.19-.67-.33-1.37-.4-2.07,0-.08-.02-.15-.02-.23Z"/>
    <path class="st2" d="M23.43,38.16c-.48,0-.84-.15-.77.4.12.97,1.22,1.05,1.85.47.19-.18.55-.6.32-.83-.2-.2-1.13-.04-1.4-.04Z"/>
    <path class="st2" d="M27.28,38.16c-.48,0-.84-.15-.77.4.12.97,1.22,1.05,1.85.47.19-.18.55-.6.32-.83-.2-.2-1.13-.04-1.4-.04Z"/>
    <path class="st2" d="M25.92,32.49c.97-.33,1.95-1.75,2.3-2.5.53-1.13.45-2.53-.19-3.6s-1.85-1.78-3.1-1.84c-.36-.02-.74.02-1.06.19-.46.24-.76.7-.96,1.18-1.02,2.33-.23,5.07,1.95,6.4.21.13.45.25.7.24.12,0,.24-.03.37-.07Z"/>
    <g>
      <path class="st0" d="M23.87,23.24c-1.13,1.51-2.41,2.89-3.14,4.65-.4.96-.61,2.01-.49,3.05.07.62.23,1.21.46,1.79.21.54.45,1.07.63,1.63.31.97.5,1.97.64,2.97.13.91.28,2.08,1.25,2.48.5.21,1.05.06,1.47-.27.45-.36.67-.88.74-1.43.11-.82-.02-1.72-.06-2.55-.04-.7-.06-1.4-.11-2.1-.03-.48-.78-.48-.75,0,.07,1.13.11,2.26.17,3.38.03.49.08,1-.06,1.48-.12.41-.51.91-.99.83-.87-.13-.88-1.68-.98-2.32-.14-.9-.31-1.79-.59-2.66-.17-.52-.38-1.03-.59-1.54-.19-.47-.34-.95-.44-1.45-.17-.92-.04-1.86.28-2.73.67-1.86,2.04-3.3,3.21-4.85.29-.39-.36-.76-.65-.38h0Z"/>
      <path class="st0" d="M27.05,23.76c.97,1.28,2.07,2.46,2.76,3.93.38.81.6,1.7.55,2.6s-.3,1.74-.55,2.55c-.16.53-.37,1.04-.54,1.56-.24.73-.41,1.48-.54,2.24-.09.49-.14.99-.26,1.47-.09.35-.22.77-.55.97-.38.23-.83-.05-1.05-.38-.31-.47-.26-1.09-.23-1.62.07-1.2.11-2.41.19-3.61.03-.48-.72-.48-.75,0-.07,1.14-.11,2.29-.18,3.44-.06,1.06-.02,2.34,1.09,2.86,1.01.47,1.84-.28,2.13-1.21.15-.47.2-.97.28-1.45.09-.51.18-1.02.31-1.53.15-.62.36-1.23.58-1.83.6-1.68,1.1-3.52.6-5.29-.56-1.99-1.99-3.47-3.2-5.08-.29-.38-.94,0-.65.38h0Z"/>
      <path class="st0" d="M20.76,32.63c-.17.18-.28.4-.38.63-.13.28-.24.57-.33.87-.16.48-.31.98-.39,1.48-.19,1.24-.21,3.03,1.04,3.75.63.36,1.48.49,2.18.26.19-.06.32-.26.26-.46-.05-.19-.27-.33-.46-.26-.06.02-.12.04-.18.05-.03,0-.06.01-.1.02-.07.01.09,0-.04,0-.15.01-.29.01-.44,0-.21-.02-.54-.1-.74-.2-.24-.12-.38-.23-.51-.43-.15-.24-.22-.46-.29-.75-.22-1.02,0-2.08.31-3.08.05-.15.1-.29.15-.44.03-.07.05-.14.08-.21.01-.04.03-.07.04-.11,0-.01.05-.11.02-.05.05-.12.1-.23.16-.34.03-.05.06-.1.09-.15,0-.01.02-.03.03-.04-.06.09,0,.01.01,0,.33-.35-.2-.88-.53-.53h0Z"/>
      <path class="st0" d="M30.04,33.9s.02.03.02.05c.02.03-.04-.1,0-.01.02.04.03.09.05.13.03.1.06.2.09.3.07.24.12.48.16.72.01.07.02.13.03.2,0,.03,0,.06.01.1,0,.02,0,.03,0,.05,0,.05-.01-.08,0-.01.02.14.03.28.05.42.03.29.04.58.04.86s-.01.56-.04.83c0,.02-.02.13,0,.07s0,.04,0,.05c0,.06-.02.13-.03.19-.02.12-.05.23-.09.35-.02.05-.03.11-.05.16,0,.01-.04.1-.01.04s-.01.02-.02.04c-.04.09-.1.17-.15.25-.02.03.07-.08,0,0-.01.02-.03.03-.04.05s-.03.03-.04.04c0,0-.02.01-.02.02-.04.04.02-.03.03-.03-.02,0-.09.06-.11.07-.01,0-.09.04-.02.01s0,0-.03,0c-.02,0-.05.01-.07.02,0,0-.02,0-.03,0-.06.02.1,0,.04,0-.05,0-.1,0-.16,0-.1,0,.06.01,0,0-.03,0-.06-.01-.09-.02-.06-.02-.12-.03-.18-.06-.01,0-.03-.01-.04-.02-.04-.01.08.04.02,0-.04-.02-.07-.03-.11-.05-.1-.05-.19-.11-.29-.14-.15-.04-.33,0-.44.11,0,0-.03.03-.03.04l.11-.05c.08-.06.17-.06.26,0-.02-.02-.05-.03-.08-.05-.16-.12-.42-.03-.51.13-.11.19-.03.39.13.51.09.07.2.12.32.11.07,0,.14-.02.21-.06-.08.05.12-.08.1-.09.03.02-.11.05-.13.06-.07.02-.1,0-.16,0-.04,0,.01,0,.03.02.01,0,.03.02.04.02.06.03.13.06.19.09.25.11.53.19.81.16.52-.06.9-.41,1.1-.88.23-.54.31-1.13.33-1.71.02-.63-.03-1.26-.12-1.88-.08-.55-.2-1.11-.43-1.62-.09-.18-.35-.23-.51-.13-.19.11-.22.33-.13.51h0Z"/>
      <path class="st0" d="M31.57,37.85c.97-.3,1.74-1.11,2.04-2.08.08-.27.13-.55.13-.84l-.38.38s.08,0,.13,0c.08,0-.06-.01-.02,0,.02,0,.04,0,.06.01.02,0,.05.01.06.02l-.05-.02s.02.01.03.02c.03.02.08.04.1.06l-.04-.03s.02.02.03.03c.01.01.03.03.04.04s.03.03.04.04c.02.03.04.07,0-.01.02.03.05.07.07.1.01.02.02.04.03.05,0,.01.01.02.02.04-.02-.06-.03-.07-.02-.04.01.04.03.08.04.12,0,.02.01.05.02.08.02.1,0-.06,0,.01,0,.1.01.2,0,.31,0,.03,0,.05,0,.08,0,.01,0,.03,0,.04,0,.03,0,.02,0-.04,0,.04-.02.11-.03.15-.02.11-.05.22-.07.33-.04.19.06.42.26.46.19.04.41-.06.46-.26.12-.53.22-1.09-.01-1.6-.19-.42-.65-.78-1.13-.72-.1.01-.19.03-.27.11s-.11.16-.11.27c0,.05,0,.11,0,.16,0,.03,0,.05,0,.08,0,.01,0,.03,0,.04,0,.06.01-.08,0-.03-.02.1-.04.21-.07.31-.01.05-.03.1-.05.15,0,.02-.02.05-.03.07,0,.01-.02.08-.03.08,0,0,.04-.09.01-.04,0,.01-.01.02-.02.04-.01.02-.02.05-.03.07-.02.05-.05.09-.07.14-.05.09-.11.19-.17.27-.01.02-.03.04-.04.06-.04.05.02-.03.02-.03,0,0-.02.02-.02.03-.04.04-.07.09-.11.13-.07.08-.15.16-.23.23-.02.02-.04.03-.06.05-.01.01-.08.06-.02.02.06-.04-.02.02-.03.02-.02.02-.05.03-.07.05-.1.07-.2.13-.31.18-.03.01-.06.03-.09.04,0,0-.03.02-.04.02.02,0,.09-.04.03-.01-.06.02-.12.04-.18.06-.19.06-.33.26-.26.46s.26.32.46.26h0Z"/>
      <path class="st0" d="M31.38,39.08c.62-.02,1.24-.2,1.77-.52.17-.1.32-.21.47-.33.07-.06.11-.18.11-.27,0-.09-.04-.2-.11-.27s-.17-.11-.27-.11h-.1c-.06.03-.12.06-.17.11-.02.02-.04.04-.07.05l.08-.06c-.23.18-.48.32-.75.44l.09-.04c-.27.11-.54.19-.83.23h.1c-.11,0-.22.01-.33.01-.1,0-.19.04-.27.11-.07.07-.11.17-.11.27,0,.2.16.38.38.38h0Z"/>
    </g>
  </g>
  <g>
    <path class="st1" d="M16.89,10.41c-.5.17-.92.52-1.32.87-.56.5-1.09,1.02-1.6,1.57-.29.31-.58.77-.33,1.11.19.25.57.26.86.14.4-.16,1.07-.72,1.53-.63.23.05.42.2.6.35.74.63,1.43,1.31,2.08,2.03.2.22-.42,1.61-.46,1.94-.11.82.07,1.75.32,2.52.28.86.72,1.65,1.16,2.43.66,1.19,1.33,2.38,1.99,3.57.27.48.54.97.97,1.32.55.45,1.27.6,1.96.74,1.41.28,3.04.49,4.11-.47.72-.64.97-1.64,1.37-2.52.8-1.76,2.29-3.22,2.7-5.12.3-1.43.28-3.15-.08-4.55-.02-.06-.03-.12-.02-.19.02-.07.07-.12.11-.17.53-.55,1.24-1.41,1.98-1.65.93-.29,1.3.33,2.09.44.68.1,1.32-.39.83-1.1-.17-.25-.43-.42-.69-.59-.67-.44-1.25-.97-1.88-1.46-.64-.5-.96-.79-1.8-.48-.76.28-1.62.55-2.31.97-.42.26-.76.82-1.33.73-.25-.04-.46-.21-.68-.34-.89-.54-2.97-.44-4.01-.44-1.35,0-2.76.18-3.95.88-.5-.4-.75-.91-1.29-1.27-.85-.56-1.89-1.02-2.92-.67Z"/>
    <path class="st3" d="M35.28,13.56s-.05-.06-.06-.08c-.31-.39-.61-.65-1.03-.87-.27-.14-.55-.2-.85-.23-.58.55-1.25,1.14-1.15,1.97.05.43.21.83.4,1.23.05,0,.1,0,.14,0,0-.01,0-.03,0-.04.02-.07.07-.12.11-.17.53-.55,1.24-1.41,1.98-1.65.2-.06.36-.08.52-.07-.02-.03-.04-.07-.07-.1Z"/>
    <path class="st2" d="M29.99,26.18c.22-.58.26-1.18-.07-1.68-.37-.58-.99-.95-1.55-1.33-1.59-1.08-1.69-2.35-1.79-4.15-.03-.46.08-1.44-.44-1.67-.58-.26-.67.28-.72.75-.07.69-.11,1.38-.16,2.07-.09,1.49-.87,2.34-2.18,3.03-.25.13-.51.25-.73.42-.58.47-.75,1.31-.62,2.04.32,1.76,1.28,2.4,2.93,2.73,1.41.28,3.04.49,4.11-.47.46-.41.97-1.06,1.23-1.75Z"/>
    <path class="st3" d="M19.32,14.07c0-.26-.04-.51-.19-.77-.79-1.41-2.45-.38-3.47.19-.05.03-.1.06-.14.09.18-.08.36-.12.52-.09.23.05.42.2.6.35.73.62,1.42,1.29,2.06,2.01.04-.08.09-.17.13-.25.23-.48.49-1,.5-1.52Z"/>
    <g>
      <path class="st0" d="M20.19,13.32c.18-.32.56-.44.88-.57.42-.16.84-.3,1.26-.43.86-.26,1.75-.44,2.65-.51,1.73-.13,3.49.16,5,1.04.42.24.8-.4.38-.65-1.67-.98-3.65-1.3-5.57-1.12-1,.09-1.98.31-2.94.61-.47.15-.94.31-1.4.51-.38.16-.72.38-.93.75-.23.42.41.8.65.38h0Z"/>
      <path class="st0" d="M21.1,11.75c-.93-.55-1.78-1.32-2.87-1.55-.56-.12-1.12-.09-1.64.14-.49.22-.89.6-1.3.95-.46.39-.92.79-1.38,1.18-.4.35-.92.78-.78,1.38.11.48.61.68,1.06.65s.88-.21,1.27-.42c.81-.44,1.51-1.14,2.48-1.17.48-.02.48-.77,0-.75-.83.03-1.52.41-2.2.86-.31.2-.62.41-.96.56-.15.07-.32.12-.48.15-.12.02-.3.02-.38,0-.02,0-.05-.01-.06-.05,0-.03,0-.05,0-.08.05-.2.32-.38.46-.51.4-.35.81-.69,1.21-1.04.36-.31.7-.64,1.1-.89s.81-.33,1.26-.26c1.07.17,1.91.96,2.81,1.5.42.25.79-.4.38-.65h0Z"/>
      <path class="st0" d="M16.25,14.1c.29.15.56.32.82.52l-.08-.06c.35.27.66.58.93.93l-.06-.08c.08.11.16.22.23.33.05.08.13.15.22.17.09.02.21.01.29-.04.16-.11.25-.34.13-.51-.42-.64-.96-1.19-1.6-1.61-.17-.11-.34-.21-.52-.3-.09-.05-.19-.07-.29-.04-.09.02-.18.09-.22.17-.09.17-.05.42.13.51h0Z"/>
      <path class="st0" d="M18.87,14.18c-.89,2.41-1.4,5.08-.19,7.48.61,1.2,1.57,2.19,2.11,3.44.48,1.1.67,2.31,1.69,3.08s2.28.86,3.46.76c.48-.04.48-.79,0-.75-.96.09-2.01.04-2.85-.49-.98-.62-1.16-1.79-1.57-2.78-.48-1.14-1.27-2.09-1.92-3.13s-.93-2.2-.9-3.41c.03-1.37.42-2.71.9-3.98.17-.45-.56-.65-.72-.2h0Z"/>
      <path class="st0" d="M31.82,14.38c.79,2.12,1.36,4.54.37,6.7-.49,1.08-1.31,1.97-1.89,3-.28.5-.49,1.03-.67,1.58-.16.5-.33,1-.67,1.42-.67.85-1.72,1.15-2.77,1.1-.48-.02-.48.73,0,.75,1.04.05,2.08-.22,2.89-.9.38-.32.69-.74.9-1.19.26-.56.4-1.18.64-1.74.52-1.19,1.43-2.15,2.04-3.29.57-1.07.84-2.28.8-3.49-.04-1.42-.43-2.81-.92-4.13-.17-.45-.89-.25-.72.2h0Z"/>
      <path class="st0" d="M30.62,12.4c.82-.49,1.57-1.17,2.5-1.43.42-.12.88-.14,1.29.03s.75.5,1.09.79c.41.35.83.71,1.24,1.06.18.15.37.3.54.47.08.08.24.23.21.35-.01.05-.03.04-.07.06.05-.02-.08.02-.07.02.05,0-.09,0-.08,0-.16,0-.3-.03-.45-.08-.36-.12-.69-.31-1-.52-.76-.49-1.48-.97-2.41-1-.48-.02-.48.73,0,.75.86.03,1.51.57,2.2,1,.37.23.77.44,1.19.54s.93.09,1.23-.25c.41-.46.14-1.05-.24-1.43-.43-.42-.91-.79-1.37-1.18-.42-.36-.84-.76-1.31-1.07s-1-.44-1.55-.39c-1.29.11-2.24.98-3.31,1.62-.42.25-.04.89.38.65h0Z"/>
      <path class="st0" d="M35.03,13.04c-.65.33-1.25.8-1.71,1.37-.14.17-.28.35-.4.54-.11.16-.04.42.13.51.19.1.4.04.51-.13.07-.11.15-.22.23-.33l-.06.08c.27-.35.58-.66.93-.93l-.08.06c.26-.2.53-.37.82-.52.18-.09.24-.35.13-.51-.12-.18-.33-.23-.51-.13h0Z"/>
    </g>
  </g>
</svg>