<?xml version="1.0" encoding="UTF-8"?>
<svg id="_얼굴없는" data-name="얼굴없는" xmlns="http://www.w3.org/2000/svg" version="1.1" viewBox="0 0 50.83 48.47">
  <!-- Generator: Adobe Illustrator 29.8.2, SVG Export Plug-In . SVG Version: 2.1.1 Build 3)  -->
  <defs>
    <style>
      .st0 {
        fill: #231f20;
      }

      .st1 {
        fill: #fff;
      }

      .st2 {
        fill: #5c564d;
      }
    </style>
  </defs>
  <g>
    <g>
      <path class="st1" d="M20.12,29.03c.51-.88,1.37-1.56,2.34-1.86.59-.18,1.22-.22,1.84-.23.95-.01,1.92.05,2.8.4,1.97.77,3.24,3.03,2.87,5.12-.04.2-.08.41-.05.61.04.19.14.35.24.52.45.8.64,1.75.53,2.67.93-.18,1.74-.87,2.07-1.75.07-.18.14-.4.32-.47.12-.05.25-.03.37.03.48.25.46.94.32,1.46-.1.34-.22.68-.42.97-.45.66-1.26,1.01-2.06,1.04-.3.01-.62-.01-.88.12-.15.08-.28.2-.42.3-.45.32-1.07.39-1.58.17-.1-.04-.19-.09-.29-.11-.28-.03-.5.21-.74.36-.52.32-1.27.17-1.62-.33-.82.43-1.79.41-2.72.39-.48-.01-.95-.03-1.43-.04-.77-.02-1.6-.07-2.2-.55-.45-.37-.7-.93-.81-1.51-.11-.58-.1-1.19.04-1.76.23-.95.83-1.81.92-2.79s.04-1.86.57-2.76Z"/>
      <path class="st2" d="M21.39,31.94c-.13-.11-.27-.21-.44-.26-.09-.01-.18-.02-.27-.04-.14,0-.27.02-.39.09-.08.02-.16.07-.22.13-.08.04-.13.1-.18.18-.06.06-.1.14-.13.22-.06.12-.09.25-.09.39-.03.28,0,.57.06.85.02.1.05.19.08.29.06.17.13.34.22.5.02.04.07.07.1.11,0,0,0,0,0,.01.06.23.24.48.46.6.23.12.51.18.77.1.08-.03.16-.07.24-.1.15-.09.27-.21.36-.36.09-.12.15-.27.2-.41.06-.15.07-.3.09-.46,0-.07.01-.14,0-.21-.02-.15-.03-.32-.08-.47-.14-.45-.42-.85-.79-1.14Z"/>
      <path class="st2" d="M29.89,30.67c-.06-.33-.2-.65-.49-.78-.11-.05-.22-.07-.34-.07-.48-.02-.97.16-1.31.5s-.53.82-.5,1.3c.02.35.43.95.74,1.11.43.22,1.55.25,1.84-.2.09-.15.11-.33.12-.5.02-.37.01-.73-.02-1.1,0-.09-.02-.17-.04-.26Z"/>
      <path class="st2" d="M27.79,36.63s-.02-.03-.03-.05c-.06-.08-.12-.16-.18-.24-.07-.08-.16-.13-.24-.19-.16-.09-.32-.14-.5-.14-.14,0-.27.02-.39.09-.12.04-.23.11-.32.21-.12.12-.21.27-.26.44-.03.19-.07.39-.05.59,0,.14.03.28.05.42.01.06.02.11.04.16.03.13.09.24.18.34.07.11.16.19.28.26.11.07.24.11.37.12.13.03.27.02.4-.02.08-.03.16-.07.24-.1.15-.09.27-.21.36-.36.03-.08.07-.16.1-.24.02-.06.02-.12.02-.18.01-.03.03-.05.04-.08,0-.02.01-.04.02-.06.02-.1.04-.21.04-.31,0-.12-.01-.25-.05-.37-.03-.1-.07-.2-.12-.28ZM25.97,37.29v-.02s0-.03,0-.05c0,.02,0,.05,0,.07Z"/>
    </g>
    <g>
      <path class="st0" d="M20.28,28.07c-1.36,1.85-1.55,4.47-.48,6.5.28.54.66,1.02.91,1.58.22.47.28,1,.44,1.49.15.46.39.9.83,1.13.48.26,1.06.19,1.51-.11,1.3-.86.96-2.66.87-3.98-.03-.48-.78-.48-.75,0,.04.6.1,1.2.1,1.8,0,.5-.08,1.04-.45,1.41-.26.25-.68.41-1,.17s-.4-.67-.49-1.02c-.12-.45-.22-.89-.42-1.32-.24-.5-.56-.94-.83-1.42-.47-.85-.68-1.81-.65-2.78.04-1.11.41-2.18,1.07-3.08.12-.16.03-.42-.13-.51-.19-.11-.39-.03-.51.13h0Z"/>
      <path class="st0" d="M19.19,32.32c-.46.48-.66,1.13-.78,1.77-.11.55-.17,1.12-.15,1.68.02.59.12,1.2.4,1.73s.7.84,1.24,1.04c.57.21,1.26.26,1.85.07.19-.06.32-.26.26-.46-.05-.19-.27-.33-.46-.26-.1.03-.2.06-.3.07.07-.01,0,0-.02,0-.03,0-.06,0-.09,0-.06,0-.12,0-.19,0-.06,0-.11,0-.17,0-.03,0-.06,0-.1,0,0,0-.07,0-.02,0-.13-.02-.26-.05-.38-.08-.23-.07-.35-.12-.57-.26-.01,0-.08-.05-.02-.01-.02-.01-.04-.03-.05-.04-.04-.03-.07-.07-.11-.11-.06-.06-.1-.12-.16-.23-.22-.38-.32-.88-.34-1.33-.01-.26-.01-.52,0-.78s.04-.42.08-.66c.1-.57.23-1.19.62-1.6.33-.35-.2-.88-.53-.53h0Z"/>
      <path class="st0" d="M28.5,28.45c1.15,1.57,1.42,3.76.58,5.53-.23.48-.53.91-.79,1.37s-.43.9-.55,1.4c-.15.6-.41,1.8-1.3,1.34-.5-.26-.68-.8-.71-1.33-.04-.69.05-1.39.09-2.07.03-.48-.72-.48-.75,0-.08,1.19-.4,2.77.55,3.72.38.38.92.61,1.46.51.5-.1.87-.48,1.07-.93s.28-.92.41-1.39c.17-.6.54-1.11.85-1.64.59-.99.92-2.11.91-3.27,0-1.29-.41-2.57-1.17-3.61-.12-.16-.32-.24-.51-.13-.16.09-.25.35-.13.51h0Z"/>
      <path class="st0" d="M30.02,33.91s.02.05.03.06c0,0-.04-.1-.02-.05,0,0,0,.02.01.03.02.05.04.1.05.14.03.09.06.19.08.29.03.11.05.22.07.33,0,.05.02.1.02.16.01.08-.01-.09,0,0,0,.03,0,.06.01.1.03.24.04.49.04.73,0,.12,0,.25-.02.37,0,.06,0,.12-.02.18,0,.03,0,.06-.01.09-.01.1.01-.08,0,.02-.04.23-.08.46-.16.68-.02.05-.04.1-.05.15,0,.01,0,.02-.01.03-.02.05.02-.04.02-.04-.01.03-.03.06-.04.09-.04.09-.09.18-.15.27-.01.02-.02.03-.04.05-.05.08.06-.07,0,0-.03.04-.06.07-.09.1s-.07.06-.1.09c-.03.03.09-.06,0,0-.02.01-.04.03-.06.04-.04.02-.08.04-.12.06-.05.02.1-.04.02,0-.02,0-.05.02-.07.02-.04.01-.09.02-.13.03-.04,0,.11,0,.01,0-.03,0-.06,0-.09,0-.06,0-.11,0-.17,0s.05,0,.05,0c-.02,0-.04,0-.05,0-.03,0-.07-.01-.1-.02-.07-.02-.14-.04-.2-.06-.03-.01-.07-.03-.1-.04.11.03,0,0-.04-.02-.18-.09-.37-.24-.58-.22-.12,0-.23.06-.32.15l-.06.08c.05-.06.07-.08.05-.06.04-.04.15-.08.23-.09h.08c.06.04.08.05.05.03-.02-.02-.05-.03-.07-.05-.16-.12-.43-.03-.51.13-.1.2-.03.39.13.51.19.14.47.17.63-.02.03-.03.13-.14.01-.01.02-.02.03-.02-.02.01-.08.05-.17.08-.26.06.05.01-.03-.02-.03-.02.01,0,.2.11.23.12.29.15.59.25.91.28.48.05.97-.15,1.29-.53.33-.39.51-.88.61-1.38.1-.53.13-1.08.09-1.62s-.14-1.11-.38-1.62c-.08-.18-.35-.24-.51-.13-.18.12-.22.32-.13.51h0Z"/>
      <path class="st0" d="M30.97,36.74c1.03-.32,1.83-1.17,2.15-2.19.09-.28.13-.58.14-.88l-.38.38s.09,0,.13,0c.08,0-.06-.01-.02,0,.02,0,.04,0,.06.01.02,0,.04.02.07.02l-.05-.02s.02.01.04.02c.03.02.07.05.1.07l-.04-.03s.02.02.03.03c.02.01.03.03.05.04s.03.03.04.05c.03.03.03.06,0,0,.02.04.05.07.07.11.01.02.02.04.03.06,0,.01.01.03.02.04-.02-.05-.03-.07-.02-.04.01.04.03.08.04.12,0,.03.01.05.02.08.02.1,0-.06,0,.02,0,.11.01.22,0,.33,0,.03,0,.05,0,.08,0,.02,0,.11,0,0,0,.05-.02.11-.03.16-.02.12-.05.23-.08.35-.04.19.06.42.26.46.19.04.41-.06.46-.26.13-.56.23-1.14,0-1.68-.2-.44-.68-.81-1.18-.75-.1.01-.19.03-.27.11s-.11.16-.11.27c0,.06,0,.11,0,.17,0,.03,0,.06,0,.08,0,.01,0,.03,0,.04,0,.07.01-.07,0-.03-.02.11-.04.22-.07.33s-.07.22-.11.33c0,0,.04-.09.01-.03,0,.01-.01.03-.02.04-.01.03-.02.05-.04.08-.02.05-.05.1-.08.15-.06.1-.12.2-.19.29-.01.02-.03.04-.04.06-.04.05.02-.02.02-.03,0,.01-.02.02-.03.03-.04.05-.08.09-.12.14-.08.09-.16.17-.25.24-.02.02-.04.04-.06.05-.01.01-.08.06-.03.02.05-.04-.03.02-.04.03-.03.02-.05.04-.08.05-.1.07-.21.13-.32.19-.03.02-.06.03-.09.04-.01,0-.03.01-.04.02.02-.01.08-.03.02,0-.06.02-.12.05-.19.07-.19.06-.33.26-.26.46s.26.32.46.26h0Z"/>
      <path class="st0" d="M30.77,38.04c.66-.02,1.31-.21,1.87-.55.17-.1.34-.22.49-.35.07-.06.11-.18.11-.27,0-.09-.04-.2-.11-.27s-.17-.11-.27-.11c-.11,0-.18.04-.27.11-.02.02-.05.04-.07.06l.08-.06c-.25.19-.51.34-.8.47l.09-.04c-.28.12-.58.2-.88.24h.1c-.12,0-.23.01-.35.02-.2,0-.38.17-.38.38s.16.38.38.38h0Z"/>
    </g>
  </g>
  <g>
    <g>
      <path class="st1" d="M26.52,12.22c-1.36-.13-2.73-.11-3.95-.03-1.11.07-2.22.23-3.31.48-1.78.4-3.57.08-5.36.76-1.4.53-3.25,1.44-4.19,2.64-.17.22-.26.49-.31.76-.26,1.19-.02,2.45.46,3.57s1.19,2.12,1.92,3.1c.26.36.54.72.94.92.46.23,1.04.2,1.46-.08.42-.28.55-1.05,1.11-.76.4.2.71,1.38.86,1.77.45,1.18.8,2.46,1.72,3.39.94.94,2.31,1.31,3.62,1.5,2.62.38,5.34.21,7.82-.71.84-.31,1.69-.73,2.21-1.47.26-.37.42-.79.58-1.21.41-1.09.8-2.19,1.16-3.29.56-1.7,1.07-3.5.77-5.26-.24-1.41-1.17-3.73-2.44-4.54-1.43-.91-3.24-1.35-5.07-1.52Z"/>
      <path class="st2" d="M16.36,13.21s0,0,0-.01c-.28-.43-.9-.67-1.37-.36-.57.37-1.03.82-1.44,1.36-.43.57-.77,1.3-.55,2.03.16.5.51.9,1.01,1.07.46.16.93.05,1.35-.15.17-.08.31-.2.46-.31.09-.07.18-.15.26-.24.19-.22.37-.46.49-.72.17-.38.26-.72.31-1.14.03-.32-.01-.66-.1-.97-.07-.24-.23-.41-.42-.54Z"/>
      <path class="st2" d="M19.03,19.06c.24.19.43.31.72.42.46.17.95.1,1.38-.1.75-.35,1.12-1.24,1.1-2.03,0-.23-.04-.45-.08-.67-.04-.23-.08-.47-.2-.68-.26-.45-.79-.65-1.29-.51-.19.06-.39.17-.56.28-.46.31-.87.7-1.19,1.15-.14.13-.28.27-.38.44-.23.39-.18.88.08,1.24.13.17.25.33.41.46Z"/>
      <path class="st2" d="M24.77,14.4c.1.11.21.22.34.31,1.29.9,3.42-.25,3.96-1.53.02-.06.04-.12.03-.17-.02-.08-.11-.12-.18-.16-.97-.45-2.04-.59-3.09-.73-.68-.09-1.66-.22-1.84.66-.11.51.25.99.58,1.39.07.08.14.16.21.24Z"/>
      <path class="st2" d="M26.3,17.59c.02-.09.03-.19.04-.28,0-.01,0-.02,0-.03,0-.09-.02-.19-.04-.28,0,0,0-.01,0-.02-.06-.19-.14-.35-.29-.49-.13-.13-.32-.25-.5-.29-.22-.05-.38-.05-.6,0,0,0-.01,0-.02,0-.09.03-.17.07-.25.11-.01,0-.02.01-.03.02-.07.05-.15.11-.22.17,0,0-.01,0-.01.02-.06.07-.12.14-.17.22,0,0,0,.01,0,.02-.04.08-.08.17-.11.26,0,0,0,.01,0,.02-.05.3-.04.27,0,.57.03.13.09.24.18.34.07.11.16.19.28.26.02.01.05.01.07.02.04.03.06.07.1.1.08.03.16.07.24.1.18.05.35.05.53,0,0,0,.01,0,.02,0,.09-.03.17-.07.25-.11,0,0,0,0,.01,0,.08-.05.15-.11.22-.17,0,0,.01-.01.02-.02,0,0,.12-.14.16-.21,0,0,0-.01,0-.02.04-.09.08-.17.11-.26,0,0,0-.01,0-.02ZM24.69,16.62s.05-.04.07-.06c.06-.02.11-.05.17-.07-.09.03-.17.07-.24.13Z"/>
      <path class="st2" d="M20.14,29.87c.14,0,.27-.02.39-.09.12-.04.23-.11.32-.21.02-.02.03-.05.05-.07.02-.02.05-.02.07-.05.17-.19.3-.44.29-.71-.01-.25-.09-.54-.29-.71-.21-.17-.42-.34-.63-.52-.15-.12-.3-.26-.47-.36-.32-.18-.66-.24-1.02-.16-.12.03-.25.08-.35.15-.08.06-.17.11-.24.18,0,0-.02.02-.02.03-.06.06-.13.15-.17.22-.03.04-.04.09-.06.14,0,0-.04.09-.06.14,0,.01,0,.02,0,.03-.02.07-.04.21-.04.28,0,.01,0,.02,0,.03,0,.06.02.22.04.27.01.05.04.1.06.15.02.05.04.11.07.16.15.24.36.38.58.55.09.07.19.14.29.2.05.03.11.06.17.09.13.06.26.12.39.16.14.04.29.06.44.07.07,0,.13,0,.2,0Z"/>
      <path class="st2" d="M13.39,20.69c-.23-.23-.49-.43-.76-.61-.29-.2-.59-.38-.94-.47-.34-.1-.72,0-.97.26-.28.28-.31.61-.26.97.04.29.14.56.27.82,0,.15.04.3.13.44.18.27.37.54.55.81.17.25.34.53.57.73,0,.01.02.03.02.04.1.19.18.39.29.57.3.49.9.74,1.44.51.38-.16.67-.51.76-.92.11-.5.03-.98-.2-1.4-.08-.65-.47-1.28-.91-1.74ZM11.4,22.74s0,.01.01.01c0,0,0,0,0,0-.16-.16-.07-.09-.02-.02Z"/>
      <path class="st2" d="M10.99,18.49c.29-.1.54-.25.74-.5.06-.09.09-.21.13-.3.01-.03.02-.05.03-.08.07-.29.07-.56,0-.85-.03-.13-.09-.27-.15-.39-.06-.12-.16-.24-.24-.34-.07-.05-.13-.1-.2-.16-.11-.07-.24-.11-.37-.12-.09-.02-.18-.02-.27,0-.13,0-.26.05-.37.12-.1.07-.21.14-.29.23-.07.07-.13.16-.19.24-.01.02-.02.03-.03.05-.03.05-.05.12-.08.17-.02.06-.05.12-.07.18-.14.46-.23.95-.21,1.43,0,.14.02.29.11.39.1.1.26.11.4.1.35-.02.72-.06,1.06-.18ZM11.54,17.02s.01.02.02.04c0,0,0,0,0,.01-.03-.06-.06-.11-.1-.16.03.04.06.07.09.11Z"/>
      <path class="st2" d="M31.4,13.23c-.3.49-.26,1.11-.21,1.68.29,2.92.89,5.93,1.93,8.67.14.37.3.76.64.96.34.2.78.15,1.14-.02.58-.27,1.01-.78,1.37-1.3.8-1.15,1.27-2.38,1.72-3.69.42-1.21.82-2.44-.06-3.57-.4-.51-.93-.9-1.45-1.29-.11-.08-.23-.17-.37-.2-.13-.03-.27-.01-.38-.09-.85-.61-3.43-2.66-4.34-1.16Z"/>
    </g>
    <g>
      <path class="st0" d="M16.19,12.5c-1.05.16-2.04.54-3,.98-.87.4-1.77.82-2.56,1.35-.73.49-1.35,1.13-1.61,1.99-.29.96-.07,2,.29,2.91.38.98.9,1.92,1.45,2.82.47.78.96,1.69,1.74,2.21.69.46,1.59.35,2.12-.29s.71-1.55.9-2.37c.58-2.52,1.17-5.03,1.75-7.55.11-.47-.61-.67-.72-.2-.46,2-.93,4-1.39,6.01-.21.9-.37,1.84-.65,2.72-.17.53-.51,1.33-1.2,1.23-.76-.11-1.25-1.09-1.62-1.66-.52-.81-1-1.66-1.41-2.53-.38-.79-.7-1.67-.64-2.56.05-.83.55-1.5,1.21-1.97.76-.54,1.63-.94,2.47-1.34.98-.47,1.99-.86,3.07-1.02.2-.03.31-.28.26-.46-.06-.22-.26-.29-.46-.26h0Z"/>
      <path class="st0" d="M35.57,14.77c.84.43,1.79.9,2.29,1.74.57.97.3,2.14-.1,3.11-.44,1.09-1.06,2.13-1.7,3.12-.37.58-1.16,1.98-2.05,1.44-.33-.2-.52-.6-.64-.95-.18-.49-.27-1.02-.39-1.52-.29-1.23-.58-2.45-.83-3.69-.19-.93-.35-1.88-.53-2.81-.08-.39-.15-.78-.15-1.17,0-.23,0-.54.15-.64.47-.34,1.44.11,1.93.33.69.31,1.35.7,2.02,1.04.43.22.81-.43.38-.65-.69-.35-1.35-.74-2.05-1.06s-1.56-.68-2.33-.46c-.84.24-.9,1.12-.82,1.85.11.97.34,1.94.51,2.9.26,1.42.59,2.83.92,4.23.24,1,.37,2.31,1.19,3.05.38.35.9.49,1.41.37s.94-.52,1.27-.93c.83-1.03,1.49-2.26,2.08-3.44s1.12-2.68.62-4.01c-.47-1.25-1.66-1.93-2.79-2.5-.43-.22-.81.43-.38.65Z"/>
      <path class="st0" d="M18.07,13.43c3.92-1.21,8.15-1.2,12.06.02.46.14.66-.58.2-.72-4.04-1.25-8.42-1.26-12.46-.02-.46.14-.26.87.2.72h0Z"/>
      <path class="st0" d="M22.21,30c-.63-.18-1.27-.3-1.92-.4-.24-.04-.48-.08-.72-.13-.11-.02-.21-.05-.32-.08-.05-.01-.09-.03-.14-.05-.03,0-.05-.02-.08-.03-.06-.02.05.03-.04-.02s-.19-.09-.28-.15c-.05-.03-.1-.06-.14-.09-.03-.02-.05-.04-.08-.06.05.04-.01,0-.03-.02-.22-.19-.43-.4-.61-.63-.48-.61-.87-1.36-1.17-2.09-.37-.93-.64-1.9-.93-2.85-.14-.46-.86-.26-.72.2.52,1.73,1.01,3.54,2.09,5.02.36.49.77.95,1.31,1.24.44.24.92.35,1.4.43.73.12,1.46.24,2.17.44.47.13.66-.59.2-.72h0Z"/>
      <path class="st0" d="M26.84,30.65c.59-.16,1.19-.26,1.79-.4s1.11-.34,1.61-.62c.6-.34,1.15-.76,1.58-1.31s.73-1.13.99-1.75c.27-.68.47-1.38.66-2.08.13-.47-.6-.67-.72-.2-.32,1.18-.66,2.39-1.38,3.39-.35.49-.81.88-1.33,1.2-.49.3-.93.48-1.48.62-.64.16-1.28.26-1.91.43-.47.13-.27.85.2.72h0Z"/>
    </g>
  </g>
</svg>