<?xml version="1.0" encoding="UTF-8"?>
<svg id="_얼굴없는" data-name="얼굴없는" xmlns="http://www.w3.org/2000/svg" version="1.1" viewBox="0 0 50.83 48.47">
  <!-- Generator: Adobe Illustrator 29.8.2, SVG Export Plug-In . SVG Version: 2.1.1 Build 3)  -->
  <defs>
    <style>
      .st0 {
        fill: #231f20;
      }

      .st1 {
        fill: #888;
      }

      .st2 {
        fill: #faf6d8;
      }
    </style>
  </defs>
  <g>
    <g>
      <path class="st1" d="M35.21,32.51l.07-.39c-.76-.29-1.69-.05-2.23.56-.54.61-.64,1.57-.26,2.28.01.02.03.05.04.07-.06.17-.12.35-.18.52-.02.05-.03.09-.05.14-.18-1.36-.7-2.74-1.21-3.92-.15-.34-.35-1.03-.66-1.25-1.08-1.64-2.91-2.78-4.86-3-2.02-.23-4.12.5-5.56,1.93-2.51,2.5-4.47,11.26,1.33,10.97l.41-.44c.19.31.49.53.98.6,1.74.24,2.15-.84,2.25-2.14.1,1.29.51,2.37,2.25,2.14,1.77-.24,3.87-.38,4.73-1.96.21.46.52.86.48,1.23,1.29.22,2.53-.36,3.53-1.13.72-.55,1.29-1.52,1.53-2.4.57-2.11-1.04-3.84-2.59-3.82Z"/>
      <g>
        <path class="st2" d="M21.63,39.3c.01.06.03.12.04.18.04.13.08.27.13.39,0,.01,0,.01,0,.01,0,0,0,0,.01.02.01.03.03.06.04.1.02.04.04.08.06.11l.13-.13c.19.31.49.53.98.6,1.33.18,1.88-.41,2.11-1.28-1.17-.03-2.36-.01-3.51-.01Z"/>
        <path class="st2" d="M35.21,32.51l.07-.39c-.76-.29-1.69-.05-2.23.56-.54.61-.64,1.57-.26,2.28.01.02.03.05.04.07,0,0,0,.01,0,.02.19.03.36.14.44.37.04.11.1.22.15.27.05.05.09.07.15.09.11.03.12.03.26.01-.06,0,.11-.03.13-.04.04-.01.07-.03.12-.05.11-.06.24-.13.33-.22.06-.06.08-.11.1-.17.06-.21.05-.51.04-.79,0-.41.47-.69.82-.47,1.2.75.87,2.66.41,3.76-.39.92-1.1,1.65-1.96,2.06.9-.13,1.74-.58,2.46-1.13.72-.55,1.29-1.52,1.53-2.4.57-2.11-1.04-3.84-2.59-3.82Z"/>
        <path class="st2" d="M28.37,40.43c.09-.12.17-.24.25-.36.08-.12.16-.25.23-.37.03-.06.06-.12.09-.18.02-.03.03-.07.05-.1.01-.03.02-.07.03-.1-1.14.12-2.29.05-3.43,0-.06,0-.11,0-.17,0,.23.86.78,1.45,2.11,1.27.26-.04.53-.07.8-.11.01-.02.03-.03.04-.05Z"/>
      </g>
      <g>
        <path class="st0" d="M21.41,37c0,.63-.08,1.26-.05,1.89.04.68.23,1.37.81,1.78.32.23.73.3,1.11.32.36.02.73-.01,1.06-.15s.59-.35.8-.64c.18-.25.29-.54.36-.84.18-.73.17-1.5.16-2.24,0-.2-.17-.38-.38-.38s-.38.16-.38.38c0,.32,0,.64,0,.95,0,.16-.01.31-.03.47,0,.07-.01.14-.02.22,0,.03-.02.1,0-.02,0,.02,0,.04,0,.06,0,.04-.01.08-.02.11-.02.14-.06.28-.1.41-.02.06-.04.12-.06.18-.03.09.04-.08,0,0-.02.04-.03.07-.05.11-.03.05-.06.11-.09.16-.02.02-.03.04-.05.07-.04.05.06-.07.02-.02-.01.02-.03.03-.04.05-.04.04-.08.09-.13.13-.01,0-.02.02-.03.03-.03.03.08-.06.03-.02-.03.02-.06.04-.1.07-.05.03-.12.05-.17.09.05-.04.08-.03.04-.02-.02,0-.03.01-.05.02-.04.01-.08.03-.12.04-.07.02-.14.03-.21.04,0,0,.1-.01.04,0-.02,0-.04,0-.06,0-.05,0-.1,0-.14,0-.08,0-.17,0-.25,0-.05,0-.1,0-.15-.01-.03,0-.05,0-.08,0-.09-.01.08.01,0,0s-.15-.03-.23-.05c-.04-.01-.08-.03-.11-.04-.07-.02.08.04.02,0-.02,0-.03-.02-.05-.02-.06-.03-.11-.07-.17-.1s.07.06.02.02c-.01-.01-.03-.02-.04-.03-.03-.02-.05-.05-.07-.07-.02-.02-.04-.06-.07-.08.06.04.05.07.03.04,0-.01-.02-.03-.03-.04-.04-.06-.07-.12-.1-.18,0-.02-.01-.03-.02-.05-.03-.06.03.09.01.03,0-.03-.02-.05-.03-.08-.02-.07-.04-.14-.06-.21-.02-.07-.03-.13-.04-.2,0-.02,0-.04,0-.06.02.11,0,.06,0,.03,0-.04,0-.08-.01-.13-.06-.67.04-1.34.04-2.01,0-.2-.17-.38-.38-.38s-.37.16-.38.38h0Z"/>
        <path class="st0" d="M31.16,30.49c-1.32-2.09-3.69-3.43-6.17-3.38-2.15.04-4.33,1.08-5.58,2.86-.84,1.21-1.38,2.67-1.68,4.1s-.42,3.02.11,4.41c.27.7.7,1.32,1.33,1.74.72.48,1.61.62,2.47.59.48-.02.48-.77,0-.75-1.26.06-2.4-.37-2.97-1.54s-.51-2.55-.31-3.76c.22-1.35.66-2.68,1.35-3.86.9-1.55,2.45-2.57,4.21-2.91,2.55-.5,5.21.71,6.59,2.9.26.41.91.03.65-.38h0Z"/>
        <path class="st0" d="M28.4,37c0,.6.08,1.19.05,1.79,0,.07,0,.14-.01.22,0,.04,0,.07-.01.11,0,.02,0,.03,0,.05.01-.13,0-.03,0,0-.02.14-.05.28-.1.41,0,.03-.02.05-.03.08-.02.07.04-.09.01-.03,0,.02-.01.03-.02.05-.03.06-.06.12-.1.18,0,.01-.02.02-.02.03-.02.04-.04.02.02-.03-.02.02-.04.05-.07.08-.02.02-.04.04-.06.06-.01.01-.03.02-.04.03-.07.06.06-.04,0,0-.06.04-.11.07-.17.1-.03.02-.13.04-.01,0-.04.01-.09.03-.13.05-.08.02-.15.04-.23.05-.03,0-.04.02.03,0-.02,0-.06,0-.08,0-.06,0-.11.01-.17.01-.08,0-.17,0-.25,0-.04,0-.09,0-.13,0-.04,0-.17-.03-.05,0-.07-.02-.14-.02-.21-.04-.04,0-.07-.02-.11-.03-.02,0-.03-.01-.05-.02-.04-.02-.04-.04.02.01-.04-.04-.12-.06-.17-.09-.03-.02-.06-.04-.08-.06-.01,0-.06-.04,0,0s0,0-.01-.01c-.05-.04-.09-.08-.13-.13-.03-.03-.08-.12-.01-.01-.02-.03-.04-.05-.06-.08-.03-.05-.06-.1-.09-.16-.02-.03-.03-.06-.04-.09,0-.01,0-.02-.01-.03-.03-.06.04.1,0,0-.05-.13-.09-.26-.12-.39-.02-.08-.03-.16-.05-.24,0-.04-.01-.08-.02-.11-.01-.07.01.1,0,.02,0-.02,0-.05,0-.07-.02-.17-.03-.34-.04-.51-.02-.36-.01-.72-.01-1.08,0-.2-.17-.38-.38-.38s-.37.16-.38.38c0,.68,0,1.37.12,2.04.12.61.4,1.22.95,1.55.31.19.68.26,1.03.28.41.01.84-.04,1.21-.22.66-.31.91-1.01.98-1.68s-.03-1.4-.03-2.11c0-.2-.17-.38-.38-.38s-.38.16-.38.38h0Z"/>
        <path class="st0" d="M30.5,30.82c.14.08.22.3.29.44.09.2.15.4.23.6.13.32.27.64.39.97.27.73.5,1.47.66,2.23.26,1.24.42,2.82-.36,3.83-.49.63-1.28.89-2.06.95-.48.04-.48.79,0,.75.87-.07,1.73-.32,2.38-.94.54-.52.83-1.23.94-1.96.24-1.64-.21-3.36-.77-4.89-.15-.4-.33-.82-.48-1.21-.2-.49-.35-1.13-.84-1.42-.42-.25-.79.4-.38.65h0Z"/>
        <path class="st0" d="M37.02,33.93c.72.94.62,2.12.11,3.13-.26.51-.6.99-1.05,1.36s-.94.67-1.46.86c-.63.24-1.25.3-1.92.22-.2-.03-.38.19-.38.38,0,.22.17.35.38.38.66.08,1.33.03,1.96-.19s1.22-.56,1.75-.96.96-.92,1.28-1.5.55-1.24.59-1.92c.04-.75-.16-1.53-.62-2.12-.12-.16-.32-.25-.51-.13-.16.09-.26.35-.13.51h0Z"/>
        <path class="st0" d="M34.53,34.5s.01.06.02.09c0,.04,0-.03,0-.03,0,0,0,.04,0,.05,0,.03,0,.05,0,.08,0,.02,0,.04,0,.05,0,.05,0,0,0-.02-.01.02-.01.07-.02.09,0,.03-.02.06-.03.09,0,.01,0,.03-.01.04-.02.05.03-.06,0-.02-.02.03-.03.06-.05.09,0,.01-.05.07-.05.08,0,0,.05-.05.02-.02,0,0-.02.02-.03.03-.02.02-.04.05-.07.07,0,0-.03.02-.03.03.04-.03.04-.03.02-.02,0,0-.01.01-.02.02-.03.02-.05.03-.08.05-.01,0-.07.03-.07.04,0-.02.07-.02.01,0-.01,0-.03,0-.04.01-.03.01-.07.02-.1.03-.02,0-.04,0-.05.01-.04,0,.03,0,.03,0-.02,0-.08,0-.09,0-.03,0-.06,0-.09,0-.01,0-.06,0,0,0,.06,0-.02,0-.03,0-.03,0-.05-.01-.08-.02-.02,0-.1-.03-.06-.02s-.04-.02-.05-.03c-.03-.02-.06-.04-.09-.05-.02,0-.05-.04-.07-.05.03,0,.05.04.01,0,0,0-.02-.02-.03-.03-.05-.05-.1-.1-.14-.15s.04.06-.02-.02c-.02-.03-.04-.05-.05-.08-.03-.05-.06-.11-.09-.16-.01-.03-.03-.06-.04-.08-.02-.04.01.03.01.03,0-.01-.01-.04-.02-.05-.02-.06-.04-.12-.06-.17s-.03-.12-.04-.18c0-.02,0-.04,0-.05,0,0,0,.08,0,.03,0-.03,0-.07,0-.1,0-.12,0-.24,0-.37,0-.04,0,.03,0,.03,0-.02,0-.04,0-.05,0-.03.01-.06.02-.09.01-.06.03-.12.05-.18s.04-.12.06-.17c.02-.04-.01.03-.01.03,0-.01.02-.04.02-.05.01-.03.03-.06.05-.09.03-.05.06-.1.09-.15.02-.03.03-.05.05-.08,0,0,.03-.04,0,0-.04.04.01-.01.02-.02.04-.04.07-.08.11-.12s.12-.08.14-.13c0,0-.07.05-.01.01.01,0,.02-.02.03-.02.02-.02.05-.03.07-.05.05-.03.1-.06.16-.09.03-.02.06-.03.09-.05.01,0,.03-.01.05-.02-.02.01-.06.03-.02,0,.06-.02.13-.05.19-.07s.13-.03.2-.05c.01,0,.03,0,.04,0,.06,0,.03,0-.01,0,.03,0,.07,0,.1,0,.07,0,.14,0,.21,0,.03,0,.06,0,.09,0,.02,0,.03,0,.05,0,.01,0,.07,0,.01,0s0,0,.01,0c.02,0,.03,0,.05,0,.03,0,.07.01.1.02.07.02.14.04.21.06.18.07.42-.08.46-.26.05-.21-.06-.39-.26-.46-.6-.22-1.26-.15-1.83.1s-1.02.76-1.23,1.36-.17,1.27.1,1.85c.29.62.92,1.1,1.64,1,.41-.06.77-.27,1-.62s.29-.77.19-1.15c-.05-.19-.27-.32-.46-.26s-.31.26-.26.46h0Z"/>
        <path class="st0" d="M36.4,32.04c0,.07,0,.13-.02.19v-.1c-.01.17-.06.34-.12.5l.04-.09c-.03.06-.05.12-.09.18-.05.09-.06.19-.04.29.01.05.03.09.07.13.03.04.06.07.11.1.09.05.19.07.29.04.09-.03.18-.09.22-.17.18-.33.28-.69.29-1.06,0-.05,0-.1-.03-.14-.02-.05-.04-.09-.08-.12-.03-.04-.07-.06-.12-.08-.04-.02-.09-.03-.14-.03-.1,0-.2.04-.27.11l-.06.08c-.03.06-.05.12-.05.19h0Z"/>
      </g>
    </g>
    <g>
      <path class="st2" d="M17.63,33.79c.03.15.09.32.23.35.1.02.2-.03.28-.08.26-.17.48-.37.67-.61.21.57.49,1.11.84,1.61.18.25.4.52.71.56s.65-.28.51-.56c1.32,1.31,3.65.97,5.09,2.15.32-.82,1.28-1.15,2.12-1.4.54-.16,1.08-.36,1.53-.71.08-.06.8-.87.73-.89.62.22,1.34-.03,1.77-.53s.59-1.18.55-1.83c-.11-1.58-1.97-2.77-3.24-3.5-1.5-.87-3.22-1.31-4.93-1.45-1.63-.13-3.55-.14-4.45,1.5-.35.63-.86.92-1.33,1.48-.89,1.07-1.31,2.54-1.06,3.92Z"/>
      <g>
        <path class="st0" d="M19.65,28.48c-1.06.5-1.77,1.43-2.13,2.53s-.62,2.34-.05,3.37c.09.17.23.33.44.33.18,0,.34-.1.48-.19.13-.09.26-.19.38-.29.06-.06.12-.11.18-.18.04-.04.08-.12.12-.14l-.19.05h-.02c-.06-.04-.11-.07-.17-.1-.03-.02-.01-.09-.02-.04-.01.04.02.15.03.2.03.11.07.22.12.33.09.22.21.43.34.63.24.36.56.83.97,1,.19.08.4.06.51-.13.09-.16.05-.43-.13-.51-.05-.02-.1-.05-.15-.08-.08-.06.05.05-.03-.02-.03-.02-.05-.05-.08-.07-.11-.1-.22-.24-.29-.33-.1-.14-.2-.28-.28-.43-.04-.07-.08-.15-.12-.23-.02-.04-.04-.07-.05-.11,0-.02-.02-.04-.02-.05.01.03.01.03,0,0-.02-.06-.04-.12-.06-.18,0-.03-.01-.06-.02-.09.03.12,0-.07-.01-.09-.05-.26-.25-.46-.52-.44s-.42.27-.6.44c-.15.14-.32.27-.51.35l.19-.05h-.05c.06.02.13.04.19.05.06.08.07.08.03.01-.02-.03-.04-.06-.05-.1-.02-.04-.03-.07-.05-.11-.04-.12-.08-.24-.1-.37-.04-.22-.04-.45-.02-.68.03-.51.17-1.01.32-1.49s.36-.93.68-1.3.69-.64,1.12-.84c.18-.09.23-.35.13-.51-.11-.19-.33-.22-.51-.13h0Z"/>
        <path class="st0" d="M20.57,35.27c.24.33.56.51.93.66s.71.28,1.08.39c.63.2,1.3.25,1.92.47.04.01.07.03.11.04-.07-.03.04.02.06.03.08.04.15.08.22.12.04.02.07.05.1.07-.06-.04.02.02.03.03.07.06.13.13.19.2.12.15.4.14.53,0,.15-.16.13-.37,0-.53-.41-.51-1.06-.73-1.67-.86-.3-.07-.61-.12-.91-.19-.39-.1-.76-.23-1.13-.37-.09-.04-.18-.07-.28-.11-.02,0-.03-.01-.05-.02.05.02,0,0-.02-.01-.04-.02-.08-.03-.11-.05-.08-.04-.16-.09-.24-.14.05.04-.03-.03-.04-.04-.02-.02-.03-.03-.05-.05,0-.01-.05-.07-.02-.02-.11-.16-.33-.25-.51-.13-.16.1-.26.34-.13.51h0Z"/>
        <path class="st0" d="M26.06,37.6c.05-.09.11-.18.17-.26.04-.05-.03.04,0-.01.02-.02.03-.04.05-.06.04-.05.08-.09.12-.13.07-.07.15-.14.23-.2-.05.04.06-.04.07-.05.04-.03.09-.06.13-.09.09-.05.17-.1.26-.15.04-.02.08-.04.13-.06.02,0,.04-.02.06-.03.11-.05-.07.03.04-.02.19-.08.38-.14.58-.2.41-.12.82-.22,1.22-.4s.78-.48,1.06-.83c.35-.44.57-.94.63-1.49.02-.2-.19-.38-.38-.38-.22,0-.35.17-.38.38,0,.08,0,.03,0,.01,0,.03,0,.05-.01.08,0,.05-.02.1-.03.15s-.03.1-.04.14c0,.02-.02.05-.03.07,0,0-.05.11-.02.05-.04.09-.09.18-.14.26-.03.04-.05.08-.08.12-.01.02-.03.04-.04.06-.07.1.04-.05-.03.04-.12.14-.3.32-.4.4-.09.06-.18.12-.27.18-.04.02-.08.05-.13.07-.02.01-.04.02-.06.03,0,0-.09.04-.05.02s-.03.01-.04.01c-.02,0-.04.02-.07.02-.04.02-.09.03-.13.05-.09.03-.19.06-.28.09-.2.06-.39.11-.59.17-.4.12-.81.28-1.16.51-.42.27-.78.62-1.03,1.06-.1.17-.05.42.13.51s.41.05.51-.13h0Z"/>
        <path class="st0" d="M31.37,34.56c1.12-.66,1.72-2.01,1.47-3.28-.23-1.17-1.32-1.93-2.25-2.55-2.36-1.57-5.27-2.34-8.09-2.07-1.23.12-2.69.56-3.02,1.91-.12.47.61.67.72.2.23-.95,1.34-1.26,2.2-1.35,1.2-.13,2.42-.06,3.6.19s2.34.68,3.41,1.28c.53.3,1.04.64,1.53,1.01.35.27.7.56.93.94.64,1.04.14,2.48-.88,3.08-.42.24-.04.89.38.65h0Z"/>
      </g>
    </g>
  </g>
  <g>
    <g>
      <path class="st1" d="M37.23,23.24c-.11-.52-.28-1.04-.39-1.56-.14-.69-.18-1.35-.56-1.97-.09-.14-.19-.3-.21-.46-.21-.21-.25-.57-.23-.88.03-.44.14-.87.15-1.31.04-1.02-.08-2.07-.16-3.09-.07-.94-.16-2.01-.56-2.88-.22-.47-.61-.84-.97-1.22-.23.09-.46.16-.68.26-1.57.72-2.78,2.28-3.55,3.78-.11.21-.4.31-.62.25-.36-.1-.66-.31-1.01-.41-.1-.03-.17-.07-.23-.13-2.61-.69-5.34-.71-7.97-.07-.02.02-.03.04-.05.05-.1.25-.42.38-.69.3-.52.2-1.11.4-1.6.17-.4-.19-.54-.6-.77-.94-.29-.45-.59-.88-.93-1.28-.61-.72-1.44-1.63-2.33-2-.64-.26-1.08.26-1.49.72-.54,1.42-.51,3.01-.41,4.54.08,1.13.23,2.26.44,3.37.14.74.41,1.49.19,2.24,0,.01-.01.01-.02.02-.01.08-.03.16-.06.24-.02.06-.07.1-.11.15,0,.03,0,.05,0,.08-.08.29-.16.58-.26.86-.03.07-.06.13-.1.18-.09,1.27-.49,2.43-1.25,3.52-.52.74.19,1.63.93,1.69-.04.01-.07.02-.11.03-.47.75.16,1.64.93,1.69,1.11.07,1.95,1.16,2.79,1.81.96.75,1.98,1.12,3.16,1.31,2.76.45,5.86.38,8.66.3,2.43-.07,4.76-.39,6.7-1.69.78-.53,1.29-1.33,2.23-1.58.77-.21,1.32.16,1.48-1.08.03-.21.04-.39,0-.6.28-.14.52-.41.6-.71.37-1.42-.01-1.36-.65-2.49-.2-.35-.22-.8-.3-1.18Z"/>
      <path class="st2" d="M33.05,24.73c-.04-2.8-1.73-5.05-3.81-5.05-1.69,0-3.1,1.49-3.61,3.54-.39-.01-.78-.02-1.18-.02h0s-.03,0-.04,0-.03,0-.04,0h0c-.39,0-.79,0-1.18.02-.5-2.05-1.92-3.54-3.61-3.54-2.08,0-3.77,2.25-3.81,5.05-1.23.77-1.85,1.88-1.47,3.49.64,2.68,4.5,5,10.06,5.02h0s.03,0,.04,0,.03,0,.04,0h0c5.56-.02,9.42-2.34,10.06-5.02.38-1.61-.24-2.72-1.47-3.49Z"/>
      <path class="st2" d="M14.12,12.16s-.08,0-.12.02c-.57.21-.49,1.55-.52,2.01-.05.87.08,1.66.24,2.5.03.16.14.33.3.33.12,0,.21-.1.29-.19.31-.35.64-.67.99-.98.26-.22.65-.4.87-.66.21-.24-.1-.71-.22-.93-.27-.49-.58-.97-.96-1.38-.2-.22-.55-.72-.89-.73Z"/>
      <path class="st2" d="M33.98,12.52c-.25-.5-.75-.36-1.06.16-.3.51-.5,1.06-.73,1.6-.27.63-.69.95.11,1.36.4.21.81.41,1.21.62.07.03.13.07.21.07.16.01.3-.11.36-.25.42-.95.25-2.42-.04-3.38-.02-.07-.04-.13-.07-.18Z"/>
    </g>
    <g>
      <g>
        <path class="st0" d="M15.46,16.28c1.54-1.48,3.68-2.22,5.75-2.55,2.4-.38,4.92-.19,7.23.55,1.31.42,2.54,1.04,3.64,1.86.39.29.76-.36.38-.65-2.07-1.54-4.59-2.35-7.14-2.61s-5,.01-7.28.93c-1.14.46-2.22,1.08-3.12,1.94-.35.33.18.86.53.53h0Z"/>
        <path class="st0" d="M13.62,17.46c-1.1,1.23-1.52,2.96-1.89,4.53-.19.78-.25,1.6-.52,2.36-.13.36-.32.68-.57.97s-.5.6-.51,1.01c-.03.9.9,1.03,1.45,1.48l-.1-.36c-.23.6-.38,1.34.13,1.84.42.42,1.08.42,1.62.36.47-.05.48-.8,0-.75-.32.04-.78.1-1.06-.11-.34-.27-.09-.83.03-1.14.04-.11,0-.29-.1-.36-.31-.25-.67-.38-.99-.59-.36-.24-.22-.51.03-.8.31-.36.55-.73.73-1.17s.27-.9.36-1.36c.18-.94.39-1.86.66-2.78s.62-1.85,1.26-2.58c.32-.36-.21-.89-.53-.53h0Z"/>
        <path class="st0" d="M13.75,30.04c1.3,1.79,3.55,2.3,5.63,2.55.64.08,1.28.12,1.92.17.2.01.38-.18.38-.38,0-.21-.17-.36-.38-.38-1.05-.07-2.1-.16-3.14-.36-.94-.18-1.87-.46-2.68-.98-.42-.27-.79-.61-1.08-1.01-.12-.16-.33-.24-.51-.13-.16.09-.25.35-.13.51h0Z"/>
        <path class="st0" d="M36.02,29.52c.69.1,1.38-.18,1.75-.79s.32-1.39-.07-1.95l-.32.56c.86-.02,1.41-.83,1.27-1.65-.08-.45-.35-.75-.64-1.09s-.31-.73-.37-1.15c-.27-1.8-.9-3.55-1.83-5.11-.25-.41-.89-.04-.65.38.8,1.35,1.36,2.83,1.66,4.38.07.37.1.74.18,1.11.08.39.27.69.53.99.22.25.43.5.39.85-.03.29-.25.54-.55.55-.26,0-.5.32-.32.56.23.33.3.76.11,1.13-.17.33-.57.56-.94.51-.2-.03-.4.05-.46.26-.05.18.06.43.26.46h0Z"/>
        <path class="st0" d="M34.85,29.43c-.63,1.07-1.76,1.68-2.9,2.1-1.26.47-2.57.65-3.9.47-.2-.03-.38.19-.38.38,0,.23.17.35.38.38,1.11.15,2.24.06,3.33-.25s2.11-.73,2.97-1.4c.46-.36.86-.79,1.15-1.3.25-.42-.4-.79-.65-.38h0Z"/>
      </g>
      <path class="st0" d="M30.34,14.2c.48-.96,1.11-1.86,1.82-2.66.35-.4.75-.8,1.17-1.08.1-.06.19-.12.3-.17.02-.01.13-.06.07-.04.05-.02.1-.04.16-.06.05-.01.09-.02.14-.03.09-.02-.04,0,.07,0,.04,0,.08,0,.12,0,.07,0,0,0-.01,0,.03,0,.06.01.08.02.07.02.07.03.03,0,.03.02.06.03.09.05.03.02.05.03.08.05-.09-.07.02.02.04.04.03.03.05.05.08.08.02.02.08.1.02.03.05.07.1.15.15.23s.08.16.12.24c.01.02.02.05.03.08.02.05-.02-.05,0,0,.02.06.05.12.07.18.08.21.14.43.2.65.27,1.02.37,2,.45,3.04.07.93.1,1.87.08,2.8,0,.48.74.48.75,0,.02-.86-.01-1.73-.07-2.59-.07-1.12-.19-2.25-.46-3.34-.19-.76-.49-1.8-1.24-2.18-.98-.49-2.03.42-2.68,1.07-.92.92-1.73,2.04-2.31,3.21-.21.43.43.81.65.38h0Z"/>
      <path class="st0" d="M31.97,15.27c.05-.21.12-.41.19-.61.02-.05.04-.1.06-.15.01-.03.02-.05.03-.08,0-.01,0-.02.01-.03,0,.02-.03.07,0,.02.04-.1.09-.2.14-.3.19-.38.41-.75.67-1.09,0,0,.01-.02.02-.03-.06.08-.02.03,0,0,.02-.02.03-.04.05-.07.04-.05.08-.09.12-.14.08-.09.17-.19.25-.28.14-.14.15-.39,0-.53s-.39-.15-.53,0c-.65.68-1.15,1.47-1.49,2.35-.09.23-.17.47-.23.71-.05.19.06.42.26.46s.41-.06.46-.26h0Z"/>
      <path class="st0" d="M11.51,13.11c-.08,1.02-.05,2.04.04,3.06s.26,2.06.58,3.04c.06.19.26.32.46.26.19-.05.32-.27.26-.46-.3-.94-.47-1.92-.56-2.89s-.11-2.01-.04-3.01c.02-.2-.18-.38-.38-.38-.22,0-.36.17-.38.38h0Z"/>
      <path class="st0" d="M17.97,13.89c-.2-.41-.46-.79-.72-1.16-.37-.53-.78-1.05-1.22-1.53-.41-.45-.87-.89-1.39-1.22-.43-.28-.97-.49-1.49-.35-.7.18-1.02.92-1.18,1.56-.05.2.06.41.26.46s.41-.06.46-.26c.04-.16.1-.32.15-.48.02-.05-.03.06,0,.02,0-.01.01-.03.02-.04.01-.03.03-.06.05-.1.03-.06.06-.11.1-.17,0-.01.03-.06.05-.07,0,0-.06.07-.02.03,0,0,.02-.02.02-.03.04-.04.08-.07.12-.11.03-.03-.08.05,0,0,.02-.01.04-.03.06-.04.02-.01.04-.02.06-.03.06-.03-.1.03,0,0,.04-.01.09-.02.13-.03.08-.02-.07,0-.02,0,.03,0,.05,0,.08,0,.04,0,.09,0,.13,0,.05,0-.1-.02-.02,0,.03,0,.06.01.09.02.05.01.09.02.14.04.03,0,.05.02.08.03.1.04-.04-.02,0,0,.11.05.21.11.32.17.11.07.22.15.32.22.02.01.05.04-.02-.02.01,0,.02.02.04.03.02.02.05.04.07.06.06.05.11.09.17.14.23.2.44.41.64.63s.41.46.6.7c.05.06.09.12.14.17.01.02.04.06-.01-.01.01.01.02.03.03.04.03.03.05.07.08.1.08.11.17.23.25.34.28.4.57.82.78,1.26.09.18.35.23.51.13.19-.11.22-.33.13-.51h0Z"/>
      <path class="st0" d="M16.41,15.14c-.23-.88-.64-1.71-1.19-2.43-.17-.22-.34-.43-.53-.62-.14-.14-.4-.15-.53,0s-.15.38,0,.53.29.31.42.48c.06.07-.03-.04,0,0,.01.02.03.04.04.06.03.05.07.09.1.14.06.09.12.18.18.27.11.18.22.36.32.55.05.1.1.19.14.29,0,.02.02.04.03.07,0,.01,0,.02.01.03,0,0-.03-.07-.01-.03.02.05.04.1.06.16.09.23.16.46.23.7.05.19.27.32.46.26s.32-.26.26-.46h0Z"/>
    </g>
  </g>
</svg>