<?xml version="1.0" encoding="UTF-8"?>
<svg id="_얼굴없는" data-name="얼굴없는" xmlns="http://www.w3.org/2000/svg" version="1.1" viewBox="0 0 50.83 48.47">
  <!-- Generator: Adobe Illustrator 29.8.2, SVG Export Plug-In . SVG Version: 2.1.1 Build 3)  -->
  <defs>
    <style>
      .st0 {
        fill: #231f20;
      }

      .st1 {
        fill: #fff;
      }

      .st2 {
        fill: #ef4668;
      }
    </style>
  </defs>
  <g>
    <path class="st1" d="M33.27,35.76s.02.05.04.07c.26-.79.39-1.62.25-2.44-.01-.09,0-.17.02-.25-.09-.47-.16-.94-.24-1.41-.23-.88-.56-1.73-.89-2.5-.14-.32-.33-.98-.63-1.18-1.03-1.56-2.77-2.64-4.62-2.86-1.92-.22-3.92.47-5.29,1.84-2.38,2.38-4.25,10.71,1.26,10.43l.39-.42c.19.29.47.51.93.57,1.65.22,2.05-.8,2.14-2.03.09,1.23.49,2.26,2.14,2.03,1.68-.23,3.68-.36,4.5-1.86Z"/>
    <g>
      <path class="st0" d="M22.93,34.2c0,.6-.08,1.2-.04,1.8.04.66.22,1.32.78,1.71.31.22.7.28,1.07.31.34.02.7-.01,1.01-.14s.57-.34.78-.62c.17-.24.28-.52.35-.8.17-.7.16-1.43.16-2.14,0-.2-.17-.38-.38-.38s-.38.16-.38.38c0,.3,0,.6,0,.91,0,.15-.01.3-.03.45,0,.07-.01.14-.02.21,0,.03-.02.1,0-.03,0,.02,0,.04,0,.05,0,.04-.01.07-.02.11-.02.13-.05.26-.09.39-.02.06-.04.12-.06.17-.03.09.04-.08,0,0-.02.03-.03.07-.05.1-.03.05-.06.1-.09.15-.01.02-.03.04-.04.06-.04.05.06-.08.02-.03-.01.02-.03.03-.04.05-.04.04-.08.08-.12.12,0,0-.02.02-.03.02-.03.03.08-.06.03-.03-.03.02-.06.04-.09.06-.05.03-.11.05-.16.08.07-.05.08-.03.04-.02-.02,0-.03.01-.05.02-.04.01-.08.03-.12.04-.07.02-.14.03-.2.04,0,0,.1-.01.04,0-.02,0-.04,0-.06,0-.05,0-.09,0-.14,0-.08,0-.16,0-.24,0-.05,0-.1,0-.14-.01-.03,0-.05,0-.08,0-.09-.01.08.01,0,0-.07-.01-.15-.03-.22-.05-.04-.01-.07-.02-.11-.04-.07-.02.09.04.02,0-.02,0-.03-.01-.05-.02-.06-.03-.11-.06-.16-.1-.06-.04.07.06.02.02-.01-.01-.03-.02-.04-.03-.02-.02-.05-.04-.07-.07s-.04-.05-.06-.07c.06.06.05.06.03.04,0-.01-.02-.03-.03-.04-.04-.05-.07-.11-.1-.17,0-.01-.01-.03-.02-.04-.03-.06.03.09.01.03,0-.03-.02-.05-.03-.08-.02-.06-.04-.13-.06-.2-.02-.06-.03-.13-.04-.19,0-.02,0-.04,0-.05.02.12,0,.07,0,.04,0-.04,0-.08-.01-.12-.06-.64.03-1.27.03-1.91,0-.2-.17-.38-.38-.38s-.37.16-.38.38h0Z"/>
      <path class="st0" d="M32.24,28.01c-1.26-2-3.54-3.28-5.91-3.22-2.05.05-4.11,1.04-5.3,2.73-.8,1.15-1.31,2.54-1.6,3.9s-.4,2.89.12,4.22c.26.67.68,1.27,1.29,1.66.68.45,1.52.58,2.33.54.48-.02.48-.77,0-.75-1.19.05-2.26-.35-2.81-1.45s-.48-2.4-.29-3.55c.21-1.28.63-2.56,1.29-3.68.86-1.47,2.34-2.45,4.02-2.77,2.41-.46,4.92.69,6.22,2.75.26.41.91.03.65-.38h0Z"/>
      <path class="st0" d="M29.58,34.2c0,.57.07,1.14.05,1.71,0,.07,0,.14-.01.21,0,.03,0,.07-.01.1,0,.02,0,.03,0,.05.01-.13,0-.04,0-.01-.02.13-.05.26-.09.39,0,.03-.02.05-.03.08-.02.06.04-.09.01-.03,0,.01-.01.03-.02.04-.03.06-.06.11-.1.17,0,.01-.02.02-.02.03-.02.03-.04.03.02-.03-.02.02-.04.05-.06.07-.02.02-.04.04-.06.06-.01.01-.02.02-.04.03-.07.06.06-.04.01,0s-.1.07-.16.1c-.03.02-.13.04,0,0-.04.01-.08.03-.12.04-.07.02-.14.04-.22.05-.04,0-.02-.01.03,0-.02,0-.06,0-.08,0-.05,0-.11.01-.16.01-.08,0-.16,0-.24,0-.04,0-.08,0-.13,0-.04,0-.17-.03-.04,0-.07-.01-.13-.02-.2-.04-.03,0-.07-.02-.1-.03-.02,0-.03-.01-.05-.02-.04-.01-.05-.05.03.01-.05-.03-.11-.05-.16-.08-.03-.02-.05-.03-.08-.05-.01,0-.06-.04,0,0s0,0-.01-.01c-.04-.04-.08-.08-.12-.12-.03-.03-.08-.12-.01,0-.02-.03-.04-.05-.05-.08-.03-.05-.06-.1-.09-.15-.01-.03-.03-.06-.04-.09,0,0,0-.02-.01-.03-.03-.06.04.1,0,.01-.05-.12-.09-.25-.11-.38-.02-.08-.03-.15-.05-.23,0-.04-.01-.07-.02-.11-.01-.07.01.1,0,.03,0-.02,0-.04,0-.07-.02-.16-.03-.32-.04-.49-.02-.34-.01-.68-.01-1.02,0-.2-.17-.38-.38-.38s-.37.16-.38.38c0,.65,0,1.31.11,1.95.11.59.38,1.17.92,1.49.3.18.65.25.99.26.39.01.8-.04,1.16-.21.63-.3.87-.97.94-1.61s-.02-1.34-.03-2c0-.2-.17-.38-.38-.38s-.38.16-.38.38h0Z"/>
      <path class="st0" d="M31.59,28.34c.26.16.37.7.49.98.12.3.25.6.37.93.26.69.48,1.4.63,2.12.14.67.23,1.36.18,2.05-.02.29-.07.57-.17.88-.07.23-.22.52-.36.69-.46.59-1.19.84-1.95.9-.48.04-.48.79,0,.75.83-.07,1.66-.31,2.27-.9.51-.49.8-1.18.9-1.87.23-1.57-.2-3.2-.73-4.67-.14-.38-.32-.8-.46-1.15-.19-.47-.34-1.08-.81-1.36-.42-.25-.79.4-.38.65h0Z"/>
    </g>
  </g>
  <g>
    <path class="st1" d="M21.43,11.89c2.24-.86,4.71-.87,7.09-.56,1.46.19,2.94.51,4.23,1.26.7.41,1.24,1.11,1.96,1.42.95.41,1.64.43,2.45,1.26,2.07,2.15,3.34,5.08,3.51,8.1.05.99-.05,1.98-.46,2.89-.12.26-1.11,1.78-1.58.96-.05-.09-.1-.17-.15-.26-.29.29-.66.48-1.06.55-.31.06-.75-.09-.71-.41-.44.54-1.37.52-1.78-.04-.79,1.5-2.31,1.76-3.79,1.87-1.82.14-3.67.16-5.51.19-1.75.03-3.52-.04-5.22-.47-1.04-.26-1.66-1.07-2.56-1.44-.49-.2-.56.01-1.04.03-.06,0-.96-.08-.87-.13-.8.39-1.8.34-2.55-.14-.91-.57-1.4-1.67-1.52-2.75s.1-2.18.35-3.24c.37-1.59.82-3.2,1.76-4.52.45-.63,1.02-1.19,1.68-1.58.71-.43,1.42-.36,2.13-.63,1.25-.48,2.27-1.82,3.65-2.35Z"/>
    <path class="st2" d="M27.27,10.27c-.56.25-1.06.62-1.45,1.1-.42-.68-1.5-2-2.08-.93-.27.49-.01,1.58.16,2.07.03.08.06.16.14.2.07.04.16.02.24,0,.34-.11.66-.31.9-.58.14-.16.29-.35.5-.35.13,0,.24.09.35.17.47.36,2.33,1.5,2.17.31-.08-.58-.2-1.16-.35-1.73-.03-.11-.07-.24-.17-.3-.11-.07-.26-.02-.38.03,0,0-.02,0-.03.01Z"/>
    <g>
      <path class="st0" d="M17.34,19.45c-1.3,2.76-1.7,7.31,1.44,9.04,1.2.66,2.6.82,3.94.82.48,0,.48-.75,0-.75-1.8,0-3.88-.32-4.89-2-.77-1.28-.82-2.91-.57-4.35.14-.82.38-1.63.73-2.38.2-.43-.44-.82-.65-.38h0Z"/>
      <path class="st0" d="M30.53,29.3c1.42.07,2.89-.2,4.02-1.11s1.67-2.46,1.76-3.92c.08-1.24-.13-2.49-.45-3.68-.13-.47-.85-.27-.72.2.46,1.7.71,3.62.03,5.3-.44,1.1-1.32,1.89-2.44,2.23-.72.22-1.46.27-2.21.23-.48-.02-.48.73,0,.75h0Z"/>
      <path class="st0" d="M18.04,13.99c-2.28-.44-3.97,1.48-5.01,3.25s-1.68,3.86-1.68,5.94c0,1.16.21,2.33.65,3.41.18.44.91.25.72-.2-.71-1.73-.78-3.63-.37-5.44s1.27-3.66,2.55-5.02c.75-.79,1.81-1.43,2.94-1.21.47.09.67-.63.2-.72h0Z"/>
      <path class="st0" d="M12.95,24.02c-.07,1.2.29,2.45,1,3.42.06.08.12.14.22.17.09.02.21.01.29-.04.16-.1.26-.34.13-.51-.17-.23-.31-.47-.44-.72-.03-.06-.06-.13-.09-.2,0-.02-.01-.03-.02-.05.02.05.02.05,0,.01-.01-.03-.03-.07-.04-.1-.05-.13-.09-.26-.13-.39s-.07-.26-.1-.4c-.01-.07-.03-.14-.04-.21,0-.04-.02-.07-.02-.11,0,.11,0-.01,0-.04-.03-.28-.04-.56-.02-.85.01-.2-.18-.38-.38-.38-.21,0-.36.16-.38.38h0Z"/>
      <path class="st0" d="M14.78,24.55c0,.76.25,1.53.71,2.14.14.18.28.35.45.51.15.13.39.15.53,0,.13-.14.16-.39,0-.53-.14-.12-.26-.26-.37-.4l.06.08c-.17-.22-.31-.46-.42-.72l.04.09c-.11-.27-.19-.55-.23-.84v.1c0-.14-.01-.28-.01-.42,0-.2-.17-.38-.38-.38s-.38.16-.38.38h0Z"/>
      <path class="st0" d="M34.78,14.34c1.97-.11,3.25,1.67,3.99,3.26.85,1.81,1.64,3.85,1.68,5.87.02,1.09-.19,2.18-.74,3.14-.24.42.41.8.65.38,1.12-1.93.98-4.26.38-6.33-.32-1.09-.74-2.15-1.2-3.19-.44-.98-.97-1.94-1.77-2.68s-1.86-1.26-2.99-1.2c-.48.03-.48.78,0,.75h0Z"/>
      <path class="st0" d="M36.95,24.2c.04.43.04.86,0,1.28,0,.05-.01.11-.02.16,0,.07.01-.08,0,0,0,.03,0,.06-.01.09-.02.11-.04.22-.07.33-.02.1-.05.2-.09.3-.02.05-.03.1-.05.14,0,.02-.04.09-.01.04s-.01.03-.02.04c-.05.1-.1.2-.16.29-.01.02-.03.04-.05.07,0,0-.01.02-.02.02-.04.06.04-.05.02-.02-.04.04-.07.09-.11.13-.14.14-.15.39,0,.53s.39.15.53,0c.66-.69.82-1.75.84-2.66,0-.25,0-.5-.03-.75,0-.1-.04-.19-.11-.27-.07-.07-.17-.11-.27-.11-.19,0-.39.17-.38.38h0Z"/>
      <path class="st0" d="M38.57,24.63c.03.34.02.68-.03,1.02v-.1c-.04.38-.13.75-.28,1.11l.04-.09c-.06.14-.13.28-.21.41-.1.17-.04.42.13.51s.4.04.51-.13c.38-.64.56-1.4.59-2.14,0-.2,0-.39-.01-.59,0-.1-.04-.19-.11-.27-.07-.07-.17-.11-.27-.11-.19,0-.39.17-.38.38h0Z"/>
      <path class="st0" d="M19.01,13.57s.07-.06.11-.09c.02-.01.04-.03.05-.04-.03.02-.03.02,0,0,.07-.06.15-.11.23-.16.15-.11.31-.21.47-.3s.32-.18.49-.27c.08-.04.17-.08.25-.12.04-.02.08-.04.13-.06-.07.03.04-.02.05-.02.34-.14.69-.25,1.04-.33.18-.04.36-.08.54-.11.05,0,.09-.01.14-.02.04,0,.05,0,0,0,.02,0,.05,0,.07,0,.09-.01.18-.02.28-.03.19-.02.38-.16.38-.38,0-.19-.17-.39-.38-.38-1.24.1-2.44.49-3.5,1.15-.31.19-.6.41-.88.64-.15.13-.14.4,0,.53.16.15.37.13.53,0h0Z"/>
      <path class="st0" d="M28.74,11.79c.68.03,1.31.14,1.99.37.62.21,1.22.52,1.8.91.31.21.59.44.88.73.15.14.39.14.53,0s.15-.39,0-.53c-1.07-1.04-2.44-1.77-3.9-2.07-.43-.09-.86-.14-1.29-.16-.2,0-.38.18-.38.38,0,.21.16.37.38.38h0Z"/>
      <path class="st0" d="M26.16,11.15c-.15-.2-.31-.39-.49-.56s-.38-.32-.58-.45c-.1-.07-.21-.13-.32-.18-.09-.05-.19-.07-.29-.04-.09.02-.18.09-.22.17-.05.09-.07.19-.04.29.03.09.09.18.17.22.2.1.39.22.57.36l-.08-.06c.24.19.46.41.65.65l-.06-.08s.03.03.04.05c.02.04.06.08.1.11.04.03.08.06.13.07.09.02.21.01.29-.04s.15-.13.17-.22.02-.21-.04-.29h0Z"/>
      <path class="st0" d="M23.28,10.64c0,.62.08,1.24.22,1.84.03.15.07.3.14.44.08.17.25.3.43.35.35.08.67-.1.93-.31s.52-.44.77-.66c.07-.06.11-.18.11-.27s-.04-.2-.11-.27-.17-.11-.27-.11-.19.04-.27.11c-.27.23-.53.46-.8.68l.08-.06c-.08.06-.17.12-.26.16l.09-.04s-.09.03-.14.04h.1s-.07,0-.1-.01h.1s-.05,0-.07,0l.09.04s-.04-.02-.07-.04l.08.06s-.04-.04-.06-.06l.06.08s-.04-.06-.05-.09l.04.09c-.06-.16-.09-.33-.12-.5-.04-.18-.07-.36-.09-.54v.1c-.03-.34-.06-.69-.06-1.03,0-.2-.17-.38-.38-.38s-.38.16-.38.38h0Z"/>
      <path class="st0" d="M26.37,11.69c.15-.15.31-.3.47-.45.08-.07.16-.14.24-.2.04-.03.08-.07.12-.1.02-.02.04-.03.06-.05.03-.02.03-.02-.01.01.01-.01.03-.02.04-.03.08-.06.17-.12.25-.18.04-.03.08-.06.12-.08.02-.01.1-.04,0,0,.04-.01.03-.01-.03,0,.04,0,.03,0-.03,0l-.05-.02s.02.01-.03-.03h.01s.02.03-.02-.02c0,.01.02.04.03.05.04.06-.03-.09,0-.02.04.1.07.21.1.31.06.21.11.42.14.64,0,.04.02.09.02.13v-.05s0,.03,0,.05c0,.03,0,.05,0,.08.01.11.02.23.03.34,0,.22,0,.44,0,.66,0,.04-.02.09,0-.02,0,.02,0,.04-.01.05s0,.03-.01.05c-.02.07.04-.08,0-.03s.07-.07.02-.02l.05-.04s-.02.01.05-.02c-.08.03.2.03.1,0,.1.04.01,0-.01-.02-.44-.28-.88-.56-1.32-.84-.17-.11-.42-.04-.51.13-.1.19-.04.4.13.51.44.28.88.57,1.33.85.17.1.36.14.54.06.16-.07.26-.21.32-.37.04-.11.05-.23.06-.35,0-.13.01-.25.01-.38,0-.51-.07-1.03-.2-1.53-.07-.25-.13-.54-.31-.73-.13-.15-.33-.2-.52-.18-.15.02-.28.1-.41.19-.47.33-.91.7-1.31,1.11-.14.14-.15.39,0,.53s.38.15.53,0h0Z"/>
    </g>
  </g>
</svg>