<?xml version="1.0" encoding="UTF-8"?>
<svg id="_얼굴없는" data-name="얼굴없는" xmlns="http://www.w3.org/2000/svg" version="1.1" viewBox="0 0 50.83 48.47">
  <!-- Generator: Adobe Illustrator 29.8.2, SVG Export Plug-In . SVG Version: 2.1.1 Build 3)  -->
  <defs>
    <style>
      .st0 {
        fill: #231f20;
      }

      .st1 {
        fill: #fff;
      }

      .st2 {
        fill: #f9bdbe;
      }

      .st3 {
        fill: #5c564d;
      }
    </style>
  </defs>
  <g>
    <g>
      <path class="st1" d="M32.52,33.15c-.24-.75-.54-1.48-.82-2.13-.14-.33-.34-1.02-.65-1.23-1.07-1.62-2.87-2.74-4.8-2.97-1.99-.23-4.07.49-5.49,1.91-1.68,1.68-2.48,4.6-2.42,6.91.03,1.1.28,2.3,1.1,3.09.4.39.91.64,1.46.75.34.07.64.05.98.06.77.02,1.53.31,2.3.2.38-.05.7-.22,1.09-.27.45-.05.9-.13,1.32.05.26.11.41.28.71.36.32.08.64.11.97.09.45-.03.89-.16,1.28-.37.41-.23.78-.31,1.22-.47,2.75-.96,2.54-3.59,1.77-5.99Z"/>
      <g>
        <path class="st3" d="M21.73,31.57c-.4-.7-1.19-1.29-1.86-1.66-.42-.24-1.56,4.97-1.51,5.48.38-.31.73-.46,1.2-.63.68-.24,1.39-.5,1.88-1.02.71-.75.67-1.51.28-2.16Z"/>
        <path class="st3" d="M31.7,31.02c-.09-.21-.21-.56-.36-.84-.23.16-.47.32-.69.5-.78.63-1.98,1.43-1.4,2.61.62,1.24,2.46,1.61,3.61,2.15.64-.81-.81-3.59-1.17-4.42Z"/>
      </g>
      <g>
        <path class="st0" d="M31.48,29.74c-1.3-2.07-3.66-3.4-6.12-3.34-2.13.05-4.28,1.08-5.51,2.84-.83,1.2-1.36,2.65-1.66,4.07s-.4,2.98.12,4.34c.27.7.7,1.31,1.33,1.72.71.47,1.59.61,2.42.57.48-.02.48-.77,0-.75-1.24.05-2.37-.37-2.94-1.53s-.5-2.5-.3-3.69c.22-1.33.66-2.65,1.34-3.82.89-1.53,2.43-2.54,4.17-2.88,2.51-.49,5.13.71,6.49,2.86.26.41.91.03.65-.38h0Z"/>
        <path class="st0" d="M30.82,30.07c.14.08.22.29.28.44.09.19.15.39.23.59.13.31.26.63.39.96.27.72.5,1.45.66,2.2.15.7.24,1.42.19,2.14-.04.58-.21,1.2-.55,1.64-.48.62-1.26.88-2.03.94-.48.04-.48.79,0,.75.86-.07,1.72-.32,2.35-.93.53-.51.82-1.22.93-1.94.24-1.62-.21-3.32-.76-4.84-.14-.4-.33-.82-.47-1.19-.2-.49-.35-1.12-.83-1.41-.42-.25-.79.4-.38.65h0Z"/>
      </g>
    </g>
    <g>
      <path class="st0" d="M20.17,34.71c-.02.93.08,1.86.3,2.76.1.43.23.86.39,1.27s.38.81.76,1.06.82.29,1.24.34.9.09,1.32-.05.74-.44.9-.85c.08-.19.09-.41.04-.62-.05-.21-.18-.38-.3-.56-.06-.08-.11-.17-.16-.27s-.05-.11-.09-.23c-.03-.1-.06-.2-.08-.3,0-.02,0-.04,0-.06-.01-.07,0,0,0-.03,0-.05,0-.1-.01-.15-.02-.4.07-.75.26-1.09.1-.18.04-.41-.13-.51s-.41-.04-.51.13c-.37.65-.46,1.46-.24,2.17.06.18.13.37.22.53.08.15.2.29.29.44.01.02.03.05.04.07,0,0-.01-.04,0,0,0,.02,0,.03.01.05,0,0,0-.06,0-.02,0,.04,0,.08,0,.12,0-.07-.01.03-.02.05,0,.02-.01.03-.02.05,0,0,.02-.05,0-.01s-.04.07-.06.11c-.03.05.02,0-.03.04-.03.03-.07.07-.1.1-.05.04.02,0-.04.03-.03.02-.06.04-.09.05-.06.03-.03.01-.02,0-.02,0-.04.02-.06.02-.05.02-.1.03-.15.04-.15.03-.36.03-.55.02-.1,0-.2-.02-.29-.03-.04,0-.09-.01-.13-.02-.03,0-.05,0-.08-.01.04,0-.01,0-.02,0-.18-.03-.37-.06-.54-.12-.02,0-.04-.01-.06-.02,0,0,.04.02,0,0-.04-.02-.07-.04-.11-.06-.08-.05-.1-.06-.18-.14-.09-.1-.18-.26-.25-.42.01.03-.02-.05-.03-.06-.02-.05-.03-.09-.05-.14-.04-.1-.07-.21-.11-.31-.06-.2-.12-.39-.18-.59-.24-.92-.35-1.84-.33-2.79,0-.2-.18-.38-.38-.38s-.37.17-.38.38h0Z"/>
      <path class="st0" d="M30.44,34.87c.02.84-.06,1.65-.25,2.47-.09.41-.21.81-.36,1.21-.03.07-.07.18-.09.23-.02.05-.08.16-.12.23-.05.09-.06.11-.12.17-.03.03-.06.06-.09.09-.03.03-.03.03-.09.06-.03.02-.07.04-.11.06,0,0-.06.03-.03.01s-.03.01-.03.01c-.09.03-.18.06-.27.08-.2.04-.32.06-.5.08-.2.02-.4.04-.61.04-.09,0-.16,0-.23-.02-.04,0-.09-.02-.13-.03-.02,0-.04-.01-.06-.02l-.04-.02s.02,0,0,0c-.03-.02-.06-.03-.09-.05-.02,0-.03-.02-.05-.03,0,0,.04.03,0,0s-.06-.06-.09-.09c-.01-.01-.02-.03-.04-.04-.04-.04.03.04,0,0-.02-.03-.04-.07-.06-.11-.03-.06,0,.02-.02-.04,0-.03-.02-.07-.03-.1.02.07,0-.04,0-.07,0-.07,0,.03,0-.03,0,0,.02-.06,0-.01,0-.02.02-.04.03-.06.05-.09.11-.16.16-.24.1-.15.19-.3.25-.47.33-.79.29-1.71-.14-2.45-.1-.18-.34-.24-.51-.13s-.24.34-.13.51c.02.04.04.08.06.12,0,.01.06.12.03.07.04.09.07.18.09.27.02.08.04.16.05.25,0-.06,0,0,0,.02,0,.03,0,.05,0,.08,0,.05,0,.1,0,.15,0,.08,0,.17,0,.25,0,0,0,.09,0,.05,0-.04,0,.03,0,.03,0,.05-.02.1-.03.15-.02.09-.04.17-.07.26-.04.1-.04.1-.09.21-.09.17-.21.31-.31.47-.11.18-.18.4-.16.62.04.42.3.8.65,1.02.39.24.88.27,1.32.23.41-.04.85-.07,1.24-.22.43-.16.74-.47.94-.88s.34-.85.45-1.29c.27-1,.4-2.05.38-3.08,0-.2-.17-.38-.38-.38s-.38.17-.38.38h0Z"/>
    </g>
    <path class="st0" d="M24.62,39.89c.09-.01.17-.03.26-.04h-.1c.64-.07,1.29-.1,1.94-.07.2,0,.38-.18.38-.38,0-.21-.16-.36-.38-.38-.77-.04-1.54.01-2.3.13-.09.01-.18.1-.22.17-.05.08-.07.2-.04.29s.09.18.17.22c.09.05.18.05.29.04h0Z"/>
  </g>
  <g>
    <g>
      <path class="st3" d="M12.68,14.86c.04,1.4.12,2.85.78,4.08.17.32.38.63.5.97.16.48.13,1.01.25,1.5s.52.99,1.03.95c.18-.01.38-.09.52.03.05.04.08.1.11.16.5,1.11.37,2.38.33,3.59s.05,2.54.86,3.44c.75.84,1.95,1.11,3.07,1.18s2.27-.02,3.35.3c.62.18,1.21.49,1.84.64s1.37.09,1.83-.36c.11-.11.2-.23.33-.31.28-.16.62-.05.94-.01.41.05.84-.02,1.22-.2.24-.12.46-.28.73-.32.22-.03.44.03.66.07,1.62.29,3.38-.62,4.08-2.11.35-.74.59-1.47.47-2.28-.17-1.15-.15-2.33.05-3.48,0-.04.01-.08.04-.11.05-.07.16-.07.25-.07.9.03,1.37-.68,1.51-1.46.17-.75.51-1.39.76-2.09.27-.77.29-1.68.41-2.49.25-1.66.29-3.21-.15-4.84-.33-1.23-1.26-3.4-2.91-2.78-1.08.41-2.19,1.72-2.93,2.58-.9,1.04-1.58,2.27-1.99,3.58-3.28-.83-6.77-.81-10.03.07.12-.03-1.62-3.17-1.8-3.44-.68-.98-1.36-1.86-2.37-2.5-.49-.31-1.06-.53-1.63-.46-1.07.13-1.32,1.27-1.65,2.12-.5,1.29-.49,2.68-.46,4.04Z"/>
      <path class="st2" d="M16.52,19.37c.18-.29.38-.58.58-.86.05-.09.1-.19.15-.28.52-.93.89-1.78.78-2.87-.1-1.05-.5-2.02-1.03-2.92-.48-.81-1.53-3.21-2.79-2.4-1.1.71-1.25,2.49-1.53,3.65,0,.39,0,.78,0,1.16.04,1.4.12,2.85.78,4.08.17.32.38.63.5.97.16.48.13,1.01.25,1.5.13.49.52.99,1.03.95.09,0,.18-.03.27-.03.09-.43.23-.85.38-1.27.08-.6.31-1.17.63-1.69Z"/>
      <path class="st1" d="M30.87,30.52c.32-.01.66.02,1.05.05,1.28.08,2.97-1.05,3.51-2.21.11-.24.13-.54-.03-.75-.12-.16-.3-.24-.49-.29-1.1-.28-2.25.49-3.36.23-.2-.04-.39-.12-.57-.21-.97-.47-1.5-1.29-2.18-2.06s-1.37-1.58-1.62-2.65c-.17-.71-.18-1.44-.18-2.17-.01-1.01-.02-2.03.17-3.02s.59-1.97,1.31-2.69c-1.01-.52-2.03-.4-3.15-.32-.19.01-2.06.33-2.14.19,1.45,2.47,1.59,5.55,1.03,8.3-.05.23-.1.45-.21.65-.38.64-1.12,1.02-1.38,1.74-.45,1.24-.76,2.62-2.3,2.75-1.18.09-2.31-.63-3.46-.32-1.26.34.07,1.82.59,2.24.89.71,2.12.74,3.26.73.9,0,1.92.13,2.78.37.62.18,1.21.49,1.84.64.63.15,1.37.09,1.83-.36.11-.11.2-.23.33-.31.28-.16.62-.05.94-.01.41.05.84-.02,1.22-.2.45-.22.84-.3,1.24-.31Z"/>
      <path class="st2" d="M38.44,11.64c-.02-.09-.05-.18-.08-.27-.28-.46-.61-.88-1.04-1.18-1.6-1.1-2.81.9-3.63,2.46-.34,1.3-.39,2.72-.33,3.9.77,1.16,1.83,2.12,2.23,3.51.23.81.32,1.63.33,2.46.88.02,1.35-.68,1.49-1.46.17-.75.51-1.39.76-2.09.27-.77.29-1.68.41-2.49.25-1.66.29-3.21-.15-4.84Z"/>
    </g>
    <g>
      <g>
        <path class="st0" d="M18.7,17c1.41-1.33,3.3-1.89,5.2-2.05,1.76-.15,3.56-.09,5.28.32.82.2,1.75.44,2.41.99.37.31.9-.22.53-.53-.64-.54-1.46-.83-2.26-1.05s-1.68-.38-2.53-.46c-2.03-.19-4.23-.14-6.17.51-1.11.37-2.13.95-2.98,1.75-.35.33.18.86.53.53h0Z"/>
        <path class="st0" d="M31.08,14.98c.67-2.09,2.03-3.96,3.83-5.23.23-.16.47-.33.73-.46.22-.12.5-.24.76-.18.36.08.66.42.88.7.59.77.91,1.77,1.05,2.72.09.62.08,1.27.08,1.9,0,.75-.04,1.49-.22,2.21-.11.47.61.67.72.2.17-.71.24-1.43.25-2.16,0-.66.02-1.34-.06-1.99-.12-1.09-.45-2.21-1.07-3.12-.28-.41-.62-.8-1.07-1.04-.62-.34-1.27-.15-1.85.19-1.05.62-1.98,1.45-2.75,2.39-.89,1.09-1.57,2.32-2,3.66-.15.46.58.66.72.2h0Z"/>
        <path class="st0" d="M37.94,17.99c-.1.45-.18.91-.33,1.35-.02.05-.03.09-.05.14-.01.03-.02.05-.03.08-.04.09.03-.07,0,.02-.05.1-.1.2-.15.3s-.12.19-.18.28c-.02.02-.04.06-.01.02-.02.03-.04.05-.06.08-.05.05-.09.11-.14.16-.19.21-.11.54.17.63h0c-.09-.09-.17-.17-.26-.26-.03-.09-.01-.12,0-.06,0,.03,0,.05,0,.08,0,.07,0,.15,0,.22,0,.1,0,.19-.01.29,0,.05,0,.1-.01.15,0,.07.02-.09,0-.01,0,.02,0,.04-.01.06,0,.04-.02.07-.03.11-.02.08.01-.04.02-.03,0,0-.02.03-.02.03-.02.03-.04.06-.06.09,0,.01-.02.02-.03.04.03-.03.03-.04.01-.02-.04.05-.08.1-.13.14-.02.02-.04.04-.06.06.05-.04.02-.01-.01,0-.02.02-.05.03-.07.04-.07.04.07-.02-.01,0-.03,0-.05.02-.08.02-.04,0-.08,0-.02,0-.08,0-.15,0-.22,0-.2-.02-.38.19-.38.38,0,.22.17.35.38.38.37.04.72-.09.99-.34.2-.18.39-.43.44-.7.05-.24.06-.49.07-.74s.03-.57-.28-.66l.17.63c.37-.39.64-.84.82-1.35.16-.46.24-.94.35-1.41.04-.19-.06-.41-.26-.46-.19-.04-.42.06-.46.26h0Z"/>
        <path class="st0" d="M35.2,10.16c-.12.14-.26.27-.39.41-.23.25-.45.51-.64.79-.55.79-.92,1.71-1.08,2.66-.14.77-.16,1.55-.1,2.32.02.2.16.38.38.38.19,0,.39-.17.38-.38-.1-1.2,0-2.33.45-3.45.01-.03.02-.05.03-.08-.03.08,0-.02.01-.03.02-.05.04-.1.07-.14.05-.1.1-.2.15-.3.09-.17.19-.34.3-.5.05-.07.09-.14.14-.21.03-.04.05-.07.08-.11.03-.04-.06.07,0,.01.02-.02.03-.04.05-.06.09-.11.19-.22.28-.33.14-.16.3-.3.44-.46.13-.15.15-.38,0-.53-.14-.14-.4-.15-.53,0h0Z"/>
        <path class="st0" d="M20.87,14.83c-.48-1.43-1.24-2.75-2.24-3.88-.5-.56-1.05-1.06-1.65-1.51s-1.34-1.02-2.11-.99c-.63.02-1.09.55-1.46,1-.41.5-.67,1.11-.85,1.72-.38,1.29-.41,2.68-.29,4.01.12,1.43.32,3.01,1.09,4.25.26.41.9.03.65-.38-.62-1-.81-2.27-.94-3.41s-.17-2.3.02-3.42.59-2.23,1.5-2.92c.49-.38,1.28.27,1.68.55.55.38,1.06.82,1.52,1.3,1.06,1.1,1.87,2.43,2.35,3.87.15.46.88.26.72-.2h0Z"/>
        <path class="st0" d="M13.74,20.25c-.15.54-.19,1.15.08,1.66.23.42.65.68,1.09.81.27.08.55.12.83.14.09,0,.2-.05.27-.11s.11-.17.11-.27c0-.22-.16-.36-.38-.38-.08,0-.16-.01-.24-.03h.1c-.24-.02-.47-.07-.69-.16l.09.04c-.12-.05-.24-.12-.35-.2l.08.06c-.08-.06-.15-.13-.22-.21l.06.08c-.06-.08-.11-.17-.15-.26l.04.09c-.04-.1-.07-.21-.09-.33v.1c0-.17,0-.35.02-.52v.1c0-.14.04-.28.07-.42.05-.19-.06-.42-.26-.46s-.41.06-.46.26h0Z"/>
        <path class="st0" d="M15.29,10.56c.18.18.35.36.52.56.1.12.2.24.3.37.01.02.1.12.05.06.03.03.05.07.08.1.06.08.11.15.17.23.23.33.45.67.64,1.03.22.41.36.74.5,1.17.16.51.25.98.28,1.48,0,.2.17.38.38.38.2,0,.38-.17.38-.38-.08-1.82-.98-3.49-2.13-4.86-.2-.23-.4-.46-.61-.67-.34-.34-.87.19-.53.53h0Z"/>
        <path class="st0" d="M17.03,17.97c-.74.93-1.19,2.07-1.37,3.24-.2,1.31.3,2.53.28,3.83,0,.66-.23,1.29-.23,1.95,0,.6.12,1.19.36,1.74.36.84.99,1.56,1.83,1.94,1.12.51,2.38.46,3.55.2.47-.1.27-.83-.2-.72-.93.21-1.93.27-2.84-.07-.74-.27-1.28-.84-1.62-1.54-.22-.46-.34-.98-.34-1.49,0-.58.17-1.14.22-1.72.09-1.17-.36-2.3-.33-3.48s.49-2.44,1.21-3.35c.3-.37-.23-.91-.53-.53h0Z"/>
        <path class="st0" d="M34.05,18.29c.62.77.99,1.74,1.18,2.71.21,1.09-.11,2.14-.21,3.22-.05.57,0,1.11.11,1.67.1.53.16,1.04.06,1.57-.16.88-.64,1.69-1.38,2.2-.93.64-2.05.81-3.12.44-.46-.16-.65.57-.2.72,2.08.71,4.38-.38,5.2-2.4.21-.52.32-1.09.3-1.66-.01-.62-.22-1.21-.25-1.83-.06-1.25.43-2.45.27-3.7s-.64-2.49-1.44-3.47c-.3-.38-.83.16-.53.53h0Z"/>
      </g>
      <path class="st0" d="M22.69,26.08c.18-.57.38-1.09.8-1.52.4-.41.9-.67,1.46-.8,1.12-.26,2.39.01,3.1.97.41.54.71,1.15,1.18,1.64.4.41.84.79,1.18,1.26.37.51.6,1.14.38,1.76s-.73,1.08-1.32,1.3c-1.33.49-2.88-.51-3.18-1.86-.07-.31-.55-.18-.48.13.29,1.35,1.75,2.5,3.14,2.35,1.47-.15,2.8-1.58,2.32-3.1-.2-.63-.64-1.14-1.1-1.61-.24-.24-.48-.47-.71-.72-.27-.3-.47-.64-.69-.98-.39-.61-.84-1.14-1.51-1.44-.6-.26-1.27-.35-1.92-.28-.73.08-1.45.33-2,.82-.6.53-.89,1.19-1.13,1.94-.1.31.38.44.48.13h0Z"/>
      <path class="st0" d="M21.79,26.71c-.5.54-1.02,1.14-1.22,1.86s0,1.46.53,1.98c1.05,1.03,2.87.87,4,.05.6-.43,1.06-1.05,1.2-1.79.02-.13-.04-.27-.17-.31-.12-.03-.28.04-.31.17-.21,1.12-1.24,1.88-2.33,2.05-.62.1-1.32,0-1.84-.37-.47-.34-.75-.91-.64-1.49.14-.72.66-1.3,1.14-1.82.22-.24-.13-.59-.35-.35h0Z"/>
      <path class="st0" d="M23.87,31.21c.82.72,2.01.85,3,.42.27-.12.52-.29.73-.49.1-.09.09-.26,0-.35s-.26-.09-.35,0c-.04.04-.08.07-.12.11,0,0-.08.06-.04.03-.02.02-.05.04-.08.05-.1.07-.2.12-.3.17-.02.01-.05.02-.07.03-.01,0-.02,0-.03.01.04-.02,0,0,0,0-.06.02-.12.04-.17.06-.11.03-.22.06-.33.08-.03,0-.05,0-.08.01.05,0-.04,0-.05,0-.06,0-.12.01-.17.01-.12,0-.23,0-.35,0-.03,0-.05,0-.08,0,.05,0-.02,0-.04,0-.06,0-.11-.02-.17-.03-.11-.03-.22-.06-.33-.1-.01,0-.03-.01-.04-.02-.04-.02.01,0-.01,0-.03-.01-.06-.03-.08-.04-.06-.03-.12-.06-.17-.09-.05-.03-.1-.07-.15-.1-.01,0-.03-.02-.04-.03.03.02,0,0-.01-.01-.03-.02-.05-.04-.08-.07-.1-.09-.25-.1-.35,0-.09.09-.1.26,0,.35h0Z"/>
    </g>
  </g>
</svg>