<?xml version="1.0" encoding="UTF-8"?>
<svg id="_얼굴없는" data-name="얼굴없는" xmlns="http://www.w3.org/2000/svg" version="1.1" viewBox="0 0 50.83 48.47">
  <!-- Generator: Adobe Illustrator 29.8.2, SVG Export Plug-In . SVG Version: 2.1.1 Build 3)  -->
  <defs>
    <style>
      .st0 {
        fill: #231f20;
      }

      .st1 {
        fill: #fff;
      }

      .st2 {
        fill: #888;
      }

      .st3 {
        fill: #f9bdbe;
      }
    </style>
  </defs>
  <g>
    <path class="st1" d="M21.15,28.61c.54-.87,1.41-1.52,2.39-1.79.6-.16,1.22-.19,1.84-.18.95.01,1.92.1,2.79.48,1.95.83,3.16,3.12,2.73,5.2-.04.2-.1.41-.06.61.03.19.13.36.22.53.43.81.6,1.77.46,2.68.93-.15,1.76-.82,2.12-1.69.07-.18.15-.39.33-.46.12-.05.25-.02.36.04.47.26.44.95.28,1.47-.1.34-.24.67-.44.96-.47.65-1.29.97-2.09.98-.3,0-.61-.03-.89.1-.16.07-.28.19-.43.29-.46.31-1.08.36-1.58.12-.1-.04-.19-.1-.29-.11-.28-.04-.51.2-.75.34-.52.31-1.28.14-1.61-.37-.83.41-1.8.37-2.73.31-.48-.03-.95-.05-1.43-.08-.77-.04-1.6-.11-2.18-.61-.44-.38-.68-.95-.77-1.53-.1-.58-.07-1.19.09-1.76.25-.94.87-1.78,1-2.76s.09-1.86.64-2.75Z"/>
    <g>
      <path class="st0" d="M21.4,27.59c-1.43,1.83-1.74,4.39-.73,6.49.27.57.65,1.08.89,1.66.2.47.25.99.39,1.48.14.46.36.91.79,1.17.48.29,1.08.22,1.54-.06,1.32-.82,1.02-2.64.97-3.96-.02-.48-.77-.48-.75,0,.02.6.07,1.2.05,1.8-.02.5-.11,1.04-.5,1.39-.27.24-.68.38-.99.14-.29-.22-.38-.64-.45-.97-.11-.46-.2-.91-.39-1.35-.22-.5-.53-.96-.79-1.45-.45-.86-.64-1.83-.59-2.8.06-1.08.43-2.16,1.1-3.01.13-.16.15-.37,0-.53-.13-.13-.41-.16-.53,0h0Z"/>
      <path class="st0" d="M20.13,31.89c-.47.46-.68,1.11-.82,1.73-.13.56-.2,1.14-.2,1.71s.1,1.18.35,1.72.69.86,1.22,1.07c.57.22,1.25.29,1.84.12.46-.14.26-.86-.2-.72-.05.02-.11.03-.16.04-.02,0-.14.02-.07.01-.12.01-.24.02-.37.01-.13,0-.2-.01-.28-.03-.12-.02-.24-.05-.36-.09-.21-.06-.36-.14-.57-.28-.09-.06.03.03-.02-.02-.02-.02-.04-.04-.07-.06-.03-.03-.07-.06-.1-.1-.04-.05-.1-.14-.17-.25-.21-.38-.29-.86-.3-1.31,0-.26,0-.53.03-.79.02-.24.05-.42.1-.68.12-.56.26-1.16.67-1.56.34-.34-.19-.87-.53-.53h0Z"/>
      <path class="st0" d="M29.55,28.27c1.11,1.6,1.31,3.8.42,5.55-.24.47-.56.89-.83,1.34s-.45.89-.58,1.38c-.17.6-.47,1.79-1.34,1.29-.49-.28-.65-.82-.67-1.35-.02-.69.08-1.39.15-2.07.04-.48-.71-.48-.75,0-.11,1.2-.47,2.75.45,3.73.37.39.91.63,1.45.54.5-.09.88-.46,1.09-.91s.3-.92.45-1.37c.19-.59.57-1.09.9-1.61.62-.98.97-2.08.99-3.24.03-1.29-.34-2.58-1.08-3.64-.27-.39-.92-.02-.65.38h0Z"/>
      <path class="st0" d="M30.92,33.78s-.04-.11,0-.01c0,.02.01.04.02.05.02.05.03.1.05.14.03.1.05.19.08.29.02.11.04.21.06.32.01.1,0-.08,0,0,0,.03,0,.06,0,.08,0,.06.01.13.02.19.02.24.02.49.01.73,0,.12-.01.25-.03.37,0,.03,0,.06,0,.09,0,.02-.02.12,0,.05s0,.03,0,.05c0,.03-.01.06-.02.1-.04.23-.1.46-.18.68-.02.05-.04.09-.05.14.04-.12.01-.03,0,0-.01.03-.02.05-.04.08-.05.09-.1.18-.16.27-.02.03-.07.08.01-.01-.02.02-.03.04-.04.05-.03.04-.06.07-.1.11-.02.02-.04.03-.06.05-.05.04-.02.01.02-.01-.04.02-.08.06-.12.08-.02,0-.03.02-.05.03-.03.02-.11.04.01,0-.04.01-.09.03-.13.04-.02,0-.04.01-.07.02,0,0-.02,0-.03,0-.06.01.09,0,.05,0-.05,0-.1,0-.15,0-.03,0-.06,0-.08,0-.01,0-.03,0-.04,0-.08,0,.07.01.03,0-.06-.01-.13-.02-.19-.04-.07-.02-.13-.04-.2-.07-.01,0-.03-.01-.04-.02-.03-.01.09.04,0,0-.04-.02-.08-.04-.11-.05-.18-.09-.36-.24-.57-.23-.12,0-.24.05-.32.14-.04.05.02,0,.04-.02.11-.06.17-.05.27-.02.04.02.04.02.01,0-.03-.02-.03-.02.01.01-.15-.12-.38-.16-.53,0-.12.13-.16.4,0,.53.12.09.23.18.38.18.12,0,.24-.04.32-.13,0,0,.03-.02.03-.03,0,.03-.12.07-.13.08-.03,0-.14,0-.14,0,.04.01-.09-.05-.02,0,.01.01.03.02.05.03.04.03.09.05.13.07.25.14.53.25.82.3.52.08,1.03-.08,1.39-.47.34-.37.54-.86.65-1.35.12-.53.16-1.08.14-1.62s-.11-1.13-.34-1.65c-.08-.18-.36-.24-.51-.13-.19.12-.22.32-.13.51h0Z"/>
      <path class="st0" d="M31.8,36.61c1.03-.29,1.86-1.12,2.2-2.13.1-.28.15-.58.16-.88l-.38.38s.08,0,.13,0c.07,0-.08-.02-.02,0,.02,0,.04,0,.06.02.01,0,.03,0,.04.01l-.05-.02s.04.02.06.03c.04.02.07.05.11.07-.09-.04-.04-.03-.01,0,.02.01.03.03.05.04s.03.03.04.05c.05.05-.04-.07,0,0,.02.04.05.07.07.11.01.02.02.04.03.06.03.06-.03-.09,0,0,.02.04.03.08.04.13,0,.03.01.05.02.08,0,.03,0,.02,0-.03,0,.01,0,.03,0,.04,0,.11,0,.22,0,.33,0,.01-.01.11,0,.05s0,.04,0,.05c0,.06-.02.11-.03.17-.02.12-.05.23-.08.34-.05.19.06.42.26.46s.41-.06.46-.26c.14-.54.27-1.12.04-1.65-.19-.46-.65-.86-1.17-.8-.21.02-.37.16-.38.38,0,.06,0,.11-.01.17,0,.02-.01.1,0,.03s0,.04,0,.06c-.02.11-.05.22-.08.33-.02.05-.03.11-.05.16,0,.02-.02.05-.03.07,0,.01-.02.06,0,0,.02-.06,0,0,0,.01-.05.1-.1.2-.16.3s-.13.19-.19.28c0,0,.06-.07.02-.03,0,.01-.02.02-.03.03-.02.02-.03.04-.05.06-.04.05-.08.09-.12.13-.08.08-.16.16-.25.23-.01.01-.08.06-.03.02.05-.04-.03.02-.04.03-.05.04-.1.07-.15.1-.1.07-.21.13-.33.18-.01,0-.03.01-.04.02-.04.02.08-.03.02,0-.03.01-.06.02-.09.03-.06.02-.13.04-.19.06-.19.05-.32.27-.26.46s.26.32.46.26h0Z"/>
      <path class="st0" d="M31.57,37.91c.83,0,1.65-.28,2.31-.79.08-.06.14-.12.17-.22.02-.09.01-.21-.04-.29s-.13-.15-.22-.17-.21-.02-.29.04c-.24.19-.51.34-.79.46l.09-.04c-.29.12-.59.2-.9.25h.1c-.14,0-.29.02-.43.02-.2,0-.38.17-.38.38s.16.38.38.38h0Z"/>
    </g>
  </g>
  <g>
    <path class="st1" d="M16.52,12.9c.07.23.14.47.15.71.01.52-.28.98-.52,1.45-.79,1.58-.88,3.45-.49,5.18s1.23,3.32,2.23,4.78c.92,1.35,1.99,2.61,3.32,3.56s2.94,1.56,4.57,1.51c.7-.02,1.39-.16,2.07-.36.94-.27,1.86-.65,2.63-1.24.78-.6,1.38-1.39,1.97-2.18,1.36-1.83,2.68-3.76,3.28-5.96s.34-4.76-1.19-6.45c-.25-.28-.66-.6-.67-1,0-.13.04-.25.07-.37.2-.73.51-5.34-.97-5.07-.13.02-.24.1-.35.18-1.12.8-2.01,1.93-2.52,3.21-1.68-.24-3.39-.35-5.09-.32-.33,0-4.56.39-4.51.52-.39-1-1.08-1.46-1.79-2.21-.39-.42-1.43-2.04-2.11-1.47-.41.34-.27,2.1-.31,2.63-.07.98-.05,1.96.22,2.91Z"/>
    <path class="st2" d="M18.07,18.64c-.54.85-.72,1.94-.63,2.96.1,1.12.63,2.28,1.63,2.81,1,.54,2.32.32,3.19-.42,1.54-1.31,1.97-4.39.72-6.01-.85-1.1-2.49-1.09-3.64-.51-.54.28-.96.68-1.27,1.16Z"/>
    <path class="st3" d="M17.49,9.23c-.07.03-.13.09-.2.2-.11.17-.12.39-.13.59-.02.64,0,3.35,1.21,2.11.68-.7.23-1.91-.27-2.56-.17-.21-.39-.43-.61-.33Z"/>
    <path class="st3" d="M32.45,12.35c.22-.07.4-.26.44-.57.08-.65.06-1.31-.05-1.95-.03-.16-.08-.35-.22-.43-.63-.38-1.34,2.22-1.11,2.58.23.35.63.48.94.37Z"/>
    <g>
      <path class="st0" d="M20.85,10.85c-.73-1.37-1.78-2.55-3.03-3.47-.3-.22-.64-.5-1.03-.49-.53.01-.64.52-.74.93-.19.87-.29,1.77-.29,2.66,0,.99.13,1.97.37,2.93.12.47.84.27.72-.2-.37-1.49-.45-3.07-.2-4.59.03-.19.07-.39.11-.58.02-.09.04-.18.06-.27,0-.04.02-.08.03-.12,0-.03.02-.05.02-.08v.02s-.1.05-.1.05h.04s-.02,0,0,0c.06.01.09.03.15.07.14.09.28.19.42.28.55.4,1.05.86,1.5,1.37.51.57.94,1.19,1.3,1.86.1.18.34.23.51.13.18-.11.23-.33.13-.51h0Z"/>
      <path class="st0" d="M17.3,9.62s.06.08.09.12l-.06-.08c.26.34.48.72.65,1.11l-.04-.09c.13.3.22.61.29.93.04.19.28.32.46.26.2-.07.31-.26.26-.46-.14-.65-.4-1.27-.76-1.82-.11-.17-.24-.34-.37-.5-.06-.07-.18-.11-.27-.11-.09,0-.2.04-.27.11s-.11.17-.11.27c0,.1.04.18.11.27h0Z"/>
      <path class="st0" d="M30.4,10.73c.25-.52.57-1,.93-1.41.38-.44.81-.82,1.27-1.12.12-.08.25-.16.38-.24.06-.03.12-.07.18-.1.02-.01.05-.03.07-.04.01,0,.08-.04.04-.02h.04s-.05,0-.02,0h.01s-.05-.01-.01,0l-.03-.02s.03.03.04.04c-.01-.02-.03-.06,0,0,.01.03.03.06.05.09-.03-.06,0,0,0,0,.02.06.04.13.06.19.16.67.23,1.34.25,2.03.02.79-.04,1.57-.19,2.33-.04.2.06.4.26.46.18.05.42-.06.46-.26.3-1.56.29-3.17-.05-4.72-.07-.32-.2-.65-.49-.82-.36-.21-.73-.01-1.05.17-.58.33-1.12.75-1.58,1.23-.51.53-.94,1.14-1.26,1.81-.09.18-.05.41.13.51.16.1.42.05.51-.13h0Z"/>
      <path class="st0" d="M32.08,9.41c-.39.51-.66,1.12-.78,1.74-.04.2-.06.4-.07.6s.18.38.38.38c.21,0,.36-.16.38-.38,0-.1.01-.2.03-.29v.1c.03-.35.13-.69.26-1.01l-.04.09c.13-.3.3-.59.5-.86.06-.07.06-.21.04-.29-.02-.09-.09-.18-.17-.22-.09-.05-.19-.07-.29-.04l-.09.04c-.06.03-.1.08-.13.13h0Z"/>
      <path class="st0" d="M20.28,11.74c1.38-.87,3.1-.84,4.67-.89,1.75-.05,3.53-.04,5.2.54.46.16.65-.57.2-.72-1.76-.61-3.65-.62-5.5-.56-1.68.05-3.48.06-4.96.99-.41.26-.03.9.38.65h0Z"/>
      <path class="st0" d="M16.82,13.33c-.67.75-1.06,1.75-1.36,2.7s-.54,2-.48,3.02c.15,2.36,1.43,4.56,2.84,6.4.77,1,1.63,1.94,2.57,2.78.36.32.89-.21.53-.53-1.62-1.44-3.04-3.17-4.06-5.1-.51-.95-.91-1.98-1.08-3.05-.14-.94-.01-1.86.23-2.77.27-1,.63-2.14,1.33-2.93.32-.36-.21-.89-.53-.53h0Z"/>
      <path class="st0" d="M21.21,28.8c2.65,2.28,7,2.31,9.61-.05.82-.74,1.5-1.63,2.16-2.51s1.24-1.74,1.75-2.68c.95-1.75,1.6-3.71,1.47-5.72-.14-2.15-1.18-4.06-2.73-5.53-.35-.33-.88.2-.53.53,1.27,1.2,2.19,2.71,2.45,4.46s-.19,3.59-.96,5.19c-.86,1.78-2.05,3.46-3.37,4.94-.61.69-1.29,1.3-2.12,1.7-.69.34-1.46.53-2.23.6-1.75.15-3.63-.3-4.98-1.46-.36-.31-.9.21-.53.53h0Z"/>
    </g>
  </g>
</svg>