<?xml version="1.0" encoding="UTF-8"?>
<svg id="_얼굴없는" data-name="얼굴없는" xmlns="http://www.w3.org/2000/svg" version="1.1" viewBox="0 0 50.83 48.47">
  <!-- Generator: Adobe Illustrator 29.8.2, SVG Export Plug-In . SVG Version: 2.1.1 Build 3)  -->
  <defs>
    <style>
      .st0 {
        fill: #231f20;
      }

      .st1 {
        fill: #fff;
      }
    </style>
  </defs>
  <g>
    <path class="st1" d="M32.4,36.05s.03.05.04.07c.27-.83.41-1.7.26-2.56-.01-.1,0-.18.02-.26-.09-.49-.17-.99-.26-1.48-.25-.92-.6-1.82-.95-2.62-.15-.34-.35-1.03-.66-1.24-1.09-1.64-2.92-2.77-4.87-2.99-2.02-.23-4.12.51-5.55,1.95-2.5,2.51-4.43,11.27,1.36,10.97l.41-.44c.2.31.49.53.98.6,1.74.23,2.15-.85,2.24-2.14.1,1.29.52,2.37,2.26,2.13,1.77-.25,3.87-.39,4.72-1.97Z"/>
    <g>
      <path class="st0" d="M21.55,34.45c0,.63-.08,1.26-.04,1.89.04.68.23,1.37.82,1.78.33.23.74.3,1.14.32s.77-.03,1.12-.19c.59-.26.93-.83,1.08-1.43.18-.73.16-1.51.16-2.25,0-.2-.17-.38-.38-.38s-.38.16-.38.38c0,.32,0,.63,0,.95,0,.16-.01.31-.03.47,0,.07-.01.14-.02.22,0,.02,0,.04,0,.06.01-.12,0-.05,0-.02,0,.04-.01.08-.02.11-.02.14-.05.28-.1.41-.02.06-.04.12-.06.18,0,.02-.01.03-.02.05.03-.1.03-.06.01-.03s-.03.06-.04.09c-.03.05-.06.11-.09.16-.02.03-.04.05-.06.08.04-.08.05-.06.03-.04-.01.02-.03.03-.04.05-.04.04-.08.09-.13.13-.01.01-.03.02-.04.03-.05.04.08-.06.02-.02-.03.02-.05.04-.08.06-.05.03-.11.06-.16.09-.06.03.09-.03.02-.01-.02,0-.03.01-.05.02-.03.01-.07.02-.11.03-.07.02-.14.03-.21.05-.03,0-.09,0,.02,0-.02,0-.04,0-.05,0-.05,0-.09,0-.14,0-.09,0-.17,0-.26,0-.05,0-.09,0-.14-.01-.02,0-.04,0-.07,0-.02,0-.04,0-.05,0,.06,0,.07,0,.03,0-.08-.01-.15-.03-.23-.05-.03,0-.06-.02-.09-.03-.03,0-.09-.04.02,0-.02-.01-.05-.02-.07-.03-.06-.03-.11-.07-.17-.1s.07.06.02.02c0,0-.02-.01-.03-.02-.03-.03-.06-.05-.09-.08-.02-.02-.04-.04-.06-.06-.05-.05.05.08.02.02,0-.01-.02-.03-.03-.04-.04-.06-.07-.12-.1-.18,0-.01-.01-.03-.02-.04-.02-.03,0-.06.01.03,0-.03-.03-.07-.04-.1-.02-.07-.04-.14-.06-.21-.02-.07-.03-.13-.04-.2,0-.03-.02-.15,0-.01,0-.04-.01-.09-.01-.13-.06-.67.03-1.34.03-2.01,0-.2-.17-.38-.38-.38s-.38.16-.38.38h0Z"/>
      <path class="st0" d="M31.28,27.92c-1.32-2.08-3.7-3.42-6.18-3.36-2.15.05-4.33,1.09-5.57,2.88-.84,1.21-1.37,2.67-1.67,4.1s-.41,3.03.13,4.41c.27.7.7,1.32,1.33,1.74.72.48,1.62.62,2.47.58.48-.02.48-.77,0-.75-1.26.06-2.4-.36-2.98-1.53s-.52-2.54-.32-3.76c.22-1.35.66-2.68,1.34-3.87.9-1.55,2.44-2.58,4.2-2.93,2.55-.51,5.22.69,6.6,2.87.26.41.91.03.65-.38h0Z"/>
      <path class="st0" d="M28.53,34.43c0,.6.08,1.19.06,1.79,0,.07,0,.14-.01.22,0,.04,0,.07-.01.11,0,.02,0,.03,0,.05.01-.13,0-.04,0,0-.02.14-.05.28-.1.41,0,.03-.02.05-.03.08-.02.07.04-.09.01-.03,0,.02-.01.03-.02.05-.03.06-.06.12-.1.18,0,.01-.02.02-.02.03-.02.03-.04.02.02-.03-.02.02-.04.05-.07.08-.02.02-.04.04-.06.06-.01.01-.03.02-.04.03-.07.06.06-.04,0,0-.06.04-.11.07-.17.1-.03.02-.13.05-.01,0-.04.01-.09.03-.13.05-.08.02-.15.04-.23.05,0,0-.04,0-.04,0h.05s-.04,0-.05,0c-.06,0-.11.01-.17.01-.08,0-.17,0-.25,0-.04,0-.09,0-.13,0-.04,0-.17-.03-.05,0-.07-.02-.14-.02-.21-.04-.04,0-.07-.02-.11-.03-.02,0-.03-.01-.05-.02-.04-.02-.05-.04.02.01-.05-.04-.12-.06-.17-.09-.03-.02-.06-.04-.08-.06-.01,0-.06-.04,0,0s0,0-.01-.01c-.05-.04-.09-.08-.13-.12-.02-.02-.04-.05-.06-.07.09.09.02.02,0-.02-.03-.05-.07-.1-.09-.16-.02-.03-.03-.06-.05-.09,0-.01,0-.02-.01-.03-.03-.06.04.1,0,.01-.05-.13-.09-.26-.12-.39-.02-.08-.03-.16-.05-.24,0-.04-.01-.08-.02-.11,0-.03-.01-.1,0,.02,0-.02,0-.05,0-.07-.02-.17-.03-.34-.04-.51-.02-.36-.02-.72-.02-1.08,0-.2-.17-.38-.38-.38s-.38.16-.38.38c0,.68,0,1.37.12,2.04.12.61.4,1.22.96,1.55.31.18.68.26,1.03.27.41.01.84-.04,1.21-.22.66-.31.91-1.01.98-1.68s-.03-1.4-.03-2.11c0-.2-.17-.38-.38-.38s-.38.16-.38.38h0Z"/>
      <path class="st0" d="M30.62,28.24c.14.08.22.29.29.44.09.2.16.42.25.62.13.31.26.62.39.95.27.72.51,1.47.67,2.22.27,1.24.43,2.82-.35,3.83-.49.63-1.27.89-2.06.96-.48.04-.48.79,0,.75.87-.08,1.73-.32,2.37-.94.54-.52.83-1.23.93-1.96.24-1.64-.22-3.36-.78-4.89-.15-.41-.32-.81-.48-1.2-.2-.49-.35-1.13-.84-1.42-.42-.25-.79.4-.38.65h0Z"/>
    </g>
  </g>
  <g>
    <path class="st1" d="M20.06,11.11c2.41-.91,5.07-.93,7.62-.61,1.58.2,3.17.53,4.55,1.3,1.83,1.03,3.2,2.84,3.7,4.88,1.87.15,3.68,1.52,3.97,3.37.33,2.04-.78,3.78-2.96,3.76-1.25-.01-.93,1.54-1.51,2.3-1.08,1.41-2.77,2.42-4.5,2.75-1.82.35-3.69.03-5.54,0-2.14-.04-4.31.3-6.39-.2s-4.1-2.2-4.03-4.33c-1.15-.02-2.4-.09-3.25-.85-.95-.84-1.11-2.27-.93-3.53.14-1.02.48-2.04,1.16-2.81.74-.84,1.48-.74,2.41-1.09.82-.31.89-.89,1.39-1.64,1.02-1.53,2.6-2.66,4.3-3.31Z"/>
    <g>
      <path class="st0" d="M15.47,15.77c.05-.23.13-.45.22-.67l-.04.09c.15-.34.33-.67.56-.96l-.06.08c.22-.28.48-.54.76-.76.07-.05.11-.18.11-.27,0-.09-.04-.2-.11-.27s-.17-.11-.27-.11c-.11,0-.18.05-.27.11-.65.5-1.13,1.19-1.44,1.94-.08.2-.15.4-.19.61-.05.19.06.42.26.46s.41-.06.46-.26h0Z"/>
      <path class="st0" d="M17.8,12.54c2.85-1.89,6.4-2.32,9.73-1.84.97.14,1.93.36,2.87.63.46.14.66-.59.2-.72-3.38-1-7.15-1.24-10.51-.04-.94.33-1.84.77-2.67,1.32-.4.27-.03.92.38.65h0Z"/>
      <path class="st0" d="M31.68,10.94l-.19.64s-.02.1,0,.15c0,.05.02.1.04.14.02.04.06.08.1.11.04.03.08.06.13.07h.1c.07.01.13,0,.19-.04l.08-.06s.08-.1.1-.17l.19-.64s.02-.1,0-.15c0-.05-.02-.1-.04-.14-.02-.04-.06-.08-.1-.11-.04-.03-.08-.06-.13-.07h-.1c-.07-.01-.13,0-.19.04l-.08.06s-.08.1-.1.17h0Z"/>
      <path class="st0" d="M32.96,12.77c.08-.02.16-.05.24-.09.05-.02.1-.04.14-.07.07-.04.14-.09.2-.15.04-.03.08-.07.12-.11.02-.02.04-.04.06-.07.04-.05.08-.09.11-.15.03-.04.04-.09.04-.14.01-.05,0-.1,0-.15-.01-.05-.03-.09-.07-.13-.03-.04-.06-.07-.11-.1l-.09-.04c-.07-.02-.13-.02-.2,0l-.09.04c-.06.03-.1.08-.13.13-.01.02-.03.04-.04.06l.06-.08c-.06.08-.13.14-.2.2l.08-.06c-.08.06-.16.11-.25.15l.09-.04s-.1.04-.15.05c-.05.01-.09.03-.13.07-.04.03-.07.06-.1.11-.03.04-.04.09-.04.14-.01.05,0,.1,0,.15l.04.09c.03.06.08.1.13.13l.09.04c.07.02.13.02.2,0h0Z"/>
      <path class="st0" d="M33.75,13.25c.2.17.39.35.57.55.09.1.18.21.26.31.03.03-.01-.02-.02-.02.01.01.02.03.03.05.02.02.03.05.05.07.04.06.08.12.12.17.15.22.28.45.39.69.03.06.06.12.08.18.01.03.03.06.04.09,0,0-.03-.06-.01-.02,0,.02.02.04.03.07.05.12.09.25.13.37.09.29.16.58.2.88.03.19.28.32.46.26.21-.07.29-.25.26-.46-.17-1.13-.68-2.19-1.42-3.06-.2-.24-.43-.45-.66-.65-.15-.13-.38-.16-.53,0-.13.14-.16.4,0,.53h0Z"/>
      <path class="st0" d="M15.13,15.77c-1.64-.7-3.19.46-4.04,1.81-.46.73-.69,1.54-.75,2.4s-.02,1.75.3,2.54.91,1.43,1.73,1.65c.47.13.67-.6.2-.72-1.32-.36-1.52-1.96-1.5-3.1.02-.71.13-1.41.46-2.04.29-.56.71-1.1,1.22-1.49.55-.42,1.33-.68,1.99-.39.19.08.4.06.51-.13.09-.16.05-.43-.13-.51h0Z"/>
      <path class="st0" d="M13.86,24.52c.65.04,1.31-.03,1.94-.21s1.12-.48,1.49-.99c.33-.46.48-1.02.55-1.57.08-.61.06-1.22-.05-1.83-.12-.67-.36-1.31-.7-1.9-.24-.42-.89-.04-.65.38.53.91.76,1.95.69,2.99-.03.44-.13.92-.34,1.31-.23.41-.58.68-1.04.83-.61.2-1.25.26-1.89.22-.2-.01-.38.18-.38.38,0,.21.17.36.38.38h0Z"/>
      <path class="st0" d="M36.17,16.97c.71-.23,1.46.22,1.98.67s.99,1.05,1.22,1.72c.41,1.16.48,2.87-.64,3.67-.6.43-1.37.59-2.09.46-.2-.04-.4.05-.46.26-.05.18.06.43.26.46.83.15,1.69.04,2.43-.38s1.24-1.11,1.41-1.94c.36-1.67-.2-3.49-1.46-4.65-.74-.68-1.82-1.33-2.86-.99-.46.15-.26.87.2.72h0Z"/>
      <path class="st0" d="M34.42,18.69c-.34.73-.52,1.53-.51,2.35.01.72.15,1.51.54,2.12.2.32.5.61.89.69.19.04.41-.05.46-.26.04-.18-.06-.42-.26-.46-.03,0-.06-.01-.08-.02-.04-.01-.07-.03-.01,0-.03-.02-.06-.03-.09-.05s-.08-.06-.03-.02c-.04-.04-.09-.08-.13-.12-.01-.01-.07-.09-.05-.06.02.03-.03-.05-.04-.07-.04-.05-.07-.11-.1-.17-.02-.03-.03-.06-.04-.09-.01-.02-.06-.13-.03-.06-.05-.13-.1-.27-.14-.41-.04-.15-.07-.31-.1-.47,0,0-.01-.09,0-.05,0,.03,0-.03,0-.03,0-.04,0-.08-.01-.12,0-.09-.01-.17-.02-.26,0-.18,0-.35,0-.53.01-.2.02-.27.06-.46s.08-.38.14-.57c.06-.2.12-.35.2-.51.08-.18.06-.41-.13-.51-.17-.09-.43-.06-.51.13h0Z"/>
      <path class="st0" d="M14.8,25.17c.14,1.02.74,1.94,1.52,2.59.88.74,1.97,1.15,3.1,1.33.68.11,1.37.15,2.06.15.48,0,.48-.75,0-.75-1.96,0-4.23-.36-5.41-2.1-.29-.43-.47-.89-.55-1.41-.03-.2-.28-.31-.46-.26-.22.06-.29.26-.26.46h0Z"/>
      <path class="st0" d="M29.88,29.19c2.22.1,4.74-.83,5.83-2.89.29-.56.46-1.15.53-1.78.02-.2-.19-.38-.38-.38-.22,0-.35.17-.38.38-.1.89-.51,1.75-1.16,2.38-.71.69-1.69,1.17-2.67,1.39-.58.13-1.18.16-1.78.14-.2,0-.38.18-.38.38,0,.21.17.37.38.38h0Z"/>
    </g>
  </g>
</svg>