<?xml version="1.0" encoding="UTF-8"?>
<svg id="_얼굴없는" data-name="얼굴없는" xmlns="http://www.w3.org/2000/svg" version="1.1" viewBox="0 0 50.83 48.47">
  <!-- Generator: Adobe Illustrator 29.8.2, SVG Export Plug-In . SVG Version: 2.1.1 Build 3)  -->
  <defs>
    <style>
      .st0 {
        fill: #231f20;
      }

      .st1 {
        fill: #fff;
      }

      .st2 {
        fill: #f9bdbe;
      }
    </style>
  </defs>
  <g>
    <path class="st1" d="M34.54,36.02c-.16.38-.57,1.25-1.1.88-.47-.34-.2-1.45-.45-1.96-.11-.22-.29-.44-.26-.69.65-.22.74-.85.43-1.37-.54-.9-1.2-1.72-1.87-2.53-.39-.48-.78-.96-1.26-1.36-.42-.35-.89-.63-1.38-.86-2.95-1.38-6.57-.92-8.92,1.37-1.01.99-1.74,2.26-2.17,3.61-.06.18-.28.74-.14.9.1.12.27.15.42.11.09-.02.2-.05.25.02.04.05.01.13-.01.19-.4,1.01-.47,2.15-.18,3.2.04.15.13.34.29.34.04,0,.08-.01.13-.01.3,0,.43.6.58.8.33.41.85.7,1.34.85.24.07,1.3.36,1.49.16l.41-.44c.19.31.49.53.98.6,1.74.24,2.15-.84,2.25-2.14-.14,1.85,1.71,2.62,3.09,1.6.25.18.59.19.89.16.73-.07,1.45-.32,2.06-.73.06-.04,1.14.41,1.3.44.44.09.74.04,1.17-.06.92-.22,1.72-.57,2.48-1.14.84-.64,1.14-1.53,1.2-2.55.05-.9,0-1.91-.65-2.53-.2-.19-.43-.32-.68-.43-.29-.13-.62-.23-.94-.24-.36-.01-.71.08-.96.34-.04.04-.07.08-.08.13,0,.06.03.13.06.18.54.95.62,2.14.21,3.15Z"/>
    <g>
      <path class="st0" d="M21.52,36.24c0,.63-.08,1.26-.05,1.89.04.68.23,1.37.81,1.78.32.23.73.3,1.11.32.36.02.73-.01,1.06-.15s.59-.35.8-.64c.18-.25.29-.54.36-.84.18-.73.17-1.5.16-2.24,0-.2-.17-.38-.38-.38s-.38.16-.38.38c0,.32,0,.64,0,.95,0,.16-.01.31-.03.47,0,.07-.01.14-.02.22,0,.03-.02.1,0-.02,0,.02,0,.04,0,.06,0,.04-.01.08-.02.11-.02.14-.06.28-.1.41-.02.06-.04.12-.06.18-.03.09.04-.08,0,0-.02.04-.03.07-.05.11-.03.05-.06.11-.09.16-.02.02-.03.04-.05.07-.04.05.06-.07.02-.02-.01.02-.03.03-.04.05-.04.04-.08.09-.13.13-.01,0-.02.02-.03.03-.03.03.08-.06.03-.02-.03.02-.06.04-.1.07-.05.03-.12.05-.17.09.05-.04.08-.03.04-.02-.02,0-.03.01-.05.02-.04.01-.08.03-.12.04-.07.02-.14.03-.21.04,0,0,.1-.01.04,0-.02,0-.04,0-.06,0-.05,0-.1,0-.14,0-.08,0-.17,0-.25,0-.05,0-.1,0-.15-.01-.03,0-.05,0-.08,0-.09-.01.08.01,0,0s-.15-.03-.23-.05c-.04-.01-.08-.03-.11-.04-.07-.02.08.04.02,0-.02,0-.03-.02-.05-.02-.06-.03-.11-.07-.17-.1s.07.06.02.02c-.01-.01-.03-.02-.04-.03-.03-.02-.05-.05-.07-.07-.02-.02-.04-.06-.07-.08.06.04.05.07.03.04,0-.01-.02-.03-.03-.04-.04-.06-.07-.12-.1-.18,0-.02-.01-.03-.02-.05-.03-.06.03.09.01.03,0-.03-.02-.05-.03-.08-.02-.07-.04-.14-.06-.21-.02-.07-.03-.13-.04-.2,0-.02,0-.04,0-.06.02.11,0,.06,0,.03,0-.04,0-.08-.01-.13-.06-.67.04-1.34.04-2.01,0-.2-.17-.38-.38-.38s-.37.16-.38.38h0Z"/>
      <path class="st0" d="M31.27,29.73c-1.31-2.07-3.66-3.41-6.12-3.38-1.26.02-2.51.37-3.6,1.01s-1.98,1.61-2.71,2.65c-.86,1.22-1.53,2.62-1.77,4.1-.04.22.1.5.36.47.39-.03.77-.11,1.13-.26l-.42-.55c-.57,1.24-1.32,3.09-.43,4.36.12.17.32.23.51.13s.36-.4.48-.58l-.69-.09c.31,1.7,2.15,2.51,3.74,2.45.48-.02.48-.77,0-.75-1.27.05-2.76-.51-3.01-1.9-.06-.34-.52-.34-.69-.09-.04.07-.09.13-.14.19-.04.06-.17.17-.07.12l.51.13c-.35-.5-.34-1.11-.22-1.68.14-.66.37-1.31.65-1.92.12-.26-.09-.69-.42-.55-.3.12-.61.21-.93.23l.36.47c.2-1.21.69-2.35,1.34-3.39.62-.98,1.39-1.95,2.34-2.62,1.86-1.31,4.34-1.58,6.4-.6,1.12.53,2.08,1.36,2.74,2.41.26.41.91.03.65-.38h0Z"/>
      <path class="st0" d="M28.51,36.24c0,.6.08,1.19.05,1.79,0,.07,0,.14-.01.22,0,.04,0,.07-.01.11,0,.02,0,.03,0,.05.01-.13,0-.03,0,0-.02.14-.05.28-.1.41,0,.03-.02.05-.03.08-.02.07.04-.09.01-.03,0,.02-.01.03-.02.05-.03.06-.06.12-.1.18,0,.01-.02.02-.02.03-.02.04-.04.02.02-.03-.02.02-.04.05-.07.08-.02.02-.04.04-.06.06-.01.01-.03.02-.04.03-.07.06.06-.04,0,0-.06.04-.11.07-.17.1-.03.02-.13.04-.01,0-.04.01-.09.03-.13.05-.08.02-.15.04-.23.05-.03,0-.04.02.03,0-.02,0-.06,0-.08,0-.06,0-.11.01-.17.01-.08,0-.17,0-.25,0-.04,0-.09,0-.13,0-.04,0-.17-.03-.05,0-.07-.02-.14-.02-.21-.04-.04,0-.07-.02-.11-.03-.02,0-.03-.01-.05-.02-.04-.02-.04-.04.02.01-.04-.04-.12-.06-.17-.09-.03-.02-.06-.04-.08-.06-.01,0-.06-.04,0,0s0,0-.01-.01c-.05-.04-.09-.08-.13-.13-.03-.03-.08-.12-.01-.01-.02-.03-.04-.05-.06-.08-.03-.05-.06-.1-.09-.16-.02-.03-.03-.06-.04-.09,0-.01,0-.02-.01-.03-.03-.06.04.1,0,0-.05-.13-.09-.26-.12-.39-.02-.08-.03-.16-.05-.24,0-.04-.01-.08-.02-.11-.01-.07.01.1,0,.02,0-.02,0-.05,0-.07-.02-.17-.03-.34-.04-.51-.02-.36-.01-.72-.01-1.08,0-.2-.17-.38-.38-.38s-.37.16-.38.38c0,.68,0,1.37.12,2.04.12.61.4,1.22.95,1.55.31.19.68.26,1.03.28.41.01.84-.04,1.21-.22.66-.31.91-1.01.98-1.68s-.03-1.4-.03-2.11c0-.2-.17-.38-.38-.38s-.38.16-.38.38h0Z"/>
      <path class="st0" d="M30.65,30.57c.33.16.58.39.84.65.33.33.64.69.9,1.07.24.34.47.71.58,1.12.01.05.04.21.04.18,0,.04,0,.09,0,.13,0,.1,0-.01,0,.05,0,.03-.01.05-.03.07.03-.03.1.07-.02-.03-.12-.11-.32-.16-.48-.16-.3,0-.44.32-.32.56.31.65.63,1.34.72,2.06.04.34.02.68-.08,1-.04.12-.03.18-.11.15-.11-.04-.17-.24-.2-.34-.06-.16-.18-.28-.36-.28-.16,0-.33.12-.36.28-.1.52-.27,1.04-.64,1.42s-.85.53-1.35.57-.48.79,0,.75c.68-.06,1.34-.27,1.84-.76s.75-1.13.87-1.79h-.72c.18.46.47.95,1.04.91s.76-.72.82-1.2c.14-1.11-.34-2.18-.81-3.15l-.32.56s-.02-.02.04.02c.04.02.07.05.11.07.1.05.2.09.31.1.2.01.39-.06.54-.19.22-.2.29-.49.28-.77-.03-.51-.28-1-.54-1.43-.31-.5-.68-.97-1.09-1.39-.32-.33-.68-.68-1.11-.88-.18-.09-.4-.05-.51.13-.1.16-.05.43.13.51h0Z"/>
      <path class="st0" d="M37.25,35.45c-.01.11.01-.08,0,.03,0,.02,0,.04-.01.07,0,.05-.02.11-.03.16-.02.11-.05.22-.08.32-.03.09-.06.19-.09.28-.02.05-.04.1-.06.15,0,.01-.03.07,0,0-.01.03-.03.06-.04.09-.09.2-.2.39-.32.57-.05.08-.11.16-.17.24.04-.06,0,0,0,0-.02.03-.04.05-.06.08-.03.04-.07.08-.11.12-.14.16-.29.3-.45.43-.02.02-.04.03-.06.05.05-.04.01,0,0,0-.04.03-.09.06-.13.09-.09.06-.18.12-.27.17-.08.05-.17.09-.25.14-.05.02-.1.04-.15.07.07-.03.01,0,0,0-.03.01-.07.03-.11.04-.2.07-.4.13-.61.17-.02,0-.04,0-.06.01-.03,0-.1.01-.03,0-.07,0-.13.02-.2.02-.12,0-.25.01-.37,0s-.24-.01-.36-.03c-.07,0,.09.02-.02,0-.03,0-.07-.01-.1-.02-.07-.01-.14-.03-.21-.04-.19-.05-.42.06-.46.26s.06.41.26.46c.98.23,2.01.11,2.9-.36.82-.43,1.51-1.15,1.92-1.98.25-.51.41-1.04.47-1.6.02-.2-.19-.38-.38-.38-.22,0-.35.17-.38.38h0Z"/>
      <path class="st0" d="M33.35,37.71c1.31-.33,2.02-1.81,1.95-3.08-.02-.35-.1-.68-.23-1-.06-.13-.13-.26-.21-.37-.11-.15-.24-.27-.36-.42.05.05-.05-.06-.04-.07.02,0,.01.06.02.06-.02-.07,0-.02,0,0-.04.07-.02.03.02,0-.04.04,0,0,.01,0,.03-.01.05-.03.08-.04,0,0,.08-.03.03-.02s.02,0,.03-.01c.04-.02.08-.03.13-.04.09-.03.18-.05.27-.06.07-.01.01,0,0,0,.02,0,.04,0,.06,0,.04,0,.08,0,.13,0,.09,0,.18,0,.27.01.06,0-.06-.01,0,0,.02,0,.04,0,.06.01.04,0,.08.02.12.03.09.02.17.05.25.08.01,0,.07.03,0,0,.02.01.05.02.07.03.04.02.08.04.13.06.08.05.16.1.24.15.02.01.03.02.05.04-.07-.05.01.01.02.02.04.03.07.06.1.09.07.07.14.14.2.22.01.01.04.06,0,0,.01.02.02.03.04.05.03.04.06.09.09.13.05.08.09.16.13.25-.03-.07,0-.02,0,0,.01.03.02.06.03.09.01.04.03.08.04.12.01.05.03.1.04.16,0,.02,0,.04.01.06-.01-.07,0,0,0,.03.02.19.16.38.38.38.19,0,.4-.17.38-.38-.08-.82-.53-1.54-1.23-1.98s-1.58-.52-2.34-.18c-.23.1-.47.27-.53.53-.08.29.05.55.24.76.06.07.13.13.19.2.01.01.02.03.03.04.03.04-.04-.06-.01-.01.02.04.05.07.07.11.04.06.07.12.1.18,0,.02.06.14.02.04.01.04.03.07.04.11.02.07.05.14.06.22,0,.03.02.07.02.11,0,.02,0,.04,0,.05,0,.01.01.09,0,.03,0-.06,0,0,0,.02,0,.02,0,.05,0,.07,0,.04,0,.07,0,.11,0,.08,0,.17,0,.25,0,.07-.01.15-.02.22,0,.02-.01.07,0-.02,0,.02,0,.04,0,.06,0,.05-.02.09-.03.14-.03.16-.08.31-.13.46,0,.02-.07.15-.02.07-.02.04-.03.08-.05.11-.04.08-.08.15-.13.23s-.1.14-.14.21c-.03.05.06-.07,0,0-.01.02-.03.03-.04.05-.03.03-.05.06-.08.09-.06.06-.13.12-.19.18-.02.01-.06.04.01-.01-.02.01-.04.03-.05.04-.04.03-.07.05-.11.07-.07.04-.14.08-.22.11.09-.04-.03,0-.06.02-.04.01-.08.03-.13.04-.2.05-.31.27-.26.46s.26.31.46.26h0Z"/>
    </g>
  </g>
  <g>
    <g>
      <path class="st1" d="M37.8,22.01c-.1-.32-.23-.64-.35-.95.19-.15.55.12.68-.08.04-.06.04-.13.03-.2-.05-.66-.3-1.31-.7-1.84-.68-.9-1.03-1.54-.98-2.69.04-.96-.07-1.93-.15-2.88-.07-.82-.12-1.67-.43-2.44-.17-.43-.54-1.39-1.07-1.45-.16-.02-.32.05-.46.13-.89.45-1.71,1.1-2.34,1.87-.6.73-.81,1.49-1.18,2.33-1.16-.12-2.32-.25-3.48-.37.17-.14.34-.29.43-.49s.04-.47-.16-.58c-.09-.05-.19-.05-.29-.05-.38,0-.76.09-1.1.25-.46.21-.93.55-1.42.44-.36-.08-.62-.38-.93-.57-.54-.31-1.21-.26-1.83-.2-.08,0-.15.02-.21.06-.19.14-.02.46.19.57s.49.18.57.41c-1.18.05-2.36.27-3.48.65-.61-.78-.92-1.8-1.56-2.54s-1.97-2.42-3.08-1.48c-.73.62-.8,2.14-.85,3.01-.07,1.33-.19,3.06.29,4.34.2.52.23.62-.03,1.13-.22.42-.44.84-.66,1.27-.15.29-.3.59-.32.92s.14.68.45.79c.25.09.62.05.7.3.03.1,0,.21-.04.31-.44,1.22-1.28,2.38-1.14,3.67.03.31.14.64.38.84s.65.23.85-.01c-.23.76-.4,1.54-.51,2.33-.04.27-.06.57.12.77s.49.22.74.12.44-.3.63-.49c0,.38.02.78.23,1.1s.7.47.98.21c.19-.18.23-.52.47-.63.93,1.23,2.29,2.14,3.79,2.53.05-.18.09-.37.14-.55,2.97,1.67,6.87,1.56,9.74-.28-.1.14.13.27.3.28,1.59.06,3.14-1.06,3.6-2.58.07.3.16.61.36.85s.56.36.83.21c.25-.14.32-.46.37-.74.11-.62.42-1.41.37-2.03.12.19.25.39.37.58.08.12.16.25.28.34.57.42.77-.74.79-1.09.04-.62.08-1.27-.17-1.83,0,0,.4-.58.43-.63.14-.3.22-.58.2-.92-.04-.68-.19-1.34-.4-1.98Z"/>
      <path class="st2" d="M15.82,12.06s-.07,0-.11.02c-.55.19-.47,1.44-.49,1.87-.04.81.07,1.55.23,2.33.03.15.13.31.28.31.11,0,.2-.09.28-.18.29-.32.61-.63.95-.91.25-.21.63-.37.83-.61.2-.22-.1-.66-.21-.86-.25-.46-.55-.9-.91-1.28-.19-.2-.53-.67-.85-.68Z"/>
      <path class="st2" d="M34.54,12.02c-.24-.47-.72-.33-1.01.15-.29.47-.47.99-.69,1.5-.26.59-.66.89.11,1.26.39.19.77.38,1.16.58.06.03.13.06.2.07.15.01.28-.1.34-.23.4-.89.24-2.26-.04-3.15-.02-.06-.04-.12-.07-.17Z"/>
    </g>
    <g>
      <g>
        <path class="st0" d="M17.49,15.54c1.55-1.43,3.83-1.78,5.86-1.81.49,0,.48-.71,0-.75-.6-.05-1.15-.36-1.49-.85l-.22.55c.51-.11,1.04-.1,1.54.03.53.14.93.48,1.43.68.55.23,1.06,0,1.58-.19.57-.22,1.14-.43,1.73-.58l-.46-.26c.06.18.1.27-.02.41-.14.16-.35.26-.52.39-.28.21-.22.7.19.7,2.31-.02,4.59.59,6.56,1.79.41.25.79-.4.38-.65-2.09-1.27-4.5-1.92-6.94-1.9l.19.7c.27-.21.62-.39.82-.67s.19-.64.07-.97c-.07-.19-.25-.31-.46-.26-.57.14-1.13.35-1.68.56-.28.11-.59.28-.9.3-.26.02-.48-.17-.69-.3-.91-.56-1.99-.72-3.02-.49-.23.05-.36.36-.22.55.5.73,1.26,1.16,2.14,1.23v-.75c-2.24.03-4.69.45-6.39,2.03-.36.33.18.86.53.53h0Z"/>
        <path class="st0" d="M15.8,16.2c-1.3.87-2.49,2.09-3.08,3.55-.14.34-.33.65-.33,1.03s.2.71.52.89c.41.24,1.4.46,1.65-.11l-.69-.29c-.31.96-.86,1.81-1.17,2.76-.17.51-.22,1.05-.18,1.59.04.46.12,1.07.55,1.34.54.34,1.1-.14,1.45-.53l-.63-.36c-.49,1.29-.93,2.73-.26,4.04.1.19.34.22.51.13.5-.26.95-.61,1.31-1.05l-.63-.36c-.07.45-.07.9.06,1.34.1.36.27.8.62.99s.74.04,1-.22c.28-.28.32-.71.61-.97l-.59-.08c.85,1.37,2.25,2.33,3.82,2.67.47.1.67-.62.2-.72-1.39-.29-2.62-1.12-3.37-2.32-.13-.21-.41-.24-.59-.08s-.29.37-.39.6c-.05.1-.18.47-.34.45-.14-.02-.25-.51-.28-.62-.07-.27-.08-.56-.03-.84.05-.33-.36-.69-.63-.36-.33.39-.71.7-1.16.93l.51.13c-.56-1.1-.07-2.4.34-3.46.13-.35-.39-.64-.63-.36-.14.16-.32.35-.51.42-.02,0-.03,0,0,0-.03-.02-.01,0-.06-.08-.16-.29-.17-.73-.16-1.07.03-1.31.94-2.47,1.34-3.71.13-.4-.51-.68-.69-.29-.03.07.05-.02.04-.03,0,0-.09,0-.1,0-.1-.01-.19-.02-.29-.04-.17-.04-.37-.08-.42-.27-.06-.22.13-.5.22-.7.11-.25.19-.49.33-.72.59-1.01,1.52-1.92,2.49-2.57.4-.27.02-.92-.38-.65h0Z"/>
        <path class="st0" d="M35.51,16.63c.71,1.53,1.98,2.76,2.33,4.45l.36-.47c-.42.01-.81-.16-1.05-.51-.27-.4-.9-.04-.65.38.62,1.01,1.2,2.3,1.2,3.47,0,.33-.02.7-.15,1.01-.01.03-.06.12-.06.12-.03-.02.15-.05.15-.04.04-.04,0,.07,0,0,0-.01-.07-.07-.08-.08-.09-.11-.15-.24-.22-.37l-.59.45c.65.72.66,1.88.45,2.78-.02.08-.04.2-.1.26,0,0,.09.1.01,0s-.11-.24-.15-.35c-.13-.34-.3-.64-.67-.76-.22-.07-.5.12-.47.36.09.98-.06,1.95-.48,2.85l.22-.17c-.52.15-.69-.6-.78-.95-.1-.39-.6-.32-.72,0-.53,1.32-2,2.52-3.44,2.6-.48.03-.48.78,0,.75,1.81-.11,3.5-1.51,4.17-3.15h-.72c.11.47.26.95.66,1.26.32.25.98.45,1.27.05.14-.19.21-.48.29-.71.1-.28.17-.57.22-.86.09-.55.12-1.1.07-1.65l-.47.36c.11.03.17.29.2.38.08.21.16.42.32.57.48.46,1.09.04,1.27-.47.2-.56.22-1.29.15-1.88-.07-.67-.29-1.29-.75-1.79-.3-.32-.78.09-.59.45.22.41.65,1.06,1.2.73.41-.24.48-.85.52-1.27.16-1.49-.52-3.08-1.28-4.32l-.65.38c.38.57,1,.9,1.69.88.25,0,.41-.23.36-.47-.37-1.77-1.67-3.04-2.4-4.63-.2-.44-.85-.06-.65.38h0Z"/>
        <path class="st0" d="M31.12,13.59c.47-.93,1.11-1.8,1.82-2.56.36-.39.73-.74,1.17-1,.05-.03.1-.05.15-.08.02-.01.04-.02.06-.03.06-.03-.08.03.02,0,.09-.03.18-.06.28-.08-.09.02.04,0,.06,0s.16.02.06,0c.04,0,.07.02.11.03.09.02-.05-.04.03,0,.03.02.05.04.08.05.07.03-.05-.05.02.02.05.05.1.1.15.15-.07-.08.01.02.02.04.02.03.04.07.07.1.04.07.08.15.12.23,0,.02.02.04.03.06.04.09-.02-.05,0,.01.02.05.04.09.05.14.04.1.07.19.1.29.07.22.12.43.17.65.21.98.29,1.97.33,3,.04.88.05,1.76.03,2.64-.01.48.74.48.75,0,.04-1.9,0-3.85-.37-5.72-.16-.78-.39-1.78-1.09-2.25-.87-.59-1.95.25-2.56.83-.51.48-.96,1.04-1.38,1.61-.35.48-.68.97-.94,1.5-.22.43.43.81.65.38h0Z"/>
        <path class="st0" d="M33.06,14.19c.1-.3.21-.6.33-.9l-.04.09c.12-.29.26-.57.41-.84.08-.14.17-.27.26-.4.01-.01.02-.03.03-.04.04-.06-.06.07-.01.02.03-.03.05-.07.08-.1.05-.06.1-.12.16-.17.14-.14.15-.39,0-.53s-.38-.15-.53,0c-.61.62-.98,1.44-1.28,2.25-.05.14-.1.29-.15.43-.06.19.07.42.26.46.21.05.39-.06.46-.26h0Z"/>
        <path class="st0" d="M13.36,15.77c.04.42.12.83.22,1.23.08.31.17.61.25.92.05.19.27.32.46.26s.32-.26.26-.46c-.17-.61-.35-1.22-.43-1.86v.1c0-.06,0-.13,0-.19-.01-.1-.03-.19-.11-.27-.07-.07-.17-.11-.27-.11s-.2.04-.27.11c-.06.07-.12.17-.11.27h0Z"/>
        <path class="st0" d="M19.31,13.28c-.58-.89-1.23-1.75-1.99-2.49-.56-.55-1.23-1.13-2.01-1.34-.3-.08-.65-.1-.93.04-.16.08-.28.23-.39.38-.31.44-.47,1-.58,1.52-.23,1.07-.26,2.17-.19,3.26.01.2.16.38.38.38.19,0,.39-.17.38-.38-.03-.51-.04-1.03-.02-1.55.01-.22.03-.45.05-.67,0-.04,0-.09.01-.13,0-.02,0-.05,0-.07,0,0,.01-.09,0-.04s0-.03,0-.04c0-.02,0-.05.01-.07,0-.05.02-.1.02-.15.05-.31.12-.63.22-.93.02-.06.04-.13.06-.19.01-.03.02-.06.03-.09,0-.01.01-.03.02-.04.02-.06-.03.06,0,.02.04-.09.09-.19.14-.28.02-.04.04-.08.07-.11,0-.01.02-.03.03-.04,0,0,.01-.02.02-.02.04-.05,0,.03-.03.03,0,0,.13-.12.13-.13,0,0-.09.08-.04.03,0,0,.02-.01.03-.02.04-.03-.06.02-.06.02.02,0,.05-.02.07-.02.01,0,.03,0,.04,0,.06-.02-.03,0-.04,0,0,0,.07,0,.09,0,.03,0,.06,0,.09,0,.05,0,.09.02.02,0,.14.03.27.07.41.12.05.02-.06-.03-.01,0,.02,0,.04.02.05.02.03.01.06.03.09.05.08.04.16.08.23.13s.15.1.22.15c.03.02.07.05.1.07.02.01.04.03.06.04.09.07-.05-.04.04.03.16.13.32.26.47.4.8.74,1.46,1.6,2.05,2.51.11.17.33.24.51.13.17-.1.24-.34.13-.51h0Z"/>
        <path class="st0" d="M17.82,14.46c-.23-.85-.64-1.63-1.18-2.33-.15-.19-.3-.36-.47-.53-.14-.14-.39-.15-.53,0s-.15.38,0,.53.28.3.41.45c.01.02.03.04.04.05,0,0,.01.02.02.03.03.04-.05-.06-.02-.02.03.04.06.08.09.13.06.08.12.17.17.25.11.17.21.34.3.51.05.09.09.18.13.27.02.04.04.09.06.13.02.04-.02-.04-.02-.04,0,.01,0,.02.01.03.01.03.02.06.03.08.08.21.15.43.21.65.05.19.27.32.46.26s.32-.26.26-.46h0Z"/>
      </g>
      <path class="st0" d="M20.37,31.83c.55.59,1.29,1.02,2.07,1.22.24.06.48.1.72.12.09,0,.2-.05.27-.11s.11-.17.11-.27c0-.22-.17-.36-.38-.38-.06,0-.12-.01-.18-.02h.1c-.34-.03-.68-.13-1-.26l.09.04c-.25-.11-.49-.24-.71-.39-.03-.02-.06-.04-.08-.06-.03-.02-.12-.09-.02-.01-.05-.04-.1-.08-.15-.12-.11-.09-.21-.19-.3-.29-.13-.14-.4-.15-.53,0-.14.15-.14.38,0,.53h0Z"/>
      <path class="st0" d="M30.87,30.89c-.06.06-.12.12-.19.18-.03.03-.07.06-.1.09-.02.01-.03.03-.05.04,0,0-.02.02-.03.02.09-.07.04-.03.02-.02-.17.13-.34.24-.52.35s-.38.21-.58.3c-.05.02-.09.04-.14.06-.06.02.03-.01.03-.01,0,0-.03.01-.04.02-.03.01-.06.02-.08.03-.09.04-.19.07-.28.1-.1.03-.21.06-.32.08-.02,0-.04,0-.07.01-.02,0-.11.02-.03,0s-.01,0-.03,0c-.03,0-.05,0-.08,0-.2,0-.38.17-.38.38,0,.2.17.38.38.38.46-.02.89-.17,1.3-.35s.8-.4,1.15-.66c.19-.14.38-.29.55-.46.14-.14.15-.39,0-.53s-.38-.15-.53,0h0Z"/>
    </g>
  </g>
</svg>