<?xml version="1.0" encoding="UTF-8"?>
<svg id="_얼굴없는" data-name="얼굴없는" xmlns="http://www.w3.org/2000/svg" version="1.1" viewBox="0 0 50.83 48.47">
  <!-- Generator: Adobe Illustrator 29.8.2, SVG Export Plug-In . SVG Version: 2.1.1 Build 3)  -->
  <defs>
    <style>
      .st0 {
        fill: #231f20;
      }

      .st1 {
        fill: #5c564d;
      }

      .st2 {
        fill: #eec688;
      }
    </style>
  </defs>
  <g>
    <path class="st2" d="M18.18,30.42c-.11.54-.38.84-.56,1.42-.21.68.26,1.4-.14,2.05-.44.72-.45,1.99-.12,2.76.39.9,1.62,1.23,2.55,1.3.36.03.79-.03.95-.35.45.56,1.51.61,2.14.5.78-.14,1.53-.47,2.33-.51.19,0,.38,0,.54.09.13.07.23.18.34.27.97.74,1.79.31,2.79.07s2.03.09,2.99-.45c.64-.35,1.08-1.03,1.15-1.76s-.23-1.47-.79-1.94c.54-.34.72-1.05.67-1.68-.05-.57-.11-1.14-.39-1.65-.07-.13-.15-.25-.2-.39-.06-.21-.02-.44,0-.67.05-.74-.24-1.48-.71-2.05-1.19-1.48-3.21-1.45-4.96-1.69-1.93-.26-3.99-.34-5.8.49-1.49.68-2.72,2.11-2.76,3.75,0,.17-.02.31-.05.44Z"/>
    <g>
      <path class="st0" d="M28.97,32.63c.86-.1,1.73-.32,2.48-.77s1.35-1.21,1.31-2.14c-.04-.73-.38-1.4-.73-2.03-.09-.17-.35-.24-.51-.13s-.24.33-.13.51c.07.13.14.25.21.38.04.07.07.14.11.21.01.02.02.05.03.07.01.02.02.05.03.07.02.04.02.05,0,.02.06.13.11.27.15.41.02.06.04.13.05.19,0,.04.02.08.02.12,0,.02,0,.04.01.07,0,.04,0,.04,0-.02.03.08.02.21.01.29,0,.04,0,.08,0,.13,0,.09.02-.09,0,0,0,.02,0,.05-.01.07-.02.09-.04.17-.07.25-.02.05-.04.04,0,0-.01.01-.02.05-.03.06-.02.04-.04.08-.07.12-.02.04-.04.07-.07.11-.01.02-.02.03-.03.05-.05.07.06-.07,0,0-.06.07-.12.14-.19.21-.03.03-.06.06-.09.08-.03.02-.08.08-.11.09,0,0,.07-.05.02-.01-.02.01-.04.03-.06.04-.04.03-.08.06-.12.08-.17.11-.34.2-.52.28-.02.01-.05.02-.07.03-.08.04.06-.02,0,0-.05.02-.09.04-.13.05-.1.04-.2.07-.3.1-.2.07-.41.12-.62.16-.1.02-.21.04-.32.06-.05,0-.09.01-.14.02-.08.01.09-.01,0,0-.03,0-.06,0-.09.01-.19.02-.38.16-.38.38,0,.18.17.4.38.38h0Z"/>
      <path class="st0" d="M18.6,27.99c-.69.7-1.06,1.71-.76,2.68s1.13,1.61,2.08,1.83c.77.18,1.56.17,2.35.16.2,0,.38-.17.38-.38s-.16-.38-.38-.38c-.32,0-.64,0-.97,0-.15,0-.31-.01-.46-.03-.08,0-.15-.01-.23-.02,0,0-.13-.02-.05,0-.05,0-.1-.02-.15-.02-.25-.04-.49-.1-.73-.19-.09-.03.07.04,0,0-.02-.01-.05-.02-.07-.03-.05-.02-.09-.05-.14-.07-.09-.05-.18-.11-.27-.18-.07-.05.06.05,0,0-.02-.02-.04-.03-.06-.05-.04-.03-.07-.06-.11-.1s-.07-.07-.1-.1c-.02-.02-.03-.04-.05-.05-.01-.01-.02-.02-.03-.04-.02-.03-.02-.02.02.02,0-.03-.05-.07-.07-.09-.03-.04-.05-.08-.07-.12s-.05-.08-.07-.12c-.01-.02-.02-.04-.03-.06-.04-.1.02.05,0-.02-.03-.09-.06-.17-.09-.26-.01-.04-.02-.09-.03-.13,0-.02,0-.05-.01-.07-.01-.07,0,.09,0-.01,0-.09-.01-.18,0-.28,0-.04,0-.08,0-.12,0-.02,0-.05,0-.07,0,.11,0,.02,0-.02.02-.11.05-.22.09-.33,0-.02.02-.05.03-.07,0-.02.01-.03.02-.05-.02.05-.02.06,0,.02.03-.05.05-.11.08-.16.06-.11.13-.21.2-.32.05-.08-.05.06,0-.01.02-.03.05-.06.07-.09.04-.05.09-.1.14-.15.14-.14.15-.39,0-.53s-.38-.15-.53,0h0Z"/>
      <path class="st0" d="M17.71,30.89c-.41.43-.65,1.02-.64,1.61s.25,1.15.67,1.56c.24.24.52.41.83.53.18.07.42-.08.46-.26.05-.21-.07-.39-.26-.46-.01,0-.03-.01-.04-.02,0,0,.07.03.04.02-.02-.01-.05-.02-.07-.03-.05-.03-.11-.06-.16-.09-.04-.03-.09-.06-.13-.09-.05-.04.02.01.02.02,0,0-.03-.02-.03-.03-.02-.02-.05-.04-.07-.06-.04-.04-.08-.07-.11-.11-.02-.02-.04-.04-.06-.07,0,0-.01-.02-.02-.03-.04-.05,0-.01.01.01-.01-.04-.07-.09-.09-.13-.03-.05-.06-.1-.09-.16-.01-.02-.02-.05-.03-.07-.04-.08.02.06,0,0-.02-.06-.04-.11-.06-.17-.01-.05-.03-.1-.04-.16,0,0,0-.04,0-.05,0,0,.01.1,0,.03,0-.03,0-.06,0-.09,0-.05,0-.11,0-.17,0-.06.02-.13.01-.19,0,0-.01.09,0,.03,0-.01,0-.02,0-.03,0-.03.01-.05.02-.08.01-.06.03-.12.05-.18,0-.03.02-.06.03-.09,0,0,.02-.03.02-.04,0,.03-.03.07,0,.01.03-.06.06-.12.09-.18.03-.05.07-.1.11-.16-.04.07-.03.04-.02.02.01-.01.03-.03.04-.05.02-.03.05-.05.07-.08.14-.14.15-.39,0-.53s-.38-.15-.53,0h0Z"/>
      <path class="st0" d="M32.39,30.88c.05.07.09.13.13.21.02.03.04.06.05.1s.03.1.06.12c-.03-.03-.02-.05,0-.01,0,.02.01.03.02.05.01.04.03.08.04.12.03.08.05.17.06.25,0,.02,0,.04,0,.05.01.07,0,0,0-.02,0,.04,0,.09.01.12,0,.08,0,.16,0,.25,0,.04,0,.08,0,.12,0,.02,0,.04,0,.05,0,.07,0,0,0-.02-.03.08-.03.17-.05.25-.02.07-.04.15-.07.22,0,.01-.01.04-.02.05.04-.07.01-.03,0-.01-.02.04-.04.08-.06.12-.04.07-.08.14-.12.2-.01.01-.02.03-.03.04-.02.03-.04.03.01-.01-.03.03-.06.07-.09.1-.05.06-.1.11-.16.16-.03.03-.06.05-.09.08-.01,0-.04.02-.04.03.04-.03.05-.03.02-.02-.01,0-.02.02-.03.02-.13.09-.26.17-.4.23-.02.01-.07.04,0,0-.02.01-.04.02-.06.02-.04.02-.08.03-.13.04-.08.03-.17.05-.26.07-.02,0-.04,0-.07.01-.07.01.06,0,0,0-.04,0-.09,0-.13.01-.09,0-.19,0-.28,0-.2-.01-.38.18-.38.38,0,.21.16.36.38.38.76.05,1.54-.26,2.06-.81s.8-1.34.71-2.11c-.05-.45-.2-.88-.47-1.25-.12-.16-.33-.25-.51-.13-.16.1-.26.34-.13.51h0Z"/>
      <path class="st0" d="M21.59,34.77c2.35.99,5.08.89,7.38-.18.18-.09.23-.35.13-.51-.11-.19-.33-.22-.51-.13-2.13,1-4.64,1.01-6.81.11-.19-.08-.41.08-.46.26-.06.22.07.38.26.46h0Z"/>
      <path class="st0" d="M19.82,35c.11.71.25,1.41.42,2.1.09.35.2.69.43.97.19.23.45.38.73.48.5.18,1.08.17,1.6.11.31-.03.63-.1.87-.32.12-.11.22-.27.25-.43.04-.21,0-.41-.07-.62-.06-.18-.11-.36-.15-.55,0-.05-.02-.1-.03-.14,0-.02,0-.04-.01-.06,0-.04,0-.03,0,0-.01-.1-.02-.19-.03-.29-.01-.18-.01-.37,0-.55,0-.05,0-.1.01-.15,0-.02,0-.04,0-.06,0-.02.01-.09,0-.01.01-.1.03-.19.05-.29.04-.19-.06-.41-.26-.46-.19-.04-.42.06-.46.26-.14.67-.14,1.35,0,2.01.03.15.07.31.12.46.02.07.05.15.07.22,0,.02,0,.03,0,.05-.01-.07,0-.02,0,0,0,.02,0,.03,0,.05,0,.05,0-.06,0,.01,0,.01-.02.05,0,0s0,0,0,0c0,0-.02.02-.02.03,0-.04.05-.06.02-.03-.01.01-.08.07-.03.03s-.03.02-.04.02c0,0-.02.01-.03.02-.06.03.02-.01.03-.01-.01,0-.07.02-.08.03-.06.02-.12.03-.17.04-.01,0-.02,0-.04,0-.05,0,.08,0,.03,0-.03,0-.05,0-.08,0-.06,0-.12,0-.18.01-.12,0-.25.01-.37.01s-.25,0-.37-.02c-.03,0-.06,0-.09,0,0,0,.08.01.04,0-.01,0-.02,0-.04,0-.07-.01-.13-.02-.19-.04-.05-.01-.11-.03-.16-.05-.02,0-.04-.02-.07-.03.1.03,0,0-.02-.01-.05-.02-.1-.05-.14-.08,0,0-.04-.03-.04-.03,0,0,.06.05.03.02-.03-.02-.05-.05-.08-.07-.02-.02-.03-.03-.05-.05,0,0-.03-.04-.03-.04,0,0,.04.06.02.03-.04-.06-.08-.13-.12-.2,0-.02-.02-.04-.03-.06,0,0,.02.06,0,.02-.01-.03-.02-.07-.04-.1-.02-.07-.04-.15-.06-.22-.19-.73-.34-1.47-.45-2.21-.03-.19-.28-.32-.46-.26-.21.07-.29.25-.26.46h0Z"/>
      <path class="st0" d="M17.25,33.65c-.61.72-.75,1.76-.42,2.64s1.12,1.56,2.05,1.85c.5.16,1.04.21,1.57.15.19-.02.38-.16.38-.38,0-.18-.17-.4-.38-.38s-.42.03-.63.02c-.05,0-.09,0-.14-.01-.03,0-.05,0-.08,0-.07,0,0,0,0,0-.11-.02-.22-.04-.33-.06-.1-.02-.19-.05-.29-.08-.05-.02-.09-.03-.14-.05-.02,0-.04-.01-.06-.02.08.03,0,0-.02-.01-.19-.09-.37-.2-.54-.32-.01-.01-.05-.05,0,0-.02-.02-.04-.03-.06-.05-.03-.03-.07-.06-.1-.09-.08-.07-.16-.15-.23-.24,0,0-.06-.08-.03-.03s-.02-.03-.02-.03c-.03-.04-.05-.08-.08-.12-.05-.08-.1-.16-.14-.25-.01-.03-.03-.05-.04-.08,0,.01.03.07,0,.01-.02-.04-.03-.09-.05-.13-.03-.1-.06-.2-.08-.3,0-.02,0-.04-.01-.06,0,0-.02-.1,0-.03s0-.03,0-.04c0-.02,0-.04,0-.06,0-.1,0-.21,0-.31,0-.05,0-.12.01-.17,0,0-.01.09,0,.02,0-.03,0-.06.01-.08.02-.11.05-.22.09-.32,0-.02.01-.03.02-.05.03-.07-.03.06.01-.03.02-.05.05-.09.07-.14.03-.05.06-.1.09-.14.01-.02.02-.03.03-.05-.06.08.02-.02.03-.03.13-.15.16-.39,0-.53-.14-.13-.39-.16-.53,0h0Z"/>
      <path class="st0" d="M29.61,34.8c-.1.66-.23,1.32-.39,1.97-.04.15-.07.3-.12.45-.01.03-.02.07-.04.1,0,0-.02.06,0,.01.02-.05,0,.02-.01.03-.03.07-.07.13-.12.2-.04.06.05-.06,0,0-.02.02-.04.04-.06.06s-.04.04-.06.06c-.06.06.06-.03-.02.01-.05.03-.09.06-.14.08-.01,0-.07.03-.07.04,0,0,.07-.03.03-.01-.02,0-.04.01-.06.02-.11.04-.23.07-.34.09-.03,0-.12,0-.01,0-.03,0-.06,0-.09,0-.06,0-.13,0-.19.01-.24,0-.49,0-.73-.02-.02,0-.05,0-.07,0-.07,0,.02,0,.03,0,0,0-.04,0-.05,0-.06,0-.11-.02-.16-.04-.01,0-.08-.03-.09-.03,0,0,.07.04.04.02,0,0-.02,0-.03-.01-.02-.01-.04-.03-.07-.04-.04-.02.05.05.02.02,0-.01-.03-.03-.04-.04-.04-.04.03.06,0,0,0,0-.02-.04-.02-.04,0,0,.02.07.02.04,0-.01-.02-.07-.01-.02,0,.04,0,0,0-.01,0-.02,0-.04,0-.06,0,.03,0,.04,0,0,.04-.16.09-.3.14-.46.2-.73.21-1.51.06-2.25-.04-.19-.28-.32-.46-.26-.2.07-.3.26-.26.46.02.08.03.16.04.24,0,.01.01.08,0,.03,0-.05,0,0,0,.01,0,.05.01.1.01.15.01.17.02.34.01.51,0,.08,0,.16-.01.24,0,.04,0,.08-.01.11,0,.02,0,.04,0,.06,0-.05,0-.02,0,.01-.03.17-.06.33-.11.49-.1.37-.27.76-.05,1.12.17.27.47.41.77.46.27.05.55.06.83.06s.58-.02.85-.09.55-.2.78-.4c.25-.22.4-.54.49-.86.22-.76.37-1.56.49-2.34.03-.19-.05-.41-.26-.46-.18-.04-.43.05-.46.26h0Z"/>
      <path class="st0" d="M32.38,34.18s.04.04.05.07c0,0-.05-.06,0,0,.03.04.05.08.08.12s.05.08.07.12c0,.02.02.03.02.05,0,.02.02.03.02.05-.02-.05-.02-.05,0-.01.03.08.06.16.08.24.01.05.02.09.03.14,0,.03,0,.06.01.08.01.08,0-.07,0,.01.02.18.04.39,0,.57.02-.1,0,.04-.01.07,0,.05-.02.09-.03.14-.03.1-.06.2-.1.3,0,.02-.02.07,0-.01,0,.02-.02.04-.03.07-.02.04-.04.08-.06.12-.05.09-.1.18-.17.27,0,0-.06.08-.02.03s-.02.03-.03.03c-.03.04-.07.08-.1.11-.07.07-.14.14-.22.21-.02.02-.05.04-.07.06.01,0,.06-.04,0,0-.04.03-.08.06-.12.09-.09.06-.19.12-.28.17-.04.02-.08.04-.12.06-.02.01-.05.02-.07.03.07-.03.02,0,0,0-.1.04-.21.08-.31.11s-.21.06-.32.08c-.03,0-.06.01-.09.02-.01,0-.12.02-.02,0-.06,0-.12.01-.18.02-.23.02-.46.01-.69-.01-.2-.02-.38.19-.38.38,0,.22.17.35.38.38.96.11,1.95-.15,2.71-.75s1.14-1.49,1.07-2.41c-.04-.55-.23-1.05-.59-1.47-.13-.15-.4-.14-.53,0-.15.16-.14.37,0,.53h0Z"/>
      <path class="st0" d="M24.31,38.12c.14.04.28.06.42.08.11.01.23.01.34,0,.14,0,.28-.03.42-.06s.27-.09.4-.15c.08-.04.15-.14.17-.22.02-.09.01-.21-.04-.29s-.13-.15-.22-.17h-.1c-.07-.01-.13,0-.19.04-.01,0-.03.01-.04.02l.09-.04c-.15.06-.31.11-.47.13h.1c-.17,0-.34,0-.51-.01h.1c-.09,0-.18-.02-.28-.05s-.21-.01-.29.04c-.08.05-.15.13-.17.22-.02.1-.02.2.04.29s.13.14.22.17h0Z"/>
    </g>
  </g>
  <g>
    <g>
      <path class="st2" d="M31.3,12.12c-2.89-.85-5.82-.47-8.76-.42-2.11.03-4.87.1-6.52,1.61-.48.44-.81,1.01-1.1,1.58-1.3,2.52-2.09,5.3-2.3,8.13-.07.93-.07,1.88.25,2.76s1.02,1.65,1.93,1.84c.23.05.46.06.67.16.22.11.38.32.56.5.72.75,1.61.98,2.61,1.05s1.84-.32,2.81-.35c.22,0,.42.07.63.14,1.08.38,2.18.7,3.32.77,1.6.1,3.16-.5,4.78-.55,1.4-.04,3.11-.12,4.04-1.34.08-.11.16-.22.26-.3.16-.12.38-.15.58-.19.93-.2,1.68-.93,2.09-1.78s.52-1.83.5-2.77c-.06-2.45-.92-4.82-2.09-6.97-.7-1.28-1.55-2.55-2.82-3.27-.45-.26-.94-.44-1.44-.59Z"/>
      <path class="st2" d="M15.47,12.08c-.74.05-1.5.14-2.17.44s-1.27.87-1.44,1.6c-.14.61.03,1.25.22,1.85.19.57.4,1.14.77,1.6s.94.81,1.54.79c.4-.02.78-.2,1.13-.41.47-.28.92-.65,1.13-1.16.14-.33.16-.7.25-1.04.14-.56.45-1.07.61-1.62.47-1.64-.61-2.15-2.04-2.05Z"/>
      <path class="st2" d="M32.44,12.66c-.05.07-.05.16-.04.25.07.74.13,1.49.2,2.23.06.63.12,1.27.33,1.87s.6,1.16,1.16,1.46c.18.09.38.16.58.16.2,0,.4-.05.58-.13,1.52-.59,1.95-1.88,1.96-3.35s-.41-2.15-1.87-2.56c-.78-.22-2.26-.7-2.89.08Z"/>
      <path class="st1" d="M20.02,24.14c-.38.27-.7.61-.85,1.05-.26.71-.01,1.54.52,2.08s1.31.78,2.06.76,1.48-.31,2.12-.7c.55-.34,1.08-.83,1.15-1.48-.03.25.76,1.04.94,1.2.44.41.99.7,1.58.83,1.13.24,2.37-.13,3.17-.95.16-.17.31-.35.4-.57.26-.62-.02-1.35-.43-1.88-.82-1.03-2.14-1.58-3.45-1.73-1.23-.15-2.53-.04-3.74.23-.85.2-1.68.3-2.5.64-.33.14-.66.3-.96.51Z"/>
    </g>
    <g>
      <path class="st0" d="M18.87,12.81c1.64-.85,3.57-.75,5.36-.62.2.01.38-.18.38-.38,0-.22-.17-.36-.38-.38-1.93-.14-3.97-.2-5.74.72-.18.09-.23.34-.13.51.11.18.33.23.51.13h0Z"/>
      <path class="st0" d="M25.67,12.19c1.86-.41,3.8-.25,5.58.42.19.07.41-.08.46-.26.06-.21-.07-.39-.26-.46-1.9-.72-3.99-.86-5.98-.42-.2.04-.31.27-.26.46.06.2.26.31.46.26h0Z"/>
      <path class="st0" d="M17.75,12.31c-.46-.47-1.11-.62-1.75-.61-.67.01-1.37.15-2.02.31-.69.18-1.37.47-1.89.98s-.77,1.19-.74,1.92c.01.39.08.78.15,1.16s.17.73.34,1.06c.26.49.69.9,1.19,1.15,1.06.54,2.34.46,3.27-.29,1.03-.83,1.45-2.35,1.03-3.6-.06-.19-.26-.32-.46-.26-.19.05-.33.27-.26.46.29.88.09,1.9-.53,2.58-.32.36-.68.57-1.14.67-.05.01-.1.02-.15.03-.12.02.04,0-.03,0-.03,0-.06,0-.09,0-.12,0-.24,0-.36,0-.06,0-.11,0-.17-.02.07,0-.01,0-.03,0-.03,0-.06-.01-.09-.02-.12-.02-.23-.06-.34-.09-.14-.05-.13-.05-.26-.11-.11-.06-.22-.12-.32-.19-.08-.05-.12-.08-.21-.17-.09-.08-.17-.17-.24-.26.04.05-.01-.02-.02-.03-.02-.03-.03-.05-.05-.08-.03-.05-.06-.1-.08-.14-.06-.12-.11-.25-.15-.38-.1-.32-.15-.66-.2-.99-.09-.6-.07-1.16.28-1.65.3-.42.81-.71,1.32-.89.35-.12.72-.2,1.08-.27.32-.06.59-.11.89-.13.16-.01.32-.02.47-.01.07,0,.14,0,.21.01.08,0,.04,0,.02,0,.04,0,.08.01.12.02.28.06.49.15.68.35.34.35.87-.18.53-.53h0Z"/>
      <path class="st0" d="M32.5,12.95c1.06-.22,2.18-.15,3.19.23.2.07.41.19.54.31.16.15.23.26.33.45.07.14.14.36.17.55.03.18.05.38.05.59,0,.93-.24,1.98-.98,2.58-.31.25-.69.37-1.1.36-.07,0-.05,0-.03,0-.03,0-.06,0-.08-.01-.05,0-.1-.02-.14-.03-.12-.04-.18-.06-.28-.11-.2-.1-.34-.21-.5-.35-.81-.78-.87-2.01-.8-3.09.01-.2-.18-.38-.38-.38-.21,0-.36.17-.38.38-.07,1.19.03,2.47.83,3.42.34.41.81.73,1.32.87.55.15,1.12.07,1.62-.2,1.09-.59,1.52-1.83,1.62-3,.08-1.02-.14-2.19-1.06-2.78-.58-.37-1.33-.52-2-.6-.72-.09-1.45-.05-2.16.1-.2.04-.31.27-.26.46.06.21.26.3.46.26h0Z"/>
      <path class="st0" d="M12.84,19.08c-.42,1.44-.79,2.95-.8,4.46,0,1.35.34,2.74,1.34,3.7.49.47,1.11.82,1.78.91.2.03.4-.05.46-.26.05-.18-.06-.43-.26-.46-1.04-.14-1.87-.94-2.25-1.9-.48-1.24-.36-2.62-.12-3.9.14-.79.35-1.57.57-2.34.13-.46-.59-.66-.72-.2h0Z"/>
      <path class="st0" d="M15.29,24.67c-.15,1.03-.27,2.13.18,3.1.23.5.64.89,1.11,1.17s1.02.5,1.56.64c.65.17,1.35.21,1.99,0,.19-.06.33-.26.26-.46-.06-.19-.26-.33-.46-.26-.12.04-.25.07-.38.1-.08.01-.03,0-.02,0-.03,0-.06,0-.1.01-.07,0-.14,0-.21.01-.13,0-.26,0-.39-.02-.03,0-.05,0-.08,0,.06,0-.02,0-.04,0-.07-.01-.14-.03-.21-.04-.26-.06-.51-.14-.76-.23-.06-.02-.11-.04-.17-.07-.01,0-.09-.04-.04-.01-.02,0-.05-.02-.07-.03-.12-.05-.25-.11-.37-.18-.1-.05-.19-.11-.29-.17-.05-.03-.1-.07-.15-.1.05.03,0,0-.01,0-.03-.03-.07-.05-.1-.08-.09-.08-.16-.16-.24-.25-.07-.08.02.04-.01-.02-.01-.02-.03-.05-.05-.07-.03-.05-.06-.09-.09-.14s-.05-.1-.08-.15c0,0-.04-.1-.02-.05s-.02-.05-.02-.05c-.04-.1-.07-.21-.1-.32-.01-.05-.02-.11-.03-.16,0-.02,0-.04-.01-.07,0-.01-.02-.12,0-.03-.01-.11-.02-.23-.03-.34-.01-.26,0-.51.02-.77.01-.13.02-.26.04-.39,0-.03,0-.07.01-.1,0-.02.02-.12,0-.04,0-.07.02-.14.03-.2.03-.19-.05-.41-.26-.46-.18-.04-.43.05-.46.26h0Z"/>
      <path class="st0" d="M22.14,29.57c1.56.91,3.52,1.07,5.22.47.48-.17.95-.4,1.37-.69.17-.11.24-.33.13-.51-.1-.17-.34-.25-.51-.13-1.33.91-3.03,1.17-4.57.75-.45-.12-.86-.3-1.26-.53s-.8.4-.38.65h0Z"/>
      <path class="st0" d="M22.68,15.13c.75.51,1.73.65,2.6.44.25-.06.5-.16.73-.28.17-.09.24-.35.13-.51-.11-.18-.33-.23-.51-.13-.04.02-.08.04-.12.06-.02,0-.04.02-.06.03,0,0,.07-.03.04-.02-.01,0-.03.01-.04.02-.09.04-.19.07-.29.09s-.19.05-.28.06c-.02,0-.05,0-.07.01,0,0,.08-.01.04,0-.01,0-.02,0-.03,0-.05,0-.1,0-.15.01-.1,0-.19,0-.29,0-.05,0-.1,0-.15,0-.02,0-.05,0-.07,0-.09,0,.06,0,0,0-.19-.03-.38-.07-.56-.14-.03,0-.05-.02-.08-.03-.01,0-.02,0-.03-.01-.06-.02.06.03.02,0-.05-.02-.1-.04-.15-.07-.1-.05-.2-.11-.29-.17-.16-.11-.42-.04-.51.13-.1.19-.04.4.13.51h0Z"/>
      <path class="st0" d="M21.82,21.46c.97-.3,2.08-.67,2.62-1.6.48-.82.43-2.02-.45-2.55-.48-.29-1.11-.35-1.66-.27s-.98.34-1.38.68c-.36.31-.66.67-1.01.99-.32.3-.7.51-1.1.69-.93.42-1.96.72-2.53,1.64-.25.41.4.79.65.38.39-.64,1.16-.9,1.82-1.18.39-.16.77-.32,1.12-.55s.65-.52.95-.82.56-.6.9-.82c.39-.25.82-.32,1.27-.27.37.05.74.19.89.54.12.27.09.61-.02.91-.32.92-1.46,1.24-2.29,1.5-.46.14-.26.87.2.72h0Z"/>
      <path class="st0" d="M27.29,20.52c-.73.03-1.43-.48-1.55-1.22s.32-1.44,1.03-1.64c.33-.09.7-.09,1.02.06.38.17.67.48.95.78.32.33.64.64,1.02.9s.79.48,1.19.71c.78.44,1.63,1,1.84,1.93.11.47.83.27.72-.2-.23-1-1.05-1.7-1.9-2.21-.47-.28-.97-.53-1.43-.84-.42-.28-.74-.64-1.09-.99s-.77-.71-1.28-.85c-.45-.13-.96-.11-1.4.06-.94.36-1.54,1.32-1.42,2.33.13,1.13,1.16,2,2.3,1.95.48-.02.48-.77,0-.75h0Z"/>
      <path class="st0" d="M23.38,22.62c-1.09.08-2.22.25-3.16.85-.84.52-1.5,1.37-1.52,2.39-.01.46.12.95.38,1.33.32.46.79.74,1.31.93,1.01.38,2.16.36,3.15-.07s1.77-1.33,1.95-2.38c.03-.2-.05-.4-.26-.46-.18-.05-.43.06-.46.26-.13.75-.6,1.37-1.25,1.75-.75.44-1.67.52-2.5.31-.4-.1-.84-.26-1.14-.55-.25-.24-.4-.57-.43-.88-.07-.75.35-1.42.97-1.86.86-.61,1.93-.78,2.95-.86.2-.02.38-.16.38-.38,0-.19-.17-.39-.38-.38h0Z"/>
      <path class="st0" d="M36.58,19.28c.38,1.32.73,2.69.77,4.07.04,1.18-.19,2.42-1.05,3.3-.42.42-.93.7-1.52.78-.2.03-.31.28-.26.46.06.22.26.29.46.26,1.2-.16,2.19-1.1,2.67-2.18.6-1.37.51-2.9.26-4.35-.15-.86-.36-1.71-.61-2.55-.13-.46-.86-.27-.72.2h0Z"/>
      <path class="st0" d="M34.13,24.87c0,.06.02.11.02.17.02.11,0-.05,0,.02,0,.03,0,.06.01.09.01.12.03.23.04.35.02.23.04.47.03.7,0,.11,0,.22-.01.33,0,.05,0,.1-.01.15-.01.11.01-.08,0,.03,0,.03-.01.07-.02.1-.02.1-.04.2-.07.29-.02.05-.03.11-.05.16,0,.03-.02.05-.03.08-.01.02,0,.02,0-.01,0,.02-.02.04-.03.06-.04.09-.09.18-.14.26-.02.02-.03.05-.05.07,0,.01-.05.07-.01.02-.04.05-.08.1-.13.15-.08.08-.16.16-.26.23.05-.04-.01,0-.03.02-.02.02-.05.04-.08.05-.05.03-.1.07-.16.1-.11.06-.21.12-.32.17-.06.03-.11.05-.17.08-.02.01-.04.02-.07.03-.07.03.02,0-.05.02-.25.1-.5.19-.75.26-.14.04-.28.07-.43.09-.12.02.04,0-.04,0-.05,0-.09.01-.14.01-.06,0-.13,0-.19.01-.14,0-.29,0-.43-.02.07.01-.05-.01-.05-.01-.04,0-.08-.02-.11-.02-.08-.02-.15-.04-.23-.06-.19-.06-.42.07-.46.26-.05.21.06.39.26.46,1.12.37,2.39-.01,3.39-.55.49-.26.93-.62,1.2-1.11.25-.46.36-.97.39-1.49.03-.59-.05-1.17-.13-1.75-.03-.19-.29-.32-.46-.26-.21.07-.29.25-.26.46h0Z"/>
      <path class="st0" d="M26.9,23.37c.91.07,1.86.21,2.66.67.34.19.66.46.88.76.06.08.11.16.16.24.04.07.1.19.11.23.03.09.06.18.08.27.03.12.03.16.04.26.02.37-.06.69-.27,1-.09.12-.25.27-.4.37-.18.11-.37.2-.57.27-.81.28-1.75.31-2.54-.05s-1.4-1.05-1.54-1.91c-.03-.2-.28-.31-.46-.26-.21.06-.3.26-.26.46.16.94.81,1.76,1.63,2.23.93.53,2.09.62,3.11.34.51-.14,1.03-.37,1.42-.74.36-.35.56-.82.62-1.32.12-1-.43-1.91-1.2-2.5-.99-.76-2.25-.96-3.46-1.06-.2-.02-.38.18-.38.38,0,.22.17.36.38.38h0Z"/>
    </g>
  </g>
</svg>