<?xml version="1.0" encoding="UTF-8"?>
<svg id="_얼굴없는" data-name="얼굴없는" xmlns="http://www.w3.org/2000/svg" version="1.1" viewBox="0 0 50.83 48.47">
  <!-- Generator: Adobe Illustrator 29.8.2, SVG Export Plug-In . SVG Version: 2.1.1 Build 3)  -->
  <defs>
    <style>
      .st0 {
        fill: #231f20;
      }

      .st1 {
        fill: #f39b4a;
      }

      .st2 {
        fill: #5c564d;
      }
    </style>
  </defs>
  <g>
    <path class="st1" d="M34.82,31.58c-.36-.01-.71.08-.96.34-.04.04-.07.08-.08.13,0,.06.03.13.06.18.54.95.62,2.14.21,3.15-.15.38-.38.74-.72.96s-.8.29-1.15.08c.45-2.05-.36-4.18-1.17-6.04-.15-.34-.35-1.03-.66-1.25-1.08-1.64-2.91-2.78-4.86-3-2.02-.23-4.12.5-5.56,1.93-2.51,2.5-4.47,11.26,1.33,10.97l.41-.44c.19.31.49.53.98.6,1.74.24,2.15-.84,2.25-2.14.1,1.29.51,2.37,2.25,2.14,1-.14,1.95-.26,2.9-.59.97-.34,1.86-.15,2.83-.09,1.08.06,2.18-.54,3.01-1.18.84-.64,1.14-1.53,1.2-2.55.05-.9,0-1.91-.65-2.53-.2-.19-.43-.32-.68-.43-.29-.13-.62-.23-.94-.24Z"/>
    <path class="st2" d="M33.47,37.54c1.8-.71,3.08-2.72,2.62-4.69-.05-.2-.11-.4-.24-.57-.21-.28-.56-.42-.91-.45-.25-.02-1.37-.08-1.1.4.54.95.62,2.14.21,3.15-.15.38-.38.74-.72.96-.65.43-1.12.2-1.48,1.06-.25.61,1.09.31,1.31.24.1-.03.2-.07.3-.11Z"/>
    <g>
      <path class="st2" d="M20.93,30.94c-.41-.7-1.2-1.3-1.88-1.68-.42-.24-1.58,5.03-1.52,5.55.38-.31.74-.47,1.22-.64.69-.24,1.4-.51,1.9-1.04.72-.76.67-1.52.29-2.19Z"/>
      <path class="st2" d="M31.02,30.38c-.09-.21-.21-.56-.36-.85-.23.17-.47.33-.69.51-.79.64-2.01,1.44-1.41,2.64.62,1.25,2.49,1.63,3.65,2.18.65-.82-.82-3.63-1.18-4.47Z"/>
    </g>
    <g>
      <path class="st0" d="M21.04,35.6c0,.63-.08,1.26-.05,1.89.04.68.23,1.37.81,1.78.32.23.73.3,1.11.32.36.02.73-.01,1.06-.15s.59-.35.8-.64c.18-.25.29-.54.36-.84.18-.73.17-1.5.16-2.24,0-.2-.17-.38-.38-.38s-.38.16-.38.38c0,.32,0,.64,0,.95,0,.16-.01.31-.03.47,0,.07-.01.14-.02.22,0,.03-.02.1,0-.02,0,.02,0,.04,0,.06,0,.04-.01.08-.02.11-.02.14-.06.28-.1.41-.02.06-.04.12-.06.18-.03.09.04-.08,0,0-.02.04-.03.07-.05.11-.03.05-.06.11-.09.16-.02.02-.03.04-.05.07-.04.05.06-.07.02-.02-.01.02-.03.03-.04.05-.04.04-.08.09-.13.13-.01,0-.02.02-.03.03-.03.03.08-.06.03-.02-.03.02-.06.04-.1.07-.05.03-.12.05-.17.09.05-.04.08-.03.04-.02-.02,0-.03.01-.05.02-.04.01-.08.03-.12.04-.07.02-.14.03-.21.04,0,0,.1-.01.04,0-.02,0-.04,0-.06,0-.05,0-.1,0-.14,0-.08,0-.17,0-.25,0-.05,0-.1,0-.15-.01-.03,0-.05,0-.08,0-.09-.01.08.01,0,0s-.15-.03-.23-.05c-.04-.01-.08-.03-.11-.04-.07-.02.08.04.02,0-.02,0-.03-.02-.05-.02-.06-.03-.11-.07-.17-.1s.07.06.02.02c-.01-.01-.03-.02-.04-.03-.03-.02-.05-.05-.07-.07-.02-.02-.04-.06-.07-.08.06.04.05.07.03.04,0-.01-.02-.03-.03-.04-.04-.06-.07-.12-.1-.18,0-.02-.01-.03-.02-.05-.03-.06.03.09.01.03,0-.03-.02-.05-.03-.08-.02-.07-.04-.14-.06-.21-.02-.07-.03-.13-.04-.2,0-.02,0-.04,0-.06.02.11,0,.06,0,.03,0-.04,0-.08-.01-.13-.06-.67.04-1.34.04-2.01,0-.2-.17-.38-.38-.38s-.37.16-.38.38h0Z"/>
      <path class="st0" d="M30.79,29.09c-1.32-2.09-3.69-3.43-6.17-3.38-2.15.04-4.33,1.08-5.58,2.86-.84,1.21-1.38,2.67-1.68,4.1s-.42,3.02.11,4.41c.27.7.7,1.32,1.33,1.74.72.48,1.61.62,2.47.59.48-.02.48-.77,0-.75-1.26.06-2.4-.37-2.97-1.54s-.51-2.55-.31-3.76c.22-1.35.66-2.68,1.35-3.86.9-1.55,2.45-2.57,4.21-2.91,2.55-.5,5.21.71,6.59,2.9.26.41.91.03.65-.38h0Z"/>
      <path class="st0" d="M28.02,35.6c0,.6.08,1.19.05,1.79,0,.07,0,.14-.01.22,0,.04,0,.07-.01.11,0,.02,0,.03,0,.05.01-.13,0-.03,0,0-.02.14-.05.28-.1.41,0,.03-.02.05-.03.08-.02.07.04-.09.01-.03,0,.02-.01.03-.02.05-.03.06-.06.12-.1.18,0,.01-.02.02-.02.03-.02.04-.04.02.02-.03-.02.02-.04.05-.07.08-.02.02-.04.04-.06.06-.01.01-.03.02-.04.03-.07.06.06-.04,0,0-.06.04-.11.07-.17.1-.03.02-.13.04-.01,0-.04.01-.09.03-.13.05-.08.02-.15.04-.23.05-.03,0-.04.02.03,0-.02,0-.06,0-.08,0-.06,0-.11.01-.17.01-.08,0-.17,0-.25,0-.04,0-.09,0-.13,0-.04,0-.17-.03-.05,0-.07-.02-.14-.02-.21-.04-.04,0-.07-.02-.11-.03-.02,0-.03-.01-.05-.02-.04-.02-.04-.04.02.01-.04-.04-.12-.06-.17-.09-.03-.02-.06-.04-.08-.06-.01,0-.06-.04,0,0s0,0-.01-.01c-.05-.04-.09-.08-.13-.13-.03-.03-.08-.12-.01-.01-.02-.03-.04-.05-.06-.08-.03-.05-.06-.1-.09-.16-.02-.03-.03-.06-.04-.09,0-.01,0-.02-.01-.03-.03-.06.04.1,0,0-.05-.13-.09-.26-.12-.39-.02-.08-.03-.16-.05-.24,0-.04-.01-.08-.02-.11-.01-.07.01.1,0,.02,0-.02,0-.05,0-.07-.02-.17-.03-.34-.04-.51-.02-.36-.01-.72-.01-1.08,0-.2-.17-.38-.38-.38s-.37.16-.38.38c0,.68,0,1.37.12,2.04.12.61.4,1.22.95,1.55.31.19.68.26,1.03.28.41.01.84-.04,1.21-.22.66-.31.91-1.01.98-1.68s-.03-1.4-.03-2.11c0-.2-.17-.38-.38-.38s-.38.16-.38.38h0Z"/>
      <path class="st0" d="M30.13,29.42c.14.08.22.3.29.44.09.2.15.4.23.6.13.32.27.64.39.97.27.73.5,1.47.66,2.23.26,1.24.42,2.82-.36,3.83-.49.63-1.28.89-2.06.95-.48.04-.48.79,0,.75.87-.07,1.73-.32,2.38-.94.54-.52.83-1.23.94-1.96.24-1.64-.21-3.36-.77-4.89-.15-.4-.33-.82-.48-1.21-.2-.49-.35-1.13-.84-1.42-.42-.25-.79.4-.38.65h0Z"/>
      <path class="st0" d="M36.76,34.81c-.01.11.01-.08,0,.03,0,.02,0,.04-.01.07,0,.05-.02.11-.03.16-.02.11-.05.22-.08.32-.03.09-.06.19-.09.28-.02.05-.04.1-.06.15,0,.01-.03.07,0,0-.01.03-.03.06-.04.09-.09.2-.2.39-.32.57-.05.08-.11.16-.17.24.04-.06,0,0,0,0-.02.03-.04.05-.06.08-.03.04-.07.08-.11.12-.14.16-.29.3-.45.43-.02.02-.04.03-.06.05.05-.04.01,0,0,0-.04.03-.09.06-.13.09-.09.06-.18.12-.27.17-.08.05-.17.09-.25.14-.05.02-.1.04-.15.07.07-.03.01,0,0,0-.03.01-.07.03-.11.04-.2.07-.4.13-.61.17-.02,0-.04,0-.06.01-.03,0-.1.01-.03,0-.07,0-.13.02-.2.02-.12,0-.25.01-.37,0s-.24-.01-.36-.03c-.07,0,.09.02-.02,0-.03,0-.07-.01-.1-.02-.07-.01-.14-.03-.21-.04-.19-.05-.42.06-.46.26s.06.41.26.46c.98.23,2.01.11,2.9-.36.82-.43,1.51-1.15,1.92-1.98.25-.51.41-1.04.47-1.6.02-.2-.19-.38-.38-.38-.22,0-.35.17-.38.38h0Z"/>
      <path class="st0" d="M32.87,37.07c1.31-.33,2.02-1.81,1.95-3.08-.02-.35-.1-.68-.23-1-.06-.13-.13-.26-.21-.37-.11-.15-.24-.27-.36-.42.05.05-.05-.06-.04-.07.02,0,.01.06.02.06-.02-.07,0-.02,0,0-.04.07-.02.03.02,0-.04.04,0,0,.01,0,.03-.01.05-.03.08-.04,0,0,.08-.03.03-.02s.02,0,.03-.01c.04-.02.08-.03.13-.04.09-.03.18-.05.27-.06.07-.01.01,0,0,0,.02,0,.04,0,.06,0,.04,0,.08,0,.13,0,.09,0,.18,0,.27.01.06,0-.06-.01,0,0,.02,0,.04,0,.06.01.04,0,.08.02.12.03.09.02.17.05.25.08.01,0,.07.03,0,0,.02.01.05.02.07.03.04.02.08.04.13.06.08.05.16.1.24.15.02.01.03.02.05.04-.07-.05.01.01.02.02.04.03.07.06.1.09.07.07.14.14.2.22.01.01.04.06,0,0,.01.02.02.03.04.05.03.04.06.09.09.13.05.08.09.16.13.25-.03-.07,0-.02,0,0,.01.03.02.06.03.09.01.04.03.08.04.12.01.05.03.1.04.16,0,.02,0,.04.01.06-.01-.07,0,0,0,.03.02.19.16.38.38.38.19,0,.4-.17.38-.38-.08-.82-.53-1.54-1.23-1.98s-1.58-.52-2.34-.18c-.23.1-.47.27-.53.53-.08.29.05.55.24.76.06.07.13.13.19.2.01.01.02.03.03.04.03.04-.04-.06-.01-.01.02.04.05.07.07.11.04.06.07.12.1.18,0,.02.06.14.02.04.01.04.03.07.04.11.02.07.05.14.06.22,0,.03.02.07.02.11,0,.02,0,.04,0,.05,0,.01.01.09,0,.03,0-.06,0,0,0,.02,0,.02,0,.05,0,.07,0,.04,0,.07,0,.11,0,.08,0,.17,0,.25,0,.07-.01.15-.02.22,0,.02-.01.07,0-.02,0,.02,0,.04,0,.06,0,.05-.02.09-.03.14-.03.16-.08.31-.13.46,0,.02-.07.15-.02.07-.02.04-.03.08-.05.11-.04.08-.08.15-.13.23s-.1.14-.14.21c-.03.05.06-.07,0,0-.01.02-.03.03-.04.05-.03.03-.05.06-.08.09-.06.06-.13.12-.19.18-.02.01-.06.04.01-.01-.02.01-.04.03-.05.04-.04.03-.07.05-.11.07-.07.04-.14.08-.22.11.09-.04-.03,0-.06.02-.04.01-.08.03-.13.04-.2.05-.31.27-.26.46s.26.31.46.26h0Z"/>
    </g>
  </g>
  <g>
    <g>
      <path class="st1" d="M18.99,13.81c3.64-.51,7.49-.99,10.87.44.77-2.45,2.16-4.7,4-6.49.24-.23.52-.47.85-.44.39.04.63.43.8.79.72,1.59,1.09,3.34,1.1,5.09.01,2.05-.43,3.24-1.47,4.96-.09.14-.17.29-.18.46,0,.14.06.27.12.39.43.92.66,1.49.71,2.5.04.86.08,1.76.47,2.55.15.3.34.59.43.91.21.78-.34,1.69-1.13,1.86.19.17.38.33.58.5-1.22,1.8-3.28,2.87-5.39,3.37-3.11.74-6.56.75-9.72.32-2.11-.29-5.23-.65-6.83-2.22-.52-.51-.43-1.01-1.2-1.3-.36-.13-.77-.35-.79-.73,0-.12.04-.24.08-.35.27-.78.54-1.53.62-2.36.15-1.66.28-3.18.77-4.77.14-.45-.74-2.09-.91-2.63-.48-1.55-.58-3.3-.34-4.95.15-.97.57-4.15,1.79-4.44.12-.03.25,0,.38.03,1.16.27,1.94,1.68,2.53,2.6.2.31,1.96,3.9,1.88,3.91Z"/>
      <path class="st2" d="M35.1,18.93c-.05-.24-.1-.48-.18-.7.03.05.07.1.1.15.03-.08.08-.15.12-.22,1.04-1.72,1.48-2.91,1.47-4.96-.01-1.75-.38-3.49-1.1-5.09-.16-.36-.41-.75-.8-.79-.33-.03-.61.21-.85.44-1.84,1.79-3.22,4.04-4,6.49-3.38-1.43-7.23-.95-10.87-.44.08-.01-1.67-3.6-1.88-3.91-.6-.92-1.37-2.33-2.53-2.6-.12-.03-.25-.06-.38-.03-1.22.29-1.65,3.47-1.79,4.44-.25,1.65-.14,3.4.34,4.95.13.41.65,1.44.84,2.11-.5,1.5-.84,3.47-.79,5.06.49-.48,1.21-.62,1.85-.88.12-.05.22-.12.34-.17.22-3.53,2.31-6.3,4.86-6.3,2.12,0,3.92,1.92,4.6,4.6.67-2.68,2.47-4.6,4.6-4.6,2.49,0,4.54,2.64,4.84,6.05.06.02.12.03.17.04.77.25,1.44.69,2.16,1.03-.01-.98-.34-2.52-.71-3.43-.16-.39-.32-.79-.41-1.23ZM14.33,17.25c-.06-.08-.12-.16-.18-.25-1.3-1.95-1.3-5.45,0-7.33.95-1.39,2.93,3.93,2.96,4.49.05,1.04-2,2.58-2.77,3.09ZM32.89,16.08c-.3-.25-.62-.5-.79-.85-.44-.88.22-2.66.59-3.48.38-.86.9-1.99,1.84-2.37.9,1.19.94,2.39.98,3.81.04,1.35-.11,2.44-.63,3.72-.35.86-1.61-.52-1.99-.83Z"/>
      <ellipse class="st2" cx="24.49" cy="25.81" rx="4.83" ry="3.96"/>
    </g>
    <g>
      <path class="st0" d="M16.54,15.74c3.3-2.03,7.4-2.64,11.16-1.74,1.07.26,2.11.63,3.09,1.13.43.22.81-.43.38-.65-3.64-1.83-7.98-2.12-11.85-.85-1.11.36-2.17.86-3.16,1.46-.41.25-.03.9.38.65h0Z"/>
      <path class="st0" d="M15.09,16.11c-1.24,1.39-2.11,3.12-2.4,4.97-.16.99-.05,1.97-.12,2.96-.03.43-.13.75-.33,1.13-.18.33-.37.67-.44,1.04-.08.41.03.83.35,1.11s.76.38,1.11.63l-.17-.42c-.17.81.42,1.41,1.05,1.81.77.49,1.62.89,2.47,1.21,1.55.59,3.2.83,4.85.89.48.02.48-.73,0-.75-1.41-.06-2.81-.24-4.15-.69-.74-.25-1.45-.56-2.14-.93-.43-.23-1.5-.7-1.36-1.34.04-.18-.03-.32-.17-.42-.3-.22-.89-.31-1.07-.65-.17-.31.14-.77.29-1.04.23-.43.39-.82.45-1.3.07-.57.04-1.14.04-1.71,0-2.2.82-4.33,2.29-5.97.32-.36-.21-.89-.53-.53h0Z"/>
      <path class="st0" d="M13.97,18.88c-1.65-2.18-1.76-5.32-1.13-7.89.18-.72.42-1.42.76-2.07.22-.43-.43-.81-.65-.38-.67,1.29-1.02,2.72-1.15,4.16s-.02,3.02.44,4.43c.25.76.6,1.49,1.08,2.13.12.16.32.24.51.13.16-.09.26-.35.13-.51h0Z"/>
      <path class="st0" d="M14,8.1c.08-.16.19-.43.37-.44s.41.21.55.33c.41.39.79.81,1.15,1.25.71.88,1.3,1.85,1.78,2.88.27.58.49,1.17.68,1.78.14.46.86.26.72-.2-.38-1.24-.91-2.43-1.6-3.52-.34-.55-.72-1.07-1.14-1.57s-.84-1-1.35-1.38c-.31-.23-.71-.4-1.09-.26-.35.13-.56.44-.72.76-.09.18-.05.41.13.51.17.1.42.05.51-.13h0Z"/>
      <path class="st0" d="M14.57,9.73c1.14,1.37,1.9,3.15,2.13,4.91.03.2.15.38.38.38.18,0,.4-.17.38-.38-.2-1.55-.72-3.05-1.56-4.37-.24-.37-.5-.73-.78-1.07-.13-.16-.4-.13-.53,0-.15.15-.13.37,0,.53h0Z"/>
      <path class="st0" d="M33.26,16.64c.98,1.09,1.69,2.42,2.04,3.84s.19,2.97.93,4.31c.19.35.35.66.13,1.04s-.64.59-1.01.8c-.42.23-.04.88.38.65.71-.39,1.52-.95,1.5-1.86,0-.41-.23-.76-.41-1.11s-.29-.72-.36-1.09c-.17-.81-.19-1.65-.33-2.47s-.42-1.59-.78-2.33c-.4-.84-.93-1.61-1.55-2.3-.32-.36-.85.17-.53.53h0Z"/>
      <path class="st0" d="M35.71,18.75c.76-1.6,1.26-3.32,1.34-5.1s-.3-3.54-1.12-5.11c-.22-.43-.87-.05-.65.38,1.55,2.99,1.19,6.49-.22,9.46-.21.43.44.81.65.38h0Z"/>
      <path class="st0" d="M35.54,7.72c-.14-.27-.31-.55-.59-.7-.33-.18-.71-.12-1.02.06-.28.16-.52.4-.75.63s-.44.46-.65.7c-.83.97-1.54,2.06-2.09,3.22-.31.67-.58,1.35-.8,2.06-.14.46.58.66.72.2.66-2.16,1.84-4.17,3.45-5.76.17-.17.4-.45.65-.47.09-.01.15.03.21.1.08.09.15.23.2.34.09.18.35.23.51.13.18-.11.23-.33.13-.51h0Z"/>
      <path class="st0" d="M33.78,9.2c-.99,1.19-1.71,2.6-2.1,4.11-.11.44-.19.88-.25,1.33-.03.2.19.38.38.38.22,0,.35-.17.38-.38.23-1.76.98-3.54,2.13-4.91.13-.16.15-.38,0-.53-.13-.13-.4-.16-.53,0h0Z"/>
      <path class="st0" d="M29.79,31.49c1-.11,1.94-.46,2.83-.93s1.68-1.01,2.43-1.63c.43-.35.83-.72,1.22-1.11.34-.35-.19-.88-.53-.53-.63.65-1.32,1.24-2.07,1.75s-1.55,1-2.41,1.33c-.48.18-.97.33-1.48.38-.2.02-.38.16-.38.38,0,.19.17.4.38.38h0Z"/>
    </g>
  </g>
</svg>