<?xml version="1.0" encoding="UTF-8"?>
<svg id="_얼굴없는" data-name="얼굴없는" xmlns="http://www.w3.org/2000/svg" version="1.1" viewBox="0 0 50.83 48.47">
  <!-- Generator: Adobe Illustrator 29.8.2, SVG Export Plug-In . SVG Version: 2.1.1 Build 3)  -->
  <defs>
    <style>
      .st0 {
        fill: #231f20;
      }

      .st1 {
        fill: #fff;
      }

      .st2 {
        fill: #888;
      }
    </style>
  </defs>
  <g>
    <path class="st2" d="M33.76,31.49c-.19-.6-.42-1.18-.66-1.74-.15-.34-.35-1.03-.66-1.25-1.08-1.64-2.91-2.78-4.86-3-2.02-.23-4.12.5-5.56,1.93-2.51,2.5-4.47,11.26,1.33,10.97l.41-.44c.19.31.49.53.98.6,1.74.24,2.15-.84,2.25-2.14.1,1.29.51,2.37,2.25,2.14,1.89-.26,4.05-.33,4.73-2.4.51-1.55.29-3.16-.19-4.67Z"/>
    <g>
      <path class="st1" d="M23.33,37.26c.01.06.03.12.04.18.04.13.08.27.13.39,0,.01,0,.01,0,.01,0,0,0,0,.01.02.01.03.03.06.04.1.02.04.04.08.06.11l.13-.13c.19.31.49.53.98.6,1.33.18,1.88-.41,2.11-1.28-1.17-.03-2.36-.01-3.51-.01Z"/>
      <path class="st1" d="M28.98,31.66s-.08-.09-.13-.13c-.37-.31-.91-.28-1.37-.13-.35.11-.71.29-.92.6-.38-.45-1.34-.76-1.89-.52-.31.14-.54.44-.55.78-.04,1.2,1.8,2.07,2.83,1.97.92-.1,2.99-1.49,2.03-2.57Z"/>
      <path class="st1" d="M30.07,38.4c.09-.12.17-.24.25-.36.08-.12.16-.25.23-.37.03-.06.06-.12.09-.18.02-.03.03-.07.05-.1.01-.03.02-.07.03-.1-1.14.12-2.29.05-3.43,0-.06,0-.11,0-.17,0,.23.86.78,1.45,2.11,1.27.26-.04.53-.07.8-.11.01-.02.03-.03.04-.05Z"/>
    </g>
    <g>
      <path class="st0" d="M23.11,34.96c0,.63-.08,1.26-.05,1.89.04.68.23,1.37.81,1.78.32.23.73.3,1.11.32.36.02.73-.01,1.06-.15s.59-.35.8-.64c.18-.25.29-.54.36-.84.18-.73.17-1.5.16-2.24,0-.2-.17-.38-.38-.38s-.38.16-.38.38c0,.32,0,.64,0,.95,0,.16-.01.31-.03.47,0,.07-.01.14-.02.22,0,.03-.02.1,0-.02,0,.02,0,.04,0,.06,0,.04-.01.08-.02.11-.02.14-.06.28-.1.41-.02.06-.04.12-.06.18-.03.09.04-.08,0,0-.02.04-.03.07-.05.11-.03.05-.06.11-.09.16-.02.02-.03.04-.05.07-.04.05.06-.07.02-.02-.01.02-.03.03-.04.05-.04.04-.08.09-.13.13-.01,0-.02.02-.03.03-.03.03.08-.06.03-.02-.03.02-.06.04-.1.07-.05.03-.12.05-.17.09.05-.04.08-.03.04-.02-.02,0-.03.01-.05.02-.04.01-.08.03-.12.04-.07.02-.14.03-.21.04,0,0,.1-.01.04,0-.02,0-.04,0-.06,0-.05,0-.1,0-.14,0-.08,0-.17,0-.25,0-.05,0-.1,0-.15-.01-.03,0-.05,0-.08,0-.09-.01.08.01,0,0s-.15-.03-.23-.05c-.04-.01-.08-.03-.11-.04-.07-.02.08.04.02,0-.02,0-.03-.02-.05-.02-.06-.03-.11-.07-.17-.1s.07.06.02.02c-.01-.01-.03-.02-.04-.03-.03-.02-.05-.05-.07-.07-.02-.02-.04-.06-.07-.08.06.04.05.07.03.04,0-.01-.02-.03-.03-.04-.04-.06-.07-.12-.1-.18,0-.02-.01-.03-.02-.05-.03-.06.03.09.01.03,0-.03-.02-.05-.03-.08-.02-.07-.04-.14-.06-.21-.02-.07-.03-.13-.04-.2,0-.02,0-.04,0-.06.02.11,0,.06,0,.03,0-.04,0-.08-.01-.13-.06-.67.04-1.34.04-2.01,0-.2-.17-.38-.38-.38s-.37.16-.38.38h0Z"/>
      <path class="st0" d="M32.86,28.46c-1.32-2.09-3.69-3.43-6.17-3.38-2.15.04-4.33,1.08-5.58,2.86-.84,1.21-1.38,2.67-1.68,4.1s-.42,3.02.11,4.41c.27.7.7,1.32,1.33,1.74.72.48,1.61.62,2.47.59.48-.02.48-.77,0-.75-1.26.06-2.4-.37-2.97-1.54s-.51-2.55-.31-3.76c.22-1.35.66-2.68,1.35-3.86.9-1.55,2.45-2.57,4.21-2.91,2.55-.5,5.21.71,6.59,2.9.26.41.91.03.65-.38h0Z"/>
      <path class="st0" d="M30.1,34.96c0,.6.08,1.19.05,1.79,0,.07,0,.14-.01.22,0,.04,0,.07-.01.11,0,.02,0,.03,0,.05.01-.13,0-.03,0,0-.02.14-.05.28-.1.41,0,.03-.02.05-.03.08-.02.07.04-.09.01-.03,0,.02-.01.03-.02.05-.03.06-.06.12-.1.18,0,.01-.02.02-.02.03-.02.04-.04.02.02-.03-.02.02-.04.05-.07.08-.02.02-.04.04-.06.06-.01.01-.03.02-.04.03-.07.06.06-.04,0,0-.06.04-.11.07-.17.1-.03.02-.13.04-.01,0-.04.01-.09.03-.13.05-.08.02-.15.04-.23.05-.03,0-.04.02.03,0-.02,0-.06,0-.08,0-.06,0-.11.01-.17.01-.08,0-.17,0-.25,0-.04,0-.09,0-.13,0-.04,0-.17-.03-.05,0-.07-.02-.14-.02-.21-.04-.04,0-.07-.02-.11-.03-.02,0-.03-.01-.05-.02-.04-.02-.04-.04.02.01-.04-.04-.12-.06-.17-.09-.03-.02-.06-.04-.08-.06-.01,0-.06-.04,0,0s0,0-.01-.01c-.05-.04-.09-.08-.13-.13-.03-.03-.08-.12-.01-.01-.02-.03-.04-.05-.06-.08-.03-.05-.06-.1-.09-.16-.02-.03-.03-.06-.04-.09,0-.01,0-.02-.01-.03-.03-.06.04.1,0,0-.05-.13-.09-.26-.12-.39-.02-.08-.03-.16-.05-.24,0-.04-.01-.08-.02-.11-.01-.07.01.1,0,.02,0-.02,0-.05,0-.07-.02-.17-.03-.34-.04-.51-.02-.36-.01-.72-.01-1.08,0-.2-.17-.38-.38-.38s-.37.16-.38.38c0,.68,0,1.37.12,2.04.12.61.4,1.22.95,1.55.31.19.68.26,1.03.28.41.01.84-.04,1.21-.22.66-.31.91-1.01.98-1.68s-.03-1.4-.03-2.11c0-.2-.17-.38-.38-.38s-.38.16-.38.38h0Z"/>
      <path class="st0" d="M32.21,28.78c.14.08.22.3.29.44.09.2.15.4.23.6.13.32.27.64.39.97.27.73.5,1.47.66,2.23.26,1.24.42,2.82-.36,3.83-.49.63-1.28.89-2.06.95-.48.04-.48.79,0,.75.87-.07,1.73-.32,2.38-.94.54-.52.83-1.23.94-1.96.24-1.64-.21-3.36-.77-4.89-.15-.4-.33-.82-.48-1.21-.2-.49-.35-1.13-.84-1.42-.42-.25-.79.4-.38.65h0Z"/>
    </g>
  </g>
  <g>
    <g>
      <g>
        <path class="st2" d="M17.35,10.73c-.69.23-1.39.46-1.97.89s-1.04,1.1-1.03,1.82c0,.46.2.89.4,1.3.38.74.83,1.44,1.34,2.09.67.84,1.64,1.67,2.69,1.44-.05,1.5-.08,3.07.6,4.4.95,1.87,3.09,2.86,5.17,3.13,2.15.28,4.32-.04,6.45-.44.9-.17,1.85-.38,2.54-.98.59-.5,1.11-.82,1.38-1.59.38-1.07.35-2.25.11-3.36-.09-.4-.16-.92.2-1.13.11-.06.24-.08.36-.1,2.96-.5,5.62-4.73,2.77-6.98-.58-.45-1.27-.74-1.95-1-.84-.32-1.74-.61-2.63-.49s-1.78.75-1.89,1.65c.02-.28-.31-.44-.57-.52-2.5-.75-5.26-1.48-7.65-.45-.5.21-.97.46-1.51.25-.37-.14-.57-.45-.98-.56-1.21-.32-2.7.24-3.83.62Z"/>
        <path class="st1" d="M21.8,21.51c-1.52.13-2.98.85-4.02,1.97-.44.47-.81,1.06-.78,1.71s.63,1.28,1.25,1.14c.09-.02.17-.05.26-.05.23,0,.4.26.41.49s-.09.46-.16.68c-.26.81.08,2.16,1.2,1.92.38-.08.7-.32,1.06-.46.3.56.85.97,1.46,1.11.23.05.48.06.71-.02.74-.25.91-1.24,1.62-1.49-.32.11,1.36,1.85,1.75,1.94,1.15.26,2.22-.53,3.03-1.24.28.5.85.82,1.42.81s1.12-.37,1.38-.88c.04-.09.08-.19.17-.24.18-.12.41.03.6.14.54.31,1.27.24,1.74-.16s.65-1.12.42-1.7c-.08-.2-.2-.38-.24-.59s.02-.46.22-.54c.7-.3,1.8.71,2.04-.59.2-1.11-.56-2-1.4-2.6-2.06-1.47-4.89-1.55-7.24-.68-1.04.39-2.13.56-3.17.15-1.24-.49-2.34-.93-3.72-.81Z"/>
      </g>
      <g>
        <path class="st0" d="M20.56,9.58c-1.45.09-2.86.45-4.17,1.09-.62.3-1.29.66-1.8,1.14s-.69,1.18-.62,1.86c.15,1.42,1.05,2.73,1.94,3.8.45.55,1,1.02,1.68,1.27.64.23,1.38.2,1.96-.18.63-.4,1.02-1.07,1.35-1.72.39-.78.72-1.6.98-2.43.14-.46-.58-.66-.72-.2-.2.65-.44,1.28-.73,1.9-.25.52-.5,1.07-.9,1.5-.37.4-.86.6-1.4.5-.58-.11-1.05-.47-1.44-.9-.42-.45-.78-.98-1.11-1.5s-.63-1.09-.78-1.7c-.12-.51-.14-1.12.22-1.55.38-.45.99-.75,1.5-1.02,1.25-.65,2.64-1.03,4.05-1.12.48-.03.48-.78,0-.75h0Z"/>
        <path class="st0" d="M21.62,10.54s.03,0,.04-.01c-.07,0-.08.01-.04,0-.11,0-.04,0,0,0,.03,0,.01,0-.04-.02.01,0,.03.01.04.02.03.02.02.02-.02-.02.01,0,.02.02.03.03.05.04-.04-.07,0,0,0,.01.02.03.02.04.02.04.01.03,0-.02.02,0,.04.16.04.17,0,.01.02.11,0,.05s0,.05,0,.06c0,.07.01.14.02.2,0,.14,0,.28,0,.42s-.02.28-.03.42c0,.03,0,.06,0,.09,0,.02-.02.15,0,.05,0,.07-.02.14-.03.2-.04.28-.1.56-.16.84-.04.19.05.41.26.46.19.04.42-.06.46-.26.1-.51.2-1.03.25-1.55.02-.25.03-.5,0-.74-.02-.27-.04-.56-.18-.8-.16-.3-.52-.49-.86-.39-.19.06-.33.26-.26.46s.26.32.46.26h0Z"/>
        <path class="st0" d="M23.19,10.88c2.44-.71,5.06-.62,7.45.24.19.07.41-.08.46-.26.06-.21-.07-.39-.26-.46-2.51-.91-5.29-.99-7.85-.24-.46.14-.27.86.2.72h0Z"/>
        <path class="st0" d="M18.68,18.68c-.04.87-.02,1.74.04,2.61.01.2.16.38.38.38.19,0,.39-.17.38-.38-.06-.87-.08-1.74-.04-2.61,0-.2-.18-.38-.38-.38-.21,0-.37.16-.38.38h0Z"/>
        <path class="st0" d="M26.49,22.11c-1.83-.89-4-1.07-5.98-.65-.89.19-1.7.62-2.39,1.21-.35.3-.66.63-.95.99-.32.39-.6.8-.68,1.31s.1,1.07.53,1.42c.53.42,1.12.27,1.69.03.19-.08.23-.35.13-.51-.11-.19-.33-.21-.51-.13-.33.14-.69.25-.95-.07-.23-.29-.18-.69-.03-1,.17-.34.44-.64.7-.92s.52-.53.82-.76c1.28-.96,2.97-1.12,4.53-.99.94.08,1.87.31,2.72.72.43.21.81-.44.38-.65h0Z"/>
        <path class="st0" d="M19.08,26.47c-.44.52-.73,1.26-.66,1.95.04.37.16.73.44,1,.35.34.84.46,1.32.38.54-.09,1.02-.44,1.42-.79l-.64-.27c0,.81.57,1.58,1.35,1.79s1.64-.15,2.06-.84c.1-.17.04-.42-.13-.51s-.4-.04-.51.13c-.02.03-.04.06-.06.1-.02.02-.01.02,0-.01-.01.02-.03.03-.04.05-.04.05-.09.09-.14.14-.03.03-.03.03,0,0-.02.01-.04.03-.05.04-.03.02-.06.04-.08.05s-.06.03-.09.05c-.02.01-.09.04-.03.02-.07.03-.14.05-.22.07-.03,0-.06.01-.1.02-.09.02.05,0-.03,0-.08,0-.15,0-.23,0-.1,0,.07.02-.03,0-.04,0-.08-.02-.11-.02s-.07-.02-.11-.04c-.07-.02.04.03-.03-.01-.06-.03-.13-.07-.19-.11-.01,0-.03-.02-.04-.03.03.02.03.02,0,0-.02-.02-.05-.04-.07-.07s-.05-.05-.07-.07c0,0-.08-.09-.06-.07s-.04-.06-.05-.07c-.02-.03-.03-.06-.05-.09s-.03-.06-.05-.09c-.02-.04-.02-.04,0,0,0-.02-.01-.03-.02-.05-.02-.07-.04-.14-.06-.21-.02-.09,0,.05,0-.03,0-.04,0-.09,0-.13,0-.34-.4-.48-.64-.27-.16.14-.24.21-.42.33-.08.05-.16.1-.25.14-.02.01-.05.02-.07.03,0,0-.07.03-.01,0-.05.02-.09.03-.14.05s-.09.03-.14.04c-.02,0-.05,0-.07.01.02,0,.07,0,0,0-.04,0-.08,0-.12,0-.02,0-.05,0-.07,0-.06,0,.08.02-.02,0-.04-.01-.08-.02-.12-.03-.06-.02.04.02-.01,0-.01,0-.03-.01-.04-.02-.03-.02-.07-.04-.1-.06-.02,0-.03-.02-.04-.03.04.02.04.03,0,0-.02-.02-.04-.04-.07-.06-.02-.02-.08-.1-.02-.02-.04-.06-.07-.11-.1-.17s.02.07,0-.01c-.01-.03-.02-.06-.03-.1,0-.03-.01-.06-.02-.09,0-.02,0-.03,0-.05-.01-.07,0,.06,0,0,0-.14,0-.27,0-.41,0,.11,0-.01,0-.04,0-.03.01-.06.02-.09.02-.07.03-.14.06-.21.01-.04.03-.08.04-.12,0-.02.01-.03.02-.05,0-.01.03-.08.01-.03-.02.05,0,0,0,0,.01-.02.02-.05.03-.07.02-.03.03-.06.05-.09.04-.07.07-.13.12-.2.02-.03.04-.05.06-.08.04-.05-.01.01-.02.02,0-.02.03-.04.04-.05.13-.15.16-.39,0-.53-.14-.13-.39-.16-.53,0h0Z"/>
        <path class="st0" d="M24.33,28.34c.03.42.13.82.33,1.19.19.34.45.63.77.86.6.45,1.38.61,2.12.5.42-.06.83-.23,1.18-.48.16-.11.25-.33.13-.51-.1-.16-.34-.26-.51-.13-.14.1-.3.19-.46.26-.07.03.06-.02.01,0-.02,0-.04.01-.05.02-.04.01-.07.03-.11.04-.08.03-.16.05-.24.06-.04,0-.08.02-.12.02-.03,0-.08,0,.02,0-.02,0-.04,0-.07,0-.08,0-.16.01-.24.01-.07,0-.15,0-.22,0-.02,0-.04,0-.07,0-.06,0,.03,0,.03,0-.04,0-.09-.01-.13-.02-.16-.03-.31-.08-.46-.14-.07-.03.07.03.02,0-.02,0-.03-.01-.05-.02-.03-.02-.06-.03-.1-.05-.07-.04-.14-.08-.2-.12-.03-.02-.06-.04-.1-.07-.02-.02-.06-.05.02.01-.02-.01-.03-.03-.05-.04-.06-.05-.12-.1-.18-.16-.05-.05-.1-.11-.14-.16-.05-.06.05.07,0,0,0-.01-.02-.02-.03-.04-.03-.04-.05-.07-.07-.11-.05-.08-.09-.15-.13-.23,0-.02-.02-.04-.03-.06-.03-.07.03.07,0,0-.02-.04-.03-.09-.05-.13-.03-.09-.05-.19-.07-.29,0-.02,0-.04-.01-.06,0-.02,0-.03,0-.05,0,.06,0,.07,0,.04,0-.05-.01-.11-.01-.16-.01-.2-.16-.38-.38-.38-.19,0-.39.17-.38.38h0Z"/>
        <path class="st0" d="M33.49,10.33c1.4.1,2.85.37,4.08,1.07.59.34,1.21.8,1.49,1.45.25.57.16,1.17-.08,1.74-.29.7-.78,1.31-1.29,1.88-.32.36.21.89.53.53.97-1.08,2.08-2.58,1.63-4.12-.23-.81-.85-1.42-1.52-1.88s-1.44-.77-2.21-.98c-.86-.24-1.75-.37-2.63-.43-.2-.01-.38.18-.38.38,0,.21.17.36.38.38h0Z"/>
        <path class="st0" d="M34.62,18.68c.05.88.12,1.77.09,2.65,0,.09,0,.18-.02.27,0,.02-.01.09,0,0s0,0,0,0c0,.03-.01.06-.02.09-.05.19.06.42.26.46s.41-.06.46-.26c.09-.34.08-.71.07-1.06,0-.47-.02-.95-.05-1.42-.01-.25-.03-.5-.04-.75-.01-.2-.16-.38-.38-.38-.19,0-.39.17-.38.38h0Z"/>
        <path class="st0" d="M27.94,22.76c1.71-.84,3.77-.94,5.61-.53.77.17,1.53.42,2.16.9.53.4,1.07.99,1.23,1.66.06.27.05.53-.16.71-.31.27-.76.26-1.04-.04-.32-.36-.85.17-.53.53.69.76,2.07.52,2.43-.45.3-.79-.2-1.66-.7-2.25-1.33-1.6-3.61-2.06-5.6-2.03-1.31.02-2.61.28-3.78.86-.43.21-.05.86.38.65h0Z"/>
        <path class="st0" d="M34.5,26.61s.05.06.07.09c.01.02.07.09.03.04.05.06.1.13.14.2.09.13.16.26.22.4.03.06,0,0,0,0,0,.02.01.04.02.06.01.03.02.06.03.09.02.08.04.15.06.23.01.07,0-.07,0,.03,0,.03,0,.07,0,.1s0,.07,0,.1c0,.01,0,.03,0,.04,0-.05,0-.05,0,0,0,.03-.01.07-.02.1,0,.01-.04.11-.02.06.02-.04-.02.05-.03.06-.02.04-.04.07-.07.11,0,.01-.04.05,0,0-.01.01-.02.03-.03.04-.03.03-.05.06-.08.09-.03.03-.06.06-.09.09-.05.04.04-.03-.01.01-.02.02-.04.03-.07.05-.07.05-.14.09-.21.12-.05.03.05-.02,0,0-.02,0-.03.01-.05.02-.04.01-.08.03-.13.04s-.09.02-.13.03c.07-.01,0,0-.03,0-.09,0-.18,0-.27,0,0,0-.06,0-.02,0,.05,0-.04,0-.05,0-.04,0-.09-.02-.13-.03s-.09-.03-.13-.04c-.01,0-.07-.03,0,0-.02,0-.04-.02-.06-.03-.04-.02-.08-.04-.12-.06-.02-.01-.04-.02-.06-.04,0,0-.08-.06-.04-.03.03.02-.01,0-.01-.01-.02-.02-.04-.04-.06-.06-.04-.03-.07-.07-.1-.11-.22-.25-.63-.04-.64.27,0,.05,0,.09,0,.14,0-.07,0,.01,0,.04-.02.08-.04.16-.07.23.03-.07-.02.03-.02.04-.02.04-.04.08-.07.12-.02.03-.04.06-.06.09-.05.07.03-.02-.03.03-.05.06-.11.12-.17.17-.02.02-.03.03-.05.04.03-.02.03-.02,0,0-.03.02-.07.05-.1.07-.03.02-.06.03-.09.05-.02.01-.04.02-.06.03.04-.01.03-.01,0,0-.07.02-.14.05-.22.06-.02,0-.03,0-.05,0,.04,0,.04,0,0,0-.03,0-.07,0-.1,0-.04,0-.08,0-.12,0-.02,0-.03,0-.05,0,.04,0,.04,0,0,0-.08-.02-.15-.03-.23-.06-.03-.01-.06-.02-.1-.04.07.03-.04-.02-.05-.03-.07-.03-.13-.07-.19-.11-.03-.03-.04-.03,0,0-.02-.01-.03-.03-.05-.04-.03-.02-.05-.05-.07-.07s-.05-.05-.07-.07c-.01-.02-.03-.03-.04-.05.02.03.02.03,0,0-.04-.07-.08-.13-.12-.21-.09-.18-.35-.23-.51-.13-.19.11-.22.33-.13.51.28.6.9.98,1.54,1.06.68.08,1.32-.27,1.71-.82.22-.3.33-.67.34-1.04l-.64.27c.58.66,1.62.82,2.38.41.39-.21.72-.56.87-.98.13-.35.09-.75-.02-1.1-.15-.43-.4-.81-.7-1.15-.13-.15-.39-.14-.53,0-.15.15-.13.38,0,.53h0Z"/>
        <path class="st0" d="M32.34,9.93c-.55.29-.81.9-.83,1.49-.02.5.12.99.22,1.47.15.68.31,1.35.52,2.01.42,1.34,1.09,3.03,2.53,3.56,1.05.39,2.13-.15,2.91-.85.36-.33-.17-.86-.53-.53s-.79.62-1.29.73c-.24.05-.52.04-.77-.03-.21-.06-.47-.21-.63-.36-.24-.21-.39-.4-.55-.63-.73-1.1-1.07-2.42-1.37-3.72-.08-.34-.16-.68-.23-1.03-.1-.5-.13-1.18.4-1.46.43-.22.05-.87-.38-.65h0Z"/>
      </g>
    </g>
    <g>
      <ellipse class="st1" cx="22.87" cy="17.28" rx="1.32" ry=".85"/>
      <ellipse class="st1" cx="31.05" cy="17.28" rx="1.32" ry=".85"/>
    </g>
  </g>
</svg>