<?xml version="1.0" encoding="UTF-8"?>
<svg id="_얼굴없는" data-name="얼굴없는" xmlns="http://www.w3.org/2000/svg" version="1.1" viewBox="0 0 50.83 48.47">
  <!-- Generator: Adobe Illustrator 29.8.2, SVG Export Plug-In . SVG Version: 2.1.1 Build 3)  -->
  <defs>
    <style>
      .st0 {
        fill: #231f20;
      }

      .st1 {
        fill: #fff;
      }

      .st2 {
        fill: #f8c04e;
      }
    </style>
  </defs>
  <g>
    <path class="st2" d="M34.93,30.71l.07-.39c-.76-.28-1.69-.05-2.23.57-.53.62-.64,1.57-.25,2.28.01.02.03.05.04.07-.06.17-.12.35-.18.52-.02.05-.03.09-.05.14-.19-1.36-.71-2.73-1.22-3.91-.15-.34-.35-1.03-.66-1.24-1.09-1.64-2.92-2.77-4.87-2.99-2.02-.23-4.12.51-5.55,1.95-2.5,2.51-4.43,11.27,1.36,10.97l.41-.44c.2.31.49.53.98.6,1.74.23,2.15-.85,2.24-2.14.1,1.29.52,2.37,2.26,2.13,1.77-.25,3.87-.39,4.72-1.97.21.46.52.86.48,1.22,1.29.22,2.53-.37,3.53-1.14.72-.56,1.29-1.52,1.52-2.4.57-2.12-1.05-3.84-2.6-3.82Z"/>
    <g>
      <path class="st1" d="M21.37,37.54c.01.06.03.12.05.18.04.13.08.26.13.39,0,.01,0,.01,0,.01,0,0,0,0,.01.02.01.03.03.06.04.1.02.04.04.08.06.11l.13-.13c.2.31.49.53.98.6,1.33.18,1.88-.42,2.11-1.28-1.17-.03-2.36,0-3.51,0Z"/>
      <path class="st1" d="M29.55,30.03c-.12-.29-.37-.54-.62-.73-1.07-.82-2.03-.66-3.25-.86-1.42-.24-2.92-.25-4.28.28-.76.3-1.13.66-1.22,1.44-.1.88,0,1.64.56,2.36.6.76,1.48,1.24,2.35,1.64.48.22.97.43,1.49.47.38.04.77-.02,1.15-.11,1.68-.42,3.13-1.7,3.74-3.32.12-.32.21-.67.13-1-.01-.06-.03-.12-.06-.18Z"/>
      <path class="st1" d="M34.93,30.71l.07-.39c-.76-.28-1.69-.05-2.23.57-.53.62-.64,1.57-.25,2.28.01.02.03.05.04.07,0,0,0,.01,0,.02.19.03.36.14.44.36.04.11.1.22.15.27.05.05.09.07.15.09.11.03.12.03.26.01-.06,0,.11-.03.13-.04.04-.01.07-.03.12-.05.11-.06.24-.13.33-.22.06-.06.08-.11.1-.17.06-.21.04-.51.04-.79,0-.41.47-.69.82-.47,1.21.74.88,2.66.42,3.75-.38.92-1.09,1.66-1.96,2.07.89-.13,1.74-.59,2.45-1.14.72-.56,1.29-1.52,1.52-2.4.57-2.12-1.05-3.84-2.6-3.82Z"/>
      <path class="st1" d="M28.11,38.65c.09-.12.17-.24.25-.36.08-.12.16-.25.23-.37.03-.06.06-.12.09-.18.02-.03.03-.07.05-.1.01-.03.02-.07.03-.1-1.14.12-2.29.06-3.43,0-.06,0-.11,0-.17,0,.23.86.79,1.45,2.12,1.27.26-.04.53-.07.8-.11.01-.02.03-.03.04-.05Z"/>
    </g>
    <g>
      <path class="st0" d="M21.14,35.23c0,.63-.08,1.26-.04,1.89.04.68.23,1.37.82,1.78.33.23.74.3,1.14.32s.77-.03,1.12-.19c.59-.26.93-.83,1.08-1.43.18-.73.16-1.51.16-2.25,0-.2-.17-.38-.38-.38s-.38.16-.38.38c0,.32,0,.63,0,.95,0,.16-.01.31-.03.47,0,.07-.01.14-.02.22,0,.02,0,.04,0,.06.01-.12,0-.05,0-.02,0,.04-.01.08-.02.11-.02.14-.05.28-.1.41-.02.06-.04.12-.06.18,0,.02-.01.03-.02.05.03-.1.03-.06.01-.03s-.03.06-.04.09c-.03.05-.06.11-.09.16-.02.03-.04.05-.06.08.04-.08.05-.06.03-.04-.01.02-.03.03-.04.05-.04.04-.08.09-.13.13-.01.01-.03.02-.04.03-.05.04.08-.06.02-.02-.03.02-.05.04-.08.06-.05.03-.11.06-.16.09-.06.03.09-.03.02-.01-.02,0-.03.01-.05.02-.03.01-.07.02-.11.03-.07.02-.14.03-.21.05-.03,0-.09,0,.02,0-.02,0-.04,0-.05,0-.05,0-.09,0-.14,0-.09,0-.17,0-.26,0-.05,0-.09,0-.14-.01-.02,0-.04,0-.07,0-.02,0-.04,0-.05,0,.06,0,.07,0,.03,0-.08-.01-.15-.03-.23-.05-.03,0-.06-.02-.09-.03-.03,0-.09-.04.02,0-.02-.01-.05-.02-.07-.03-.06-.03-.11-.07-.17-.1s.07.06.02.02c0,0-.02-.01-.03-.02-.03-.03-.06-.05-.09-.08-.02-.02-.04-.04-.06-.06-.05-.05.05.08.02.02,0-.01-.02-.03-.03-.04-.04-.06-.07-.12-.1-.18,0-.01-.01-.03-.02-.04-.02-.03,0-.06.01.03,0-.03-.03-.07-.04-.1-.02-.07-.04-.14-.06-.21-.02-.07-.03-.13-.04-.2,0-.03-.02-.15,0-.01,0-.04-.01-.09-.01-.13-.06-.67.03-1.34.03-2.01,0-.2-.17-.38-.38-.38s-.38.16-.38.38h0Z"/>
      <path class="st0" d="M30.88,28.7c-1.32-2.08-3.7-3.42-6.18-3.36-2.15.05-4.33,1.09-5.57,2.88-.84,1.21-1.37,2.67-1.67,4.1s-.41,3.03.13,4.41c.27.7.7,1.32,1.33,1.74.72.48,1.62.62,2.47.58.48-.02.48-.77,0-.75-1.26.06-2.4-.36-2.98-1.53s-.52-2.54-.32-3.76c.22-1.35.66-2.68,1.34-3.87.9-1.55,2.44-2.58,4.2-2.93,2.55-.51,5.22.69,6.6,2.87.26.41.91.03.65-.38h0Z"/>
      <path class="st0" d="M28.13,35.21c0,.6.08,1.19.06,1.79,0,.07,0,.14-.01.22,0,.04,0,.07-.01.11,0,.02,0,.03,0,.05.01-.13,0-.04,0,0-.02.14-.05.28-.1.41,0,.03-.02.05-.03.08-.02.07.04-.09.01-.03,0,.02-.01.03-.02.05-.03.06-.06.12-.1.18,0,.01-.02.02-.02.03-.02.03-.04.02.02-.03-.02.02-.04.05-.07.08-.02.02-.04.04-.06.06-.01.01-.03.02-.04.03-.07.06.06-.04,0,0-.06.04-.11.07-.17.1-.03.02-.13.05-.01,0-.04.01-.09.03-.13.05-.08.02-.15.04-.23.05,0,0-.04,0-.04,0h.05s-.04,0-.05,0c-.06,0-.11.01-.17.01-.08,0-.17,0-.25,0-.04,0-.09,0-.13,0-.04,0-.17-.03-.05,0-.07-.02-.14-.02-.21-.04-.04,0-.07-.02-.11-.03-.02,0-.03-.01-.05-.02-.04-.02-.05-.04.02.01-.05-.04-.12-.06-.17-.09-.03-.02-.06-.04-.08-.06-.01,0-.06-.04,0,0s0,0-.01-.01c-.05-.04-.09-.08-.13-.12-.02-.02-.04-.05-.06-.07.09.09.02.02,0-.02-.03-.05-.07-.1-.09-.16-.02-.03-.03-.06-.05-.09,0-.01,0-.02-.01-.03-.03-.06.04.1,0,.01-.05-.13-.09-.26-.12-.39-.02-.08-.03-.16-.05-.24,0-.04-.01-.08-.02-.11,0-.03-.01-.1,0,.02,0-.02,0-.05,0-.07-.02-.17-.03-.34-.04-.51-.02-.36-.02-.72-.02-1.08,0-.2-.17-.38-.38-.38s-.38.16-.38.38c0,.68,0,1.37.12,2.04.12.61.4,1.22.96,1.55.31.18.68.26,1.03.27.41.01.84-.04,1.21-.22.66-.31.91-1.01.98-1.68s-.03-1.4-.03-2.11c0-.2-.17-.38-.38-.38s-.38.16-.38.38h0Z"/>
      <path class="st0" d="M30.22,29.03c.14.08.22.29.29.44.09.2.16.42.25.62.13.31.26.62.39.95.27.72.51,1.47.67,2.22.27,1.24.43,2.82-.35,3.83-.49.63-1.27.89-2.06.96-.48.04-.48.79,0,.75.87-.08,1.73-.32,2.37-.94.54-.52.83-1.23.93-1.96.24-1.64-.22-3.36-.78-4.89-.15-.41-.32-.81-.48-1.2-.2-.49-.35-1.13-.84-1.42-.42-.25-.79.4-.38.65h0Z"/>
      <path class="st0" d="M36.74,32.12c.35.45.52.99.53,1.56s-.17,1.1-.42,1.6-.6.99-1.05,1.35-.94.66-1.46.86c-.62.23-1.24.3-1.89.21-.2-.03-.38.19-.38.38,0,.22.17.35.38.38.66.08,1.33.02,1.96-.19s1.19-.54,1.71-.94c.55-.41.99-.93,1.31-1.54s.54-1.22.59-1.88c.05-.76-.16-1.55-.62-2.16-.12-.16-.32-.25-.51-.13-.16.09-.26.35-.13.51h0Z"/>
      <path class="st0" d="M34.26,32.69s.01.06.02.09c0,.04,0-.03,0-.03,0,0,0,.04,0,.05,0,.03,0,.05,0,.08,0,.02,0,.04,0,.05,0,.05,0,0,0-.02-.01.02-.01.07-.02.09,0,.03-.02.06-.03.09,0,.01,0,.03-.01.04-.02.05.03-.06,0-.02-.02.03-.03.06-.05.09,0,0-.05.07-.05.08,0,0,.05-.05.02-.02,0,0-.02.02-.03.03-.02.02-.04.05-.07.07,0,0-.03.02-.03.03.04-.03.04-.03.02-.02,0,0-.01.01-.02.02-.03.02-.05.03-.08.05-.01,0-.07.03-.07.04,0-.02.07-.02.01,0-.01,0-.03,0-.04.01-.03.01-.07.02-.1.03-.02,0-.04,0-.05.01-.04,0,.03,0,.03,0-.02,0-.08,0-.09,0-.03,0-.06,0-.09,0-.01,0-.06,0,0,0,.06.01-.03,0-.03,0-.03,0-.05-.01-.08-.02-.02,0-.11-.03-.06-.02s-.03-.02-.05-.03c-.03-.02-.06-.03-.09-.05-.01,0-.05-.05-.07-.05.02,0,.05.04.01,0-.01,0-.02-.02-.03-.03-.05-.05-.1-.09-.14-.15,0-.01-.02-.02-.03-.03-.03-.04.04.05,0,.01-.02-.03-.04-.05-.05-.08-.03-.05-.07-.11-.09-.16-.01-.03-.03-.06-.04-.08-.02-.04.01.03.01.03,0-.01-.01-.04-.02-.05-.02-.06-.04-.12-.06-.17s-.03-.12-.04-.18c0-.02,0-.04,0-.05,0,0,0,.08,0,.03,0-.03,0-.07,0-.1,0-.12,0-.25,0-.37,0-.01,0-.03,0-.04,0,.09,0,.05,0,.02,0-.03.01-.06.02-.09.01-.06.03-.12.05-.18s.04-.12.06-.17c.01-.04-.01.03-.01.03,0-.01.02-.04.02-.05.01-.03.03-.06.05-.09.03-.05.06-.1.09-.15.02-.03.03-.05.05-.08,0,0,.03-.04,0,0-.03.05.01-.01.02-.02.08-.09.16-.17.26-.25.03-.02.03,0-.02.01.01,0,.02-.02.03-.02.02-.02.05-.03.07-.05.05-.03.1-.06.15-.09.03-.02.06-.03.09-.05.01,0,.04-.01.05-.02-.02.01-.07.03-.02,0,.06-.02.13-.05.19-.07s.13-.03.2-.05c.01,0,.03,0,.04,0,.06,0,.03,0-.01,0,.03,0,.07,0,.1-.01.13-.01.26,0,.4,0,.05,0-.07-.01-.02,0,.02,0,.03,0,.05,0,.03,0,.07.01.1.02.07.02.14.04.21.06.18.07.42-.08.46-.26.05-.21-.06-.39-.26-.46-.6-.22-1.26-.15-1.83.1s-1.01.76-1.22,1.36-.16,1.28.11,1.85c.29.62.93,1.1,1.64,1,.41-.06.77-.28,1-.62s.29-.77.19-1.15c-.05-.19-.27-.32-.46-.26s-.31.26-.26.46h0Z"/>
      <path class="st0" d="M36.12,30.23c0,.07,0,.14-.02.2v-.1c-.01.17-.06.34-.12.5l.04-.09c-.02.06-.05.11-.08.17-.05.09-.06.19-.04.29.01.05.03.09.07.13.03.04.06.07.11.1.09.05.19.07.29.04.09-.03.18-.09.22-.17.18-.33.28-.69.29-1.06,0-.05,0-.1-.03-.14-.02-.05-.04-.09-.08-.12-.03-.04-.07-.06-.12-.08-.04-.02-.09-.03-.14-.03-.1,0-.2.04-.27.11s-.11.16-.11.27h0Z"/>
    </g>
  </g>
  <path class="st1" d="M28.9,29.77s-.1.02-.14.03c0,0,.05,0,.14-.03Z"/>
  <g>
    <path class="st2" d="M36.57,17.19v-.14c1.25-2.45,1.32-5.3.73-7.96l-.04.27-.56-1.62c-3.1.12-6.09,1.86-7.71,4.5l.46-.27-.37.33c-.54-.14-1.1-.25-1.65-.29-.54-.12-1.09-.21-1.65-.27-1.71-.18-3.48-.1-5.16.32-.46.05-.93.15-1.38.27l-.09-.14.12.07c-1.64-2.63-4.64-4.35-7.74-4.45l-.21.29-.02-.23c-1.15,2.87-.82,6.25.86,8.87l-.04-.39.51,1.19c-1.56,2.82-1.89,6.69,0,9.33,1.36,1.89,3.77,2.56,5.97,2.88,2.47.36,5.18.42,7.68.32.26-.01.52-.04.77-.08,3.45.42,7.13-1.02,8.67-3.19,1.66-2.34,1.48-5.82.31-8.56l.53-1.06Z"/>
    <path class="st1" d="M11.97,11.26c.07,1.2.31,2.47.88,3.55.22.41.52,1.05,1.08.92.43-.1.68-.64.96-.93.62-.63,1.45-1.3,2.2-1.76.06-.04.13-.08.16-.14.05-.11-.02-.23-.09-.33-.72-1.07-1.62-2.17-2.86-2.65-.46-.18-1.44-.7-1.94-.55-.25.07-.33.38-.36.65-.04.42-.05.84-.03,1.26Z"/>
    <path class="st1" d="M36.29,11.19c-.06,1.21-.29,2.47-.85,3.55-.21.41-.51,1.06-1.08.92-.43-.1-.68-.64-.97-.93-.62-.63-1.46-1.3-2.21-1.75-.06-.04-.13-.08-.16-.14-.05-.11.02-.23.08-.33.72-1.08,1.61-2.18,2.85-2.66.46-.18,1.44-.71,1.94-.56.25.07.34.38.37.64.05.42.06.84.04,1.26Z"/>
    <g>
      <path class="st1" d="M30.98,22.91c-1.09-.47-2.41-.79-3.66-.76-.5-.35-.99-.65-1.62-.86-.38-.13-.79-.19-1.2-.21-.89-.08-1.49.09-1.87.22-.62.22-1.12.52-1.61.87-1.25-.02-2.57.31-3.65.79-1.93.85-2.89,3-1.85,4.8.47.82,1.24,1.41,2.16,1.77.59.23,1.07.27,1.71.38.13.02.19.05.19.06.12.03.23.05.35.07,1.31.23,3.37.26,4.69.24h0c1.29,0,2.57-.03,3.85-.27.11-.02.23-.05.35-.07,0,0,.06-.04.19-.06.64-.11,1.11-.15,1.71-.39.92-.36,1.68-.96,2.15-1.78,1.03-1.81.06-3.95-1.88-4.79Z"/>
      <path class="st1" d="M19.64,29.8s.1.02.14.03c0,0-.05,0-.14-.03Z"/>
    </g>
    <g>
      <ellipse class="st1" cx="18.68" cy="17.69" rx="1.46" ry=".96" transform="translate(-.05 .06) rotate(-.17)"/>
      <ellipse class="st1" cx="29.64" cy="17.65" rx="1.46" ry=".96" transform="translate(-.05 .09) rotate(-.17)"/>
    </g>
    <g>
      <path class="st0" d="M14.11,16.04c1.48-1.87,3.7-3.14,6.04-3.55.65-.11,1.31-.14,1.96-.1.48.03.48-.72,0-.75-2.53-.17-5.1.8-7.06,2.37-.55.44-1.05.94-1.48,1.49-.13.16-.16.38,0,.53.13.13.4.16.53,0h0Z"/>
      <path class="st0" d="M22.4,10.94c.11.1.21.21.31.33l-.06-.08c.13.17.24.36.32.56l-.04-.09c.09.2.14.41.17.63v-.1s0,.06,0,.09c.01.1.04.19.11.27.07.07.17.11.27.11s.2-.04.27-.11c.06-.07.12-.17.11-.27-.03-.27-.08-.54-.19-.8-.06-.14-.12-.27-.19-.4s-.16-.25-.26-.37c-.09-.11-.18-.21-.29-.3-.07-.07-.16-.11-.27-.11-.09,0-.2.04-.27.11s-.11.17-.11.27.04.2.11.27h0Z"/>
      <path class="st0" d="M24.56,11.27s.01.03.02.05l-.04-.09c.05.11.08.23.09.35v-.1c0,.13,0,.25-.01.38v-.1c0,.12-.03.23-.08.35l.04-.09s-.02.05-.04.08c-.05.09-.07.19-.04.29.02.09.09.18.17.22.09.05.19.07.29.04.09-.03.18-.09.22-.17.12-.25.19-.51.2-.79,0-.14-.02-.27-.04-.41s-.08-.26-.14-.38c-.02-.04-.06-.08-.1-.11-.04-.03-.08-.06-.13-.07-.09-.02-.21-.01-.29.04s-.15.13-.17.22v.1c-.01.07,0,.13.04.19h0Z"/>
      <path class="st0" d="M12.05,18.04c-.94,2.25-1.41,4.93-.61,7.3.38,1.13,1.04,2.15,1.98,2.9s2,1.19,3.12,1.5c1.36.37,2.78.53,4.18.63.48.03.48-.72,0-.75-2.2-.15-4.62-.43-6.49-1.7s-2.58-3.65-2.41-5.88c.1-1.31.45-2.59.96-3.79.08-.19-.09-.41-.26-.46-.22-.06-.38.08-.46.26h0Z"/>
      <path class="st0" d="M10.94,7.77c-.91,2.3-.91,4.94-.05,7.25.25.66.56,1.3.94,1.9.26.41.91.03.65-.38-1.62-2.54-1.93-5.77-.82-8.58.07-.19-.08-.41-.26-.46-.21-.06-.39.07-.46.26h0Z"/>
      <path class="st0" d="M11.54,8.19c2.32.08,4.56,1.1,6.2,2.73.46.46.87.97,1.22,1.53.26.41.91.03.65-.38-1.34-2.12-3.51-3.69-5.93-4.32-.69-.18-1.41-.29-2.13-.31-.48-.02-.48.73,0,.75h0Z"/>
      <path class="st0" d="M14.17,10.31h.02s-.06-.02-.09-.03c.21.09.41.2.6.32.1.06.19.13.28.2.01,0,.02.02.03.02.04.03-.06-.05-.03-.02.02.02.05.04.07.06.05.04.1.08.14.12.18.15.34.31.5.48.08.08.15.17.23.25.03.04.07.08.1.12.02.02.04.04.05.07,0,0,.02.02.02.03.04.05-.01,0-.02-.02,0,.03.04.05.06.07.02.02.04.05.05.07.03.04.06.09.09.13.06.09.12.19.18.28.1.17.34.24.51.13s.24-.33.13-.51c-.23-.4-.52-.77-.83-1.11-.35-.38-.73-.72-1.16-1-.24-.16-.5-.29-.76-.4-.08-.03-.22,0-.29.04-.08.05-.15.13-.17.22-.02.1-.02.2.04.29s.13.13.22.17h0Z"/>
      <path class="st0" d="M34.71,15.44c-1.56-1.96-3.94-3.31-6.4-3.71-.7-.11-1.4-.16-2.11-.11-.2.01-.38.16-.38.38,0,.19.17.39.38.38,2.34-.17,4.75.69,6.56,2.16.52.43,1,.91,1.42,1.43.13.16.4.13.53,0,.16-.16.13-.37,0-.53h0Z"/>
      <path class="st0" d="M35.57,18.26c.89,2.09,1.35,4.58.62,6.79s-2.52,3.48-4.61,4.07c-1.28.36-2.61.48-3.93.47-.48,0-.48.75,0,.75,2.41.01,5.01-.37,6.97-1.87s2.82-3.97,2.64-6.43c-.1-1.44-.49-2.84-1.05-4.16-.08-.19-.35-.23-.51-.13-.19.11-.21.33-.13.51h0Z"/>
      <path class="st0" d="M36.94,9.19c.62,2.85.47,5.94-1.12,8.47-.26.41.39.79.65.38,1.7-2.69,1.85-6,1.2-9.05-.1-.47-.82-.27-.72.2h0Z"/>
      <path class="st0" d="M36.7,7.36c-2.52.1-4.96,1.21-6.72,3-.5.51-.94,1.07-1.32,1.68-.26.41.39.79.65.38,1.23-1.97,3.23-3.42,5.47-4.02.63-.17,1.27-.27,1.92-.29.48-.02.48-.77,0-.75h0Z"/>
      <path class="st0" d="M33.41,9.87c-.88.37-1.57,1.08-2.1,1.86-.15.22-.28.44-.4.67-.09.17-.05.42.13.51s.41.05.51-.13c.19-.36.41-.7.66-1.02l-.06.08c.26-.33.55-.63.88-.89l-.08.06c.26-.2.53-.36.83-.49.08-.03.15-.14.17-.22.02-.09.01-.21-.04-.29s-.13-.15-.22-.17c-.11-.02-.19,0-.29.04h0Z"/>
    </g>
  </g>
</svg>