<?xml version="1.0" encoding="UTF-8"?>
<svg id="_얼굴없는" data-name="얼굴없는" xmlns="http://www.w3.org/2000/svg" version="1.1" viewBox="0 0 50.83 48.47">
  <!-- Generator: Adobe Illustrator 29.8.2, SVG Export Plug-In . SVG Version: 2.1.1 Build 3)  -->
  <defs>
    <style>
      .st0 {
        fill: #231f20;
      }

      .st1 {
        fill: #fff;
      }

      .st2 {
        fill: #f39b4a;
      }
    </style>
  </defs>
  <g>
    <path class="st1" d="M33.75,32.39s0-.05.01-.07c.14-.97-.56-1.4-1.01-2.11-.4-.62-.6-1.22-1.12-1.81-1.16-1.32-2.69-2.26-4.46-2.46-2.02-.23-4.12.5-5.56,1.93-.58.58-1.04,1.33-1.36,2.08-.29.69-.73,1.29-1.01,1.97-.19.46-.16,1.04.19,1.39.08.08.18.16.19.27,0,.08-.05.16-.1.23-.2.26-.4.53-.51.84s-.11.68.08.94c.21.29.63.42.73.76.07.24-.05.5-.1.75-.13.56.1,1.18.55,1.53.66.51,1.88.26,2.67.22l.41-.44c.19.31.49.53.98.6,1.74.24,2.15-.84,2.25-2.14.1,1.29.51,2.37,2.25,2.14,1.1-.15,2.05-.39,3.16-.32.55.03,1.19.03,1.54-.39.54-.64-.01-1.71.41-2.44.1-.17.24-.3.34-.47.15-.25.19-.57.1-.85-.16-.51-.7-.86-.75-1.39-.02-.25.07-.5.12-.75Z"/>
    <g>
      <path class="st2" d="M22.6,30.76c-.41-.7-1.2-1.3-1.88-1.68-.09-.05-1.61,2.88-1.5,3.3.12.46.47,1.84-.03,2.25.38-.31.74-.47,1.22-.64.69-.24,1.4-.51,1.9-1.04.72-.76.67-1.52.29-2.19Z"/>
      <path class="st2" d="M32.85,30.04c-.19-.21-.37-.42-.52-.7-.23.17-.47.33-.69.51-.79.64-2.01,1.44-1.41,2.64.48.97,1.66,1.41,2.61,1.76,1.22.44,1.88.24.87-.96-.18-.21-.32-.51-.22-.77.04-.12.13-.21.19-.32.23-.39.15-.9-.09-1.28-.22-.35-.48-.6-.73-.87Z"/>
    </g>
    <g>
      <path class="st0" d="M22.71,35.41c0,.63-.08,1.26-.05,1.89.04.68.23,1.37.81,1.78.32.23.73.3,1.11.32.36.02.73-.01,1.06-.15s.59-.35.8-.64c.18-.25.29-.54.36-.84.18-.73.17-1.5.16-2.24,0-.2-.17-.38-.38-.38s-.38.16-.38.38c0,.32,0,.64,0,.95,0,.16-.01.31-.03.47,0,.07-.01.14-.02.22,0,.03-.02.1,0-.02,0,.02,0,.04,0,.06,0,.04-.01.08-.02.11-.02.14-.06.28-.1.41-.02.06-.04.12-.06.18-.03.09.04-.08,0,0-.02.04-.03.07-.05.11-.03.05-.06.11-.09.16-.02.02-.03.04-.05.07-.04.05.06-.07.02-.02-.01.02-.03.03-.04.05-.04.04-.08.09-.13.13-.01,0-.02.02-.03.03-.03.03.08-.06.03-.02-.03.02-.06.04-.1.07-.05.03-.12.05-.17.09.05-.04.08-.03.04-.02-.02,0-.03.01-.05.02-.04.01-.08.03-.12.04-.07.02-.14.03-.21.04,0,0,.1-.01.04,0-.02,0-.04,0-.06,0-.05,0-.1,0-.14,0-.08,0-.17,0-.25,0-.05,0-.1,0-.15-.01-.03,0-.05,0-.08,0-.09-.01.08.01,0,0s-.15-.03-.23-.05c-.04-.01-.08-.03-.11-.04-.07-.02.08.04.02,0-.02,0-.03-.02-.05-.02-.06-.03-.11-.07-.17-.1s.07.06.02.02c-.01-.01-.03-.02-.04-.03-.03-.02-.05-.05-.07-.07-.02-.02-.04-.06-.07-.08.06.04.05.07.03.04,0-.01-.02-.03-.03-.04-.04-.06-.07-.12-.1-.18,0-.02-.01-.03-.02-.05-.03-.06.03.09.01.03,0-.03-.02-.05-.03-.08-.02-.07-.04-.14-.06-.21-.02-.07-.03-.13-.04-.2,0-.02,0-.04,0-.06.02.11,0,.06,0,.03,0-.04,0-.08-.01-.13-.06-.67.04-1.34.04-2.01,0-.2-.17-.38-.38-.38s-.37.16-.38.38h0Z"/>
      <path class="st0" d="M32.46,28.91c-1.41-2.23-4.02-3.6-6.66-3.35-1.3.12-2.58.58-3.63,1.36-.58.43-1.08.92-1.49,1.52s-.68,1.25-1,1.89c-.29.56-.73,1.08-.89,1.7-.18.67.11,1.29.52,1.82v-.38c-.43.56-.85,1.19-.77,1.93s.58,1.11,1.16,1.43l-.08-.59c-.76.89-.37,2.11.63,2.6.82.41,1.8.43,2.69.38.48-.02.48-.77,0-.75-.67.03-1.36.04-2-.16s-1.38-.86-.79-1.55c.15-.18.15-.46-.08-.59-.4-.22-.82-.46-.8-.98s.38-.96.68-1.36c.07-.09.07-.28,0-.38-.29-.38-.58-.81-.42-1.3.15-.46.47-.86.7-1.27.31-.56.54-1.15.87-1.7s.72-1.02,1.21-1.43c1.81-1.5,4.43-1.89,6.58-.95,1.19.52,2.22,1.39,2.92,2.49.26.41.91.03.65-.38h0Z"/>
      <path class="st0" d="M29.7,35.41c0,.6.08,1.19.05,1.79,0,.07,0,.14-.01.22,0,.04,0,.07-.01.11,0,.02,0,.03,0,.05.01-.13,0-.03,0,0-.02.14-.05.28-.1.41,0,.03-.02.05-.03.08-.02.07.04-.09.01-.03,0,.02-.01.03-.02.05-.03.06-.06.12-.1.18,0,.01-.02.02-.02.03-.02.04-.04.02.02-.03-.02.02-.04.05-.07.08-.02.02-.04.04-.06.06-.01.01-.03.02-.04.03-.07.06.06-.04,0,0-.06.04-.11.07-.17.1-.03.02-.13.04-.01,0-.04.01-.09.03-.13.05-.08.02-.15.04-.23.05-.03,0-.04.02.03,0-.02,0-.06,0-.08,0-.06,0-.11.01-.17.01-.08,0-.17,0-.25,0-.04,0-.09,0-.13,0-.04,0-.17-.03-.05,0-.07-.02-.14-.02-.21-.04-.04,0-.07-.02-.11-.03-.02,0-.03-.01-.05-.02-.04-.02-.04-.04.02.01-.04-.04-.12-.06-.17-.09-.03-.02-.06-.04-.08-.06-.01,0-.06-.04,0,0s0,0-.01-.01c-.05-.04-.09-.08-.13-.13-.03-.03-.08-.12-.01-.01-.02-.03-.04-.05-.06-.08-.03-.05-.06-.1-.09-.16-.02-.03-.03-.06-.04-.09,0-.01,0-.02-.01-.03-.03-.06.04.1,0,0-.05-.13-.09-.26-.12-.39-.02-.08-.03-.16-.05-.24,0-.04-.01-.08-.02-.11-.01-.07.01.1,0,.02,0-.02,0-.05,0-.07-.02-.17-.03-.34-.04-.51-.02-.36-.01-.72-.01-1.08,0-.2-.17-.38-.38-.38s-.37.16-.38.38c0,.68,0,1.37.12,2.04.12.61.4,1.22.95,1.55.31.19.68.26,1.03.28.41.01.84-.04,1.21-.22.66-.31.91-1.01.98-1.68s-.03-1.4-.03-2.11c0-.2-.17-.38-.38-.38s-.38.16-.38.38h0Z"/>
      <path class="st0" d="M31.8,29.23c.22.13.33.53.41.77.13.36.29.67.53.97s.57.6.66,1c.03.16.03.33-.06.48-.11.19-.26.33-.26.57,0,.45.44.74.65,1.09.19.32.32.72.15,1.08-.09.18-.22.33-.31.5-.12.24-.16.49-.14.75.04.43.16.82-.05,1.23-.48.92-1.6.52-2.42.58-.48.03-.48.78,0,.75.93-.06,1.9.25,2.67-.44.37-.33.59-.81.63-1.3.02-.24-.02-.47-.06-.71-.04-.28-.01-.46.14-.69.29-.44.44-.87.33-1.41-.09-.47-.36-.89-.67-1.24-.03-.04-.17-.15-.17-.2,0,0,.14-.16.16-.19.13-.21.18-.46.18-.7,0-.5-.26-.92-.56-1.29-.16-.19-.33-.37-.46-.59-.11-.18-.17-.37-.25-.56-.15-.4-.33-.87-.72-1.1-.42-.25-.79.4-.38.65h0Z"/>
    </g>
  </g>
  <g>
    <path class="st2" d="M38.57,24.24c-.11.33.63.6.85.49.41-.19.29-.9.31-1.27.51.18.91-.48.99-1.02.21-1.5-.31-3.08-1.36-4.16.27.06.51-.24.49-.52s-.2-.51-.38-.72c-1-1.21-2.12-2.49-3.65-2.81-.36-.07-.74-.09-1.1-.18-.46-.11-.88-.34-1.3-.55-1.32-.65-2.73-1.12-4.19-1.39.14-.28.28-.57.42-.85-1-.21-2.08-.02-2.95.53.18-.54.12-1.16-.16-1.66-.78.39-1.32,1.21-1.4,2.08-.83-.86-2.06-1.31-3.24-1.2.27.39.54.78.81,1.17-.22-.31-2.62.59-2.94.71-1,.4-1.93.94-2.77,1.6-1.46,1.14-3.32,1.37-4.53,2.91-.25.32-.48.7-.44,1.11s.46.79.84.64c-.7,1.23-.94,2.72-.66,4.11.06.28.14.58.36.77s.59.23.77,0c-.81.86,1.26.86,1.75.48-.1.77-.31,1.52-.3,2.3s.19,1.61.68,2.24c.06.08.14.16.24.16.11,0,.18-.12.24-.21.19-.34.38-.68.56-1.02-.11.2.69,1.22.86,1.4.49.52,1.14.89,1.85.99.05-.21.11-.41.16-.62,2.16,2.05,6.85,1.05,9.5.98,2.1-.05,4.82.07,6.02-1.94,0,.26.04.52.11.77.9,0,1.62-.77,1.99-1.59.43-.95.54-2.04.3-3.05,0,.18.17.35.35.34.44,0,.78-.69.89-1.03Z"/>
    <path class="st1" d="M33.93,27.24c-.35-.82-.98-1.55-1.67-1.95-.99-.58-2.05-1.04-3.15-1.38-1.39-.43-1.67-1.39-1.64-2.78.03-1.07.21-2.51.94-3.36s2.26-1.27,3.28-1.88c1.28-.77,2.4-2.27.71-3.08-.28-.14-2.97-1.07-3.15-.7.14-.28.28-.57.42-.85-1-.21-2.08-.02-2.95.53.18-.54.12-1.16-.16-1.66-.78.39-1.32,1.21-1.4,2.08-.83-.86-2.06-1.31-3.24-1.2l.81,1.17c-.22-.31-2.62.59-2.93.71-.51.2-1.03.43-1.46.75.45,1.1,1.37,1.9,2.41,2.41,1.13.55,2.15,1.07,2.65,2.25.6,1.41.92,3.66,0,5-.75,1.1-2.57,1.25-3.66,1.75-1.4.65-2.4,2.01-1.67,3.46,1.04,2.06,4.12,2.59,6.19,2.65,1.17.03,2.35.06,3.52.09,2.24.06,7.72-.43,6.16-4.02Z"/>
    <g>
      <path class="st0" d="M17.39,14.67c1.47-1.37,3.45-2.09,5.45-2.01.46.02.46-.59.1-.74s-.59-.56-.53-.93l-.46.26c.96.17,1.86.58,2.6,1.21.19.16.58.14.63-.17.12-.82.7-1.48,1.52-1.66l-.47-.36c-.02.54-.05,1.07-.07,1.61-.01.29.33.46.56.32,1-.57,2.12-.8,3.26-.67l-.27-.64c-.37.36-.75.72-1.12,1.08-.23.22-.06.65.27.64,1.71-.08,3.39.35,4.86,1.23.41.25.79-.4.38-.65-1.57-.95-3.4-1.42-5.24-1.33l.27.64c.37-.36.75-.72,1.12-1.08.25-.25.04-.61-.27-.64-1.26-.14-2.54.14-3.64.78l.56.32c.02-.54.05-1.07.07-1.61.01-.25-.25-.41-.47-.36-1.04.23-1.89,1.12-2.04,2.18l.63-.17c-.84-.72-1.84-1.21-2.93-1.41-.18-.03-.43.05-.46.26-.12.81.29,1.54,1.06,1.85l.1-.74c-2.2-.09-4.37.73-5.98,2.23-.35.33.18.86.53.53h0Z"/>
      <path class="st0" d="M16.34,14.82c-1.83.07-3.52,1.17-4.27,2.85-.22.48-.35.98-.41,1.51-.02.21.19.37.38.38.07,0,.15,0,.22,0,.2,0,.38-.18.38-.38s-.16-.37-.38-.38c-.07,0-.15,0-.22,0l.38.38s0-.05,0-.07c0,.07,0,0,0,0,0-.05.02-.1.03-.15.02-.1.04-.19.06-.29.05-.2.12-.39.19-.58.02-.06-.02.05,0,0,0-.02.02-.04.03-.06.02-.04.04-.08.06-.13.05-.09.09-.19.15-.28.05-.09.1-.17.16-.25.03-.04.05-.08.08-.11.01-.02.03-.04.04-.06,0-.01.07-.09.03-.03.12-.15.25-.3.39-.44.07-.07.14-.13.21-.19.04-.03.07-.06.11-.09.06-.05.02-.02,0,0,.03-.02.06-.04.09-.06.16-.12.33-.22.51-.32.08-.04.17-.09.25-.13.02,0,.04-.02.06-.03.1-.05-.04.01.02-.01.05-.02.1-.04.15-.06.21-.08.43-.14.65-.18.06-.01.12-.02.17-.03.02,0,.05,0,.07-.01.12-.02-.07,0,.04,0s.24-.02.35-.03c.2,0,.38-.17.38-.38,0-.2-.17-.38-.38-.38h0Z"/>
      <path class="st0" d="M13.11,18.57c-.73.82-1.23,1.85-1.39,2.93-.09.56-.09,1.12-.02,1.68.07.53.2,1.13.67,1.46s1.39.03,1.32-.65c-.02-.2-.16-.38-.38-.38-.2,0-.38.17-.38.38.02.56.23,1.24.82,1.43.68.22,1.19-.38,1.49-.91.24-.42-.41-.8-.65-.38-.1.18-.19.33-.34.47-.11.1-.19.14-.3.1.06.02-.03-.02-.04-.03.05.04-.05-.05-.06-.06.04.05-.03-.04-.03-.05,0-.01-.06-.13-.05-.09-.04-.09-.06-.18-.08-.27-.02-.08-.02-.1-.02-.22h-.75s0,.04,0,.05c-.01.04,0-.01,0-.02v-.03s0,.02,0,.03c-.02,0,.05-.04,0-.01-.04.02,0,0,0,0-.02,0-.03.02-.05.03-.06.02.05-.02-.01,0,0,0-.08.01-.04,0,.05,0-.09,0-.04,0s-.05-.03,0,0c.04.02-.03-.02-.03-.02-.05-.04-.08-.07-.13-.14-.18-.31-.23-.76-.25-1.13-.05-.84.09-1.68.45-2.44.2-.44.47-.84.79-1.2.14-.15.15-.38,0-.53-.14-.14-.39-.15-.53,0h0Z"/>
      <path class="st0" d="M35.2,14.81c.2-.03.41-.04.61-.03.1,0,.21.01.31.03-.06,0,.06,0,.07.01.06.01.11.02.17.03.42.1.72.22,1.08.45.19.12.3.21.47.37s.32.32.48.5c.29.33.51.59.74.96.06.1.12.2.17.31.02.05.04.09.07.14-.02-.05,0,.01,0,.02.01.03.02.06.03.09.04.11.07.22.09.33,0,.02.01.05.01.08,0,.02.01.09,0,.03,0,.06.01.13.01.19,0,.2.17.38.38.38.2,0,.38-.17.38-.38-.04-.98-.61-1.8-1.23-2.52-.33-.38-.67-.73-1.07-1.03-.37-.27-.79-.46-1.23-.58-.5-.14-1.03-.19-1.55-.12-.19.02-.38.15-.38.38,0,.18.17.4.38.38h0Z"/>
      <path class="st0" d="M38.69,18.13c.66.72,1.26,1.54,1.56,2.47.16.49.24.98.21,1.5-.01.24-.05.48-.12.72-.03.09-.06.19-.09.23-.03.03-.04.04-.02.02.04-.01.03-.01-.01,0,.03,0,.08-.01.11.02-.14-.15-.39-.14-.53,0-.15.15-.14.38,0,.53.2.21.53.24.78.11.24-.12.36-.36.44-.6.16-.47.21-.98.19-1.47-.06-1-.43-1.94-.98-2.77-.3-.46-.65-.88-1.01-1.29-.14-.15-.39-.14-.53,0-.15.15-.14.38,0,.53h0Z"/>
      <path class="st0" d="M39.17,22.08c.06.14.11.29.14.44.02.07.04.14.05.22,0,.04.01.07.02.11,0,.02,0,.04,0,.06,0,.05,0-.08,0,0,.02.15.03.31.03.46,0,.07,0,.15,0,.22,0,.03,0,.07,0,.1,0,.04-.02.1-.02.14,0,0,.01-.09,0-.02,0,.02,0,.04,0,.06,0,.04-.01.07-.02.11-.02.08-.03.15-.05.23-.04.15-.09.29-.15.44,0,.02-.02.06,0-.01,0,.02-.02.04-.02.05-.02.03-.03.07-.05.1-.01.02-.03.05-.04.07,0,.01-.03.06,0,.01.03-.07-.02.02-.02.01,0-.02.07-.05.09-.05-.06.02.03,0,.04,0,.08,0,.07.01.04,0,.08.03.06.03.04.01.08.05.04.04.03.02,0,0-.03-.03-.03-.03.02,0,.04.06.02.02-.01-.02-.02-.04-.04-.06-.09-.16-.15-.33-.22-.5-.08-.19-.16-.38-.25-.56-.03-.08-.14-.15-.22-.17-.08-.02-.16-.01-.24.02-.19.08-.24.25-.22.44-.02-.11,0,0,0,.02,0,.03,0,.05,0,.08,0,.06,0,.12,0,.17,0,.03,0,.05,0,.08,0,.09.02-.08,0,0-.01.06-.02.11-.04.17s-.03.11-.05.17c0,.02-.03.1,0,.01,0,.03-.02.05-.03.07-.05.11-.11.2-.18.3-.05.07-.06.21-.04.29s.09.18.17.22c.2.1.39.03.51-.13.36-.48.47-1.08.38-1.66l-.69.29c.08.19.16.38.25.56.07.17.14.35.23.51.1.18.26.34.47.39.28.06.52-.09.67-.33.1-.16.17-.35.23-.52.06-.17.11-.34.14-.51.07-.36.11-.73.08-1.1-.03-.41-.11-.83-.27-1.21-.04-.09-.08-.17-.17-.22-.08-.05-.2-.07-.29-.04-.18.06-.34.27-.26.46h0Z"/>
      <path class="st0" d="M16.01,21.36c-.3,1.48-1.06,2.82-1.31,4.31-.11.67-.14,1.34,0,2.01.12.6.41,1.36.92,1.73.92.66,1.31-.87,1.26-1.5l-.74.1c.25,1.29,1.2,2.36,2.42,2.83.19.07.41-.08.46-.26.06-.21-.07-.39-.26-.46-.98-.38-1.69-1.28-1.89-2.3-.08-.41-.77-.32-.74.1.01.2,0,.38-.05.58-.02.07-.04.13-.07.19-.02.05-.04.09-.07.13-.06.08-.03.08.11,0,0-.02-.13-.15-.15-.17-.04-.05-.08-.11-.11-.17-.09-.15-.17-.3-.23-.46-.23-.62-.25-1.3-.17-1.96.21-1.56,1.03-2.96,1.34-4.49.1-.47-.63-.67-.72-.2h0Z"/>
      <path class="st0" d="M35.5,21.69c.74,1.37,1.53,2.82,1.52,4.42-.01,1.29-.68,2.66-2,3.03l.47.36c-.02-.33.02-.64.11-.96l-.72-.2c-.13.57-.36.97-.85,1.34-.88.68-2.11.95-3.19,1.15-.47.09-.27.81.2.72,1.81-.33,4.09-.97,4.56-3.01.11-.47-.59-.66-.72-.2-.11.38-.16.77-.14,1.16.01.24.23.43.47.36,1.55-.43,2.44-1.95,2.54-3.48.12-1.83-.77-3.51-1.61-5.07-.23-.42-.88-.05-.65.38h0Z"/>
      <path class="st0" d="M19.32,30.95c.2-.23.32-.51.33-.81s-.1-.59-.29-.83l-.45.59c.56.43,1.2.76,1.87.98.73.24,1.5.32,2.26.39.2.02.38-.19.38-.38,0-.22-.17-.36-.38-.38-.19-.02-.38-.04-.57-.06-.09,0-.18-.02-.27-.03.07,0-.08-.01-.09-.01-.04,0-.08-.01-.11-.02-.35-.06-.69-.13-1.03-.24-.08-.03-.15-.05-.23-.08-.04-.02-.09-.03-.13-.05,0,0-.11-.04-.04-.01-.16-.07-.31-.14-.46-.22-.29-.16-.57-.34-.84-.54-.15-.11-.38-.04-.48.1-.12.16-.09.34.03.49-.05-.07.01.03.03.05.04.07,0,0,0,0,0,0,.02.05.02.05,0,.02.01.04.02.07,0,0,0,.02,0,.03,0,.03,0,.02,0-.03,0,0,0,.11,0,.13,0,.02,0,.04,0,.06,0,.05.02-.09,0,0-.01.04-.02.08-.03.12-.01.05.03-.06,0-.01-.01.02-.02.04-.03.06,0,.02-.02.03-.03.05-.05.08.05-.06-.01.01-.13.15-.15.39,0,.53.14.13.39.16.53,0h0Z"/>
      <path class="st0" d="M22.1,24.59c2.38-1.04,5.15-1.07,7.56-.13.3.12.43-.37.13-.48-2.55-.99-5.45-.91-7.95.18-.29.13-.04.56.25.43h0Z"/>
    </g>
  </g>
</svg>