<?xml version="1.0" encoding="UTF-8"?>
<svg id="_얼굴없는" data-name="얼굴없는" xmlns="http://www.w3.org/2000/svg" version="1.1" viewBox="0 0 50.83 48.47">
  <!-- Generator: Adobe Illustrator 29.8.2, SVG Export Plug-In . SVG Version: 2.1.1 Build 3)  -->
  <defs>
    <style>
      .st0 {
        fill: #231f20;
      }

      .st1 {
        fill: #ef4668;
      }

      .st2 {
        fill: #f39b4a;
      }

      .st3 {
        fill: #5c564d;
      }
    </style>
  </defs>
  <g>
    <g>
      <path class="st3" d="M30.88,27.1c-2.07-1.91-5.21-2.47-7.86-1.58-2.84.95-3.97,3.35-4.25,6.22-.13,1.4-.27,2.79-.4,4.19-.05.57-.11,1.15.07,1.69s.66,1.02,1.22,1.03c.29,0,.58-.12.86-.09.4.04.76.38,1.16.29.32-.07.55-.28.88-.25.38.03.57.48,1.12.39.38-.06.74-.21,1.12-.19.43.02.84.25,1.27.21.21-.02.4-.1.6-.15.63-.16,1.27.04,1.91-.03.31-.03.64-.25.94-.24.31.01.53.35.87.28.16-.03.29-.15.44-.23.95-.5,2.42.02,2.69-1.47.07-.42,0-.85-.08-1.27-.29-1.63-.48-3.24-.7-4.87-.09-.69-.2-1.39-.47-2.04-.31-.73-.81-1.36-1.39-1.9Z"/>
      <path class="st2" d="M30.39,35.93c0-.15.01-.31,0-.47,0-.09-.01-.17-.02-.26,0-.04-.01-.08-.02-.11-.01-.07-.03-.14-.05-.22-.01-.04-.02-.08-.04-.12,0-.02-.01-.04-.02-.06-.02-.05-.01-.04.02.05.01-.03-.08-.16-.1-.18,0,0,0,0,0-.01-.06-.05-.13-.11-.17-.18-.02-.02-.04-.02-.06-.04,0,0,0,0-.03,0-.02,0-.04-.01-.06-.02-.03,0-.06-.02-.09-.02-.02,0-.01,0-.02,0,0,0,0,0,0,0-.05,0-.1,0-.15,0-.09,0-.18-.03-.25-.07-.41.35-.84.68-1.3.96-.39.23-.86.41-1.31.42.06.33.13.66.22.98.05.19.11.38.18.56.02.04.03.09.05.13,0,.02,0,.02,0,.01,0,0,0,.01.01.03.04.08.07.17.11.25.19.39.42.75.65,1.11.44.18.9.21,1.33-.09.56-.39.72-1.05.89-1.67.07-.24.13-.48.19-.72,0-.08.02-.16.02-.24Z"/>
      <path class="st2" d="M22.57,38.59c.22.02.38.17.58.28.74-.11,1.43-.53,1.89-1.13.39-.52.63-1.21.2-1.72-.13-.16-.3-.27-.48-.37-.16-.08-.08-.04-.23-.1-.32-.13-.65-.25-.98-.38-.69-.28-1.41-.56-2.04-.97.09.41.13.83.16,1.24.05.74.08,1.48.25,2.21.08.34.2.67.36.98.09-.03.19-.05.3-.04Z"/>
    </g>
    <g>
      <path class="st0" d="M20.31,32.07c.06,1.28.89,2.48,2.06,3,.35.16.71.26,1.1.29.2.02.38-.19.38-.38,0-.22-.17-.36-.38-.38-.03,0-.07,0-.1-.01.13.01,0,0-.02,0-.07-.01-.14-.03-.21-.05-.13-.03-.26-.08-.39-.13-.05-.02.09.04.02,0-.02,0-.03-.01-.05-.02-.03-.01-.06-.03-.08-.04-.07-.03-.13-.07-.2-.11-.05-.03-.11-.06-.16-.1-.03-.02-.06-.04-.08-.06-.02-.01-.03-.02-.05-.04-.06-.04.07.05.01,0-.11-.09-.21-.18-.31-.28-.05-.05-.09-.1-.14-.15-.02-.02-.04-.05-.06-.07-.01-.01-.02-.03-.03-.04-.05-.06.05.07,0,.01-.08-.11-.16-.22-.23-.34-.03-.06-.07-.12-.1-.18-.01-.03-.03-.06-.04-.09,0-.01-.01-.03-.02-.04.05.1.02.04,0,.01-.06-.15-.11-.3-.14-.45-.02-.07-.03-.15-.04-.22.02.13,0-.01,0-.04,0-.04,0-.08,0-.12,0-.2-.17-.38-.38-.38-.2,0-.38.17-.38.38h0Z"/>
      <path class="st0" d="M22.9,33.28c-.02.55.22,1.06.57,1.47s.8.68,1.27.89c.29.13.59.24.89.35.09.03.21,0,.29-.04s.15-.13.17-.22c.05-.21-.06-.39-.26-.46-.24-.09-.47-.17-.7-.27l.09.04c-.18-.08-.35-.16-.52-.25-.08-.05-.16-.09-.24-.15-.04-.03-.08-.06-.12-.09-.06-.05.07.05,0,0-.02-.01-.03-.03-.05-.04-.07-.06-.13-.12-.19-.18-.03-.03-.05-.06-.08-.09-.02-.02-.03-.04-.05-.06-.02-.02-.05-.08.01.02-.1-.14-.19-.28-.26-.45l.04.09c-.06-.13-.09-.27-.11-.42v.1c0-.08,0-.16,0-.25,0-.2-.18-.38-.38-.38-.21,0-.37.16-.38.38h0Z"/>
      <path class="st0" d="M27.02,35.85c1.09-.23,2.12-.86,2.82-1.72.21-.26.4-.53.55-.82.09-.17.05-.42-.13-.51-.17-.09-.41-.05-.51.13-.06.12-.13.23-.2.34-.03.05-.07.11-.11.16-.02.02-.03.05-.05.07,0,.01-.02.03-.03.04-.05.07.05-.07,0,0-.16.2-.34.39-.53.57-.05.04-.09.08-.14.13-.02.02-.04.04-.06.05-.01.01-.02.02-.04.03,0,0-.02.01-.03.02-.02.02-.01,0,.03-.02-.01,0-.06.05-.08.06-.03.02-.05.04-.08.06-.05.04-.1.07-.16.11-.22.14-.46.25-.69.37,0,0,.08-.03.02-.01-.02,0-.04.01-.06.02-.03.01-.07.03-.1.04-.07.02-.13.05-.2.07-.14.05-.29.08-.44.11-.19.04-.32.28-.26.46.07.2.26.31.46.26h0Z"/>
      <path class="st0" d="M21.15,35.21c.1.3.18.61.25.93.02.08.03.16.04.24,0,.04.01.07.02.11,0,0,0-.06,0-.01,0,.03,0,.06.01.09.02.16.03.32.04.48.01.31,0,.63.07.94s.26.59.52.78c.41.3.98.36,1.47.3.35-.04.69-.1,1-.28.26-.15.48-.38.64-.63.4-.62.43-1.38.45-2.09,0-.2-.18-.38-.38-.38s-.37.16-.38.38c0,.15,0,.3-.01.44,0,.07,0,.14-.01.21,0,.04,0,.07,0,.11,0,.02,0,.04,0,.05,0,.03,0,.04,0,0-.02.14-.05.29-.09.43-.02.06-.03.11-.06.16,0,0,0,.04-.02.04,0,0,.03-.06,0-.02-.01.03-.03.06-.04.09-.03.05-.05.1-.08.15-.02.02-.03.05-.05.07,0,.01-.02.02-.02.04,0,0-.04.06-.01.02s-.03.03-.03.04c-.02.02-.04.04-.06.06s-.04.04-.06.06c-.01,0-.02.02-.03.03-.04.03,0,.01,0,0-.02.04-.11.07-.14.09-.03.02-.06.03-.09.05,0,0-.05.02-.02,0s-.03,0-.03.01c-.13.05-.27.08-.4.1-.07.01.04,0-.03,0-.03,0-.06,0-.08,0-.06,0-.11,0-.17.01-.11,0-.22,0-.33-.01-.01,0-.03,0-.04,0-.05,0,.07.01.02,0-.03,0-.05,0-.08-.01-.05-.01-.11-.02-.16-.04-.02,0-.05-.02-.07-.02-.07-.02.06.03,0,0-.05-.02-.1-.05-.14-.08-.01,0-.08-.04-.03-.02.04.02.01.01,0,0,0,0-.02-.02-.03-.02-.02-.02-.04-.03-.05-.05,0,0-.02-.02-.02-.03-.04-.04.01,0,.01.02,0-.02-.03-.05-.04-.06-.02-.03-.03-.06-.04-.08.03.06,0,0,0-.03-.01-.03-.02-.07-.03-.11,0-.03-.01-.06-.02-.09,0-.04,0,.02,0,.02,0-.02,0-.03,0-.05,0-.07-.01-.14-.01-.21,0-.14,0-.28-.01-.42-.03-.69-.16-1.38-.38-2.03-.06-.19-.26-.33-.46-.26-.18.06-.33.26-.26.46h0Z"/>
      <path class="st0" d="M30.12,35.01c-.2.58-.32,1.19-.36,1.8-.02.28-.01.56-.04.84,0,.03-.01.09,0,.03,0,.03-.01.06-.02.09s-.01.06-.02.09c0,.01,0,.03-.01.04,0,0-.03.07,0,.03s0,0,0,.01c0,.01-.01.03-.02.04-.01.02-.03.04-.04.07-.02.04.02-.03.02-.03,0,0-.02.02-.02.03-.02.02-.04.04-.06.06,0,0-.05.05-.05.05,0,0,.06-.04.03-.02-.01,0-.02.01-.03.02-.04.03-.09.05-.14.08,0,0-.03.02-.03.02,0,0,.07-.03.03-.01-.02,0-.05.02-.07.02-.05.02-.11.03-.16.04-.03,0-.06.01-.09.02-.04,0,.03,0,.03,0-.01,0-.03,0-.04,0-.06,0-.11,0-.17.01-.11,0-.22,0-.33,0-.03,0-.05,0-.08,0-.02,0-.03,0-.05,0,0,0,.06,0,.02,0-.07-.01-.14-.02-.21-.04-.06-.02-.13-.03-.19-.05-.02,0-.09-.04-.03-.01-.04-.02-.07-.03-.1-.05-.05-.03-.1-.06-.15-.09-.04-.02.02.02.02.02,0,0-.03-.02-.03-.03-.03-.02-.05-.04-.07-.07s-.11-.09-.11-.13c0,0,.04.06.01.02,0-.01-.02-.02-.03-.03-.02-.03-.04-.06-.06-.08-.04-.06-.07-.12-.1-.18-.01-.03-.04-.06-.04-.09,0,0,.02.06.01.02,0-.02-.01-.04-.02-.05-.05-.14-.09-.29-.12-.44,0-.04-.01-.08-.02-.12,0,0,0,.06,0,.01,0-.02,0-.05,0-.07,0-.08-.01-.17-.02-.25-.01-.17-.01-.34-.02-.52,0-.2-.17-.38-.38-.38s-.38.16-.38.38c.01.65.05,1.32.35,1.92.13.26.32.49.55.67.26.2.57.32.89.37.54.09,1.13.1,1.62-.17.26-.14.47-.37.58-.64.13-.3.14-.62.14-.94,0-.18.01-.36.03-.54,0-.09.02-.18.03-.26,0-.04,0,0,0,.01,0-.02,0-.05.01-.07,0-.05.01-.09.02-.14.06-.36.15-.72.27-1.07.06-.19-.07-.42-.26-.46-.21-.05-.39.06-.46.26h0Z"/>
      <path class="st0" d="M31.35,35.72c0,.44.03.87.03,1.31,0,.09,0,.19,0,.28,0,.04,0,.09-.01.13,0,0,0,.02,0,.03,0,.06,0-.05,0-.05,0,0-.01.07-.01.07-.01.08-.03.16-.06.24,0,.02-.01.04-.02.06,0,0,0,.01,0,.02-.01.04.04-.09.02-.05s-.04.07-.06.11c-.02.04-.05.08-.08.12-.02.02.03-.04.03-.04,0,0-.03.03-.03.04-.01.02-.03.03-.04.05-.03.03-.07.09-.11.1,0,0,.07-.05.04-.03-.01,0-.02.02-.04.03-.02.02-.05.03-.08.05-.17.1-.25.34-.13.51s.33.24.51.13c.38-.23.64-.59.75-1.02s.08-.86.06-1.28c0-.27-.02-.53-.02-.8,0-.2-.17-.38-.38-.38s-.37.16-.38.38h0Z"/>
      <path class="st0" d="M25.65,25.74c.94-.13,1.99.09,2.87.41.99.36,1.74,1.05,2.39,1.86.32.4.63.84.81,1.32.24.63.35,1.31.46,1.97.21,1.33.18,2.73.54,4.03.15.52.3,1.04.31,1.59,0,.38-.03.9-.44,1.06-.44.17-.25.9.2.72,1.07-.42,1.08-1.63.9-2.6-.12-.63-.34-1.24-.43-1.88-.11-.77-.14-1.55-.24-2.32-.19-1.37-.38-2.76-1.19-3.92-.68-.96-1.55-1.88-2.64-2.36s-2.49-.77-3.73-.59c-.48.07-.27.79.2.72h0Z"/>
      <path class="st0" d="M26.43,25.01c-2.44-.38-5.13-.03-6.65,2.13-.44.63-.75,1.38-.88,2.14s-.16,1.47-.26,2.2c-.13.95-.26,1.91-.43,2.86-.14.81-.44,1.63-.44,2.46s.44,1.49,1.15,1.94c.41.26.79-.39.38-.65-.58-.37-.82-.84-.77-1.53s.27-1.33.39-1.99c.29-1.64.48-3.3.67-4.96.02-.18.12-.6.2-.86.11-.33.25-.63.43-.93.43-.72,1.06-1.28,1.8-1.65,1.28-.64,2.8-.64,4.19-.42.47.07.68-.65.2-.72h0Z"/>
      <path class="st0" d="M19.55,35.62c-.15.8-.04,1.62.31,2.36.09.19.2.37.32.53.06.08.12.14.22.17.09.02.21.01.29-.04s.15-.13.17-.22.02-.21-.04-.29c-.08-.11-.16-.23-.22-.35-.03-.06-.06-.12-.09-.18-.02-.03-.03-.06-.04-.1,0-.01-.03-.07,0-.01s0,0,0-.01c-.1-.26-.17-.53-.21-.8v.1c-.02-.29-.03-.58.01-.87v.1c0-.06,0-.13.02-.19.02-.1.02-.2-.04-.29-.05-.08-.13-.15-.22-.17-.18-.04-.42.06-.46.26h0Z"/>
    </g>
  </g>
  <g>
    <g>
      <path class="st2" d="M14.77,18.61c-.08.15-.16.3-.23.48-.41.99-.6,2.06-.55,3.13.01.21.05.44.21.56.21.14.5.03.69-.13s.35-.38.58-.48c-.59,1.54-.88,3.75-.47,5.36.09.35.26.75.61.84.39.1.8-.35.66-.73.29.79,1.28,1.75,1.84,2.39.7.79,2.03,1.23,2.78.49.27.57,1.18.67,1.56.17,1.86,1.11,4.28,1.22,6.23.28.63.26,1.44-.03,1.76-.65.1.47.73.6,1.2.53,1.5-.21,2.82-1.38,3.21-2.85-.03.38.46.63.82.5s.59-.47.76-.81c.95-1.88.98-4.2.07-6.1.21,0,.42.02.63.03.81-1.24-.36-3.53-1.1-4.55-.08-.11-.17-.23-.17-.37,0-.08.03-.16.06-.24.67-1.79.58-3.73.31-5.61-.43-3.05-3.67-.38-4.72.69-.47.48-1.14,1.87-1.81,1.99-.3.05-.61-.03-.92-.1-1.11-.24-2.37-.32-3.5-.27-.95.05-3.2.69-4.05.28-.12-.06-.19-.18-.25-.3-.68-1.3-1.25-1.97-2.4-2.89-.6-.48-2.12-1.48-2.86-.84-.32.27-.47.68-.58,1.08-.57,2.02-.57,4.21.02,6.22.25.84-.07,1.25-.4,1.89Z"/>
      <path class="st3" d="M37.1,21.58c.68-.42.06-2.37-.17-2.89-.38-.73-.83-1.42-1.33-2.07-.02-.02-.03-.03-.05-.05-.38-.38-.76-.76-1.12-1.16-.05-.06-.1-.12-.16-.19-.39-.29-.78-.51-1.21-.64-.25-.03-.47-.2-.47-.52.01-.76.36-1.56.9-2.1.45-.45,1.12-.72,1.74-.5.52.18.86.61,1.06,1.1.05.11.07.22.11.33-.02-.68-.08-1.37-.18-2.05-.43-3.05-3.67-.38-4.72.69-.47.48-1.14,1.87-1.81,1.99-.3.05-.61-.03-.92-.1-1.11-.24-2.37-.32-3.5-.27-.95.05-3.2.69-4.05.28-.12-.06-.19-.18-.25-.3-.68-1.3-1.25-1.97-2.4-2.89-.6-.48-2.12-1.48-2.86-.84-.32.27-.47.68-.58,1.08-.02.08-.03.16-.05.24.74-.53,1.66-.22,2.38.29.6.43,1.11,1.16,1.25,1.9.09.51.24,1.06-.22,1.43-.05.04-.09.07-.14.11-.02.01-.11.08-.05.03-.12.09-.24.2-.34.31-.33.35-.64.72-.98,1.07-.63.66-1.27,1.3-1.81,2.04-.03.05-.07.08-.11.12-.09.19-.19.37-.3.58-.08.15-.16.3-.23.48-.41.99-.6,2.06-.55,3.13.01.21.05.44.21.56.21.14.5.03.69-.13.19-.16.33-.33.55-.44-.29.15-.48,2.24-.62,2.59.56-1.44,1.78-3.03,3.08-3.86.89-.57,1.97-.91,3.01-.75,1.38.22,2.56,1.31,3.21,2.51.23.44.33,1.61.66,1.88.36.29,1.54-.02,1.98,0,.42-2.21,1.27-4.44,3.86-4.65,1.54-.12,3.07.59,4.21,1.63s1.95,2.4,2.65,3.78c-.03-.57.05-1.2-.12-1.75-.08-.26-.53-1.9-.78-1.95.23.04.4.02.52-.06Z"/>
      <path class="st1" d="M27.04,14.06c-.51-.46-3.02-2.24-3.72-1.77-.14.1-.19.28-.22.45-.07.37-.14.76-.02,1.12s.47.67.84.6c.21-.04.37-.19.52-.34.78-.8,1.4-1.87,2.47-2.18.11-.03.23-.06.34-.02.16.05.26.2.33.34.28.54.38,1.17.27,1.77-.01.07-.03.15-.08.21-.18.22-.53.02-.74-.18Z"/>
    </g>
    <g>
      <path class="st0" d="M22.24,13.11c-3.27-.22-5.84,2.27-7.47,4.83-.48.76-.88,1.57-.97,2.48-.02.2.19.38.38.38.22,0,.35-.17.38-.38.07-.7.4-1.34.76-1.93s.78-1.19,1.24-1.74c.9-1.07,1.99-2.02,3.31-2.53.76-.29,1.56-.43,2.38-.38.48.03.48-.72,0-.75h0Z"/>
      <path class="st0" d="M13.8,21.9c-.11.31-.19.66,0,.97.16.28.49.45.81.35.29-.1.53-.4.74-.6.25-.24.5-.48.76-.72l-.59-.45c-1.22,2.03-1.52,4.57-.81,6.83.15.46.87.26.72-.2-.66-2.08-.39-4.39.73-6.26.22-.37-.28-.75-.59-.45-.33.31-.66.63-.99.94-.01.01-.22.2-.22.2-.01-.02.03-.02.05-.01.12.02.02.04.02,0,0-.12.04-.26.09-.39.07-.19-.08-.41-.26-.46-.21-.06-.39.07-.46.26h0Z"/>
      <path class="st0" d="M16.69,24.92c-.56.94-.72,2.08-.47,3.14.24.99.87,1.85,1.71,2.42.45.31.97.52,1.5.63.2.04.4-.06.46-.26.05-.18-.06-.42-.26-.46-.83-.16-1.53-.59-2.07-1.25-.04-.04-.1-.13-.15-.21-.06-.09-.12-.19-.17-.28-.11-.2-.18-.37-.24-.58-.13-.45-.17-.88-.13-1.35s.21-.98.47-1.41-.4-.79-.65-.38h0Z"/>
      <path class="st0" d="M19.71,28.68c.05,1.05.69,2.03,1.61,2.52.26.14.54.24.82.29.1.02.2.02.29-.04.08-.05.15-.13.17-.22.04-.18-.06-.43-.26-.46-.18-.03-.36-.08-.53-.15l.09.04c-.21-.09-.4-.2-.58-.34l.08.06c-.19-.15-.36-.31-.5-.5l.06.08c-.14-.18-.26-.38-.35-.6l.04.09c-.08-.2-.14-.41-.18-.63v.1c0-.07,0-.15,0-.22,0-.2-.17-.38-.38-.38-.2,0-.38.17-.38.38h0Z"/>
      <path class="st0" d="M21.73,29.59c.02.12.03.25.07.37s.08.23.13.34c.09.19.22.37.36.53.28.32.67.57,1.08.69.23.07.48.1.72.08.1,0,.19-.04.27-.11.07-.07.11-.17.11-.27s-.04-.2-.11-.27-.17-.12-.27-.11c-.12,0-.23,0-.35,0h.1c-.16,0-.31-.05-.46-.11l.09.04c-.16-.07-.31-.16-.45-.26l.08.06c-.14-.11-.26-.23-.37-.37l.06.08c-.1-.13-.18-.27-.25-.42l.04.09c-.06-.14-.1-.28-.12-.43v.1s.01-.02,0-.03c-.01-.1-.03-.19-.11-.27-.07-.07-.17-.11-.27-.11s-.2.04-.27.11c-.06.07-.12.17-.11.27h0Z"/>
      <path class="st0" d="M14.58,16.23c.09-.09.18-.17.27-.25l-.08.06c.18-.14.37-.25.57-.34l-.09.04c.18-.08.37-.13.56-.17.09-.02.18-.1.22-.17.05-.08.07-.2.04-.29s-.09-.18-.17-.22l-.09-.04c-.07-.02-.13-.02-.2,0-.24.04-.47.12-.69.22s-.43.23-.62.38c-.1.07-.19.15-.27.24-.07.07-.11.17-.11.27,0,.09.04.2.11.27s.17.11.27.11.19-.04.27-.11h0Z"/>
      <path class="st0" d="M14.34,14.68c.08-.03.17-.04.25-.06h-.1c.14,0,.28,0,.42.01h-.1c.13,0,.25.04.36.08.05.02.1.02.15,0,.05,0,.1-.02.14-.04.04-.02.08-.06.11-.1.03-.04.06-.08.07-.13.02-.1.02-.2-.04-.29l-.06-.08s-.1-.08-.17-.1c-.19-.08-.41-.11-.62-.12-.09,0-.18,0-.27.01-.12.02-.24.03-.36.07-.09.03-.17.09-.22.17-.03.04-.04.09-.04.14-.01.05,0,.1,0,.15.03.09.09.18.17.22s.19.07.29.04h0Z"/>
      <path class="st0" d="M15.23,13.11c.06-.76.19-1.51.38-2.25.08-.29.15-.6.29-.84.12-.2.25-.36.5-.34.31.03.61.24.87.38.29.16.57.34.84.53.53.37,1.02.78,1.47,1.24.52.53.99,1.1,1.39,1.72.26.4.91.03.65-.38-.82-1.26-1.87-2.36-3.11-3.22-.29-.21-.6-.4-.91-.57-.36-.2-.73-.41-1.14-.46-.81-.08-1.26.65-1.46,1.33-.28.92-.44,1.89-.52,2.85-.02.2.18.38.38.38.22,0,.36-.17.38-.38h0Z"/>
      <path class="st0" d="M29.21,13.86c2.42-.16,4.6,1.35,6.12,3.1.26.29.52.6.72.94.13.23.25.47.37.71.16.34.26.57.39.93.12.33.22.66.28,1.01,0,.02.02.15,0,.06,0,.04,0,.08.01.12,0,.07,0,.14,0,.21,0,.02,0,.03,0,.05,0,.05.01-.07,0-.03,0,.03-.01.06-.02.09-.02.08,0,.02,0,.01,0,.01-.06.09-.02.04s-.02.01-.03.03c-.03.03.07-.05.03-.02-.01,0-.03.01-.04.02.02-.02.06-.02-.01,0-.08.02.07,0-.02,0-.04,0-.07,0-.11,0-.04,0,.02,0,.02,0-.03,0-.06-.01-.09-.02-.15-.04-.28-.14-.4-.24-.16-.13-.38-.15-.53,0-.13.13-.16.4,0,.53.39.31.88.6,1.39.43.36-.12.53-.45.57-.81.08-.72-.24-1.51-.51-2.16-.26-.62-.53-1.23-.94-1.76-.82-1.07-1.79-2.02-2.92-2.75-1.26-.82-2.76-1.35-4.28-1.24-.2.01-.38.16-.38.38,0,.19.17.39.38.38h0Z"/>
      <path class="st0" d="M34.11,25.3c.46.78.6,1.72.39,2.58-.11.43-.28.8-.54,1.16-.21.29-.55.61-.85.81-.41.27-.8.43-1.29.53-.2.04-.31.28-.26.46.06.21.26.3.46.26.95-.18,1.84-.73,2.44-1.49.66-.83.98-1.89.87-2.95-.06-.62-.25-1.21-.57-1.74-.25-.41-.9-.04-.65.38h0Z"/>
      <path class="st0" d="M30.99,28.68c0,.08,0,.15-.02.22v-.1c-.02.22-.08.43-.16.63l.04-.09c-.09.21-.21.41-.35.6l.06-.08c-.15.19-.31.36-.5.5l.08-.06c-.18.14-.37.25-.58.34l.09-.04c-.17.07-.35.12-.53.15-.09.01-.18.1-.22.17-.05.08-.07.2-.04.29s.09.18.17.22c.09.05.18.06.29.04,1.04-.18,1.89-.98,2.26-1.95.1-.27.16-.57.17-.86,0-.2-.18-.38-.38-.38-.21,0-.37.16-.38.38h0Z"/>
      <path class="st0" d="M28.97,29.59s0,.02,0,.03v-.1c0,.15-.05.29-.11.43l.04-.09c-.06.15-.15.29-.25.42l.06-.08c-.11.14-.23.26-.37.37l.08-.06c-.14.11-.29.19-.45.26l.09-.04c-.15.06-.3.1-.46.12h.1c-.12,0-.23,0-.35,0-.09,0-.2.05-.27.11s-.11.17-.11.27.04.2.11.27.16.1.27.11c.87.07,1.74-.48,2.13-1.24.06-.12.11-.25.15-.37s.06-.26.08-.4c.01-.09-.05-.21-.11-.27-.07-.07-.17-.11-.27-.11s-.2.04-.27.11l-.06.08c-.03.06-.05.12-.05.19h0Z"/>
      <path class="st0" d="M36.25,9.76c-.32-.44-.77-.73-1.32-.73-.53,0-1.04.22-1.48.49-1.04.62-1.92,1.52-2.69,2.43-.33.39-.66.8-.94,1.23-.11.17-.03.41.13.51.18.11.4.04.51-.13.09-.14.19-.28.3-.42.03-.04.06-.08.09-.12.01-.02.03-.04.04-.06-.05.07,0,0,.02-.02.07-.09.15-.19.22-.28.35-.43.72-.84,1.11-1.22.21-.21.42-.41.65-.6.11-.09.22-.18.33-.27-.06.05.01-.01.03-.03.02-.02.05-.04.07-.05.06-.04.12-.09.18-.13.21-.14.43-.28.66-.38.03-.01.06-.03.08-.04.07-.03-.01,0,0,0,.06-.02.11-.04.16-.06.11-.04.21-.06.32-.08.08-.02-.06,0,0,0,.03,0,.06,0,.09,0,.05,0,.11,0,.16,0,.02,0,.11.01.04,0s.03,0,.04,0c.05.01.1.03.15.04.08.03-.03-.02,0,0,.02.01.04.02.07.03.02.01.05.03.07.04.04.03.05.04,0,0,.04.04.09.08.13.12.02.02.04.04.06.06.05.06-.04-.05.03.03.12.16.33.24.51.13.16-.1.25-.35.13-.51h0Z"/>
      <path class="st0" d="M25.49,12.74c-.39-.35-.86-.61-1.36-.75-.24-.07-.52-.12-.77-.11-.36.02-.59.27-.61.63-.02.25.02.52.04.77.02.21.04.43.11.63.14.45.48.85.98.84.57,0,.96-.51,1.32-.9.38-.41.74-.84,1.15-1.23.04-.04.08-.07.12-.11.06-.05.08-.07.11-.09.04-.03.09-.06.13-.09.02-.01.04-.03.07-.04,0,0,.11-.05.05-.03.04-.02.09-.03.14-.05,0,0,.11-.02.06-.01-.04,0,.03,0,.04,0,.03,0,.06,0,.09,0-.02,0-.06-.02,0,0,.02,0,.05.01.07.02.09.03-.04-.03.04.02.01,0,.12.08.06.04.04.03.08.07.11.11.04.05-.04-.07.01.02.01.02.03.04.04.06s.02.04.03.06c0,0,.04.11.02.04.09.25.1.44.09.7,0,.13,0,.26-.02.39,0-.08,0-.02,0,0,0,.03-.01.06-.02.09,0,.02-.01.04-.02.06-.02.08.03-.04,0,.02-.01.02-.02.03-.03.05.03-.04.03-.04,0-.01l.04-.03c-.07.02.02,0,.02,0-.08,0,.03,0,.03,0,0,.02-.32-.13-.36-.15-.54-.26-1.05-.57-1.53-.93-.16-.12-.42-.03-.51.13-.11.19-.03.39.13.51.42.31.86.59,1.33.83.11.06.22.11.33.16.14.06.29.14.44.16.3.04.57-.08.73-.34.12-.19.16-.42.17-.64.02-.27.02-.54-.01-.8-.07-.49-.31-1-.78-1.22-.54-.25-1.08-.04-1.52.3s-.77.76-1.13,1.15c-.2.21-.39.42-.59.63-.07.08-.14.15-.23.22.04-.03-.02.02-.03.02-.02.01-.04.03-.06.04-.01,0-.08.04-.03.02-.03.01-.06.02-.09.03-.07.02.09-.02-.03,0-.02,0-.08,0,0,0-.04,0-.12-.04-.04,0-.02,0-.03-.02-.05-.03-.07-.03.03.04,0,0-.01-.01-.03-.03-.04-.04-.06-.05,0,.01-.01-.01-.02-.04-.05-.07-.07-.11,0-.02-.02-.04-.03-.05.03.07,0,.02,0,0-.03-.1-.06-.19-.08-.29,0-.02,0-.04-.01-.06,0-.03,0-.02,0,.02,0-.02,0-.03,0-.05,0-.05,0-.1-.01-.15,0-.16-.02-.32-.03-.48,0-.07,0-.13,0-.2,0-.01,0-.08,0-.03,0,.03,0,.02,0-.01,0,.02-.01.04-.03.05-.02.03-.1.07-.1.06-.03,0-.02,0,.02,0,.02,0,.04,0,.06,0,.03,0,.05,0,.08,0,.02,0,.11.01.09,0,.49.07.98.3,1.34.62.15.13.38.15.53,0,.14-.14.15-.4,0-.53h0Z"/>
      <path class="st0" d="M21.92,16.61s.03-.1.05-.14l-.04.09c.08-.18.17-.34.29-.5l-.06.08c.11-.15.25-.28.39-.4l-.08.06s.02-.01.03-.02c.04-.02.08-.06.11-.1.03-.04.06-.08.07-.13.02-.05.02-.1,0-.15,0-.05-.02-.1-.04-.14-.05-.08-.13-.15-.22-.17h-.1c-.07-.01-.13,0-.19.04-.16.12-.32.26-.45.42s-.25.33-.34.51c-.06.12-.11.23-.15.36-.02.05-.02.1,0,.15,0,.05.02.1.04.14.02.04.06.08.1.11.04.03.08.06.13.07.1.02.2.02.29-.04l.08-.06s.08-.1.1-.17h0Z"/>
      <path class="st0" d="M28.34,15.45l.62.74.18.21s.07.06.12.08c.04.02.09.03.14.03.05,0,.1,0,.14-.03.05-.02.09-.04.12-.08.07-.07.11-.17.11-.27v-.1c-.03-.06-.06-.12-.11-.17l-.62-.74-.18-.21s-.07-.06-.12-.08c-.04-.02-.09-.03-.14-.03-.05,0-.1,0-.14.03-.05.02-.09.04-.12.08-.07.07-.11.17-.11.27v.1c.03.06.06.12.11.17h0Z"/>
      <path class="st0" d="M23.8,15.28c-.1.12-.2.25-.28.39-.03.06-.06.11-.09.17-.04.09-.07.17-.1.26-.02.07-.04.14-.05.21-.02.05-.02.1,0,.15,0,.05.02.1.04.14.02.04.06.08.1.11.04.03.08.06.13.07.1.02.2.02.29-.04.08-.05.15-.13.17-.22.02-.13.06-.25.11-.37l-.04.09c.06-.15.14-.29.24-.42l-.06.08s.05-.06.08-.09c.04-.03.06-.07.08-.12.02-.04.03-.09.03-.14,0-.05,0-.1-.03-.14-.02-.05-.04-.09-.08-.12-.07-.07-.17-.11-.27-.11s-.2.04-.27.11h0Z"/>
      <path class="st0" d="M23.02,10.38c.21.04.41.09.6.18l-.09-.04c.23.1.44.22.64.37l-.08-.06c.2.16.38.33.53.53l-.06-.08c.15.2.28.41.37.64l-.04-.09c.07.17.12.34.16.52.04.19.28.32.46.26.2-.07.3-.25.26-.46-.19-.96-.89-1.81-1.77-2.23-.25-.12-.52-.22-.8-.26-.1-.02-.2-.02-.29.04-.08.05-.15.13-.17.22-.02.1-.02.2.04.29.05.08.13.16.22.17h0Z"/>
      <path class="st0" d="M25.77,12.37c.07-.23.14-.45.22-.68.02-.05.04-.1.06-.16.01-.03.02-.06.04-.09,0-.01,0-.02.01-.03.02-.04-.03.08,0,.01.05-.11.1-.21.15-.32s.11-.2.18-.3c.03-.04.05-.08.08-.12,0-.01.02-.02.02-.03,0,0-.06.07-.02.03.02-.02.03-.04.05-.06.07-.08.14-.15.21-.22.03-.03.07-.06.11-.09.02-.02.1-.07,0,0,.02-.02.04-.03.07-.05.09-.07.19-.12.3-.17,0,0,.02,0,.03-.01.06-.03,0,0-.02.01.02-.01.05-.02.08-.03.06-.02.12-.04.17-.05.19-.05.32-.27.26-.46-.06-.2-.26-.31-.46-.26-.46.11-.88.39-1.2.74-.35.39-.59.85-.78,1.34-.1.27-.19.54-.27.81-.06.19.07.42.26.46s.4-.06.46-.26h0Z"/>
      <path class="st0" d="M36.4,22.67c.34.63.53,1.37.56,2.08.03.76-.09,1.46-.37,2.18-.14.35-.37.75-.62,1.08-.12.16-.03.42.13.51.19.11.39.03.51-.13,1.01-1.34,1.33-3.15.94-4.77-.11-.46-.28-.91-.51-1.32-.1-.18-.34-.23-.51-.13-.18.11-.23.33-.13.51h0Z"/>
      <path class="st0" d="M17.65,11.79c.16.15.32.32.45.5l-.06-.08c.22.28.39.59.53.91l-.04-.09c.13.31.22.63.28.96.01.09.1.18.17.22.08.05.2.07.29.04s.18-.09.22-.17c.05-.09.05-.18.04-.29-.12-.77-.46-1.48-.94-2.09-.13-.16-.27-.31-.42-.45s-.39-.15-.53,0-.15.39,0,.53h0Z"/>
      <path class="st0" d="M33.79,11.31c-.66.44-1.16,1.07-1.44,1.81-.07.19-.13.38-.16.58-.02.1-.02.2.04.29.05.08.13.15.22.17.18.04.42-.06.46-.26.04-.24.11-.47.21-.69l-.04.09c.11-.27.26-.52.44-.75l-.06.08c.17-.22.37-.42.59-.59l-.08.06c.06-.05.13-.09.19-.14.08-.05.15-.13.17-.22.02-.09.01-.21-.04-.29-.1-.16-.34-.25-.51-.13h0Z"/>
      <path class="st0" d="M35.86,11.11c.39,1.62.36,3.33-.09,4.94-.13.47.59.66.72.2.49-1.74.51-3.59.09-5.34-.05-.2-.27-.31-.46-.26-.2.06-.31.26-.26.46h0Z"/>
    </g>
  </g>
</svg>