<?xml version="1.0" encoding="UTF-8"?>
<svg id="_얼굴없는" data-name="얼굴없는" xmlns="http://www.w3.org/2000/svg" version="1.1" viewBox="0 0 50.83 48.47">
  <!-- Generator: Adobe Illustrator 29.8.2, SVG Export Plug-In . SVG Version: 2.1.1 Build 3)  -->
  <defs>
    <style>
      .st0 {
        fill: #231f20;
      }

      .st1 {
        fill: #fff;
      }

      .st2 {
        fill: #f8c04e;
      }
    </style>
  </defs>
  <g>
    <path class="st2" d="M31.62,39.69c.18-.54.27-1.09.27-1.69,0-.58-.05-1.15-.09-1.73-.25-.89-.64-1.77-1.03-2.54-.15-.29-.35-.89-.66-1.08-1.08-1.42-2.91-2.4-4.86-2.6-2.02-.2-4.12.43-5.56,1.67-2.51,2.17-4.47,9.75,1.33,9.5l.41-.38c.19.27.49.46.98.52,1.74.2,2.15-.73,2.25-1.85.1,1.12.51,2.05,2.25,1.85,1.76-.21,3.84-.33,4.71-1.67Z"/>
    <path class="st0" d="M30.54,32.59c-1.38-1.89-3.71-2.95-6.03-2.95-2.02,0-4.27.76-5.6,2.35-.86,1.03-1.44,2.3-1.77,3.59s-.45,2.74.09,3.99c.66,1.53,2.21,2.09,3.79,2.03.48-.02.48-.77,0-.75-1.2.05-2.4-.27-2.99-1.34-.53-.96-.49-2.21-.27-3.3.24-1.19.72-2.36,1.42-3.36.98-1.39,2.69-2.19,4.37-2.4,2.34-.3,4.92.58,6.34,2.52.28.39.93.01.65-.38h0Z"/>
    <path class="st0" d="M29.88,32.94c.29.15.41.65.55.94s.27.56.39.84c.24.56.48,1.24.64,1.88s.24,1.2.18,1.86c-.02.22-.08.5-.18.77-.07.18-.24.47-.39.63-.5.53-1.28.74-2.05.8-.48.03-.48.78,0,.75.85-.06,1.69-.26,2.36-.81.51-.42.83-1.04.95-1.69.26-1.44-.2-2.95-.75-4.27-.15-.37-.32-.73-.5-1.09-.21-.44-.37-1.01-.84-1.25-.43-.22-.81.43-.38.65h0Z"/>
    <g>
      <path class="st1" d="M21.01,40.24c.01.05.03.11.04.16.04.12.08.23.13.34,0,.01,0,.01,0,.01,0,0,0,0,.01.02.01.03.03.06.04.08.02.03.04.07.06.1l.13-.12c.19.27.49.46.98.52,1.33.16,1.88-.36,2.11-1.11-1.17-.03-2.36-.01-3.51-.01Z"/>
      <path class="st1" d="M30.05,34.75c.3-.31.51-.66.58-1.07.19-1.07-1.26-2.36-2.22-2.88-1.29-.7-2.85-1.05-4.37-.99-2.28.09-6.91,1.73-5.57,4.39.52,1.04,2.28,1.7,3.67,2.1.7.2,1.23.28,1.76.71.27.21.52.45.77.66.89-.37,1.74-.83,2.61-1.24.85-.41,2.05-.91,2.77-1.66Z"/>
      <path class="st1" d="M27.75,41.22c.09-.1.17-.2.25-.31.08-.1.16-.21.23-.32.03-.05.06-.1.09-.15.02-.03.03-.06.05-.08.01-.03.02-.06.03-.09-1.14.1-2.29.04-3.43,0-.06,0-.11,0-.17,0,.23.75.78,1.26,2.11,1.1.26-.03.53-.06.8-.09.01-.02.03-.03.04-.05Z"/>
    </g>
    <g>
      <path class="st0" d="M18.88,31.43c-.62.53-1.06,1.35-.97,2.18s.58,1.46,1.22,1.94c.38.28.81.49,1.26.64.19.06.42-.07.46-.26.05-.21-.06-.39-.26-.46-.09-.03-.17-.06-.26-.1-.07-.03-.02,0,0,0-.02,0-.04-.02-.06-.03-.05-.02-.1-.05-.15-.07-.16-.08-.31-.17-.46-.27-.03-.02-.07-.05-.1-.07-.02-.01-.03-.02-.05-.04-.04-.03.04.04,0,0-.07-.06-.13-.11-.19-.17-.06-.05-.11-.11-.17-.17-.03-.03-.05-.06-.08-.09-.01-.01-.02-.03-.04-.04-.06-.07.04.06-.01-.01-.09-.12-.17-.25-.23-.39,0-.02-.01-.03-.02-.05-.02-.04.01.03.01.03-.02-.02-.03-.07-.04-.1-.03-.08-.05-.17-.07-.26,0,0-.01-.05-.01-.06,0,0,0,.09,0,.01,0-.04,0-.08,0-.12,0-.08,0-.17,0-.25,0-.1-.01.05,0-.05,0-.04.01-.08.02-.12.02-.08.04-.16.07-.24,0-.02.01-.04.02-.06.04-.09-.03.07.01-.02.02-.04.04-.08.06-.12.05-.09.1-.17.16-.26.01-.02.03-.04.04-.05-.03.04,0,0,.01-.01.03-.04.06-.08.1-.11.08-.08.16-.16.25-.24.15-.13.14-.4,0-.53-.16-.15-.37-.14-.53,0h0Z"/>
      <path class="st0" d="M21.08,34.91c-.18.68.38,1.25.92,1.56s1.12.47,1.65.78c.07.04.13.08.2.13.01,0,.03.02.04.03l-.04-.03s.02.02.04.03c.03.02.05.05.08.07.05.05.1.11.15.16,0,0-.05-.07-.02-.02.01.02.02.04.04.05.02.03.04.06.05.09.09.18.35.24.51.13.18-.12.23-.32.13-.51-.13-.27-.36-.47-.6-.64s-.49-.29-.75-.41c-.27-.12-.55-.23-.82-.36-.13-.06-.25-.13-.37-.2-.05-.03-.13-.07-.17-.12.04.05.04.03.02.01-.01-.01-.03-.02-.04-.03-.03-.03-.06-.06-.09-.08-.02-.02-.05-.05-.07-.07-.01-.01-.02-.02-.03-.04-.05-.06.05.07,0,0-.02-.03-.04-.06-.06-.09-.02-.03-.03-.07-.05-.09.04.05.03.07.01.03,0-.02-.01-.04-.02-.06,0-.01,0-.02,0-.03-.01-.06,0,0,0,.03,0-.03,0-.07,0-.1,0-.04.02-.02,0,.04,0-.02,0-.04.01-.06.05-.19-.06-.42-.26-.46s-.41.06-.46.26h0Z"/>
      <path class="st0" d="M29.62,32.67c.05.03.1.06.16.09,0,0,.06.04,0,0,.02.01.04.03.05.05.04.03.07.07.11.11.01.01.06.07.02.02.02.03.04.05.06.08.02.04.05.08.07.12,0,0,.04.1.02.05s.02.05.02.05c.01.04.03.08.04.12,0,.03,0,.05.02.08,0,.03,0,.02,0-.02,0,.02,0,.03,0,.05.03.42-.19.86-.45,1.19-.31.39-.64.64-1.07.86-.4.2-.75.33-1.2.51-.51.21-.99.44-1.42.79-.15.12-.14.4,0,.53.16.15.37.13.53,0,0,0,.1-.07.03-.03.02-.01.04-.03.06-.04.05-.03.1-.07.15-.1.1-.06.2-.12.31-.18s.22-.11.33-.16c.05-.02.1-.04.15-.07.06-.03-.08.03.03-.01.03-.01.07-.03.1-.04.47-.19.96-.37,1.41-.61.5-.27.91-.63,1.25-1.08s.59-1.01.55-1.58c-.05-.6-.39-1.14-.93-1.42-.17-.09-.42-.05-.51.13-.09.17-.05.42.13.51h0Z"/>
      <path class="st0" d="M20.79,38.25c0,1.08-.35,2.59.8,3.25.35.2.75.25,1.14.27.34.01.71-.02,1.03-.14.28-.11.54-.27.73-.51s.32-.5.4-.79c.18-.63.16-1.3.16-1.95,0-.2-.17-.38-.38-.38s-.38.16-.38.38c0,.27,0,.55,0,.82,0,.13-.01.27-.03.4,0,.03,0,.06,0,.09,0,.02,0,.04,0,.05.01-.12.01-.07,0-.05-.01.07-.02.14-.04.21-.02.12-.05.23-.09.35,0,.03-.02.06-.03.08-.03.09.04-.08,0,0-.02.05-.05.1-.08.15s-.06.1-.09.14c-.04.05.06-.07.03-.03,0,0-.02.02-.02.03-.02.02-.04.05-.06.07-.04.04-.09.07-.13.12,0,0,.08-.06.04-.03-.01,0-.03.02-.04.03-.03.02-.06.04-.08.05-.02.01-.05.03-.07.04-.02,0-.03.01-.05.02-.06.03.08-.03.03-.01-.07.02-.13.05-.2.07-.06.02-.13.03-.19.04-.03,0-.1,0,.02,0-.02,0-.04,0-.06,0-.04,0-.09,0-.13,0-.18,0-.36,0-.54-.02-.01,0-.06-.01-.07,0h.05s-.03,0-.05,0c-.04,0-.07-.01-.11-.02-.07-.02-.15-.04-.22-.07-.03-.01-.08-.05.02,0-.02,0-.03-.02-.05-.02-.03-.01-.05-.03-.08-.04s-.05-.03-.07-.05c-.01,0-.03-.02-.04-.03.08.03.06.05.02.02-.05-.04-.09-.08-.13-.13-.06-.07.05.07,0,0-.02-.03-.04-.05-.05-.08-.01-.02-.03-.05-.04-.07,0-.02-.05-.12-.02-.04s-.01-.03-.02-.05c-.01-.03-.02-.06-.03-.1-.02-.06-.03-.11-.04-.17,0-.03-.01-.07-.02-.1,0-.01,0-.02,0-.04.02.13,0,.04,0,.01-.06-.59.03-1.17.03-1.76,0-.2-.17-.38-.38-.38s-.37.16-.38.38h0Z"/>
      <path class="st0" d="M27.77,38.25c0,.53.08,1.05.05,1.58,0,.06,0,.12-.01.18,0,.02,0,.04,0,.05.01-.12.01-.07,0-.05,0,.04-.01.08-.02.11-.02.12-.07.23-.1.35.03-.1.03-.06.01-.03,0,.01-.01.03-.02.04-.01.02-.03.05-.04.07s-.03.05-.04.07c0,.01-.02.03-.03.04.04-.08.05-.06.02-.02-.04.05-.08.09-.13.13-.07.06.07-.05,0,0-.03.02-.06.04-.09.06-.03.02-.05.03-.08.04-.02,0-.03.01-.05.02.09-.05.06-.02.03-.01-.07.03-.15.05-.23.07-.04,0-.07.02-.11.02-.02,0-.11.01,0,0-.02,0-.03,0-.05,0-.11.01-.21.02-.32.02-.08,0-.16,0-.24,0-.04,0-.08,0-.11,0-.02,0-.04,0-.07,0-.08,0,.1.02,0,0-.14-.02-.27-.06-.4-.1-.07-.02.09.04.03.01-.02,0-.03-.01-.05-.02-.03-.01-.05-.03-.07-.04s-.05-.03-.07-.04c-.04-.02-.11-.1-.02,0-.04-.04-.09-.07-.13-.12-.02-.02-.04-.04-.05-.06,0,0-.02-.02-.02-.03-.05-.06.05.07.02.02-.07-.1-.12-.19-.17-.3-.04-.08.03.09,0,0,0-.03-.02-.05-.03-.08-.02-.06-.04-.13-.06-.19s-.03-.13-.04-.2c0-.03-.01-.07-.02-.1,0-.03-.02-.16,0-.02-.02-.15-.03-.3-.04-.45-.02-.3-.01-.61-.01-.91,0-.2-.17-.38-.38-.38s-.37.16-.38.38c0,1.07-.05,2.53,1.04,3.14.31.17.66.24,1,.26.19.01.39,0,.58-.02s.39-.05.57-.12c.33-.13.61-.33.8-.62.16-.24.24-.52.28-.8.09-.65,0-1.29-.01-1.95,0-.2-.17-.38-.38-.38s-.38.16-.38.38h0Z"/>
    </g>
  </g>
  <g>
    <path class="st2" d="M38.48,12.57c-.02-.08-.04-.17-.06-.25-.24-.94-.5-2.57-1.25-3.21-1.69-1.42-4.36,1.13-5.4,2.36-1.11,1.31-1.9,2.81-2.39,4.43-3.01-1.1-6.25-1.2-9.32-.32-.63-1.34-1.4-2.56-2.38-3.68-.01-.01-.03-.02-.04-.04-.5-.67-1.04-1.32-1.66-1.88-.7-.64-1.58-1.38-2.57-1.33-.02,0-.05,0-.07,0-1.78-.49-2.58,4.32-2.68,5.4-.26,3.01.51,5.99,2.49,8.12-.03.11-.06.22-.05.36.09,1.58-.3,2.94-1.19,4.23-.48.69.18,1.51.86,1.56-.03.01-.07.02-.1.03-.44.7.15,1.52.86,1.56,1.03.06,1.81,1.08,2.58,1.68.89.69,1.83,1.04,2.93,1.21,2.56.41,5.23.82,7.83.74,2.26-.07,4.58-.61,6.41-2.03.69-.54,1.2-1.23,2.06-1.47.71-.19,1.22.15,1.37-1,.03-.19.04-.36,0-.55.26-.13.48-.38.55-.66.35-1.32,0-1.26-.6-2.31-.18-.32-.21-.74-.28-1.1-.05-.25-.55-2-.43-2.14,2.08-2.6,3.28-6.31,2.51-9.7Z"/>
    <path class="st1" d="M17.84,15.59c-.5-1.11-1.15-2.11-1.75-3.16-1.14-1.99-3.23-2.24-3.72.37-.49,2.58.18,5.36,1.76,7.41.32-.37,3.91-4.16,3.92-4.12-.06-.16-.13-.33-.21-.49Z"/>
    <path class="st1" d="M34.83,11.14c-.6.36-1.21.98-1.49,1.28-.76.81-1.31,1.8-1.85,2.77-.19.34-.62,1.09-.52,1.51.09.37.89.79,1.17.98,1.06.72,2,1.68,2.87,2.61,1.57-1,1.92-4,2.03-5.73.07-1.06.01-3.2-1.19-3.67-.28-.11-.65.02-1.03.25Z"/>
    <path class="st1" d="M36.68,25.51c-.18-.32-.21-.74-.28-1.1,0,0,0,0,0,0-.74.33-1.53.54-2.28.7-2.44.49-6.22.69-7.41-2.14-1-2.38-.5-5.23-.1-7.75-1.5-.24-3.01-.26-4.52-.04.08,1.18.21,2.35.28,3.53.07,1.26.12,2.62-.32,3.82-.38,1.04-1.04,2.05-1.99,2.61-.28.16-.56.27-.85.33-.98.31-2.06.31-3.06.22-1.13-.1-2.28-.31-3.36-.72-.2.62-.48,1.21-.88,1.79-.48.69.18,1.51.86,1.56-.03.01-.07.02-.1.03-.44.7.15,1.52.86,1.56,1.03.06,1.81,1.08,2.58,1.68.89.69,1.83,1.04,2.93,1.21,2.56.41,5.23.82,7.83.74,2.26-.07,4.58-.61,6.41-2.03.69-.54,1.2-1.23,2.06-1.47.71-.19,1.22.15,1.37-1,.03-.19.04-.36,0-.55.26-.13.48-.38.55-.66.35-1.32,0-1.26-.6-2.31Z"/>
    <g>
      <path class="st0" d="M16.24,17.97c1.43-1.37,3.41-2.05,5.34-2.36,2.21-.35,4.54-.17,6.67.52,1.21.39,2.35.96,3.37,1.72.39.29.76-.36.38-.65-1.92-1.43-4.28-2.19-6.65-2.43s-4.65.02-6.77.88c-1.05.43-2.04,1-2.86,1.79-.35.33.18.86.53.53h0Z"/>
      <path class="st0" d="M13.52,21.71c-2.94-3.12-3.62-7.87-1.74-11.71.21-.43-.44-.81-.65-.38-1.58,3.24-1.54,7.1.17,10.29.46.85,1.03,1.63,1.69,2.34.33.35.86-.18.53-.53h0Z"/>
      <path class="st0" d="M13.25,11.85c.03-.09.06-.17.09-.25,0,0,.02-.06,0-.02-.02.04.01-.02.02-.03.02-.05.04-.09.07-.13.02-.04.05-.08.07-.11,0,0,.04-.05,0-.01-.03.04.02-.02.02-.02.01-.02.03-.03.04-.05,0,0,.06-.05.02-.02-.03.03,0,0,.01,0,.03-.02.05-.03.08-.05.02,0,.09-.04.03-.01-.07.03.02,0,.04-.01.05-.02.1-.03.14-.04.01,0,.02,0,.04,0,.04-.01-.09,0-.05,0,.02,0,.04,0,.06,0,.05,0,.1,0,.15,0,.08,0,0,.02-.02,0,.01.01.05,0,.07.01.05.01.1.03.15.04.02,0,.04.02.06.02.05.02-.09-.04,0,0,.05.02.09.05.14.07s.09.06.14.09c.02.01.04.03.06.04.01,0,.02.02.03.03.06.04,0-.01-.02-.01.03,0,.1.09.13.11.05.04.1.09.14.13.09.09.17.18.25.27.04.05.08.09.12.14.02.03.04.05.06.08.01.01.02.03.03.04-.03-.03-.03-.05,0,0,.17.22.32.45.46.69.29.47.54.96.76,1.46.03.06.06.13.09.19.01.03.03.06.04.09-.03-.07-.01-.03,0,.01.05.11.09.23.14.35.07.18.13.36.19.55s.27.32.46.26.32-.26.26-.46c-.13-.43-.3-.84-.48-1.25-.23-.53-.49-1.05-.79-1.54s-.65-1-1.07-1.41c-.38-.37-.84-.68-1.38-.74-.29-.03-.58.03-.84.16-.44.22-.64.72-.79,1.16-.06.19.07.42.26.46.21.05.39-.06.46-.26h0Z"/>
      <path class="st0" d="M14.66,19.23c-1.04,1.16-1.66,2.69-1.98,4.2-.15.7-.21,1.44-.48,2.11-.13.33-.33.59-.56.86s-.44.59-.4.97c.06.78.84.88,1.35,1.28l-.1-.36c-.22.57-.36,1.28.14,1.75.4.37.99.38,1.51.33.2-.02.37-.16.38-.38,0-.19-.17-.4-.38-.38-.29.03-.7.1-.95-.09-.32-.23-.08-.75.03-1.04.04-.11,0-.29-.1-.36-.28-.22-.59-.35-.89-.53s-.26-.39-.05-.65c.26-.32.5-.61.67-.99.18-.4.28-.83.37-1.26.34-1.75.75-3.54,1.98-4.91.32-.36-.21-.89-.53-.53h0Z"/>
      <path class="st0" d="M14.61,30.72c1.21,1.67,3.31,2.15,5.24,2.38.59.07,1.18.12,1.78.16.2.01.38-.18.38-.38,0-.21-.17-.36-.38-.38-.97-.07-1.94-.14-2.9-.33-.87-.17-1.73-.42-2.48-.9-.38-.24-.73-.56-.99-.93-.12-.16-.33-.24-.51-.13-.16.09-.25.35-.13.51h0Z"/>
      <path class="st0" d="M12.59,8.89c1.36-.03,2.58.63,3.56,1.55s1.8,2.13,2.47,3.35c.31.57.6,1.16.87,1.75.08.18.35.23.51.13.19-.11.22-.33.13-.51-.53-1.19-1.15-2.35-1.9-3.42-.85-1.21-1.89-2.37-3.23-3.04-.75-.38-1.57-.58-2.41-.57-.48.01-.48.76,0,.75h0Z"/>
      <path class="st0" d="M36.09,22.6c2.43-2.58,3.46-6.21,2.83-9.69-.19-1.02-.52-2-.97-2.94-.21-.43-.86-.05-.65.38,1.88,3.84,1.2,8.59-1.74,11.71-.33.35.2.88.53.53h0Z"/>
      <path class="st0" d="M34.4,10.98c-1.35.99-2.37,2.38-3.1,3.88-.21.43-.39.86-.55,1.31-.07.18.08.42.26.46.21.05.39-.06.46-.26.14-.38.25-.66.43-1.02s.36-.71.56-1.05c.41-.69.84-1.27,1.39-1.85.15-.15.3-.3.46-.44.08-.07.17-.15.25-.22.02-.01.03-.02.05-.04,0,0,.08-.06.05-.04-.03.02.03-.02.02-.02.03-.02.06-.05.09-.07.16-.12.24-.33.13-.51-.09-.16-.35-.26-.51-.13h0Z"/>
      <path class="st0" d="M35.27,30.25c.65.09,1.3-.17,1.65-.74s.3-1.31-.07-1.84l-.32.56c.82-.02,1.33-.79,1.21-1.57-.07-.42-.33-.71-.6-1.02s-.28-.67-.33-1.05c-.25-1.67-.84-3.29-1.7-4.75-.25-.41-.89-.04-.65.38.74,1.25,1.26,2.62,1.53,4.05.07.34.1.69.16,1.03.07.37.25.65.5.93.2.22.39.45.35.77-.03.25-.22.47-.48.48s-.5.32-.32.56c.21.3.27.68.1,1.02-.15.3-.51.51-.84.46-.2-.03-.4.05-.46.26-.05.18.06.43.26.46h0Z"/>
      <path class="st0" d="M34.17,30.13c-.58.99-1.62,1.55-2.67,1.94-1.16.43-2.38.6-3.61.44-.2-.03-.38.19-.38.38,0,.23.17.35.38.38,1.03.14,2.09.05,3.09-.23s1.96-.68,2.76-1.31c.43-.33.8-.74,1.07-1.21.25-.42-.4-.79-.65-.38h0Z"/>
      <path class="st0" d="M35.62,8.32c-1.37.34-2.61,1.06-3.59,2.06-.88.9-1.55,1.97-2.11,3.09-.28.56-.53,1.13-.79,1.7-.08.18-.05.4.13.51.16.09.43.05.51-.13.46-1.02.92-2.04,1.51-2.99.64-1.02,1.44-1.96,2.45-2.62.65-.42,1.33-.71,2.08-.89.47-.11.27-.84-.2-.72h0Z"/>
      <path class="st0" d="M36.65,8.68s0,.03,0,.05v-.1c0,.1-.03.2-.07.29l.04-.09c-.04.09-.09.17-.15.25l.06-.08s-.08.09-.12.13c-.04.03-.06.07-.08.12-.02.04-.03.09-.03.14,0,.05,0,.1.03.14.02.05.04.09.08.12l.08.06c.06.03.12.05.19.05h.1c.06-.03.12-.06.17-.11.04-.04.08-.08.11-.12.05-.07.11-.13.15-.21s.07-.15.11-.23c.02-.05.04-.1.05-.16.02-.09.04-.18.04-.28,0-.05,0-.1-.03-.14-.02-.05-.04-.09-.08-.12-.03-.04-.07-.06-.12-.08-.04-.02-.09-.03-.14-.03h-.1c-.06.03-.12.06-.17.11l-.06.08c-.03.06-.05.12-.05.19h0Z"/>
    </g>
  </g>
</svg>