<?xml version="1.0" encoding="UTF-8"?>
<svg id="_얼굴없는" data-name="얼굴없는" xmlns="http://www.w3.org/2000/svg" version="1.1" viewBox="0 0 50.83 48.47">
  <!-- Generator: Adobe Illustrator 29.8.2, SVG Export Plug-In . SVG Version: 2.1.1 Build 3)  -->
  <defs>
    <style>
      .st0 {
        fill: #231f20;
      }

      .st1 {
        fill: #f8c04e;
      }
    </style>
  </defs>
  <g>
    <path class="st1" d="M19.27,29.89c-.67,1.87-1.4,3.84-1.04,5.83.14.76.53,1.37,1.29,1.59.35.1.74.19,1.08.06.19-.07.4-.2.58-.09.08.05.13.13.19.21.49.57,1.2.2,1.75.28.44.07.53.17.99.11.41-.05.54-.21.98-.11s.69-.3,1.08-.4c.42-.11.55.06.86.28.38.27.87.38,1.32.25.05-.02.11-.03.16-.03.06,0,.11.04.17.07.42.22.97.18,1.35-.11.06-.05.12-.1.2-.13.19-.06.2.07.39-.08.18-.14.44-.12.68-.12,1.06.02,2.41-.61,2.79-1.66.18-.48.18-1,.16-1.52-.12-2.88-1.15-5.48-2.78-7.82-.6-.85-1.21-1.72-2.04-2.35-4.12-3.15-8.58,1.29-9.93,5.11-.07.21-.15.42-.22.63Z"/>
    <g>
      <path class="st0" d="M21.05,32.65c-.26.96-.43,1.96-.46,2.95-.03.87.13,1.95.96,2.44.47.28,1.01.17,1.39-.2l-.53-.53c-.48.56.4.92.83,1.03.4.09.83.08,1.18-.16.3-.21.53-.53.6-.89.04-.2-.06-.4-.26-.46-.18-.05-.42.06-.46.26-.01.06-.02.11-.04.17-.02.06.02-.04,0,.02-.01.02-.02.05-.04.07-.02.03-.03.05-.05.08.02-.03,0,0-.01.01-.03.04-.07.07-.11.11.04-.03-.02.01-.03.02-.02.01-.04.03-.07.04-.04.02-.07.03-.12.04-.06.02-.08.02-.15.02-.05,0-.12,0-.15-.01-.14-.03-.28-.07-.42-.12-.08-.03.05.03-.02-.01-.03-.02-.07-.03-.1-.05-.04-.02-.08-.06-.02,0-.04-.03-.01-.03,0,0,.03.03.04.06.04.1.04.1.02.2-.07.29.13-.15.15-.38,0-.53s-.38-.14-.53,0c-.06.06-.08.08-.17.12-.04.02,0,0,0,0-.02,0-.03.01-.05.02s-.03,0-.05.01c.04,0,.04,0,0,0-.02,0-.03,0-.05,0-.06,0,.06.01,0,0-.03,0-.06-.02-.1-.02-.04-.01,0,0,.01,0-.02,0-.03-.01-.05-.02-.04-.02-.08-.05-.12-.07-.03-.02,0,0,0,0-.01-.01-.03-.02-.04-.04-.03-.02-.05-.05-.08-.08-.01-.01-.08-.09-.05-.05-.03-.04-.05-.07-.07-.11-.1-.16-.13-.26-.18-.45-.19-.72-.08-1.58.04-2.33.08-.48.18-.96.31-1.44.05-.2-.07-.41-.26-.46s-.41.07-.46.26h0Z"/>
      <path class="st0" d="M25.29,32.5c-.07.74-.07,1.48.02,2.21.06.5.17.99.28,1.49.05.21.08.39.06.61,0,.04,0-.01,0-.02,0,.02,0,.04-.01.06,0,.04-.02.07-.03.11,0,.01-.03.07,0,.03.02-.04,0,0,0,.01-.02.04-.04.08-.07.12,0,0-.04.06-.01.02.03-.04-.03.03-.03.03-.03.03-.06.06-.09.08.06-.05-.02.01-.05.03-.02,0-.04.02-.05.03-.06.03.03,0,0,0s-.09.02-.13.04c.07-.02-.03,0-.06,0-.05,0-.09,0-.14,0,.07,0,0,0,0,0-.04,0-.07-.02-.11-.03-.47-.13-.66.59-.2.72s.9.06,1.26-.23c.32-.26.49-.68.5-1.09.02-.54-.19-1.08-.29-1.61-.08-.45-.12-.93-.13-1.4,0-.4,0-.8.05-1.2.02-.2-.19-.38-.38-.38-.22,0-.36.17-.38.38h0Z"/>
      <path class="st0" d="M26.79,32.7c.05.49.09.98.06,1.46,0,.09-.01.18-.02.27,0,.04,0,.08-.01.12.01-.09,0-.02,0,0,0,.03,0,.06-.01.09-.03.2-.07.41-.11.61-.12.57-.38,1.16-.31,1.75.06.5.34.97.8,1.21.56.28,1.33.23,1.69-.34.11-.17.04-.41-.13-.51-.18-.11-.4-.04-.51.13-.04.06-.02.03-.01.02-.02.02-.04.04-.06.06.04-.04-.1.05-.04.02-.05.02-.1.03-.14.04-.07.02-.02,0,0,0-.03,0-.07,0-.1,0-.02,0-.15,0-.07,0-.04,0-.09-.02-.13-.03-.02,0-.14-.05-.06-.02-.05-.02-.1-.05-.14-.08-.02-.01-.04-.02-.05-.04.01,0,.05.05,0,0-.03-.03-.06-.06-.09-.09-.01-.02-.03-.03-.04-.05.01.01.03.05,0,0-.03-.04-.05-.09-.07-.13,0-.02-.03-.08,0-.02,0-.02-.02-.04-.02-.06-.01-.04-.02-.09-.03-.14,0-.01,0-.07,0,0,0-.02,0-.05,0-.07,0-.07,0-.14,0-.21.02-.23.1-.48.17-.71s.11-.46.16-.7c.07-.37.13-.73.16-1.11.03-.49-.01-.98-.06-1.46-.02-.2-.16-.38-.38-.38-.19,0-.39.17-.38.38h0Z"/>
      <path class="st0" d="M30.77,32.87c.17.41.26.88.31,1.32.07.5.12,1,.12,1.5,0,.44-.08.89-.3,1.24-.02.03-.04.07-.07.1-.03.04-.03.04-.02.02-.02.02-.03.04-.05.06-.04.04-.07.07-.11.11-.03.03-.04.03-.01.01-.02.01-.04.03-.06.04-.03.02-.06.04-.09.05-.04.02-.04.02,0,0-.02,0-.04.01-.07.02-.02,0-.04.01-.07.02.04,0,.04,0,0,0-.02,0-.15-.01-.07,0-.12-.02-.28-.01-.36.1s-.12.13-.23.2c0,0-.08.04-.03.02-.02,0-.05.02-.07.03-.03,0-.06.02-.1.03,0,0-.09.02-.04,0-.06,0-.12,0-.18,0-.01,0-.09,0-.04,0-.03,0-.05,0-.08-.01-.14-.03-.24-.09-.38-.15l.17.42.02-.09c.04-.2-.06-.41-.26-.46-.19-.05-.42.06-.46.26l-.02.09c-.04.15.02.35.17.42.34.17.69.31,1.08.26.37-.05.73-.2.97-.49l-.36.1c.87.15,1.51-.61,1.73-1.38.26-.89.12-1.86,0-2.75-.07-.51-.18-1-.39-1.48-.08-.19-.35-.23-.51-.13-.19.11-.21.33-.13.51h0Z"/>
      <path class="st0" d="M22.34,23.91c-1.86,1.65-3.04,3.96-3.79,6.3-.32,1.01-.57,2.05-.71,3.1-.12.87-.22,1.78-.02,2.64.12.52.38,1.01.8,1.35.54.44,1.23.56,1.91.54.48-.01.48-.76,0-.75s-1.03-.04-1.43-.36c-.32-.26-.48-.65-.57-1.05-.15-.72-.06-1.52.04-2.24.29-2.05.93-4.1,1.92-5.93.62-1.15,1.4-2.21,2.38-3.08.36-.32-.17-.85-.53-.53h0Z"/>
      <path class="st0" d="M28.35,24.3c2.09,1.39,3.48,3.67,4.45,5.94.36.83.66,1.68.85,2.57.18.8.29,1.68.12,2.49-.19.92-.75,1.53-1.67,1.74-.47.11-.27.83.2.72.95-.22,1.69-.82,2.04-1.73s.29-1.89.15-2.81-.4-1.77-.73-2.61c-.5-1.28-1.11-2.52-1.87-3.67-.85-1.28-1.88-2.44-3.16-3.29-.4-.27-.78.38-.38.65h0Z"/>
    </g>
  </g>
  <g>
    <path class="st1" d="M17.83,13.16c-.22.1-.46.17-.71.22-.82.15-1.6.56-2.12,1.2-1.03,1.25-.26,2.59-.7,3.97-.19.59-.69,1.02-.97,1.57-.27.51-.33,1.13-.18,1.68.07.25.18.48.21.73.15,1.34-1.54,2.13-1.55,3.38,0,.5.27.99.7,1.25.18.1.37.17.54.29s.31.3.31.5c0,.11-.06.22-.09.33-.37,1.11.31,2.41,1.53,2.35.25-.01.51-.02.76-.03.2,0,.43,0,.54.16.09.14.06.35.18.46.13.12.34.06.49-.03.64-.4,1.2.02,1.89-.02.76-.05,1.45-.51,1.76-1.21.33-.76.1-1.27,1.07-1.37,1.13-.12,2.41.16,3.55.18s2.38-.01,3.56-.08c1.2-.07,2.45-.2,3.5-.79.1.61-.11,1.33.17,1.88.17.34.46.61.78.82.29.19.62.34.96.39.4.06.84-.15,1.21-.06s.53.48.95.48c.67,0,1.1-.84,1.66-1.12.28-.14.61-.17.91-.26.72-.22,1.39-.92,1.55-1.67s-.65-1.45-.38-2.21c.15-.41.62-.68.66-1.12.03-.26-.11-.51-.24-.73-.35-.59-.7-1.19-1.04-1.78-.14-.25-.29-.5-.31-.79-.05-.84.86-1.19.41-2.17-.17-.37-.47-.68-.8-.93-.34-.26-.91-.38-1.16-.7s-.24-.96-.26-1.36c-.05-.9-.01-1.73-.68-2.43-.45-.47-1.08-.8-1.72-.88-.42-.05-1.18.26-1.55.05-.05-.03-.09-.08-.12-.13-.68-1.02-2.15-1.94-3.26-2.42-.3-.13-.63-.19-.95-.26-2.41-.47-5.26-.57-7.6.33-1.37.53-2.2,1.79-3.49,2.35Z"/>
    <g>
      <path class="st0" d="M18.43,11.5l.59.62.17.18s.07.06.12.08c.04.02.09.03.14.03.05,0,.1,0,.14-.03.05-.02.09-.04.12-.08.07-.07.11-.17.11-.27v-.1c-.03-.06-.06-.12-.11-.17l-.59-.62-.17-.18s-.07-.06-.12-.08c-.04-.02-.09-.03-.14-.03-.05,0-.1,0-.14.03-.05.02-.09.04-.12.08-.07.07-.11.17-.11.27v.1c.03.06.06.12.11.17h0Z"/>
      <path class="st0" d="M19.74,10.97l.37.6s.06.08.1.11c.04.03.08.06.13.07.05.02.1.02.15,0,.05,0,.1-.02.14-.04l.08-.06s.08-.1.1-.17v-.1c.01-.07,0-.13-.04-.19l-.37-.6s-.06-.08-.1-.11c-.04-.03-.08-.06-.13-.07-.05-.02-.1-.02-.15,0-.05,0-.1.02-.14.04l-.08.06s-.08.1-.1.17v.1c-.01.07,0,.13.04.19h0Z"/>
      <path class="st0" d="M21.6,11.27c2.61-1.11,5.69-1.05,8.28.07.75.32,1.45.73,2.1,1.22.16.12.42.03.51-.13.11-.19.03-.39-.13-.51-2.45-1.83-5.64-2.53-8.64-2.03-.86.14-1.7.4-2.5.74-.19.08-.23.35-.13.51.11.19.33.21.51.13h0Z"/>
      <path class="st0" d="M17.44,14.06c-.47,1.3-.31,2.67-.13,4.01.09.68.19,1.37.2,2.06s-.12,1.41-.3,2.11c-.35,1.35-.6,2.7-.08,4.05.18.47.43.93.82,1.27s.8.56,1.25.76c1.3.58,2.75.81,4.16.58.48-.08.27-.8-.2-.72-1.15.19-2.35-.01-3.43-.44-.42-.17-.84-.38-1.19-.65s-.57-.66-.72-1.08c-.47-1.28-.14-2.51.17-3.77s.29-2.48.12-3.77c-.18-1.39-.43-2.83.06-4.19.17-.45-.56-.65-.72-.2h0Z"/>
      <path class="st0" d="M32.84,13.58c.7,1.2.81,2.51.68,3.87-.12,1.18-.4,2.36-.27,3.55.15,1.37.79,2.66.62,4.06-.07.58-.26,1.24-.64,1.71-.25.31-.62.52-.96.7-1.19.62-2.64.9-3.97.69-.47-.08-.68.65-.2.72,1.35.22,2.74.02,3.99-.51.49-.2.96-.45,1.37-.79s.67-.81.87-1.31c.26-.66.35-1.4.3-2.11-.05-.78-.28-1.52-.47-2.27-.16-.67-.23-1.32-.19-2,.04-.65.15-1.29.23-1.94.21-1.66.13-3.27-.72-4.75-.24-.42-.89-.04-.65.38h0Z"/>
      <path class="st0" d="M34.38,13.62c.23-.11.52-.01.76.08.27.1.54.22.79.37.48.28.74.68.88,1.18s.14,1.05.14,1.61c0,.62.09,1.23.6,1.65.22.19.47.33.71.49.12.08.17.11.25.19.12.11.14.13.21.27.09.18.35.23.51.13.18-.11.23-.33.13-.51-.25-.5-.77-.73-1.2-1.04-.03-.02-.05-.04-.08-.06.04.03,0,0-.01-.01-.05-.04-.09-.08-.14-.13-.02-.02-.03-.04-.05-.06.04.05-.03-.04-.03-.04-.03-.05-.06-.11-.08-.16-.11-.29-.08-.61-.08-.92,0-.6-.03-1.22-.22-1.79-.21-.63-.61-1.14-1.19-1.48-.33-.19-.7-.35-1.07-.47-.41-.13-.83-.15-1.22.04-.18.09-.23.35-.13.51.11.19.33.22.51.13h0Z"/>
      <path class="st0" d="M38.95,20.38c.22.29-.21.74-.32,1.01-.17.41-.1.83.14,1.19.48.71,1.25,1.31,1.3,2.23.02.43-.19.78-.35,1.16-.17.4-.21.81-.08,1.23.12.38.35.74.36,1.15,0,.28-.08.54-.25.76-.4.51-1.16.69-1.74.43-.26-.11-.68.08-.55.42.21.56.5.95.99,1.3.39.28.77-.37.38-.65-.32-.23-.5-.48-.64-.85l-.55.42c.71.31,1.52.29,2.18-.14s1.02-1.14.93-1.91c-.06-.48-.36-.88-.42-1.35s.28-.87.41-1.28c.32-1-.23-1.99-.85-2.75-.17-.21-.37-.4-.51-.63-.15-.25-.08-.45.06-.69.25-.43.5-.98.15-1.44-.12-.16-.32-.24-.51-.13-.16.09-.26.35-.13.51h0Z"/>
      <path class="st0" d="M31.94,28.36c-.21,1.06.24,2.17,1.16,2.74.46.29,1,.38,1.54.29.12-.02.24-.05.35-.09.01,0,.19-.07.2-.07,0,0-.1,0-.09,0,0,0,.11.06.11.06.25.14.53.27.82.33.59.11,1.31-.08,1.57-.68.08-.19.05-.4-.13-.51-.16-.09-.43-.05-.51.13-.02.04-.04.08-.07.12-.04.06-.02.02,0,0-.02.02-.03.03-.05.05s-.03.03-.05.05c.05-.04,0,0,0,0-.02.01-.04.02-.06.04,0,0-.11.05-.04.02-.04.01-.08.03-.12.04-.02,0-.05.01-.07.02-.06.01.05,0,0,0-.12,0-.2,0-.29-.01-.25-.05-.42-.14-.64-.26-.13-.07-.27-.14-.42-.13-.14,0-.25.06-.37.1-.1.03-.2.06-.31.08-.08.01-.03,0-.02,0-.03,0-.05,0-.08,0-.06,0-.13,0-.19,0-.03,0-.05,0-.08,0-.01,0-.07,0-.01,0-.05,0-.1-.02-.15-.03s-.1-.03-.15-.04c-.02,0-.05-.02-.07-.03.05.02-.02,0-.03-.02-.21-.1-.35-.2-.5-.35-.04-.04-.07-.07-.1-.11-.02-.02-.03-.04-.05-.06.01.01.03.05-.01-.01-.06-.09-.12-.18-.17-.27-.01-.02-.02-.04-.03-.07,0-.02-.04-.08-.02-.03-.02-.06-.05-.12-.06-.18-.03-.11-.06-.22-.08-.33,0-.01,0-.07,0-.01,0-.03,0-.06,0-.09,0-.06,0-.11,0-.17,0-.06,0-.13.01-.19,0-.01.01-.07,0-.01,0-.04.01-.07.02-.11.04-.19-.06-.41-.26-.46-.19-.04-.42.06-.46.26h0Z"/>
      <path class="st0" d="M17.11,13.13c-.73.04-1.45.25-2.03.71s-.85,1.12-.94,1.84,0,1.36-.02,2.04c0,.32-.03.63-.13.94-.1.32-.28.59-.51.83-.3.31-.63.61-.83,1.01-.22.43-.26.88-.07,1.33.08.19.35.23.51.13.19-.11.22-.33.13-.51-.11-.25.04-.56.18-.77.19-.29.46-.51.69-.76.46-.52.68-1.13.74-1.82.06-.62-.01-1.25,0-1.87.01-.55.08-1.15.46-1.58.45-.51,1.14-.73,1.8-.77.48-.03.48-.78,0-.75h0Z"/>
      <path class="st0" d="M13.02,22.83c.16.34-.3.72-.5.92-.33.33-.58.69-.76,1.11-.31.77-.24,1.7.29,2.36.22.27.51.47.81.64.08.04.16.08.24.13.01,0,.08.05.09.05l-.08-.14s-.01.04-.02.06c-.06.07-.09.22-.12.31-.04.14-.07.28-.08.43-.1.84.26,1.67,1,2.1.69.39,1.58.44,2.32.16.19-.07.32-.25.26-.46-.05-.18-.27-.33-.46-.26-.54.2-1.18.21-1.7-.07-.65-.35-.82-1.09-.6-1.77.07-.21.19-.39.14-.62s-.22-.36-.42-.46c-.27-.14-.54-.29-.76-.52-.47-.5-.43-1.31-.12-1.88.22-.41.57-.67.86-1.03.34-.42.49-.94.25-1.44-.09-.18-.35-.23-.51-.13-.19.11-.22.33-.13.51h0Z"/>
      <path class="st0" d="M16.32,32.05c.54-.19,1-.59,1.24-1.11l-.59.08c.55.48,1.29.64,2,.48s1.27-.63,1.61-1.24c.2-.36.31-.74.36-1.15.02-.2-.19-.38-.38-.38-.22,0-.35.17-.38.38,0,.07,0-.04,0,.03,0,.03-.01.06-.02.1-.02.07-.03.15-.06.22-.02.06-.04.12-.06.19-.03.07.02-.03-.01.03-.02.03-.03.07-.05.1-.06.13-.14.24-.22.36-.02.03,0,0,0-.01-.01.01-.02.03-.03.04-.02.02-.04.05-.06.07-.05.06-.1.11-.16.16-.02.02-.05.04-.07.06-.03.03,0,0,.01,0-.01,0-.03.02-.04.03-.06.04-.12.08-.18.11-.03.02-.07.04-.1.05-.01,0-.09.04-.06.03s-.05.02-.06.02c-.04.01-.07.02-.11.04-.06.02-.12.03-.19.05-.02,0-.04,0-.06.01,0,0-.06,0-.01,0s0,0-.01,0c-.02,0-.04,0-.06,0-.06,0-.13,0-.19,0-.03,0-.06,0-.1,0-.02,0-.03,0-.05,0-.06,0,.06.01,0,0-.08-.01-.16-.03-.23-.05-.04-.01-.07-.02-.11-.03-.02,0-.11-.05-.04-.01-.07-.03-.14-.07-.21-.11-.03-.02-.06-.04-.09-.06,0,0-.05-.04-.01,0,.04.03-.04-.03-.04-.03-.16-.14-.48-.16-.59.08-.04.1-.1.19-.16.28,0,0-.07.09-.02.03-.01.02-.03.03-.04.05-.04.04-.08.09-.12.13-.02.02-.04.04-.06.05,0,0-.08.06-.04.03s-.04.03-.04.03c-.02.02-.04.03-.07.04-.05.03-.09.05-.14.08-.02.01-.05.02-.07.03.06-.03,0,0-.03,0-.18.07-.33.26-.26.46.06.18.26.33.46.26h0Z"/>
    </g>
  </g>
</svg>