<?xml version="1.0" encoding="UTF-8"?>
<svg id="_얼굴없는" data-name="얼굴없는" xmlns="http://www.w3.org/2000/svg" version="1.1" viewBox="0 0 50.83 48.47">
  <!-- Generator: Adobe Illustrator 29.8.2, SVG Export Plug-In . SVG Version: 2.1.1 Build 3)  -->
  <defs>
    <style>
      .st0 {
        fill: #231f20;
      }

      .st1 {
        fill: #fff;
      }

      .st2 {
        fill: #f39b4a;
      }
    </style>
  </defs>
  <g>
    <g>
      <path class="st1" d="M34.27,31.05c-.12.02-.24.08-.33.17-.18.18-.24.45-.29.7-.12.6-.24,1.2-.36,1.8-.13.63-.55,1.51-1.32,1.46-.02-1.71-.62-3.34-1.3-4.9-.14-.32-.33-.97-.62-1.18-1.02-1.55-2.74-2.63-4.58-2.85-1.9-.22-3.88.47-5.23,1.83-2.36,2.37-4.2,10.67,1.25,10.39l.39-.41c.18.29.46.5.92.57,1.63.22,2.03-.8,2.12-2.02.09,1.23.48,2.25,2.12,2.02.76-.1,1.53-.17,2.27-.37.48-.13,1.41-.88,1.84-.83.13.02.24.1.36.17,1.13.7,2.28.17,3.31-.41.31-.17.74-.3.98-.57s.18-1.53.2-1.55c.45-.31.78-.84.71-1.39s-.66-1-1.17-.81c0-.5-.02-1.02-.31-1.43-.21-.3-.61-.47-.94-.41Z"/>
      <g>
        <path class="st2" d="M19.61,36.01c.85-.51,1.55-.95,1.53-2.07-.02-1.02-.43-2.05-1.28-2.66-.36-.25-.75-.44-1.16-.6-.81,2.09-1.11,4.7-.22,6.31.27-.4.67-.71,1.12-.98Z"/>
        <path class="st2" d="M31.79,33.92c-.16-1.09-.53-2.18-.93-3.16-.38.39-.75.78-1.1,1.2-.53.63-1.11,1.4-1.17,2.25-.03.38.05.84.36,1.09.35.28.81.39,1.19.63.48.3.83.74,1.09,1.22.09-.11.18-.23.26-.36.03.06.06.12.09.18.24-.78.28-1.65.26-2.42,0-.21-.02-.42-.04-.63Z"/>
      </g>
      <g>
        <path class="st0" d="M21.24,35.23c0,.59-.08,1.19-.04,1.78.02.31.06.63.17.92.13.33.32.6.6.8.31.22.69.28,1.06.31s.74-.02,1.08-.17c.56-.25.89-.8,1.04-1.37.17-.69.16-1.43.16-2.14,0-.2-.17-.38-.38-.38s-.38.16-.38.38c0,.3,0,.6,0,.91,0,.15-.01.3-.03.45,0,.07-.01.14-.02.21-.01.1.01-.09,0,.01,0,.04-.01.08-.02.13-.02.13-.05.25-.09.38-.02.06-.04.12-.06.17,0,.02-.01.03-.02.05.03-.11.03-.06.01-.03s-.03.06-.04.09c-.03.05-.06.1-.09.15-.02.03-.04.05-.05.08.06-.11.02-.03,0,0-.04.04-.08.08-.12.12-.01.01-.02.02-.04.03-.05.04.07-.05.03-.03-.03.02-.06.04-.08.06-.05.03-.1.06-.16.08-.06.03.09-.04.03-.01-.01,0-.02,0-.03.01-.04.01-.08.03-.12.04-.07.02-.13.03-.2.04-.03,0-.06,0,.04,0-.02,0-.04,0-.06,0-.04,0-.09,0-.14,0-.08,0-.16,0-.23,0-.05,0-.1,0-.14-.01-.02,0-.05,0-.07,0-.09-.01.08.01,0,0-.07-.01-.15-.03-.22-.05-.04-.01-.07-.02-.11-.04-.05-.02.04.02.04.02-.02-.01-.04-.02-.06-.03-.06-.03-.11-.06-.16-.1-.06-.04.07.06.02.02-.01,0-.02-.02-.03-.03-.03-.02-.05-.05-.08-.07-.02-.02-.03-.04-.05-.06-.04-.05.06.08.02.03,0-.01-.02-.03-.03-.04-.04-.05-.07-.11-.1-.17,0,0,0-.02-.01-.03-.03-.06.04.09.01.03-.01-.03-.02-.06-.03-.09-.02-.06-.04-.13-.05-.19s-.03-.13-.04-.19c0-.01,0-.03,0-.04-.01-.07.01.1,0,.03,0-.04,0-.07-.01-.11-.06-.64.03-1.28.03-1.91,0-.2-.17-.38-.38-.38s-.37.16-.38.38h0Z"/>
        <path class="st0" d="M30.46,29.06c-1.24-1.97-3.48-3.26-5.82-3.21-2.05.04-4.12,1.04-5.3,2.75-.79,1.15-1.29,2.53-1.57,3.89s-.39,2.86.11,4.17c.26.67.67,1.27,1.28,1.67.68.45,1.51.58,2.31.54.48-.02.48-.77,0-.75-1.18.05-2.23-.35-2.77-1.44s-.48-2.38-.3-3.52c.21-1.28.62-2.54,1.26-3.67.84-1.47,2.29-2.45,3.96-2.78,2.4-.47,4.89.68,6.18,2.73.26.41.91.03.65-.38h0Z"/>
        <path class="st0" d="M27.82,35.23c0,.57.07,1.14.05,1.71,0,.07,0,.14-.01.21,0,.03,0,.06,0,.09,0,.03-.02.1,0-.03,0,.02,0,.04,0,.05-.02.13-.05.26-.09.39-.01.03-.02.06-.03.09-.02.06.04-.08.02-.04,0,.01-.01.02-.02.04-.03.06-.06.12-.1.17,0,.01-.02.03-.03.04-.03.05.05-.07.02-.03-.02.02-.04.05-.06.07s-.04.04-.06.06c0,0-.02.02-.03.03-.07.06.06-.04.01,0s-.1.07-.16.1c-.03.02-.13.05,0,0-.04.01-.08.03-.12.04-.07.02-.14.04-.22.05-.03,0-.04-.01.03,0-.02,0-.05,0-.08,0-.05,0-.1.01-.16.01-.08,0-.16,0-.24,0-.04,0-.08,0-.13,0-.02,0-.04,0-.06,0-.08,0,.1.02.02,0-.07-.01-.13-.02-.2-.04-.03,0-.07-.02-.1-.03-.01,0-.02,0-.03-.01-.09-.03.07.03.01,0s-.11-.05-.16-.08c-.02-.02-.05-.03-.07-.05-.03-.02-.04-.05.03.03-.01-.01-.03-.03-.05-.04-.04-.04-.08-.08-.12-.12-.02-.02-.03-.04-.05-.06.09.1,0,0-.01-.02-.03-.05-.06-.1-.09-.15-.01-.02-.02-.05-.04-.07,0-.01-.01-.03-.02-.04.06.1.02.05,0,.02-.05-.12-.08-.24-.11-.37-.02-.08-.03-.15-.05-.23,0-.04-.01-.08-.02-.12,0-.05.01.11,0,.04,0-.02,0-.05,0-.07-.02-.16-.03-.32-.04-.48-.02-.34-.01-.68-.01-1.02,0-.2-.17-.38-.38-.38s-.37.16-.38.38c0,.64,0,1.29.11,1.93.11.59.38,1.17.91,1.49.3.18.64.25.99.27.39.01.8-.04,1.15-.21.62-.29.86-.96.93-1.6s-.02-1.34-.02-2c0-.2-.17-.38-.38-.38s-.38.16-.38.38h0Z"/>
        <path class="st0" d="M29.81,29.39c.25.15.36.68.47.95.12.29.25.6.37.92.25.68.47,1.38.62,2.09.15.68.23,1.36.19,2.06-.02.31-.06.57-.16.88-.05.16-.08.23-.15.37-.05.1-.16.28-.2.33-.45.59-1.18.84-1.93.91-.48.04-.48.79,0,.75.82-.07,1.64-.3,2.24-.89.51-.49.79-1.16.89-1.85.24-1.57-.19-3.2-.72-4.67-.14-.38-.32-.8-.45-1.15-.19-.47-.33-1.08-.8-1.36-.42-.25-.79.4-.38.65h0Z"/>
        <path class="st0" d="M35.74,35.87c-.07.15-.16.29-.26.43-.04.06,0,0,0,0-.01.02-.03.03-.04.05-.03.03-.05.06-.08.09-.06.06-.11.12-.17.18s-.12.11-.19.16c.06-.05-.03.02-.05.03-.03.02-.07.05-.1.07-.14.1-.3.18-.45.25-.02.01-.11.05-.04.02-.04.02-.08.03-.12.05-.09.03-.17.06-.26.09-.17.05-.34.09-.51.12-.04,0-.08.01-.11.02.08-.01-.04,0-.07,0-.09,0-.19.02-.28.02-.18,0-.36,0-.54-.01-.05,0-.1,0-.15-.01-.02,0-.05,0-.07,0,.06,0,.01,0-.02,0-.1-.02-.2-.03-.3-.06-.21-.05-.41-.11-.61-.18-.18-.07-.42.08-.46.26-.05.21.06.39.26.46,1.48.54,3.28.38,4.5-.67.32-.27.59-.61.77-.99.09-.18.05-.41-.13-.51-.17-.09-.42-.05-.51.13h0Z"/>
        <path class="st0" d="M32.52,35.47c.48-.26.89-.68,1.13-1.18s.33-1.03.26-1.58c-.02-.18-.04-.37-.03-.55,0-.05,0-.09,0-.14,0-.04.03-.08,0,0,0-.02,0-.05.01-.07,0-.04.02-.09.03-.13,0-.02.01-.04.02-.06.02-.06-.04.08,0,0,.02-.03.03-.06.05-.09.04-.07-.01,0,0,.01,0,0,.04-.04.04-.05,0,0,.04-.04.05-.04l-.04.03s.02-.02.04-.02c.02-.01.04-.02.06-.03.05-.03-.08.03.02,0,.03,0,.12-.05.15-.04h-.05s.04,0,.06,0c.03,0,.06,0,.09,0s.06,0,.1,0c-.09-.01,0,0,.02,0,.03,0,.06.02.09.03.04.02.04.01,0,0,.02,0,.04.02.06.03.03.02.06.03.08.05,0,0,.09.07.03.02.06.05.11.1.16.16,0,0,.07.09.02.03.03.03.05.07.07.11.02.03.03.06.05.09.01.02.02.04.03.07-.01-.03-.01-.03,0,.01.06.16.1.33.12.5-.01-.08,0,.04,0,.05,0,.05,0,.1.01.15,0,.09,0,.17,0,.26,0,.34.4.48.64.27-.07.06,0,0,.02,0-.07.05-.01,0,.01,0,.07-.03-.06,0,.01,0,.02,0,.04,0,.06,0h-.04s.06,0,.08.02c.08.02-.06-.04.02,0,.02.01.08.06.02,0,.02.02.04.04.06.06-.05-.05,0,0,.02.03.02.03.03.06.04.08-.04-.07,0,.02,0,.03,0,.03.02.06.02.09.02.1,0-.07,0,.03,0,.03,0,.06,0,.1s0,.06,0,.1c0,.01-.02.12,0,.03-.02.12-.05.24-.1.36.02-.06,0,0-.01.02-.01.03-.03.06-.04.08-.03.05-.07.11-.1.16-.04.06.04-.04-.02.02-.02.02-.04.05-.06.07-.04.04-.08.08-.12.12-.01.01-.02.02-.04.03.03-.02.04-.03.01-.01-.03.02-.05.04-.08.05-.06.04-.12.07-.18.1-.18.08-.24.35-.13.51.12.18.32.23.51.13.66-.31,1.1-1.02,1.12-1.74,0-.41-.14-.82-.48-1.06s-.82-.23-1.14.05l.64.27c0-.67-.13-1.41-.65-1.89-.45-.41-1.17-.57-1.7-.21-.42.29-.54.79-.54,1.27,0,.21.03.41.05.61.01.13.01.27,0,.4,0,.03,0,.06,0,.09,0-.07,0-.01,0,.02-.01.07-.03.14-.05.21-.02.07-.04.15-.07.22,0,.01-.01.03-.02.04.01-.03.02-.04,0,0-.02.03-.03.07-.05.1-.07.13-.15.26-.24.38.05-.06-.02.03-.04.04-.02.03-.05.05-.07.08-.05.06-.11.11-.17.16-.01.01-.02.02-.04.03,0,0-.06.05-.02.02s0,0-.01,0c-.02.01-.03.02-.05.04-.07.05-.14.09-.21.13-.17.09-.24.35-.13.51.11.18.33.23.51.13h0Z"/>
      </g>
    </g>
    <g>
      <path class="st1" d="M17.71,32.2c.03.14.08.3.22.33.09.02.18-.03.26-.08.24-.16.46-.36.63-.58.2.54.46,1.05.79,1.52.17.24.38.49.67.53s.61-.27.48-.53c1.24,1.24,3.43.92,4.79,2.04.3-.77,1.2-1.09,1.99-1.33.51-.15,1.02-.34,1.44-.67.08-.06.75-.82.69-.85.58.21,1.26-.03,1.66-.5s.56-1.11.51-1.73c-.11-1.5-1.86-2.62-3.05-3.32-1.41-.82-3.03-1.24-4.64-1.37-1.53-.13-3.34-.13-4.19,1.42-.33.59-.81.87-1.25,1.4-.84,1.02-1.24,2.41-1,3.71Z"/>
      <g>
        <path class="st0" d="M19.59,27.14c-1,.47-1.67,1.35-2,2.38s-.59,2.22-.07,3.21c.08.15.18.29.35.33.19.05.37-.05.52-.14.14-.09.28-.2.41-.31.08-.08.2-.25.27-.29l-.19.05h-.03c-.06-.04-.11-.07-.17-.1-.03-.03-.02-.09-.03-.05s.02.14.03.19c.02.09.06.18.09.26.1.23.21.45.35.66.23.35.53.79.92.96.19.08.4.06.51-.13.09-.16.05-.43-.13-.51-.05-.02-.09-.05-.14-.08-.08-.05.05.05-.02-.02-.02-.02-.05-.05-.08-.07-.05-.05-.1-.11-.15-.16-.04-.05-.09-.11-.11-.13-.1-.13-.19-.27-.27-.41-.04-.07-.08-.14-.12-.21-.02-.03-.03-.07-.05-.1-.05-.11.02.06-.02-.04-.02-.06-.04-.12-.06-.18,0-.02-.01-.05-.02-.07,0-.03,0-.02,0,.04,0-.03,0-.06-.01-.09-.04-.25-.2-.48-.47-.49s-.42.23-.6.41c-.15.14-.32.27-.5.35l.19-.05h-.05c.06.02.13.04.19.05.07.08.08.09.03.02-.02-.03-.03-.06-.05-.09-.02-.03-.03-.07-.04-.1-.04-.11-.07-.23-.09-.35-.04-.21-.03-.43-.02-.64.03-.48.16-.96.3-1.41s.33-.87.64-1.22.64-.6,1.05-.79c.18-.09.23-.35.13-.51-.11-.19-.33-.22-.51-.13h0Z"/>
        <path class="st0" d="M20.46,33.6c.23.32.54.49.89.64s.68.27,1.04.38c.59.18,1.21.23,1.78.44.04.01.08.03.11.04-.07-.03.02.01.05.02.07.03.14.07.21.12.02.01.11.08.04.03.03.02.05.04.08.07.06.06.12.12.17.19.12.15.4.14.53,0,.15-.16.13-.37,0-.53-.38-.48-1-.69-1.58-.82-.28-.06-.57-.11-.85-.18-.36-.09-.71-.22-1.06-.35-.09-.04-.19-.07-.28-.11-.02,0-.03-.01-.05-.02.03.01.03.01,0,0-.04-.02-.08-.04-.12-.06-.08-.04-.15-.08-.22-.14.05.04-.02-.02-.04-.04-.02-.02-.03-.03-.04-.05-.01-.01-.05-.07-.01-.01-.11-.16-.33-.25-.51-.13-.16.1-.26.34-.13.51h0Z"/>
        <path class="st0" d="M25.66,35.81c.05-.09.1-.17.16-.25.03-.05-.03.04,0,0,.02-.02.03-.04.04-.05.04-.04.08-.08.12-.12.07-.07.14-.13.21-.19-.06.05.05-.03.06-.04.04-.03.08-.06.13-.08.08-.05.16-.1.25-.14.04-.02.08-.04.12-.06.02,0,.04-.02.06-.03,0,0,.11-.04.03-.01.18-.07.36-.13.55-.19.39-.11.78-.21,1.15-.38s.74-.46,1-.79c.33-.42.54-.9.6-1.43.02-.2-.19-.38-.38-.38-.22,0-.35.17-.38.38,0,.08,0,.02,0,0,0,.02,0,.05-.01.07,0,.05-.02.09-.03.14s-.03.09-.04.14c0,.02-.02.04-.02.07,0,0-.05.11-.02.04-.04.09-.08.17-.13.25-.02.04-.05.08-.08.12-.01.02-.03.04-.04.06-.06.09.05-.05-.03.03-.06.07-.12.14-.19.2-.03.03-.07.07-.1.1-.02.02-.04.03-.06.05,0,0-.08.06-.05.04.04-.03-.06.04-.05.04-.02.01-.04.03-.06.04-.04.03-.08.05-.12.07s-.08.04-.12.06c-.02.01-.04.02-.06.03,0,0-.09.04-.05.02s-.02,0-.03.01c-.02,0-.04.02-.06.02-.04.02-.08.03-.12.04-.09.03-.18.06-.27.08-.18.05-.37.1-.56.16-.38.12-.76.27-1.1.48-.4.25-.74.59-.98,1.01-.1.17-.05.42.13.51s.41.05.51-.13h0Z"/>
        <path class="st0" d="M30.65,32.94c1.07-.63,1.63-1.92,1.39-3.13-.22-1.11-1.25-1.84-2.13-2.43-2.21-1.48-4.96-2.21-7.62-1.96-1.17.11-2.55.54-2.87,1.82-.11.47.61.67.72.2.22-.89,1.24-1.18,2.05-1.26,1.14-.12,2.3-.06,3.42.18s2.22.66,3.23,1.24c.47.27.92.57,1.35.91.34.26.68.55.9.92.57.97.1,2.31-.84,2.86-.42.24-.04.89.38.65h0Z"/>
      </g>
    </g>
  </g>
  <g>
    <g>
      <path class="st2" d="M12.65,12.54c-.29.31-.53.66-.73,1.02-.23.43-.42.89-.48,1.37-.08.65.05,1.3.1,1.95.09,1.25-.57,2.03-1.08,3.1-.57,1.21-.73,2.73.04,3.82.18.26.42.49.59.76.49.78.41,1.78.38,2.71s.04,1.97.73,2.59c.5.45,1.22.57,1.77.96.43.31.68.86.44,1.36-.06.12-.13.25-.07.36.08.14.31.08.44-.02.35-.25.59-.65.65-1.08-.04.24,1.39-.49,1.52-.71.36-.59.44-1.43.63-2.09.18-.63.04-.62.77-.45,4.56,1.04,9.01,1.25,13.49-.43-.08.76.16,1.55.65,2.14.46.55,1.21.93,1.9.74.11-.03.21-.07.32-.08.74-.05,1.11.65,1.93.24-.34-.52-.21-1.22.09-1.76s.76-.97,1.12-1.47c1.04-1.47,1.09-3.4.31-4.99.62.13,1.4-.28,1.38-.97-.02-.73-.6-.57-1.12-.84s-.85-.86-1.03-1.38c-.35-1.03-.12-2.15.04-3.22s.2-2.27-.45-3.14c-.47-.64-1.24-1-1.98-1.28-.84-.32-1.77-.58-2.62-.28-.17.06-.33.14-.5.15-.24.02-.48-.1-.69-.21-1.47-.77-2.98-1.53-4.61-1.79-1.26-.2-2.56-.09-3.83.01-1.11.09-2.23.19-3.29.52-.48.15-.91.38-1.33.65-.32.2-.67.69-.97.82-.63.28-1.34-.17-1.97-.23-.97-.09-1.87.41-2.54,1.14Z"/>
      <path class="st1" d="M30.46,23.55c-.34-.26-.74-.44-1.14-.59-1.25-.48-1.93-1.04-2.56-2.26-1.2-2.35-.27-4.35,1.28-6.21.85-1.02,1.17-2.45.78-3.72-.06-.21-.15-.43-.31-.58-.36-.35-1.43-.5-1.92-.57-.65-.1-1.31-.11-1.97-.1-.66-.02-1.32,0-1.97.1-.49.08-1.56.22-1.92.57-.16.15-.25.37-.31.58-.39,1.27-.07,2.7.78,3.72,1.55,1.86,2.48,3.86,1.28,6.21-.63,1.22-1.31,1.78-2.56,2.26-.4.15-.8.33-1.14.59-.75.56-1.2,1.5-1.17,2.44,0,.23.04.44.09.63.51,2.01,3.14,2.16,4.97,2.31.57.05,1.15.06,1.72.06h0c.08,0,.16,0,.24,0,.08,0,.16,0,.24,0h0c.57,0,1.15-.01,1.72-.06,1.83-.15,4.46-.3,4.97-2.31.05-.19.08-.4.09-.63.03-.94-.42-1.88-1.17-2.44Z"/>
    </g>
    <g>
      <path class="st0" d="M16.81,12.57c.83-1.02,1.96-1.72,3.21-2.11,1.47-.46,3.02-.51,4.54-.51.48,0,.48-.75,0-.75-2.38,0-4.89.18-6.9,1.57-.52.36-.99.78-1.38,1.27-.13.16-.15.38,0,.53.13.13.4.16.53,0h0Z"/>
      <path class="st0" d="M25.25,8.9c.03.1.05.2.06.3v-.1c.02.22.02.45-.01.67,0,.05,0,.1.03.14.02.05.04.09.08.12.03.04.07.06.12.08.04.02.09.03.14.03.1,0,.2-.04.27-.11l.06-.08c.03-.06.05-.12.05-.19.02-.16.03-.33.02-.49-.01-.19-.04-.39-.09-.58-.02-.09-.09-.18-.17-.22-.04-.03-.09-.04-.14-.04-.05-.01-.1,0-.15,0-.09.03-.18.09-.22.17s-.06.19-.04.29h0Z"/>
      <path class="st0" d="M26.94,9.06l-.24.88s-.02.1,0,.15c0,.05.02.1.04.14.02.04.06.08.1.11.04.03.08.06.13.07.1.02.2.02.29-.04s.15-.13.17-.22l.24-.88s.02-.1,0-.15c0-.05-.02-.1-.04-.14-.02-.04-.06-.08-.1-.11-.04-.03-.08-.06-.13-.07-.1-.02-.2-.02-.29.04s-.15.13-.17.22h0Z"/>
      <path class="st0" d="M27.86,10.54c.38.07.77.16,1.14.27.19.06.37.12.56.19.09.03.18.07.27.11.01,0,.14.06.08.03.04.02.08.03.12.05.72.32,1.4.73,2.03,1.21.16.12.43.03.51-.13.1-.2.03-.39-.13-.51-1-.77-2.15-1.35-3.36-1.7-.33-.1-.67-.17-1.02-.23-.19-.03-.41.05-.46.26-.04.18.06.43.26.46h0Z"/>
      <path class="st0" d="M15.28,15.01c-.71,1.08-.79,2.42-.69,3.67.06.73.17,1.46.21,2.19s-.02,1.49-.18,2.24c-.15.69-.29,1.39-.17,2.1.09.55.33,1.08.66,1.54.64.87,1.51,1.38,2.52,1.7,1.41.45,2.92.65,4.39.73.48.03.48-.72,0-.75-1.26-.07-2.51-.24-3.73-.57-.9-.24-1.72-.57-2.36-1.28-.35-.39-.61-.87-.73-1.39-.14-.63,0-1.27.14-1.88.14-.65.24-1.3.22-1.97s-.1-1.35-.17-2.02c-.14-1.32-.24-2.78.53-3.94.27-.4-.38-.78-.65-.38h0Z"/>
      <path class="st0" d="M32.63,15.39c.64.97.68,2.17.59,3.3-.1,1.32-.35,2.62-.14,3.94.1.64.31,1.26.33,1.91.01.49-.09.98-.3,1.42-.4.82-1.14,1.48-2,1.77-1.17.4-2.44.54-3.67.64-.48.04-.48.79,0,.75,1.21-.1,2.46-.24,3.63-.59.98-.29,1.83-.89,2.42-1.74.71-1.03.77-2.2.52-3.39-.15-.71-.28-1.39-.26-2.11s.12-1.46.19-2.19c.14-1.38.14-2.88-.66-4.08-.26-.4-.91-.03-.65.38h0Z"/>
      <path class="st0" d="M16.89,11.26c-1.15-.44-2.46-.33-3.54.26s-1.83,1.64-2.18,2.8c-.18.59-.25,1.22-.21,1.84.05.7.32,1.44.04,2.12-.23.56-.69,1-1,1.51-.28.47-.44,1-.48,1.55-.11,1.19.35,2.49,1.3,3.23.38.29.91-.23.53-.53-.76-.59-1.12-1.54-1.1-2.49.01-.47.13-.93.37-1.34.28-.48.68-.89.94-1.38.29-.55.35-1.11.28-1.72s-.18-1.17-.12-1.78c.11-1.07.64-2.14,1.48-2.82.98-.79,2.31-.98,3.48-.53.45.17.65-.55.2-.72h0Z"/>
      <path class="st0" d="M11.24,25.2s-.02.05-.03.07l.04-.09c-.03.07-.07.14-.12.2l.06-.08c-.05.06-.1.12-.17.17l.08-.06c-.06.05-.13.09-.2.12l.09-.04c-.06.03-.13.05-.2.06h.1c-.06,0-.13,0-.19-.01-.05,0-.1,0-.14.03-.05.02-.09.04-.12.08-.04.03-.06.07-.08.12-.02.04-.03.09-.03.14,0,.1.04.2.11.27l.08.06c.06.03.12.05.19.05.11.01.21,0,.32-.02s.21-.06.3-.11.18-.11.27-.18.15-.16.22-.25c.03-.04.05-.08.07-.12.03-.07.06-.14.09-.21.02-.05.02-.1,0-.15,0-.05-.02-.1-.04-.14-.02-.04-.06-.08-.1-.11-.04-.03-.08-.06-.13-.07-.1-.02-.2-.02-.29.04l-.08.06s-.08.1-.1.17h0Z"/>
      <path class="st0" d="M11.55,26.46c-.48.82-.52,1.89-.17,2.77.18.44.43.85.8,1.15.22.19.47.33.73.45s.54.23.77.41c.19.14.33.32.38.55.04.18-.01.36-.16.48-.16.13-.13.4,0,.53.16.16.37.13.53,0,.45-.35.47-1.05.24-1.53-.27-.55-.83-.83-1.36-1.07-.14-.06-.27-.13-.4-.21-.05-.03-.11-.07-.16-.1,0,0-.06-.04-.01,0-.03-.02-.06-.05-.08-.07-.07-.07-.14-.14-.21-.21-.02-.02-.03-.04-.05-.06.04.05-.01-.02-.02-.03-.03-.05-.06-.09-.09-.14-.13-.21-.19-.34-.26-.57-.03-.1-.06-.2-.08-.3,0-.04-.03-.14-.03-.14,0,.04,0-.04,0-.05,0-.03,0-.06,0-.1,0-.13-.01-.26,0-.39,0-.06,0-.13.02-.19,0,.06,0,0,0-.01,0-.04.01-.08.02-.11.06-.27.12-.44.25-.66.25-.42-.4-.79-.65-.38h0Z"/>
      <path class="st0" d="M15.04,30.78c.02.1.04.2.05.29v-.1c.03.31.03.63,0,.94,0,.09.05.2.11.27s.17.11.27.11.2-.04.27-.11l.06-.08c.03-.06.05-.12.05-.19.04-.45,0-.9-.08-1.34-.02-.09-.1-.18-.17-.22-.08-.05-.2-.07-.29-.04s-.18.09-.22.17l-.04.09c-.02.07-.02.13,0,.2h0Z"/>
      <path class="st0" d="M17.05,31.04c.58-.46.89-1.21.93-1.93.01-.22-.01-.43-.05-.65-.02-.09-.1-.18-.17-.22-.08-.05-.2-.07-.29-.04-.21.07-.3.25-.26.46,0,.04.02.09.02.13v-.1c.01.2.01.41-.01.61v-.1c-.02.21-.07.42-.16.62l.04-.09c-.08.18-.18.35-.29.5l.06-.08c-.1.13-.21.24-.34.34-.07.06-.11.18-.11.27,0,.09.04.2.11.27s.17.11.27.11c.11,0,.18-.04.27-.11h0Z"/>
      <path class="st0" d="M32.26,11.98c1.72-.66,3.73.13,4.47,1.84.35.82.4,1.74.32,2.62-.05.53-.18,1.05-.22,1.59s.03,1.08.24,1.59c.4.98,1.27,2.21,2.49,1.65.18-.09.23-.35.13-.51-.11-.19-.33-.22-.51-.13-.39.18-.79-.19-.99-.48-.28-.4-.51-.89-.59-1.37-.09-.55.02-1.12.11-1.67.08-.46.13-.93.12-1.4,0-.9-.19-1.83-.64-2.62s-1.2-1.42-2.06-1.78c-.97-.4-2.09-.42-3.07-.04-.19.07-.32.25-.26.46.05.18.27.34.46.26h0Z"/>
      <path class="st0" d="M37.32,22.67c.09.14.21.27.36.35.16.09.32.13.5.15.31.04.61-.04.89-.16.15-.06.29-.16.4-.27.07-.06.11-.17.11-.27s-.04-.2-.11-.27c-.15-.14-.38-.14-.53,0-.02.02-.05.04-.07.06l.08-.06c-.08.06-.18.12-.27.16l.09-.04c-.12.05-.24.08-.36.1h.1c-.11,0-.22,0-.33-.01h.1c-.08,0-.16-.02-.23-.05l.09.04c-.05-.02-.1-.05-.15-.09l.08.06s-.08-.07-.11-.11l.06.08s-.03-.04-.04-.06c-.05-.08-.13-.15-.22-.17s-.21-.01-.29.04-.15.13-.17.22-.02.2.04.29h0Z"/>
      <path class="st0" d="M37.41,22.74c.1.08.2.17.28.26.04.05.08.09.12.14s-.04-.06.01.01c.02.03.04.06.07.09.07.11.13.22.19.33.02.03.03.06.04.09,0,.02.01.03.02.05,0,0-.03-.07-.01-.03.02.06.05.13.07.2.04.13.08.26.1.39.01.06.02.13.03.19,0,.04,0-.03,0-.03,0,.02,0,.04,0,.05,0,.04,0,.08.01.12,0,.14.01.27,0,.41,0,.06,0,.12-.01.18,0,0,0,.04,0,.05,0,0,.01-.09,0-.02,0,.03-.01.07-.02.1-.03.14-.06.29-.11.43-.01.04-.03.07-.04.11,0,.01-.03.07,0,.01.02-.06-.01.02-.01.03-.03.07-.07.14-.11.21-.1.17-.05.42.13.51s.41.05.51-.13c.61-1.07.54-2.49-.1-3.54-.17-.28-.39-.55-.66-.75-.15-.12-.38-.16-.53,0-.12.14-.16.4,0,.53h0Z"/>
      <path class="st0" d="M31.71,27.58c-.34,1.27.2,2.75,1.43,3.33.33.16.69.25,1.05.25.2,0,.38-.17.38-.38s-.16-.37-.38-.38c-.06,0-.12,0-.18,0-.01,0-.03,0-.05,0,.08,0,.06,0,.03,0-.04,0-.08-.01-.11-.02-.06-.01-.11-.03-.17-.04s-.13-.06-.19-.07c.06,0,.06.03.03,0-.01,0-.03-.01-.04-.02-.03-.01-.06-.03-.08-.04-.06-.03-.12-.07-.18-.11-.03-.02-.05-.04-.08-.05-.01,0-.03-.02-.04-.03,0,0,.07.06.02.01s-.1-.08-.14-.13-.09-.09-.13-.14c-.02-.02-.04-.05-.06-.07-.04-.05,0,.01.01.02-.01-.02-.03-.04-.04-.06-.08-.11-.15-.23-.21-.35,0-.02-.01-.03-.02-.05,0-.01-.03-.06,0-.01.03.05-.01-.03-.02-.05-.03-.07-.05-.14-.07-.22-.02-.07-.03-.13-.05-.2,0-.03-.01-.07-.02-.1,0-.02,0-.03,0-.05,0,.04,0,.07,0,.01-.02-.16-.02-.31-.01-.47,0-.04,0-.08,0-.11,0-.01,0-.07,0-.01,0,.06,0-.01,0-.03.01-.08.03-.17.05-.25.05-.19-.06-.42-.26-.46s-.41.06-.46.26h0Z"/>
      <path class="st0" d="M34.22,29.46c.05.38.22.75.45,1.06s.54.6.91.76c.11.05.23.1.34.13s.25.05.37.06c.09,0,.2-.05.27-.11s.11-.17.11-.27-.04-.2-.11-.27-.16-.1-.27-.11c-.03,0-.05,0-.08,0h.1c-.15,0-.29-.05-.43-.1l.09.04c-.15-.06-.28-.14-.41-.24l.08.06c-.14-.11-.27-.24-.38-.38l.06.08c-.11-.14-.2-.3-.28-.47l.04.09c-.07-.16-.12-.33-.14-.51-.01-.09-.1-.18-.17-.22-.08-.05-.2-.07-.29-.04s-.18.09-.22.17l-.04.09c-.02.07-.02.13,0,.2h0Z"/>
      <path class="st0" d="M37.37,27.04c-.01.08-.03.15-.06.23,0,.02-.01.04-.02.05-.02.07,0,0,0,0,0,.04-.04.09-.06.13-.07.14-.16.27-.25.39-.04.06,0,0,0,0,0,.02-.03.03-.04.05-.02.03-.05.06-.07.09-.06.07-.11.13-.17.2-.11.14-.23.27-.33.42-.2.28-.37.6-.42.95s0,.68.18.98c.18.32.52.57.9.55.2,0,.38-.17.38-.38,0-.2-.17-.38-.38-.38-.02,0-.06,0-.09,0,0,0,.08.02.05,0-.01,0-.03,0-.04-.01-.08-.02.06.03,0,0-.02-.01-.05-.03-.07-.04-.05-.03.02.01.02.02,0,0-.03-.02-.03-.03-.02-.02-.04-.04-.05-.06-.06-.06.03.05,0,0-.02-.03-.04-.06-.05-.09,0-.01-.03-.07-.04-.07.02,0,.03.07.01.02,0-.02-.01-.03-.02-.05-.02-.06-.03-.12-.04-.18,0-.05,0,.08,0,.03,0-.01,0-.02,0-.04,0-.03,0-.06,0-.1,0-.02.01-.1,0-.05,0,.06,0,0,0-.02,0-.02,0-.05.02-.07.02-.07.04-.13.06-.19s0,0,0,0c0-.02.02-.04.02-.05.02-.03.03-.07.05-.1.07-.13.15-.25.24-.37.04-.06,0,0,0,0,.01-.02.02-.03.04-.05.02-.03.04-.05.06-.08.05-.06.1-.12.15-.18.11-.13.21-.26.31-.39.21-.28.39-.61.46-.96.04-.19-.05-.41-.26-.46-.18-.04-.42.06-.46.26h0Z"/>
    </g>
  </g>
</svg>