<?xml version="1.0" encoding="UTF-8"?>
<svg id="_얼굴없는" data-name="얼굴없는" xmlns="http://www.w3.org/2000/svg" version="1.1" viewBox="0 0 50.83 48.47">
  <!-- Generator: Adobe Illustrator 29.8.2, SVG Export Plug-In . SVG Version: 2.1.1 Build 3)  -->
  <defs>
    <style>
      .st0 {
        fill: #231f20;
      }

      .st1 {
        fill: #5c564d;
      }

      .st2 {
        fill: #eec688;
      }
    </style>
  </defs>
  <g>
    <g>
      <path class="st2" d="M32.56,31.89c-.24-.76-.55-1.5-.83-2.15-.15-.34-.35-1.03-.66-1.25-1.08-1.64-2.91-2.78-4.86-3-2.02-.23-4.12.5-5.56,1.93-1.7,1.7-2.51,4.65-2.45,6.99.03,1.11.28,2.33,1.12,3.13.41.39.92.64,1.47.76.34.07.65.05.99.06.78.02,1.55.31,2.33.21.39-.05.71-.23,1.1-.27.45-.05.91-.13,1.33.05.26.11.41.29.72.37.32.09.65.12.98.09.45-.03.9-.16,1.29-.38.42-.23.78-.31,1.24-.47,2.78-.98,2.57-3.64,1.79-6.07Z"/>
      <g>
        <path class="st0" d="M31.5,28.45c-1.32-2.09-3.69-3.43-6.17-3.38-2.15.04-4.33,1.08-5.58,2.86-.84,1.21-1.38,2.67-1.68,4.1s-.42,3.02.11,4.41c.27.7.7,1.32,1.33,1.74.72.48,1.61.62,2.47.59.48-.02.48-.77,0-.75-1.26.06-2.4-.37-2.97-1.54s-.51-2.55-.31-3.76c.22-1.35.66-2.68,1.35-3.86.9-1.55,2.45-2.57,4.21-2.91,2.55-.5,5.21.71,6.59,2.9.26.41.91.03.65-.38h0Z"/>
        <path class="st0" d="M30.84,28.77c.14.08.22.3.29.44.09.2.15.4.23.6.13.32.27.64.39.97.27.73.5,1.47.66,2.23.26,1.24.42,2.82-.36,3.83-.49.63-1.28.89-2.06.95-.48.04-.48.79,0,.75.87-.07,1.73-.32,2.38-.94.54-.52.83-1.23.94-1.96.24-1.64-.21-3.36-.77-4.89-.15-.4-.33-.82-.48-1.21-.2-.49-.35-1.13-.84-1.42-.42-.25-.79.4-.38.65h0Z"/>
      </g>
    </g>
    <g>
      <path class="st0" d="M20.06,33.47c-.02.94.08,1.88.3,2.79.1.44.23.87.4,1.29s.38.81.77,1.07.83.29,1.26.35.91.1,1.33-.05.75-.44.91-.85c.08-.19.09-.42.04-.62-.05-.22-.18-.38-.3-.56-.06-.09-.11-.18-.16-.27,0-.02-.02-.04-.03-.05-.03-.05,0,0-.02-.04-.02-.05-.04-.1-.05-.15-.03-.1-.06-.2-.08-.3s-.02-.12-.03-.25c-.02-.41.07-.76.26-1.1.1-.18.04-.41-.13-.51s-.41-.04-.51.13c-.38.66-.47,1.47-.25,2.2.06.19.13.37.23.54.09.16.2.29.29.44.01.02.03.05.04.07,0,0-.01-.04,0,0,0,.02,0,.03.01.05,0,0,0-.06,0-.01,0,.04,0,.08,0,.12,0-.07-.01.03-.02.05,0,.02-.01.03-.02.05,0,0,.02-.05,0,0s-.04.07-.06.11c-.03.05.01,0-.03.04-.03.04-.07.07-.1.1-.05.04.01,0-.04.03-.03.02-.06.04-.09.05-.04.02-.02.01-.08.03-.05.02-.1.03-.15.04-.16.03-.36.03-.55.02-.1,0-.2-.02-.3-.03-.05,0-.09-.01-.14-.02-.03,0-.05,0-.08-.01.04,0-.01,0-.02,0-.18-.03-.37-.06-.55-.12-.02,0-.04-.01-.06-.02,0,0,.03.02,0,0s-.07-.04-.11-.06c-.08-.05-.1-.07-.18-.15-.1-.1-.19-.27-.26-.43.01.03-.02-.05-.03-.06-.02-.05-.04-.09-.05-.14-.04-.11-.08-.21-.11-.32-.06-.2-.12-.4-.18-.6-.25-.93-.35-1.86-.33-2.83,0-.2-.18-.38-.38-.38s-.37.17-.38.38h0Z"/>
      <path class="st0" d="M30.46,33.64c.02.85-.06,1.68-.25,2.5-.1.41-.22.82-.36,1.22-.03.07-.07.18-.09.23-.02.05-.08.16-.12.23-.05.09-.07.11-.12.17-.07.08-.11.11-.17.15-.03.02-.07.04-.11.06-.05.03,0,0-.06.03-.09.03-.18.06-.28.08-.09.02-.18.03-.27.05-.02,0-.04,0-.06,0,.05,0-.02,0-.02,0-.05,0-.1.01-.15.02-.2.02-.41.04-.61.04-.09,0-.17,0-.24-.02-.04,0-.09-.02-.13-.03-.02,0-.04-.01-.06-.02l-.04-.02s.02,0,0,0c-.03-.02-.06-.03-.09-.05-.02,0-.03-.02-.05-.03,0,0,.04.03,0,0s-.06-.06-.09-.09c-.01-.01-.02-.03-.04-.04-.04-.04.03.04,0,0-.02-.03-.04-.07-.07-.11-.03-.05,0,.02-.02-.04,0-.03-.02-.07-.03-.1.02.07,0-.04,0-.07,0-.07,0,.03,0-.04,0,0,.02-.06,0-.02,0-.02.02-.04.03-.06.05-.09.11-.16.17-.24.1-.15.19-.31.26-.47.34-.8.29-1.73-.14-2.48-.1-.18-.34-.24-.51-.13s-.24.34-.13.51c.02.04.04.08.07.12,0,.01.06.12.04.07.04.09.07.18.09.28.02.08.04.16.05.25,0-.06,0,0,0,.02,0,.03,0,.05,0,.08,0,.05,0,.1,0,.16,0,.21,0,.3-.05.48-.02.09-.05.18-.08.26-.04.1-.04.11-.09.21-.09.17-.21.31-.31.48-.11.19-.18.41-.16.63.04.43.3.8.66,1.03.39.24.89.27,1.33.23.41-.04.86-.07,1.25-.22.43-.17.75-.47.95-.88s.34-.86.46-1.3c.28-1.01.41-2.07.39-3.12,0-.2-.17-.38-.38-.38s-.38.17-.38.38h0Z"/>
    </g>
    <path class="st0" d="M24.55,38.71c.09-.01.17-.03.26-.04h-.1c.65-.07,1.31-.1,1.96-.07.2,0,.38-.18.38-.38,0-.21-.16-.36-.38-.38-.78-.04-1.55.01-2.32.13-.09.01-.18.1-.22.17-.05.08-.07.2-.04.29s.09.18.17.22c.09.05.18.05.29.04h0Z"/>
  </g>
  <g>
    <path class="st2" d="M15.05,19.6c-.56,2.1-.68,4.32-.38,6.07.41,2.41,1.65,4.26,4.14,4.8,2.83.61,5.75.83,8.64.64,2.48-.16,5.07-.32,7.27-1.6.8-.46,1.53-1.06,2.02-1.84.61-.97.79-2.16.79-3.3,0-2.34-.72-4.63-1.64-6.79-.57-1.35-1.28-2.72-2.5-3.53-.78-.52-1.7-.76-2.62-.94-2.61-.53-5.29-.69-7.94-.46-1.19.1-2.39.29-3.45.81-2.2,1.09-3.61,3.53-4.32,6.15Z"/>
    <path class="st1" d="M13.51,15.04c-.44.42-.78,1-.77,1.61,0,.48.21.94.42,1.37.26.53.53,1.07.93,1.5s.95.77,1.54.79c.8.03,1.54-.53,1.95-1.22s.55-1.51.67-2.3c.15-.98.59-4.04-1.09-4-.55.01-1.18.71-1.63.98-.68.41-1.43.71-2.02,1.27Z"/>
    <path class="st1" d="M37.81,15.22c.44.42.78,1,.77,1.61,0,.48-.21.94-.42,1.37-.26.53-.53,1.07-.93,1.5s-.95.77-1.54.79c-.8.03-1.54-.53-1.95-1.22s-.55-1.51-.67-2.3c-.15-.98-.59-4.04,1.09-4,.55.01,1.18.71,1.63.98.68.41,1.43.71,2.02,1.27Z"/>
    <path class="st1" d="M19.23,25.99c-.18.87.18,1.82.87,2.39s1.65.76,2.52.55c.36-.09.72-.25,1.08-.19.26.04.49.18.73.29.92.42,2.04.36,2.9-.17.27-.16.52-.37.81-.46.66-.21,1.34.18,2.03.28.74.11,1.53-.16,2.06-.69,2.32-2.34-.66-4.58-2.68-5.36-1.18-.46-2.42-.81-3.68-.89-2.59-.15-6.06,1.42-6.64,4.24Z"/>
    <g>
      <path class="st0" d="M18.78,14.52c1.16-1.08,2.85-1.4,4.37-1.57,1.86-.2,3.75-.24,5.61.02,1.14.16,2.27.42,3.36.77.46.15.66-.58.2-.72-2.05-.66-4.21-.99-6.37-.98-1.74,0-3.58.12-5.25.62-.9.27-1.76.69-2.45,1.33-.35.33.18.86.53.53h0Z"/>
      <path class="st0" d="M16.79,19.64c-.22.22-.48.39-.79.46-.24.05-.51.02-.74-.08-.3-.13-.52-.35-.72-.59s-.4-.46-.6-.7c-.38-.45-.8-.97-.92-1.55-.02-.08,0-.03,0-.01,0-.04,0-.07,0-.11,0-.05,0-.11,0-.16,0-.02.02-.17,0-.1.01-.07.03-.14.04-.21.02-.06.03-.11.05-.17,0-.01.03-.07,0,0,0-.02.02-.04.03-.07.06-.12.13-.24.2-.35.25-.36.7-.74,1.08-1,.44-.31.91-.58,1.38-.83.21-.11.42-.23.63-.34.25-.13.48-.29.75-.37s.51-.03.64.21.13.59.14.89c.03.97-.05,1.94-.24,2.89-.16.78-.37,1.6-.94,2.19-.34.35.19.88.53.53.6-.62.89-1.44,1.08-2.26.22-.96.33-1.94.33-2.92,0-.74.03-1.83-.77-2.2-.74-.35-1.48.18-2.12.52-1.04.56-2.19,1.13-2.95,2.07-.37.46-.64,1.01-.64,1.62,0,.75.45,1.39.9,1.96.25.32.51.62.77.92.28.32.57.62.95.8.86.4,1.78.16,2.44-.49.34-.34-.19-.87-.53-.53Z"/>
      <path class="st0" d="M14.36,21.3c-.21,1.66-.4,3.36-.06,5.02.38,1.84,1.56,3.32,3.28,4.08,1.43.64,3.01.85,4.56.9.48.02.48-.73,0-.75-2.15-.07-4.65-.46-6.1-2.2-.48-.58-.8-1.29-.97-2.04-.1-.41-.14-.72-.17-1.12s-.04-.82-.03-1.23c.02-.89.13-1.78.24-2.66.03-.2-.19-.38-.38-.38-.22,0-.35.17-.38.38h0Z"/>
      <path class="st0" d="M36.65,20.08c.41,1.89.78,3.93.41,5.85-.15.81-.45,1.59-.95,2.25-.55.72-1.32,1.24-2.15,1.59-1.36.57-2.88.75-4.34.79-.48.02-.48.77,0,.75,2.37-.08,5.12-.49,6.8-2.34,1.32-1.46,1.61-3.47,1.5-5.37-.07-1.25-.29-2.49-.55-3.72-.1-.47-.82-.27-.72.2h0Z"/>
      <path class="st0" d="M33.94,20.17c.57.57,1.39.86,2.17.6.73-.24,1.18-.85,1.66-1.41s1-1.17,1.17-1.89c.15-.6,0-1.23-.32-1.75-.66-1.04-1.83-1.68-2.88-2.24-.56-.3-1.15-.73-1.79-.8-.44-.05-.87.15-1.11.52-.21.32-.26.72-.28,1.1-.06,1.1.03,2.21.25,3.29.19.93.47,1.89,1.14,2.58.34.35.87-.18.53-.53-.49-.51-.71-1.2-.87-1.87-.2-.84-.3-1.7-.32-2.56,0-.37-.01-.79.03-1.14.03-.25.1-.53.32-.62.29-.12.66.08.9.22.2.11.4.22.6.33.93.5,1.89.99,2.59,1.77.1.11.12.14.19.24.07.1.14.21.19.33.01.03.03.05.04.08,0-.02-.02-.06,0,0,.02.06.04.11.05.17s.03.11.04.17c0,.01,0,.07,0,0,0,.04,0,.07,0,.11,0,.06,0,.12,0,.18,0,.03,0,.06,0,.09,0,.07.02-.09,0,.03s-.07.26-.11.35c-.13.3-.32.57-.52.83-.21.28-.45.55-.68.82s-.43.53-.72.72c-.59.37-1.24.24-1.74-.26-.34-.34-.87.19-.53.53Z"/>
      <g>
        <path class="st0" d="M30.79,22.94c-2.94-1.78-6.71-1.98-9.61,0-1.3.89-2.55,2.31-2.31,4,.1.7.45,1.38,1.02,1.8s1.48.61,2.2.58c.84-.03,1.66-.55,2.34-1.02.73-.51,1.36-1.14,1.7-1.98l-.46.06c.43.7,1.08,1.25,1.77,1.69.76.49,1.62.87,2.52.99.81.11,1.65-.04,2.28-.59.76-.67.98-1.76.79-2.72-.25-1.23-1.21-2.18-2.24-2.82-.27-.17-.53.26-.25.43.83.51,1.6,1.23,1.91,2.17.28.84.17,1.87-.48,2.51-1.11,1.09-2.98.39-4.11-.3-.68-.41-1.33-.94-1.76-1.62-.12-.2-.38-.14-.46.06-.27.68-.81,1.21-1.39,1.63-.52.37-1.17.81-1.79.96s-1.46,0-2.04-.29-.96-.94-1.06-1.59c-.23-1.54,1.01-2.83,2.19-3.61,1.24-.82,2.7-1.26,4.18-1.28,1.7-.02,3.35.49,4.8,1.37.28.17.53-.27.25-.43Z"/>
        <path class="st0" d="M23.76,28.79c1.08.6,2.43.7,3.59.27.33-.12.65-.28.94-.48.11-.08.16-.22.09-.34-.06-.11-.23-.17-.34-.09-.91.63-2.08.83-3.15.55-.31-.08-.6-.19-.88-.35s-.53.28-.25.43h0Z"/>
      </g>
      <path class="st0" d="M22.82,17.33c1.72.48,3.58.42,5.26-.19.19-.07.32-.25.26-.46-.05-.18-.27-.33-.46-.26-1.57.57-3.26.64-4.86.19-.19-.05-.41.07-.46.26s.07.41.26.46h0Z"/>
    </g>
  </g>
</svg>