<?xml version="1.0" encoding="UTF-8"?>
<svg id="_얼굴없는" data-name="얼굴없는" xmlns="http://www.w3.org/2000/svg" version="1.1" viewBox="0 0 50.83 48.47">
  <!-- Generator: Adobe Illustrator 29.8.2, SVG Export Plug-In . SVG Version: 2.1.1 Build 3)  -->
  <defs>
    <style>
      .st0 {
        fill: #231f20;
      }

      .st1 {
        fill: #fff;
      }
    </style>
  </defs>
  <g>
    <path class="st1" d="M17.48,30.49c-.67.21-1.19.84-1.28,1.55-.06.48.14,1.51.75,1.58-.32.34-.44.86-.3,1.3s.51.79.96.91c.07.34.23.8.51,1.03.21.18.49.26.77.29.74.07,1.48-.3,1.89-.91.49.35.76.9,1.4,1.07.57.15,1.25-.1,1.49-.63.49.6,1.45.77,2.11.36.93.7,2.49.5,3.41-.14.68.59,1.88.38,2.62,0,.88-.46,1.47-1.41,1.5-2.4.89-.49.95-1.99.1-2.55.4-.68,0-1.69-.77-1.9.27-.51.17-1.14-.09-1.65-.51-1.01-1.55-1.66-2.65-1.96s-2.24-.28-3.37-.26c-1.38.02-2.75.04-4.13.06-.92.01-2.02-.11-2.91.19-1.38.47-3.26,2.67-2.02,4.08Z"/>
    <g>
      <path class="st0" d="M19.25,26.41c-.49.19-.92.47-1.33.79-.37.29-.72.62-.97,1.02-.49.79-.45,1.85.31,2.44v-.65c-.72.44-1.31,1.14-1.42,2-.1.77.26,1.61.96,1.99.42.23.8-.42.38-.65-.45-.25-.67-.8-.59-1.29.09-.61.54-1.09,1.05-1.4.26-.16.22-.48,0-.65-.2-.15-.27-.44-.27-.68,0-.31.13-.61.32-.87.21-.28.49-.52.76-.74.31-.24.64-.46,1-.6.19-.07.32-.25.26-.46-.05-.18-.27-.34-.46-.26h0Z"/>
      <path class="st0" d="M16.75,35.6l.85-.52c.08-.05.15-.13.17-.22.02-.05.02-.1,0-.15,0-.05-.02-.1-.04-.14-.05-.08-.13-.15-.22-.17s-.2-.02-.29.04l-.85.52c-.08.05-.15.13-.17.22-.02.05-.02.1,0,.15,0,.05.02.1.04.14.05.08.13.15.22.17s.2.02.29-.04h0Z"/>
      <path class="st0" d="M17.2,36.16c.09.53.45,1.01.92,1.26.52.28,1.12.27,1.65.02.28-.13.52-.35.7-.61.11-.16.04-.42-.13-.51-.19-.1-.39-.04-.51.13-.02.03-.08.09,0,0-.02.02-.03.04-.05.06-.03.04-.07.07-.1.11-.02.02-.04.03-.06.05-.05.04.07-.05.02-.01-.04.03-.08.06-.12.08s-.09.05-.13.07c-.03.01-.08.02.02,0-.02,0-.05.02-.07.03-.09.03-.19.05-.29.07h.1c-.12,0-.25,0-.37-.01h.1c-.07,0-.15-.01-.22-.04-.03-.01-.07-.02-.1-.04.02,0,.09.04.03.01-.02,0-.03-.02-.05-.02-.06-.03-.12-.07-.18-.11s0,0,.02.01c0,0-.03-.03-.04-.04-.03-.02-.06-.05-.08-.08s-.05-.05-.08-.08c-.01-.01-.02-.02-.03-.04-.05-.06.04.05.01.02-.04-.06-.08-.12-.11-.18-.02-.03-.03-.07-.05-.1.06.12,0,0,0-.03-.02-.07-.04-.14-.05-.21-.01-.09-.1-.18-.17-.22-.08-.05-.2-.07-.29-.04s-.18.09-.22.17c-.05.09-.05.18-.04.29h0Z"/>
      <path class="st0" d="M20.33,32.8c-.46.82-.28,1.95.44,2.56l-.06-.45c-.51.72-.29,1.83.38,2.38.79.64,1.95.55,2.73-.06.47-.38.77-.97.64-1.58-.04-.19-.28-.32-.46-.26-.2.07-.31.26-.26.46,0,0,.01.1,0,.04,0-.05,0,.02,0,.03,0,.03-.01.16,0,.07,0,.04-.02.08-.03.12,0,.03-.02.05-.02.07,0,.01-.01.03-.02.04.02-.04.02-.04,0-.02-.05.08-.09.16-.14.23.04-.06,0-.01,0,0-.02.02-.04.04-.05.06-.04.04-.08.08-.12.11-.02.02-.04.04-.06.05.01,0,.06-.04,0,0-.03.02-.07.05-.1.07-.04.03-.09.05-.13.08-.02,0-.04.02-.05.03s-.1.04-.02.01c-.08.03-.16.06-.25.08-.04.01-.09.02-.13.03-.02,0-.04,0-.06.01.09-.02,0,0-.02,0-.09,0-.18,0-.27,0-.04,0-.08,0-.12-.01.09.01-.05-.01-.08-.02-.04-.01-.09-.02-.13-.04-.02,0-.15-.06-.07-.02-.09-.04-.17-.09-.25-.14-.01,0-.06-.04-.02-.01.05.04-.02-.02-.02-.02-.03-.02-.05-.05-.08-.07-.03-.03-.05-.06-.08-.09-.04-.04.05.07,0,0-.01-.02-.03-.04-.04-.06-.04-.06-.08-.13-.11-.2-.04-.08.02.06,0,0,0-.02-.02-.04-.02-.06-.01-.04-.03-.09-.04-.13s-.02-.09-.03-.13c0-.05-.02,0,0,.02,0-.01,0-.07,0-.08,0-.04,0-.09,0-.13,0-.02,0-.04,0-.05,0-.02,0-.04,0-.05v.05s.01-.1.02-.13c.01-.04.03-.08.04-.13.03-.08-.03.05,0,0,.01-.02.02-.05.04-.07.02-.04.05-.08.08-.12.09-.13.06-.35-.06-.45-.07-.06-.13-.12-.19-.19-.03-.03-.03-.04,0,0-.01-.02-.03-.04-.04-.06-.02-.03-.05-.07-.07-.11-.02-.04-.04-.08-.06-.13-.03-.06.01.04,0,0,0-.02-.02-.04-.02-.07-.03-.08-.05-.17-.07-.26,0-.02,0-.04,0-.06,0-.05,0,.07,0,0,0-.05,0-.09,0-.14,0-.04,0-.08,0-.13,0-.02,0-.05,0-.07,0-.01.02-.09,0-.03s0-.03,0-.03c0-.02,0-.04.01-.06.01-.05.02-.09.04-.14,0-.02.02-.04.02-.07,0-.02.04-.08,0,0,.02-.04.04-.08.06-.13.1-.17.05-.42-.13-.51s-.41-.05-.51.13h0Z"/>
      <path class="st0" d="M24.02,33.17c.03.05.06.11.08.17l-.04-.09c.06.15.11.31.13.48v-.1c0,.17,0,.35-.01.53v-.1c-.01.17-.05.33-.12.49l.04-.09c-.05.12-.12.24-.2.35-.05.08-.06.2-.04.29s.09.18.17.22c.09.05.19.07.29.04s.16-.09.22-.17c.38-.53.49-1.24.33-1.87-.05-.18-.12-.36-.21-.52-.09-.17-.35-.24-.51-.13s-.24.33-.13.51h0Z"/>
      <path class="st0" d="M25.32,32.91c-.18.39-.25.82-.2,1.24.03.22.07.44.14.65.03.09.06.18.1.26.02.04.04.09.05.13,0,.02,0,.03.01.05,0,.03,0,.02,0-.01v.04c0,.08,0,.02,0,0,0,.02-.01.05-.02.07-.01.05-.02.09-.03.14-.03.12-.04.24-.06.37-.02.21,0,.41.03.62.08.41.31.76.65.99.38.26.86.3,1.28.11.18-.08.24-.35.13-.51-.12-.18-.32-.22-.51-.13.07-.03,0,0-.03,0-.02,0-.04,0-.05.01-.04.01.03,0,.03,0-.03.01-.07,0-.1,0-.02,0-.04,0-.06,0-.01,0-.07-.01-.02,0,.05.01-.05-.01-.06-.02-.03,0-.06-.02-.09-.03-.05-.02.06.03.01,0-.01,0-.03-.01-.04-.02-.03-.02-.07-.04-.1-.06-.02-.01-.03-.02-.05-.03.01,0,.06.05,0,0-.02-.02-.04-.04-.06-.06-.02-.02-.08-.11-.03-.03-.02-.03-.05-.07-.07-.1-.02-.03-.04-.07-.05-.1-.02-.04,0,0,0,.01,0-.02-.02-.04-.02-.06-.01-.04-.02-.07-.03-.11,0-.02,0-.03-.01-.05,0,0-.02-.1,0-.05,0,.04,0-.01,0-.02,0-.02,0-.04,0-.07,0-.04,0-.08,0-.12s0-.08,0-.12c0-.02.01-.15,0-.07.03-.19.09-.37.1-.56s-.07-.37-.14-.55c-.06-.17-.11-.34-.15-.51,0-.02,0-.03,0-.05,0-.03-.01-.08,0-.02,0-.05-.01-.09-.01-.14,0-.09,0-.19,0-.28,0-.02,0-.05,0-.07,0-.03,0-.04,0,0,0-.05.02-.1.03-.15.01-.04.02-.09.04-.13,0-.02.01-.03.02-.05.04-.11-.03.06.02-.04.08-.18.06-.41-.13-.51-.17-.09-.42-.05-.51.13h0Z"/>
      <path class="st0" d="M28.1,37.72c.58.02,1.11-.36,1.37-.87.3-.58.26-1.25.11-1.86l-.1.36c.75-.61.93-1.74.49-2.58-.09-.17-.35-.24-.51-.13-.18.11-.23.33-.13.51.01.02.02.04.03.07,0,0,.03.07.01.02-.02-.05.01.03.01.04,0,.02.01.04.02.06.01.04.03.09.04.13,0,.03.02.15.01.06.01.09.02.18.01.27,0,.05,0,.1-.01.15,0-.09,0,.04-.01.06-.02.09-.04.18-.08.26,0,0-.03.07,0,.03.02-.05-.01.03-.02.04-.02.04-.04.08-.06.12s-.05.08-.07.11c-.01.02-.02.03-.04.05.05-.06,0,0,0,0-.06.07-.13.14-.21.2-.1.08-.13.24-.1.36s.05.24.07.36c0,.03,0,.03,0,0v.04s.01.06.01.1c0,.06,0,.12,0,.17,0,.06,0,.13,0,.19v.04s0-.03,0,0c0,.03-.01.06-.02.09-.01.06-.03.11-.04.17,0,.03-.02.06-.03.09.02-.05,0-.02,0,.01-.02.04-.04.09-.07.13-.01.02-.03.04-.04.07-.03.05.05-.06,0,.01-.03.04-.06.07-.1.11-.02.02-.04.04-.06.05-.05.05.02-.01-.01,0-.04.02-.08.05-.12.08,0,0-.09.04-.04.02s-.03.01-.04.02c-.05.02-.1.03-.15.04.03,0,.05,0,0,0-.03,0-.06,0-.09,0-.2,0-.38.18-.38.38s.16.37.38.38h0Z"/>
      <path class="st0" d="M30.22,27.1c.15.03.29.06.43.11.07.02.14.05.21.07,0,0,.05.02.05.02,0,0-.08-.04-.01,0,.03.02.07.03.1.05.13.06.26.14.39.22.06.04.12.08.17.12,0,0-.07-.05-.02-.01.01.01.03.02.04.03.03.02.06.05.09.08.1.09.2.19.28.3.06.07-.03-.04.01.01.02.03.04.05.06.08.04.06.08.12.11.18.01.03.03.05.04.08.01.02.05.07.04.09,0-.03-.02-.06,0-.02,0,.02.01.03.02.05.01.04.03.07.04.11.02.06.03.13.05.19,0,.02,0,.03,0,.05.01.07,0-.01,0-.02,0,.04,0,.08.01.12,0,.08,0,.16,0,.23,0,.02,0,.03,0,.05,0,.08.01,0,0,0,0,.01-.02.1-.02.11-.02.08-.04.15-.07.22-.02.05.03-.06,0-.02,0,.02-.02.04-.03.06-.02.04-.04.08-.06.11-.1.17-.04.42.13.51s.4.04.51-.13c.38-.62.35-1.38.06-2.02-.27-.59-.78-1.06-1.34-1.36-.34-.19-.71-.32-1.09-.39-.19-.03-.41.05-.46.26-.04.18.06.42.26.46h0Z"/>
      <path class="st0" d="M33.25,31.3s.07-.04.11-.05l-.09.04c.09-.04.18-.06.28-.08h-.1c.07,0,.13,0,.2,0,.05,0,.1,0,.14-.03.05-.02.09-.04.12-.08.04-.03.06-.07.08-.12.02-.04.03-.09.03-.14v-.1c-.03-.06-.06-.12-.11-.17l-.08-.06c-.06-.03-.12-.05-.19-.05-.05,0-.1,0-.16,0-.08,0-.17.02-.25.04-.05.01-.1.03-.15.05-.08.03-.15.06-.23.1-.04.02-.08.06-.11.1-.03.04-.06.08-.07.13-.02.05-.02.1,0,.15,0,.05.02.1.04.14l.06.08s.1.08.17.1h.1c.07.01.13,0,.19-.04h0Z"/>
      <path class="st0" d="M33.2,32.46s0,0,.02.02c.02.02.04.04.07.06.02.02.03.03.05.05,0,0,.06.08.04.05-.02-.03.04.05.03.05.01.02.03.04.04.06.03.05.05.09.07.14.02.04,0-.04,0,.03,0,.03.02.06.03.09.01.05.03.1.04.16,0-.05,0,0,0,.03,0,.02,0,.05,0,.07,0,.06,0,.12,0,.18s.01-.05,0,0c0,.03-.01.06-.02.09-.01.05-.03.1-.05.15-.01.04.02-.04-.01.02-.01.02-.02.04-.03.06-.03.05-.06.1-.09.15-.01.02-.03.04,0,0-.02.02-.04.05-.06.07-.04.04-.07.08-.11.11,0,0-.07.06-.04.04s-.05.03-.05.03c-.05.03-.1.06-.15.09-.13.07-.23.28-.17.42.03.08.06.16.07.24,0,.02,0,.03,0,.05,0-.04,0-.04,0,0,0,.04,0,.08,0,.12s0,.08,0,.12c0,.02,0,.04,0,.07,0-.04,0-.04,0,0-.02.08-.03.15-.06.23-.01.03-.02.06-.03.1.03-.07-.03.05-.03.07-.04.07-.08.14-.12.21,0,.01-.06.09-.02.04-.03.04-.06.07-.09.1-.05.06-.11.11-.17.17-.03.03-.04.03,0,0-.01.01-.03.02-.04.03-.04.03-.07.05-.11.07-.08.05-.16.09-.24.13-.04.02-.05.02-.02,0-.02,0-.05.02-.07.03-.04.01-.07.03-.11.04-.09.03-.17.05-.26.07-.05.01-.1.02-.15.03.07,0-.05,0-.06,0-.09,0-.18.01-.27.01s-.18,0-.27,0c-.05,0-.1,0-.16-.01-.05,0-.05,0-.02,0-.03,0-.05,0-.08-.01-.19-.03-.41.05-.46.26-.04.18.05.43.26.46.71.11,1.44.07,2.1-.24.59-.28,1.05-.83,1.2-1.47.09-.36.08-.74-.05-1.09l-.17.42c.56-.28.93-.85.99-1.47s-.26-1.25-.77-1.63c-.16-.12-.43-.03-.51.13-.1.2-.03.39.13.51h0Z"/>
    </g>
  </g>
  <g>
    <path class="st1" d="M12.95,15.98c-.36.09-.7.25-1.03.57-.56.53-.8,1.38-.59,2.12-.62-.2-1.3.29-1.54.9s-.15,1.29-.07,1.94c.03.21.06.41.08.62.15,1.09.28,2.13,1.52,2.53.35.9.78,1.55,1.8,1.82.65.17,1.38,0,1.89-.43.39-.33.58-.39,1.04-.24.58.18.5.44,1.17.33.07.88.77,1.61,1.58,1.97s1.71.43,2.59.49c1.68.11,3.36.23,5.05.15,1.04-.05,2.1-.06,3.13-.28,1.14-.25,1.85-.72,2.08-1.93.23.24.59.34.93.32.49-.03.98-.25,1.34-.58.07-.06.91-.94.81-1.03.77.65,1.8,1.11,2.79.9s1.82-1.26,1.51-2.22c.51-.14.92-.56,1.05-1.07s-.04-1.08-.42-1.44c-.86-.81.26-1.2.08-2.14-.13-.67-.77-1.12-1.36-1.46-.9-.52-.51-1.91-1.69-2.49-.25-.12-3.01-.12-2.98-.28.18-.85-.09-1.77-.7-2.4s-1.52-.92-2.37-.77c-.07.01-1.43-1.11-1.73-1.21-.67-.22-1.38-.28-2.02.05-.06.03-.13.07-.19.08-.07,0-.15-.02-.21-.05-1.25-.49-2.74-.77-3.9-.07-.06.03-.12.07-.19.07-.81-.05-1.25-.55-2.16-.2-.23.09-1.6,1.38-1.43,1.41-1.1-.16-2.26.5-2.69,1.52-.19.45-.24.95-.43,1.41s-.55.9-1.04.94c-.6.05-1.16.02-1.69.15Z"/>
    <g>
      <path class="st0" d="M15.53,17.23c-.85.52-.97,1.72-.74,2.6.06.24.16.49.3.7.11.16.34.25.51.13.16-.11.25-.34.13-.51-.05-.08-.09-.16-.13-.24,0,0-.02-.04-.02-.04,0,0,.04.1.02.04,0-.02-.02-.04-.02-.06-.02-.05-.03-.1-.05-.14-.03-.1-.05-.19-.07-.29,0-.02,0-.05-.01-.07-.01-.08.01.1,0,0,0-.05-.01-.11-.01-.16,0-.1,0-.2,0-.3,0-.05,0-.1.01-.15,0-.01,0-.03,0-.04,0,0-.02.11,0,.05,0-.03,0-.06.01-.08.02-.09.04-.19.07-.28,0-.02.01-.04.02-.06,0-.01.04-.1.01-.03s0,0,.01-.02c.01-.02.02-.05.04-.07.02-.04.05-.09.08-.13,0,0,.01-.02.02-.03.04-.06,0,.02-.02.03.02,0,.04-.05.05-.06.03-.04.07-.07.11-.11.07-.06-.07.05-.01,0,.02-.02.05-.03.07-.05.17-.1.25-.34.13-.51s-.33-.24-.51-.13h0Z"/>
      <path class="st0" d="M15.02,21.04c-.27.2-.5.43-.63.75-.11.28-.11.61-.06.91.05.27.18.55.33.78s.35.5.61.61l-.13-.51c-.47.65-.45,1.59,0,2.24.51.73,1.48,1.04,2.32.73l-.46-.46c-.22.57,0,1.21.39,1.64.37.4.87.68,1.37.87.97.36,2.05.38,3.07.28.2-.02.38-.16.38-.38,0-.19-.17-.4-.38-.38-.87.09-1.78.09-2.63-.17-.67-.21-1.82-.8-1.48-1.67.1-.26-.2-.56-.46-.46-.53.2-1.18.07-1.5-.42-.3-.45-.29-1.01.03-1.44.11-.15.04-.44-.13-.51-.01,0-.12-.07-.07-.03-.03-.02-.06-.05-.09-.08-.07-.07-.12-.13-.17-.21-.11-.17-.21-.35-.25-.55-.04-.15-.03-.36.01-.5.04-.13.16-.27.31-.38.16-.12.24-.33.13-.51-.09-.16-.35-.25-.51-.13h0Z"/>
      <path class="st0" d="M33.91,16.66c.5.24.88.67,1.02,1.22s-.03,1.16-.4,1.58c-.15.17-.15.48.08.59.56.27.94.84.93,1.47s-.42,1.18-.98,1.43c-.18.08-.23.35-.13.51.11.19.33.22.51.13.8-.36,1.34-1.21,1.35-2.08s-.52-1.73-1.3-2.11l.08.59c.55-.61.78-1.45.61-2.26-.16-.74-.69-1.39-1.37-1.71-.18-.09-.4-.05-.51.13-.1.16-.05.43.13.51h0Z"/>
      <path class="st0" d="M34.44,24.67c.04.29-.04.59-.2.85s-.41.49-.68.66c-.3.18-.6.3-.95.36-.12.02-.31.04-.48.02s-.32-.06-.44-.18c-.26-.25-.74,0-.63.36.08.25-.03.54-.27.72-.25.19-.54.3-.82.4-.63.22-1.3.39-1.96.33-.2-.02-.38.19-.38.38,0,.22.17.36.38.38.38.04.78-.02,1.16-.09.42-.08.83-.19,1.22-.35.37-.15.78-.32,1.06-.62.32-.36.49-.86.34-1.33l-.63.36c.74.7,2,.38,2.78-.09.39-.24.74-.57.97-.96.25-.43.32-.9.25-1.39-.03-.2-.28-.31-.46-.26-.22.06-.29.26-.26.46h0Z"/>
      <path class="st0" d="M16.24,14.96c-.04-.44-.03-.84.13-1.25.02-.04.06-.12.1-.2s.09-.15.15-.22c-.03.04.05-.06.06-.07.03-.03.05-.05.08-.08.04-.03.07-.07.11-.1.02-.02.04-.03.06-.05-.02.02-.02.02,0,0,.31-.22.55-.32.91-.4.2-.05.28-.06.49-.07.2-.01.39,0,.59,0,.15.01.34-.12.36-.28.06-.4.2-.68.47-.93.01-.01.09-.08.07-.06s.06-.05.08-.05c.08-.05.16-.1.25-.14.02-.01.04-.02.07-.03-.03.01-.03.01.01,0,.03-.01.07-.03.1-.04.09-.03.19-.06.28-.07.13-.03.11-.02.23-.03.09,0,.18-.01.27,0,.1,0,.2,0,.31.02,0,0,.12.02.05,0,.05,0,.1.02.15.03.19.04.37.09.55.16.04.02.05.02.01,0,.02,0,.05.02.07.03.04.02.09.04.13.07.09.05.17.1.25.15.17.11.42.03.51-.13.11-.18.03-.4-.13-.51-1.11-.75-2.96-.84-3.92.23-.29.32-.47.71-.54,1.14l.36-.28c-.85-.06-1.76.1-2.45.63-.79.61-1.06,1.59-.97,2.56.02.2.16.38.38.38.19,0,.39-.17.38-.38h0Z"/>
      <path class="st0" d="M23.07,9.44c.07.1.13.21.18.32l-.04-.09c.06.14.1.28.12.43v-.1s-.01.02,0,.03c0,.05,0,.1.03.14.02.05.04.09.08.12.03.04.07.06.12.08.04.02.09.03.14.03h.1c.06-.03.12-.06.17-.11l.06-.08c.03-.06.05-.12.05-.19-.02-.18-.05-.35-.11-.51s-.14-.32-.24-.46c-.02-.04-.06-.08-.1-.11-.04-.03-.08-.06-.13-.07-.05-.02-.1-.02-.15,0-.05,0-.1.02-.14.04-.08.05-.15.13-.17.22v.1c-.01.07,0,.13.04.19h0Z"/>
      <path class="st0" d="M25.79,10.33c.02-.09.04-.17.08-.26l-.04.09c.04-.1.1-.2.17-.29l-.06.08c.07-.09.15-.17.23-.23l-.08.06c.08-.06.18-.12.27-.16l-.09.04s.06-.02.09-.03c.09-.03.17-.09.22-.17.03-.04.04-.09.04-.14.01-.05,0-.1,0-.15-.03-.09-.09-.18-.17-.22s-.19-.07-.29-.04c-.23.08-.43.2-.61.36-.09.08-.16.17-.23.27-.05.07-.1.15-.13.23-.05.12-.1.24-.12.37-.02.05-.02.1,0,.15,0,.05.02.1.04.14.02.04.06.08.1.11.04.03.08.06.13.07.1.02.2.02.29-.04.08-.05.16-.13.17-.22h0Z"/>
      <path class="st0" d="M26.97,11.28c.45-.41,1.26-.48,1.84-.32.62.17,1.3.57,1.4,1.24.04.26.36.31.55.22.13-.06.33-.09.51-.09.21,0,.37.02.57.08.39.1.76.29,1.03.56.22.23.34.54.44.87.12.42.16.89-.06,1.29-.23.42.41.8.65.38.45-.81.26-1.81-.15-2.6-.36-.7-1.17-1.14-1.93-1.28-.49-.09-.98-.06-1.43.14l.55.22c-.14-.93-1.09-1.53-1.92-1.76s-1.9-.09-2.57.51c-.36.32.17.85.53.53h0Z"/>
      <path class="st0" d="M15.04,15.64c-.21-.27-.72-.23-1.02-.22-.37.02-.75.04-1.1.15-.91.29-1.84,1-1.99,1.99-.08.56.05,1.13.45,1.53l.36-.63c-.84-.21-1.71.18-2.2.87-.53.75-.49,1.76-.12,2.56.08.18.35.23.51.13.19-.11.22-.33.13-.51-.26-.56-.25-1.25.1-1.77.13-.2.38-.39.59-.48.06-.03.13-.05.2-.07.04-.01.08-.02.12-.03h.04s-.02,0,0,0c.08,0,.15,0,.23,0,.09,0,.08,0,.19.03.36.09.63-.36.36-.63-.1-.1-.18-.22-.21-.35-.01-.04-.02-.08-.03-.11,0,0-.02-.09-.01-.05,0,.04,0-.03,0-.03,0-.09,0-.19,0-.28,0-.06,0,0,0-.06.01-.05.02-.09.03-.14.03-.09.05-.16.08-.21.09-.18.16-.27.3-.41.26-.26.6-.47.93-.59.31-.11.53-.13.85-.15.17-.01.33-.02.5-.01.04,0,.07,0,.11,0,.07,0,0,0-.01,0,.02,0,.03,0,.05,0,.04.01.1.05.02,0,.05.03-.06-.07-.01,0,.12.16.4.13.53,0,.16-.16.12-.37,0-.53h0Z"/>
      <path class="st0" d="M9.9,22.75l-.71.53s-.08.06-.11.1c-.03.04-.06.08-.07.13-.02.05-.02.1,0,.15,0,.05.02.1.04.14l.06.08s.1.08.17.1h.1c.07.01.13,0,.19-.04l.71-.53s.08-.06.11-.1c.03-.04.06-.08.07-.13.02-.05.02-.1,0-.15,0-.05-.02-.1-.04-.14l-.06-.08s-.1-.08-.17-.1h-.1c-.07-.01-.13,0-.19.04h0Z"/>
      <path class="st0" d="M10.28,24.18l-.39.33s-.06.07-.08.12c-.02.04-.03.09-.03.14,0,.05,0,.1.03.14.02.05.04.09.08.12l.08.06c.06.03.12.05.19.05h.1c.06-.03.12-.06.17-.11l.39-.33s.06-.07.08-.12c.02-.04.03-.09.03-.14,0-.05,0-.1-.03-.14-.02-.05-.04-.09-.08-.12l-.08-.06c-.06-.03-.12-.05-.19-.05h-.1c-.06.03-.12.06-.17.11h0Z"/>
      <path class="st0" d="M11.29,25.42c.19.6.74,1.08,1.33,1.3.22.08.46.1.7.1.26,0,.53-.03.79-.08.28-.06.54-.16.77-.34.07-.06.11-.18.11-.27,0-.09-.04-.2-.11-.27s-.17-.11-.27-.11c-.11,0-.18.04-.27.11.12-.09,0,0-.03.01-.02.01-.04.02-.06.03,0,0-.02,0-.03.01-.06.03.09-.04.03-.01-.09.03-.18.06-.28.09-.05.01-.1.02-.15.03-.03,0-.05,0-.08.01-.01,0-.03,0-.04,0,.12-.02.05,0,.02,0-.11.01-.21.02-.32.02s-.21,0-.32-.01c0,0-.07,0-.07,0,0,0,.11.02.05,0-.01,0-.02,0-.03,0-.04,0-.08-.02-.13-.03-.04-.01-.09-.03-.13-.04-.06-.02.03.01.03.01-.01,0-.03-.01-.04-.02-.03-.02-.07-.03-.1-.05-.05-.03-.1-.06-.15-.1-.03-.02-.05-.04-.08-.05-.04-.03.02,0,.02.02,0-.01-.04-.03-.05-.04-.06-.05-.11-.1-.16-.15-.02-.02-.05-.05-.07-.08,0-.01-.02-.02-.03-.04,0,0,0-.01-.01-.02-.02-.02,0-.01.02.03,0-.03-.04-.06-.06-.08-.02-.03-.03-.06-.05-.08-.02-.03-.03-.06-.05-.09,0,0,.03.09.01.03,0-.02-.01-.04-.02-.06-.06-.19-.26-.33-.46-.26-.19.06-.33.26-.26.46h0Z"/>
      <path class="st0" d="M34.94,15.71c-.07.06-.02,0,0,0,0,0,.11-.04-.02,0,.01,0,.02,0,.04-.01.06-.02.12-.03.18-.04-.07.02,0,0,.04,0,.03,0,.06,0,.1,0,.08,0,.15,0,.23,0,.07,0,.13,0,.2.01.04,0,.08,0,.12.01-.07,0,.02,0,.04,0,.12.02.24.04.35.07.3.08.6.25.83.47.06.05.11.11.16.17.02.03.05.06.07.09.01.01.02.03.03.04-.02-.03,0,0,0,.01.1.13.19.27.27.42.01.02.06.13.04.07.01.04.02.07.03.11,0,.01,0,.03,0,.04,0-.04,0-.01,0,.01,0,.05,0,.1,0,.15,0,0,0,.06,0,.03,0-.03,0,.04-.01.04-.01.04-.02.09-.04.13,0,0,.02-.04,0,0-.01.03-.03.05-.05.08,0,0-.04.05-.02.02.02-.02-.05.05-.05.04l.53.53s.03-.03,0,0c.03-.02.04-.02.01,0-.03.01-.02,0,.02,0-.05,0-.05,0,0,0,.01,0,.11.01.04,0,.04,0,.07.02.11.03.01,0,.14.05.08.03.03.02.07.03.1.05.07.04.13.07.2.11.08.05.15.09.23.15.08.05.08.05.14.1.15.12.21.2.28.34,0,.02.02.03.02.05-.02-.05-.03-.06-.01-.02,0,.02.02.05.03.07.02.06.03.12.05.18,0,.03.01.07.02.1.01.08,0-.07,0,.02,0,.07,0,.14,0,.21,0,.04,0,.08,0,.11,0,.08.02-.06,0,.03-.02.07-.03.14-.06.21,0,.03,0,.02,0-.01,0,.02-.02.04-.03.06-.02.03-.03.06-.05.09-.04.07.03-.02-.02.03-.03.03-.06.07-.1.1-.15.13-.14.39,0,.53.15.15.38.13.53,0,.49-.43.56-1.15.41-1.75-.17-.66-.72-1.09-1.31-1.39-.39-.19-.88-.29-1.21.05-.14.15-.15.38,0,.53s.39.14.53,0c.33-.33.46-.84.34-1.29-.1-.4-.38-.75-.64-1.06-.3-.35-.7-.62-1.13-.78-.32-.12-.68-.16-1.02-.19-.41-.03-.84,0-1.17.26-.16.13-.13.4,0,.53.16.16.37.13.53,0h0Z"/>
      <path class="st0" d="M39.27,22s.08.05.02.01c.03.02.06.05.08.07.02.02.04.04.06.07,0,0,.07.08.04.05s.04.05.04.06c.02.03.03.05.05.08s.03.06.04.08c-.03-.06,0,0,0,.03.02.06.04.12.05.18,0,.03.01.06.02.09-.01-.09,0,0,0,.02,0,.06,0,.12,0,.19,0,.09.01-.06,0,.02,0,.04-.01.07-.02.11,0,.03-.02.06-.03.09,0,.01-.01.03-.02.04.02-.04.02-.04,0-.02-.04.06-.07.12-.11.18-.04.06.04-.03-.02.03-.02.02-.04.05-.07.07s-.05.05-.07.07c0,0-.09.07-.03.02-.06.04-.11.07-.17.11-.03.02-.06.03-.09.04.07-.03-.02,0-.03.01-.06.02-.13.04-.19.05-.02,0-.04,0-.07.01.04,0,.05,0,.02,0-.04,0-.08,0-.12,0-.28,0-.48.32-.32.56.02.04.04.07.06.11-.04-.08.01.04.02.06.01.04.02.08.03.12-.02-.1,0,.03,0,.05,0,.04,0,.08,0,.12,0,.04,0,.04,0,0,0,.02,0,.04-.01.06-.02.08-.04.16-.07.24.03-.08-.02.04-.03.06-.02.04-.04.07-.07.11-.01.02-.02.04-.04.05.03-.03.03-.03,0,0-.03.03-.06.06-.09.09-.03.03-.07.06-.1.09.05-.04-.06.04-.07.04-.07.05-.15.09-.23.13-.02.01-.02,0,0,0-.02,0-.04.02-.07.03-.04.02-.09.03-.14.04-.09.03-.19.04-.28.06-.04,0-.05,0,0,0-.02,0-.05,0-.07,0-.05,0-.1,0-.14.01-.1,0-.19,0-.29,0-.05,0-.1,0-.14,0-.02,0-.05,0-.07,0,.04,0,.04,0,0,0-.09-.02-.19-.04-.28-.07-.14-.04-.3-.13-.39-.21-.15-.13-.39-.16-.53,0-.13.14-.16.39,0,.53.59.53,1.46.6,2.21.46s1.4-.62,1.6-1.36c.11-.4.07-.84-.15-1.19l-.32.56c.76-.01,1.5-.52,1.7-1.27s-.12-1.5-.73-1.9c-.16-.11-.42-.04-.51.13-.1.19-.04.4.13.51h0Z"/>
    </g>
  </g>
</svg>