<?xml version="1.0" encoding="UTF-8"?>
<svg id="_얼굴없는" data-name="얼굴없는" xmlns="http://www.w3.org/2000/svg" version="1.1" viewBox="0 0 50.83 48.47">
  <!-- Generator: Adobe Illustrator 29.8.2, SVG Export Plug-In . SVG Version: 2.1.1 Build 3)  -->
  <defs>
    <style>
      .st0 {
        fill: #231f20;
      }

      .st1 {
        fill: #717070;
      }

      .st2 {
        fill: #fff;
      }

      .st3 {
        fill: #c7c4c4;
      }
    </style>
  </defs>
  <g>
    <path class="st2" d="M32.99,32.35c-.21-.62-.46-1.22-.7-1.78-.15-.34-.35-1.03-.66-1.25-1.08-1.64-2.91-2.78-4.86-3-2.02-.23-4.12.5-5.56,1.93-2.51,2.5-4.47,11.26,1.33,10.97l.41-.44c.19.31.49.53.98.6,1.74.24,2.15-.84,2.25-2.14.1,1.29.51,2.37,2.25,2.14,1.39-.19,3.43-.09,4.48-1.28,1.18-1.33.6-4.25.09-5.76Z"/>
    <path class="st3" d="M32.99,32.35c-.21-.62-.46-1.22-.7-1.78-.15-.34-.35-1.03-.66-1.25-.14-.22-.3-.42-.47-.62.01.06.03.13.04.19.21,1.85-1.09,3.62-2.57,4.57-.67.43-1.39.86-1.74,1.58-.13.26-.2.55-.38.77-.13.16-.34.39-.56.23-.1-.07-.15-.18-.21-.28-.37-.64-.92-1.41-1.5-1.86-.53-.41-1.07-.79-1.56-1.24-.95-.87-1.74-2-1.45-3.35.07-.35.28-.65.38-1,.05-.16.1-.34.17-.51-.19.15-.38.28-.55.45-2.51,2.5-4.47,11.26,1.33,10.97l.15-.16c-.11-.14-.17-.33-.12-.5.08-.3.38-.44.67-.38.9.17,1.8.19,2.71.18.12-.33.19-.7.22-1.11.03.4.1.77.22,1.1.9-.03,1.81-.08,2.7-.06.37.01.74.47.47.82-.05.06-.11.11-.16.17,1.25-.11,2.67-.25,3.5-1.18,1.18-1.33.6-4.25.09-5.76Z"/>
    <g>
      <path class="st0" d="M22.3,35.79c0,.63-.08,1.26-.05,1.89.04.68.23,1.37.81,1.78.32.23.73.3,1.11.32.36.02.73-.01,1.06-.15s.59-.35.8-.64c.18-.25.29-.54.36-.84.18-.73.17-1.5.16-2.24,0-.2-.17-.38-.38-.38s-.38.16-.38.38c0,.32,0,.64,0,.95,0,.16-.01.31-.03.47,0,.07-.01.14-.02.22,0,.03-.02.1,0-.02,0,.02,0,.04,0,.06,0,.04-.01.08-.02.11-.02.14-.06.28-.1.41-.02.06-.04.12-.06.18-.03.09.04-.08,0,0-.02.04-.03.07-.05.11-.03.05-.06.11-.09.16-.02.02-.03.04-.05.07-.04.05.06-.07.02-.02-.01.02-.03.03-.04.05-.04.04-.08.09-.13.13-.01,0-.02.02-.03.03-.03.03.08-.06.03-.02-.03.02-.06.04-.1.07-.05.03-.12.05-.17.09.05-.04.08-.03.04-.02-.02,0-.03.01-.05.02-.04.01-.08.03-.12.04-.07.02-.14.03-.21.04,0,0,.1-.01.04,0-.02,0-.04,0-.06,0-.05,0-.1,0-.14,0-.08,0-.17,0-.25,0-.05,0-.1,0-.15-.01-.03,0-.05,0-.08,0-.09-.01.08.01,0,0s-.15-.03-.23-.05c-.04-.01-.08-.03-.11-.04-.07-.02.08.04.02,0-.02,0-.03-.02-.05-.02-.06-.03-.11-.07-.17-.1s.07.06.02.02c-.01-.01-.03-.02-.04-.03-.03-.02-.05-.05-.07-.07-.02-.02-.04-.06-.07-.08.06.04.05.07.03.04,0-.01-.02-.03-.03-.04-.04-.06-.07-.12-.1-.18,0-.02-.01-.03-.02-.05-.03-.06.03.09.01.03,0-.03-.02-.05-.03-.08-.02-.07-.04-.14-.06-.21-.02-.07-.03-.13-.04-.2,0-.02,0-.04,0-.06.02.11,0,.06,0,.03,0-.04,0-.08-.01-.13-.06-.67.04-1.34.04-2.01,0-.2-.17-.38-.38-.38s-.37.16-.38.38h0Z"/>
      <path class="st0" d="M32.05,29.28c-1.32-2.09-3.69-3.43-6.17-3.38-2.15.04-4.33,1.08-5.58,2.86-.84,1.21-1.38,2.67-1.68,4.1s-.42,3.02.11,4.41c.27.7.7,1.32,1.33,1.74.72.48,1.61.62,2.47.59.48-.02.48-.77,0-.75-1.26.06-2.4-.37-2.97-1.54s-.51-2.55-.31-3.76c.22-1.35.66-2.68,1.35-3.86.9-1.55,2.45-2.57,4.21-2.91,2.55-.5,5.21.71,6.59,2.9.26.41.91.03.65-.38h0Z"/>
      <path class="st0" d="M29.29,35.79c0,.6.08,1.19.05,1.79,0,.07,0,.14-.01.22,0,.04,0,.07-.01.11,0,.02,0,.03,0,.05.01-.13,0-.03,0,0-.02.14-.05.28-.1.41,0,.03-.02.05-.03.08-.02.07.04-.09.01-.03,0,.02-.01.03-.02.05-.03.06-.06.12-.1.18,0,.01-.02.02-.02.03-.02.04-.04.02.02-.03-.02.02-.04.05-.07.08-.02.02-.04.04-.06.06-.01.01-.03.02-.04.03-.07.06.06-.04,0,0-.06.04-.11.07-.17.1-.03.02-.13.04-.01,0-.04.01-.09.03-.13.05-.08.02-.15.04-.23.05-.03,0-.04.02.03,0-.02,0-.06,0-.08,0-.06,0-.11.01-.17.01-.08,0-.17,0-.25,0-.04,0-.09,0-.13,0-.04,0-.17-.03-.05,0-.07-.02-.14-.02-.21-.04-.04,0-.07-.02-.11-.03-.02,0-.03-.01-.05-.02-.04-.02-.04-.04.02.01-.04-.04-.12-.06-.17-.09-.03-.02-.06-.04-.08-.06-.01,0-.06-.04,0,0s0,0-.01-.01c-.05-.04-.09-.08-.13-.13-.03-.03-.08-.12-.01-.01-.02-.03-.04-.05-.06-.08-.03-.05-.06-.1-.09-.16-.02-.03-.03-.06-.04-.09,0-.01,0-.02-.01-.03-.03-.06.04.1,0,0-.05-.13-.09-.26-.12-.39-.02-.08-.03-.16-.05-.24,0-.04-.01-.08-.02-.11-.01-.07.01.1,0,.02,0-.02,0-.05,0-.07-.02-.17-.03-.34-.04-.51-.02-.36-.01-.72-.01-1.08,0-.2-.17-.38-.38-.38s-.37.16-.38.38c0,.68,0,1.37.12,2.04.12.61.4,1.22.95,1.55.31.19.68.26,1.03.28.41.01.84-.04,1.21-.22.66-.31.91-1.01.98-1.68s-.03-1.4-.03-2.11c0-.2-.17-.38-.38-.38s-.38.16-.38.38h0Z"/>
      <path class="st0" d="M31.39,29.61c.14.08.22.3.29.44.09.2.15.4.23.6.13.32.27.64.39.97.27.73.5,1.47.66,2.23.26,1.24.42,2.82-.36,3.83-.49.63-1.28.89-2.06.95-.48.04-.48.79,0,.75.87-.07,1.73-.32,2.38-.94.54-.52.83-1.23.94-1.96.24-1.64-.21-3.36-.77-4.89-.15-.4-.33-.82-.48-1.21-.2-.49-.35-1.13-.84-1.42-.42-.25-.79.4-.38.65h0Z"/>
    </g>
  </g>
  <g>
    <path class="st2" d="M27.33,11.76c-2.57-.02-5.57-.01-7.7,1.6-.31.23-.64.7-1.02.81-.34.1-.67-.1-1.02-.1-.53,0-1.04.02-1.51.29-.87.48-1.38,1.43-1.69,2.37s-.5,1.93-.94,2.82c-.15.31-.34.62-.33.96s.37.69.68.55c-1.68.74-1.8,5.1-.48,6.18.28.22.75.23.94-.06.04-.06,1.17,2.2,1.2,2.47.03.25.1.58.35.61.1.01.19-.03.27-.08.65-.39.92-1.31.57-1.98.4.55.94,1,1.56,1.29.34-.14.57-.53.51-.89.12,1,2.86,1.73,3.64,1.94,1.48.38,3.03.5,4.56.5,1.16,0,2.34-.07,3.46-.36.59-.15,1.17-.36,1.71-.65.43-.23.78-.66,1.29-.71.03.09.1.15.13.22.35-.32.91-.29,1.31-.53-.28.17.62.38.68.38.35,0,.68-.21.96-.41.65-.47,1.12-1.19,1.57-1.84.44.19.98,0,1.31-.35s.47-.84.54-1.32c.11-.81,0-1.63-.21-2.42-.09-.35-.84-1.9-.54-2.09.11-.07.26-.1.32-.21.09-.15,0-.33-.09-.49-.75-1.35-.42-3.17-1.41-4.35-.41-.48-.98-.78-1.54-1.06-.94-.48-1.95-.97-2.99-.81-1.49-1.6-3.96-2.24-6.09-2.26Z"/>
    <path class="st3" d="M19.58,26.12c.77-.84,1.87-1.18,2.86-1.67,1.2-.59,1.7-1.25,2.22-2.43.02-.05.04-.11.06-.16.44-1.7.48-3.64.23-5.38-.24-1.69-.89-3.24-2.09-4.44-1.17.22-2.28.61-3.22,1.32-.31.23-.64.7-1.02.81-.34.1-.67-.1-1.02-.1-.53,0-1.04.02-1.51.29-.87.48-1.38,1.43-1.69,2.37-.32.94-.5,1.93-.94,2.82-.15.31-.34.62-.33.96.02.34.37.69.68.55-1.68.74-1.8,5.1-.48,6.18.28.22.75.23.94-.06.04-.06,1.17,2.2,1.2,2.47.03.25.1.58.35.61.1.01.19-.03.27-.08.65-.39.92-1.31.57-1.98.4.55.94,1,1.56,1.29.26-.1.44-.34.5-.61-.15-.3-.21-.64-.12-1.03.14-.64.56-1.23,1-1.71Z"/>
    <path class="st3" d="M39.67,23.03c-.09-.35-.84-1.9-.54-2.09.11-.07.26-.1.32-.21.09-.15,0-.33-.09-.49-.75-1.35-.42-3.17-1.41-4.35-.41-.48-.98-.78-1.54-1.06-.94-.48-1.95-.97-2.99-.81-1.29-1.39-3.33-2.05-5.23-2.22-.66,2.08-1.19,4.24-1.23,6.43-.03,1.58-.13,3.49.93,4.83,1.24,1.56,3.48,1.77,4.62,3.56.5.78.71,1.76.47,2.66-.09.34,1.73-.21,1.85-.29-.28.17.62.38.68.38.35,0,.68-.21.96-.41.65-.47,1.12-1.19,1.57-1.84.44.19.98,0,1.31-.35s.47-.84.54-1.32c.11-.81,0-1.63-.21-2.42Z"/>
    <path class="st1" d="M16.05,24.61c.18-.96.48-1.87.49-2.86,0-.97-.08-1.91.06-2.87.25-1.66.9-3.22,1.7-4.69-.23-.02-.47-.12-.71-.12-.53,0-1.04.02-1.51.29-.87.48-1.38,1.43-1.69,2.37-.32.94-.5,1.93-.94,2.82-.15.31-.34.62-.33.96.02.34.37.69.68.55-1.68.74-1.8,5.1-.48,6.18.28.22.75.23.94-.06.04-.06,1.17,2.2,1.2,2.47.03.25.1.58.35.61.1.01.19-.03.27-.08.51-.3.77-.92.71-1.5-.76-1.19-.98-2.68-.73-4.06Z"/>
    <path class="st1" d="M39.67,23.03c-.09-.35-.84-1.9-.54-2.09.11-.07.26-.1.32-.21.09-.15,0-.33-.09-.49-.75-1.35-.42-3.17-1.41-4.35-.41-.48-.98-.78-1.54-1.06-.84-.43-1.73-.86-2.66-.84.56,1.15,1.03,2.36,1.31,3.59.23,1.02.21,2.02.15,3.05-.02.42,0,.83.03,1.23.1.07.18.16.2.28.21,1.13.57,2.26.56,3.42,0,.58-.12,1.16-.27,1.72-.14.5-.38,1.15-.74,1.65-.03.08-.05.16-.08.24.2.1.57.19.6.18.35,0,.68-.21.96-.41.65-.47,1.12-1.19,1.57-1.84.44.19.98,0,1.31-.35s.47-.84.54-1.32c.11-.81,0-1.63-.21-2.42Z"/>
    <g>
      <path class="st0" d="M24.04,11.54c.05.02.1.03.15.05l-.09-.04c.12.05.24.12.34.2l-.08-.06c.11.09.21.19.3.3l-.06-.08c.09.11.16.23.21.36l-.04-.09c.03.07.05.13.07.2.02.09.09.18.17.22.04.03.09.04.14.04.05.01.1,0,.15,0,.09-.03.18-.09.22-.17s.06-.19.04-.29c-.04-.13-.09-.26-.15-.39s-.14-.23-.23-.34c-.07-.08-.14-.16-.22-.23-.1-.09-.21-.17-.33-.24-.13-.07-.27-.13-.41-.18-.09-.03-.21-.01-.29.04-.08.05-.15.13-.17.22-.02.1-.02.2.04.29s.13.14.22.17h0Z"/>
      <path class="st0" d="M25.83,11.31s.05.05.07.08l-.06-.08c.08.11.15.22.2.35l-.04-.09c.06.14.09.28.11.42v-.1c0,.14,0,.28-.01.43v-.1s0,.04,0,.06c-.02.05-.02.1,0,.15,0,.05.02.1.04.14.05.08.13.15.22.17.1.02.2.02.29-.04.08-.05.16-.13.17-.22.02-.12.04-.25.04-.38s-.02-.25-.04-.38c-.02-.09-.04-.19-.07-.28-.04-.12-.09-.23-.15-.34-.07-.12-.15-.23-.24-.33-.06-.07-.17-.11-.27-.11s-.2.04-.27.11-.11.17-.11.27.04.19.11.27h0Z"/>
      <path class="st0" d="M23.44,11.84c-1.74-.05-3.44.61-4.74,1.76-1.37,1.21-2.15,2.95-2.43,4.73-.17,1.06-.2,2.12-.12,3.19.04.48.79.48.75,0-.13-1.7-.01-3.49.67-5.07.64-1.5,1.81-2.71,3.31-3.37.8-.35,1.68-.52,2.55-.49.48.01.48-.74,0-.75h0Z"/>
      <path class="st0" d="M16.15,22.66c-.39,1.16-.66,2.41-.51,3.65.13,1.02.55,2.02,1.31,2.73.41.38.91.67,1.45.8.47.11.67-.61.2-.72-.81-.19-1.42-.79-1.81-1.52-.46-.87-.53-1.9-.4-2.86.09-.64.26-1.27.47-1.88.06-.19-.07-.41-.26-.46-.2-.06-.4.07-.46.26h0Z"/>
      <path class="st0" d="M18.15,28.28c.15,1,.96,1.71,1.85,2.1.96.43,2.02.61,3.06.67.47.03.95.03,1.42-.02.2-.02.38-.16.38-.38,0-.19-.17-.4-.38-.38-.39.04-.78.05-1.17.03-.23,0-.46-.02-.7-.05-.12-.01-.23-.02-.35-.04-.07,0,.09.01-.02,0-.03,0-.07,0-.1-.01-.07-.01-.13-.02-.2-.03-.48-.08-.97-.2-1.42-.38-.02,0-.17-.07-.09-.04-.05-.02-.1-.04-.15-.07-.11-.05-.23-.11-.33-.17-.09-.05-.17-.11-.26-.16-.02-.01-.14-.1-.07-.05-.05-.04-.1-.08-.15-.12-.09-.08-.17-.17-.25-.26-.01-.01-.02-.03-.04-.04.06.08-.01-.02-.03-.04-.03-.05-.06-.09-.09-.14s-.05-.1-.08-.15c0-.02-.04-.1,0-.01-.01-.03-.02-.05-.03-.08-.04-.12-.07-.24-.09-.37-.03-.2-.28-.31-.46-.26-.21.06-.29.26-.26.46h0Z"/>
      <path class="st0" d="M28.46,12.59c1.57-.04,3.13.55,4.29,1.61,1.26,1.15,1.92,2.75,2.17,4.41.15.96.15,1.95.08,2.91-.04.48.71.48.75,0,.14-1.85-.03-3.76-.78-5.48-.71-1.62-2.01-2.94-3.64-3.64-.91-.39-1.88-.59-2.87-.57-.48.01-.48.76,0,.75h0Z"/>
      <path class="st0" d="M35.03,22.85c.61,1.81.95,4.12-.56,5.6-.33.33-.72.55-1.17.66s-.27.83.2.72c.98-.23,1.76-.96,2.23-1.82.55-1,.66-2.17.52-3.29-.09-.71-.27-1.39-.49-2.07-.06-.19-.26-.32-.46-.26-.19.05-.33.27-.26.46h0Z"/>
      <path class="st0" d="M33.03,28.08c-.02.1-.04.19-.07.29-.01.04-.03.08-.04.12-.02.06,0,0,0-.02-.01.03-.03.06-.04.09-.04.08-.08.15-.13.23-.02.04-.05.07-.08.11.06-.08-.04.04-.06.07-.06.07-.13.14-.2.2-.03.03-.07.06-.1.09-.02.02-.04.03-.05.04-.01.01-.03.02-.04.03.03-.03.04-.03.02-.02-.18.11-.34.23-.53.33-.09.05-.18.09-.27.13-.05.02-.09.04-.14.06-.09.04.07-.03-.02,0-.03.01-.06.02-.09.03-.21.08-.43.16-.64.22-.41.12-.83.2-1.25.27-.06,0,.09-.01,0,0-.03,0-.07,0-.1.01-.05,0-.11.01-.16.02-.1.01-.21.02-.32.02-.19.01-.38.02-.57,0-.2,0-.38.18-.38.38,0,.21.17.37.38.38.84.03,1.7-.11,2.51-.33.87-.24,1.78-.63,2.42-1.29.34-.36.6-.81.68-1.3.03-.2-.05-.4-.26-.46-.18-.05-.43.06-.46.26h0Z"/>
      <path class="st0" d="M33.71,14.51c1.17-.03,2.32.42,3.2,1.2.45.4.82.86,1.11,1.38.31.57.46,1.17.58,1.8.15.79.32,1.56.83,2.21.12.16.4.13.53,0,.16-.16.13-.37,0-.53-.42-.53-.51-1.26-.64-1.9s-.3-1.31-.62-1.91c-.61-1.14-1.62-2.07-2.81-2.57-.68-.29-1.42-.45-2.17-.42-.48.01-.48.76,0,.75h0Z"/>
      <path class="st0" d="M38.46,21.38c.48.97.99,2.01,1.04,3.11.04.9-.2,1.82-.91,2.39-.16.13-.13.4,0,.53.16.16.37.13.53,0,.67-.54,1-1.37,1.11-2.21.11-.91-.09-1.82-.42-2.67-.2-.53-.45-1.03-.7-1.54-.09-.18-.35-.23-.51-.13-.19.11-.22.33-.13.51h0Z"/>
      <path class="st0" d="M37.8,25.95c-.04.27-.1.54-.2.8-.02.06-.04.12-.07.18,0,.01-.01.03-.02.04,0,0,.04-.08,0-.02-.01.03-.03.07-.04.1-.06.12-.12.24-.19.36s-.14.22-.22.33c-.02.03-.04.06-.06.09-.03.04.05-.06.01-.02,0,.01-.02.03-.03.04-.04.05-.09.1-.13.16-.09.1-.18.2-.28.29-.05.04-.09.09-.14.13-.02.02-.05.04-.07.06-.01,0-.02.02-.04.03-.07.05.07-.05,0,0-.24.18-.5.33-.77.46-.18.08-.24.36-.13.51.12.19.32.22.51.13,1.09-.48,1.92-1.45,2.34-2.54.12-.3.2-.61.24-.92.01-.1.02-.19-.04-.29-.05-.08-.13-.15-.22-.17-.18-.04-.43.05-.46.26h0Z"/>
      <path class="st0" d="M18.24,13.96c-1.08-.6-2.43-.11-3.2.78-.85,1-1.14,2.3-1.49,3.52-.2.69-.43,1.37-.83,1.98-.11.17-.03.42.13.51.18.11.4.03.51-.13.69-1.04.91-2.28,1.27-3.45.31-1.01.78-2.08,1.78-2.55.46-.21,1-.25,1.44,0s.8-.41.38-.65h0Z"/>
      <path class="st0" d="M13.73,20.68c-1.24,1.39-1.71,3.36-1.35,5.17.1.51.28,1.01.52,1.48.09.18.35.23.51.13.18-.11.23-.33.13-.51-.73-1.41-.71-3.2-.03-4.62.2-.41.44-.79.74-1.12.13-.15.15-.38,0-.53-.14-.14-.4-.15-.53,0h0Z"/>
      <path class="st0" d="M13.76,25.52c-.05.83.2,1.63.63,2.33.2.33.44.65.59,1.02-.02-.06.02.04.02.05.02.05.03.1.05.14.03.1.05.2.07.29-.01-.07,0,.05,0,.05,0,.05,0,.1,0,.15,0,.01-.01.16,0,.09,0,.05-.02.1-.03.15-.05.19.06.42.26.46s.41-.06.46-.26c.22-.86-.23-1.64-.67-2.35-.11-.17-.21-.33-.3-.51-.02-.05-.05-.09-.07-.14-.01-.02-.02-.05-.03-.07.01.03.01.02,0-.02-.03-.08-.06-.17-.09-.26-.03-.1-.06-.2-.08-.3-.01-.05-.02-.1-.03-.15,0,0-.02-.12,0-.05-.02-.21-.03-.41-.02-.62.01-.2-.18-.38-.38-.38-.21,0-.36.16-.38.38h0Z"/>
    </g>
  </g>
</svg>