<?xml version="1.0" encoding="UTF-8"?>
<svg id="_얼굴없는" data-name="얼굴없는" xmlns="http://www.w3.org/2000/svg" version="1.1" viewBox="0 0 50.83 48.47">
  <!-- Generator: Adobe Illustrator 29.8.2, SVG Export Plug-In . SVG Version: 2.1.1 Build 3)  -->
  <defs>
    <style>
      .st0 {
        fill: #231f20;
      }

      .st1 {
        fill: #fff;
      }

      .st2 {
        fill: #888;
      }
    </style>
  </defs>
  <g>
    <path class="st1" d="M34.93,32.69c-.36-.01-.71.08-.96.34-.04.04-.07.08-.08.13,0,.06.03.13.06.18.54.95.62,2.14.21,3.15-.15.38-.38.74-.72.96s-.8.29-1.15.08c.45-2.05-.36-4.18-1.17-6.04-.15-.34-.35-1.03-.66-1.25-1.08-1.64-2.91-2.78-4.86-3-2.02-.23-4.12.5-5.56,1.93-2.51,2.5-4.47,11.26,1.33,10.97l.41-.44c.19.31.49.53.98.6,1.74.24,2.15-.84,2.25-2.14.1,1.29.51,2.37,2.25,2.14,1-.14,1.95-.26,2.9-.59.97-.34,1.86-.15,2.83-.09,1.08.06,2.18-.54,3.01-1.18.84-.64,1.14-1.53,1.2-2.55.05-.9,0-1.91-.65-2.53-.2-.19-.43-.32-.68-.43-.29-.13-.62-.23-.94-.24Z"/>
    <path class="st2" d="M33.58,38.65c1.8-.71,3.08-2.72,2.62-4.69-.05-.2-.11-.4-.24-.57-.21-.28-.56-.42-.91-.45-.25-.02-1.37-.08-1.1.4.54.95.62,2.14.21,3.15-.15.38-.38.74-.72.96-.65.43-1.12.2-1.48,1.06-.25.61,1.09.31,1.31.24.1-.03.2-.07.3-.11Z"/>
    <g>
      <path class="st2" d="M21.04,32.05c-.41-.7-1.2-1.3-1.88-1.68-.42-.24-1.58,5.03-1.52,5.55.38-.31.74-.47,1.22-.64.69-.24,1.4-.51,1.9-1.04.72-.76.67-1.52.29-2.19Z"/>
      <path class="st2" d="M31.13,31.49c-.09-.21-.21-.56-.36-.85-.23.17-.47.33-.69.51-.79.64-2.01,1.44-1.41,2.64.62,1.25,2.49,1.63,3.65,2.18.65-.82-.82-3.63-1.18-4.47Z"/>
    </g>
    <g>
      <path class="st0" d="M21.15,36.71c0,.63-.08,1.26-.05,1.89.04.68.23,1.37.81,1.78.32.23.73.3,1.11.32.36.02.73-.01,1.06-.15s.59-.35.8-.64c.18-.25.29-.54.36-.84.18-.73.17-1.5.16-2.24,0-.2-.17-.38-.38-.38s-.38.16-.38.38c0,.32,0,.64,0,.95,0,.16-.01.31-.03.47,0,.07-.01.14-.02.22,0,.03-.02.1,0-.02,0,.02,0,.04,0,.06,0,.04-.01.08-.02.11-.02.14-.06.28-.1.41-.02.06-.04.12-.06.18-.03.09.04-.08,0,0-.02.04-.03.07-.05.11-.03.05-.06.11-.09.16-.02.02-.03.04-.05.07-.04.05.06-.07.02-.02-.01.02-.03.03-.04.05-.04.04-.08.09-.13.13-.01,0-.02.02-.03.03-.03.03.08-.06.03-.02-.03.02-.06.04-.1.07-.05.03-.12.05-.17.09.05-.04.08-.03.04-.02-.02,0-.03.01-.05.02-.04.01-.08.03-.12.04-.07.02-.14.03-.21.04,0,0,.1-.01.04,0-.02,0-.04,0-.06,0-.05,0-.1,0-.14,0-.08,0-.17,0-.25,0-.05,0-.1,0-.15-.01-.03,0-.05,0-.08,0-.09-.01.08.01,0,0s-.15-.03-.23-.05c-.04-.01-.08-.03-.11-.04-.07-.02.08.04.02,0-.02,0-.03-.02-.05-.02-.06-.03-.11-.07-.17-.1s.07.06.02.02c-.01-.01-.03-.02-.04-.03-.03-.02-.05-.05-.07-.07-.02-.02-.04-.06-.07-.08.06.04.05.07.03.04,0-.01-.02-.03-.03-.04-.04-.06-.07-.12-.1-.18,0-.02-.01-.03-.02-.05-.03-.06.03.09.01.03,0-.03-.02-.05-.03-.08-.02-.07-.04-.14-.06-.21-.02-.07-.03-.13-.04-.2,0-.02,0-.04,0-.06.02.11,0,.06,0,.03,0-.04,0-.08-.01-.13-.06-.67.04-1.34.04-2.01,0-.2-.17-.38-.38-.38s-.37.16-.38.38h0Z"/>
      <path class="st0" d="M30.9,30.2c-1.32-2.09-3.69-3.43-6.17-3.38-2.15.04-4.33,1.08-5.58,2.86-.84,1.21-1.38,2.67-1.68,4.1s-.42,3.02.11,4.41c.27.7.7,1.32,1.33,1.74.72.48,1.61.62,2.47.59.48-.02.48-.77,0-.75-1.26.06-2.4-.37-2.97-1.54s-.51-2.55-.31-3.76c.22-1.35.66-2.68,1.35-3.86.9-1.55,2.45-2.57,4.21-2.91,2.55-.5,5.21.71,6.59,2.9.26.41.91.03.65-.38h0Z"/>
      <path class="st0" d="M28.13,36.71c0,.6.08,1.19.05,1.79,0,.07,0,.14-.01.22,0,.04,0,.07-.01.11,0,.02,0,.03,0,.05.01-.13,0-.03,0,0-.02.14-.05.28-.1.41,0,.03-.02.05-.03.08-.02.07.04-.09.01-.03,0,.02-.01.03-.02.05-.03.06-.06.12-.1.18,0,.01-.02.02-.02.03-.02.04-.04.02.02-.03-.02.02-.04.05-.07.08-.02.02-.04.04-.06.06-.01.01-.03.02-.04.03-.07.06.06-.04,0,0-.06.04-.11.07-.17.1-.03.02-.13.04-.01,0-.04.01-.09.03-.13.05-.08.02-.15.04-.23.05-.03,0-.04.02.03,0-.02,0-.06,0-.08,0-.06,0-.11.01-.17.01-.08,0-.17,0-.25,0-.04,0-.09,0-.13,0-.04,0-.17-.03-.05,0-.07-.02-.14-.02-.21-.04-.04,0-.07-.02-.11-.03-.02,0-.03-.01-.05-.02-.04-.02-.04-.04.02.01-.04-.04-.12-.06-.17-.09-.03-.02-.06-.04-.08-.06-.01,0-.06-.04,0,0s0,0-.01-.01c-.05-.04-.09-.08-.13-.13-.03-.03-.08-.12-.01-.01-.02-.03-.04-.05-.06-.08-.03-.05-.06-.1-.09-.16-.02-.03-.03-.06-.04-.09,0-.01,0-.02-.01-.03-.03-.06.04.1,0,0-.05-.13-.09-.26-.12-.39-.02-.08-.03-.16-.05-.24,0-.04-.01-.08-.02-.11-.01-.07.01.1,0,.02,0-.02,0-.05,0-.07-.02-.17-.03-.34-.04-.51-.02-.36-.01-.72-.01-1.08,0-.2-.17-.38-.38-.38s-.37.16-.38.38c0,.68,0,1.37.12,2.04.12.61.4,1.22.95,1.55.31.19.68.26,1.03.28.41.01.84-.04,1.21-.22.66-.31.91-1.01.98-1.68s-.03-1.4-.03-2.11c0-.2-.17-.38-.38-.38s-.38.16-.38.38h0Z"/>
      <path class="st0" d="M30.24,30.53c.14.08.22.3.29.44.09.2.15.4.23.6.13.32.27.64.39.97.27.73.5,1.47.66,2.23.26,1.24.42,2.82-.36,3.83-.49.63-1.28.89-2.06.95-.48.04-.48.79,0,.75.87-.07,1.73-.32,2.38-.94.54-.52.83-1.23.94-1.96.24-1.64-.21-3.36-.77-4.89-.15-.4-.33-.82-.48-1.21-.2-.49-.35-1.13-.84-1.42-.42-.25-.79.4-.38.65h0Z"/>
      <path class="st0" d="M36.87,35.92c-.01.11.01-.08,0,.03,0,.02,0,.04-.01.07,0,.05-.02.11-.03.16-.02.11-.05.22-.08.32-.03.09-.06.19-.09.28-.02.05-.04.1-.06.15,0,.01-.03.07,0,0-.01.03-.03.06-.04.09-.09.2-.2.39-.32.57-.05.08-.11.16-.17.24.04-.06,0,0,0,0-.02.03-.04.05-.06.08-.03.04-.07.08-.11.12-.14.16-.29.3-.45.43-.02.02-.04.03-.06.05.05-.04.01,0,0,0-.04.03-.09.06-.13.09-.09.06-.18.12-.27.17-.08.05-.17.09-.25.14-.05.02-.1.04-.15.07.07-.03.01,0,0,0-.03.01-.07.03-.11.04-.2.07-.4.13-.61.17-.02,0-.04,0-.06.01-.03,0-.1.01-.03,0-.07,0-.13.02-.2.02-.12,0-.25.01-.37,0s-.24-.01-.36-.03c-.07,0,.09.02-.02,0-.03,0-.07-.01-.1-.02-.07-.01-.14-.03-.21-.04-.19-.05-.42.06-.46.26s.06.41.26.46c.98.23,2.01.11,2.9-.36.82-.43,1.51-1.15,1.92-1.98.25-.51.41-1.04.47-1.6.02-.2-.19-.38-.38-.38-.22,0-.35.17-.38.38h0Z"/>
      <path class="st0" d="M32.98,38.18c1.31-.33,2.02-1.81,1.95-3.08-.02-.35-.1-.68-.23-1-.06-.13-.13-.26-.21-.37-.11-.15-.24-.27-.36-.42.05.05-.05-.06-.04-.07.02,0,.01.06.02.06-.02-.07,0-.02,0,0-.04.07-.02.03.02,0-.04.04,0,0,.01,0,.03-.01.05-.03.08-.04,0,0,.08-.03.03-.02s.02,0,.03-.01c.04-.02.08-.03.13-.04.09-.03.18-.05.27-.06.07-.01.01,0,0,0,.02,0,.04,0,.06,0,.04,0,.08,0,.13,0,.09,0,.18,0,.27.01.06,0-.06-.01,0,0,.02,0,.04,0,.06.01.04,0,.08.02.12.03.09.02.17.05.25.08.01,0,.07.03,0,0,.02.01.05.02.07.03.04.02.08.04.13.06.08.05.16.1.24.15.02.01.03.02.05.04-.07-.05.01.01.02.02.04.03.07.06.1.09.07.07.14.14.2.22.01.01.04.06,0,0,.01.02.02.03.04.05.03.04.06.09.09.13.05.08.09.16.13.25-.03-.07,0-.02,0,0,.01.03.02.06.03.09.01.04.03.08.04.12.01.05.03.1.04.16,0,.02,0,.04.01.06-.01-.07,0,0,0,.03.02.19.16.38.38.38.19,0,.4-.17.38-.38-.08-.82-.53-1.54-1.23-1.98s-1.58-.52-2.34-.18c-.23.1-.47.27-.53.53-.08.29.05.55.24.76.06.07.13.13.19.2.01.01.02.03.03.04.03.04-.04-.06-.01-.01.02.04.05.07.07.11.04.06.07.12.1.18,0,.02.06.14.02.04.01.04.03.07.04.11.02.07.05.14.06.22,0,.03.02.07.02.11,0,.02,0,.04,0,.05,0,.01.01.09,0,.03,0-.06,0,0,0,.02,0,.02,0,.05,0,.07,0,.04,0,.07,0,.11,0,.08,0,.17,0,.25,0,.07-.01.15-.02.22,0,.02-.01.07,0-.02,0,.02,0,.04,0,.06,0,.05-.02.09-.03.14-.03.16-.08.31-.13.46,0,.02-.07.15-.02.07-.02.04-.03.08-.05.11-.04.08-.08.15-.13.23s-.1.14-.14.21c-.03.05.06-.07,0,0-.01.02-.03.03-.04.05-.03.03-.05.06-.08.09-.06.06-.13.12-.19.18-.02.01-.06.04.01-.01-.02.01-.04.03-.05.04-.04.03-.07.05-.11.07-.07.04-.14.08-.22.11.09-.04-.03,0-.06.02-.04.01-.08.03-.13.04-.2.05-.31.27-.26.46s.26.31.46.26h0Z"/>
    </g>
  </g>
  <g>
    <g>
      <path class="st2" d="M38.12,22.7c-.04-.33-.09-.66-.15-.98-.18-.91-.45-1.81-.81-2.67-.44-1.05-.58-1.37-.53-2.5.04-1.02-.08-2.07-.16-3.09-.07-.94-.16-2.01-.56-2.88-.22-.47-.61-.84-.97-1.22-.23.09-.46.16-.68.26-1.66.76-2.99,2.32-3.46,4.05-1.5-.76-3.23-.93-4.89-1.05-1.92-.14-3.86.04-5.72.53-.36.1-1.33.72-1.64.63-.57-.16-1.3-1.96-1.72-2.46-.67-.8-2.07-2.6-3.22-1.59-.77.67-.84,2.3-.89,3.23-.07,1.43-.2,3.28.3,4.66.32.89.61,1.19.29,2.25-.65,2.16-1.34,4.46-.72,6.64.76,2.69,3.84,4.83,6.54,5.26,2.76.45,5.86.38,8.66.3,1.96-.06,4.08-.3,5.94-1.09,1.48-.63,3.78-2.11,4.15-3.73.34-1.49.41-3.04.23-4.56Z"/>
      <path class="st1" d="M14.74,11.65s-.08,0-.12.02c-.57.21-.49,1.55-.52,2.01-.05.87.08,1.66.24,2.5.03.16.14.33.3.33.12,0,.21-.1.29-.19.31-.35.64-.67.99-.98.26-.22.65-.4.87-.66.21-.24-.1-.71-.22-.93-.27-.49-.58-.97-.96-1.38-.2-.22-.55-.72-.89-.73Z"/>
      <path class="st1" d="M34.6,12.01c-.25-.5-.75-.36-1.06.16-.3.51-.5,1.06-.73,1.6-.27.63-.69.95.11,1.36.4.21.81.41,1.21.62.07.03.13.07.21.07.16.01.3-.11.36-.25.42-.95.25-2.42-.04-3.38-.02-.07-.04-.13-.07-.18Z"/>
      <path class="st1" d="M33.88,24.22c.02-.2.05-.39.05-.59,0-2.79-2.01-5.05-4.48-5.05-1.87,0-3.47,1.3-4.14,3.14-.67-1.84-2.27-3.14-4.14-3.14-2.47,0-4.48,2.26-4.48,5.05,0,.12.02.24.03.36-1.85.64-2.85,2.25-2.67,3.74.54,4.49,9.44,4.53,11,4.49,1.3,0,10.24.33,11.38-4.49.35-1.48-.81-2.92-2.55-3.5Z"/>
    </g>
    <g>
      <path class="st0" d="M16.74,15.77c1.54-1.48,3.68-2.22,5.75-2.55,2.4-.38,4.92-.19,7.23.55,1.31.42,2.54,1.04,3.64,1.86.39.29.76-.36.38-.65-2.07-1.54-4.59-2.35-7.14-2.61s-5,.01-7.28.93c-1.14.46-2.22,1.08-3.12,1.94-.35.33.18.86.53.53h0Z"/>
      <path class="st0" d="M14.35,16.56c-1.33,2.55-2.6,5.45-2.52,8.38.04,1.25.36,2.51,1.1,3.53.83,1.15,2.07,2.03,3.34,2.64,1.5.71,3.14,1.07,4.79,1.14.48.02.48-.73,0-.75-2.67-.13-5.53-1.08-7.3-3.18-1.63-1.93-1.3-4.71-.63-6.95.46-1.54,1.12-3.01,1.87-4.43.22-.43-.42-.81-.65-.38h0Z"/>
      <path class="st0" d="M35.49,16.94c1.24,2.37,2.42,5.05,2.42,7.78,0,1.16-.26,2.3-.93,3.27-.74,1.08-1.93,1.89-3.1,2.45-1.39.67-2.93.99-4.46,1.06-.48.02-.48.77,0,.75,2.86-.13,5.98-1.16,7.86-3.43,1.75-2.12,1.55-5.01.84-7.5-.48-1.65-1.19-3.24-1.98-4.76-.22-.43-.87-.05-.65.38h0Z"/>
      <path class="st0" d="M31,13.68c.5-1,1.17-1.95,1.93-2.78.37-.4.76-.79,1.22-1.06.19-.11.35-.18.51-.21-.03,0,.08,0,.11,0,.03,0,.14.02.05,0,.04,0,.08.02.12.03.09.02-.04-.04.03.01.03.02.06.04.09.05.07.04-.04-.05.02.02.02.02.05.05.07.07s.1.12.04.04c.11.14.19.3.27.46.04.09,0,0,.03.08.02.05.04.1.06.15.04.1.07.21.1.32.07.23.13.47.17.71.22,1.05.3,2.12.35,3.21.04.94.05,1.88.03,2.83,0,.48.74.48.75,0,.04-2.03,0-4.11-.38-6.11-.16-.82-.39-1.9-1.12-2.41-.91-.64-2.03.26-2.66.88-.54.52-1,1.1-1.44,1.71-.37.52-.71,1.05-1,1.62-.21.43.43.81.65.38h0Z"/>
      <path class="st0" d="M33.03,14.33c.1-.3.21-.61.33-.9,0-.02.02-.04.03-.07.01-.03.05-.11,0,0,.02-.05.04-.1.07-.15.04-.1.09-.2.14-.3.1-.2.21-.39.32-.58.07-.11.14-.21.21-.31.03-.04-.05.07-.02.03.01-.01.02-.03.03-.04.02-.03.04-.05.06-.07.04-.05.08-.1.13-.14.14-.14.15-.39,0-.53s-.39-.15-.53,0c-.64.67-1.02,1.55-1.33,2.4-.05.15-.11.3-.16.46-.06.19.07.42.26.46.21.05.39-.06.46-.26h0Z"/>
      <path class="st0" d="M12.47,16.05c.09.84.29,1.67.5,2.49.04.16.08.32.12.48.05.19.27.32.46.26s.32-.26.26-.46c-.19-.73-.38-1.46-.51-2.2-.02-.11-.04-.23-.06-.34,0-.02,0-.05-.01-.07-.01-.08.01.1,0,0,0-.05-.01-.1-.02-.15-.01-.1-.03-.19-.11-.27-.07-.07-.17-.11-.27-.11-.19,0-.4.17-.38.38h0Z"/>
      <path class="st0" d="M18.64,13.38c-.6-.96-1.29-1.87-2.09-2.67-.58-.58-1.29-1.22-2.11-1.43-.3-.08-.66-.1-.94.05-.17.09-.29.25-.4.4-.32.47-.49,1.07-.6,1.62-.24,1.14-.27,2.32-.2,3.48.01.2.16.38.38.38.19,0,.39-.17.38-.38-.03-.55-.04-1.1-.02-1.65.01-.24.03-.47.05-.7s.04-.34.07-.56c.06-.34.13-.68.23-1.01.04-.13.09-.26.14-.39.03-.09-.03.07,0-.01.01-.03.02-.05.04-.08.02-.05.05-.1.07-.15.04-.08.1-.15.14-.23-.05.09-.03.03.01-.01.02-.02.05-.05.07-.07.03-.04-.09.06-.04.03.01,0,.02-.01.03-.02.05-.03-.01.02-.05.02.02,0,.05-.02.07-.02.02,0,.05,0,.07-.02-.09.03-.04,0,.01,0,.03,0,.06,0,.09,0,.03,0,.15.02.04,0,.14.03.27.06.41.12-.09-.03.02.01.04.02.04.02.07.04.11.05.09.05.17.09.25.15.07.05.15.09.22.14.04.03.08.06.12.09,0,0,.07.05.04.03-.03-.02.04.04.05.04.18.14.35.29.51.45.83.8,1.54,1.73,2.15,2.7.11.17.33.24.51.13s.24-.34.13-.51h0Z"/>
      <path class="st0" d="M17.08,14.63c-.23-.88-.64-1.71-1.19-2.43-.17-.22-.34-.43-.53-.62-.14-.14-.4-.15-.53,0s-.15.38,0,.53.29.31.42.48c.06.07-.03-.04,0,0,.01.02.03.04.04.06.03.05.07.09.1.14.06.09.12.18.18.27.11.18.22.36.32.55.05.1.1.19.14.29,0,.02.02.04.03.07,0,.01,0,.02.01.03,0,0-.03-.07-.01-.03.02.05.04.1.06.16.09.23.16.46.23.7.05.19.27.32.46.26s.32-.26.26-.46h0Z"/>
    </g>
  </g>
</svg>