<?xml version="1.0" encoding="UTF-8"?>
<svg id="cat" xmlns="http://www.w3.org/2000/svg" version="1.1" viewBox="0 0 50.83 48.47">
  <!-- Generator: Adobe Illustrator 29.8.2, SVG Export Plug-In . SVG Version: 2.1.1 Build 3)  -->
  <defs>
    <style>
      .st0 {
        fill: #3eb8ea;
      }

      .st1 {
        fill: #231f20;
      }

      .st2 {
        fill: #fff;
      }

      .st3 {
        fill: #cdbeac;
      }
    </style>
  </defs>
  <path class="st2" d="M22.11,38.47c-1.42-.63-2.54-1.93-2.91-3.44s.02-3.2,1.05-4.36c1.43-1.61,3.75-2.03,5.89-2.25.75-.07,1.54-.13,2.24.15.57.23,1.03.67,1.48,1.09.8.76,1.61,1.54,2.14,2.51.77,1.42.85,3.2.2,4.68-.18.4-.41.79-.75,1.07-.29.23-.64.38-1,.49-1.2.37-2.48.41-3.73.45-1.55.05-3.13.26-4.6-.39Z"/>
  <g>
    <g>
      <path class="st3" d="M33.29,34.02c.36-.83.37-1.77.56-2.66.33-1.51,1.27-3.03,2.71-3.7.74-.35,1.62-.4,2.43-.32,1.09.11,1.19.1.82.95-.52,1.17-.64,2.24-.75,3.52-.1,1.14-.36,2.37-1.22,3.13-.53.47-1.24.7-1.75,1.2-.22.22-.4.48-.62.7-1.12,1.1-3.27.79-4.31-.3-.67-.7-.63-1.03.12-1.26.92-.28,1.55-.15,2.03-1.26Z"/>
      <g>
        <path class="st1" d="M32.13,37.43c.21.24.52.4.83.46.36.07.72.04,1.08-.04.19-.05.37-.1.56-.16.09-.03.17-.09.22-.17.05-.08.07-.2.04-.29-.06-.19-.26-.33-.46-.26-.28.09-.56.18-.85.22h.1c-.16,0-.32.01-.48,0h.1c-.13,0-.25-.04-.37-.09l.09.04c-.09-.04-.17-.09-.25-.14l.08.06c-.05-.04-.1-.09-.15-.14-.06-.07-.18-.11-.27-.11s-.2.04-.27.11-.11.17-.11.27.04.19.11.27h0Z"/>
        <path class="st1" d="M35.12,36.49s.01.05.02.08c.02.05.04.11.07.16.01.02.03.04.04.07.03.05.07.09.11.14.02.02.04.04.06.05.04.04.09.07.14.1.02.01.05.03.07.04.05.02.1.05.16.06.03,0,.06.02.09.02.06,0,.12.02.19.02.05,0,.1,0,.14-.03.05-.02.09-.04.12-.08.04-.03.06-.07.08-.12.02-.04.03-.09.03-.14v-.1c-.03-.06-.06-.12-.11-.17l-.08-.06c-.06-.03-.12-.05-.19-.05-.03,0-.06,0-.09,0h.1s-.1,0-.14-.03l.09.04s-.09-.05-.13-.08l.08.06s-.08-.07-.11-.11l.06.08s-.05-.08-.07-.12l.04.09s-.02-.06-.03-.1c-.01-.05-.03-.09-.07-.13-.03-.04-.06-.07-.11-.1-.04-.03-.09-.04-.14-.04-.05-.01-.1,0-.15,0l-.09.04c-.06.03-.1.08-.13.13l-.04.09c-.02.07-.02.13,0,.2h0Z"/>
        <path class="st1" d="M36.55,36.12c1.05-.49,1.86-1.44,2.35-2.48.28-.62.48-1.27.6-1.94s.17-1.37.25-2.06c.07-.62.24-1.32.82-1.65.42-.24.04-.89-.38-.65-1.24.7-1.16,2.26-1.31,3.49s-.49,2.48-1.26,3.46c-.39.5-.88.9-1.45,1.17-.18.09-.23.35-.13.51.11.19.33.22.51.13h0Z"/>
        <path class="st1" d="M32.66,35.24c.5-.2.89-.58,1.12-1.07.26-.55.32-1.15.37-1.76.1-1.11.3-2.23.96-3.16.32-.45.74-.8,1.23-1.04.18-.09.23-.35.13-.51-.11-.19-.33-.22-.51-.13-.97.46-1.64,1.34-2.04,2.31-.22.54-.35,1.1-.43,1.67s-.08,1.18-.21,1.75c-.11.47-.34,1.02-.82,1.21-.19.08-.32.25-.26.46.05.18.27.34.46.26h0Z"/>
        <path class="st1" d="M37.37,27.71c.23-.08.46-.13.7-.16h-.1c.34-.03.68-.03,1.02.01h-.1c.31.03.61.11.9.22.08.03.21,0,.29-.04s.15-.13.17-.22c.02-.1.02-.2-.04-.29s-.13-.13-.22-.17c-.89-.35-1.91-.37-2.81-.07-.19.06-.33.26-.26.46.06.18.26.33.46.26h0Z"/>
      </g>
    </g>
    <g>
      <path class="st2" d="M21.59,38.13c-1.42-.63-2.54-1.93-2.91-3.44s.02-3.2,1.05-4.36c1.43-1.61,3.75-2.03,5.89-2.25.75-.07,1.54-.13,2.24.15.57.23,1.03.67,1.48,1.09.8.76,1.61,1.54,2.14,2.51.77,1.42.85,3.2.2,4.68-.18.4-.41.79-.75,1.07-.29.23-.64.38-1,.49-1.2.37-2.48.41-3.73.45-1.55.05-3.13.26-4.6-.39Z"/>
      <path class="st3" d="M19.54,33.47c-2.19-.11.05,4.03.79,3.85.59-.14,1.12-.45,1.25-1.09.21-1.08-.51-2.45-1.63-2.7-.15-.03-.28-.05-.41-.06Z"/>
      <path class="st3" d="M30.7,33.28c-1.33.24-1.93,2.44-1.63,3.47.28.98,1.55.78,2.22.42,1.17-.63,1.29-3.7-.14-3.9-.16-.02-.3-.02-.44,0Z"/>
      <path class="st2" d="M18.6,27.8c-.34.52-.62,1.1-.65,1.72-.09,1.57,1.43,2.82,2.97,3.15,0-.17,0-.35-.01-.52,1.83.29,3.47,1.58,4.18,3.29.36-1.03,1.14-1.91,2.12-2.41.91-.46,2.01-.61,2.72-1.33-.07.16.11.35.29.34s.33-.13.47-.24c.99-.84,2.06-1.86,2.04-3.16,0-.47-.17-.93-.41-1.34-1.15-2-3.75-2.54-6.04-2.79-3.17-.34-5.88.53-7.67,3.31Z"/>
      <g>
        <g>
          <path class="st1" d="M21.09,35.61c.02.62.08,1.25.21,1.85.11.53.37,1.07.88,1.32.27.13.55.18.84.19.27,0,.57-.02.83-.08.31-.07.58-.26.73-.54.13-.24.19-.51.23-.78.11-.7.14-1.41.06-2.12-.01-.1-.03-.19-.11-.27-.07-.07-.17-.11-.27-.11-.18,0-.4.17-.38.38.06.56.06,1.12,0,1.68,0,.04,0,.07-.01.11,0,.02,0,.03,0,.05,0,.06,0-.07,0,0-.01.07-.02.14-.03.21-.02.11-.04.23-.07.34,0,.03-.02.05-.03.08,0,.01,0,.02-.01.03-.01.04.02-.04.02-.04-.02.02-.02.05-.03.07-.01.03-.03.05-.05.08,0,0-.01.02-.02.03,0,0,.05-.06.02-.03-.02.02-.04.04-.06.06,0,0-.04.03,0,0,.05-.03,0,0-.01,0-.02.01-.07.03-.08.04.02-.03.06-.02.02,0-.01,0-.02,0-.04.01-.03,0-.06.02-.09.02-.03,0-.05.01-.08.02-.02,0-.03,0-.05,0-.05,0,0,0,.02,0-.05.02-.12.01-.17.02-.06,0-.11,0-.17.01-.11,0-.23,0-.34,0-.01,0-.02,0-.04,0-.04,0,.04,0,.04,0-.03,0-.06,0-.08-.01-.06-.01-.12-.03-.17-.05-.02,0-.04-.02-.07-.02,0,0,.08.04.02,0-.01,0-.02-.01-.03-.02-.05-.03-.1-.06-.14-.09-.04-.03.05.05.02.01,0,0-.02-.02-.03-.02-.02-.02-.04-.04-.06-.06-.02-.02-.03-.03-.05-.05,0-.01-.04-.05,0,0s0,0,0,0c-.03-.04-.05-.08-.08-.13-.01-.02-.03-.05-.04-.07,0-.01,0-.02-.01-.03.05.08.02.04,0,.01-.04-.1-.07-.21-.1-.32-.03-.13-.05-.25-.07-.38-.01-.08-.02-.15-.03-.23,0-.01-.01-.08,0-.03s0-.02,0-.03c0-.04-.01-.08-.01-.12-.04-.32-.06-.64-.07-.97,0-.2-.17-.38-.38-.38s-.38.16-.38.38h0Z"/>
          <path class="st1" d="M28.82,35.61c0,.29-.03.57-.06.86,0,.07-.01.13-.02.2,0,.02,0,.03,0,.05,0,.07,0,0,0,0,0,.04-.01.08-.02.12-.02.12-.04.24-.06.37-.02.11-.05.22-.08.33-.02.05-.03.1-.05.15,0,0-.02.04-.02.04,0,0,.03-.07.01-.04-.01.03-.03.06-.04.08-.02.04-.05.09-.08.13,0,.01-.02.03-.03.04,0,0,.05-.06.02-.03-.02.02-.04.05-.06.07-.02.02-.03.03-.05.05-.01.01-.02.02-.04.03-.03.03.03-.02.03-.02-.05.02-.09.06-.14.09-.01,0-.1.05-.04.02.05-.02-.03,0-.04.01-.05.02-.11.03-.16.04-.03,0-.06,0-.08.01-.04,0,.04,0,.04,0,0,0-.05,0-.05,0-.06,0-.11,0-.17,0-.12,0-.23,0-.35-.01-.05,0-.11-.01-.16-.02-.04,0,.04,0,.04,0-.02,0-.04,0-.05,0-.03,0-.07-.01-.1-.02-.03,0-.05-.01-.08-.02-.02,0-.03-.01-.05-.02,0,0-.05-.02,0,0s0,0,0,0c-.01,0-.03-.02-.04-.03-.01,0-.02-.01-.03-.02-.04-.02.05.05.02.02-.02-.02-.04-.04-.06-.06,0,0-.03-.04,0,0,.03.05,0,0,0,0-.03-.04-.05-.09-.08-.14-.02-.04.02.04.02.04,0-.01-.01-.03-.02-.04,0-.02-.01-.04-.02-.07-.02-.06-.03-.11-.04-.17-.03-.13-.05-.26-.07-.39,0-.04,0,.02,0,.02,0-.02,0-.04,0-.06,0-.04,0-.08-.01-.12,0-.08-.02-.16-.02-.24-.01-.16-.02-.31-.02-.47,0-.32.01-.64.05-.95.02-.2-.19-.38-.38-.38-.22,0-.35.17-.38.38-.07.61-.06,1.22.02,1.83s.17,1.28.79,1.54c.27.11.57.14.85.15.27.01.55,0,.81-.09.27-.09.52-.24.7-.47s.3-.49.37-.76c.09-.32.13-.66.17-.99.04-.35.07-.69.08-1.04,0-.2-.18-.38-.38-.38-.21,0-.37.16-.38.38h0Z"/>
          <path class="st1" d="M22.38,37.6c0,.07,0,.14.02.22,0,.05.02.1.03.15.02.07.05.14.08.2.02.05.05.09.08.14.02.03.04.05.06.07.02.02.05.04.09.04.03.01.07.01.1,0,.03,0,.06-.01.09-.03.05-.03.1-.09.11-.15s.01-.14-.03-.19-.07-.11-.09-.17l.03.06c-.04-.08-.06-.17-.07-.26v.07s0-.1,0-.15c0-.03,0-.07-.02-.1-.01-.03-.03-.06-.05-.08-.02-.02-.05-.04-.08-.05-.03-.02-.06-.02-.1-.02-.06,0-.13.02-.18.07s-.07.11-.07.18h0Z"/>
          <path class="st1" d="M23.2,37.84l.09.5s.02.06.04.09c.02.03.04.05.07.06.03.02.06.03.09.03.03,0,.07,0,.1,0l.06-.03s.07-.05.09-.09l.03-.06s.01-.09,0-.13l-.09-.5s-.02-.06-.04-.09c-.02-.03-.04-.05-.07-.06-.03-.02-.06-.03-.09-.03-.03,0-.07,0-.1,0l-.06.03s-.07.05-.09.09l-.03.06s-.01.09,0,.13h0Z"/>
          <path class="st1" d="M26.95,37.54c-.02.07-.03.14-.03.21,0,.05,0,.1,0,.16,0,.07.02.14.04.21s.05.14.08.2c.02.03.04.05.06.07.02.02.05.04.09.04.03.01.07.01.1,0,.03,0,.06-.01.09-.03.05-.03.1-.09.11-.15v-.07s0-.09-.03-.13c0-.01-.01-.02-.02-.04l.03.06c-.03-.07-.05-.14-.06-.22v.07c0-.08,0-.15,0-.23v.07s0-.07.01-.1c.01-.03.01-.07,0-.1,0-.03-.01-.06-.03-.09-.02-.03-.04-.05-.06-.07-.02-.02-.05-.04-.09-.04-.06-.01-.14-.01-.19.03s-.1.09-.11.15h0Z"/>
          <path class="st1" d="M27.77,37.75s.01.06.02.08v-.07c0,.08,0,.16,0,.23v-.07c0,.08-.02.15-.05.22l.03-.06s-.01.03-.02.04c-.02.03-.03.06-.03.09,0,.03,0,.07,0,.1,0,.03.02.06.04.09.02.03.04.05.07.06.06.03.13.05.19.03.06-.02.12-.06.15-.11.03-.06.06-.13.08-.2s.03-.14.04-.21c0-.05,0-.1,0-.15,0-.07-.01-.14-.03-.21,0-.03-.02-.06-.04-.09-.02-.03-.04-.05-.07-.06-.03-.02-.06-.03-.09-.03-.03,0-.07,0-.1,0-.06.02-.12.06-.15.11l-.03.06s-.01.09,0,.13h0Z"/>
        </g>
        <path class="st1" d="M22.13,24.38c-1.59.54-3.09,1.54-3.97,3-.32.54-.55,1.14-.59,1.77-.05.78.24,1.61.64,2.26.52.83,1.32,1.48,2.28,1.69.47.1.67-.62.2-.72-1.37-.3-2.4-1.73-2.38-3.12,0-.24.03-.39.11-.66s.17-.46.31-.72c.32-.57.75-1.05,1.25-1.47.68-.58,1.5-1.01,2.35-1.3.45-.15.26-.88-.2-.72h0Z"/>
        <path class="st1" d="M20.77,31.24c-.06.66.46,1.24,1.02,1.52.31.15.64.25.97.36.08.02.15.05.23.08.04.01.07.03.1.04.02,0,.03.01.05.02.04.02-.08-.04,0,0,.13.06.25.12.36.2.01,0,.03.02.04.03.01,0,.06.05.02.01-.04-.04,0,0,0,0,.02.01.04.03.05.05.05.05.1.1.15.16.04.05-.01-.02-.02-.02,0,.02.03.04.04.06.02.03.04.06.06.1,0,.01.01.03.02.04.03.06-.02-.06,0-.02.01.04.03.08.04.12.05.19.27.32.46.26s.31-.26.26-.46c-.16-.64-.74-1.03-1.32-1.26-.3-.12-.6-.19-.9-.3-.03-.01-.07-.03-.1-.04-.07-.03.01,0,.01,0,0,0-.04-.02-.05-.02-.07-.03-.15-.07-.22-.11-.05-.03-.11-.07-.16-.1-.06-.04.02.01.02.01,0,0-.04-.03-.05-.04-.03-.02-.05-.05-.08-.07-.03-.03-.06-.06-.08-.09,0-.01-.02-.03-.03-.04.06.06.02.03,0,0-.04-.06-.07-.12-.11-.18-.04-.07.02.07,0,.02,0-.02-.01-.04-.02-.05-.01-.04-.02-.07-.03-.11s.01-.03,0,.03c0-.02,0-.05,0-.07,0-.04,0-.08,0-.12.02-.2-.18-.38-.38-.38-.22,0-.36.17-.38.38h0Z"/>
        <path class="st1" d="M26.06,34.48c.11-.14.24-.27.37-.39.03-.03.07-.06.1-.09,0,0,.06-.04,0,0,.02-.01.04-.03.05-.04.07-.05.15-.1.22-.15.15-.1.31-.18.47-.26.08-.04.15-.07.23-.11.04-.02.08-.04.13-.06.05-.02-.05.02,0,0,.03-.01.05-.02.08-.03.74-.3,1.59-.48,2.2-1.03.35-.32.58-.76.59-1.24,0-.2-.17-.38-.38-.38s-.37.16-.38.38c0,.02-.01.15,0,.07,0,.04-.01.08-.02.11s-.02.07-.04.11c-.02.07,0,.02,0,0-.01.03-.02.05-.04.08-.02.03-.04.07-.06.1-.01.02-.03.04-.04.06,0-.01.04-.05,0,0-.06.07-.12.14-.19.2-.02.01-.03.03-.05.04,0,0,.04-.03,0,0s-.07.05-.11.07c-.08.05-.17.1-.26.15-.05.02-.09.04-.14.06-.02.01-.05.02-.07.03,0,0,.04-.02,0,0-.09.04-.19.07-.29.11-.68.25-1.38.48-2,.87-.35.22-.68.48-.93.8-.12.15-.16.38,0,.53.14.13.4.16.53,0h0Z"/>
        <path class="st1" d="M31.02,32.2c1.2-.82,2.33-2.09,2.29-3.63s-1.23-2.77-2.56-3.41c-.85-.41-1.76-.65-2.67-.87-.47-.12-.67.61-.2.72,1.35.34,2.81.69,3.81,1.72.43.44.76,1,.85,1.62s-.09,1.18-.39,1.68c-.37.62-.91,1.12-1.51,1.52-.17.11-.24.33-.13.51.1.17.34.25.51.13h0Z"/>
        <path class="st1" d="M18.27,32.21c-.22,1.82-.09,3.83,1.26,5.22.32.33.7.61,1.13.79.19.08.4.06.51-.13.09-.16.05-.43-.13-.51-.68-.29-1.17-.78-1.52-1.42-.39-.7-.56-1.53-.58-2.36-.01-.53.03-1.06.09-1.59.02-.2-.19-.38-.38-.38-.22,0-.35.17-.38.38h0Z"/>
        <path class="st1" d="M30.16,38.15c.95-.15,1.7-.82,2.06-1.69.17-.42.27-.86.33-1.31.07-.48.11-.96.08-1.44-.04-.56-.17-1.1-.43-1.59-.1-.18-.34-.23-.51-.13-.18.11-.23.33-.13.51.38.71.39,1.55.29,2.35-.09.73-.27,1.56-.81,2.08-.29.28-.65.44-1.07.5-.2.03-.31.28-.26.46.06.21.26.29.46.26h0Z"/>
      </g>
    </g>
  </g>
  <g>
    <g>
      <path class="st3" d="M14.63,19.92c-.16.95-.39,1.91-.86,2.73-.34.58-.76.75-.54,1.4.14.4.73.45.87.82.25.66-.37.89-.47,1.49-.05.3.14.66.44.67.2,0,.43-.12.57.02.12.13.02.36.11.52.09.18.33.18.53.19.76.05,1.38.6,2.08.89,1.56.65,3.38,0,5.03.39.59.14,1.14.42,1.73.56.74.17,1.51.13,2.27.08,1.15-.07,2.29-.08,3.4-.39s1.96-.23,3.05-.36c1.42-.17,2.52-1.1,3.86-1.48.02-.23.03-.47.05-.7,1.33.6.84-1.01.8-1.45-.04-.47-.2-.24,0-.71.15-.36.83-.3.88-.82.03-.3-.13-.59-.33-.82-1.28-1.49-1.36-3.21-1.67-5.13-.02-.1-.03-.21-.01-.32.02-.12.1-.23.17-.33,1.31-1.91,1.24-5.02,1.1-7.27-.14-2.33-4.66.23-5.7.97-.58.41-1.28,1.43-1.92,1.64-.69.23-2.34-.36-3.08-.47-1.65-.25-3.42-.49-4.94.23-.26.12-.53.28-.82.25-.37-.04-.62-.69-.88-.95-1.5-1.47-3.48-2.44-5.56-2.71-.22-.03-.46-.05-.67.03-.43.17-.41.68-.42,1.06-.1,2.26.23,4.54.96,6.68.1.3.21.59.25.9.04.35,0,.71-.05,1.06-.06.43-.12.88-.19,1.33Z"/>
      <path class="st2" d="M18.15,12.85c-.24-.31-.56-.58-.88-.82-.59-.44-1.26-.83-1.94-1.1-.36.83-.3,1.87-.15,2.72.15.89.4,1.8.82,2.6.12-.08.23-.16.34-.25.33-.26.64-.55.93-.85.28-.29.54-.58.77-.91.18-.25.33-.48.38-.74,0-.03,0-.07,0-.09,0,.03-.03-.13-.04-.16-.05-.14-.14-.29-.24-.41Z"/>
      <path class="st2" d="M33.87,12.39c-.56.55-1.1,1.19-1.43,1.92.52.36.96.81,1.41,1.24.2.19.39.37.59.49.05.03.11.07.17.09.03,0,.06.02.08.02.02,0,.02,0,.02,0,0,0,.01,0,.03,0,.02,0,0,0,0,0,.02,0,.03,0,.04-.01.02-.01.06-.04.07-.04,0,0,.04-.03.08-.08.09-.11.17-.24.23-.37.16-.31.28-.65.37-.99.22-.77.34-1.57.34-2.38,0-.44-.04-.9-.13-1.33-.7.35-1.34.88-1.88,1.42Z"/>
      <path class="st2" d="M28.4,23.35c-.32-.23-.61-.51-.83-.88-.53-.92-.85-3.88-2.32-3.6-1.37.26-1.19,2.64-1.8,3.62-.9,1.46-2.76,1.82-3.73,3.08-.47.6-.74,1.39-.55,2.12.41,1.57,2.05,1.07,3.21,1.35.59.14,1.14.42,1.73.56.74.17,1.51.13,2.27.08,2.37-.15,6.66-.34,5.34-3.69-.63-1.6-2.2-1.85-3.32-2.65Z"/>
    </g>
    <g>
      <g>
        <circle class="st0" cx="20.91" cy="21.4" r="1.57"/>
        <circle class="st0" cx="30.4" cy="21.4" r="1.59"/>
        <circle class="st1" cx="20.91" cy="21.4" r="1"/>
        <circle class="st1" cx="30.4" cy="21.4" r="1"/>
        <ellipse class="st1" cx="25.4" cy="22.54" rx=".9" ry=".56"/>
      </g>
      <g>
        <path class="st1" d="M14.88,17.07c-.61-2.06-.89-4.2-.82-6.35,0-.26.02-.52.04-.78,0-.13,0-.53.08-.61.12-.11.46-.05.6-.03.26.03.52.09.76.17.9.3,1.79.76,2.61,1.24.93.53,1.8,1.17,2.5,1.98.32.37.85-.17.53-.53-.7-.8-1.56-1.45-2.47-1.99s-1.9-1.05-2.9-1.39c-.53-.18-1.13-.31-1.7-.21-.63.11-.72.69-.76,1.22-.09,1.19-.08,2.39.04,3.57.13,1.32.38,2.63.76,3.91.14.46.86.27.72-.2h0Z"/>
        <path class="st1" d="M15.68,11.43c.22.15.43.3.65.46.1.07.2.14.3.22.05.04.1.07.15.11.02.02.09.08.02.01.03.02.05.04.08.06.38.3.74.63,1.05,1,.02.03.04.05.06.08.04.05-.01-.02-.02-.02,0,.02.02.03.03.04.04.05.08.11.12.17.08.12.15.24.22.36.09.17.35.24.51.13.18-.11.23-.33.13-.51-.5-.94-1.34-1.62-2.18-2.23-.24-.18-.49-.35-.74-.53-.16-.11-.42-.03-.51.13-.1.19-.04.39.13.51h0Z"/>
        <path class="st1" d="M17.12,15.86v-.02s-.03.05-.05.08c.31-.4.68-.76,1.08-1.08l-.08.06c.39-.3.81-.55,1.26-.75.08-.04.15-.14.17-.22.02-.09.01-.21-.04-.29s-.13-.15-.22-.17c-.1-.02-.19,0-.29.04-.75.33-1.43.81-2,1.4-.17.18-.33.37-.49.57-.06.07-.06.21-.04.29.02.09.09.18.17.22.09.05.19.07.29.04s.16-.09.22-.17h0Z"/>
        <path class="st1" d="M20.51,13.33c3.04-1.28,6.5-1.38,9.61-.25.45.17.65-.56.2-.72-3.21-1.17-6.85-1.08-10,.25-.19.08-.32.25-.26.46.05.18.27.34.46.26h0Z"/>
        <path class="st1" d="M15.28,16.32c-.42.48-.6,1.07-.76,1.68-.18.68-.33,1.36-.46,2.05-.11.62-.14,1.28-.34,1.87s-.83.79-1.1,1.32c-.17.33-.16.7.11.98s.59.49.87.72c.16.13.38.15.53,0,.13-.13.16-.4,0-.53s-.31-.26-.47-.38c-.08-.06-.16-.13-.24-.19-.04-.04-.17-.11-.19-.16.02.04.01-.03.03-.06.03-.05.06-.09.1-.14.12-.13.27-.24.4-.36.27-.24.48-.5.62-.84s.18-.68.23-1.03c.11-.79.26-1.58.45-2.37.09-.38.19-.77.3-1.15.1-.31.22-.63.44-.88.31-.36-.21-.9-.53-.53h0Z"/>
        <path class="st1" d="M13.78,25.36c-.38.35-.72.87-.4,1.37.29.46,1.05.47,1.53.45l-.38-.38c-.01.18-.03.37-.04.55-.01.16-.05.34,0,.51s.15.3.31.36c.18.07.33.01.5-.02.25-.04.49.14.68.27.25.17.5.35.78.48,1.13.51,2.37.35,3.57.36.64,0,1.3.05,1.89.34.43.21.81-.44.38-.65-1.26-.61-2.64-.38-3.98-.42-.61-.02-1.23-.1-1.77-.42-.29-.17-.55-.4-.87-.55-.16-.07-.32-.13-.49-.14-.1-.01-.19,0-.29,0-.04,0-.09.01-.13.02-.08.01-.08.02.01.04l.13.13c0,.05,0,.06,0,.02,0-.04,0-.08,0-.11,0-.09.01-.17.02-.26.01-.17.03-.34.04-.51.01-.2-.18-.38-.38-.38-.16,0-.32,0-.48-.01-.09-.01-.36-.02-.42-.1,0,0,0-.07.02-.12.05-.13.19-.23.29-.32.36-.33-.17-.86-.53-.53h0Z"/>
        <path class="st1" d="M37.11,17.26c.67-2.27.96-4.65.83-7.01-.03-.51.03-1.26-.47-1.57-.44-.27-1.12-.15-1.59-.04-.56.14-1.09.38-1.6.62-.48.23-.96.46-1.42.72-1.03.58-2,1.27-2.77,2.16-.32.36.21.9.53.53.63-.72,1.38-1.31,2.2-1.8s1.68-.94,2.56-1.28c.47-.19.97-.33,1.48-.31.2,0,.25,0,.28.21.04.27.05.56.06.84.05,1.06.02,2.13-.09,3.18-.13,1.2-.37,2.39-.72,3.55-.14.46.59.66.72.2h0Z"/>
        <path class="st1" d="M35.21,10.78c-.85.6-1.75,1.19-2.41,2-.19.24-.37.48-.51.75-.09.17-.05.42.13.51.17.09.41.05.51-.13.06-.11.12-.21.18-.31.03-.05.07-.1.1-.15.02-.02.04-.05.05-.07,0,0,.01-.02.02-.03.03-.04-.05.07-.01.01.15-.19.32-.37.49-.54s.36-.33.55-.48c.04-.04.09-.07.14-.11.05-.04-.02.01-.02.02.01,0,.02-.02.04-.03.03-.02.05-.04.08-.06.1-.07.2-.15.3-.22.24-.17.49-.35.73-.52.08-.06.15-.13.17-.22.02-.09.01-.21-.04-.29-.1-.16-.34-.26-.51-.13h0Z"/>
        <path class="st1" d="M34.79,15.48c-.52-.67-1.15-1.24-1.88-1.67-.2-.11-.4-.22-.6-.31-.1-.04-.18-.07-.29-.04-.09.02-.18.09-.22.17-.05.09-.07.19-.04.29.03.09.09.19.17.22.45.2.87.45,1.26.75l-.08-.06c.4.31.77.67,1.08,1.08l-.06-.08v.02c.07.08.13.14.24.17.09.02.21.01.29-.04s.15-.13.17-.22.02-.21-.04-.29h0Z"/>
        <path class="st1" d="M35.46,16.85c.22.25.34.56.44.88.12.38.21.76.3,1.15.19.78.33,1.57.45,2.37.05.35.1.7.23,1.03s.35.6.62.84c.14.12.28.23.4.36.04.04.07.09.1.14.01.02.01.1.03.06-.02.06-.14.13-.19.16-.08.06-.16.13-.24.19-.16.13-.31.26-.47.38s-.13.4,0,.53c.16.16.37.13.53,0,.26-.21.53-.42.79-.64s.37-.51.29-.83c-.16-.62-.85-.83-1.12-1.36-.12-.24-.17-.53-.21-.79-.05-.33-.1-.66-.15-.99-.12-.69-.26-1.37-.44-2.05s-.35-1.39-.83-1.94c-.32-.37-.85.17-.53.53h0Z"/>
        <path class="st1" d="M36.96,25.89c.1.09.22.18.28.3.02.03.03.07.03.11,0,.04,0,.02,0,.03-.05.06-.32.08-.39.09-.17.02-.34.02-.51.02-.19,0-.39.18-.38.38.01.17.03.34.04.51,0,.09.01.17.02.26v.09c0,.07,0,.07.01.01l.13-.13c.09-.01.09-.03.01-.04-.04-.01-.08-.02-.13-.02-.1-.02-.19-.02-.29,0-.18.02-.33.07-.49.14-.31.14-.57.37-.87.55-.53.32-1.16.4-1.77.42-1.34.04-2.73-.18-3.98.42-.43.21-.05.86.38.65,1.07-.52,2.33-.3,3.47-.32.59,0,1.2-.06,1.75-.27.28-.11.54-.25.79-.42.23-.16.48-.38.76-.42.15-.03.28.05.42.05.19,0,.37-.07.47-.24s.08-.35.07-.54c-.02-.23-.03-.45-.05-.68l-.38.38c.48.02,1.24,0,1.53-.45.32-.5-.03-1.03-.4-1.37-.36-.33-.89.2-.53.53h0Z"/>
      </g>
    </g>
  </g>
</svg>