<?xml version="1.0" encoding="UTF-8"?>
<svg id="cat" xmlns="http://www.w3.org/2000/svg" version="1.1" xmlns:xlink="http://www.w3.org/1999/xlink" viewBox="0 0 50.83 48.47">
  <!-- Generator: Adobe Illustrator 29.8.2, SVG Export Plug-In . SVG Version: 2.1.1 Build 3)  -->
  <defs>
    <style>
      .st0 {
        fill: #231f20;
      }

      .st1 {
        fill: #fff;
      }

      .st2 {
        fill: none;
      }

      .st3 {
        clip-path: url(#clippath-1);
      }

      .st4 {
        fill: #f9bdbe;
      }

      .st5 {
        fill: #f39b4a;
      }

      .st6 {
        clip-path: url(#clippath-2);
      }

      .st7 {
        fill: #a05715;
      }

      .st8 {
        clip-path: url(#clippath);
      }
    </style>
    <clipPath id="clippath">
      <path class="st2" d="M35.45,28.66c-.45.67-.51,1.51-.51,2.32s.07,1.62-.16,2.39c-.36,1.22-1.5,2.17-2.77,2.3-.47.05-.95,0-1.4.11s-.91.46-.92.93c-.02.56.57.95,1.12,1.08,1.58.37,3.33-.36,4.48-1.44,1.47-1.37,1.04-2.82,1.36-4.56.12-.68.51-1.27.78-1.91.31-.73.55-1.53-.38-1.88-.66-.24-1.26.12-1.6.64Z"/>
    </clipPath>
    <clipPath id="clippath-1">
      <path class="st2" d="M26.64,24.88c2.2.68,3.34,2.59,4.12,4.6.45,1.16.76,2.36,1.1,3.57.51,1.92.25,4.26-1.34,5.43-1.03.76-2.37.88-3.65.95-3.26.17-7.18.06-7.8-3.93-.26-1.68.33-2.81.79-4.37.57-1.93,1.35-4.39,3.07-5.56,1.07-.73,2.46-1.07,3.71-.69Z"/>
    </clipPath>
    <clipPath id="clippath-2">
      <path class="st2" d="M13.49,12.93c-.04,1.87.22,3.75.77,5.54.11.35.23.71.26,1.07.04.41-.04.82-.09,1.23-.34,2.67.3,5.61,2.29,7.42,2.25,2.04,5.59,2.21,8.63,2.09,1.69-.07,3.39-.18,5.02-.65s3.19-1.29,4.28-2.58c.44-.52.8-1.1,1.06-1.72.4-.96.71-2.19.66-3.24-.05-.9-.48-1.65-.33-2.61.11-.69.36-1.35.57-2.02.61-1.96.83-4.08.4-6.09-.13-.62-.35-1.27-.86-1.65-.82-.62-1.48.08-2.17.48-1.08.63-2.04,1.48-2.8,2.47-.25.33-.5.7-.89.85-.37.15-.79.07-1.18,0-1.39-.23-2.81-.32-4.22-.26-.98.04-2.78-.1-3.67.29-.11.05-.22.11-.34.09-.14-.02-.24-.14-.33-.24-1.29-1.6-2.75-3.19-4.69-3.88-1.91-.69-2.36,2.03-2.39,3.4Z"/>
    </clipPath>
  </defs>
  <g>
    <g class="st8">
      <path class="st5" d="M35.45,28.66c-.45.67-.51,1.51-.51,2.32s.07,1.62-.16,2.39c-.36,1.22-1.5,2.17-2.77,2.3-.47.05-.95,0-1.4.11s-.91.46-.92.93c-.02.56.57.95,1.12,1.08,1.58.37,3.33-.36,4.48-1.44,1.47-1.37,1.04-2.82,1.36-4.56.12-.68.51-1.27.78-1.91.31-.73.55-1.53-.38-1.88-.66-.24-1.26.12-1.6.64Z"/>
      <path class="st7" d="M34.64,36.36l1.75,1.37c.09.1.2.17.32.21.12.06.25.09.39.09.25,0,.54-.11.71-.29s.3-.44.29-.71c-.01-.25-.09-.55-.29-.71l-1.75-1.37c-.09-.1-.2-.17-.32-.21-.12-.06-.25-.09-.39-.09-.25,0-.54.11-.71.29s-.3.44-.29.71c.01.25.09.55.29.71h0Z"/>
      <path class="st7" d="M32.06,32.17c.16.01.31.03.47.05l-.27-.04c.61.08,1.2.24,1.77.48l-.24-.1c.24.1.48.22.71.35.46.26,1.11.12,1.37-.36s.13-1.09-.36-1.37c-1.06-.6-2.23-.93-3.45-1.01-.52-.03-1.02.48-1,1,.03.57.44.96,1,1h0Z"/>
      <path class="st7" d="M35.05,29.2c.82.48,1.72.84,2.64,1.04.26.06.53.04.77-.1.21-.12.41-.36.46-.6.06-.26.05-.54-.1-.77-.14-.21-.34-.4-.6-.46-.49-.11-.98-.26-1.44-.45l.24.1c-.33-.14-.65-.3-.96-.49-.22-.13-.52-.17-.77-.1-.23.06-.48.24-.6.46-.25.48-.12,1.08.36,1.37h0Z"/>
    </g>
    <g class="st3">
      <path class="st5" d="M26.64,24.88c2.2.68,3.34,2.59,4.12,4.6.45,1.16.76,2.36,1.1,3.57.51,1.92.25,4.26-1.34,5.43-1.03.76-2.37.88-3.65.95-3.26.17-7.18.06-7.8-3.93-.26-1.68.33-2.81.79-4.37.57-1.93,1.35-4.39,3.07-5.56,1.07-.73,2.46-1.07,3.71-.69Z"/>
      <path class="st1" d="M26.55,27.23c-.19-.02-.39-.03-.59-.03-1.04.03-2.03.45-2.88,1.05-.23.17-.47.35-.61.6-.2.34-.21.76-.14,1.14.15.8.64,1.47,1.05,2.16.38.63.61,1.29.91,1.95.37.82.61,2.16-.09,2.92-.21.22-.52.31-.81.39-.35.09-.7.19-1.05.18-.15,0-.3-.02-.43.05-.3.19.31,1.13.47,1.35.83,1.19,2.49,1.44,3.94,1.37.8-.04,1.67-.17,2.21-.76.25-.27.4-.61.51-.96.18-.54.64-2.1-.32-1.84-1.51.4-2.37-.28-2.25-1.76.05-.67.11-1.37.42-1.97.34-.65.93-1.13,1.41-1.68.75-.87,1.24-2.01.42-3.02-.53-.65-1.34-1.04-2.18-1.15Z"/>
      <path class="st2" d="M26.64,24.88c2.2.68,3.34,2.59,4.12,4.6.45,1.16.76,2.36,1.1,3.57.51,1.92.25,4.26-1.34,5.43-1.03.76-2.37.88-3.65.95-3.26.17-7.18.06-7.8-3.93-.26-1.68.33-2.81.79-4.37.57-1.93,1.35-4.39,3.07-5.56,1.07-.73,2.46-1.07,3.71-.69Z"/>
      <path class="st7" d="M27.31,31.46c1.98-.18,3.9-.77,5.61-1.78.83-.49.08-1.79-.76-1.3-1.48.87-3.18,1.43-4.86,1.58-.4.04-.75.32-.75.75,0,.38.34.79.75.75h0Z"/>
      <path class="st7" d="M30.35,35.65c.1.08.22.15.35.19.38.13.81.06,1.16-.15.13-.08.25-.18.31-.31s.05-.31-.05-.42c-.22-.22-.78-.1-.93-.36-.29-.52.56-.76.79-.94.23-.17.18-.57-.04-.74s-.55-.17-.82-.06-.47.32-.68.52c-.39.38-.6.61-.58,1.18.02.41.17.82.48,1.07Z"/>
      <path class="st7" d="M27.22,33.84c.37-.08.72-.26,1.01-.51.37-.32.16-.87-.26-1.04-.42-.16-.85.05-1.19.3-.32.24-.75.89-.25,1.19.2.12.45.11.68.06Z"/>
      <path class="st7" d="M29.87,32.67c.57.03,1.39-.2,1.57-.76.08-.24-.05-.5-.18-.71-.09-.13-.2-.27-.36-.29-.1,0-.2.04-.29.09-.38.2-1.55.66-1.47,1.23.03.24.29.37.53.42.06.01.13.02.21.02Z"/>
      <path class="st7" d="M30.42,37.9c.61.09,1.42-.49.92-1.12s-1.73-.22-1.46.66c.09.29.3.43.54.47Z"/>
      <path class="st7" d="M27.9,37.38c.36.14.75.18,1.12.07.13-.04.26-.11.34-.21.46-.58-.54-.43-.75-.5-.53-.17-.4-.61.07-.81.17-.07.35-.16.42-.33.07-.17,0-.37-.14-.49s-.31-.17-.49-.19c-1.02-.1-2.19,1.14-1.27,2.01.2.19.44.35.7.45Z"/>
      <path class="st7" d="M23.59,31.46c-1.98-.18-3.9-.77-5.61-1.78-.83-.49-.08-1.79.76-1.3,1.48.87,3.18,1.43,4.86,1.58.4.04.75.32.75.75,0,.38-.34.79-.75.75h0Z"/>
      <path class="st7" d="M20.55,35.65c-.1.08-.22.15-.35.19-.38.13-.81.06-1.16-.15-.13-.08-.25-.18-.31-.31s-.05-.31.05-.42c.22-.22.78-.1.93-.36.29-.52-.56-.76-.79-.94-.23-.17-.18-.57.04-.74s.55-.17.82-.06.47.32.68.52c.39.38.6.61.58,1.18-.02.41-.17.82-.48,1.07Z"/>
      <path class="st7" d="M23.68,33.84c-.37-.08-.72-.26-1.01-.51-.37-.32-.16-.87.26-1.04.42-.16.85.05,1.19.3.32.24.75.89.25,1.19-.2.12-.45.11-.68.06Z"/>
      <path class="st7" d="M21.03,32.67c-.57.03-1.39-.2-1.57-.76-.08-.24.05-.5.18-.71.09-.13.2-.27.36-.29.1,0,.2.04.29.09.38.2,1.55.66,1.47,1.23-.03.24-.29.37-.53.42-.06.01-.13.02-.21.02Z"/>
      <path class="st7" d="M20.48,37.9c-.61.09-1.42-.49-.92-1.12s1.73-.22,1.46.66c-.09.29-.3.43-.54.47Z"/>
      <path class="st7" d="M23,37.38c-.36.14-.75.18-1.12.07-.13-.04-.26-.11-.34-.21-.46-.58.54-.43.75-.5.53-.17.4-.61-.07-.81-.17-.07-.35-.16-.42-.33-.07-.17,0-.37.14-.49s.31-.17.49-.19c1.02-.1,2.19,1.14,1.27,2.01-.2.19-.44.35-.7.45Z"/>
    </g>
    <g>
      <path class="st0" d="M20.99,27.3c-.42.9-.82,1.82-1.19,2.74s-.72,1.78-.96,2.7c-.42,1.62-.45,3.4.47,4.86.46.73,1.1,1.28,1.9,1.59.45.17.65-.55.2-.72-1.74-.67-2.27-2.78-2.06-4.45.13-1.08.51-2.12.91-3.13.43-1.09.89-2.16,1.38-3.22.2-.44-.44-.82-.65-.38h0Z"/>
      <path class="st0" d="M21.28,36.19c.02.62.08,1.25.21,1.85.11.53.37,1.07.88,1.32.27.13.55.18.84.19.27,0,.57-.02.83-.08.31-.07.58-.26.73-.54.13-.24.19-.51.23-.78.11-.7.14-1.41.06-2.12-.01-.1-.03-.19-.11-.27-.07-.07-.17-.11-.27-.11-.18,0-.4.17-.38.38.06.56.06,1.12,0,1.68,0,.04,0,.07-.01.11,0,.02,0,.03,0,.05,0,.06,0-.07,0,0-.01.07-.02.14-.03.21-.02.11-.04.23-.07.34,0,.03-.02.05-.03.08,0,.01,0,.02-.01.03-.01.04.02-.04.02-.04-.02.02-.02.05-.03.07-.01.03-.03.05-.05.08,0,0-.01.02-.02.03,0,0,.05-.06.02-.03-.02.02-.04.04-.06.06,0,0-.04.03,0,0,.05-.03,0,0-.01,0-.02.01-.07.03-.08.04.02-.03.06-.02.02,0-.01,0-.02,0-.04.01-.03,0-.06.02-.09.02-.03,0-.05.01-.08.02-.02,0-.03,0-.05,0-.05,0,0,0,.02,0-.05.02-.12.01-.17.02-.06,0-.11,0-.17.01-.11,0-.23,0-.34,0-.01,0-.02,0-.04,0-.04,0,.04,0,.04,0-.03,0-.06,0-.08-.01-.06-.01-.12-.03-.17-.05-.02,0-.04-.02-.07-.02,0,0,.08.04.02,0-.01,0-.02-.01-.03-.02-.05-.03-.1-.06-.14-.09-.04-.03.05.05.02.01,0,0-.02-.02-.03-.02-.02-.02-.04-.04-.06-.06-.02-.02-.03-.03-.05-.05,0-.01-.04-.05,0,0s0,0,0,0c-.03-.04-.05-.08-.08-.13-.01-.02-.03-.05-.04-.07,0-.01,0-.02-.01-.03.05.08.02.04,0,.01-.04-.1-.07-.21-.1-.32-.03-.13-.05-.25-.07-.38-.01-.08-.02-.15-.03-.23,0-.01-.01-.08,0-.03s0-.02,0-.03c0-.04-.01-.08-.01-.12-.04-.32-.06-.64-.07-.97,0-.2-.17-.38-.38-.38s-.38.16-.38.38h0Z"/>
      <path class="st0" d="M29.41,27.68c.49,1.06.95,2.13,1.38,3.22.4,1.01.78,2.05.91,3.13.21,1.67-.32,3.78-2.06,4.45-.45.17-.25.9.2.72,1.43-.55,2.33-1.92,2.58-3.4.31-1.86-.34-3.7-1.02-5.4-.42-1.04-.86-2.07-1.34-3.09-.2-.44-.85-.06-.65.38h0Z"/>
      <path class="st0" d="M29.01,36.19c0,.29-.03.57-.06.86,0,.07-.01.13-.02.2,0,.02,0,.03,0,.05,0,.07,0,0,0,0,0,.04-.01.08-.02.12-.02.12-.04.24-.06.37-.02.11-.05.22-.08.33-.02.05-.03.1-.05.15,0,0-.02.04-.02.04,0,0,.03-.07.01-.04-.01.03-.03.06-.04.08-.02.04-.05.09-.08.13,0,.01-.02.03-.03.04,0,0,.05-.06.02-.03-.02.02-.04.05-.06.07-.02.02-.03.03-.05.05-.01.01-.02.02-.04.03-.03.03.03-.02.03-.02-.05.02-.09.06-.14.09-.01,0-.1.05-.04.02.05-.02-.03,0-.04.01-.05.02-.11.03-.16.04-.03,0-.06,0-.08.01-.04,0,.04,0,.04,0,0,0-.05,0-.05,0-.06,0-.11,0-.17,0-.12,0-.23,0-.35-.01-.05,0-.11-.01-.16-.02-.04,0,.04,0,.04,0-.02,0-.04,0-.05,0-.03,0-.07-.01-.1-.02-.03,0-.05-.01-.08-.02-.02,0-.03-.01-.05-.02,0,0-.05-.02,0,0s0,0,0,0c-.01,0-.03-.02-.04-.03-.01,0-.02-.01-.03-.02-.04-.02.05.05.02.02-.02-.02-.04-.04-.06-.06,0,0-.03-.04,0,0,.03.05,0,0,0,0-.03-.04-.05-.09-.08-.14-.02-.04.02.04.02.04,0-.01-.01-.03-.02-.04,0-.02-.01-.04-.02-.07-.02-.06-.03-.11-.04-.17-.03-.13-.05-.26-.07-.39,0-.04,0,.02,0,.02,0-.02,0-.04,0-.06,0-.04,0-.08-.01-.12,0-.08-.02-.16-.02-.24-.01-.16-.02-.31-.02-.47,0-.32.01-.64.05-.95.02-.2-.19-.38-.38-.38-.22,0-.35.17-.38.38-.07.61-.06,1.22.02,1.83s.17,1.28.79,1.54c.27.11.57.14.85.15.27.01.55,0,.81-.09.27-.09.52-.24.7-.47s.3-.49.37-.76c.09-.32.13-.66.17-.99.04-.35.07-.69.08-1.04,0-.2-.18-.38-.38-.38-.21,0-.37.16-.38.38h0Z"/>
      <path class="st0" d="M33.44,35.59c1.01-.48,1.48-1.62,1.62-2.67.15-1.17-.05-2.47.51-3.56.12-.24.27-.45.46-.63.16-.15.46-.39.7-.33.47.11.67-.61.2-.72-.61-.14-1.22.27-1.6.71s-.61.96-.74,1.51c-.3,1.26-.03,2.6-.49,3.83-.19.52-.53.97-1.04,1.21-.18.09-.23.35-.13.51.11.19.33.22.51.13h0Z"/>
      <path class="st0" d="M31.53,38.11c1.8.08,3.53-.89,4.54-2.36.53-.78.78-1.65.86-2.58.04-.53.04-1.07.12-1.6s.28-.96.55-1.41.5-.97.35-1.52c-.13-.48-.5-.86-1.01-.87-.48-.02-.48.73,0,.75.25,0,.33.38.3.58-.05.42-.37.78-.56,1.15-.43.85-.43,1.8-.49,2.73-.05.81-.23,1.55-.66,2.24-.4.64-.96,1.17-1.61,1.55-.73.43-1.55.65-2.4.61-.48-.02-.48.73,0,.75h0Z"/>
      <path class="st0" d="M22.57,38.18c0,.07,0,.14.02.22,0,.05.02.1.03.15.02.07.05.14.08.2.02.05.05.09.08.14.02.03.04.05.06.07.02.02.05.04.09.04.03.01.07.01.1,0,.03,0,.06-.01.09-.03.05-.03.1-.09.11-.15s.01-.14-.03-.19-.07-.11-.09-.17l.03.06c-.04-.08-.06-.17-.07-.26v.07s0-.1,0-.15c0-.03,0-.07-.02-.1-.01-.03-.03-.06-.05-.08-.02-.02-.05-.04-.08-.05-.03-.02-.06-.02-.1-.02-.06,0-.13.02-.18.07s-.07.11-.07.18h0Z"/>
      <path class="st0" d="M23.4,38.42l.09.5s.02.06.04.09c.02.03.04.05.07.06.03.02.06.03.09.03.03,0,.07,0,.1,0l.06-.03s.07-.05.09-.09l.03-.06s.01-.09,0-.13l-.09-.5s-.02-.06-.04-.09c-.02-.03-.04-.05-.07-.06-.03-.02-.06-.03-.09-.03-.03,0-.07,0-.1,0l-.06.03s-.07.05-.09.09l-.03.06s-.01.09,0,.13h0Z"/>
      <path class="st0" d="M27.14,38.12c-.02.07-.03.14-.03.21,0,.05,0,.1,0,.16,0,.07.02.14.04.21s.05.14.08.2c.02.03.04.05.06.07.02.02.05.04.09.04.03.01.07.01.1,0,.03,0,.06-.01.09-.03.05-.03.1-.09.11-.15v-.07s0-.09-.03-.13c0-.01-.01-.02-.02-.04l.03.06c-.03-.07-.05-.14-.06-.22v.07c0-.08,0-.15,0-.23v.07s0-.07.01-.1c.01-.03.01-.07,0-.1,0-.03-.01-.06-.03-.09-.02-.03-.04-.05-.06-.07-.02-.02-.05-.04-.09-.04-.06-.01-.14-.01-.19.03s-.1.09-.11.15h0Z"/>
      <path class="st0" d="M27.96,38.33s.01.06.02.08v-.07c0,.08,0,.16,0,.23v-.07c0,.08-.02.15-.05.22l.03-.06s-.01.03-.02.04c-.02.03-.03.06-.03.09,0,.03,0,.07,0,.1,0,.03.02.06.04.09.02.03.04.05.07.06.06.03.13.05.19.03.06-.02.12-.06.15-.11.03-.06.06-.13.08-.2s.03-.14.04-.21c0-.05,0-.1,0-.15,0-.07-.01-.14-.03-.21,0-.03-.02-.06-.04-.09-.02-.03-.04-.05-.07-.06-.03-.02-.06-.03-.09-.03-.03,0-.07,0-.1,0-.06.02-.12.06-.15.11l-.03.06s-.01.09,0,.13h0Z"/>
    </g>
  </g>
  <g>
    <g class="st6">
      <path class="st5" d="M13.49,12.93c-.04,1.87.22,3.75.77,5.54.11.35.23.71.26,1.07.04.41-.04.82-.09,1.23-.34,2.67.3,5.61,2.29,7.42,2.25,2.04,5.59,2.21,8.63,2.09,1.69-.07,3.39-.18,5.02-.65s3.19-1.29,4.28-2.58c.44-.52.8-1.1,1.06-1.72.4-.96.71-2.19.66-3.24-.05-.9-.48-1.65-.33-2.61.11-.69.36-1.35.57-2.02.61-1.96.83-4.08.4-6.09-.13-.62-.35-1.27-.86-1.65-.82-.62-1.48.08-2.17.48-1.08.63-2.04,1.48-2.8,2.47-.25.33-.5.7-.89.85-.37.15-.79.07-1.18,0-1.39-.23-2.81-.32-4.22-.26-.98.04-2.78-.1-3.67.29-.11.05-.22.11-.34.09-.14-.02-.24-.14-.33-.24-1.29-1.6-2.75-3.19-4.69-3.88-1.91-.69-2.36,2.03-2.39,3.4Z"/>
      <path class="st1" d="M31.63,28.72c.11-.25.16-.53.18-.83.07-1.21-.47-2.41-1.32-3.27-1.31-1.32-3.18-1.83-4.99-1.83-2.11,0-3.98.87-5.31,2.57-.55.71-.97,1.56-.98,2.46-.02,3.08,4.08,2.54,6.14,2.46,1.03-.04,2.06-.04,3.09-.14.87-.08,1.61,0,2.37-.48.38-.24.64-.56.8-.94Z"/>
      <path class="st4" d="M17.6,13.32c-.3-.38-.65-.72-1.01-1.03-.18-.12-.36-.24-.55-.34-.03-.01-.03-.01-.04-.02,0,0,0,0-.03,0-.03-.01-.06-.02-.09-.03-.04-.01-.09-.02-.13-.03-.01,0,0,0-.02,0,0,0,0,0,0,0-.03,0-.11,0-.13,0-.01,0-.02,0-.03,0-.02,0-.03.02-.05.03-.02.02-.07.07-.08.09-.03.04-.05.08-.07.13-.01.03-.02.03-.02.04,0,0,0,.01-.01.04-.05.14-.09.28-.11.43-.05.26-.07.58-.07.94,0,.81.08,1.66.19,2.44.07.52.18,1.05.28,1.57.4-.5.94-.86,1.44-1.25.41-.32,1.2-.81,1.32-1.37.12-.54-.47-1.24-.78-1.63Z"/>
      <path class="st4" d="M34.84,17.93c.53-1.32.96-2.76,1.07-4.19.02-.31.03-.62,0-.93,0-.11-.02-.17-.06-.34-.01-.06-.03-.12-.05-.18-.03-.09-.03-.08-.03-.07-.03-.05-.06-.11-.09-.16,0-.01.04.04-.04-.04-.01-.01-.02-.02-.03-.03-.02-.01-.07-.04-.08-.05-.03,0-.09-.03-.11-.03.01,0,.03,0-.07,0-.17,0-.13,0-.3.03-.06.01-.11,0-.16,0-.04.02-.08.04-.12.06-.45.26-.83.62-1.17,1-.52.57-1.07,1.3-1.31,2.06.23.68,1.04,1.21,1.5,1.69.37.38.68.82.98,1.26.01-.03.03-.07.05-.1Z"/>
      <path class="st2" d="M13.49,12.93c-.04,1.87.22,3.75.77,5.54.11.35.23.71.26,1.07.04.41-.04.82-.09,1.23-.34,2.67.3,5.61,2.29,7.42,2.25,2.04,5.59,2.21,8.63,2.09,1.69-.07,3.39-.18,5.02-.65s3.19-1.29,4.28-2.58c.44-.52.8-1.1,1.06-1.72.4-.96.71-2.19.66-3.24-.05-.9-.48-1.65-.33-2.61.11-.69.36-1.35.57-2.02.61-1.96.83-4.08.4-6.09-.13-.62-.35-1.27-.86-1.65-.82-.62-1.48.08-2.17.48-1.08.63-2.04,1.48-2.8,2.47-.25.33-.5.7-.89.85-.37.15-.79.07-1.18,0-1.39-.23-2.81-.32-4.22-.26-.98.04-2.78-.1-3.67.29-.11.05-.22.11-.34.09-.14-.02-.24-.14-.33-.24-1.29-1.6-2.75-3.19-4.69-3.88-1.91-.69-2.36,2.03-2.39,3.4Z"/>
      <path class="st7" d="M30.5,19.99c.58-.46.41-1.83-.17-2.21-.4-.26-.8.12-.9.48-.16.54-.25,1.66.48,1.82.27.06.46.02.6-.09Z"/>
      <path class="st7" d="M20.37,20.03c.58-.46.41-1.83-.17-2.21-.4-.26-.8.12-.9.48-.16.54-.25,1.66.48,1.82.27.06.46.02.6-.09Z"/>
      <path class="st7" d="M24.27,14.38c.02.27.04.54.05.81l-.03-.5c.04.74.06,1.48.05,2.22,0,.38-.04.94.19,1.27.23.33.75.38,1.03.09s.28-.96.28-1.35c0-1.18-.05-2.37-.13-3.53-.03-.44-.2-.9-.34-1.12-.16-.23-.4-.33-.58-.19s-.36.43-.45.86l-.08.45c-.04.33-.04.66,0,1Z"/>
      <path class="st7" d="M21.55,13.78c.18.96.37,2.01.87,2.86.2.35.51.76.97.69.97-.16.29-1.47.12-1.98-.22-.64-.39-1.3-.51-1.97-.07-.39-.56-.64-.92-.52-.41.13-.6.51-.52.92Z"/>
      <path class="st7" d="M27.21,16.2c-.66.03-1.04.97-.66,1.51.7.97,1.89-.3,1.4-1.15-.14-.23-.41-.36-.68-.36-.02,0-.04,0-.06,0Z"/>
      <path class="st7" d="M27.34,15.32c1,1.37,1.64-1.5,1.76-2.12.06-.33.04-.7-.17-.97s-.62-.38-.89-.18c-.09.07-.16.17-.22.27-.34.57-.42,1.13-.48,1.77-.04.38-.24.88.01,1.23Z"/>
      <path class="st7" d="M17.03,23.87c.09.13.2.25.31.35.37.33,1.02.65,1.47.32.24-.17.44-.62.35-.89-.11-.34-.48-.36-.75-.52-.62-.37-.43-1.19-.51-1.78-.07-.53-.56-.54-.89-.19-.69.73-.55,1.93.02,2.71Z"/>
      <path class="st7" d="M33.13,23.87c-.09.13-.2.25-.31.35-.37.33-1.02.65-1.47.32-.24-.17-.44-.62-.35-.89.11-.34.48-.36.75-.52.62-.37.43-1.19.51-1.78.07-.53.56-.54.89-.19.69.73.55,1.93-.02,2.71Z"/>
      <path class="st7" d="M16.25,27.46l1.04-.96c.14-.13.22-.34.22-.53,0-.1-.02-.2-.06-.29-.03-.09-.08-.17-.16-.24-.14-.13-.33-.23-.53-.22s-.38.08-.53.22l-1.04.96c-.14.13-.22.34-.22.53,0,.1.02.2.06.29.03.09.08.17.16.24.14.13.33.23.53.22s.38-.08.53-.22h0Z"/>
      <path class="st7" d="M14.4,24.81l1.4-.2c.19-.03.38-.16.48-.31.06-.08.1-.17.11-.27.03-.09.03-.19.01-.29-.04-.19-.14-.38-.31-.48s-.36-.15-.56-.12l-1.4.2c-.19.03-.38.16-.48.31-.06.08-.1.17-.11.27-.03.09-.03.19-.01.29.04.19.14.38.31.48s.36.15.56.12h0Z"/>
      <path class="st7" d="M13.86,21.96l1.37.36c.18.05.41,0,.57-.1.09-.05.16-.12.21-.21.06-.08.1-.16.12-.26.04-.19.02-.4-.1-.57s-.27-.28-.47-.33l-1.37-.36c-.18-.05-.41,0-.57.1-.09.05-.16.12-.21.21-.06.08-.1.16-.12.26-.04.19-.02.4.1.57s.27.28.47.33h0Z"/>
      <path class="st7" d="M34.28,27.46l-1.04-.96c-.14-.13-.22-.34-.22-.53,0-.1.02-.2.06-.29.03-.09.08-.17.16-.24.14-.13.33-.23.53-.22s.38.08.53.22l1.04.96c.14.13.22.34.22.53,0,.1-.02.2-.06.29-.03.09-.08.17-.16.24-.14.13-.33.23-.53.22s-.38-.08-.53-.22h0Z"/>
      <path class="st7" d="M36.12,24.81l-1.4-.2c-.19-.03-.38-.16-.48-.31-.06-.08-.1-.17-.11-.27-.03-.09-.03-.19-.01-.29.04-.19.14-.38.31-.48s.36-.15.56-.12l1.4.2c.19.03.38.16.48.31.06.08.1.17.11.27.03.09.03.19.01.29-.04.19-.14.38-.31.48s-.36.15-.56.12h0Z"/>
      <path class="st7" d="M36.66,21.96l-1.37.36c-.18.05-.41,0-.57-.1-.09-.05-.16-.12-.21-.21-.06-.08-.1-.16-.12-.26-.04-.19-.02-.4.1-.57s.27-.28.47-.33l1.37-.36c.18-.05.41,0,.57.1.09.05.16.12.21.21.06.08.1.16.12.26.04.19.02.4-.1.57s-.27.28-.47.33h0Z"/>
    </g>
    <g>
      <g>
        <circle class="st0" cx="20.09" cy="21.77" r=".98"/>
        <circle class="st0" cx="30.27" cy="21.77" r=".98"/>
        <ellipse class="st0" cx="25.18" cy="22.89" rx=".88" ry=".55"/>
      </g>
      <path class="st0" d="M19.43,14.74c3.54-1.45,7.54-1.57,11.17-.32.46.16.65-.57.2-.72-3.73-1.29-7.91-1.18-11.56.32-.19.08-.32.25-.26.46.05.18.27.34.46.26h0Z"/>
      <path class="st0" d="M15.1,9.82c1.62.7,3.11,1.67,4.38,2.89.36.35.71.72,1.04,1.1.13.15.4.14.53,0,.15-.15.13-.38,0-.53-1.18-1.38-2.61-2.55-4.19-3.43-.45-.25-.91-.48-1.38-.68-.19-.08-.4-.06-.51.13-.09.16-.05.43.13.51h0Z"/>
      <path class="st0" d="M13.92,10c-1.12,3.05-.99,6.47.29,9.44.08.19.35.23.51.13.19-.11.22-.33.13-.51-1.2-2.79-1.26-6.02-.22-8.86.17-.45-.56-.65-.72-.2h0Z"/>
      <path class="st0" d="M15.67,12.58c.2.11.39.23.58.36.05.03.09.07.14.1.04.03-.06-.05-.03-.02.01,0,.02.02.03.02.02.02.05.04.07.06.09.07.17.15.26.22.17.15.32.32.47.49.02.02.04.05.06.07,0,.01.07.09.03.03s.02.02.03.03c.02.03.04.05.06.08.07.09.13.19.19.28.14.22.26.44.36.68.04.08.14.15.22.17.09.02.21.01.29-.04s.15-.13.17-.22c.02-.1,0-.19-.04-.29-.4-.9-1.04-1.67-1.83-2.26-.21-.16-.43-.3-.67-.42-.17-.09-.42-.05-.51.13-.09.17-.05.41.13.51h0Z"/>
      <path class="st0" d="M16.37,16.56c-1.67,1.82-2.62,4.35-2.38,6.83s1.56,4.51,3.61,5.76c1.12.68,2.43,1.06,3.75,1.01.48-.02.48-.77,0-.75-2.09.07-4.11-1.03-5.33-2.71-1.32-1.81-1.6-4.13-.98-6.26.36-1.24,1-2.39,1.88-3.35.33-.36-.2-.89-.53-.53h0Z"/>
      <path class="st0" d="M30.45,13.92c.54-.53,1.05-1.09,1.6-1.62.44-.42.91-.79,1.38-1.16.42-.32.84-.64,1.29-.92.19-.12.4-.24.61-.31.05-.02.1-.03.16-.05s.05-.01.06-.01c.12,0,.1,0,.19.02.06.02.03,0,.04.01.03.01.06.03.09.05.05.03.08.06.15.13.09.1.18.25.25.41.17.36.27.81.33,1.22.13.78.15,1.59.16,2.38.02,1.71-.27,3.42-.95,5-.08.19-.05.4.13.51.16.09.43.05.51-.13,1.05-2.43,1.27-5.14.9-7.74-.12-.83-.34-1.95-1.13-2.42-.93-.56-2.07.37-2.79.91-.55.41-1.05.78-1.56,1.24-.69.62-1.31,1.32-1.98,1.97-.35.34.18.87.53.53h0Z"/>
      <path class="st0" d="M34.64,11.93c-.86.46-1.6,1.16-2.12,1.99-.14.22-.26.46-.37.7-.04.1-.07.18-.04.29.02.09.09.18.17.22.09.05.19.07.29.04.09-.03.19-.09.22-.17.09-.21.2-.41.31-.6.06-.1.12-.19.18-.29.03-.05.07-.09.1-.14.02-.02.03-.04.05-.06.03-.04-.05.06-.02.03.01-.01.02-.03.03-.04.14-.18.29-.35.46-.5.08-.08.17-.16.26-.24.04-.03.08-.07.12-.1.01,0,.09-.07.03-.03-.05.04-.01,0,0,0,.02-.01.03-.02.05-.04.21-.15.42-.29.65-.41.17-.09.24-.35.13-.51-.11-.18-.33-.23-.51-.13h0Z"/>
      <path class="st0" d="M33.79,17.09c1.52,1.66,2.36,3.95,2.17,6.2s-1.41,4.09-3.24,5.2c-1.02.62-2.17.95-3.37.91-.48-.02-.48.73,0,.75,2.34.07,4.54-1.16,5.93-3.01,1.48-1.97,1.79-4.57,1.11-6.91-.39-1.37-1.11-2.63-2.07-3.68-.33-.36-.86.17-.53.53h0Z"/>
    </g>
  </g>
</svg>