<?xml version="1.0" encoding="UTF-8"?>
<svg id="cat" xmlns="http://www.w3.org/2000/svg" version="1.1" viewBox="0 0 50.83 48.47">
  <!-- Generator: Adobe Illustrator 29.8.2, SVG Export Plug-In . SVG Version: 2.1.1 Build 3)  -->
  <defs>
    <style>
      .st0 {
        fill: #231f20;
      }

      .st1 {
        fill: #697d8f;
      }

      .st2 {
        fill: #feda00;
      }
    </style>
  </defs>
  <g>
    <path class="st1" d="M26.31,24.15c3.68,1.14,5.75,5.84,6.06,9.37.1,1.09.04,2.25-.5,3.2-.94,1.65-3.62,1.9-5.32,1.98-1.42.07-2.95.17-4.24-.38-1.06-.45-2.4-.28-3.4-.84-1.09-.61-1.24-2.1-1.18-3.35.08-1.45.27-2.9.57-4.33.25-1.19.6-2.41,1.41-3.33,1.34-1.52,4.59-2.95,6.59-2.33Z"/>
    <path class="st1" d="M35.12,27.93c-.4.68-.51,1.64-.5,2.32,0,.8.07,1.62-.16,2.39-.36,1.22-1.5,2.17-2.77,2.3-.47.05-.95,0-1.4.11-1.26.31-1.3,1.99-.16,2.51.56.25,1.2.21,1.8.1,1.27-.23,2.51-.74,3.47-1.59s1.62-2.08,1.67-3.37c.02-.73-.14-1.52.22-2.16.17-.31.45-.56.61-.88.46-.95-.24-2.53-1.36-2.55-.67-.01-1.12.34-1.41.83Z"/>
    <g>
      <path class="st0" d="M20.79,26.44c-2.08,1.09-2.96,3.35-3.29,5.55-.16,1.09-.27,2.23-.14,3.34.1.94.42,1.88,1.18,2.49.69.55,1.58.7,2.43.67.48-.02.48-.77,0-.75-.62.03-1.26-.04-1.8-.38-.67-.42-.95-1.2-1.06-1.95-.14-.98-.05-2.02.08-3s.33-1.96.74-2.85c.48-1.04,1.21-1.93,2.24-2.47.43-.23.05-.87-.38-.65h0Z"/>
      <path class="st0" d="M20.95,35.47c.02.62.08,1.25.21,1.85.11.53.37,1.07.88,1.32.27.13.55.18.84.19.27,0,.57-.02.83-.08.31-.07.58-.26.73-.54.13-.24.19-.51.23-.78.11-.7.14-1.41.06-2.12-.01-.1-.03-.19-.11-.27-.07-.07-.17-.11-.27-.11-.18,0-.4.17-.38.38.06.56.06,1.12,0,1.68,0,.04,0,.07-.01.11,0,.02,0,.03,0,.05,0,.06,0-.07,0,0-.01.07-.02.14-.03.21-.02.11-.04.23-.07.34,0,.03-.02.05-.03.08,0,.01,0,.02-.01.03-.01.04.02-.04.02-.04-.02.02-.02.05-.03.07-.01.03-.03.05-.05.08,0,0-.01.02-.02.03,0,0,.05-.06.02-.03-.02.02-.04.04-.06.06,0,0-.04.03,0,0,.05-.03,0,0-.01,0-.02.01-.07.03-.08.04.02-.03.06-.02.02,0-.01,0-.02,0-.04.01-.03,0-.06.02-.09.02-.03,0-.05.01-.08.02-.02,0-.03,0-.05,0-.05,0,0,0,.02,0-.05.02-.12.01-.17.02-.06,0-.11,0-.17.01-.11,0-.23,0-.34,0-.01,0-.02,0-.04,0-.04,0,.04,0,.04,0-.03,0-.06,0-.08-.01-.06-.01-.12-.03-.17-.05-.02,0-.04-.02-.07-.02,0,0,.08.04.02,0-.01,0-.02-.01-.03-.02-.05-.03-.1-.06-.14-.09-.04-.03.05.05.02.01,0,0-.02-.02-.03-.02-.02-.02-.04-.04-.06-.06-.02-.02-.03-.03-.05-.05,0-.01-.04-.05,0,0s0,0,0,0c-.03-.04-.05-.08-.08-.13-.01-.02-.03-.05-.04-.07,0-.01,0-.02-.01-.03.05.08.02.04,0,.01-.04-.1-.07-.21-.1-.32-.03-.13-.05-.25-.07-.38-.01-.08-.02-.15-.03-.23,0-.01-.01-.08,0-.03s0-.02,0-.03c0-.04-.01-.08-.01-.12-.04-.32-.06-.64-.07-.97,0-.2-.17-.38-.38-.38s-.38.16-.38.38h0Z"/>
      <path class="st0" d="M29.21,27.08c1.46,1.11,2.13,3.1,2.47,4.83.18.92.28,1.85.27,2.79-.01.67-.1,1.35-.46,1.93-.45.73-1.26,1.03-2.09,1.1-.48.04-.48.79,0,.75.89-.07,1.79-.34,2.4-1.02.54-.6.77-1.36.86-2.15.11-1,0-2.02-.16-3.01s-.42-2.01-.82-2.96c-.48-1.13-1.11-2.15-2.1-2.9-.16-.12-.42-.02-.51.13-.11.19-.03.39.13.51h0Z"/>
      <path class="st0" d="M28.68,35.47c0,.29-.03.57-.06.86,0,.07-.01.13-.02.2,0,.02,0,.03,0,.05,0,.07,0,0,0,0,0,.04-.01.08-.02.12-.02.12-.04.24-.06.37-.02.11-.05.22-.08.33-.02.05-.03.1-.05.15,0,0-.02.04-.02.04,0,0,.03-.07.01-.04-.01.03-.03.06-.04.08-.02.04-.05.09-.08.13,0,.01-.02.03-.03.04,0,0,.05-.06.02-.03-.02.02-.04.05-.06.07-.02.02-.03.03-.05.05-.01.01-.02.02-.04.03-.03.03.03-.02.03-.02-.05.02-.09.06-.14.09-.01,0-.1.05-.04.02.05-.02-.03,0-.04.01-.05.02-.11.03-.16.04-.03,0-.06,0-.08.01-.04,0,.04,0,.04,0,0,0-.05,0-.05,0-.06,0-.11,0-.17,0-.12,0-.23,0-.35-.01-.05,0-.11-.01-.16-.02-.04,0,.04,0,.04,0-.02,0-.04,0-.05,0-.03,0-.07-.01-.1-.02-.03,0-.05-.01-.08-.02-.02,0-.03-.01-.05-.02,0,0-.05-.02,0,0s0,0,0,0c-.01,0-.03-.02-.04-.03-.01,0-.02-.01-.03-.02-.04-.02.05.05.02.02-.02-.02-.04-.04-.06-.06,0,0-.03-.04,0,0,.03.05,0,0,0,0-.03-.04-.05-.09-.08-.14-.02-.04.02.04.02.04,0-.01-.01-.03-.02-.04,0-.02-.01-.04-.02-.07-.02-.06-.03-.11-.04-.17-.03-.13-.05-.26-.07-.39,0-.04,0,.02,0,.02,0-.02,0-.04,0-.06,0-.04,0-.08-.01-.12,0-.08-.02-.16-.02-.24-.01-.16-.02-.31-.02-.47,0-.32.01-.64.05-.95.02-.2-.19-.38-.38-.38-.22,0-.35.17-.38.38-.07.61-.06,1.22.02,1.83s.17,1.28.79,1.54c.27.11.57.14.85.15.27.01.55,0,.81-.09.27-.09.52-.24.7-.47s.3-.49.37-.76c.09-.32.13-.66.17-.99.04-.35.07-.69.08-1.04,0-.2-.18-.38-.38-.38-.21,0-.37.16-.38.38h0Z"/>
      <path class="st0" d="M33.11,34.87c1.01-.48,1.48-1.62,1.62-2.67.15-1.17-.05-2.47.51-3.56.12-.24.27-.45.46-.63.16-.15.46-.39.7-.33.47.11.67-.61.2-.72-.61-.14-1.22.27-1.6.71s-.61.96-.74,1.51c-.3,1.26-.03,2.6-.49,3.83-.19.52-.53.97-1.04,1.21-.18.09-.23.35-.13.51.11.19.33.22.51.13h0Z"/>
      <path class="st0" d="M31.89,37.93c1.88.08,3.7-.97,4.67-2.56.54-.88.7-1.84.76-2.85.03-.54.05-1.09.2-1.62s.5-.95.71-1.45c.35-.88-.03-2.13-.98-2.45-.46-.15-.66.57-.2.72.28.09.44.42.52.69.11.38.02.7-.17,1.04-.23.42-.48.81-.61,1.28s-.17.98-.2,1.47c-.05.88-.11,1.74-.53,2.53-.38.71-.94,1.31-1.62,1.74-.76.48-1.64.74-2.55.7-.48-.02-.48.73,0,.75h0Z"/>
      <path class="st0" d="M22.24,37.45c0,.07,0,.14.02.22,0,.05.02.1.03.15.02.07.05.14.08.2.02.05.05.09.08.14.02.03.04.05.06.07.02.02.05.04.09.04.03.01.07.01.1,0,.03,0,.06-.01.09-.03.05-.03.1-.09.11-.15s.01-.14-.03-.19-.07-.11-.09-.17l.03.06c-.04-.08-.06-.17-.07-.26v.07s0-.1,0-.15c0-.03,0-.07-.02-.1-.01-.03-.03-.06-.05-.08-.02-.02-.05-.04-.08-.05-.03-.02-.06-.02-.1-.02-.06,0-.13.02-.18.07s-.07.11-.07.18h0Z"/>
      <path class="st0" d="M23.06,37.69l.09.5s.02.06.04.09c.02.03.04.05.07.06.03.02.06.03.09.03.03,0,.07,0,.1,0l.06-.03s.07-.05.09-.09l.03-.06s.01-.09,0-.13l-.09-.5s-.02-.06-.04-.09c-.02-.03-.04-.05-.07-.06-.03-.02-.06-.03-.09-.03-.03,0-.07,0-.1,0l-.06.03s-.07.05-.09.09l-.03.06s-.01.09,0,.13h0Z"/>
      <path class="st0" d="M26.81,37.39c-.02.07-.03.14-.03.21,0,.05,0,.1,0,.16,0,.07.02.14.04.21s.05.14.08.2c.02.03.04.05.06.07.02.02.05.04.09.04.03.01.07.01.1,0,.03,0,.06-.01.09-.03.05-.03.1-.09.11-.15v-.07s0-.09-.03-.13c0-.01-.01-.02-.02-.04l.03.06c-.03-.07-.05-.14-.06-.22v.07c0-.08,0-.15,0-.23v.07s0-.07.01-.1c.01-.03.01-.07,0-.1,0-.03-.01-.06-.03-.09-.02-.03-.04-.05-.06-.07-.02-.02-.05-.04-.09-.04-.06-.01-.14-.01-.19.03s-.1.09-.11.15h0Z"/>
      <path class="st0" d="M27.63,37.61s.01.06.02.08v-.07c0,.08,0,.16,0,.23v-.07c0,.08-.02.15-.05.22l.03-.06s-.01.03-.02.04c-.02.03-.03.06-.03.09,0,.03,0,.07,0,.1,0,.03.02.06.04.09.02.03.04.05.07.06.06.03.13.05.19.03.06-.02.12-.06.15-.11.03-.06.06-.13.08-.2s.03-.14.04-.21c0-.05,0-.1,0-.15,0-.07-.01-.14-.03-.21,0-.03-.02-.06-.04-.09-.02-.03-.04-.05-.07-.06-.03-.02-.06-.03-.09-.03-.03,0-.07,0-.1,0-.06.02-.12.06-.15.11l-.03.06s-.01.09,0,.13h0Z"/>
    </g>
  </g>
  <g>
    <g>
      <path class="st1" d="M14.36,12.26s0,.08,0,.13c-.05,1.35.15,2.7.58,3.98.04.12.08.24.08.37,0,.15-.07.28-.13.41-1.41,3.01-2.51,6.12-.64,9.25.18.31.39.6.66.85.29.26.64.46.98.64,2.84,1.55,5.9,1.79,9.13,1.67,1.64-.06,3.29-.15,4.9-.47,1.38-.27,3-.38,4.16-1.33s2.19-3.04,2.43-4.57c.2-1.26.04-2.57-.44-3.75-.42-1.02-1.29-1.67-1.01-2.77.51-2.04,1.61-4.15.45-6.24-.04-.08-.09-.16-.18-.19-.08-.03-.16,0-.24.02-.9.25-1.82.61-2.63,1.09-.21.13-2.21,1.89-2.09,1.94-1.76-.78-3.91-.8-5.81-.72-.78.03-1.61-.09-2.39.04-.61.11-1.84.38-2.36.69-.76-1.26-1.86-2.12-3.1-2.85-.25-.15-.52-.29-.81-.31-.51-.04-.99.32-1.24.77-.23.41-.3.89-.32,1.36Z"/>
      <g>
        <g>
          <circle class="st2" cx="20.45" cy="21.04" r="1.53"/>
          <circle class="st2" cx="29.75" cy="21.04" r="1.56"/>
          <circle class="st0" cx="20.45" cy="21.04" r=".98"/>
          <circle class="st0" cx="29.75" cy="21.04" r=".98"/>
          <ellipse class="st0" cx="24.85" cy="22.16" rx=".88" ry=".55"/>
        </g>
        <path class="st0" d="M19.1,14.02c3.54-1.45,7.54-1.57,11.17-.32.46.16.65-.57.2-.72-3.73-1.29-7.91-1.18-11.56.32-.19.08-.32.25-.26.46.05.18.27.34.46.26h0Z"/>
        <path class="st0" d="M15.69,10.46c.61.26,1.21.54,1.77.9.12.08.23.15.34.24.03.02.06.04.08.06.02.02.06.06-.01,0,.01.01.02.02.04.03.06.05.11.09.17.14.23.19.44.4.65.61.28.29.54.59.8.89.13.15.4.14.53,0,.15-.16.14-.37,0-.53-.43-.51-.88-1.01-1.39-1.45-.46-.39-.96-.73-1.5-1.01-.36-.19-.73-.36-1.11-.52-.18-.08-.41-.06-.51.13-.09.16-.06.43.13.51h0Z"/>
        <path class="st0" d="M14.52,10.47c-.65,1.78-.64,3.76-.07,5.56.11.35.25.7.41,1.04.09.18.35.23.51.13.19-.11.22-.33.13-.51-.03-.06-.05-.11-.08-.17-.01-.03-.03-.06-.04-.09.03.06-.01-.03-.02-.05-.06-.15-.12-.3-.17-.45-.11-.34-.2-.69-.27-1.04-.17-.84-.2-1.71-.1-2.57.07-.56.21-1.11.41-1.64.07-.19-.08-.41-.26-.46-.21-.06-.39.07-.46.26h0Z"/>
        <path class="st0" d="M16.26,12.67c.27.14.55.28.79.46l-.08-.06c.1.07.18.16.26.25l-.06-.08c.18.24.3.52.42.79.04.08.14.15.22.17.09.02.21.01.29-.04s.15-.13.17-.22v-.1c.01-.07,0-.13-.04-.19-.07-.16-.14-.32-.22-.47-.07-.14-.16-.27-.26-.39-.16-.21-.39-.37-.61-.5-.17-.1-.34-.19-.51-.28-.09-.05-.19-.06-.29-.04-.09.02-.18.09-.22.17-.05.09-.07.19-.04.29.03.09.09.18.17.22h0Z"/>
        <path class="st0" d="M16.11,15.77c-2.28,1.68-3.31,4.41-3.09,7.19.1,1.21.38,2.44.98,3.5s1.49,1.89,2.57,2.42c1.43.7,3.05.84,4.62.67.47-.05.48-.8,0-.75-2.37.26-4.96-.28-6.35-2.4-1.2-1.84-1.39-4.45-.77-6.52.41-1.39,1.26-2.6,2.42-3.46.38-.28.01-.93-.38-.65h0Z"/>
        <path class="st0" d="M30.93,13.44c.26-.3.51-.62.8-.9s.59-.52.89-.76c.4-.31.84-.58,1.29-.8.19-.09.39-.17.59-.23.09-.03.18-.05.28-.07.02,0,.13-.02.09-.02-.04,0,0,0,.01,0,.02,0,.05,0,.07,0,.08,0-.03-.02.03,0,.01,0,.11.03.06.01-.05-.02.04.02.05.03.03.02.1.08.04.02.05.05.1.09.14.15-.04-.05,0,0,.01.03.03.04.05.08.08.13.02.03.04.07.05.11,0,.02.04.09.02.04.04.09.07.18.09.27.05.17.08.34.11.51.01.08,0,.03,0,.01,0,.02,0,.04,0,.06,0,.04,0,.09.01.13,0,.09.01.18.01.27,0,.17,0,.33-.02.5-.05.45-.11.89-.21,1.33-.08.37-.19.73-.33,1.09-.15.38-.31.74-.49,1.16-.08.19-.05.4.13.51.16.09.43.05.51-.13.32-.73.66-1.46.85-2.24.12-.47.18-.95.24-1.43.05-.4.08-.79.03-1.2-.08-.71-.3-1.67-1.02-1.99-.41-.18-.85-.07-1.25.07-.52.18-1.01.44-1.47.74s-.92.67-1.33,1.04c-.34.31-.64.68-.94,1.03-.13.15-.15.38,0,.53.13.13.4.15.53,0h0Z"/>
        <path class="st0" d="M34,11.72c-.72.39-1.31,1.01-1.72,1.71-.1.16-.18.33-.26.5-.04.09-.07.19-.04.29.02.09.09.18.17.22.09.05.19.07.29.04.09-.03.18-.09.22-.17.16-.35.36-.68.59-.98l-.06.08c.22-.28.47-.54.75-.76l-.08.06c.16-.12.33-.23.51-.33s.24-.35.13-.51c-.11-.18-.33-.23-.51-.13h0Z"/>
        <path class="st0" d="M33.46,16.36c1.86,1.6,3,4.03,2.78,6.5-.18,2.11-1.49,4.17-3.36,5.19-1.19.64-2.54.8-3.87.63-.48-.06-.47.69,0,.75,2.57.33,5.01-.69,6.54-2.78s1.84-4.71.99-7.09c-.51-1.44-1.4-2.73-2.56-3.73-.36-.31-.9.22-.53.53h0Z"/>
      </g>
    </g>
    <path class="st0" d="M27.01,23.36c-.18.27-.46.58-.82.55-.17-.02-.3-.11-.44-.21-.15-.11-.3-.23-.48-.31s-.35-.12-.52-.07c-.15.05-.27.14-.39.24-.23.19-.44.42-.71.47,0,0-.04,0-.08,0-.04,0-.09,0-.13-.02-.1-.02-.19-.06-.27-.1-.18-.1-.31-.25-.41-.44-.06-.12-.23-.15-.34-.09-.12.07-.15.22-.09.34.2.41.61.72,1.06.79.42.07.76-.12,1.07-.39.12-.1.23-.21.34-.28.03-.02.05-.03.08-.05.04-.02-.05.03,0,0,.01,0,.03,0,.04,0-.06.02.01,0,.03,0,.02,0,.08.02.1.03.18.08.34.22.51.33.2.13.4.22.64.24.54.04.98-.37,1.25-.79.07-.11.02-.28-.09-.34-.12-.07-.27-.02-.34.09h0Z"/>
  </g>
</svg>