<?xml version="1.0" encoding="UTF-8"?>
<svg id="cat" xmlns="http://www.w3.org/2000/svg" version="1.1" xmlns:xlink="http://www.w3.org/1999/xlink" viewBox="0 0 50.83 48.47">
  <!-- Generator: Adobe Illustrator 29.8.2, SVG Export Plug-In . SVG Version: 2.1.1 Build 3)  -->
  <defs>
    <style>
      .st0 {
        fill: #231f20;
      }

      .st1 {
        fill: #fff;
      }

      .st2 {
        fill: #f8c04e;
      }

      .st3 {
        fill: none;
      }

      .st4 {
        clip-path: url(#clippath-1);
      }

      .st5 {
        fill: #5c564d;
      }

      .st6 {
        clip-path: url(#clippath);
      }
    </style>
    <clipPath id="clippath">
      <path class="st3" d="M37.08,28.17c-.66-.24-1.26.12-1.6.64-.45.67-.51,1.51-.51,2.32,0,.8.07,1.62-.16,2.39-.36,1.21-1.49,2.16-2.75,2.3.12-.87.05-1.78-.17-2.62-.34-1.2-.65-2.41-1.1-3.57-.79-2.01-1.93-3.92-4.12-4.6-1.24-.38-2.63-.04-3.71.69-1.72,1.18-2.5,3.64-3.07,5.56-.46,1.56-1.05,2.69-.79,4.37.63,3.99,4.55,4.1,7.8,3.93,1.27-.07,2.62-.19,3.65-.95.25-.18.45-.4.64-.64,1.48.2,3.06-.49,4.13-1.49,1.47-1.37,1.04-2.82,1.36-4.56.12-.68.51-1.27.78-1.91.31-.73.55-1.53-.38-1.88Z"/>
    </clipPath>
    <clipPath id="clippath-1">
      <path class="st3" d="M14.68,13.25c-.13.86-.21,1.73-.24,2.6-.06,1.71.23,3.37.02,5.07-.34,2.67.3,5.61,2.29,7.42,2.25,2.04,5.59,2.21,8.63,2.09,1.69-.07,3.39-.18,5.02-.65s3.19-1.29,4.28-2.58c.44-.52.8-1.1,1.06-1.72.4-.96.71-2.19.66-3.24-.05-1.08-.47-1.95-.24-3.05.25-1.18.32-2.23.19-3.43-.23-2.13-.68-4.23-1.32-6.27-.2-.63-.61-1.39-1.27-1.3-.29.04-.53.24-.74.45-.87.85-1.61,1.83-2.19,2.9-.43.79-.57,2.24-1.65,2.14-1.32-.12-2.53-.65-3.9-.66-1.24,0-2.47.18-3.65.56-.2.06-.41.14-.62.12-.47-.04-.7-.65-.83-1.02-.56-1.6-1.51-3.07-2.75-4.24-.26-.25-.6-.5-.94-.39-.23.07-.38.29-.5.51-.29.53-.48,1.11-.65,1.69-.29.99-.51,1.99-.66,3.01Z"/>
    </clipPath>
  </defs>
  <g>
    <g class="st6">
      <path class="st2" d="M37.08,28.17c-.66-.24-1.26.12-1.6.64-.45.67-.51,1.51-.51,2.32,0,.8.07,1.62-.16,2.39-.36,1.21-1.49,2.16-2.75,2.3.12-.87.05-1.78-.17-2.62-.34-1.2-.65-2.41-1.1-3.57-.79-2.01-1.93-3.92-4.12-4.6-1.24-.38-2.63-.04-3.71.69-1.72,1.18-2.5,3.64-3.07,5.56-.46,1.56-1.05,2.69-.79,4.37.63,3.99,4.55,4.1,7.8,3.93,1.27-.07,2.62-.19,3.65-.95.25-.18.45-.4.64-.64,1.48.2,3.06-.49,4.13-1.49,1.47-1.37,1.04-2.82,1.36-4.56.12-.68.51-1.27.78-1.91.31-.73.55-1.53-.38-1.88Z"/>
      <path class="st5" d="M23.25,36.65c-.34-.85-1.89-.62-1.84.33.02.42.33.74.75.75.6.02,1.41-.28,1.09-1.08Z"/>
      <path class="st5" d="M20.19,35.27s-.03-.01-.04-.02c-.85-.45-1.61.84-.76,1.3.01,0,.03.01.04.02.85.45,1.61-.84.76-1.3Z"/>
      <path class="st5" d="M21.6,33.66c.05-.09.07-.19.06-.29,0-.07-.02-.13-.03-.2-.04-.13-.1-.24-.19-.33-.05-.04-.1-.08-.15-.12-.12-.07-.24-.1-.38-.1h-.07c-.1,0-.2.02-.29.06-.09.03-.17.08-.24.16-.07.07-.12.15-.16.24-.05.09-.07.19-.06.29,0,.07.02.13.03.2.04.13.1.24.19.33.05.04.1.08.15.12.12.07.24.1.38.1h.07c.1,0,.2-.02.29-.06.09-.03.17-.08.24-.16.07-.07.12-.15.16-.24Z"/>
      <path class="st5" d="M20.26,30.4c-.1,0-.2.02-.29.06-.09.03-.17.08-.24.16-.07.07-.12.15-.16.24-.05.09-.07.19-.06.29,0,.07.02.13.03.2.04.13.1.24.19.33.05.04.1.08.15.12.12.07.24.1.38.1h.07c.1,0,.2-.02.29-.06.09-.03.17-.08.24-.16.07-.07.12-.15.16-.24.05-.09.07-.19.06-.29,0-.07-.02-.13-.03-.2-.04-.13-.1-.24-.19-.33-.05-.04-.1-.08-.15-.12-.12-.07-.24-.1-.38-.1h-.07Z"/>
      <path class="st5" d="M36.97,29.71l-.07-.07c-.07-.07-.15-.12-.24-.16-.09-.05-.19-.07-.29-.06-.1,0-.2.02-.29.06-.09.03-.17.08-.24.16-.04.05-.08.1-.12.15-.07.12-.1.24-.1.38,0,.07.02.13.03.2.04.13.1.24.19.33.02.02.04.04.07.07.07.07.15.12.24.16.09.05.19.07.29.06.1,0,.2-.02.29-.06.09-.03.17-.08.24-.16.04-.05.08-.1.12-.15.07-.12.1-.24.1-.38,0-.07-.02-.13-.03-.2-.04-.13-.1-.24-.19-.33Z"/>
      <path class="st5" d="M36.32,32.06l-.07-.07c-.07-.07-.15-.12-.24-.16-.09-.05-.19-.07-.29-.06-.1,0-.2.02-.29.06-.09.03-.17.08-.24.16-.04.05-.08.1-.12.15-.07.12-.1.24-.1.38,0,.07.02.13.03.2.04.13.1.24.19.33.02.02.04.04.07.07.07.07.15.12.24.16.09.05.19.07.29.06.1,0,.2-.02.29-.06.09-.03.17-.08.24-.16.04-.05.08-.1.12-.15.07-.12.1-.24.1-.38,0-.07-.02-.13-.03-.2-.04-.13-.1-.24-.19-.33Z"/>
      <path class="st5" d="M35.01,34.54c-.05-.04-.1-.08-.15-.12-.12-.07-.24-.1-.38-.1h-.07c-.1,0-.2.02-.29.06-.09.03-.17.08-.24.16-.07.07-.12.15-.16.24-.05.09-.07.19-.06.29,0,.07.02.13.03.2.04.13.1.24.19.33.05.04.1.08.15.12.12.07.24.1.38.1h.07c.1,0,.2-.02.29-.06.09-.03.17-.08.24-.16.07-.07.12-.15.16-.24.05-.09.07-.19.06-.29,0-.07-.02-.13-.03-.2-.04-.13-.1-.24-.19-.33Z"/>
      <path class="st5" d="M28.94,36.13c-.55-.11-1.25-.01-1.14.77.08.56.84.88,1.32.6.16-.09.3-.27.34-.45.04-.19.03-.41-.08-.58-.1-.16-.26-.31-.45-.34Z"/>
      <path class="st5" d="M23,30.63c-.13.04-.24.1-.33.19-.04.05-.08.1-.12.15-.07.12-.1.24-.1.38v.07c0,.1.02.2.06.29.03.09.08.17.16.24.07.07.15.12.24.16.09.05.19.07.29.06.07,0,.13-.02.2-.03.13-.04.24-.1.33-.19.04-.05.08-.1.12-.15.07-.12.1-.24.1-.38v-.07c0-.1-.02-.2-.06-.29-.03-.09-.08-.17-.16-.24-.07-.07-.15-.12-.24-.16-.09-.05-.19-.07-.29-.06-.07,0-.13.02-.2.03Z"/>
      <path class="st5" d="M30.83,35.27s.03-.01.04-.02c.85-.45,1.61.84.76,1.3-.01,0-.03.01-.04.02-.85.45-1.61-.84-.76-1.3Z"/>
      <path class="st5" d="M29.15,33.66c-.05-.09-.07-.19-.06-.29,0-.07.02-.13.03-.2.04-.13.1-.24.19-.33.05-.04.1-.08.15-.12.12-.07.24-.1.38-.1h.07c.1,0,.2.02.29.06.09.03.17.08.24.16.07.07.12.15.16.24.05.09.07.19.06.29,0,.07-.02.13-.03.2-.04.13-.1.24-.19.33-.05.04-.1.08-.15.12-.12.07-.24.1-.38.1h-.07c-.1,0-.2-.02-.29-.06-.09-.03-.17-.08-.24-.16-.07-.07-.12-.15-.16-.24Z"/>
      <path class="st5" d="M30.49,30.4c.1,0,.2.02.29.06.09.03.17.08.24.16.07.07.12.15.16.24.05.09.07.19.06.29,0,.07-.02.13-.03.2-.04.13-.1.24-.19.33-.05.04-.1.08-.15.12-.12.07-.24.1-.38.1h-.07c-.1,0-.2-.02-.29-.06-.09-.03-.17-.08-.24-.16-.07-.07-.12-.15-.16-.24-.05-.09-.07-.19-.06-.29,0-.07.02-.13.03-.2.04-.13.1-.24.19-.33.05-.04.1-.08.15-.12.12-.07.24-.1.38-.1h.07Z"/>
      <path class="st5" d="M27.76,30.63c.13.04.24.1.33.19.04.05.08.1.12.15.07.12.1.24.1.38v.07c0,.1-.02.2-.06.29-.03.09-.08.17-.16.24-.07.07-.15.12-.24.16-.09.05-.19.07-.29.06-.07,0-.13-.02-.2-.03-.13-.04-.24-.1-.33-.19-.04-.05-.08-.1-.12-.15-.07-.12-.1-.24-.1-.38v-.07c0-.1.02-.2.06-.29.03-.09.08-.17.16-.24.07-.07.15-.12.24-.16.09-.05.19-.07.29-.06.07,0,.13.02.2.03Z"/>
    </g>
    <g>
      <path class="st0" d="M21.01,27.45c-.42.9-.82,1.82-1.19,2.74s-.72,1.78-.96,2.7c-.42,1.62-.45,3.4.47,4.86.46.73,1.1,1.28,1.9,1.59.45.17.65-.55.2-.72-1.74-.67-2.27-2.78-2.06-4.45.13-1.08.51-2.12.91-3.13.43-1.09.89-2.16,1.38-3.22.2-.44-.44-.82-.65-.38h0Z"/>
      <path class="st0" d="M21.31,36.34c.02.62.08,1.25.21,1.85.11.53.37,1.07.88,1.32.27.13.55.18.84.19.27,0,.57-.02.83-.08.31-.07.58-.26.73-.54.13-.24.19-.51.23-.78.11-.7.14-1.41.06-2.12-.01-.1-.03-.19-.11-.27-.07-.07-.17-.11-.27-.11-.18,0-.4.17-.38.38.06.56.06,1.12,0,1.68,0,.04,0,.07-.01.11,0,.02,0,.03,0,.05,0,.06,0-.07,0,0-.01.07-.02.14-.03.21-.02.11-.04.23-.07.34,0,.03-.02.05-.03.08,0,.01,0,.02-.01.03-.01.04.02-.04.02-.04-.02.02-.02.05-.03.07-.01.03-.03.05-.05.08,0,0-.01.02-.02.03,0,0,.05-.06.02-.03-.02.02-.04.04-.06.06,0,0-.04.03,0,0,.05-.03,0,0-.01,0-.02.01-.07.03-.08.04.02-.03.06-.02.02,0-.01,0-.02,0-.04.01-.03,0-.06.02-.09.02-.03,0-.05.01-.08.02-.02,0-.03,0-.05,0-.05,0,0,0,.02,0-.05.02-.12.01-.17.02-.06,0-.11,0-.17.01-.11,0-.23,0-.34,0-.01,0-.02,0-.04,0-.04,0,.04,0,.04,0-.03,0-.06,0-.08-.01-.06-.01-.12-.03-.17-.05-.02,0-.04-.02-.07-.02,0,0,.08.04.02,0-.01,0-.02-.01-.03-.02-.05-.03-.1-.06-.14-.09-.04-.03.05.05.02.01,0,0-.02-.02-.03-.02-.02-.02-.04-.04-.06-.06-.02-.02-.03-.03-.05-.05,0-.01-.04-.05,0,0s0,0,0,0c-.03-.04-.05-.08-.08-.13-.01-.02-.03-.05-.04-.07,0-.01,0-.02-.01-.03.05.08.02.04,0,.01-.04-.1-.07-.21-.1-.32-.03-.13-.05-.25-.07-.38-.01-.08-.02-.15-.03-.23,0-.01-.01-.08,0-.03s0-.02,0-.03c0-.04-.01-.08-.01-.12-.04-.32-.06-.64-.07-.97,0-.2-.17-.38-.38-.38s-.38.16-.38.38h0Z"/>
      <path class="st0" d="M29.44,27.83c.49,1.06.95,2.13,1.38,3.22.4,1.01.78,2.05.91,3.13.21,1.67-.32,3.78-2.06,4.45-.45.17-.25.9.2.72,1.43-.55,2.33-1.92,2.58-3.4.31-1.86-.34-3.7-1.02-5.4-.42-1.04-.86-2.07-1.34-3.09-.2-.44-.85-.06-.65.38h0Z"/>
      <path class="st0" d="M29.04,36.34c0,.29-.03.57-.06.86,0,.07-.01.13-.02.2,0,.02,0,.03,0,.05,0,.07,0,0,0,0,0,.04-.01.08-.02.12-.02.12-.04.24-.06.37-.02.11-.05.22-.08.33-.02.05-.03.1-.05.15,0,0-.02.04-.02.04,0,0,.03-.07.01-.04-.01.03-.03.06-.04.08-.02.04-.05.09-.08.13,0,.01-.02.03-.03.04,0,0,.05-.06.02-.03-.02.02-.04.05-.06.07-.02.02-.03.03-.05.05-.01.01-.02.02-.04.03-.03.03.03-.02.03-.02-.05.02-.09.06-.14.09-.01,0-.1.05-.04.02.05-.02-.03,0-.04.01-.05.02-.11.03-.16.04-.03,0-.06,0-.08.01-.04,0,.04,0,.04,0,0,0-.05,0-.05,0-.06,0-.11,0-.17,0-.12,0-.23,0-.35-.01-.05,0-.11-.01-.16-.02-.04,0,.04,0,.04,0-.02,0-.04,0-.05,0-.03,0-.07-.01-.1-.02-.03,0-.05-.01-.08-.02-.02,0-.03-.01-.05-.02,0,0-.05-.02,0,0s0,0,0,0c-.01,0-.03-.02-.04-.03-.01,0-.02-.01-.03-.02-.04-.02.05.05.02.02-.02-.02-.04-.04-.06-.06,0,0-.03-.04,0,0,.03.05,0,0,0,0-.03-.04-.05-.09-.08-.14-.02-.04.02.04.02.04,0-.01-.01-.03-.02-.04,0-.02-.01-.04-.02-.07-.02-.06-.03-.11-.04-.17-.03-.13-.05-.26-.07-.39,0-.04,0,.02,0,.02,0-.02,0-.04,0-.06,0-.04,0-.08-.01-.12,0-.08-.02-.16-.02-.24-.01-.16-.02-.31-.02-.47,0-.32.01-.64.05-.95.02-.2-.19-.38-.38-.38-.22,0-.35.17-.38.38-.07.61-.06,1.22.02,1.83s.17,1.28.79,1.54c.27.11.57.14.85.15.27.01.55,0,.81-.09.27-.09.52-.24.7-.47s.3-.49.37-.76c.09-.32.13-.66.17-.99.04-.35.07-.69.08-1.04,0-.2-.18-.38-.38-.38-.21,0-.37.16-.38.38h0Z"/>
      <path class="st0" d="M33.47,35.74c1.01-.48,1.48-1.62,1.62-2.67.15-1.17-.05-2.47.51-3.56.12-.24.27-.45.46-.63.16-.15.46-.39.7-.33.47.11.67-.61.2-.72-.61-.14-1.22.27-1.6.71s-.61.96-.74,1.51c-.3,1.26-.03,2.6-.49,3.83-.19.52-.53.97-1.04,1.21-.18.09-.23.35-.13.51.11.19.33.22.51.13h0Z"/>
      <path class="st0" d="M31.56,38.26c1.8.08,3.53-.89,4.54-2.36.53-.78.78-1.65.86-2.58.04-.53.04-1.07.12-1.6s.28-.96.55-1.41.5-.97.35-1.52c-.13-.48-.5-.86-1.01-.87-.48-.02-.48.73,0,.75.25,0,.33.38.3.58-.05.42-.37.78-.56,1.15-.43.85-.43,1.8-.49,2.73-.05.81-.23,1.55-.66,2.24-.4.64-.96,1.17-1.61,1.55-.73.43-1.55.65-2.4.61-.48-.02-.48.73,0,.75h0Z"/>
      <path class="st0" d="M22.59,38.33c0,.07,0,.14.02.22,0,.05.02.1.03.15.02.07.05.14.08.2.02.05.05.09.08.14.02.03.04.05.06.07.02.02.05.04.09.04.03.01.07.01.1,0,.03,0,.06-.01.09-.03.05-.03.1-.09.11-.15s.01-.14-.03-.19-.07-.11-.09-.17l.03.06c-.04-.08-.06-.17-.07-.26v.07s0-.1,0-.15c0-.03,0-.07-.02-.1-.01-.03-.03-.06-.05-.08-.02-.02-.05-.04-.08-.05-.03-.02-.06-.02-.1-.02-.06,0-.13.02-.18.07s-.07.11-.07.18h0Z"/>
      <path class="st0" d="M23.42,38.57l.09.5s.02.06.04.09c.02.03.04.05.07.06.03.02.06.03.09.03.03,0,.07,0,.1,0l.06-.03s.07-.05.09-.09l.03-.06s.01-.09,0-.13l-.09-.5s-.02-.06-.04-.09c-.02-.03-.04-.05-.07-.06-.03-.02-.06-.03-.09-.03-.03,0-.07,0-.1,0l-.06.03s-.07.05-.09.09l-.03.06s-.01.09,0,.13h0Z"/>
      <path class="st0" d="M27.17,38.27c-.02.07-.03.14-.03.21,0,.05,0,.1,0,.16,0,.07.02.14.04.21s.05.14.08.2c.02.03.04.05.06.07.02.02.05.04.09.04.03.01.07.01.1,0,.03,0,.06-.01.09-.03.05-.03.1-.09.11-.15v-.07s0-.09-.03-.13c0-.01-.01-.02-.02-.04l.03.06c-.03-.07-.05-.14-.06-.22v.07c0-.08,0-.15,0-.23v.07s0-.07.01-.1c.01-.03.01-.07,0-.1,0-.03-.01-.06-.03-.09-.02-.03-.04-.05-.06-.07-.02-.02-.05-.04-.09-.04-.06-.01-.14-.01-.19.03s-.1.09-.11.15h0Z"/>
      <path class="st0" d="M27.98,38.48s.01.06.02.08v-.07c0,.08,0,.16,0,.23v-.07c0,.08-.02.15-.05.22l.03-.06s-.01.03-.02.04c-.02.03-.03.06-.03.09,0,.03,0,.07,0,.1,0,.03.02.06.04.09.02.03.04.05.07.06.06.03.13.05.19.03.06-.02.12-.06.15-.11.03-.06.06-.13.08-.2s.03-.14.04-.21c0-.05,0-.1,0-.15,0-.07-.01-.14-.03-.21,0-.03-.02-.06-.04-.09-.02-.03-.04-.05-.07-.06-.03-.02-.06-.03-.09-.03-.03,0-.07,0-.1,0-.06.02-.12.06-.15.11l-.03.06s-.01.09,0,.13h0Z"/>
    </g>
  </g>
  <g>
    <g class="st4">
      <path class="st2" d="M14.68,13.25c-.13.86-.21,1.73-.24,2.6-.06,1.71.23,3.37.02,5.07-.34,2.67.3,5.61,2.29,7.42,2.25,2.04,5.59,2.21,8.63,2.09,1.69-.07,3.39-.18,5.02-.65s3.19-1.29,4.28-2.58c.44-.52.8-1.1,1.06-1.72.4-.96.71-2.19.66-3.24-.05-1.08-.47-1.95-.24-3.05.25-1.18.32-2.23.19-3.43-.23-2.13-.68-4.23-1.32-6.27-.2-.63-.61-1.39-1.27-1.3-.29.04-.53.24-.74.45-.87.85-1.61,1.83-2.19,2.9-.43.79-.57,2.24-1.65,2.14-1.32-.12-2.53-.65-3.9-.66-1.24,0-2.47.18-3.65.56-.2.06-.41.14-.62.12-.47-.04-.7-.65-.83-1.02-.56-1.6-1.51-3.07-2.75-4.24-.26-.25-.6-.5-.94-.39-.23.07-.38.29-.5.51-.29.53-.48,1.11-.65,1.69-.29.99-.51,1.99-.66,3.01Z"/>
      <path class="st1" d="M17.83,11.72c-.49-1.06-1.19-.98-1.6.24-.5,1.51-.66,3.25-.6,4.84,0,.06.04.4.01.25.03.21.08.41.14.61.02.07.05.2.1.31.28-.64.67-1.24,1.08-1.8.3-.4.62-.9,1.02-1.2.23-.17.53-.1.66-.38.26-.55-.53-2.13-.73-2.66-.03-.07-.06-.14-.09-.21Z"/>
      <path class="st1" d="M27.24,23.25c-.71-.25-1.47-.36-2.1-.33-1.23.05-2.61.42-3.22,1.61-.32.62-.27,1.41.13,1.98,1.2,1.73,6.52,1.76,6.92-.77.19-1.24-.62-2.09-1.72-2.48Z"/>
      <path class="st1" d="M34.94,17.72c.06-.3.08-.58.11-.9.1-1.39.02-2.85-.38-4.2-.15-.51-.37-1.07-.72-1.42-.14-.14-.26-.21-.43-.25-.04.03-.08.07-.13.08-.62,1.07-1.24,2.19-1.33,3.39-.07.92.73,1.48,1.36,2.04.36.32.69.64.99,1.01.15.18.31.36.47.54.02-.1.05-.2.07-.29Z"/>
      <path class="st5" d="M24.55,10.18c-.37,0-.79.34-.75.75.31,2.97.55,5.95.74,8.94.06.96,1.56.97,1.5,0-.19-2.98-.43-5.96-.74-8.94-.04-.4-.32-.75-.75-.75Z"/>
      <path class="st5" d="M21.98,16.17c.09.38.55.65.92.52.4-.13.62-.51.52-.92-.27-1.15-.59-2.28-.96-3.39-.12-.37-.52-.65-.92-.52-.37.12-.66.52-.52.92.37,1.12.69,2.25.96,3.39Z"/>
      <path class="st5" d="M27.14,16.62c.28.12.6.05.82-.16.19-.18.3-.44.29-.7,0-.05-.02-.1-.03-.14.15-1.15.29-2.3.44-3.44.05-.39-.38-.77-.75-.75-.45.02-.7.33-.75.75-.16,1.25-.32,2.51-.48,3.76-.04.29.22.58.46.69Z"/>
      <path class="st5" d="M27.44,19.06c.97,0,.97-1.5,0-1.5s-.97,1.5,0,1.5Z"/>
      <path class="st5" d="M22.94,19.12c.97,0,.97-1.5,0-1.5s-.97,1.5,0,1.5Z"/>
      <path class="st5" d="M13.96,22.27c.16.13.35.19.55.18.21-.01.43-.01.64,0,.12,0,.23.02.35.03.2.02.39,0,.56-.12.15-.1.29-.3.31-.48.03-.19,0-.4-.12-.56-.12-.15-.28-.29-.48-.31-.46-.06-.93-.07-1.39-.04-.19.01-.38.12-.5.26-.12.14-.2.37-.18.55.02.19.1.38.26.5Z"/>
      <path class="st5" d="M16.16,24.77c.08-.05.15-.12.19-.21.09-.16.13-.4.08-.58-.06-.18-.17-.36-.34-.45-.17-.09-.39-.15-.58-.08-.4.15-.82.26-1.24.32-.1.02-.18.07-.26.13-.08.05-.15.12-.19.21-.09.16-.13.4-.08.58.06.18.17.36.34.45.06.03.12.05.18.08.13.04.27.04.4,0,.42-.06.84-.17,1.24-.32.1-.02.18-.07.26-.13Z"/>
      <path class="st5" d="M16.99,25.3c-.19,0-.4.07-.53.22l-1.29,1.51c-.13.15-.22.32-.22.53,0,.18.08.4.22.53.14.13.33.23.53.22.19,0,.4-.07.53-.22l1.29-1.51c.13-.15.22-.32.22-.53,0-.18-.08-.4-.22-.53-.14-.13-.33-.23-.53-.22Z"/>
      <path class="st5" d="M17.46,22.99c-.13.04-.24.1-.33.19-.04.05-.08.1-.12.15-.07.12-.1.24-.1.38v.07c0,.1.02.2.06.29.03.09.08.17.16.24.07.07.15.12.24.16.09.05.19.07.29.06.07,0,.13-.02.2-.03.13-.04.24-.1.33-.19.04-.05.08-.1.12-.15.07-.12.1-.24.1-.38v-.07c0-.1-.02-.2-.06-.29-.03-.09-.08-.17-.16-.24-.07-.07-.15-.12-.24-.16-.09-.05-.19-.07-.29-.06-.07,0-.13.02-.2.03Z"/>
      <path class="st5" d="M36.8,22.27c-.16.13-.35.19-.55.18-.21-.01-.43-.01-.64,0-.12,0-.23.02-.35.03-.2.02-.39,0-.56-.12-.15-.1-.29-.3-.31-.48-.03-.19,0-.4.12-.56.12-.15.28-.29.48-.31.46-.06.93-.07,1.39-.04.19.01.38.12.5.26.12.14.2.37.18.55-.02.19-.1.38-.26.5Z"/>
      <path class="st5" d="M34.6,24.77c-.08-.05-.15-.12-.19-.21-.09-.16-.13-.4-.08-.58.06-.18.17-.36.34-.45.17-.09.39-.15.58-.08.4.15.82.26,1.24.32.1.02.18.07.26.13.08.05.15.12.19.21.09.16.13.4.08.58-.06.18-.17.36-.34.45-.06.03-.12.05-.18.08-.13.04-.27.04-.4,0-.42-.06-.84-.17-1.24-.32-.1-.02-.18-.07-.26-.13Z"/>
      <path class="st5" d="M33.77,25.3c.19,0,.4.07.53.22l1.29,1.51c.13.15.22.32.22.53,0,.18-.08.4-.22.53-.14.13-.33.23-.53.22-.19,0-.4-.07-.53-.22l-1.29-1.51c-.13-.15-.22-.32-.22-.53,0-.18.08-.4.22-.53.14-.13.33-.23.53-.22Z"/>
      <path class="st5" d="M33.3,22.99c.13.04.24.1.33.19.04.05.08.1.12.15.07.12.1.24.1.38v.07c0,.1-.02.2-.06.29-.03.09-.08.17-.16.24-.07.07-.15.12-.24.16-.09.05-.19.07-.29.06-.07,0-.13-.02-.2-.03-.13-.04-.24-.1-.33-.19-.04-.05-.08-.1-.12-.15-.07-.12-.1-.24-.1-.38v-.07c0-.1.02-.2.06-.29.03-.09.08-.17.16-.24.07-.07.15-.12.24-.16.09-.05.19-.07.29-.06.07,0,.13.02.2.03Z"/>
      <path class="st5" d="M19.09,19.81c.02.1.07.18.13.26.05.08.12.15.21.19.09.05.18.08.28.09.1.02.2.02.3-.01.18-.06.36-.17.45-.34.09-.17.14-.39.08-.58-.04-.13-.07-.26-.09-.39,0-.08-.02-.17-.01-.25,0-.1-.02-.2-.06-.29-.03-.09-.08-.17-.16-.24-.07-.07-.15-.12-.24-.16-.09-.05-.19-.07-.29-.06-.19,0-.4.07-.53.22-.14.15-.22.33-.22.53,0,.21.02.41.06.62.02.14.06.29.11.43Z"/>
      <path class="st5" d="M30.94,18.57c0-.1-.03-.19-.08-.28-.04-.09-.09-.17-.17-.23-.07-.07-.16-.12-.26-.14-.09-.04-.19-.06-.3-.05-.06.01-.13.03-.19.04-.12.04-.23.11-.32.21-.04.05-.07.11-.11.16-.06.12-.09.25-.08.39,0,.26-.02.53-.03.79,0,.1.03.19.08.28.04.09.09.17.17.23.07.07.16.12.26.14.09.04.19.06.3.05.06-.01.13-.03.19-.04.12-.04.23-.11.32-.21.04-.05.07-.11.11-.16.06-.12.09-.25.08-.39,0-.26.02-.53.03-.79Z"/>
    </g>
    <g>
      <g>
        <circle class="st0" cx="20.12" cy="21.92" r=".98"/>
        <circle class="st0" cx="30.29" cy="21.92" r=".98"/>
        <ellipse class="st0" cx="25.21" cy="23.04" rx=".88" ry=".55"/>
      </g>
      <path class="st0" d="M20.36,14.49c1.56-.64,3.2-1.06,4.89-1.05s3.35.43,4.95.99c.46.16.65-.57.2-.72-1.66-.58-3.39-1-5.15-1.01s-3.47.42-5.09,1.08c-.19.08-.32.25-.26.46.05.18.27.34.46.26h0Z"/>
      <path class="st0" d="M16.39,16.71c-1.67,1.82-2.62,4.35-2.38,6.83s1.56,4.51,3.61,5.76c1.12.68,2.43,1.06,3.75,1.01.48-.02.48-.77,0-.75-2.09.07-4.11-1.03-5.33-2.71-1.32-1.81-1.6-4.13-.98-6.26.36-1.24,1-2.39,1.88-3.35.33-.36-.2-.89-.53-.53h0Z"/>
      <path class="st0" d="M33.82,17.24c1.52,1.66,2.36,3.95,2.17,6.2s-1.41,4.09-3.24,5.2c-1.02.62-2.17.95-3.37.91-.48-.02-.48.73,0,.75,2.34.07,4.54-1.16,5.93-3.01,1.48-1.97,1.79-4.57,1.11-6.91-.39-1.37-1.11-2.63-2.07-3.68-.33-.36-.86.17-.53.53h0Z"/>
      <path class="st0" d="M15.73,8.42c-1.52,3.68-2,7.74-1.43,11.68.03.2.28.31.46.26.22-.06.29-.26.26-.46-.55-3.8-.03-7.73,1.43-11.28.08-.19-.08-.41-.26-.46-.21-.06-.38.08-.46.26h0Z"/>
      <path class="st0" d="M17.14,8.3s.05.02.06.02c-.04-.02.04.03.05.04-.02-.02.04.04.05.05.04.03.07.07.1.11.1.12.22.3.33.46.25.36.5.73.73,1.1.47.76.9,1.54,1.29,2.34.21.44.43.87.52,1.35.04.2.28.31.46.26.21-.06.3-.26.26-.46-.09-.48-.3-.93-.51-1.36s-.42-.85-.65-1.27c-.46-.84-.96-1.65-1.51-2.42-.31-.44-.61-.9-1.19-.96-.2-.02-.38.19-.38.38,0,.22.17.35.38.38h0Z"/>
      <path class="st0" d="M17.08,11.25c.07.15.14.3.21.45.02.04.04.09.06.13.03.08-.01-.03.02.04s.06.15.09.23c.12.31.24.63.34.96.2.64.35,1.29.46,1.95.03.19.28.32.46.26.21-.07.29-.25.26-.46-.22-1.37-.64-2.7-1.25-3.94-.09-.18-.35-.24-.51-.13-.18.12-.23.32-.13.51h0Z"/>
      <path class="st0" d="M36.42,20.1c.4-2.81.28-5.67-.38-8.43-.16-.69-.36-1.36-.59-2.03-.2-.57-.36-1.34-.85-1.73-.53-.43-1.13-.29-1.6.15s-.9,1.04-1.29,1.58c-.88,1.24-1.57,2.6-2.07,4.03-.16.46.56.65.72.2.39-1.13.92-2.2,1.56-3.21.33-.51.68-1,1.07-1.47.25-.3.75-1.09,1.18-.66.18.18.25.47.33.7.12.3.22.61.33.92.2.6.37,1.21.51,1.83.29,1.22.46,2.46.53,3.7.08,1.41.02,2.83-.18,4.22-.03.2.05.4.26.46.18.05.43-.06.46-.26h0Z"/>
      <path class="st0" d="M33,10.87c-.6,1.25-1.03,2.57-1.25,3.94-.03.19.05.41.26.46.18.04.43-.05.46-.26.11-.66.26-1.32.46-1.95.1-.32.21-.63.33-.94.03-.08.06-.15.09-.23,0-.02.01-.03.02-.05-.01.03-.01.03,0,0,.02-.04.03-.08.05-.11.07-.16.14-.31.22-.47.09-.18.05-.41-.13-.51-.17-.09-.42-.05-.51.13h0Z"/>
    </g>
  </g>
</svg>