<?xml version="1.0" encoding="UTF-8"?>
<svg id="cat" xmlns="http://www.w3.org/2000/svg" version="1.1" viewBox="0 0 50.83 48.47">
  <!-- Generator: Adobe Illustrator 29.8.2, SVG Export Plug-In . SVG Version: 2.1.1 Build 3)  -->
  <defs>
    <style>
      .st0 {
        fill: #231f20;
      }

      .st1 {
        fill: #fde0da;
      }

      .st2 {
        fill: #f9bdbe;
      }
    </style>
  </defs>
  <g>
    <path class="st1" d="M21.27,31.72c-.05.49-.08.99-.03,1.48.07.81.33,1.6.74,2.3.09.15.19.3.22.47.05.23-.02.47-.08.69-.34,1.17-.64,2.46-.23,3.65.38,1.12,1.7,1.57,2.63.67.46,1.66,2.08-.24,2.14-.13.25.43.65.82,1.14.89s1.05-.29,1.06-.79c.27.4.86.56,1.32.46.22-.05,1.07-.85,1.09-.84.64.28,1.39,0,1.98-.38,1.15-.75,1.98-1.95,2.34-3.26s-.11-2.74.72-3.94c.2-.29.5-.6.41-.94-.09-.33-.54-.46-.86-.32s-.51.46-.66.77c-.39.86-.33,1.73-.52,2.63s-.62,1.84-1.04,2.68c-.34.68-.92,1.09-1.58,1.45-.06.03-.11.06-.18.06-.16,0-.23-.19-.27-.34-.19-.75-.38-1.51-.57-2.26-.04-.17-.09-.35-.07-.52.02-.26.16-.5.29-.72,1.15-1.92.93-3.81.4-5.92-.27-1.07-.55-2.17-1.22-3.04-.89-1.16-2.33-1.74-3.72-2.21-3.83-1.31-5.17,4.65-5.46,7.44Z"/>
    <g>
      <path class="st0" d="M22.38,26.94c-.48.82-.97,1.66-1.19,2.59-.21.85-.18,1.78.22,2.58.23.45.59.85,1.04,1.09s.8-.41.38-.65c-.84-.46-1.09-1.45-1-2.35.1-1.02.68-1.99,1.2-2.88.24-.42-.4-.8-.65-.38h0Z"/>
      <path class="st0" d="M20.94,31.2c-.61,1.67.15,3.42,1.08,4.81.49.74,1.06,1.44,1.49,2.22.36.65.55,1.36.65,2.09.03.21.05.42.07.62s.02.45.11.65c.19.42.66.57,1.03.29.16-.13.13-.4,0-.53-.16-.16-.37-.12-.53,0,.19.02.25,0,.18-.06.01,0,.01,0,0-.05.02-.1-.02-.24-.04-.34-.02-.22-.05-.44-.08-.67-.06-.4-.13-.8-.24-1.19-.27-.9-.77-1.66-1.3-2.42-1.05-1.49-2.39-3.3-1.69-5.22.17-.45-.56-.65-.72-.2h0Z"/>
      <path class="st0" d="M25.09,34.97c.38,1.14.66,2.32.8,3.52.07.59.12,1.19.13,1.79,0,.21.01.45-.03.63-.05.2-.08.29-.25.36-.19.08-.23.35-.13.51.11.19.33.21.51.13.51-.21.64-.82.66-1.31.02-.64-.04-1.29-.12-1.92-.15-1.33-.43-2.64-.85-3.91-.06-.19-.26-.32-.46-.26-.19.05-.33.27-.26.46h0Z"/>
      <path class="st0" d="M21.94,36.39c-.28.93-.67,1.85-.67,2.84,0,.91.37,1.85,1.21,2.3.43.23.94.32,1.41.16.19-.06.33-.26.26-.46-.06-.19-.26-.33-.46-.26-.04.01-.08.02-.12.03-.02,0-.12.02-.05.01-.09,0-.18,0-.27,0,.07,0-.03,0-.05-.01-.04,0-.08-.02-.12-.03s-.08-.02-.11-.04c-.06-.02.05.02,0,0-.02,0-.04-.02-.06-.03-.08-.04-.15-.08-.22-.13-.01-.01-.03-.02-.04-.03-.05-.04.04.03,0,0-.04-.03-.07-.06-.1-.09-.03-.03-.06-.06-.08-.09-.02-.02-.03-.04-.05-.05,0,0-.04-.05-.01-.02.03.03-.02-.02-.02-.03,0-.01-.02-.03-.03-.04-.03-.04-.05-.09-.08-.13s-.05-.1-.07-.15c.02.04-.02-.06-.03-.08-.03-.1-.06-.19-.08-.29,0-.05-.02-.09-.03-.14-.01-.07,0,.05,0-.02,0-.02,0-.04,0-.06-.01-.11-.02-.22-.01-.33,0-.42.07-.76.19-1.18.13-.48.31-.96.45-1.44.06-.19-.07-.42-.26-.46s-.4.06-.46.26h0Z"/>
      <path class="st0" d="M30.26,27.32c.52.89,1.1,1.86,1.2,2.88.09.9-.16,1.89-1,2.35-.42.23-.04.88.38.65.81-.45,1.25-1.3,1.36-2.19s-.14-1.81-.52-2.64c-.23-.49-.5-.96-.77-1.42-.24-.42-.89-.04-.65.38h0Z"/>
      <path class="st0" d="M31.63,31.4c.7,1.92-.64,3.73-1.69,5.22-.53.76-1.03,1.53-1.3,2.42-.12.39-.19.79-.24,1.19-.03.22-.06.44-.08.67-.01.1-.05.24-.04.34-.02.04-.02.06,0,.05-.07.06-.01.08.18.06-.16-.13-.37-.15-.53,0-.13.13-.16.41,0,.53.32.25.71.19.95-.15.22-.3.18-.76.22-1.12.08-.72.23-1.43.54-2.09.38-.79.94-1.49,1.44-2.22s.95-1.46,1.23-2.29c.31-.91.39-1.91.05-2.82-.16-.45-.89-.26-.72.2h0Z"/>
      <path class="st0" d="M27.47,34.77c-.42,1.27-.7,2.58-.85,3.91-.07.63-.13,1.28-.12,1.92.01.5.15,1.1.66,1.31.19.08.4.06.51-.13.09-.16.05-.43-.13-.51-.02,0-.12-.07-.1-.05-.02-.02-.04-.04-.06-.06.01.02.01.01,0,0-.05-.08-.06-.12-.09-.23-.05-.19-.04-.43-.03-.65.02-.6.06-1.19.13-1.79.15-1.19.42-2.37.8-3.52.06-.19-.07-.41-.26-.46-.2-.06-.4.07-.46.26h0Z"/>
      <path class="st0" d="M30.63,36.59c.13.42.28.84.4,1.27.06.22.12.43.17.65s.06.32.07.54c0,.1,0,.21,0,.31,0,.05,0,.1,0,.14,0,.02,0,.04,0,.06,0,.02-.01.09,0,.04-.01.09-.03.19-.06.28-.01.05-.03.09-.04.14,0,.03-.02.05-.03.08,0,0-.03.08-.01.04-.04.09-.08.17-.13.25-.02.03-.04.07-.07.1s0,0,0,0c-.02.02-.04.05-.06.07-.05.06-.11.12-.17.17,0,0-.06.05-.03.03.03-.02-.02.01-.02.01-.04.03-.09.06-.13.09-.04.02-.08.05-.12.07-.02,0-.03.02-.05.02-.1.05.04-.01-.02,0-.09.03-.18.06-.28.08-.02,0-.07,0,0,0-.02,0-.04,0-.07,0-.05,0-.09,0-.14,0-.02,0-.05,0-.07,0,.06,0,.01,0-.02,0-.05-.01-.1-.02-.15-.04-.19-.06-.42.07-.46.26-.05.2.06.4.26.46.84.27,1.76-.2,2.22-.92.52-.83.46-1.88.23-2.79-.14-.54-.34-1.06-.49-1.59-.06-.19-.27-.33-.46-.26s-.32.26-.26.46h0Z"/>
      <path class="st0" d="M23.17,31.33c.27.35.67.54,1.07.71s.78.26,1.18.32c.84.12,1.69.06,2.5-.2.45-.15.89-.35,1.29-.62.27-.18.02-.61-.25-.43-1.27.84-2.91,1.04-4.35.53-.4-.14-.81-.32-1.08-.67-.08-.11-.27-.09-.35,0-.11.11-.08.25,0,.35h0Z"/>
      <path class="st0" d="M24.77,33.82c1.2.4,2.53.3,3.66-.25.12-.06.15-.23.09-.34-.07-.12-.22-.15-.34-.09-1.01.49-2.2.56-3.27.2-.13-.04-.27.05-.31.17-.04.14.05.26.17.31h0Z"/>
      <path class="st0" d="M31.83,39.58c1.25-.18,2.11-1.25,2.57-2.35.56-1.35.51-2.85.97-4.23.09-.28.19-.59.4-.81.08-.09.36-.26.45-.09.08.14-.26.52-.33.65-.17.3-.29.64-.36.97-.3,1.28-.11,2.64-.68,3.85s-1.62,2.17-2.9,2.57c-.46.14-.26.87.2.72,1.29-.4,2.4-1.29,3.1-2.44.35-.58.59-1.23.7-1.89.12-.74.12-1.49.24-2.23.05-.33.13-.68.27-.99.15-.34.44-.63.52-1,.16-.76-.68-1.22-1.32-.94-.69.31-.95,1.21-1.12,1.87-.2.78-.28,1.58-.44,2.37-.26,1.34-.9,3.01-2.45,3.24-.2.03-.31.28-.26.46.06.21.26.29.46.26h0Z"/>
    </g>
  </g>
  <g>
    <path class="st1" d="M13.88,10.59c.08.97.25,1.97.25,2.95s-.16,1.9-.03,2.87.48,1.86,1.14,2.53c.87.87,2.13,1.19,3.32,1.49.88.22.21,2.04.21,2.69,0,1.27.69,2.51,1.73,3.24.57.4,1.24.42,1.81.75.49.28.91.76,1.4,1.07.43.27.87.54,1.36.7,1.03.34,2.52.29,3.46-.27.43-.26.79-.61,1.21-.89.63-.41,1.37-.62,2.04-.96,2.13-1.08,2.41-2.74,2.36-4.95,0-.27,0-.54.11-.78.24-.49.85-.66,1.37-.84,1.76-.61,3.27-2.19,3.41-4.05.04-.56-.04-1.12-.05-1.68-.03-1.84.67-3.75.05-5.49-.09-.25-.22-.51-.45-.65-.35-.22-.8-.11-1.18.04-1.71.7-2.98,2.15-4.15,3.57-.83,1.01-1.38,2.12-2.41,2.93-.18.14-.58.63-.75.68-.29.09-.59-.15-.91-.24-.61-.19-1.27-.19-1.9-.18-1.46.01-2.94.12-4.31.61-1.54-2.44-3.72-4.71-5.81-6.7-.68-.65-1.57-1.41-2.57-.78-.7.45-.79,1.59-.73,2.33Z"/>
    <path class="st2" d="M18.61,20.38c.15,0,.3-.02.43-.05.19-.65.38-1.3.57-1.95.18-.63-.09-.87.42-1.45.34-.39.82-.68.76-1.25-.2-1.89-2.04-3.35-3.4-4.44-.69-.55-2.76-2.82-3.5-1.33-.01.02-.01.05-.02.07-.01.22,0,.43.01.61.08.97.25,1.97.25,2.95,0,.97-.16,1.9-.03,2.87.13.93.48,1.86,1.14,2.53.75.76,2.21,1.46,3.37,1.43Z"/>
    <path class="st2" d="M39.14,9.35c-.24-.28-.62-.26-1.05-.1-.81.42-1.55.94-2.28,1.55-.03.03-.06.03-.1.05-.35.38-.68.77-1,1.16-.72.88-1.5,1.83-1.89,2.91-.15.4-.32.96-.18,1.39.11.33.45.56.62.87.36.66.02,1.31.18,2,.17.71.45,1.39.76,2.06.02-.07.02-.15.06-.21.24-.49.85-.66,1.37-.84,1.76-.61,3.27-2.19,3.41-4.05.04-.56-.04-1.12-.05-1.68-.03-1.71.56-3.48.15-5.12Z"/>
    <g>
      <g>
        <circle class="st0" cx="22.39" cy="22.57" r=".98"/>
        <circle class="st0" cx="30.47" cy="22.57" r=".98"/>
        <ellipse class="st0" cx="26.51" cy="25.69" rx=".88" ry=".55"/>
      </g>
      <path class="st0" d="M18.94,19.59c-.46,1.99-.91,4.26.31,6.08.26.38.57.71.95.98.42.3.91.47,1.39.66.82.32,1.47.83,2.19,1.34.8.57,1.66.99,2.66.83.2-.03.31-.28.26-.46-.06-.21-.26-.29-.46-.26-.73.12-1.4-.28-1.98-.67-.63-.44-1.22-.95-1.93-1.27-.82-.37-1.69-.58-2.28-1.31-.49-.6-.75-1.4-.82-2.16-.1-1.2.17-2.38.44-3.54.11-.47-.61-.67-.72-.2h0Z"/>
      <path class="st0" d="M22.23,16.51c1.25-.64,2.71-.79,4.1-.88s2.7-.02,3.86.65c.42.24.8-.41.38-.65-1.28-.74-2.79-.85-4.24-.76-1.52.09-3.1.27-4.48.98-.43.22-.05.87.38.65h0Z"/>
      <path class="st0" d="M14.16,11.5c-.12-.53-.19-1.09-.1-1.63.07-.4.22-.85.54-1.11.16-.13.4-.17.6-.14.33.05.61.19.9.36.65.38,1.21.89,1.75,1.4.67.63,1.33,1.27,1.95,1.96.93,1.04,1.79,2.15,2.64,3.25.12.16.32.25.51.13.16-.09.26-.35.13-.51-.83-1.08-1.66-2.16-2.56-3.19-.69-.79-1.44-1.52-2.2-2.24-.61-.57-1.26-1.15-2.01-1.55-.65-.35-1.48-.57-2.13-.09-.46.34-.71.91-.82,1.45-.14.7-.07,1.41.08,2.11.11.47.83.27.72-.2h0Z"/>
      <path class="st0" d="M13.76,12.65l-.04,2.44c-.01.72-.02,1.44.12,2.14.26,1.27,1.19,2.35,2.31,2.98.64.35,1.34.56,2.06.62.2.02.38-.18.38-.38,0-.22-.17-.36-.38-.38-1.09-.09-2.12-.63-2.84-1.45-.38-.43-.66-.94-.79-1.5-.15-.63-.13-1.28-.12-1.92.01-.85.03-1.7.04-2.55,0-.48-.74-.48-.75,0h0Z"/>
      <path class="st0" d="M15.19,9.99c1.33.91,2.58,1.96,3.66,3.16.48.53.92,1.11,1.19,1.77.13.32.23.67.25,1.02,0,.14.04.34-.03.47-.06.11-.2.17-.31.23-.34.18-.63.35-.78.72-.14.35-.07.77.28.96.42.23.8-.42.38-.65-.13-.07.05.06.02.06-.01,0,.02-.11.03-.13.04-.1.13-.15.22-.2.29-.16.6-.3.79-.59.22-.34.18-.8.13-1.18-.05-.35-.15-.69-.28-1.01-.59-1.42-1.79-2.56-2.93-3.56-.71-.62-1.45-1.2-2.23-1.73-.4-.27-.78.38-.38.65h0Z"/>
      <path class="st0" d="M33.41,19.79c.42,1.8.88,3.88-.25,5.53-.53.77-1.34,1.04-2.17,1.38-.76.31-1.4.8-2.08,1.26-.72.5-1.47.89-2.38.78-.2-.03-.38.19-.38.38,0,.22.17.35.38.38,1.86.24,3.04-1.36,4.59-2.04.47-.21.97-.36,1.43-.6.4-.22.76-.52,1.05-.88.58-.73.89-1.62.98-2.53.14-1.29-.17-2.59-.46-3.84-.11-.47-.83-.27-.72.2h0Z"/>
      <path class="st0" d="M39.64,11.7c.25-1.1.3-2.48-.53-3.37-.58-.62-1.43-.52-2.13-.2-.77.35-1.43.93-2.05,1.49-.72.66-1.42,1.34-2.08,2.06-1.02,1.12-1.94,2.32-2.86,3.53-.12.16-.02.42.13.51.19.11.39.03.51-.13.75-.98,1.5-1.95,2.31-2.88.67-.77,1.38-1.48,2.11-2.18.53-.51,1.08-1.02,1.7-1.42.28-.19.57-.35.89-.44.17-.05.23-.06.38-.06.08,0,.1,0,.13,0,.04,0,.19.06.16.04.35.16.54.59.65.99.15.61.09,1.25-.05,1.85-.11.47.62.67.72.2h0Z"/>
      <path class="st0" d="M38.57,12.65l.04,2.24c.01.65.05,1.33-.06,1.98-.19,1.14-.95,2.09-1.94,2.66-.53.3-1.12.49-1.73.55-.2.02-.38.16-.38.38,0,.19.17.39.38.38,1.26-.1,2.46-.67,3.31-1.61.45-.49.81-1.06.99-1.7.2-.68.21-1.41.2-2.11-.01-.92-.03-1.84-.05-2.75,0-.48-.76-.48-.75,0h0Z"/>
      <path class="st0" d="M37.51,9.34c-1.34.92-2.62,1.97-3.72,3.17-.5.55-.98,1.14-1.3,1.81-.16.34-.3.69-.38,1.05s-.14.79-.05,1.15c.1.41.43.63.79.82.12.07.26.12.33.24.02.03.04.1.04.1.02.03-.03.04,0,.03.02,0,.11-.09.01-.04-.42.23-.05.88.38.65.31-.17.41-.52.32-.85s-.3-.56-.58-.71c-.25-.14-.57-.22-.58-.55s.05-.69.16-1.01c.22-.68.63-1.28,1.09-1.82.51-.6,1.08-1.15,1.67-1.68.69-.62,1.43-1.19,2.19-1.71.4-.27.02-.92-.38-.65h0Z"/>
      <path class="st0" d="M25.97,27.9c.28-.25.48-.6.57-.97.03-.11.04-.23.05-.35,0-.06-.03-.13-.07-.18s-.11-.08-.18-.07c-.14,0-.24.11-.25.25,0,.04,0,.08-.01.13v-.07c-.01.15-.05.29-.11.43l.03-.06c-.06.13-.13.26-.22.37l.04-.05c-.06.08-.13.15-.2.21-.05.04-.07.12-.07.18s.03.13.07.18c.1.1.25.09.35,0h0Z"/>
      <path class="st0" d="M26.4,26.63c.32,0,.32-.5,0-.5s-.32.5,0,.5h0Z"/>
      <path class="st0" d="M26.4,26.63c.32,0,.32-.5,0-.5s-.32.5,0,.5h0Z"/>
      <path class="st0" d="M26.29,26.31c0,.48.19.94.51,1.29.09.1.19.19.3.27.05.04.14.04.19.03s.12-.06.15-.11c.03-.06.05-.13.03-.19l-.03-.06s-.05-.07-.09-.09c0,0-.02-.01-.03-.02l.05.04c-.11-.09-.21-.19-.3-.3l.04.05c-.09-.12-.17-.25-.23-.39l.03.06c-.06-.14-.1-.29-.12-.44v.07c0-.07,0-.13,0-.2,0-.13-.11-.26-.25-.25s-.25.11-.25.25h0Z"/>
      <path class="st0" d="M25.72,15.49c.02.71.14,1.41.19,2.12.05.74.09,1.52-.12,2.24-.1.34-.25.63-.53.86-.1.09-.09.26,0,.35.1.1.25.09.35,0,.58-.49.75-1.28.81-2,.06-.81-.02-1.63-.11-2.44-.04-.38-.08-.76-.1-1.14-.01-.32-.51-.32-.5,0h0Z"/>
      <path class="st0" d="M24.33,15.77c0,1.17.14,2.36-.19,3.51-.09.31.39.44.48.13.34-1.19.19-2.42.2-3.64,0-.14-.12-.25-.25-.25s-.25.11-.25.25h0Z"/>
      <path class="st0" d="M27.16,15.63c-.01.47-.02.95-.02,1.42s-.02.91,0,1.36c.05.81.3,1.67,1.04,2.11.28.17.53-.27.25-.43-.63-.38-.78-1.18-.8-1.85-.03-.87,0-1.74.02-2.61,0-.32-.49-.32-.5,0h0Z"/>
      <path class="st0" d="M28.34,15.7c-.02.64.02,1.28.08,1.92.03.32.06.65.13.97.03.13.09.24.17.34.02.02.04.05.05.07.02.02.02.02,0,0,.02.02.04.05.05.07s.03.05.05.08c.01.03.01.03,0,0,0,.02.01.03.01.05.04.13.18.21.31.17s.21-.18.17-.31c-.04-.15-.13-.27-.22-.39-.03-.04.02.03-.02-.02-.02-.02-.04-.05-.05-.07s-.03-.05-.04-.08c.02.04-.01-.04-.01-.05-.07-.29-.09-.57-.12-.87-.07-.63-.1-1.26-.08-1.89,0-.14-.12-.25-.25-.25s-.25.11-.25.25h0Z"/>
      <path class="st0" d="M23.36,25.89c-.11.14-.19.28-.25.44-.05.14-.08.29-.09.44-.02.3.05.61.18.88.08.15.18.29.31.4.1.09.26.1.35,0,.09-.1.1-.26,0-.35-.05-.04-.09-.09-.13-.13-.02-.03.02.02.02.02,0,0-.01-.01-.01-.02,0-.01-.02-.02-.02-.03-.02-.03-.04-.05-.05-.08-.02-.03-.03-.05-.04-.08,0-.01-.01-.03-.02-.04-.01-.02.01.04.01.03,0,0,0-.02-.01-.03-.02-.06-.04-.12-.06-.18,0-.03-.01-.06-.02-.08,0-.02,0-.03,0-.05,0,0,0,.06,0,.04,0-.01,0-.02,0-.03,0-.06,0-.12,0-.18,0-.03,0-.06,0-.09,0-.01,0-.03,0-.04,0,0-.01.07,0,.03,0-.01,0-.02,0-.03.01-.06.02-.12.04-.18,0-.03.02-.07.04-.1,0,0-.03.06-.01.03,0,0,0-.01.01-.02,0-.02.02-.03.02-.05.02-.03.03-.06.05-.09,0-.01.02-.03.03-.04.01-.02.06-.08,0,0,.04-.05.07-.1.07-.18,0-.06-.03-.13-.07-.18-.09-.08-.27-.11-.35,0h0Z"/>
      <path class="st0" d="M29.3,26.14c.06.03.11.06.16.1l-.05-.04c.06.05.12.11.17.17l-.04-.05c.06.08.11.16.14.25l-.03-.06c.04.1.07.2.08.31v-.07c0,.1,0,.21,0,.31v-.07c0,.09-.03.18-.06.27l.03-.06c-.03.07-.07.14-.11.2l.04-.05s-.01.02-.02.02c-.04.05-.07.11-.07.18,0,.06.03.13.07.18.09.08.27.11.35,0,.1-.13.18-.27.23-.43.04-.14.06-.29.05-.43-.01-.31-.12-.61-.32-.85-.1-.12-.23-.23-.38-.3-.12-.06-.28-.04-.34.09-.06.11-.04.28.09.34h0Z"/>
    </g>
  </g>
</svg>