<?xml version="1.0" encoding="UTF-8"?>
<svg id="cat" xmlns="http://www.w3.org/2000/svg" version="1.1" xmlns:xlink="http://www.w3.org/1999/xlink" viewBox="0 0 50.83 48.47">
  <!-- Generator: Adobe Illustrator 29.8.2, SVG Export Plug-In . SVG Version: 2.1.1 Build 3)  -->
  <defs>
    <style>
      .st0 {
        fill: #231f20;
      }

      .st1 {
        fill: #fff;
      }

      .st2 {
        fill: none;
      }

      .st3 {
        clip-path: url(#clippath-1);
      }

      .st4 {
        fill: #c0b9ac;
      }

      .st5 {
        fill: #5c564d;
      }

      .st6 {
        clip-path: url(#clippath-2);
      }

      .st7 {
        clip-path: url(#clippath);
      }
    </style>
    <clipPath id="clippath">
      <path class="st2" d="M26.32,24.17c2.2.68,3.34,2.59,4.12,4.6.45,1.16.76,2.36,1.1,3.57.51,1.92.25,4.26-1.34,5.43-1.03.76-2.37.88-3.65.95-3.26.17-7.18.06-7.8-3.93-.26-1.68.33-2.81.79-4.37.57-1.93,1.35-4.39,3.07-5.56,1.07-.73,2.46-1.07,3.71-.69Z"/>
    </clipPath>
    <clipPath id="clippath-1">
      <path class="st2" d="M35.13,27.95c-.45.67-.51,1.51-.51,2.32s.07,1.62-.16,2.39c-.36,1.22-1.5,2.17-2.77,2.3-.47.05-.95,0-1.4.11s-.91.46-.92.93c-.02.56.57.95,1.12,1.08,1.58.37,3.33-.36,4.48-1.44,1.47-1.37,1.04-2.82,1.36-4.56.12-.68.51-1.27.78-1.91.31-.73.55-1.53-.38-1.88-.66-.24-1.26.12-1.6.64Z"/>
    </clipPath>
    <clipPath id="clippath-2">
      <path class="st2" d="M13.17,12.22c-.04,1.87.22,3.75.77,5.54.11.35.23.71.26,1.07.04.41-.04.82-.09,1.23-.34,2.67.3,5.61,2.29,7.42,2.25,2.04,5.59,2.21,8.63,2.09,1.69-.07,3.39-.18,5.02-.65s3.19-1.29,4.28-2.58c.44-.52.8-1.1,1.06-1.72.4-.96.71-2.19.66-3.24-.05-.9-.48-1.65-.33-2.61.11-.69.36-1.35.57-2.02.61-1.96.83-4.08.4-6.09-.13-.62-.35-1.27-.86-1.65-.82-.62-1.48.08-2.17.48-1.08.63-2.04,1.48-2.8,2.47-.25.33-.5.7-.89.85-.37.15-.79.07-1.18,0-1.39-.23-2.81-.32-4.22-.26-.98.04-2.78-.1-3.67.29-.11.05-.22.11-.34.09-.14-.02-.24-.14-.33-.24-1.29-1.6-2.75-3.19-4.69-3.88-1.91-.69-2.36,2.03-2.39,3.4Z"/>
    </clipPath>
  </defs>
  <g>
    <g class="st7">
      <path class="st4" d="M26.32,24.17c2.2.68,3.34,2.59,4.12,4.6.45,1.16.76,2.36,1.1,3.57.51,1.92.25,4.26-1.34,5.43-1.03.76-2.37.88-3.65.95-3.26.17-7.18.06-7.8-3.93-.26-1.68.33-2.81.79-4.37.57-1.93,1.35-4.39,3.07-5.56,1.07-.73,2.46-1.07,3.71-.69Z"/>
      <path class="st1" d="M26.36,25.5c-1.92-.49-7.1.01-5.63,3.31.4.9,1.13,1.6,1.8,2.32s3.21,4.5.86,4.68c-.54.04-1.09.08-1.63.12-.89.07.03,1.98.3,2.36.83,1.19,2.49,1.44,3.94,1.37.8-.04,1.67-.17,2.21-.76.25-.27.4-.61.51-.96.18-.54.64-2.1-.32-1.84-1.51.4-2.37-.28-2.25-1.76.05-.67.11-1.37.42-1.97.34-.65.93-1.13,1.41-1.68.73-.85,1.61-2.4,1.13-3.57-.39-.95-1.83-1.38-2.75-1.62Z"/>
      <path class="st2" d="M26.32,24.17c2.2.68,3.34,2.59,4.12,4.6.45,1.16.76,2.36,1.1,3.57.51,1.92.25,4.26-1.34,5.43-1.03.76-2.37.88-3.65.95-3.26.17-7.18.06-7.8-3.93-.26-1.68.33-2.81.79-4.37.57-1.93,1.35-4.39,3.07-5.56,1.07-.73,2.46-1.07,3.71-.69Z"/>
      <path class="st5" d="M19.18,30.83c1.83.41,3.72.55,5.59.41.4-.03.75-.32.75-.75,0-.38-.34-.78-.75-.75-1.74.14-3.49.03-5.2-.35-.4-.09-.81.12-.92.52-.1.38.13.83.52.92h0Z"/>
      <path class="st5" d="M26.86,32.97c1.98-.18,3.9-.77,5.61-1.78.83-.49.08-1.79-.76-1.3-1.48.87-3.18,1.43-4.86,1.58-.4.04-.75.32-.75.75,0,.38.34.79.75.75h0Z"/>
      <path class="st5" d="M18.4,33.75c.99.16,1.98.27,2.98.32.39.02.77-.36.75-.75-.02-.42-.33-.73-.75-.75-.46-.02-.91-.05-1.37-.1-.22-.02-.44-.04-.65-.08.2.03.03,0-.02,0-.05,0-.11-.02-.16-.02-.13-.02-.25-.04-.38-.06-.2-.03-.39-.03-.58.08-.16.09-.3.27-.34.45-.08.36.11.85.52.92h0Z"/>
      <path class="st5" d="M30.17,34.41c.62-.02,1.25-.21,1.76-.56.16-.11.29-.25.34-.45.05-.18.03-.42-.08-.58s-.26-.3-.45-.34-.41-.04-.58.08c-.15.1-.31.19-.48.26l.18-.08c-.21.08-.42.14-.64.17l.2-.03c-.09.01-.17.02-.26.02-.2,0-.39.08-.53.22-.13.13-.23.34-.22.53s.07.4.22.53.33.23.53.22h0Z"/>
      <path class="st5" d="M26.6,36.86l2.18-.18c.2-.02.38-.07.53-.22.13-.13.23-.34.22-.53-.02-.38-.33-.78-.75-.75l-2.18.18c-.2.02-.38.07-.53.22-.13.13-.23.34-.22.53.02.38.33.78.75.75h0Z"/>
      <path class="st5" d="M18.97,36.71l1.13-.18c.1-.02.18-.07.26-.13.08-.05.15-.12.19-.21.05-.09.08-.18.09-.28.02-.1.02-.2-.01-.3-.06-.18-.17-.36-.34-.45l-.18-.08c-.13-.04-.27-.04-.4,0l-1.13.18c-.1.02-.18.07-.26.13-.08.05-.15.12-.19.21-.05.09-.08.18-.09.28-.02.1-.02.2.01.3.06.18.17.36.34.45l.18.08c.13.04.27.04.4,0h0Z"/>
    </g>
    <g class="st3">
      <path class="st4" d="M35.13,27.95c-.45.67-.51,1.51-.51,2.32s.07,1.62-.16,2.39c-.36,1.22-1.5,2.17-2.77,2.3-.47.05-.95,0-1.4.11s-.91.46-.92.93c-.02.56.57.95,1.12,1.08,1.58.37,3.33-.36,4.48-1.44,1.47-1.37,1.04-2.82,1.36-4.56.12-.68.51-1.27.78-1.91.31-.73.55-1.53-.38-1.88-.66-.24-1.26.12-1.6.64Z"/>
      <path class="st5" d="M32.84,34.65l1.75,1.37c.09.1.2.17.32.21.12.06.25.09.39.09.25,0,.54-.11.71-.29s.3-.44.29-.71c-.01-.25-.09-.55-.29-.71l-1.75-1.37c-.09-.1-.2-.17-.32-.21-.12-.06-.25-.09-.39-.09-.25,0-.54.11-.71.29s-.3.44-.29.71c.01.25.09.55.29.71h0Z"/>
      <path class="st5" d="M33.47,32.07c.16.01.31.03.47.05l-.27-.04c.61.08,1.2.24,1.77.48l-.24-.1c.24.1.48.22.71.35.46.26,1.11.12,1.37-.36s.13-1.09-.36-1.37c-1.06-.6-2.23-.93-3.45-1.01-.52-.03-1.02.48-1,1,.03.57.44.96,1,1h0Z"/>
      <path class="st5" d="M34.73,28.49c.82.48,1.72.84,2.64,1.04.26.06.53.04.77-.1.21-.12.41-.36.46-.6.06-.26.05-.54-.1-.77-.14-.21-.34-.4-.6-.46-.49-.11-.98-.26-1.44-.45l.24.1c-.33-.14-.65-.3-.96-.49-.22-.13-.52-.17-.77-.1-.23.06-.48.24-.6.46-.25.48-.12,1.08.36,1.37h0Z"/>
    </g>
    <g>
      <path class="st0" d="M20.67,26.59c-.42.9-.82,1.82-1.19,2.74s-.72,1.78-.96,2.7c-.42,1.62-.45,3.4.47,4.86.46.73,1.1,1.28,1.9,1.59.45.17.65-.55.2-.72-1.74-.67-2.27-2.78-2.06-4.45.13-1.08.51-2.12.91-3.13.43-1.09.89-2.16,1.38-3.22.2-.44-.44-.82-.65-.38h0Z"/>
      <path class="st0" d="M20.96,35.48c.02.62.08,1.25.21,1.85.11.53.37,1.07.88,1.32.27.13.55.18.84.19.27,0,.57-.02.83-.08.31-.07.58-.26.73-.54.13-.24.19-.51.23-.78.11-.7.14-1.41.06-2.12-.01-.1-.03-.19-.11-.27-.07-.07-.17-.11-.27-.11-.18,0-.4.17-.38.38.06.56.06,1.12,0,1.68,0,.04,0,.07-.01.11,0,.02,0,.03,0,.05,0,.06,0-.07,0,0-.01.07-.02.14-.03.21-.02.11-.04.23-.07.34,0,.03-.02.05-.03.08,0,.01,0,.02-.01.03-.01.04.02-.04.02-.04-.02.02-.02.05-.03.07-.01.03-.03.05-.05.08,0,0-.01.02-.02.03,0,0,.05-.06.02-.03-.02.02-.04.04-.06.06,0,0-.04.03,0,0,.05-.03,0,0-.01,0-.02.01-.07.03-.08.04.02-.03.06-.02.02,0-.01,0-.02,0-.04.01-.03,0-.06.02-.09.02-.03,0-.05.01-.08.02-.02,0-.03,0-.05,0-.05,0,0,0,.02,0-.05.02-.12.01-.17.02-.06,0-.11,0-.17.01-.11,0-.23,0-.34,0-.01,0-.02,0-.04,0-.04,0,.04,0,.04,0-.03,0-.06,0-.08-.01-.06-.01-.12-.03-.17-.05-.02,0-.04-.02-.07-.02,0,0,.08.04.02,0-.01,0-.02-.01-.03-.02-.05-.03-.1-.06-.14-.09-.04-.03.05.05.02.01,0,0-.02-.02-.03-.02-.02-.02-.04-.04-.06-.06-.02-.02-.03-.03-.05-.05,0-.01-.04-.05,0,0s0,0,0,0c-.03-.04-.05-.08-.08-.13-.01-.02-.03-.05-.04-.07,0-.01,0-.02-.01-.03.05.08.02.04,0,.01-.04-.1-.07-.21-.1-.32-.03-.13-.05-.25-.07-.38-.01-.08-.02-.15-.03-.23,0-.01-.01-.08,0-.03s0-.02,0-.03c0-.04-.01-.08-.01-.12-.04-.32-.06-.64-.07-.97,0-.2-.17-.38-.38-.38s-.38.16-.38.38h0Z"/>
      <path class="st0" d="M29.09,26.97c.49,1.06.95,2.13,1.38,3.22.4,1.01.78,2.05.91,3.13.21,1.67-.32,3.78-2.06,4.45-.45.17-.25.9.2.72,1.43-.55,2.33-1.92,2.58-3.4.31-1.86-.34-3.7-1.02-5.4-.42-1.04-.86-2.07-1.34-3.09-.2-.44-.85-.06-.65.38h0Z"/>
      <path class="st0" d="M28.69,35.48c0,.29-.03.57-.06.86,0,.07-.01.13-.02.2,0,.02,0,.03,0,.05,0,.07,0,0,0,0,0,.04-.01.08-.02.12-.02.12-.04.24-.06.37-.02.11-.05.22-.08.33-.02.05-.03.1-.05.15,0,0-.02.04-.02.04,0,0,.03-.07.01-.04-.01.03-.03.06-.04.08-.02.04-.05.09-.08.13,0,.01-.02.03-.03.04,0,0,.05-.06.02-.03-.02.02-.04.05-.06.07-.02.02-.03.03-.05.05-.01.01-.02.02-.04.03-.03.03.03-.02.03-.02-.05.02-.09.06-.14.09-.01,0-.1.05-.04.02.05-.02-.03,0-.04.01-.05.02-.11.03-.16.04-.03,0-.06,0-.08.01-.04,0,.04,0,.04,0,0,0-.05,0-.05,0-.06,0-.11,0-.17,0-.12,0-.23,0-.35-.01-.05,0-.11-.01-.16-.02-.04,0,.04,0,.04,0-.02,0-.04,0-.05,0-.03,0-.07-.01-.1-.02-.03,0-.05-.01-.08-.02-.02,0-.03-.01-.05-.02,0,0-.05-.02,0,0s0,0,0,0c-.01,0-.03-.02-.04-.03-.01,0-.02-.01-.03-.02-.04-.02.05.05.02.02-.02-.02-.04-.04-.06-.06,0,0-.03-.04,0,0,.03.05,0,0,0,0-.03-.04-.05-.09-.08-.14-.02-.04.02.04.02.04,0-.01-.01-.03-.02-.04,0-.02-.01-.04-.02-.07-.02-.06-.03-.11-.04-.17-.03-.13-.05-.26-.07-.39,0-.04,0,.02,0,.02,0-.02,0-.04,0-.06,0-.04,0-.08-.01-.12,0-.08-.02-.16-.02-.24-.01-.16-.02-.31-.02-.47,0-.32.01-.64.05-.95.02-.2-.19-.38-.38-.38-.22,0-.35.17-.38.38-.07.61-.06,1.22.02,1.83s.17,1.28.79,1.54c.27.11.57.14.85.15.27.01.55,0,.81-.09.27-.09.52-.24.7-.47s.3-.49.37-.76c.09-.32.13-.66.17-.99.04-.35.07-.69.08-1.04,0-.2-.18-.38-.38-.38-.21,0-.37.16-.38.38h0Z"/>
      <path class="st0" d="M33.12,34.89c1.01-.48,1.48-1.62,1.62-2.67.15-1.17-.05-2.47.51-3.56.12-.24.27-.45.46-.63.16-.15.46-.39.7-.33.47.11.67-.61.2-.72-.61-.14-1.22.27-1.6.71s-.61.96-.74,1.51c-.3,1.26-.03,2.6-.49,3.83-.19.52-.53.97-1.04,1.21-.18.09-.23.35-.13.51.11.19.33.22.51.13h0Z"/>
      <path class="st0" d="M31.21,37.4c1.8.08,3.53-.89,4.54-2.36.53-.78.78-1.65.86-2.58.04-.53.04-1.07.12-1.6s.28-.96.55-1.41.5-.97.35-1.52c-.13-.48-.5-.86-1.01-.87-.48-.02-.48.73,0,.75.25,0,.33.38.3.58-.05.42-.37.78-.56,1.15-.43.85-.43,1.8-.49,2.73-.05.81-.23,1.55-.66,2.24-.4.64-.96,1.17-1.61,1.55-.73.43-1.55.65-2.4.61-.48-.02-.48.73,0,.75h0Z"/>
      <path class="st0" d="M22.25,37.47c0,.07,0,.14.02.22,0,.05.02.1.03.15.02.07.05.14.08.2.02.05.05.09.08.14.02.03.04.05.06.07.02.02.05.04.09.04.03.01.07.01.1,0,.03,0,.06-.01.09-.03.05-.03.1-.09.11-.15s.01-.14-.03-.19-.07-.11-.09-.17l.03.06c-.04-.08-.06-.17-.07-.26v.07s0-.1,0-.15c0-.03,0-.07-.02-.1-.01-.03-.03-.06-.05-.08-.02-.02-.05-.04-.08-.05-.03-.02-.06-.02-.1-.02-.06,0-.13.02-.18.07s-.07.11-.07.18h0Z"/>
      <path class="st0" d="M23.07,37.71l.09.5s.02.06.04.09c.02.03.04.05.07.06.03.02.06.03.09.03.03,0,.07,0,.1,0l.06-.03s.07-.05.09-.09l.03-.06s.01-.09,0-.13l-.09-.5s-.02-.06-.04-.09c-.02-.03-.04-.05-.07-.06-.03-.02-.06-.03-.09-.03-.03,0-.07,0-.1,0l-.06.03s-.07.05-.09.09l-.03.06s-.01.09,0,.13h0Z"/>
      <path class="st0" d="M26.82,37.41c-.02.07-.03.14-.03.21,0,.05,0,.1,0,.16,0,.07.02.14.04.21s.05.14.08.2c.02.03.04.05.06.07.02.02.05.04.09.04.03.01.07.01.1,0,.03,0,.06-.01.09-.03.05-.03.1-.09.11-.15v-.07s0-.09-.03-.13c0-.01-.01-.02-.02-.04l.03.06c-.03-.07-.05-.14-.06-.22v.07c0-.08,0-.15,0-.23v.07s0-.07.01-.1c.01-.03.01-.07,0-.1,0-.03-.01-.06-.03-.09-.02-.03-.04-.05-.06-.07-.02-.02-.05-.04-.09-.04-.06-.01-.14-.01-.19.03s-.1.09-.11.15h0Z"/>
      <path class="st0" d="M27.64,37.62s.01.06.02.08v-.07c0,.08,0,.16,0,.23v-.07c0,.08-.02.15-.05.22l.03-.06s-.01.03-.02.04c-.02.03-.03.06-.03.09,0,.03,0,.07,0,.1,0,.03.02.06.04.09.02.03.04.05.07.06.06.03.13.05.19.03.06-.02.12-.06.15-.11.03-.06.06-.13.08-.2s.03-.14.04-.21c0-.05,0-.1,0-.15,0-.07-.01-.14-.03-.21,0-.03-.02-.06-.04-.09-.02-.03-.04-.05-.07-.06-.03-.02-.06-.03-.09-.03-.03,0-.07,0-.1,0-.06.02-.12.06-.15.11l-.03.06s-.01.09,0,.13h0Z"/>
    </g>
  </g>
  <g>
    <g class="st6">
      <path class="st4" d="M13.17,12.22c-.04,1.87.22,3.75.77,5.54.11.35.23.71.26,1.07.04.41-.04.82-.09,1.23-.34,2.67.3,5.61,2.29,7.42,2.25,2.04,5.59,2.21,8.63,2.09,1.69-.07,3.39-.18,5.02-.65s3.19-1.29,4.28-2.58c.44-.52.8-1.1,1.06-1.72.4-.96.71-2.19.66-3.24-.05-.9-.48-1.65-.33-2.61.11-.69.36-1.35.57-2.02.61-1.96.83-4.08.4-6.09-.13-.62-.35-1.27-.86-1.65-.82-.62-1.48.08-2.17.48-1.08.63-2.04,1.48-2.8,2.47-.25.33-.5.7-.89.85-.37.15-.79.07-1.18,0-1.39-.23-2.81-.32-4.22-.26-.98.04-2.78-.1-3.67.29-.11.05-.22.11-.34.09-.14-.02-.24-.14-.33-.24-1.29-1.6-2.75-3.19-4.69-3.88-1.91-.69-2.36,2.03-2.39,3.4Z"/>
      <path class="st1" d="M32.01,28.21c.46-.4.73-.91.72-1.58-.03-1.81-1.43-2.51-2.89-3.14s-1.79-1.41-2.93-2.5c-.71-.69-1.66-.75-2.6-.62-1.38.2-1.7.97-2.49,1.88-.71.82-1.66,1.19-2.56,1.78-.74.49-1.29,1.28-1.41,2.16-.53,3.78,4.77,3.48,7.18,3.38,1.6-.06,5.38.02,6.97-1.36Z"/>
      <path class="st1" d="M17.28,12.61c-.3-.38-.65-.72-1.01-1.03-.18-.12-.36-.24-.55-.34-.03-.01-.03-.01-.04-.02,0,0,0,0-.03,0-.03-.01-.06-.02-.09-.03-.04-.01-.09-.02-.13-.03-.01,0,0,0-.02,0,0,0,0,0,0,0-.03,0-.11,0-.13,0-.01,0-.02,0-.03,0-.02,0-.03.02-.05.03-.02.02-.07.07-.08.09-.03.04-.05.08-.07.13-.01.03-.02.03-.02.04,0,0,0,.01-.01.04-.05.14-.09.28-.11.43-.05.26-.07.58-.07.94,0,.81.08,1.66.19,2.44.07.52.18,1.05.28,1.57.4-.5.94-.86,1.44-1.25.41-.32,1.2-.81,1.32-1.37.12-.54-.47-1.24-.78-1.63Z"/>
      <path class="st1" d="M34.52,17.22c.53-1.32.96-2.76,1.07-4.19.02-.31.03-.62,0-.93,0-.11-.02-.17-.06-.34-.01-.06-.03-.12-.05-.18-.03-.09-.03-.08-.03-.07-.03-.05-.06-.11-.09-.16,0-.01.04.04-.04-.04-.01-.01-.02-.02-.03-.03-.02-.01-.07-.04-.08-.05-.03,0-.09-.03-.11-.03.01,0,.03,0-.07,0-.17,0-.13,0-.3.03-.06.01-.11,0-.16,0-.04.02-.08.04-.12.06-.45.26-.83.62-1.17,1-.52.57-1.07,1.3-1.31,2.06.23.68,1.04,1.21,1.5,1.69.37.38.68.82.98,1.26.01-.03.03-.07.05-.1Z"/>
      <path class="st2" d="M13.17,12.22c-.04,1.87.22,3.75.77,5.54.11.35.23.71.26,1.07.04.41-.04.82-.09,1.23-.34,2.67.3,5.61,2.29,7.42,2.25,2.04,5.59,2.21,8.63,2.09,1.69-.07,3.39-.18,5.02-.65s3.19-1.29,4.28-2.58c.44-.52.8-1.1,1.06-1.72.4-.96.71-2.19.66-3.24-.05-.9-.48-1.65-.33-2.61.11-.69.36-1.35.57-2.02.61-1.96.83-4.08.4-6.09-.13-.62-.35-1.27-.86-1.65-.82-.62-1.48.08-2.17.48-1.08.63-2.04,1.48-2.8,2.47-.25.33-.5.7-.89.85-.37.15-.79.07-1.18,0-1.39-.23-2.81-.32-4.22-.26-.98.04-2.78-.1-3.67.29-.11.05-.22.11-.34.09-.14-.02-.24-.14-.33-.24-1.29-1.6-2.75-3.19-4.69-3.88-1.91-.69-2.36,2.03-2.39,3.4Z"/>
      <path class="st5" d="M19.54,18.27c.1.12.21.23.33.34.16.14.34.27.52.38.09.05.18.08.28.09.1.02.2.02.3-.01.1-.02.18-.07.26-.13.08-.05.15-.12.19-.21l.08-.18c.04-.13.04-.27,0-.4l-.08-.18c-.07-.11-.16-.2-.27-.27-.09-.06-.18-.12-.27-.18l.15.12c-.16-.12-.3-.26-.43-.42-.07-.07-.15-.12-.24-.16-.09-.05-.19-.07-.29-.06-.1,0-.2.02-.29.06-.09.03-.17.08-.24.16l-.12.15c-.07.12-.1.24-.1.38l.03.2c.04.13.1.24.19.33h0Z"/>
      <path class="st5" d="M29,18.82l.6-.79c.05-.09.08-.18.09-.28.02-.1.02-.2-.01-.3-.02-.1-.07-.18-.13-.26-.05-.08-.12-.15-.21-.19-.17-.09-.38-.14-.58-.08l-.18.08c-.11.07-.2.16-.27.27l-.6.79c-.05.09-.08.18-.09.28-.02.1-.02.2.01.3.02.1.07.18.13.26.05.08.12.15.21.19.17.09.38.14.58.08l.18-.08c.11-.07.2-.16.27-.27h0Z"/>
      <path class="st5" d="M23.95,14.28c.02.11.04.22.05.32l-.03-.2c.04.3.06.59.05.89,0,.19.09.4.22.53s.34.23.53.22.4-.07.53-.22.22-.33.22-.53c0-.47-.05-.95-.13-1.41-.03-.18-.2-.36-.34-.45-.16-.09-.4-.13-.58-.08s-.36.17-.45.34l-.08.18c-.04.13-.04.27,0,.4h0Z"/>
      <path class="st5" d="M21.23,13.07c.27,1.42.75,2.8,1.42,4.09.18.35.7.48,1.03.27.36-.23.46-.65.27-1.03-.15-.3-.3-.6-.43-.9.06.13-.05-.13-.06-.15-.03-.07-.05-.13-.08-.2-.06-.17-.12-.34-.18-.5-.22-.64-.39-1.3-.51-1.97-.07-.39-.56-.64-.92-.52-.41.13-.6.51-.52.92h0Z"/>
      <path class="st5" d="M26.77,13.03c0,.16-.02.33-.03.49,0,.07-.01.14-.02.21,0,.03-.04.31-.02.15-.04.3-.1.6-.16.89-.14.62-.33,1.22-.57,1.8-.15.36.16.84.52.92.44.1.76-.13.92-.52.51-1.25.79-2.59.86-3.94.02-.39-.36-.77-.75-.75-.42.02-.73.33-.75.75h0Z"/>
      <path class="st5" d="M13.99,21.27c.37-.04.74-.03,1.1.02l-.2-.03c.1.01.2.03.29.05.2.04.4.03.58-.08.16-.09.3-.27.34-.45.04-.19.03-.41-.08-.58-.1-.16-.26-.31-.45-.34-.52-.1-1.06-.14-1.59-.09-.1,0-.2.02-.29.06-.09.03-.17.08-.24.16-.13.13-.23.34-.22.53s.07.4.22.53c.14.13.34.24.53.22h0Z"/>
      <path class="st5" d="M14.44,24.26l2.63-1.08c.19-.08.34-.16.45-.34.09-.16.13-.4.08-.58s-.17-.36-.34-.45-.4-.15-.58-.08l-2.63,1.08c-.19.08-.34.16-.45.34-.09.16-.13.4-.08.58s.17.36.34.45.4.15.58.08h0Z"/>
      <path class="st5" d="M15.75,26.89l1.04-.96c.14-.13.22-.34.22-.53,0-.1-.02-.2-.06-.29-.03-.09-.08-.17-.16-.24-.14-.13-.33-.23-.53-.22s-.38.08-.53.22l-1.04.96c-.14.13-.22.34-.22.53,0,.1.02.2.06.29.03.09.08.17.16.24.14.13.33.23.53.22s.38-.08.53-.22h0Z"/>
      <path class="st5" d="M34.13,20.93c.24-.14.48-.26.74-.37l-.18.08c.29-.12.59-.22.89-.3.18-.05.35-.18.45-.34s.13-.4.08-.58c-.13-.39-.52-.63-.92-.52-.63.17-1.24.42-1.81.74-.16.09-.29.27-.34.45s-.03.42.08.58c.22.34.66.48,1.03.27h0Z"/>
      <path class="st5" d="M32.68,22.87l3.57.4c.39.04.77-.38.75-.75-.02-.44-.33-.7-.75-.75l-3.57-.4c-.39-.04-.77.38-.75.75.02.44.33.7.75.75h0Z"/>
      <path class="st5" d="M33.7,25.08c.09.03.19.07.28.11l-.18-.08c.41.17.79.4,1.15.67l-.15-.12s.09.07.13.1c.16.13.32.22.53.22.18,0,.4-.08.53-.22s.23-.33.22-.53c0-.19-.07-.41-.22-.53-.28-.23-.57-.44-.89-.62s-.65-.32-.99-.45c-.18-.06-.42-.02-.58.08s-.3.27-.34.45c-.04.19-.03.41.08.58s.26.28.45.34h0Z"/>
    </g>
    <g>
      <g>
        <circle class="st0" cx="19.77" cy="21.06" r=".98"/>
        <circle class="st0" cx="29.95" cy="21.06" r=".98"/>
        <ellipse class="st0" cx="24.86" cy="22.18" rx=".88" ry=".55"/>
      </g>
      <path class="st0" d="M19.11,14.03c3.54-1.45,7.54-1.57,11.17-.32.46.16.65-.57.2-.72-3.73-1.29-7.91-1.18-11.56.32-.19.08-.32.25-.26.46.05.18.27.34.46.26h0Z"/>
      <path class="st0" d="M14.78,9.11c1.62.7,3.11,1.67,4.38,2.89.36.35.71.72,1.04,1.1.13.15.4.14.53,0,.15-.15.13-.38,0-.53-1.18-1.38-2.61-2.55-4.19-3.43-.45-.25-.91-.48-1.38-.68-.19-.08-.4-.06-.51.13-.09.16-.05.43.13.51h0Z"/>
      <path class="st0" d="M13.6,9.29c-1.12,3.05-.99,6.47.29,9.44.08.19.35.23.51.13.19-.11.22-.33.13-.51-1.2-2.79-1.26-6.02-.22-8.86.17-.45-.56-.65-.72-.2h0Z"/>
      <path class="st0" d="M15.35,11.87c.2.11.39.23.58.36.05.03.09.07.14.1.04.03-.06-.05-.03-.02.01,0,.02.02.03.02.02.02.05.04.07.06.09.07.17.15.26.22.17.15.32.32.47.49.02.02.04.05.06.07,0,.01.07.09.03.03s.02.02.03.03c.02.03.04.05.06.08.07.09.13.19.19.28.14.22.26.44.36.68.04.08.14.15.22.17.09.02.21.01.29-.04s.15-.13.17-.22c.02-.1,0-.19-.04-.29-.4-.9-1.04-1.67-1.83-2.26-.21-.16-.43-.3-.67-.42-.17-.09-.42-.05-.51.13-.09.17-.05.41.13.51h0Z"/>
      <path class="st0" d="M16.05,15.85c-1.67,1.82-2.62,4.35-2.38,6.83s1.56,4.51,3.61,5.76c1.12.68,2.43,1.06,3.75,1.01.48-.02.48-.77,0-.75-2.09.07-4.11-1.03-5.33-2.71-1.32-1.81-1.6-4.13-.98-6.26.36-1.24,1-2.39,1.88-3.35.33-.36-.2-.89-.53-.53h0Z"/>
      <path class="st0" d="M30.13,13.21c.54-.53,1.05-1.09,1.6-1.62.44-.42.91-.79,1.38-1.16.42-.32.84-.64,1.29-.92.19-.12.4-.24.61-.31.05-.02.1-.03.16-.05s.05-.01.06-.01c.12,0,.1,0,.19.02.06.02.03,0,.04.01.03.01.06.03.09.05.05.03.08.06.15.13.09.1.18.25.25.41.17.36.27.81.33,1.22.13.78.15,1.59.16,2.38.02,1.71-.27,3.42-.95,5-.08.19-.05.4.13.51.16.09.43.05.51-.13,1.05-2.43,1.27-5.14.9-7.74-.12-.83-.34-1.95-1.13-2.42-.93-.56-2.07.37-2.79.91-.55.41-1.05.78-1.56,1.24-.69.62-1.31,1.32-1.98,1.97-.35.34.18.87.53.53h0Z"/>
      <path class="st0" d="M34.32,11.22c-.86.46-1.6,1.16-2.12,1.99-.14.22-.26.46-.37.7-.04.1-.07.18-.04.29.02.09.09.18.17.22.09.05.19.07.29.04.09-.03.19-.09.22-.17.09-.21.2-.41.31-.6.06-.1.12-.19.18-.29.03-.05.07-.09.1-.14.02-.02.03-.04.05-.06.03-.04-.05.06-.02.03.01-.01.02-.03.03-.04.14-.18.29-.35.46-.5.08-.08.17-.16.26-.24.04-.03.08-.07.12-.1.01,0,.09-.07.03-.03-.05.04-.01,0,0,0,.02-.01.03-.02.05-.04.21-.15.42-.29.65-.41.17-.09.24-.35.13-.51-.11-.18-.33-.23-.51-.13h0Z"/>
      <path class="st0" d="M33.47,16.38c1.52,1.66,2.36,3.95,2.17,6.2s-1.41,4.09-3.24,5.2c-1.02.62-2.17.95-3.37.91-.48-.02-.48.73,0,.75,2.34.07,4.54-1.16,5.93-3.01,1.48-1.97,1.79-4.57,1.11-6.91-.39-1.37-1.11-2.63-2.07-3.68-.33-.36-.86.17-.53.53h0Z"/>
    </g>
  </g>
</svg>