<?xml version="1.0" encoding="UTF-8"?>
<svg id="cat" xmlns="http://www.w3.org/2000/svg" version="1.1" viewBox="0 0 50.83 48.47">
  <!-- Generator: Adobe Illustrator 29.8.2, SVG Export Plug-In . SVG Version: 2.1.1 Build 3)  -->
  <defs>
    <style>
      .st0 {
        fill: #231f20;
      }

      .st1 {
        fill: #fff;
      }

      .st2 {
        fill: #f9bdbe;
      }

      .st3 {
        fill: #f39b4a;
      }
    </style>
  </defs>
  <g>
    <path class="st3" d="M35.43,29.13c-.45.67-.51,1.51-.51,2.32s.07,1.62-.16,2.39c-.36,1.22-1.5,2.17-2.77,2.3-.47.05-.95,0-1.4.11s-.91.46-.92.93c-.02.56.57.95,1.12,1.08,1.58.37,3.33-.36,4.48-1.44,1.47-1.37,1.04-2.82,1.36-4.56.12-.68.51-1.27.78-1.91.31-.73.55-1.53-.38-1.88-.66-.24-1.26.12-1.6.64Z"/>
    <path class="st3" d="M26.63,25.35c2.2.68,3.34,2.59,4.12,4.6.45,1.16.76,2.36,1.1,3.57.51,1.92.25,4.26-1.34,5.43-1.03.76-2.37.88-3.65.95-3.26.17-7.18.06-7.8-3.93-.26-1.68.33-2.81.79-4.37.57-1.93,1.35-4.39,3.07-5.56,1.07-.73,2.46-1.07,3.71-.69Z"/>
    <g>
      <path class="st0" d="M20.97,27.77c-.42.9-.82,1.82-1.19,2.74s-.72,1.78-.96,2.7c-.42,1.62-.45,3.4.47,4.86.46.73,1.1,1.28,1.9,1.59.45.17.65-.55.2-.72-1.74-.67-2.27-2.78-2.06-4.45.13-1.08.51-2.12.91-3.13.43-1.09.89-2.16,1.38-3.22.2-.44-.44-.82-.65-.38h0Z"/>
      <path class="st0" d="M21.27,36.67c.02.62.08,1.25.21,1.85.11.53.37,1.07.88,1.32.27.13.55.18.84.19.27,0,.57-.02.83-.08.31-.07.58-.26.73-.54.13-.24.19-.51.23-.78.11-.7.14-1.41.06-2.12-.01-.1-.03-.19-.11-.27-.07-.07-.17-.11-.27-.11-.18,0-.4.17-.38.38.06.56.06,1.12,0,1.68,0,.04,0,.07-.01.11,0,.02,0,.03,0,.05,0,.06,0-.07,0,0-.01.07-.02.14-.03.21-.02.11-.04.23-.07.34,0,.03-.02.05-.03.08,0,.01,0,.02-.01.03-.01.04.02-.04.02-.04-.02.02-.02.05-.03.07-.01.03-.03.05-.05.08,0,0-.01.02-.02.03,0,0,.05-.06.02-.03-.02.02-.04.04-.06.06,0,0-.04.03,0,0,.05-.03,0,0-.01,0-.02.01-.07.03-.08.04.02-.03.06-.02.02,0-.01,0-.02,0-.04.01-.03,0-.06.02-.09.02-.03,0-.05.01-.08.02-.02,0-.03,0-.05,0-.05,0,0,0,.02,0-.05.02-.12.01-.17.02-.06,0-.11,0-.17.01-.11,0-.23,0-.34,0-.01,0-.02,0-.04,0-.04,0,.04,0,.04,0-.03,0-.06,0-.08-.01-.06-.01-.12-.03-.17-.05-.02,0-.04-.02-.07-.02,0,0,.08.04.02,0-.01,0-.02-.01-.03-.02-.05-.03-.1-.06-.14-.09-.04-.03.05.05.02.01,0,0-.02-.02-.03-.02-.02-.02-.04-.04-.06-.06-.02-.02-.03-.03-.05-.05,0-.01-.04-.05,0,0s0,0,0,0c-.03-.04-.05-.08-.08-.13-.01-.02-.03-.05-.04-.07,0-.01,0-.02-.01-.03.05.08.02.04,0,.01-.04-.1-.07-.21-.1-.32-.03-.13-.05-.25-.07-.38-.01-.08-.02-.15-.03-.23,0-.01-.01-.08,0-.03s0-.02,0-.03c0-.04-.01-.08-.01-.12-.04-.32-.06-.64-.07-.97,0-.2-.17-.38-.38-.38s-.38.16-.38.38h0Z"/>
      <path class="st0" d="M29.39,28.15c.49,1.06.95,2.13,1.38,3.22.4,1.01.78,2.05.91,3.13.21,1.67-.32,3.78-2.06,4.45-.45.17-.25.9.2.72,1.43-.55,2.33-1.92,2.58-3.4.31-1.86-.34-3.7-1.02-5.4-.42-1.04-.86-2.07-1.34-3.09-.2-.44-.85-.06-.65.38h0Z"/>
      <path class="st0" d="M29,36.67c0,.29-.03.57-.06.86,0,.07-.01.13-.02.2,0,.02,0,.03,0,.05,0,.07,0,0,0,0,0,.04-.01.08-.02.12-.02.12-.04.24-.06.37-.02.11-.05.22-.08.33-.02.05-.03.1-.05.15,0,0-.02.04-.02.04,0,0,.03-.07.01-.04-.01.03-.03.06-.04.08-.02.04-.05.09-.08.13,0,.01-.02.03-.03.04,0,0,.05-.06.02-.03-.02.02-.04.05-.06.07-.02.02-.03.03-.05.05-.01.01-.02.02-.04.03-.03.03.03-.02.03-.02-.05.02-.09.06-.14.09-.01,0-.1.05-.04.02.05-.02-.03,0-.04.01-.05.02-.11.03-.16.04-.03,0-.06,0-.08.01-.04,0,.04,0,.04,0,0,0-.05,0-.05,0-.06,0-.11,0-.17,0-.12,0-.23,0-.35-.01-.05,0-.11-.01-.16-.02-.04,0,.04,0,.04,0-.02,0-.04,0-.05,0-.03,0-.07-.01-.1-.02-.03,0-.05-.01-.08-.02-.02,0-.03-.01-.05-.02,0,0-.05-.02,0,0s0,0,0,0c-.01,0-.03-.02-.04-.03-.01,0-.02-.01-.03-.02-.04-.02.05.05.02.02-.02-.02-.04-.04-.06-.06,0,0-.03-.04,0,0,.03.05,0,0,0,0-.03-.04-.05-.09-.08-.14-.02-.04.02.04.02.04,0-.01-.01-.03-.02-.04,0-.02-.01-.04-.02-.07-.02-.06-.03-.11-.04-.17-.03-.13-.05-.26-.07-.39,0-.04,0,.02,0,.02,0-.02,0-.04,0-.06,0-.04,0-.08-.01-.12,0-.08-.02-.16-.02-.24-.01-.16-.02-.31-.02-.47,0-.32.01-.64.05-.95.02-.2-.19-.38-.38-.38-.22,0-.35.17-.38.38-.07.61-.06,1.22.02,1.83s.17,1.28.79,1.54c.27.11.57.14.85.15.27.01.55,0,.81-.09.27-.09.52-.24.7-.47s.3-.49.37-.76c.09-.32.13-.66.17-.99.04-.35.07-.69.08-1.04,0-.2-.18-.38-.38-.38-.21,0-.37.16-.38.38h0Z"/>
      <path class="st0" d="M33.43,36.07c1.01-.48,1.48-1.62,1.62-2.67.15-1.17-.05-2.47.51-3.56.12-.24.27-.45.46-.63.16-.15.46-.39.7-.33.47.11.67-.61.2-.72-.61-.14-1.22.27-1.6.71s-.61.96-.74,1.51c-.3,1.26-.03,2.6-.49,3.83-.19.52-.53.97-1.04,1.21-.18.09-.23.35-.13.51.11.19.33.22.51.13h0Z"/>
      <path class="st0" d="M31.52,38.59c1.8.08,3.53-.89,4.54-2.36.53-.78.78-1.65.86-2.58.04-.53.04-1.07.12-1.6s.28-.96.55-1.41.5-.97.35-1.52c-.13-.48-.5-.86-1.01-.87-.48-.02-.48.73,0,.75.25,0,.33.38.3.58-.05.42-.37.78-.56,1.15-.43.85-.43,1.8-.49,2.73-.05.81-.23,1.55-.66,2.24-.4.64-.96,1.17-1.61,1.55-.73.43-1.55.65-2.4.61-.48-.02-.48.73,0,.75h0Z"/>
      <path class="st0" d="M22.55,38.66c0,.07,0,.14.02.22,0,.05.02.1.03.15.02.07.05.14.08.2.02.05.05.09.08.14.02.03.04.05.06.07.02.02.05.04.09.04.03.01.07.01.1,0,.03,0,.06-.01.09-.03.05-.03.1-.09.11-.15s.01-.14-.03-.19-.07-.11-.09-.17l.03.06c-.04-.08-.06-.17-.07-.26v.07s0-.1,0-.15c0-.03,0-.07-.02-.1-.01-.03-.03-.06-.05-.08-.02-.02-.05-.04-.08-.05-.03-.02-.06-.02-.1-.02-.06,0-.13.02-.18.07s-.07.11-.07.18h0Z"/>
      <path class="st0" d="M23.38,38.89l.09.5s.02.06.04.09c.02.03.04.05.07.06.03.02.06.03.09.03.03,0,.07,0,.1,0l.06-.03s.07-.05.09-.09l.03-.06s.01-.09,0-.13l-.09-.5s-.02-.06-.04-.09c-.02-.03-.04-.05-.07-.06-.03-.02-.06-.03-.09-.03-.03,0-.07,0-.1,0l-.06.03s-.07.05-.09.09l-.03.06s-.01.09,0,.13h0Z"/>
      <path class="st0" d="M27.13,38.59c-.02.07-.03.14-.03.21,0,.05,0,.1,0,.16,0,.07.02.14.04.21s.05.14.08.2c.02.03.04.05.06.07.02.02.05.04.09.04.03.01.07.01.1,0,.03,0,.06-.01.09-.03.05-.03.1-.09.11-.15v-.07s0-.09-.03-.13c0-.01-.01-.02-.02-.04l.03.06c-.03-.07-.05-.14-.06-.22v.07c0-.08,0-.15,0-.23v.07s0-.07.01-.1c.01-.03.01-.07,0-.1,0-.03-.01-.06-.03-.09-.02-.03-.04-.05-.06-.07-.02-.02-.05-.04-.09-.04-.06-.01-.14-.01-.19.03s-.1.09-.11.15h0Z"/>
      <path class="st0" d="M27.94,38.81s.01.06.02.08v-.07c0,.08,0,.16,0,.23v-.07c0,.08-.02.15-.05.22l.03-.06s-.01.03-.02.04c-.02.03-.03.06-.03.09,0,.03,0,.07,0,.1,0,.03.02.06.04.09.02.03.04.05.07.06.06.03.13.05.19.03.06-.02.12-.06.15-.11.03-.06.06-.13.08-.2s.03-.14.04-.21c0-.05,0-.1,0-.15,0-.07-.01-.14-.03-.21,0-.03-.02-.06-.04-.09-.02-.03-.04-.05-.07-.06-.03-.02-.06-.03-.09-.03-.03,0-.07,0-.1,0-.06.02-.12.06-.15.11l-.03.06s-.01.09,0,.13h0Z"/>
    </g>
  </g>
  <g>
    <g>
      <path class="st3" d="M13.95,13.58c.05,1.22.24,2.47.52,3.63.29,1.21.54,2.26.11,3.45-.32.89-.37,1.83-.28,2.78.18,1.92.97,3.9,2.41,5.22,2.25,2.04,5.59,2.21,8.63,2.09,1.69-.07,3.39-.18,5.02-.65s3.19-1.29,4.28-2.58c.44-.52.8-1.1,1.06-1.72.4-.96.71-2.19.66-3.24-.04-.73-.27-1.41-.37-2.12-.1-.74.21-1.44.4-2.14.2-.77.23-1.57.25-2.36.03-1.06.07-2.12.1-3.19.04-1.37.08-2.79-.46-4.05-.05-.11-.11-.22-.22-.26-.09-.03-.18,0-.27.04-2.6,1.08-4.81,3.09-6.12,5.58-1.55-.32-3.21-.4-4.79-.33-.91.04-1.83-.04-2.74.07-.58.07-.75.27-1.15-.15-.34-.36-.61-.82-.92-1.2-1.3-1.62-2.85-3.16-4.84-3.89-.62-.23-.84.15-.92.75-.09.73-.19,1.47-.28,2.2-.04.31-.08.63-.09.94-.01.37,0,.74,0,1.11Z"/>
      <path class="st1" d="M27.72,23.68c-.14-.06-.28-.12-.43-.16-1.4-.47-2.75-.44-4.11.13-.95.4-1.88,1.07-2.17,2.06-.45,1.59,1.04,2.68,2.39,2.99,1.27.29,2.63.25,3.88-.11,1.47-.43,3.04-1.66,2.2-3.36-.35-.72-1.03-1.22-1.77-1.55Z"/>
      <path class="st2" d="M15.61,10.46c-.17.07-.29.21-.33.47-.16,1.09-.02,2.04.11,3.11.15,1.29.39,2.56.6,3.84.59-.8,1.32-1.49,2.13-2.14.52-.42,1.44-.88,1.25-1.65-.25-.99-1.07-2.43-1.9-3.05-.41-.31-1.35-.78-1.86-.57Z"/>
      <path class="st2" d="M33.15,16.46c.45.49.93.94,1.36,1.46.09.1.22.52.4.43.11-.06.15-.2.17-.33.33-1.99.66-4,.59-6.02-.03-.76-.11-2.12-1.19-1.72-.27.1-.49.29-.7.49-.22.21-3.04,3.64-2.58,3.84.81.35,1.39,1.23,1.95,1.85Z"/>
    </g>
    <g>
      <g>
        <circle class="st0" cx="20.08" cy="22.24" r=".98"/>
        <circle class="st0" cx="30.25" cy="22.24" r=".98"/>
        <ellipse class="st0" cx="25.17" cy="23.36" rx=".88" ry=".55"/>
      </g>
      <path class="st0" d="M19.41,15.22c3.54-1.45,7.54-1.57,11.17-.32.46.16.65-.57.2-.72-3.73-1.29-7.91-1.18-11.56.32-.19.08-.32.25-.26.46.05.18.27.34.46.26h0Z"/>
      <path class="st0" d="M14.77,8.81c.23.05.46.11.68.2.12.04.14.06.27.12s.25.12.37.19c.49.27.96.6,1.37.93.88.71,1.74,1.59,2.4,2.45.33.43.64.89.88,1.37.09.18.35.23.51.13.19-.11.22-.33.13-.51-.48-.97-1.19-1.83-1.92-2.61-.84-.89-1.78-1.71-2.84-2.32-.51-.3-1.07-.55-1.65-.67-.2-.04-.4.06-.46.26-.05.18.06.42.26.46h0Z"/>
      <path class="st0" d="M14.02,9.26c-.25,1.63-.37,3.28-.28,4.92.07,1.26.25,2.52.47,3.76.11.6.22,1.2.31,1.8.03.2.28.31.46.26.21-.06.29-.26.26-.46-.16-1.07-.38-2.13-.54-3.21-.19-1.33-.28-2.68-.23-4.02.03-.96.13-1.91.27-2.85.03-.2-.05-.4-.26-.46-.18-.05-.43.06-.46.26h0Z"/>
      <path class="st0" d="M16.25,10.87s.05.04.08.06c.01,0,.02.02.03.02.06.05-.07-.06,0,0,.06.05.12.09.17.14.12.1.24.21.35.32.26.25.51.52.74.79.12.14.24.29.36.44.04.05-.05-.07,0,0,.01.02.02.03.03.05.03.04.06.08.09.12.06.08.11.15.17.23.2.29.39.59.55.9.04.08.08.16.11.24,0,.02.01.04.02.05-.05-.09-.01-.03,0,0,.01.04.03.07.04.11.05.14.09.28.11.42.03.19.29.32.46.26.21-.07.29-.25.26-.46-.04-.31-.17-.6-.3-.88-.15-.31-.33-.61-.53-.9-.44-.65-.94-1.26-1.5-1.81-.27-.26-.55-.52-.86-.73-.16-.11-.42-.03-.51.13-.1.19-.04.39.13.51h0Z"/>
      <path class="st0" d="M36.63,18.57c.52-2.62.8-5.28.45-7.94-.09-.69-.22-1.38-.35-2.06-.06-.28-.15-.58-.48-.65s-.66.17-.94.31c-1.1.57-2.13,1.29-3.06,2.1-1.08.94-2.02,2.04-2.8,3.24-.26.41.38.78.65.38,1.26-1.93,2.96-3.55,4.94-4.71.24-.14.48-.27.72-.4.05-.03.36-.14.37-.18l-.09-.05c-.08-.08-.11-.07-.07.01-.01.07.04.18.05.26.12.61.24,1.22.32,1.84.16,1.27.19,2.55.1,3.82s-.29,2.56-.54,3.83c-.09.47.63.67.72.2h0Z"/>
      <path class="st0" d="M34.27,10.22c-.57.4-1.07.91-1.52,1.44-.5.58-.97,1.21-1.32,1.89-.16.31-.3.64-.35.99-.03.19.05.41.26.46.18.04.43-.05.46-.26.02-.13.05-.25.09-.37.02-.06.04-.12.07-.18.03-.08-.04.08,0,0,0-.01.01-.03.02-.04.02-.04.04-.08.05-.12.15-.31.33-.61.52-.89.1-.15.21-.3.32-.45.02-.02.09-.12.04-.05.03-.04.06-.08.09-.11.06-.08.12-.15.18-.22.23-.28.48-.55.74-.81.13-.13.26-.25.4-.37.06-.05.13-.11.19-.16.01-.01.03-.02.04-.03-.09.07-.03.02,0,0,.03-.02.06-.05.1-.07.16-.11.25-.33.13-.51-.1-.16-.34-.26-.51-.13h0Z"/>
      <path class="st0" d="M16.35,17.03c-1.67,1.82-2.62,4.35-2.38,6.83s1.56,4.51,3.61,5.76c1.12.68,2.43,1.06,3.75,1.01.48-.02.48-.77,0-.75-2.09.07-4.11-1.03-5.33-2.71-1.32-1.81-1.6-4.13-.98-6.26.36-1.24,1-2.39,1.88-3.35.33-.36-.2-.89-.53-.53h0Z"/>
      <path class="st0" d="M33.77,17.56c1.52,1.66,2.36,3.95,2.17,6.2s-1.41,4.09-3.24,5.2c-1.02.62-2.17.95-3.37.91-.48-.02-.48.73,0,.75,2.34.07,4.54-1.16,5.93-3.01,1.48-1.97,1.79-4.57,1.11-6.91-.39-1.37-1.11-2.63-2.07-3.68-.33-.36-.86.17-.53.53h0Z"/>
    </g>
  </g>
</svg>