<?xml version="1.0" encoding="UTF-8"?>
<svg id="cat" xmlns="http://www.w3.org/2000/svg" version="1.1" viewBox="0 0 50.83 48.47">
  <!-- Generator: Adobe Illustrator 29.8.2, SVG Export Plug-In . SVG Version: 2.1.1 Build 3)  -->
  <defs>
    <style>
      .st0 {
        fill: #231f20;
      }

      .st1 {
        fill: #fff;
      }

      .st2 {
        fill: #f8c04e;
      }

      .st3 {
        fill: #f9bdbe;
      }

      .st4 {
        fill: #5c564d;
      }
    </style>
  </defs>
  <g>
    <path class="st2" d="M31.63,29.44c-.45.67-.51,1.51-.51,2.32s.07,1.62-.16,2.39c-.36,1.22-1.5,2.17-2.77,2.3-.47.05-.95,0-1.4.11s-.91.46-.92.93c-.02.56.57.95,1.12,1.08,1.58.37,3.33-.36,4.48-1.44,1.47-1.37,1.04-2.82,1.36-4.56.12-.68.51-1.27.78-1.91.31-.73.55-1.53-.38-1.88-.66-.24-1.26.12-1.6.64Z"/>
    <path class="st4" d="M32.25,34.87c-.45-.19-.88-.43-1.3-.69-.15.48-.42.91-.77,1.27.17.76.34,1.52.51,2.28.28-.18.54-.38.78-.6.73-.69,1-1.39,1.11-2.14-.11-.04-.22-.08-.33-.12Z"/>
    <path class="st4" d="M31.13,33c.49.34,1.01.65,1.56.89.03-.42.06-.85.14-1.31.12-.68.51-1.27.78-1.91.31-.73.55-1.53-.38-1.88-.66-.24-1.26.12-1.6.64-.45.67-.51,1.51-.51,2.32,0,.41.02.83,0,1.25Z"/>
    <path class="st2" d="M22.82,25.66c2.2.68,3.34,2.59,4.12,4.6.45,1.16.76,2.36,1.1,3.57.51,1.92.25,4.26-1.34,5.43-1.03.76-2.37.88-3.65.95-3.26.17-7.18.06-7.8-3.93-.26-1.68.33-2.81.79-4.37.57-1.93,1.35-4.39,3.07-5.56,1.07-.73,2.46-1.07,3.71-.69Z"/>
    <path class="st4" d="M17.5,36.27c.03-.07.07-.13.1-.2.01-.02.01-.02.02-.03,0,0,0,0,0,0,.02-.04.03-.08.05-.12.05-.14.09-.28.11-.43,0-.03,0-.07,0-.1,0-.03,0-.07,0-.1-.01-.04-.04-.13-.04-.13-.01-.02-.02-.04-.03-.06-.01-.01-.03-.03-.04-.05-.02-.01-.04-.03-.05-.03,0,0-.02,0-.02,0-.24-.06-.59-.05-.9,0-.38.07-.83.21-1.15.35-.12.05-.23.11-.34.17,0,.24.02.48.06.74.13.84.42,1.49.8,2.02.42-.49.81-.97,1.16-1.52.1-.16.2-.33.29-.51Z"/>
    <path class="st4" d="M15.89,33.94c.74-.35,1.63-.52,2.43-.82.53-.19,1.11-.49,1.22-1.04.12-.62-.43-1.14-.93-1.53-.39-.3-1.29-1.18-1.78-.93-.39.2-.66,1.85-.78,2.27-.23.77-.57,1.54-.69,2.34.17-.12.35-.21.53-.3Z"/>
    <path class="st4" d="M20.45,37.47s-.08.04-.11.06c-.73.48-1.72.55-2.51.17-.09-.04.04,1.63.34,1.92.54.51,1.67.56,2.22.05.4-.37.4-.99.37-1.54,0-.15-.02-.31-.02-.46,0-.07-.01-.15-.06-.19-.06-.06-.15-.04-.23,0Z"/>
    <path class="st1" d="M23.99,33.77c.9-1.82,1.69-3.8,1.78-5.82-.71-1.04-1.64-1.89-2.95-2.3-1.24-.38-2.63-.04-3.71.69-.08.06-.16.13-.24.2-.05.12-.15.22-.32.27-.35.33-.65.72-.91,1.15-.04,1.5,1.46,4.02,1.84,4.76.64,1.23,1.1,2.44,1.29,3.84.18,1.31,0,2.52-.48,3.65.92.07,1.87.05,2.77,0,.02,0,.05,0,.07,0-1.22-2.12-.13-4.42.86-6.43Z"/>
    <path class="st4" d="M25.21,34.24c-.08.28-.65.38-.75.72-.08.27.2.51.45.64.81.44,1.71.7,2.62.78,1.32.11.71-1.84.51-2.56-.19-.66-.29-1.5-.87-1.96-.66.29-1.32.58-1.98.87-.18.08-.37.17-.51.32s-.19.39-.07.56c.15.21.53.23.59.49.01.05.01.1,0,.14Z"/>
    <path class="st4" d="M25.57,36.77c-.54,0-1.65-.33-2.03.22-.8,1.16,1.16,1.37,1.75,1.43.03.11-.09,1.32-.23,1.24.61.35,1.39-.13,1.83-.55.13-.12.86-1.33.71-1.33-.42,0-1.17-.05-1.51-.34-.06-.05-.45-.66-.37-.66-.05,0-.1,0-.15,0Z"/>
    <g>
      <path class="st0" d="M17.16,28.08c-.42.9-.82,1.82-1.19,2.74s-.72,1.78-.96,2.7c-.42,1.62-.45,3.4.47,4.86.46.73,1.1,1.28,1.9,1.59.45.17.65-.55.2-.72-1.74-.67-2.27-2.78-2.06-4.45.13-1.08.51-2.12.91-3.13.43-1.09.89-2.16,1.38-3.22.2-.44-.44-.82-.65-.38h0Z"/>
      <path class="st0" d="M17.46,36.97c.02.62.08,1.25.21,1.85.11.53.37,1.07.88,1.32.27.13.55.18.84.19.27,0,.57-.02.83-.08.31-.07.58-.26.73-.54.13-.24.19-.51.23-.78.11-.7.14-1.41.06-2.12-.01-.1-.03-.19-.11-.27-.07-.07-.17-.11-.27-.11-.18,0-.4.17-.38.38.06.56.06,1.12,0,1.68,0,.04,0,.07-.01.11,0,.02,0,.03,0,.05,0,.06,0-.07,0,0-.01.07-.02.14-.03.21-.02.11-.04.23-.07.34,0,.03-.02.05-.03.08,0,.01,0,.02-.01.03-.01.04.02-.04.02-.04-.02.02-.02.05-.03.07-.01.03-.03.05-.05.08,0,0-.01.02-.02.03,0,0,.05-.06.02-.03-.02.02-.04.04-.06.06,0,0-.04.03,0,0,.05-.03,0,0-.01,0-.02.01-.07.03-.08.04.02-.03.06-.02.02,0-.01,0-.02,0-.04.01-.03,0-.06.02-.09.02-.03,0-.05.01-.08.02-.02,0-.03,0-.05,0-.05,0,0,0,.02,0-.05.02-.12.01-.17.02-.06,0-.11,0-.17.01-.11,0-.23,0-.34,0-.01,0-.02,0-.04,0-.04,0,.04,0,.04,0-.03,0-.06,0-.08-.01-.06-.01-.12-.03-.17-.05-.02,0-.04-.02-.07-.02,0,0,.08.04.02,0-.01,0-.02-.01-.03-.02-.05-.03-.1-.06-.14-.09-.04-.03.05.05.02.01,0,0-.02-.02-.03-.02-.02-.02-.04-.04-.06-.06-.02-.02-.03-.03-.05-.05,0-.01-.04-.05,0,0s0,0,0,0c-.03-.04-.05-.08-.08-.13-.01-.02-.03-.05-.04-.07,0-.01,0-.02-.01-.03.05.08.02.04,0,.01-.04-.1-.07-.21-.1-.32-.03-.13-.05-.25-.07-.38-.01-.08-.02-.15-.03-.23,0-.01-.01-.08,0-.03s0-.02,0-.03c0-.04-.01-.08-.01-.12-.04-.32-.06-.64-.07-.97,0-.2-.17-.38-.38-.38s-.38.16-.38.38h0Z"/>
      <path class="st0" d="M25.59,28.46c.49,1.06.95,2.13,1.38,3.22.4,1.01.78,2.05.91,3.13.21,1.67-.32,3.78-2.06,4.45-.45.17-.25.9.2.72,1.43-.55,2.33-1.92,2.58-3.4.31-1.86-.34-3.7-1.02-5.4-.42-1.04-.86-2.07-1.34-3.09-.2-.44-.85-.06-.65.38h0Z"/>
      <path class="st0" d="M25.19,36.97c0,.29-.03.57-.06.86,0,.07-.01.13-.02.2,0,.02,0,.03,0,.05,0,.07,0,0,0,0,0,.04-.01.08-.02.12-.02.12-.04.24-.06.37-.02.11-.05.22-.08.33-.02.05-.03.1-.05.15,0,0-.02.04-.02.04,0,0,.03-.07.01-.04-.01.03-.03.06-.04.08-.02.04-.05.09-.08.13,0,.01-.02.03-.03.04,0,0,.05-.06.02-.03-.02.02-.04.05-.06.07-.02.02-.03.03-.05.05-.01.01-.02.02-.04.03-.03.03.03-.02.03-.02-.05.02-.09.06-.14.09-.01,0-.1.05-.04.02.05-.02-.03,0-.04.01-.05.02-.11.03-.16.04-.03,0-.06,0-.08.01-.04,0,.04,0,.04,0,0,0-.05,0-.05,0-.06,0-.11,0-.17,0-.12,0-.23,0-.35-.01-.05,0-.11-.01-.16-.02-.04,0,.04,0,.04,0-.02,0-.04,0-.05,0-.03,0-.07-.01-.1-.02-.03,0-.05-.01-.08-.02-.02,0-.03-.01-.05-.02,0,0-.05-.02,0,0s0,0,0,0c-.01,0-.03-.02-.04-.03-.01,0-.02-.01-.03-.02-.04-.02.05.05.02.02-.02-.02-.04-.04-.06-.06,0,0-.03-.04,0,0,.03.05,0,0,0,0-.03-.04-.05-.09-.08-.14-.02-.04.02.04.02.04,0-.01-.01-.03-.02-.04,0-.02-.01-.04-.02-.07-.02-.06-.03-.11-.04-.17-.03-.13-.05-.26-.07-.39,0-.04,0,.02,0,.02,0-.02,0-.04,0-.06,0-.04,0-.08-.01-.12,0-.08-.02-.16-.02-.24-.01-.16-.02-.31-.02-.47,0-.32.01-.64.05-.95.02-.2-.19-.38-.38-.38-.22,0-.35.17-.38.38-.07.61-.06,1.22.02,1.83s.17,1.28.79,1.54c.27.11.57.14.85.15.27.01.55,0,.81-.09.27-.09.52-.24.7-.47s.3-.49.37-.76c.09-.32.13-.66.17-.99.04-.35.07-.69.08-1.04,0-.2-.18-.38-.38-.38-.21,0-.37.16-.38.38h0Z"/>
      <path class="st0" d="M29.62,36.37c1.01-.48,1.48-1.62,1.62-2.67.15-1.17-.05-2.47.51-3.56.12-.24.27-.45.46-.63.16-.15.46-.39.7-.33.47.11.67-.61.2-.72-.61-.14-1.22.27-1.6.71s-.61.96-.74,1.51c-.3,1.26-.03,2.6-.49,3.83-.19.52-.53.97-1.04,1.21-.18.09-.23.35-.13.51.11.19.33.22.51.13h0Z"/>
      <path class="st0" d="M27.71,38.89c1.8.08,3.53-.89,4.54-2.36.53-.78.78-1.65.86-2.58.04-.53.04-1.07.12-1.6s.28-.96.55-1.41.5-.97.35-1.52c-.13-.48-.5-.86-1.01-.87-.48-.02-.48.73,0,.75.25,0,.33.38.3.58-.05.42-.37.78-.56,1.15-.43.85-.43,1.8-.49,2.73-.05.81-.23,1.55-.66,2.24-.4.64-.96,1.17-1.61,1.55-.73.43-1.55.65-2.4.61-.48-.02-.48.73,0,.75h0Z"/>
      <path class="st0" d="M18.74,38.96c0,.07,0,.14.02.22,0,.05.02.1.03.15.02.07.05.14.08.2.02.05.05.09.08.14.02.03.04.05.06.07.02.02.05.04.09.04.03.01.07.01.1,0,.03,0,.06-.01.09-.03.05-.03.1-.09.11-.15s.01-.14-.03-.19-.07-.11-.09-.17l.03.06c-.04-.08-.06-.17-.07-.26v.07s0-.1,0-.15c0-.03,0-.07-.02-.1-.01-.03-.03-.06-.05-.08-.02-.02-.05-.04-.08-.05-.03-.02-.06-.02-.1-.02-.06,0-.13.02-.18.07s-.07.11-.07.18h0Z"/>
      <path class="st0" d="M19.57,39.2l.09.5s.02.06.04.09c.02.03.04.05.07.06.03.02.06.03.09.03.03,0,.07,0,.1,0l.06-.03s.07-.05.09-.09l.03-.06s.01-.09,0-.13l-.09-.5s-.02-.06-.04-.09c-.02-.03-.04-.05-.07-.06-.03-.02-.06-.03-.09-.03-.03,0-.07,0-.1,0l-.06.03s-.07.05-.09.09l-.03.06s-.01.09,0,.13h0Z"/>
      <path class="st0" d="M23.32,38.9c-.02.07-.03.14-.03.21,0,.05,0,.1,0,.16,0,.07.02.14.04.21s.05.14.08.2c.02.03.04.05.06.07.02.02.05.04.09.04.03.01.07.01.1,0,.03,0,.06-.01.09-.03.05-.03.1-.09.11-.15v-.07s0-.09-.03-.13c0-.01-.01-.02-.02-.04l.03.06c-.03-.07-.05-.14-.06-.22v.07c0-.08,0-.15,0-.23v.07s0-.07.01-.1c.01-.03.01-.07,0-.1,0-.03-.01-.06-.03-.09-.02-.03-.04-.05-.06-.07-.02-.02-.05-.04-.09-.04-.06-.01-.14-.01-.19.03s-.1.09-.11.15h0Z"/>
      <path class="st0" d="M24.13,39.11s.01.06.02.08v-.07c0,.08,0,.16,0,.23v-.07c0,.08-.02.15-.05.22l.03-.06s-.01.03-.02.04c-.02.03-.03.06-.03.09,0,.03,0,.07,0,.1,0,.03.02.06.04.09.02.03.04.05.07.06.06.03.13.05.19.03.06-.02.12-.06.15-.11.03-.06.06-.13.08-.2s.03-.14.04-.21c0-.05,0-.1,0-.15,0-.07-.01-.14-.03-.21,0-.03-.02-.06-.04-.09-.02-.03-.04-.05-.07-.06-.03-.02-.06-.03-.09-.03-.03,0-.07,0-.1,0-.06.02-.12.06-.15.11l-.03.06s-.01.09,0,.13h0Z"/>
    </g>
  </g>
  <g>
    <path class="st2" d="M9.67,13.71c-.04,1.87.22,3.75.77,5.54.11.35.23.71.26,1.07.04.41-.04.82-.09,1.23-.34,2.67.3,5.61,2.29,7.42,2.25,2.04,5.59,2.21,8.63,2.09,1.69-.07,3.39-.18,5.02-.65s3.19-1.29,4.28-2.58c.44-.52.8-1.1,1.06-1.72.4-.96.71-2.19.66-3.24-.05-.9-.48-1.65-.33-2.61.11-.69.36-1.35.57-2.02.61-1.96.83-4.08.4-6.09-.13-.62-.35-1.27-.86-1.65-.82-.62-1.48.08-2.17.48-1.08.63-2.04,1.48-2.8,2.47-.25.33-.5.7-.89.85-.37.15-.79.07-1.18,0-1.39-.23-2.81-.32-4.22-.26-.98.04-2.78-.1-3.67.29-.11.05-.22.11-.34.09-.14-.02-.24-.14-.33-.24-1.29-1.6-2.75-3.19-4.69-3.88-1.91-.69-2.36,2.03-2.39,3.4Z"/>
    <path class="st4" d="M20.37,14.07c-.02.39-.02.78.01,1.17,0,.12.02.25.03.37,0,.03,0,.07.01.1,0,.03,0,.03,0,.04,0,0,0,0,0,.03.03.18.06.36.1.54.04.17.09.33.15.49.01.03.05.1.06.12.04.07.08.13.12.19-.07-.11,0-.01.05.04,0,0,0,0,0,0-.05-.05,0-.02.04.02,0,0,0,0,0,0,0,0,0,0,0,0,0,0,0,0,.02,0,.03,0,.11-.04.1-.03.01,0,.02-.01.04-.02,0,0,0,0,.01,0,.01-.01.04-.03.05-.04.03-.03.05-.06.08-.08,0,0,0,0,0,0,.04-.07.08-.13.12-.2,0-.01.05-.11.06-.12,0-.02.01-.03.02-.05.03-.09.07-.19.09-.28.05-.19.1-.38.13-.58.06-.32.09-.75.11-1.17,0-.17,0-.35,0-.52-.24,0-.47-.02-.71,0-.21,0-.45,0-.71,0Z"/>
    <path class="st4" d="M32.8,18.24c.6-1.91.88-3.84.39-5.82-.03-.14-.08-.29-.19-.38-.11-.09-.25-.1-.39-.1-1.11.04-2.85,2.04-3.41,2.92-.79,1.25-.95,3.11-2.32,3.97-.25.16-.55.26-.85.23-.84-.09-1-.9-.91-1.58.05-.34.12-.68.23-1,.11-.33.24-.67.42-.97.14-.24.32-.51.58-.65.05-.02.09-.02.14-.03.02-.07.04-.14.06-.2.04-.15.09-.3.14-.45-.07.05-.14.09-.22.12-.37.15-.79.07-1.18,0-.71-.12-1.44-.18-2.16-.22-.32,2.36-.66,4.76-.4,7.13.08.78.24,1.7.84,2.26.7.65,1.8.91,2.7,1.14,1.18.29,2.38.45,3.58.64.74.12,1.47.28,2.19.44.32-.89.55-1.92.51-2.83-.05-.9-.48-1.65-.33-2.61.11-.69.36-1.35.57-2.02Z"/>
    <path class="st4" d="M14.62,24.6c-.05-.28-.38-.48-1.16-.5-.74-.02-1.48,0-2.22.06-.13,0-.27.03-.36.13-.06.08-.07.19-.08.29-.02.31.64,3.01.87,2.87.32-.19.64-.37.95-.57.6-.39,2.11-1.59,1.99-2.28Z"/>
    <path class="st4" d="M14.37,20.58c-.43-1.49-2.97-.87-2.59.83.36,1.61,2.76,1.05,2.65-.5,0-.12-.03-.23-.06-.32Z"/>
    <path class="st4" d="M28.08,26.6c-.55-.2-1.14-.39-1.71-.47-.52-.07-1.33-.08-1.54.53-.12.36,0,.76.23,1.06s.54.52.85.73c.43.29.86.59,1.28.88.21.14.43.29.68.34.69.13,2.89-1.76,2.88-1.76-.83-.54-1.76-.98-2.67-1.31Z"/>
    <path class="st4" d="M10.7,20.32c0,.07,0,.13,0,.2.39-.84,1-1.59,1.56-2.32.44-.57.91-1.11,1.44-1.61.33-.31.75-.75,1.23-.83.2-.42,1-.33,1.04.26.02.26.15.71.28,1.04.15.4.35.79.6,1.14.17.24.38.5.64.62.16.08.3.09.5-.06.54-.41.66-1.29.71-1.93.08-.92,0-1.83-.05-2.75-.47.04-.91.11-1.23.25-.11.05-.22.11-.34.09-.14-.02-.24-.14-.33-.24-1.29-1.6-2.75-3.19-4.69-3.88-1.91-.69-2.36,2.03-2.39,3.4-.04,1.87.22,3.75.77,5.54.11.35.23.71.26,1.07Z"/>
    <path class="st3" d="M29.24,16.95c.23.28.49.55.81.71.1.05.24.09.32.09.09,0,.14,0,.24-.08.64-.46.72-1.54.72-2.28,0-.8-.14-1.79-.14-2.73-.83.67-1.64,1.66-1.99,2.21-.22.35-.39.75-.55,1.15.17.34.37.66.59.93Z"/>
    <path class="st3" d="M11.89,13.13s-.04.03-.06.04c-.02,0-.04.03-.06.04-.39.89-.4,1.91-.28,2.87.06.52.17,1.04.32,1.55.1.27.18.54.3.79.05-.07.11-.14.16-.21.44-.57.91-1.11,1.44-1.61.29-.27.64-.62,1.04-.76-.61-1.14-1.72-1.97-2.84-2.7Z"/>
    <path class="st4" d="M14.63,30.01c.83.33,1.74.49,2.59.48.27,0,.54.08.82.05.68-.09,1.03-.86,1.22-1.52.08-.27.15-.55.09-.82s-.28-.53-.56-.53c-.25,0-.45.19-.67.3s-.58.07-.61-.17c-.02-.11.04-.22.1-.31.26-.45,1.31-1.6.89-2.12-.29-.37-.88-.2-1.29.02-1.44.74-2.82,1.67-3.99,2.8-.14.14-.28.28-.4.43-.03.03-.05.07-.09.11,0,0-.01.02-.02.03.07.07.13.15.2.22.49.45,1.09.79,1.73,1.05Z"/>
    <g>
      <g>
        <circle class="st0" cx="16.27" cy="22.55" r=".98"/>
        <circle class="st0" cx="26.45" cy="22.55" r=".98"/>
        <ellipse class="st0" cx="21.36" cy="23.67" rx=".88" ry=".55"/>
      </g>
      <path class="st0" d="M15.61,15.52c3.54-1.45,7.54-1.57,11.17-.32.46.16.65-.57.2-.72-3.73-1.29-7.91-1.18-11.56.32-.19.08-.32.25-.26.46.05.18.27.34.46.26h0Z"/>
      <path class="st0" d="M11.28,10.6c1.62.7,3.11,1.67,4.38,2.89.36.35.71.72,1.04,1.1.13.15.4.14.53,0,.15-.15.13-.38,0-.53-1.18-1.38-2.61-2.55-4.19-3.43-.45-.25-.91-.48-1.38-.68-.19-.08-.4-.06-.51.13-.09.16-.05.43.13.51h0Z"/>
      <path class="st0" d="M10.09,10.78c-1.12,3.05-.99,6.47.29,9.44.08.19.35.23.51.13.19-.11.22-.33.13-.51-1.2-2.79-1.26-6.02-.22-8.86.17-.45-.56-.65-.72-.2h0Z"/>
      <path class="st0" d="M11.85,13.36c.2.11.39.23.58.36.05.03.09.07.14.1.04.03-.06-.05-.03-.02.01,0,.02.02.03.02.02.02.05.04.07.06.09.07.17.15.26.22.17.15.32.32.47.49.02.02.04.05.06.07,0,.01.07.09.03.03s.02.02.03.03c.02.03.04.05.06.08.07.09.13.19.19.28.14.22.26.44.36.68.04.08.14.15.22.17.09.02.21.01.29-.04s.15-.13.17-.22c.02-.1,0-.19-.04-.29-.4-.9-1.04-1.67-1.83-2.26-.21-.16-.43-.3-.67-.42-.17-.09-.42-.05-.51.13-.09.17-.05.41.13.51h0Z"/>
      <path class="st0" d="M12.54,17.34c-1.67,1.82-2.62,4.35-2.38,6.83s1.56,4.51,3.61,5.76c1.12.68,2.43,1.06,3.75,1.01.48-.02.48-.77,0-.75-2.09.07-4.11-1.03-5.33-2.71-1.32-1.81-1.6-4.13-.98-6.26.36-1.24,1-2.39,1.88-3.35.33-.36-.2-.89-.53-.53h0Z"/>
      <path class="st0" d="M26.63,14.7c.54-.53,1.05-1.09,1.6-1.62.44-.42.91-.79,1.38-1.16.42-.32.84-.64,1.29-.92.19-.12.4-.24.61-.31.05-.02.1-.03.16-.05s.05-.01.06-.01c.12,0,.1,0,.19.02.06.02.03,0,.04.01.03.01.06.03.09.05.05.03.08.06.15.13.09.1.18.25.25.41.17.36.27.81.33,1.22.13.78.15,1.59.16,2.38.02,1.71-.27,3.42-.95,5-.08.19-.05.4.13.51.16.09.43.05.51-.13,1.05-2.43,1.27-5.14.9-7.74-.12-.83-.34-1.95-1.13-2.42-.93-.56-2.07.37-2.79.91-.55.41-1.05.78-1.56,1.24-.69.62-1.31,1.32-1.98,1.97-.35.34.18.87.53.53h0Z"/>
      <path class="st0" d="M30.81,12.71c-.86.46-1.6,1.16-2.12,1.99-.14.22-.26.46-.37.7-.04.1-.07.18-.04.29.02.09.09.18.17.22.09.05.19.07.29.04.09-.03.19-.09.22-.17.09-.21.2-.41.31-.6.06-.1.12-.19.18-.29.03-.05.07-.09.1-.14.02-.02.03-.04.05-.06.03-.04-.05.06-.02.03.01-.01.02-.03.03-.04.14-.18.29-.35.46-.5.08-.08.17-.16.26-.24.04-.03.08-.07.12-.1.01,0,.09-.07.03-.03-.05.04-.01,0,0,0,.02-.01.03-.02.05-.04.21-.15.42-.29.65-.41.17-.09.24-.35.13-.51-.11-.18-.33-.23-.51-.13h0Z"/>
      <path class="st0" d="M29.97,17.87c1.52,1.66,2.36,3.95,2.17,6.2s-1.41,4.09-3.24,5.2c-1.02.62-2.17.95-3.37.91-.48-.02-.48.73,0,.75,2.34.07,4.54-1.16,5.93-3.01,1.48-1.97,1.79-4.57,1.11-6.91-.39-1.37-1.11-2.63-2.07-3.68-.33-.36-.86.17-.53.53h0Z"/>
    </g>
  </g>
</svg>