<?xml version="1.0" encoding="UTF-8"?>
<svg id="cat" xmlns="http://www.w3.org/2000/svg" version="1.1" viewBox="0 0 50.83 48.47">
  <!-- Generator: Adobe Illustrator 29.8.2, SVG Export Plug-In . SVG Version: 2.1.1 Build 3)  -->
  <defs>
    <style>
      .st0 {
        fill: #3eb8ea;
      }

      .st1 {
        fill: #fbba15;
      }

      .st2 {
        fill: #231f20;
      }

      .st3 {
        fill: #fff;
      }

      .st4 {
        fill: #f9bdbe;
      }
    </style>
  </defs>
  <g>
    <path class="st3" d="M35.72,26.86c-.59.7-.95,1.59-1.29,2.45-.41,1.06-.83,2.11-1.24,3.17-.16.42-.4.9-.84.97-.63-3.9-2.73-8.25-6.77-9.5-1.24-.38-2.63-.04-3.71.69-.95.65-1.33,1.56-1.93,2.46-.79,1.16-1.65,2.14-2.15,3.48-.55,1.47-.66,3.16-.04,4.6,1.32,3.09,5.19,3.47,8.08,3.32.97-.05,1.87-.17,2.79-.48.66-.22,1.3-.61,1.94-.81.17-.05.35,0,.52.03,2.36.51,5.09-.48,6.19-2.63.16-.31.29-.64.47-.94.17-.29.4-.55.61-.81.46-.58.85-1.21,1.24-1.84.24-.38.48-.77.57-1.2.1-.48.01-.97-.07-1.44-.14-.8-.33-1.67-.95-2.19-.85-.71-2.2-.44-3.03.29-.13.12-.26.25-.37.38Z"/>
    <g>
      <g>
        <path class="st2" d="M20.23,35.28c.02.62.08,1.25.21,1.85.11.53.37,1.07.88,1.32.27.13.55.18.84.19.27,0,.57-.02.83-.08.31-.07.58-.26.73-.54.13-.24.19-.51.23-.78.11-.7.14-1.41.06-2.12-.01-.1-.03-.19-.11-.27-.07-.07-.17-.11-.27-.11-.18,0-.4.17-.38.38.06.56.06,1.12,0,1.68,0,.04,0,.07-.01.11,0,.02,0,.03,0,.05,0,.06,0-.07,0,0-.01.07-.02.14-.03.21-.02.11-.04.23-.07.34,0,.03-.02.05-.03.08,0,.01,0,.02-.01.03-.01.04.02-.04.02-.04-.02.02-.02.05-.03.07-.01.03-.03.05-.05.08,0,0-.01.02-.02.03,0,0,.05-.06.02-.03-.02.02-.04.04-.06.06,0,0-.04.03,0,0,.05-.03,0,0-.01,0-.02.01-.07.03-.08.04.02-.03.06-.02.02,0-.01,0-.02,0-.04.01-.03,0-.06.02-.09.02-.03,0-.05.01-.08.02-.02,0-.03,0-.05,0-.05,0,0,0,.02,0-.05.02-.12.01-.17.02-.06,0-.11,0-.17.01-.11,0-.23,0-.34,0-.01,0-.02,0-.04,0-.04,0,.04,0,.04,0-.03,0-.06,0-.08-.01-.06-.01-.12-.03-.17-.05-.02,0-.04-.02-.07-.02,0,0,.08.04.02,0-.01,0-.02-.01-.03-.02-.05-.03-.1-.06-.14-.09-.04-.03.05.05.02.01,0,0-.02-.02-.03-.02-.02-.02-.04-.04-.06-.06-.02-.02-.03-.03-.05-.05,0-.01-.04-.05,0,0s0,0,0,0c-.03-.04-.05-.08-.08-.13-.01-.02-.03-.05-.04-.07,0-.01,0-.02-.01-.03.05.08.02.04,0,.01-.04-.1-.07-.21-.1-.32-.03-.13-.05-.25-.07-.38-.01-.08-.02-.15-.03-.23,0-.01-.01-.08,0-.03s0-.02,0-.03c0-.04-.01-.08-.01-.12-.04-.32-.06-.64-.07-.97,0-.2-.17-.38-.38-.38s-.38.16-.38.38h0Z"/>
        <path class="st2" d="M27.96,35.28c0,.29-.03.57-.06.86,0,.07-.01.13-.02.2,0,.02,0,.03,0,.05,0,.07,0,0,0,0,0,.04-.01.08-.02.12-.02.12-.04.24-.06.37-.02.11-.05.22-.08.33-.02.05-.03.1-.05.15,0,0-.02.04-.02.04,0,0,.03-.07.01-.04-.01.03-.03.06-.04.08-.02.04-.05.09-.08.13,0,.01-.02.03-.03.04,0,0,.05-.06.02-.03-.02.02-.04.05-.06.07-.02.02-.03.03-.05.05-.01.01-.02.02-.04.03-.03.03.03-.02.03-.02-.05.02-.09.06-.14.09-.01,0-.1.05-.04.02.05-.02-.03,0-.04.01-.05.02-.11.03-.16.04-.03,0-.06,0-.08.01-.04,0,.04,0,.04,0,0,0-.05,0-.05,0-.06,0-.11,0-.17,0-.12,0-.23,0-.35-.01-.05,0-.11-.01-.16-.02-.04,0,.04,0,.04,0-.02,0-.04,0-.05,0-.03,0-.07-.01-.1-.02-.03,0-.05-.01-.08-.02-.02,0-.03-.01-.05-.02,0,0-.05-.02,0,0s0,0,0,0c-.01,0-.03-.02-.04-.03-.01,0-.02-.01-.03-.02-.04-.02.05.05.02.02-.02-.02-.04-.04-.06-.06,0,0-.03-.04,0,0,.03.05,0,0,0,0-.03-.04-.05-.09-.08-.14-.02-.04.02.04.02.04,0-.01-.01-.03-.02-.04,0-.02-.01-.04-.02-.07-.02-.06-.03-.11-.04-.17-.03-.13-.05-.26-.07-.39,0-.04,0,.02,0,.02,0-.02,0-.04,0-.06,0-.04,0-.08-.01-.12,0-.08-.02-.16-.02-.24-.01-.16-.02-.31-.02-.47,0-.32.01-.64.05-.95.02-.2-.19-.38-.38-.38-.22,0-.35.17-.38.38-.07.61-.06,1.22.02,1.83s.17,1.28.79,1.54c.27.11.57.14.85.15.27.01.55,0,.81-.09.27-.09.52-.24.7-.47s.3-.49.37-.76c.09-.32.13-.66.17-.99.04-.35.07-.69.08-1.04,0-.2-.18-.38-.38-.38-.21,0-.37.16-.38.38h0Z"/>
        <path class="st2" d="M21.51,37.27c0,.07,0,.14.02.22,0,.05.02.1.03.15.02.07.05.14.08.2.02.05.05.09.08.14.02.03.04.05.06.07.02.02.05.04.09.04.03.01.07.01.1,0,.03,0,.06-.01.09-.03.05-.03.1-.09.11-.15s.01-.14-.03-.19-.07-.11-.09-.17l.03.06c-.04-.08-.06-.17-.07-.26v.07s0-.1,0-.15c0-.03,0-.07-.02-.1-.01-.03-.03-.06-.05-.08-.02-.02-.05-.04-.08-.05-.03-.02-.06-.02-.1-.02-.06,0-.13.02-.18.07s-.07.11-.07.18h0Z"/>
        <path class="st2" d="M22.34,37.5l.09.5s.02.06.04.09c.02.03.04.05.07.06.03.02.06.03.09.03.03,0,.07,0,.1,0l.06-.03s.07-.05.09-.09l.03-.06s.01-.09,0-.13l-.09-.5s-.02-.06-.04-.09c-.02-.03-.04-.05-.07-.06-.03-.02-.06-.03-.09-.03-.03,0-.07,0-.1,0l-.06.03s-.07.05-.09.09l-.03.06s-.01.09,0,.13h0Z"/>
        <path class="st2" d="M26.09,37.2c-.02.07-.03.14-.03.21,0,.05,0,.1,0,.16,0,.07.02.14.04.21s.05.14.08.2c.02.03.04.05.06.07.02.02.05.04.09.04.03.01.07.01.1,0,.03,0,.06-.01.09-.03.05-.03.1-.09.11-.15v-.07s0-.09-.03-.13c0-.01-.01-.02-.02-.04l.03.06c-.03-.07-.05-.14-.06-.22v.07c0-.08,0-.15,0-.23v.07s0-.07.01-.1c.01-.03.01-.07,0-.1,0-.03-.01-.06-.03-.09-.02-.03-.04-.05-.06-.07-.02-.02-.05-.04-.09-.04-.06-.01-.14-.01-.19.03s-.1.09-.11.15h0Z"/>
        <path class="st2" d="M26.9,37.42s.01.06.02.08v-.07c0,.08,0,.16,0,.23v-.07c0,.08-.02.15-.05.22l.03-.06s-.01.03-.02.04c-.02.03-.03.06-.03.09,0,.03,0,.07,0,.1,0,.03.02.06.04.09.02.03.04.05.07.06.06.03.13.05.19.03.06-.02.12-.06.15-.11.03-.06.06-.13.08-.2s.03-.14.04-.21c0-.05,0-.1,0-.15,0-.07-.01-.14-.03-.21,0-.03-.02-.06-.04-.09-.02-.03-.04-.05-.07-.06-.03-.02-.06-.03-.09-.03-.03,0-.07,0-.1,0-.06.02-.12.06-.15.11l-.03.06s-.01.09,0,.13h0Z"/>
      </g>
      <path class="st2" d="M19.86,26.84c-1.23,1.45-2.2,3.11-2.86,4.89-.19.51-.44,1.11-.23,1.65.07.19.25.32.46.26.18-.05.34-.27.26-.46-.1-.25-.03-.5.05-.75.09-.27.19-.54.29-.8.2-.51.43-1,.69-1.49.52-.99,1.14-1.92,1.87-2.77.13-.15.15-.38,0-.53-.13-.13-.4-.16-.53,0h0Z"/>
      <path class="st2" d="M17.19,35.09l.51-.48.15-.14s.06-.07.08-.12c.02-.04.03-.09.03-.14,0-.05,0-.1-.03-.14-.02-.05-.04-.09-.08-.12l-.08-.06c-.06-.03-.12-.05-.19-.05h-.1c-.06.03-.12.06-.17.11l-.51.48-.15.14s-.06.07-.08.12c-.02.04-.03.09-.03.14,0,.05,0,.1.03.14.02.05.04.09.08.12l.08.06c.06.03.12.05.19.05h.1c.06-.03.12-.06.17-.11h0Z"/>
      <path class="st2" d="M17.68,35.08c-.1.13-.19.27-.26.41-.09.17-.16.35-.22.54-.03.09-.05.18-.07.27-.02.05-.02.1,0,.15,0,.05.02.1.04.14.05.08.13.15.22.17.1.02.2.02.29-.04.08-.05.15-.13.17-.22.04-.19.09-.37.16-.54l-.04.09c.09-.21.2-.41.34-.59.03-.04.04-.09.04-.14.01-.05,0-.1,0-.15-.02-.09-.09-.18-.17-.22-.09-.05-.19-.07-.29-.04l-.09.04c-.06.03-.1.08-.13.13h0Z"/>
      <path class="st2" d="M18.14,36.64c.16.27.36.52.6.73.27.23.56.4.89.52.15.06.31.1.47.13.1.02.2.02.29-.04.08-.05.15-.13.17-.22.02-.1.02-.2-.04-.29-.05-.08-.13-.16-.22-.17-.19-.03-.38-.09-.55-.16l.09.04c-.2-.08-.38-.19-.55-.32l.08.06c-.17-.13-.32-.28-.45-.44l.06.08c-.07-.09-.13-.18-.18-.27-.05-.08-.13-.15-.22-.17s-.21-.01-.29.04c-.17.11-.24.33-.13.51h0Z"/>
      <path class="st2" d="M29.59,26.98c.35.58.68,1.17,1,1.77.16.31.33.62.48.94.14.27.29.55.38.84.08.25.12.5.19.75.08.31.16.61.22.92.11.61.12,1.24-.04,1.84-.12.47.6.67.72.2.18-.68.17-1.38.07-2.08-.05-.32-.12-.64-.21-.96-.07-.27-.12-.55-.21-.82-.1-.33-.26-.63-.41-.94s-.32-.63-.48-.94c-.34-.64-.69-1.27-1.07-1.9-.25-.41-.9-.04-.65.38h0Z"/>
      <path class="st2" d="M31.22,35.24s.04.07.06.1c.04.05.08.11.13.16s.1.09.16.13c.03.02.06.04.1.06.05.02.1.04.14.06.02,0,.04.01.06.02.05.02.1.02.15,0,.05,0,.1-.02.14-.04.04-.02.08-.06.11-.1.03-.04.06-.08.07-.13v-.1c.01-.07,0-.13-.04-.19l-.06-.08s-.1-.08-.17-.1c-.03,0-.05-.02-.08-.03l.09.04c-.05-.02-.11-.05-.15-.09l.08.06s-.09-.08-.13-.13l.06.08s-.05-.07-.07-.11c-.02-.04-.06-.08-.1-.11-.04-.03-.08-.06-.13-.07-.05-.02-.1-.02-.15,0-.05,0-.1.02-.14.04l-.08.06s-.08.1-.1.17v.1c-.01.07,0,.13.04.19h0Z"/>
      <path class="st2" d="M30.79,35.95c-.02.11-.06.22-.1.33l.04-.09c-.07.16-.15.3-.26.44l.06-.08c-.11.14-.24.27-.38.38l.08-.06c-.15.11-.31.21-.48.28l.09-.04c-.17.07-.34.12-.52.14h.1c-.16,0-.32,0-.48-.01-.09-.01-.21.05-.27.11-.07.07-.11.17-.11.27s.04.2.11.27l.08.06c.06.03.12.05.19.05.45.06.91-.05,1.32-.26s.75-.52.98-.9c.13-.21.23-.45.29-.7.02-.1.01-.2-.04-.29-.05-.08-.13-.15-.22-.17-.19-.04-.42.06-.46.26h0Z"/>
      <path class="st2" d="M32.24,33.81c1.75-1.01,2.06-3.14,2.7-4.87.18-.5.41-.99.74-1.41.12-.16.16-.37,0-.53-.13-.13-.41-.16-.53,0-.63.81-.96,1.77-1.26,2.74-.27.86-.53,1.73-1.04,2.48-.26.38-.59.71-.99.94s-.04.89.38.65h0Z"/>
      <path class="st2" d="M36.35,26.6s.05-.04.07-.06c.02-.02.08-.06.03-.02.06-.04.12-.09.19-.13.11-.07.23-.13.36-.19.04-.02-.01,0-.02,0,.02,0,.04-.02.06-.02.03-.01.06-.02.09-.03.07-.02.13-.04.2-.06.06-.02.13-.03.19-.04.04,0,.07-.01.11-.02-.07.01.02,0,.04,0,.13-.01.27-.02.4,0,.04,0,.07,0,.11,0,.01,0,.1.01.06,0s.04,0,.06,0c.04,0,.07.01.11.02.13.03.26.07.39.12.03.01.06.02.09.03-.06-.03,0,0,.03.01.06.03.12.06.18.09.07.04.14.08.2.12.03.02.06.04.09.06.01,0,.03.02.04.03-.03-.02-.03-.02,0,0,.12.1.23.21.34.33.13.15.4.14.53,0,.14-.16.14-.37,0-.53-.85-.97-2.28-1.33-3.48-.85-.36.15-.69.34-.98.6-.15.13-.14.4,0,.53.16.14.37.14.53,0h0Z"/>
      <path class="st2" d="M39.06,27.97c.1.06.2.12.29.19l-.08-.06c.15.11.28.24.39.39l-.06-.08c.12.16.22.33.3.51l-.04-.09c.07.17.12.36.15.54v-.1c0,.06,0,.12,0,.17,0,.1.04.19.11.27.07.07.17.11.27.11s.2-.04.27-.11.11-.17.11-.27c-.03-.68-.34-1.34-.85-1.79-.15-.13-.31-.25-.48-.34-.09-.05-.19-.06-.29-.04-.09.02-.18.09-.22.17-.09.17-.05.41.13.51h0Z"/>
      <path class="st2" d="M31.51,37.5c1.49.24,3.05-.07,4.33-.89.36-.23.7-.5,1-.8.14-.14.14-.39,0-.53s-.39-.14-.53,0c-.26.25-.47.43-.75.62s-.58.35-.88.49c-.02,0-.04.02-.05.02,0,0,.04-.02,0,0-.04.02-.08.03-.13.05-.08.03-.16.06-.24.09-.17.06-.33.1-.5.15s-.33.07-.5.1c-.07.01.01,0-.05,0-.04,0-.08,0-.12.01-.09,0-.18.02-.27.02-.19.01-.39.01-.58,0-.09,0-.18-.01-.27-.02-.05,0-.1-.01-.15-.02,0,0,.05,0,0,0-.03,0-.06,0-.1-.02-.19-.03-.41.05-.46.26-.04.18.05.43.26.46h0Z"/>
      <path class="st2" d="M36.31,34.54c.07.08.16.15.24.21.06.05.13.09.2.12.17.09.35.15.53.18.12.02.24.03.36.02.1,0,.19-.04.27-.11.04-.03.06-.07.08-.12.02-.04.03-.09.03-.14,0-.1-.04-.2-.11-.27s-.17-.12-.27-.11c-.08,0-.16,0-.24,0h.1c-.12,0-.24-.04-.36-.08l.09.04c-.11-.05-.21-.1-.3-.17l.08.06c-.06-.04-.11-.09-.16-.15-.06-.07-.17-.11-.27-.11s-.2.04-.27.11-.11.17-.11.27.04.19.11.27h0Z"/>
      <path class="st2" d="M37.8,33.73c1.11-.81,1.76-2.15,1.73-3.52,0-.38-.07-.77-.19-1.14-.06-.19-.26-.33-.46-.26-.19.06-.33.26-.26.46.05.14.09.29.11.44,0,.03.01.07.02.1,0,.01,0,.03,0,.04-.01-.08,0-.03,0,0,0,.08.02.15.02.23,0,.15,0,.3,0,.45,0,.07-.01.14-.02.21,0,.01-.01.08,0,.03,0-.05,0,0,0,.01,0,.04-.01.08-.02.12-.03.15-.06.3-.11.44-.02.07-.04.13-.07.2-.01.03-.02.07-.04.1,0,.02-.02.04-.02.06-.02.05.04-.08,0,0-.12.27-.27.52-.45.77-.02.03.01-.01.01-.02-.02.02-.03.04-.05.06-.03.03-.05.06-.08.09-.06.06-.11.13-.18.19-.06.06-.12.11-.18.16-.03.03-.07.06-.1.09-.03.03.01,0,.02-.01-.02.02-.05.04-.07.05-.16.12-.25.33-.13.51.1.16.34.26.51.13h0Z"/>
    </g>
  </g>
  <g>
    <path class="st3" d="M12.44,12.01c-.02,1.12.06,2.25.25,3.35.13.77.95,2.37.52,3.02-.34.53-.76,1.02-1.04,1.59s-.42,1.25-.17,1.83c.2-.07.4-.14.61-.21-.33,1.06-.67,2.19-.37,3.26.12.44.35.85.67,1.18.26-.06.53-.12.79-.18.1,1.25.84,2.43,1.91,3.08.23-.3.39-.66.46-1.03.19.84,1.09,1.31,1.91,1.55,1.75.52,3.6.53,5.42.49,2.02-.05,4.05-.16,6.04-.49.99-.17,2.05-.45,2.63-1.26.02.28.47.2.69.02,1.04-.84,1.82-1.99,2.23-3.26-.15.2.14.49.38.44s.4-.3.5-.52c.29-.64.42-1.35.37-2.05-.06.44.62.68.96.39s.36-.81.24-1.24c-.31-1.13-1.34-1.97-1.59-3.11-.22-.97.16-1.96.39-2.93.44-1.84.63-5.81-1.12-7.12-.82-.62-1.48.08-2.17.48-1.08.63-2.04,1.48-2.8,2.47-.25.33-.5.7-.89.85-.37.15-.79.07-1.18,0-1.39-.23-2.81-.32-4.22-.26-.98.04-2.78-.1-3.67.29-.11.05-.22.11-.34.09-.14-.02-.24-.14-.33-.24-1.29-1.6-2.75-3.19-4.69-3.88-1.91-.69-2.36,2.03-2.39,3.4Z"/>
    <path class="st4" d="M34.48,11.31s-.07-.04-.1-.06c-.22-.07-.44-.05-.68.04-.42.16-.78.47-1.09.78-.35.34-.66.72-.93,1.13-.13.19-.25.39-.37.6-.04.07-.08.14-.11.22.04.01.07.02.11.05.35.24.85.02,1.23.24.35.21.4.64.49,1,.05.23.05.3.18.44.2.22.43.43.66.63.02.02.04.04.06.05.09-.16.17-.33.23-.48.41-1.06.64-2.24.61-3.38-.01-.45-.08-.92-.27-1.26,0,0,0-.01-.01-.02Z"/>
    <path class="st4" d="M16.82,13.67c-.1-.74-.74-1.48-1.27-1.96-.24-.21-.54-.43-.86-.57-.25.07-.45.17-.62.32-.15.41-.21.86-.23,1.29-.04.85.04,1.7.22,2.53.08.37.18.75.29,1.11.07.23.16.51.28.75,0,0,0,0,0,0,.01-.15.07-.29.22-.38.34-.2.62-.46.9-.73-.12-.56-.05-1.11.39-1.54.2-.19.38-.29.53-.44.14-.13.17-.15.14-.38Z"/>
    <g>
      <g>
        <g>
          <circle class="st1" cx="19.72" cy="20.85" r="1.53"/>
          <circle class="st0" cx="29.03" cy="20.85" r="1.56"/>
          <circle class="st2" cx="19.72" cy="20.85" r=".98"/>
          <circle class="st2" cx="29.03" cy="20.85" r=".98"/>
          <ellipse class="st2" cx="24.13" cy="21.97" rx=".88" ry=".55"/>
        </g>
        <path class="st2" d="M18.37,13.83c3.54-1.45,7.54-1.57,11.17-.32.46.16.65-.57.2-.72-3.73-1.29-7.91-1.18-11.56.32-.19.08-.32.25-.26.46.05.18.27.34.46.26h0Z"/>
        <path class="st2" d="M14.05,8.9c1.62.7,3.11,1.67,4.38,2.89.36.35.71.72,1.04,1.1.13.15.4.14.53,0,.15-.15.13-.38,0-.53-1.18-1.38-2.61-2.55-4.19-3.43-.45-.25-.91-.48-1.38-.68-.19-.08-.4-.06-.51.13-.09.16-.05.43.13.51h0Z"/>
        <path class="st2" d="M12.86,9.08c-.51,1.39-.81,2.87-.84,4.35-.02,1.18.14,2.38.63,3.45.08.18.35.23.51.13.19-.11.22-.33.13-.51-.43-.95-.55-2.09-.52-3.14.03-1.4.33-2.78.81-4.09.07-.19-.08-.41-.26-.46-.21-.06-.39.07-.46.26h0Z"/>
        <path class="st2" d="M14.62,11.66c.13.07.26.14.38.22.05.03.1.07.15.1.03.02.06.04.09.06.01,0,.12.09.07.05.22.17.43.36.62.57.09.1.18.2.26.3,0,0,.07.1.03.04,0,.01.02.03.03.04.02.03.04.05.06.08.08.12.16.24.23.37.04.07.08.14.11.21,0,.02.02.04.03.06.03.07-.03-.08,0-.01.01.04.03.08.04.11.01.04.02.07.03.11,0,.01,0,.03,0,.04.01.05-.02.02,0-.04,0,.02,0,.07,0,.09-.02-.08.02-.09,0-.04-.01.03-.03.06.02-.04-.04.09.06-.06,0,0,.09-.08.06-.04.03-.03-.05.02.05-.02.05-.02,0,0-.04.01-.05.01-.06.02.1,0,.03,0-.02,0-.04,0-.06,0-.01,0-.11,0-.05,0,.08,0-.05-.01-.05-.01-.04,0-.08-.02-.12-.02-.1-.02-.2-.03-.3-.04-.18,0-.36.04-.51.13-.29.19-.45.54-.46.89,0,.38.18.72.36,1.04.09.16.3.22.47.15.16-.07.29-.27.22-.44-.02-.06-.05-.12-.07-.19-.07-.18-.25-.33-.46-.26-.18.06-.34.27-.26.46.02.06.05.12.07.19l.69-.29c-.04-.07-.08-.14-.11-.21-.02-.03-.03-.07-.05-.11-.05-.11.02.06-.02-.05-.02-.06-.04-.12-.06-.18-.03-.1,0,.06,0-.05,0-.04,0-.08,0-.12,0,.09,0,0,0-.02,0-.03.02-.06.03-.09-.02.07-.01.03,0,0,.02-.02.03-.05.05-.08-.05.07,0,0,.02-.01.06-.06-.06.03.01-.01.08-.05-.08.02.02,0,.05,0,.05-.01.02,0,.02,0,.04,0,.06,0,.03,0,.07,0,.1,0-.07,0,.06.01.06.01.09.02.19.03.28.05.11.01.22.01.34-.01.22-.05.41-.21.46-.43.1-.36-.08-.75-.25-1.06-.18-.34-.41-.65-.66-.93-.44-.5-.97-.92-1.56-1.23-.17-.09-.42-.05-.51.13s-.05.41.13.51h0Z"/>
        <path class="st2" d="M33.58,11.01c-.3.16-.58.35-.84.56-.36.28-.71.57-1.01.91-.28.32-.55.68-.66,1.1-.05.2-.07.42-.01.63.1.38.59.38.89.31.12-.03.23-.07.34-.1.03,0,.05-.01.08-.02.02,0,.12-.02.05-.01s.01,0,.03,0c.01,0,.02,0,.04,0,.03,0-.1-.02-.04,0,0,0,.02,0,.03,0,.06.01-.02,0-.03-.01,0,0,.03.02.03.02.04.02-.02-.01-.03-.02,0,0,.03.03.03.03-.02,0-.04-.08-.02-.01.01.04-.01-.04-.02-.04s.01.05.02.06c0,.01.01.07,0,0-.01-.06,0,.01,0,.02,0,.03,0,.07,0,.1,0,.02,0,.03,0,.05,0-.02.01-.08,0-.03,0,.04-.01.08-.02.12-.04.19.06.41.26.46.19.04.42-.06.46-.26.06-.28.09-.57-.04-.84s-.39-.41-.67-.41c-.2,0-.4.07-.59.13-.04.01-.08.02-.12.03-.02,0-.04,0-.06.01-.1.02.07,0,0,0-.02,0-.04,0-.06,0-.05,0-.06-.02.03,0-.02,0-.04,0-.05-.01-.06-.01.09.05,0,0l.17.22s0-.05-.02-.07c.03.1,0,.09,0,.06,0-.01,0-.03,0-.04,0-.02,0-.04,0-.06,0-.02,0-.03,0-.05,0-.04.03-.07,0,.04.01-.04.02-.1.03-.14,0-.03.02-.05.03-.08,0-.01,0-.02.01-.03.02-.06,0,0-.01.03.06-.11.11-.22.18-.32.03-.05.07-.1.1-.15.02-.02.07-.07,0,.01,0-.01.02-.02.03-.03.02-.03.05-.06.07-.09.18-.21.38-.41.59-.59.1-.09.21-.18.32-.27,0,0,.06-.05.01,0s0,0,.01,0c.02-.02.05-.04.07-.05.05-.04.11-.08.17-.12.19-.13.38-.26.59-.37.17-.09.24-.35.13-.51-.11-.18-.33-.23-.51-.13h0Z"/>
      </g>
      <path class="st2" d="M15.13,15.95c-1,.48-1.77,1.43-2.38,2.33-.33.5-.63,1.02-.89,1.57-.23.49-.49,1.03-.57,1.56-.06.39.15.75.54.87s.73-.05,1.09-.18l-.42-.55c-.71,1.03-.96,2.32-.71,3.54.1.47.82.27.72-.2-.21-1.03.03-2.1.63-2.96.18-.26-.12-.66-.42-.55-.17.06-.36.17-.54.19-.05,0-.1,0-.14-.01-.03-.01,0,0,0,.02-.03-.11.07-.3.1-.4.04-.12.08-.24.13-.36.22-.58.51-1.13.82-1.66.59-.98,1.36-2.05,2.42-2.56.43-.21.05-.86-.38-.65h0Z"/>
      <path class="st2" d="M12.86,24.58c-.33.62-.5,1.34-.45,2.04,0,.1.04.19.11.27.07.07.17.11.27.11s.2-.04.27-.11.12-.17.11-.27c-.02-.23,0-.46.02-.69v.1c.03-.3.11-.6.23-.88l-.04.09c.04-.1.09-.19.13-.28s.06-.19.04-.29c-.02-.09-.09-.18-.17-.22-.17-.09-.41-.05-.51.13h0Z"/>
      <path class="st2" d="M13.67,25.72c-.15.97.1,1.96.74,2.72.3.35.75.63,1.23.54s.84-.59.7-1.07-.83-.27-.72.2c.24,1.04,1.27,1.62,2.25,1.76.61.09,1.24.1,1.86.13s1.26.06,1.89.09c.48.02.48-.73,0-.75-1.12-.05-2.24-.06-3.35-.17-.78-.08-1.72-.4-1.92-1.26l-.72.2c.04.13-.2.16-.31.11-.24-.1-.42-.36-.55-.58-.31-.51-.45-1.13-.36-1.72.03-.2-.05-.4-.26-.46-.18-.05-.43.06-.46.26h0Z"/>
      <path class="st2" d="M33.88,16.98c1.69,1.43,2.88,3.47,3.2,5.67.01.1.03.21.01.31,0,.02-.02.09-.03.09.02,0,0-.02-.01-.01-.09.01-.27-.09-.36-.14-.08-.04-.18-.09-.21-.19l-.72.2c.22.63.21,1.28-.04,1.9-.08.19.08.41.26.46.21.06.39-.07.46-.26.29-.73.31-1.56.04-2.3-.16-.45-.88-.26-.72.2.11.33.35.55.66.69.33.15.72.3,1.06.09.6-.37.34-1.3.22-1.84-.3-1.33-.88-2.6-1.69-3.69-.46-.63-.99-1.2-1.59-1.7-.15-.13-.38-.15-.53,0-.13.13-.16.4,0,.53h0Z"/>
      <path class="st2" d="M29.74,13.06c.21-.4.42-.8.68-1.18.05-.07.1-.14.15-.21.01-.02.03-.04.04-.06-.04.05,0,0,0,0,.03-.04.07-.08.1-.12.12-.15.25-.29.39-.43s.27-.26.41-.38c.07-.06.14-.11.2-.17.05-.04-.04.03,0,0,.02-.01.04-.03.06-.04.04-.03.09-.06.13-.09.31-.22.64-.41.99-.58.05-.02.1-.04.14-.07.02,0,.04-.02.06-.03.06-.03-.01,0,.02-.01.1-.04.2-.08.3-.11.2-.07.41-.14.62-.19.19-.05.32-.27.26-.46s-.26-.31-.46-.26c-1.59.4-3.01,1.37-3.97,2.7-.31.42-.55.88-.79,1.34-.09.17-.05.42.13.51.17.09.42.05.51-.13h0Z"/>
      <path class="st2" d="M34.75,8.1l-.32,1.2c-.02.09-.01.2.04.29.05.08.13.15.22.17.1.02.2.02.29-.04s.15-.13.17-.22l.32-1.2c.02-.09.01-.2-.04-.29-.05-.08-.13-.15-.22-.17-.1-.02-.2-.02-.29.04s-.15.13-.17.22h0Z"/>
      <path class="st2" d="M36.03,8.93l-.33.33-.09.09s-.06.07-.08.12c-.02.04-.03.09-.03.14,0,.05,0,.1.03.14.02.05.04.09.08.12l.08.06c.06.03.12.05.19.05h.1c.06-.03.12-.06.17-.11l.33-.33.09-.09s.06-.07.08-.12c.02-.04.03-.09.03-.14,0-.05,0-.1-.03-.14-.02-.05-.04-.09-.08-.12l-.08-.06c-.06-.03-.12-.05-.19-.05h-.1c-.06.03-.12.06-.17.11h0Z"/>
      <path class="st2" d="M36,10.76c.41,2.14.24,4.36-.45,6.42-.06.19.07.41.26.46.2.06.4-.07.46-.26.73-2.19.88-4.55.45-6.82-.04-.2-.28-.31-.46-.26-.21.06-.3.26-.26.46h0Z"/>
      <path class="st2" d="M26.76,30.06c1.45.33,3,.12,4.32-.58.37-.2.72-.44,1.05-.71.16-.13.13-.4,0-.53-.15-.15-.37-.13-.53,0-.03.03-.06.05-.09.08,0,0-.08.06-.05.04-.07.05-.14.1-.21.15-.14.1-.29.19-.44.27-.3.17-.55.28-.85.38s-.65.19-.98.25c-.04,0-.08.01-.12.02.05,0-.04,0-.06,0-.09,0-.17.02-.26.02-.17.01-.33.02-.5.01-.41,0-.7-.04-1.08-.13-.19-.04-.41.06-.46.26-.04.19.06.41.26.46h0Z"/>
      <path class="st2" d="M34.72,24.7c0,.08.01.17,0,.25,0,.02,0,.05,0,.07,0,0,0,.06,0,.02,0-.05,0,.03,0,.04,0,.02,0,.05-.01.07-.02.08-.04.16-.07.24-.01.04-.03.08-.04.12,0,.02-.02.04-.03.07s-.02.05,0,.01c-.13.3-.29.58-.47.86-.08.13-.17.26-.27.38.04-.06-.02.02-.03.04-.02.03-.05.06-.07.09-.05.06-.1.12-.16.18-.21.24-.44.46-.68.66-.07.06-.13.11-.2.16.06-.05-.03.03-.05.04-.03.03-.07.05-.1.08-.15.11-.3.2-.46.3-.17.1-.24.34-.13.51s.33.24.51.13c1.16-.69,2.16-1.74,2.72-2.98.19-.42.33-.87.29-1.33-.02-.19-.16-.38-.38-.38-.19,0-.39.17-.38.38h0Z"/>
    </g>
  </g>
</svg>