<?xml version="1.0" encoding="UTF-8"?>
<svg id="cat" xmlns="http://www.w3.org/2000/svg" version="1.1" viewBox="0 0 50.83 48.47">
  <!-- Generator: Adobe Illustrator 29.8.2, SVG Export Plug-In . SVG Version: 2.1.1 Build 3)  -->
  <defs>
    <style>
      .st0 {
        fill: #231f20;
      }

      .st1 {
        fill: #fff;
      }

      .st2 {
        fill: #f9bdbe;
      }
    </style>
  </defs>
  <g>
    <path class="st1" d="M32.31,27.5c-1.13,1.32-1.37,2.52-1.68,4.2-.1.51-.19,1.13-.5,1.57-.09.13-1.08.97-1.17.76-.33-.81-.18-1.72-.08-2.56.11-.9-.22-1.81-.74-2.55s-1.21-1.35-1.89-1.95c-.1-.09-.2-.17-.3-.26-2.82-2.47-6.85-3.25-9.64-.2-.88.97-1.5,2.14-2.11,3.3-.28.54-.57,1.08-.69,1.68-.13.66-.04,1.33.05,1.99.11.85.22,1.71.55,2.5,1.21,2.93,5.57,3.31,8.29,3.17.97-.05,1.87-.17,2.79-.48.66-.22,1.3-.61,1.94-.81.17-.05.35,0,.52.03,2.36.51,5.09-.48,6.19-2.63.16-.31.29-.64.47-.94.17-.29.4-.55.61-.81.96-1.22,2.02-2.6.98-4.16-.05-.07-.1-.15-.12-.24-.02-.08,0-.16.02-.24.14-.69.2-1.4.18-2.11-.01-.37-.06-.76-.31-1.03-.03-.03-.06-.06-.09-.06-.05-.01-.1.01-.15.04-.87.47-2,.76-2.75,1.42-.13.12-.26.25-.37.38Z"/>
    <g>
      <g>
        <g>
          <path class="st0" d="M16.82,35.92c.02.62.08,1.25.21,1.85.11.53.37,1.07.88,1.32.27.13.55.18.84.19.27,0,.57-.02.83-.08.31-.07.58-.26.73-.54.13-.24.19-.51.23-.78.11-.7.14-1.41.06-2.12-.01-.1-.03-.19-.11-.27-.07-.07-.17-.11-.27-.11-.18,0-.4.17-.38.38.06.56.06,1.12,0,1.68,0,.04,0,.07-.01.11,0,.02,0,.03,0,.05,0,.06,0-.07,0,0-.01.07-.02.14-.03.21-.02.11-.04.23-.07.34,0,.03-.02.05-.03.08,0,.01,0,.02-.01.03-.01.04.02-.04.02-.04-.02.02-.02.05-.03.07-.01.03-.03.05-.05.08,0,0-.01.02-.02.03,0,0,.05-.06.02-.03-.02.02-.04.04-.06.06,0,0-.04.03,0,0,.05-.03,0,0-.01,0-.02.01-.07.03-.08.04.02-.03.06-.02.02,0-.01,0-.02,0-.04.01-.03,0-.06.02-.09.02-.03,0-.05.01-.08.02-.02,0-.03,0-.05,0-.05,0,0,0,.02,0-.05.02-.12.01-.17.02-.06,0-.11,0-.17.01-.11,0-.23,0-.34,0-.01,0-.02,0-.04,0-.04,0,.04,0,.04,0-.03,0-.06,0-.08-.01-.06-.01-.12-.03-.17-.05-.02,0-.04-.02-.07-.02,0,0,.08.04.02,0-.01,0-.02-.01-.03-.02-.05-.03-.1-.06-.14-.09-.04-.03.05.05.02.01,0,0-.02-.02-.03-.02-.02-.02-.04-.04-.06-.06-.02-.02-.03-.03-.05-.05,0-.01-.04-.05,0,0s0,0,0,0c-.03-.04-.05-.08-.08-.13-.01-.02-.03-.05-.04-.07,0-.01,0-.02-.01-.03.05.08.02.04,0,.01-.04-.1-.07-.21-.1-.32-.03-.13-.05-.25-.07-.38-.01-.08-.02-.15-.03-.23,0-.01-.01-.08,0-.03s0-.02,0-.03c0-.04-.01-.08-.01-.12-.04-.32-.06-.64-.07-.97,0-.2-.17-.38-.38-.38s-.38.16-.38.38h0Z"/>
          <path class="st0" d="M24.55,35.92c0,.29-.03.57-.06.86,0,.07-.01.13-.02.2,0,.02,0,.03,0,.05,0,.07,0,0,0,0,0,.04-.01.08-.02.12-.02.12-.04.24-.06.37-.02.11-.05.22-.08.33-.02.05-.03.1-.05.15,0,0-.02.04-.02.04,0,0,.03-.07.01-.04-.01.03-.03.06-.04.08-.02.04-.05.09-.08.13,0,.01-.02.03-.03.04,0,0,.05-.06.02-.03-.02.02-.04.05-.06.07-.02.02-.03.03-.05.05-.01.01-.02.02-.04.03-.03.03.03-.02.03-.02-.05.02-.09.06-.14.09-.01,0-.1.05-.04.02.05-.02-.03,0-.04.01-.05.02-.11.03-.16.04-.03,0-.06,0-.08.01-.04,0,.04,0,.04,0,0,0-.05,0-.05,0-.06,0-.11,0-.17,0-.12,0-.23,0-.35-.01-.05,0-.11-.01-.16-.02-.04,0,.04,0,.04,0-.02,0-.04,0-.05,0-.03,0-.07-.01-.1-.02-.03,0-.05-.01-.08-.02-.02,0-.03-.01-.05-.02,0,0-.05-.02,0,0s0,0,0,0c-.01,0-.03-.02-.04-.03-.01,0-.02-.01-.03-.02-.04-.02.05.05.02.02-.02-.02-.04-.04-.06-.06,0,0-.03-.04,0,0,.03.05,0,0,0,0-.03-.04-.05-.09-.08-.14-.02-.04.02.04.02.04,0-.01-.01-.03-.02-.04,0-.02-.01-.04-.02-.07-.02-.06-.03-.11-.04-.17-.03-.13-.05-.26-.07-.39,0-.04,0,.02,0,.02,0-.02,0-.04,0-.06,0-.04,0-.08-.01-.12,0-.08-.02-.16-.02-.24-.01-.16-.02-.31-.02-.47,0-.32.01-.64.05-.95.02-.2-.19-.38-.38-.38-.22,0-.35.17-.38.38-.07.61-.06,1.22.02,1.83s.17,1.28.79,1.54c.27.11.57.14.85.15.27.01.55,0,.81-.09.27-.09.52-.24.7-.47s.3-.49.37-.76c.09-.32.13-.66.17-.99.04-.35.07-.69.08-1.04,0-.2-.18-.38-.38-.38-.21,0-.37.16-.38.38h0Z"/>
          <path class="st0" d="M18.1,37.91c0,.07,0,.14.02.22,0,.05.02.1.03.15.02.07.05.14.08.2.02.05.05.09.08.14.02.03.04.05.06.07.02.02.05.04.09.04.03.01.07.01.1,0,.03,0,.06-.01.09-.03.05-.03.1-.09.11-.15s.01-.14-.03-.19-.07-.11-.09-.17l.03.06c-.04-.08-.06-.17-.07-.26v.07s0-.1,0-.15c0-.03,0-.07-.02-.1-.01-.03-.03-.06-.05-.08-.02-.02-.05-.04-.08-.05-.03-.02-.06-.02-.1-.02-.06,0-.13.02-.18.07s-.07.11-.07.18h0Z"/>
          <path class="st0" d="M18.93,38.14l.09.5s.02.06.04.09c.02.03.04.05.07.06.03.02.06.03.09.03.03,0,.07,0,.1,0l.06-.03s.07-.05.09-.09l.03-.06s.01-.09,0-.13l-.09-.5s-.02-.06-.04-.09c-.02-.03-.04-.05-.07-.06-.03-.02-.06-.03-.09-.03-.03,0-.07,0-.1,0l-.06.03s-.07.05-.09.09l-.03.06s-.01.09,0,.13h0Z"/>
          <path class="st0" d="M22.68,37.84c-.02.07-.03.14-.03.21,0,.05,0,.1,0,.16,0,.07.02.14.04.21s.05.14.08.2c.02.03.04.05.06.07.02.02.05.04.09.04.03.01.07.01.1,0,.03,0,.06-.01.09-.03.05-.03.1-.09.11-.15v-.07s0-.09-.03-.13c0-.01-.01-.02-.02-.04l.03.06c-.03-.07-.05-.14-.06-.22v.07c0-.08,0-.15,0-.23v.07s0-.07.01-.1c.01-.03.01-.07,0-.1,0-.03-.01-.06-.03-.09-.02-.03-.04-.05-.06-.07-.02-.02-.05-.04-.09-.04-.06-.01-.14-.01-.19.03s-.1.09-.11.15h0Z"/>
          <path class="st0" d="M23.49,38.06s.01.06.02.08v-.07c0,.08,0,.16,0,.23v-.07c0,.08-.02.15-.05.22l.03-.06s-.01.03-.02.04c-.02.03-.03.06-.03.09,0,.03,0,.07,0,.1,0,.03.02.06.04.09.02.03.04.05.07.06.06.03.13.05.19.03.06-.02.12-.06.15-.11.03-.06.06-.13.08-.2s.03-.14.04-.21c0-.05,0-.1,0-.15,0-.07-.01-.14-.03-.21,0-.03-.02-.06-.04-.09-.02-.03-.04-.05-.07-.06-.03-.02-.06-.03-.09-.03-.03,0-.07,0-.1,0-.06.02-.12.06-.15.11l-.03.06s-.01.09,0,.13h0Z"/>
        </g>
        <path class="st0" d="M16.77,25.72c-1.36,1.61-2.76,3.24-3.46,5.26-.21.59-.34,1.21-.41,1.83-.02.2.19.38.38.38.22,0,.35-.17.38-.38.24-1.99,1.31-3.7,2.54-5.23.36-.45.74-.89,1.11-1.33.13-.15.15-.38,0-.53-.13-.13-.4-.16-.53,0h0Z"/>
        <path class="st0" d="M14.27,35.72c-.1.13-.19.27-.26.41-.09.17-.16.35-.22.54-.03.09-.05.18-.07.27-.02.05-.02.1,0,.15,0,.05.02.1.04.14.05.08.13.15.22.17.1.02.2.02.29-.04.08-.05.15-.13.17-.22.04-.19.09-.37.16-.54l-.04.09c.09-.21.2-.41.34-.59.03-.04.04-.09.04-.14.01-.05,0-.1,0-.15-.02-.09-.09-.18-.17-.22-.09-.05-.19-.07-.29-.04l-.09.04c-.06.03-.1.08-.13.13h0Z"/>
        <path class="st0" d="M14.73,37.29c.16.27.36.52.6.73.27.23.56.4.89.52.15.06.31.1.47.13.1.02.2.02.29-.04.08-.05.15-.13.17-.22.02-.1.02-.2-.04-.29-.05-.08-.13-.16-.22-.17-.19-.03-.38-.09-.55-.16l.09.04c-.2-.08-.38-.19-.55-.32l.08.06c-.17-.13-.32-.28-.45-.44l.06.08c-.07-.09-.13-.18-.18-.27-.05-.08-.13-.15-.22-.17s-.21-.01-.29.04c-.17.11-.24.33-.13.51h0Z"/>
        <path class="st0" d="M27.38,36.59c-.02.11-.06.22-.1.33l.04-.09c-.07.16-.15.3-.26.44l.06-.08c-.11.14-.24.27-.38.38l.08-.06c-.15.11-.31.21-.48.28l.09-.04c-.17.07-.34.12-.52.14h.1c-.16,0-.32,0-.48-.01-.09-.01-.21.05-.27.11-.07.07-.11.17-.11.27s.04.2.11.27l.08.06c.06.03.12.05.19.05.45.06.91-.05,1.32-.26s.75-.52.98-.9c.13-.21.23-.45.29-.7.02-.1.01-.2-.04-.29-.05-.08-.13-.15-.22-.17-.19-.04-.42.06-.46.26h0Z"/>
        <path class="st0" d="M29.33,34.16c.57-.33,1.03-.82,1.29-1.42.14-.31.24-.62.3-.96.07-.38.1-.77.14-1.15,0-.05.01-.11.02-.16,0-.02,0-.04,0-.06,0,.05,0-.03,0-.04.02-.11.03-.21.06-.32.04-.22.11-.43.19-.64.07-.18-.08-.42-.26-.46-.22-.05-.38.07-.46.26-.14.36-.21.73-.26,1.11-.03.19-.05.38-.07.58,0,.09-.02.19-.03.28,0,.04,0,.08-.01.12,0,.02,0,.04,0,.06,0,.06,0-.05,0,.02-.05.3-.11.59-.22.87-.01.03-.02.06-.04.09-.02.05.03-.05,0,0,0,.01-.01.03-.02.04-.03.07-.06.13-.1.2-.03.06-.07.12-.1.17-.02.03-.04.06-.06.09-.01.02-.09.11-.04.05-.1.12-.21.24-.33.34-.03.03-.07.06-.1.08,0,0,.05-.03.01,0-.02.02-.04.03-.07.05-.07.05-.15.1-.23.14-.17.1-.24.34-.13.51s.33.24.51.13h0Z"/>
        <path class="st0" d="M32.11,28.48c-.04.09.02-.05.03-.07.02-.03.03-.07.05-.1.04-.08.08-.16.13-.24.04-.07.08-.13.13-.2.01-.02.02-.03.04-.05.02-.03.02-.06,0,0,.01-.03.06-.07.08-.1.1-.12.21-.23.32-.33.03-.02.05-.05.08-.07,0,0,.05-.03.05-.04,0,0-.08.06-.02.02.06-.05.13-.09.2-.14.26-.17.53-.31.81-.43.07-.03.14-.06.21-.09.02,0,.08-.04,0,0,.02,0,.03-.01.05-.02.04-.02.08-.03.12-.05.16-.06.31-.13.47-.19.42-.18.86-.41.99-.89.05-.19-.07-.42-.26-.46s-.4.06-.46.26v.02s-.02.03,0,0v-.02s0,.03-.01.04c0,.01-.02.03-.03.04-.04.06.01-.02.02-.02,0,.01-.08.08-.09.09-.01,0-.03.02-.04.03.04-.03.05-.04.03-.02-.01,0-.02.01-.03.02-.07.04-.13.08-.21.12-.04.02-.08.05-.12.06,0,0,.08-.03.02,0-.02,0-.05.02-.07.03-.33.13-.66.26-.98.41-.57.26-1.12.59-1.54,1.07-.29.33-.49.69-.66,1.09-.08.18.08.42.26.46.22.05.38-.07.46-.26h0Z"/>
        <path class="st0" d="M35.28,25.82s.03.06.04.09c0,.02.02.03.02.05.02.05-.04-.1,0-.01s.07.18.1.28c.07.23.13.47.16.71.02.1,0-.07,0,.03,0,.03,0,.07.01.1,0,.08.01.15.02.23,0,.15,0,.3,0,.45,0,.08-.01.15-.02.23,0,.02,0,.04,0,.06,0-.01.01-.08,0-.01,0,.04-.01.09-.02.13-.03.17-.07.33-.13.5-.02.05-.03.09-.05.14,0,.02-.02.04-.02.06-.01.04.02-.05,0,.02-.04.09-.08.18-.13.27-.05.1-.11.19-.17.28-.03.04-.06.09-.09.13-.01.02-.03.04-.04.06.04-.05-.03.03-.03.04-.12.15-.16.38,0,.53.14.13.4.16.53,0,.53-.65.85-1.41.94-2.25.06-.61,0-1.24-.18-1.83-.07-.23-.15-.45-.26-.66-.09-.17-.35-.24-.51-.13-.18.12-.23.33-.13.51h0Z"/>
        <path class="st0" d="M28.1,38.14c1.49.24,3.05-.07,4.33-.89.36-.23.7-.5,1-.8.14-.14.14-.39,0-.53s-.39-.14-.53,0c-.26.25-.47.43-.75.62s-.58.35-.88.49c-.02,0-.04.02-.05.02,0,0,.04-.02,0,0-.04.02-.08.03-.13.05-.08.03-.16.06-.24.09-.17.06-.33.1-.5.15s-.33.07-.5.1c-.07.01.01,0-.05,0-.04,0-.08,0-.12.01-.09,0-.18.02-.27.02-.19.01-.39.01-.58,0-.09,0-.18-.01-.27-.02-.05,0-.1-.01-.15-.02,0,0,.05,0,0,0-.03,0-.06,0-.1-.02-.19-.03-.41.05-.46.26-.04.18.05.43.26.46h0Z"/>
        <path class="st0" d="M32.9,35.18c.07.08.16.15.24.21.06.05.13.09.2.12.17.09.35.15.53.18.12.02.24.03.36.02.1,0,.19-.04.27-.11.04-.03.06-.07.08-.12.02-.04.03-.09.03-.14,0-.1-.04-.2-.11-.27s-.17-.12-.27-.11c-.08,0-.16,0-.24,0h.1c-.12,0-.24-.04-.36-.08l.09.04c-.11-.05-.21-.1-.3-.17l.08.06c-.06-.04-.11-.09-.16-.15-.06-.07-.17-.11-.27-.11s-.2.04-.27.11-.11.17-.11.27.04.19.11.27h0Z"/>
        <path class="st0" d="M34.49,34.66c.25-.13.46-.33.64-.54.24-.28.45-.58.64-.9.38-.65.7-1.38.8-2.14.05-.4.03-.78-.13-1.15-.08-.18-.36-.23-.51-.13-.19.12-.22.32-.13.51-.05-.12,0-.02,0,.01s.02.06.03.09.01.06.02.09c0,0,0,.03,0,.04,0-.07-.01-.08,0-.04,0,0,0,.02,0,.03.01.15,0,.29,0,.44,0,.01,0,.03,0,.05,0-.11,0-.04,0,0,0,.03-.01.07-.02.1-.02.08-.03.17-.06.25-.04.16-.09.33-.15.48-.03.08-.06.17-.1.24.05-.09-.01.03-.03.06-.02.04-.04.09-.06.13-.08.16-.16.32-.25.48-.08.15-.17.29-.27.43-.05.07-.09.13-.14.2,0,.01-.02.02-.03.04-.05.06.04-.05,0-.01-.03.03-.05.06-.08.1-.1.12-.2.24-.32.34-.02.02-.05.04-.07.06-.08.07.06-.04,0,0-.05.03-.1.07-.15.09-.18.09-.24.35-.13.51.12.18.33.23.51.13h0Z"/>
      </g>
      <path class="st0" d="M13.8,33.14c-.09.21-.17.42-.23.64s-.1.45-.13.68c-.06.43-.04.86.04,1.29.01.09.1.18.17.22.08.05.2.07.29.04s.18-.09.22-.17c.05-.09.06-.18.04-.29,0-.04-.01-.08-.02-.12v.1c-.04-.36-.03-.73.01-1.1v.1c.04-.36.13-.71.27-1.04l-.04.09s.02-.04.02-.06c.04-.1.07-.18.04-.29-.02-.09-.09-.18-.17-.22-.09-.05-.19-.07-.29-.04-.09.03-.19.09-.22.17h0Z"/>
      <path class="st0" d="M26.42,27.12c1.06,1.48,2.22,3.08,2.22,4.97,0,.2.17.38.38.38s.37-.17.38-.38c0-2.03-1.18-3.76-2.32-5.35-.12-.16-.33-.24-.51-.13-.16.09-.25.35-.13.51h0Z"/>
      <path class="st0" d="M28.02,32.97c.09.24.17.48.22.73.01.06.03.12.04.19,0,.04.01.07.02.11,0,.02,0,.04,0,.05v-.05c.01.06,0,.13.01.19,0,.07.01.14.01.2.01.25,0,.51-.03.76,0,.03,0,.02,0-.03,0,.02,0,.04,0,.05,0,.03,0,.06-.02.09-.01.06-.02.12-.04.19-.03.13-.06.26-.1.38-.06.19.07.42.26.46.2.05.4-.06.46-.26.33-1.06.29-2.24-.13-3.27-.04-.09-.08-.17-.17-.22-.08-.05-.2-.07-.29-.04-.18.06-.34.27-.26.46h0Z"/>
    </g>
  </g>
  <g>
    <path class="st1" d="M30.6,10.33c-.95-.26-2.12.86-2.75,1.42-.54.48-.86.99-1.62.74-1.77-.59-3.65-.86-5.52-.82-.89.02-1.93,0-2.78.29-.36.12-1.36,1-1.66.66-.44-.51-.76-1.06-1.23-1.54-.41-.42-1.05-.49-1.58-.71-1.08-.45-1.81-.61-2.11.75-.28,1.27-.21,2.6.1,3.86.12.51.28,1.06.09,1.54-.1.26-.3.47-.47.7-.68.88-1.16,2.04-1.66,3.03-.29.57-.43,1.25-.18,1.83.21-.07.41-.14.62-.21-.34,1.06-.68,2.19-.37,3.26.13.44.36.85.68,1.18.27-.06.54-.12.81-.18,0,0,1.38,4.59,2.37,2,.32.88,1.11,1.34,1.99,1.6,1.14.33,2.18.13,3.36.09,1.29-.05,2.59-.02,3.88.09,1.14.09,2.32.23,3.46.12s2.14-.8,3.06-1.46c-.18.13.44.24.46.24.16,0,.51-.24.66-.32.61-.34.98-.79,1.43-1.34.27-.33.56-.98.86-1.23.07-.06.17-.07.26-.1.42-.14.53-.68.54-1.12.02-.59,0-1.18-.04-1.77.62.2.6.57.99-.08.15-.25.23-.78.2-1.07-.02-.21-.9-2.31-1.17-2.03,1.09-1.12-1.18-2.43-1.4-3.43-.09-.41.02-.84.08-1.26.19-1.18.18-4.23-1.33-4.71-.01,0-.03,0-.04-.01Z"/>
    <path class="st2" d="M30.52,11.92s-.05-.03-.07-.04c-.16-.05-.33-.04-.51.03-.31.12-.58.35-.81.58-.26.26-.49.54-.7.85-.18.27-.38.38-.41.74,0,.1-.01.21.04.29.1.16.32.15.51.16.64.06,1.04.78,1.49,1.18.02.01.03.03.04.04.06-.12.13-.25.17-.36.31-.79.48-1.67.46-2.52,0-.34-.06-.69-.21-.95Z"/>
    <path class="st2" d="M14.45,13.57c-.4-.5-.9-.92-1.4-1.34-.04-.04-.09-.07-.15-.07-.07,0-.12.05-.16.11-.17.25-.13.59-.07.89.07.38.28,2.08.71,2.19.39.1.31-.34.38-.53.13-.33.23-.49.62-.54.15-.02.35-.04.37-.19.01-.07-.03-.14-.07-.2-.07-.11-.15-.22-.24-.32Z"/>
    <g>
      <g>
        <g>
          <g>
            <ellipse class="st0" cx="16.97" cy="22" rx=".97" ry=".96"/>
            <ellipse class="st0" cx="26.19" cy="22" rx=".97" ry=".96"/>
            <ellipse class="st0" cx="21.33" cy="23.1" rx=".88" ry=".54"/>
          </g>
          <path class="st0" d="M16.55,12.93c1.61-.58,3.3-.91,5.02-.87s3.48.44,5.13,1.04c.45.16.65-.56.2-.72-1.71-.62-3.5-1.03-5.33-1.07s-3.54.3-5.22.9c-.45.16-.26.89.2.72h0Z"/>
          <path class="st0" d="M12.75,10.41c.13.02.26.05.39.1.06.02.13.06.2.08,0,0-.08-.04-.02-.01.01,0,.03.01.04.02.04.02.08.04.12.06.31.15.6.34.88.54.07.05.14.1.21.15,0,0,.08.06.03.02s.03.02.03.03c.04.03.08.06.12.09.15.12.29.24.43.37.28.25.54.52.79.8.06.07.13.15.19.22.03.04.07.08.1.13.01.02.05.05-.01-.01.02.02.03.04.05.06.11.14.21.29.3.45.1.17.34.25.51.13s.24-.33.13-.51c-.38-.63-.89-1.19-1.43-1.7s-1.18-1.02-1.86-1.37c-.31-.16-.65-.31-1.01-.36-.19-.03-.41.05-.46.26-.04.18.05.43.26.46h0Z"/>
          <path class="st0" d="M11.39,10.3c-.58,1.66-.63,3.51-.19,5.21.1.38.23.74.38,1.1.08.19.35.23.51.13.19-.11.22-.33.13-.51-.02-.04-.02-.04,0,0,0-.02-.02-.04-.03-.07-.02-.05-.04-.09-.05-.14-.04-.1-.07-.19-.1-.29-.06-.2-.12-.4-.17-.61-.11-.46-.17-.9-.2-1.37-.07-1.1.07-2.2.44-3.25.07-.19-.08-.41-.26-.46-.21-.06-.39.07-.46.26h0Z"/>
          <path class="st0" d="M13.09,12.54c.14.08.27.17.39.27l-.08-.06c.35.27.68.58.95.92l-.06-.08c.1.13.2.27.26.42l-.04-.09c.03.07.05.13.06.2v-.1s0,.08-.01.12v-.1s0,.06-.01.09l.04-.09s-.02.05-.04.07l.06-.08s-.04.05-.07.06l.08-.06s-.07.05-.11.06l.09-.04c-.08.03-.16.05-.25.06h.1c-.08,0-.16,0-.23,0-.2,0-.38.17-.38.38s.16.38.38.38c.31,0,.69-.06.91-.31.2-.23.23-.54.13-.82s-.28-.53-.48-.76c-.19-.22-.39-.42-.61-.6s-.45-.38-.71-.52c-.17-.1-.42-.05-.51.13s-.05.41.13.51h0Z"/>
          <path class="st0" d="M29.61,12.09c-.36.21-.7.45-1,.73s-.55.6-.71.97c-.05.12-.1.24-.14.37-.04.14-.06.27-.08.41v.1s.05.09.08.13c.05.06.12.12.19.13.14.03.29.05.44.03.18-.02.33-.07.5-.15.18-.09.24-.35.13-.51-.12-.18-.33-.23-.51-.13-.02.01-.05.02-.07.03l.09-.04c-.08.03-.15.05-.24.06h.1c-.08,0-.16,0-.24-.02h.1s-.06,0-.1,0l.28.36v-.02s0,.07-.01.1c.03-.19.08-.37.15-.55l-.04.09c.08-.2.19-.38.32-.55l-.06.08c.18-.24.41-.45.64-.63l-.08.06c.2-.15.41-.29.62-.41.17-.1.24-.34.13-.51s-.33-.24-.51-.13h0Z"/>
        </g>
        <path class="st0" d="M12.41,15.66c-1.01.51-1.76,1.48-2.36,2.41-.33.51-.62,1.05-.87,1.61-.22.5-.47,1.04-.56,1.58-.07.41.11.78.51.92s.74-.05,1.1-.18l-.42-.55c-.71,1.08-.94,2.4-.7,3.66.09.47.81.27.72-.2-.21-1.07.03-2.18.63-3.08.17-.26-.12-.66-.42-.55-.17.06-.36.18-.54.2-.1.01-.14,0-.14-.05,0-.13.08-.31.12-.43.04-.13.08-.25.13-.38.22-.58.49-1.14.81-1.68.58-1,1.33-2.1,2.39-2.64.43-.22.05-.86-.38-.65h0Z"/>
        <path class="st0" d="M10.16,24.61c-.33.65-.49,1.38-.44,2.11,0,.1.04.19.11.27.07.07.17.11.27.11s.2-.04.27-.11.12-.17.11-.27c-.02-.25,0-.49.02-.74v.1c.03-.32.12-.64.24-.94l-.04.09c.04-.08.07-.17.12-.25.05-.09.07-.19.04-.29-.02-.09-.09-.18-.17-.22-.09-.05-.19-.07-.29-.04-.09.03-.18.09-.22.17h0Z"/>
        <path class="st0" d="M10.97,25.78c-.14.98.08,1.98.7,2.76.29.37.76.71,1.26.6s.83-.6.7-1.09-.83-.27-.72.2c.23,1.04,1.23,1.66,2.21,1.81.6.1,1.22.1,1.82.13s1.27.06,1.91.09c.48.02.48-.73,0-.75-.56-.03-1.12-.05-1.69-.08s-1.12-.04-1.67-.1c-.79-.09-1.67-.46-1.86-1.31l-.72.2c.04.16-.19.18-.31.13-.26-.11-.44-.4-.57-.64-.29-.52-.42-1.16-.33-1.76.03-.2-.05-.4-.26-.46-.18-.05-.43.06-.46.26h0Z"/>
        <path class="st0" d="M32.48,19.68c.1.07-.05-.04.04.03.02.02.04.03.06.05.05.04.09.08.14.12.1.09.19.18.28.28.07.08.14.16.2.24-.05-.06.02.03.02.03.01.02.03.04.04.06.04.06.08.11.11.17.12.18.22.37.31.57.01.03.03.06.04.09,0-.01-.03-.07,0,0,.02.05.04.09.05.14.04.1.07.2.1.31.02.08.04.16.06.24,0,.04.02.09.02.13,0,.03,0,.05.01.08,0-.05,0-.06,0,0,.01.15.02.29,0,.44,0,.1.02-.08,0,.01,0,.03-.01.06-.02.09,0,.03-.02.05-.02.08-.02.08.05-.08,0,0,0,.02-.03.04-.03.05,0-.01.07-.07.01-.02-.07.07.05-.04.02-.01,0,0-.02.01-.03.02-.05.02.1-.04.04-.02-.09.03.09-.01.01,0-.09.01-.01-.03.02,0,0,0-.07-.02-.09-.02-.06-.01.07.04.03.02-.02-.01-.04-.02-.06-.03-.03-.02-.06-.04-.09-.06-.02,0-.03-.02-.04-.03.09.06.02.02,0,0-.08-.07-.16-.15-.24-.23-.25-.27-.74.01-.63.36.22.66.2,1.33-.04,1.98-.07.19.08.41.26.46.21.06.39-.07.46-.26.28-.76.3-1.6.04-2.38l-.63.36c.26.28.59.58,1,.57.37,0,.63-.31.72-.64.11-.37.06-.79-.01-1.16-.1-.46-.28-.91-.51-1.32-.33-.57-.76-1.06-1.29-1.45-.16-.12-.42-.03-.51.13-.11.19-.03.39.13.51h0Z"/>
        <path class="st0" d="M30.63,16.18c.09.07.19.14.28.2.03.02.05.04.08.06,0,0,.04.03,0,0,.01,0,.02.02.03.03.05.04.11.08.16.13.21.17.41.34.61.52s.4.38.59.58c.09.1.18.2.27.3.04.05.08.09.12.14.02.02.04.05.06.07,0,.01.02.02.03.03.04.05-.03-.04.01.02.16.21.3.42.42.66.06.12.23.16.34.09.12-.08.15-.22.09-.34-.23-.46-.56-.86-.91-1.24-.38-.41-.78-.79-1.21-1.14-.23-.19-.47-.37-.71-.54-.11-.08-.28-.02-.34.09-.07.13-.02.26.09.34h0Z"/>
        <path class="st0" d="M26.9,13.79c.15-.31.31-.61.5-.9.04-.06.08-.12.12-.18.02-.03.04-.06.06-.09,0-.01.03-.03.03-.04-.01.04-.04.04,0,0,.09-.11.18-.22.28-.33s.2-.21.31-.3c.05-.04.1-.09.15-.13.03-.02.05-.04.08-.07.05-.04,0,0-.01.01.02-.01.04-.03.06-.05.23-.17.47-.32.73-.45.07-.03.14-.07.21-.1.02,0,.03-.01.05-.02-.04.02-.05.02,0,0,.04-.01.07-.03.11-.04.15-.06.31-.11.47-.15.19-.05.32-.27.26-.46s-.26-.32-.46-.26c-1.23.32-2.29,1.1-3.01,2.14-.22.32-.4.67-.58,1.02-.09.17-.05.41.13.51.17.09.42.05.51-.13h0Z"/>
        <path class="st0" d="M31.41,10.49l-.32.33s-.06.07-.08.12c-.02.04-.03.09-.03.14,0,.05,0,.1.03.14.02.05.04.09.08.12l.08.06c.06.03.12.05.19.05h.1c.06-.03.12-.06.17-.11l.32-.33s.06-.07.08-.12c.02-.04.03-.09.03-.14,0-.05,0-.1-.03-.14-.02-.05-.04-.09-.08-.12l-.08-.06c-.06-.03-.12-.05-.19-.05h-.1c-.06.03-.12.06-.17.11h0Z"/>
        <path class="st0" d="M31.35,11.99c.04.21.08.42.11.63.02.09.03.19.04.28,0,.05.02.1.02.16,0-.06,0,.05,0,.05.04.36.07.72.08,1.08,0,.17,0,.34-.02.51,0,.09-.01.18-.02.28,0,.04,0,.09-.02.13,0-.07-.01.07-.01.09-.06.39-.16.77-.28,1.15-.06.19.07.42.26.46.21.05.4-.06.46-.26.24-.76.38-1.55.38-2.35s-.14-1.61-.28-2.4c-.04-.19-.28-.32-.46-.26-.21.07-.3.25-.26.46h0Z"/>
        <path class="st0" d="M23.94,30.26c1.44.34,2.98.12,4.28-.6.37-.21.72-.46,1.04-.74.15-.13.14-.39,0-.53-.15-.15-.38-.13-.53,0-.06.05-.12.1-.18.15s-.09.07-.18.13c-.13.1-.27.18-.41.27s-.3.17-.45.24c-.17.08-.24.11-.41.17-.31.11-.63.2-.96.25-.04,0-.08.01-.12.02-.07.01.01,0-.05,0-.09.01-.18.02-.27.03-.16.01-.32.02-.48.01-.19,0-.37-.02-.56-.04,0,0-.06,0-.03,0,.03,0-.04,0-.05,0-.05,0-.1-.02-.15-.03-.1-.02-.19-.04-.29-.06-.19-.05-.42.06-.46.26s.06.41.26.46h0Z"/>
        <path class="st0" d="M31.95,25.86c-.01.08-.03.16-.06.24-.01.03-.02.07-.03.1,0,.01-.03.07,0,.03.02-.05-.01.03-.02.04-.07.15-.16.3-.26.43-.02.03-.05.07-.07.1.05-.06-.03.03-.04.05-.05.06-.11.13-.16.19-.11.12-.22.24-.34.36s-.24.23-.37.33c-.06.05-.12.1-.18.15,0,0-.06.05-.02.02s-.01.01-.02.02c-.04.03-.07.06-.11.08-.26.19-.54.36-.83.51-.08.04-.16.08-.25.12-.04.02-.07.03-.11.05-.02,0-.04.02-.06.02-.09.04.04-.02,0,0-.17.07-.35.14-.53.19s-.33.26-.26.46c.06.19.26.33.46.26,1.37-.44,2.61-1.3,3.47-2.45.25-.33.46-.72.52-1.13.03-.19-.05-.41-.26-.46-.18-.04-.43.05-.46.26h0Z"/>
      </g>
      <path class="st0" d="M20.61,25.15c.32-.38.6-.78.84-1.22h-.43c.27.39.53.77.8,1.16.04.05.08.1.15.11.06.02.14,0,.19-.03.11-.07.17-.23.09-.34-.27-.39-.53-.77-.8-1.16-.05-.07-.12-.12-.22-.12-.09,0-.17.05-.22.12-.17.32-.37.62-.59.91l.04-.05c-.07.09-.14.17-.21.26-.04.05-.07.11-.07.18,0,.06.03.13.07.18.09.09.26.11.35,0h0Z"/>
    </g>
  </g>
</svg>